<svg width="540" height="30" viewBox="0 0 540 30" fill="none" xmlns="http://www.w3.org/2000/svg">
<path d="M82.5964 29.8978V22.832H85.4181C86.0255 22.832 86.5447 22.933 86.9758 23.1349C87.4134 23.3367 87.7498 23.6261 87.9849 24.0029C88.2201 24.3798 88.3376 24.8273 88.3376 25.3454C88.3376 25.8636 88.2201 26.3111 87.9849 26.6879C87.7498 27.0648 87.4134 27.3541 86.9758 27.556C86.5447 27.7579 86.0255 27.8588 85.4181 27.8588H83.3018L83.8701 27.2431V29.8978H82.5964ZM83.8701 27.3844L83.3018 26.7485H85.3593C85.921 26.7485 86.3423 26.6274 86.6231 26.3851C86.9105 26.1361 87.0542 25.7896 87.0542 25.3454C87.0542 24.8946 86.9105 24.548 86.6231 24.3058C86.3423 24.0635 85.921 23.9424 85.3593 23.9424H83.3018L83.8701 23.2964V27.3844Z" fill="#030000"/>
<path d="M77.5749 30.0006C76.5998 30.0006 75.8346 29.7263 75.2793 29.1779C74.7308 28.6294 74.4565 27.8371 74.4565 26.8011V22.7891H75.777V26.7503C75.777 27.4816 75.9328 28.0132 76.2443 28.345C76.5625 28.6768 77.0095 28.8427 77.5851 28.8427C78.1606 28.8427 78.6042 28.6768 78.9157 28.345C79.2272 28.0132 79.3829 27.4816 79.3829 26.7503V22.7891H80.6831V26.8011C80.6831 27.8371 80.4055 28.6294 79.8502 29.1779C79.3017 29.7263 78.5432 30.0006 77.5749 30.0006Z" fill="#030000"/>
<path d="M69.4113 30.0006C68.856 30.0006 68.3448 29.9092 67.8775 29.7264C67.4103 29.5435 67.004 29.2896 66.6586 28.9646C66.3133 28.6328 66.0458 28.2468 65.8562 27.8067C65.6666 27.3598 65.5718 26.8722 65.5718 26.344C65.5718 25.8159 65.6666 25.3317 65.8562 24.8916C66.0458 24.4447 66.3133 24.0587 66.6586 23.7337C67.004 23.4019 67.4103 23.1446 67.8775 22.9617C68.3448 22.7789 68.8527 22.6875 69.4012 22.6875C69.9564 22.6875 70.4643 22.7789 70.9248 22.9617C71.392 23.1446 71.7983 23.4019 72.1437 23.7337C72.489 24.0587 72.7565 24.4447 72.9461 24.8916C73.1357 25.3317 73.2305 25.8159 73.2305 26.344C73.2305 26.8722 73.1357 27.3598 72.9461 27.8067C72.7565 28.2536 72.489 28.6395 72.1437 28.9646C71.7983 29.2896 71.392 29.5435 70.9248 29.7264C70.4643 29.9092 69.9598 30.0006 69.4113 30.0006ZM69.4012 28.8427C69.7601 28.8427 70.0919 28.7817 70.3966 28.6599C70.7013 28.538 70.9654 28.3653 71.1889 28.1418C71.4124 27.9116 71.585 27.6475 71.7069 27.3496C71.8356 27.0449 71.8999 26.7097 71.8999 26.344C71.8999 25.9784 71.8356 25.6466 71.7069 25.3487C71.585 25.0439 71.4124 24.7799 71.1889 24.5564C70.9654 24.3262 70.7013 24.1501 70.3966 24.0282C70.0919 23.9063 69.7601 23.8454 69.4012 23.8454C69.0423 23.8454 68.7105 23.9063 68.4057 24.0282C68.1078 24.1501 67.8437 24.3262 67.6134 24.5564C67.39 24.7799 67.2139 25.0439 67.0852 25.3487C66.9634 25.6466 66.9024 25.9784 66.9024 26.344C66.9024 26.7029 66.9634 27.0347 67.0852 27.3394C67.2139 27.6442 67.39 27.9116 67.6134 28.1418C67.8369 28.3653 68.101 28.538 68.4057 28.6599C68.7105 28.7817 69.0423 28.8427 69.4012 28.8427Z" fill="#030000"/>
<path d="M58.4976 29.899V22.7891H61.4229C62.0527 22.7891 62.591 22.8906 63.038 23.0938C63.4917 23.2969 63.8404 23.5881 64.0842 23.9673C64.328 24.3465 64.4499 24.7968 64.4499 25.3182C64.4499 25.8396 64.328 26.2899 64.0842 26.6691C63.8404 27.0415 63.4917 27.3293 63.038 27.5324C62.591 27.7288 62.0527 27.827 61.4229 27.827H59.2289L59.818 27.2277V29.899H58.4976ZM63.1497 29.899L61.3518 27.3191H62.7637L64.5718 29.899H63.1497ZM59.818 27.3699L59.2289 26.7402H61.362C61.9443 26.7402 62.3811 26.6149 62.6723 26.3644C62.9703 26.1138 63.1192 25.7651 63.1192 25.3182C63.1192 24.8645 62.9703 24.5158 62.6723 24.272C62.3811 24.0282 61.9443 23.9063 61.362 23.9063H59.2289L59.818 23.2563V27.3699Z" fill="#030000"/>
<path d="M53.9971 30.0006C53.4418 30.0006 52.9306 29.9126 52.4633 29.7365C52.0028 29.5537 51.5999 29.2998 51.2546 28.9747C50.9092 28.6429 50.6417 28.2536 50.4521 27.8067C50.2625 27.3598 50.1677 26.8722 50.1677 26.344C50.1677 25.8159 50.2625 25.3283 50.4521 24.8814C50.6417 24.4345 50.9092 24.0485 51.2546 23.7235C51.6067 23.3917 52.0164 23.1378 52.4836 22.9617C52.9509 22.7789 53.4621 22.6875 54.0174 22.6875C54.6201 22.6875 55.1618 22.7857 55.6426 22.9821C56.1302 23.1784 56.5399 23.4662 56.8717 23.8454L56.0388 24.658C55.7611 24.3803 55.4598 24.1772 55.1347 24.0485C54.8165 23.9131 54.4644 23.8454 54.0784 23.8454C53.7059 23.8454 53.3606 23.9063 53.0423 24.0282C52.724 24.1501 52.4498 24.3228 52.2195 24.5462C51.9893 24.7697 51.8099 25.0338 51.6812 25.3385C51.5593 25.6432 51.4984 25.9784 51.4984 26.344C51.4984 26.7029 51.5593 27.0347 51.6812 27.3394C51.8099 27.6442 51.9893 27.9116 52.2195 28.1418C52.4498 28.3653 52.7206 28.538 53.0321 28.6599C53.3436 28.7817 53.689 28.8427 54.0682 28.8427C54.4203 28.8427 54.7589 28.7885 55.084 28.6802C55.4158 28.5651 55.7307 28.3755 56.0286 28.1114L56.7803 29.0966C56.4078 29.3946 55.9744 29.6214 55.4801 29.7771C54.9925 29.9261 54.4982 30.0006 53.9971 30.0006ZM55.5309 28.9239V26.2628H56.7803V29.0966L55.5309 28.9239Z" fill="#030000"/>
<path d="M41.9777 25.7448H45.5125V26.8316H41.9777V25.7448ZM42.0793 28.7919H46.0915V29.899H40.7588V22.7891H45.9493V23.8962H42.0793V28.7919Z" fill="#030000"/>
<path d="M36.8707 30.0006C36.329 30.0006 35.8245 29.9126 35.3572 29.7365C34.8967 29.5537 34.4938 29.2998 34.1485 28.9747C33.8099 28.6429 33.5458 28.2536 33.3562 27.8067C33.1666 27.3598 33.0718 26.8722 33.0718 26.344C33.0718 25.8159 33.1666 25.3283 33.3562 24.8814C33.5458 24.4345 33.8133 24.0485 34.1586 23.7235C34.504 23.3917 34.9069 23.1378 35.3674 22.9617C35.8278 22.7789 36.3323 22.6875 36.8808 22.6875C37.4632 22.6875 37.9948 22.7891 38.4756 22.9922C38.9564 23.1886 39.3627 23.4831 39.6945 23.8759L38.8412 24.6783C38.5839 24.4007 38.2961 24.1941 37.9779 24.0587C37.6596 23.9165 37.3142 23.8454 36.9418 23.8454C36.5693 23.8454 36.2274 23.9063 35.9159 24.0282C35.6112 24.1501 35.3437 24.3228 35.1134 24.5462C34.89 24.7697 34.7139 25.0338 34.5852 25.3385C34.4634 25.6432 34.4024 25.9784 34.4024 26.344C34.4024 26.7097 34.4634 27.0449 34.5852 27.3496C34.7139 27.6543 34.89 27.9184 35.1134 28.1418C35.3437 28.3653 35.6112 28.538 35.9159 28.6599C36.2274 28.7817 36.5693 28.8427 36.9418 28.8427C37.3142 28.8427 37.6596 28.775 37.9779 28.6395C38.2961 28.4973 38.5839 28.284 38.8412 27.9996L39.6945 28.8122C39.3627 29.1982 38.9564 29.4927 38.4756 29.6959C37.9948 29.899 37.4598 30.0006 36.8707 30.0006Z" fill="#030000"/>
<path d="M25.2041 29.899V22.7891H26.291L30.7501 28.2637H30.2118V22.7891H31.5221V29.899H30.4352L25.9761 24.4244H26.5144V29.899H25.2041Z" fill="#030000"/>
<path d="M19.466 25.7448H23.0008V26.8316H19.466V25.7448ZM19.5675 28.7919H23.5798V29.899H18.2471V22.7891H23.4376V23.8962H19.5675V28.7919Z" fill="#030000"/>
<path d="M14.8508 29.899V22.7891H16.1713V29.899H14.8508Z" fill="#030000"/>
<path d="M10.6981 30.0006C10.1563 30.0006 9.65186 29.9126 9.18461 29.7365C8.72414 29.5537 8.32122 29.2998 7.97587 28.9747C7.63728 28.6429 7.37319 28.2536 7.18358 27.8067C6.99397 27.3598 6.89917 26.8722 6.89917 26.344C6.89917 25.8159 6.99397 25.3283 7.18358 24.8814C7.37319 24.4345 7.64067 24.0485 7.98602 23.7235C8.33138 23.3917 8.73429 23.1378 9.19477 22.9617C9.65524 22.7789 10.1597 22.6875 10.7082 22.6875C11.2906 22.6875 11.8222 22.7891 12.303 22.9922C12.7838 23.1886 13.1901 23.4831 13.5219 23.8759L12.6686 24.6783C12.4113 24.4007 12.1235 24.1941 11.8053 24.0587C11.487 23.9165 11.1416 23.8454 10.7692 23.8454C10.3967 23.8454 10.0548 23.9063 9.74327 24.0282C9.43855 24.1501 9.17107 24.3228 8.94083 24.5462C8.71737 24.7697 8.5413 25.0338 8.41264 25.3385C8.29075 25.6432 8.2298 25.9784 8.2298 26.344C8.2298 26.7097 8.29075 27.0449 8.41264 27.3496C8.5413 27.6543 8.71737 27.9184 8.94083 28.1418C9.17107 28.3653 9.43855 28.538 9.74327 28.6599C10.0548 28.7817 10.3967 28.8427 10.7692 28.8427C11.1416 28.8427 11.487 28.775 11.8053 28.6395C12.1235 28.4973 12.4113 28.284 12.6686 27.9996L13.5219 28.8122C13.1901 29.1982 12.7838 29.4927 12.303 29.6959C11.8222 29.899 11.2872 30.0006 10.6981 30.0006Z" fill="#030000"/>
<path d="M3.07056 30.0006C2.51529 30.0006 1.98371 29.9227 1.47583 29.767C0.967958 29.6045 0.565044 29.3979 0.26709 29.1474L0.724178 28.1215C1.00859 28.345 1.36072 28.5312 1.78056 28.6802C2.2004 28.8291 2.63041 28.9036 3.07056 28.9036C3.44301 28.9036 3.74435 28.863 3.97458 28.7817C4.20482 28.7005 4.37411 28.5921 4.48246 28.4567C4.59081 28.3145 4.64498 28.1554 4.64498 27.9793C4.64498 27.7627 4.5671 27.59 4.41136 27.4613C4.25561 27.3259 4.05246 27.2209 3.80191 27.1465C3.55812 27.0652 3.28387 26.9907 2.97915 26.923C2.68119 26.8553 2.37985 26.7774 2.07513 26.6894C1.77717 26.5946 1.50292 26.4761 1.25237 26.3339C1.00859 26.1849 0.808824 25.9885 0.653075 25.7448C0.497327 25.501 0.419453 25.1895 0.419453 24.8103C0.419453 24.4244 0.521028 24.0722 0.724178 23.754C0.9341 23.429 1.24898 23.1717 1.66883 22.9821C2.09544 22.7857 2.63379 22.6875 3.28387 22.6875C3.71049 22.6875 4.13372 22.7417 4.55356 22.85C4.97341 22.9584 5.33908 23.1141 5.65057 23.3172L5.23412 24.3431C4.91585 24.1535 4.58742 24.0147 4.24884 23.9267C3.91025 23.8319 3.58521 23.7845 3.27371 23.7845C2.90804 23.7845 2.61009 23.8285 2.37985 23.9165C2.15639 24.0045 1.99048 24.1196 1.88213 24.2618C1.78056 24.404 1.72977 24.5666 1.72977 24.7494C1.72977 24.9661 1.80426 25.1421 1.95324 25.2776C2.10899 25.4062 2.30875 25.5078 2.55253 25.5823C2.80308 25.6568 3.08072 25.7312 3.38545 25.8057C3.69017 25.8734 3.99151 25.9513 4.28947 26.0393C4.59419 26.1274 4.86844 26.2425 5.11222 26.3847C5.36278 26.5269 5.56254 26.7199 5.71152 26.9636C5.86727 27.2074 5.94514 27.5155 5.94514 27.8879C5.94514 28.2671 5.84018 28.6192 5.63026 28.9443C5.42711 29.2625 5.11223 29.5198 4.68561 29.7162C4.25899 29.9058 3.72065 30.0006 3.07056 30.0006Z" fill="#030000"/>
<path d="M66.1309 20.4447V13.3789H67.4273V19.3344H70.6355V20.4447H66.1309Z" fill="#030000"/>
<path d="M57.3647 20.4498L60.5644 13.3398H61.8645L65.0743 20.4498H63.6929L60.9402 14.0407H61.4684L58.7259 20.4498H57.3647ZM58.8376 18.8043L59.1931 17.7683H63.0326L63.3882 18.8043H58.8376Z" fill="#030000"/>
<path d="M50.6116 20.4498V13.3398H53.5369C54.1667 13.3398 54.7051 13.4414 55.152 13.6446C55.6057 13.8477 55.9544 14.1389 56.1982 14.5181C56.442 14.8973 56.5639 15.3476 56.5639 15.869C56.5639 16.3904 56.442 16.8406 56.1982 17.2198C55.9544 17.5923 55.6057 17.8801 55.152 18.0832C54.7051 18.2796 54.1667 18.3778 53.5369 18.3778H51.3429L51.9321 17.7785V20.4498H50.6116ZM55.2637 20.4498L53.4658 17.8699H54.8777L56.6858 20.4498H55.2637ZM51.9321 17.9207L51.3429 17.2909H53.476C54.0584 17.2909 54.4951 17.1657 54.7863 16.9151C55.0843 16.6646 55.2332 16.3159 55.2332 15.869C55.2332 15.4153 55.0843 15.0665 54.7863 14.8228C54.4951 14.579 54.0584 14.4571 53.476 14.4571H51.3429L51.9321 13.8071V17.9207Z" fill="#030000"/>
<path d="M45.5051 20.5475C44.9498 20.5475 44.4385 20.4561 43.9713 20.2732C43.504 20.0904 43.0977 19.8365 42.7524 19.5114C42.407 19.1796 42.1395 18.7937 41.9499 18.3535C41.7603 17.9066 41.6655 17.4191 41.6655 16.8909C41.6655 16.3628 41.7603 15.8786 41.9499 15.4385C42.1395 14.9915 42.407 14.6056 42.7524 14.2806C43.0977 13.9488 43.504 13.6914 43.9713 13.5086C44.4385 13.3258 44.9464 13.2344 45.4949 13.2344C46.0502 13.2344 46.5581 13.3258 47.0185 13.5086C47.4858 13.6914 47.8921 13.9488 48.2374 14.2806C48.5828 14.6056 48.8503 14.9915 49.0399 15.4385C49.2295 15.8786 49.3243 16.3628 49.3243 16.8909C49.3243 17.4191 49.2295 17.9066 49.0399 18.3535C48.8503 18.8005 48.5828 19.1864 48.2374 19.5114C47.8921 19.8365 47.4858 20.0904 47.0185 20.2732C46.5581 20.4561 46.0536 20.5475 45.5051 20.5475ZM45.4949 19.3896C45.8538 19.3896 46.1856 19.3286 46.4903 19.2067C46.7951 19.0848 47.0592 18.9122 47.2826 18.6887C47.5061 18.4585 47.6788 18.1944 47.8007 17.8965C47.9293 17.5918 47.9937 17.2566 47.9937 16.8909C47.9937 16.5253 47.9293 16.1935 47.8007 15.8955C47.6788 15.5908 47.5061 15.3267 47.2826 15.1033C47.0592 14.873 46.7951 14.697 46.4903 14.5751C46.1856 14.4532 45.8538 14.3923 45.4949 14.3923C45.136 14.3923 44.8042 14.4532 44.4995 14.5751C44.2015 14.697 43.9374 14.873 43.7072 15.1033C43.4837 15.3267 43.3077 15.5908 43.179 15.8955C43.0571 16.1935 42.9962 16.5253 42.9962 16.8909C42.9962 17.2498 43.0571 17.5816 43.179 17.8863C43.3077 18.191 43.4837 18.4585 43.7072 18.6887C43.9307 18.9122 44.1947 19.0848 44.4995 19.2067C44.8042 19.3286 45.136 19.3896 45.4949 19.3896Z" fill="#030000"/>
<path d="M38.7776 20.4498V13.3398H40.0981V20.4498H38.7776Z" fill="#030000"/>
<path d="M33.5074 20.4447L30.5449 13.3789H31.91L34.5529 19.7684H33.7688L36.4408 13.3789H37.6993L34.7466 20.4447H33.5074Z" fill="#030000"/>
<path d="M22.7197 20.4447L25.9089 13.3789H27.2048L30.4041 20.4447H29.0272L26.2835 14.0754H26.81L24.0764 20.4447H22.7197ZM24.1878 18.8095L24.5421 17.7799H28.3691L28.7235 18.8095H24.1878Z" fill="#030000"/>
<path d="M20.2592 13.3398H21.5797V20.4498H20.2592V13.3398ZM16.5822 20.4498H15.2617V13.3398H16.5822V20.4498ZM20.3608 17.4027H16.4705V16.2752H20.3608V17.4027Z" fill="#030000"/>
<path d="M9.69815 16.2956H13.233V17.3824H9.69815V16.2956ZM9.79973 19.3427H13.8119V20.4498H8.47925V13.3398H13.6697V14.447H9.79973V19.3427Z" fill="#030000"/>
<path d="M0.866211 20.4447V13.3789H3.98688C4.78608 13.3789 5.39499 13.5471 5.81362 13.8836C6.23224 14.2133 6.44156 14.6575 6.44156 15.216C6.44156 15.5929 6.3591 15.9159 6.19419 16.185C6.02927 16.4475 5.80727 16.6527 5.52819 16.8008C5.25545 16.9421 4.95733 17.0127 4.63385 17.0127L4.80511 16.6494C5.17933 16.6494 5.5155 16.7234 5.81362 16.8714C6.11173 17.0127 6.34641 17.2213 6.51767 17.4973C6.69527 17.7732 6.78407 18.1163 6.78407 18.5268C6.78407 19.1325 6.56524 19.6035 6.12758 19.94C5.68993 20.2765 5.03979 20.4447 4.17717 20.4447H0.866211ZM2.10306 19.4151H4.10105C4.56408 19.4151 4.91928 19.3344 5.16665 19.1729C5.41402 19.0113 5.5377 18.7523 5.5377 18.3956C5.5377 18.0457 5.41402 17.79 5.16665 17.6285C4.91928 17.4602 4.56408 17.3761 4.10105 17.3761H2.00792V16.3566H3.85368C4.28499 16.3566 4.61482 16.2759 4.84316 16.1144C5.07785 15.9529 5.19519 15.7106 5.19519 15.3876C5.19519 15.0579 5.07785 14.8123 4.84316 14.6507C4.61482 14.4892 4.28499 14.4085 3.85368 14.4085H2.10306V19.4151Z" fill="#030000"/>
<path d="M6.80112 4.19531C6.80112 2.75633 5.63454 1.5898 4.1955 1.5898C2.75645 1.5898 1.58987 2.75633 1.58987 4.19531C1.58987 5.6343 2.75645 6.80082 4.1955 6.80082V8.39063C1.87839 8.39063 0 6.51232 0 4.19531C0 1.87831 1.87839 0 4.1955 0C6.5126 0 8.39099 1.87831 8.39099 4.19531C8.39099 6.51232 6.5126 8.39063 4.1955 8.39063V6.80082C5.63454 6.80082 6.80112 5.6343 6.80112 4.19531Z" fill="#A2958C"/>
<path d="M17.4887 4.23828C17.4887 3.33587 16.7571 2.60432 15.8547 2.60432C14.9522 2.60432 14.2206 3.33587 14.2206 4.23828C14.2206 5.14069 14.9522 5.87225 15.8547 5.87225V8.43359C13.5376 8.43359 11.6592 6.55529 11.6592 4.23828C11.6592 1.92127 13.5376 0.0429688 15.8547 0.0429688C18.1718 0.0429688 20.0502 1.92127 20.0502 4.23828C20.0502 6.55529 18.1718 8.43359 15.8547 8.43359V5.87225C16.7571 5.87225 17.4887 5.14069 17.4887 4.23828Z" fill="#EF4147"/>
<ellipse cx="27.5136" cy="4.19531" rx="4.1955" ry="4.19531" fill="#0BB3A6"/>
<path d="M215.905 29.893V23.0742H216.412V29.893H215.905Z" fill="#57068C"/>
<path d="M208.904 29.893V23.0742H211.719C212.499 23.0742 213.112 23.2983 213.492 23.6782C213.785 23.9704 213.931 24.3308 213.931 24.7497V24.7692C213.931 25.7043 213.327 26.1524 212.772 26.3862C213.59 26.6005 214.311 27.0778 214.311 28.0129V28.0324C214.311 29.1721 213.337 29.893 211.866 29.893H208.904ZM213.414 24.8179V24.7984C213.414 24.0483 212.81 23.5418 211.71 23.5418H209.411V26.2206H211.661C212.674 26.2206 213.414 25.7238 213.414 24.8179ZM213.794 28.0324V28.0129C213.794 27.1655 213.073 26.6882 211.719 26.6882H209.411V29.4254H211.885C213.054 29.4254 213.794 28.8896 213.794 28.0324Z" fill="#57068C"/>
<path d="M200.721 29.8948L203.897 23.0273H204.384L207.56 29.8948H207.004L206.137 27.9855H202.114L201.247 29.8948H200.721ZM202.329 27.5277H205.923L204.131 23.5826L202.329 27.5277Z" fill="#57068C"/>
<path d="M194.002 29.893V23.0742H194.509V26.2303H198.873V23.0742H199.379V29.893H198.873V26.6979H194.509V29.893H194.002Z" fill="#57068C"/>
<path d="M186.48 29.893V23.0742H188.75C190.893 23.0742 192.373 24.5451 192.373 26.4641V26.4836C192.373 28.4026 190.893 29.893 188.75 29.893H186.48ZM188.75 23.5418H186.987V29.4254H188.75C190.649 29.4254 191.847 28.1298 191.847 26.5031V26.4836C191.847 24.8763 190.649 23.5418 188.75 23.5418Z" fill="#57068C"/>
<path d="M179.042 30.0001C177.406 30.0001 176.247 28.9676 176.247 27.0583V23.0742H176.753V27.0096C176.753 28.6364 177.61 29.5423 179.062 29.5423C180.435 29.5423 181.331 28.7045 181.331 27.0583V23.0742H181.838V26.9999C181.838 28.9481 180.698 30.0001 179.042 30.0001Z" fill="#57068C"/>
<path d="M169.421 29.893V23.0742H172.236C173.015 23.0742 173.629 23.2983 174.009 23.6782C174.301 23.9704 174.447 24.3308 174.447 24.7497V24.7692C174.447 25.7043 173.843 26.1524 173.288 26.3862C174.106 26.6005 174.827 27.0778 174.827 28.0129V28.0324C174.827 29.1721 173.853 29.893 172.382 29.893H169.421ZM173.931 24.8179V24.7984C173.931 24.0483 173.327 23.5418 172.226 23.5418H169.927V26.2206H172.178C173.191 26.2206 173.931 25.7238 173.931 24.8179ZM174.311 28.0324V28.0129C174.311 27.1655 173.59 26.6882 172.236 26.6882H169.927V29.4254H172.402C173.571 29.4254 174.311 28.8896 174.311 28.0324Z" fill="#57068C"/>
<path d="M161.238 29.8948L164.413 23.0273H164.9L168.076 29.8948H167.521L166.654 27.9855H162.631L161.764 29.8948H161.238ZM162.845 27.5277H166.44L164.647 23.5826L162.845 27.5277Z" fill="#57068C"/>
<path d="M154.384 30.0001C152.748 30.0001 151.589 28.9676 151.589 27.0583V23.0742H152.095V27.0096C152.095 28.6364 152.952 29.5423 154.404 29.5423C155.777 29.5423 156.673 28.7045 156.673 27.0583V23.0742H157.18V26.9999C157.18 28.9481 156.04 30.0001 154.384 30.0001Z" fill="#57068C"/>
<path d="M147.041 29.893V27.1947L144.119 23.0742H144.752L147.304 26.7369L149.866 23.0742H150.47L147.548 27.1849V29.893H147.041Z" fill="#57068C"/>
<path d="M137.222 29.893V23.0742H137.699L142.404 29.0065V23.0742H142.891V29.893H142.511L137.709 23.834V29.893H137.222Z" fill="#57068C"/>
<path d="M204.358 19.7069V11.6484H205.993L209.769 16.6102V11.6484H211.519V19.7069H210.01L206.108 14.584V19.7069H204.358Z" fill="#57068C"/>
<path d="M198.606 19.8465C196.12 19.8465 194.335 17.9931 194.335 15.7021V15.6791C194.335 13.3882 196.143 11.5117 198.63 11.5117C201.116 11.5117 202.901 13.3652 202.901 15.6561V15.6791C202.901 17.97 201.093 19.8465 198.606 19.8465ZM198.63 18.2118C200.057 18.2118 201.047 17.0836 201.047 15.7021V15.6791C201.047 14.2977 200.034 13.1464 198.606 13.1464C197.179 13.1464 196.189 14.2746 196.189 15.6561V15.6791C196.189 17.0606 197.202 18.2118 198.63 18.2118Z" fill="#57068C"/>
<path d="M191.021 19.7069V11.6484H192.793V19.7069H191.021Z" fill="#57068C"/>
<path d="M185.467 19.7069V13.2832H183.015V11.6484H189.692V13.2832H187.24V19.7069H185.467Z" fill="#57068C"/>
<path d="M174.954 19.7098L178.408 11.5938H180.043L183.496 19.7098H181.643L180.906 17.9024H177.498L176.762 19.7098H174.954ZM178.131 16.3368H180.273L179.202 13.7235L178.131 16.3368Z" fill="#57068C"/>
<path d="M171.036 19.8465C168.665 19.8465 166.904 18.0161 166.904 15.7021V15.6791C166.904 13.3882 168.63 11.5117 171.106 11.5117C172.614 11.5117 173.546 12.0183 174.283 12.755L173.155 14.0559C172.522 13.4918 171.911 13.1464 171.094 13.1464C169.736 13.1464 168.757 14.2746 168.757 15.6561V15.6791C168.757 17.0606 169.713 18.2118 171.094 18.2118C172.015 18.2118 172.579 17.8549 173.212 17.2678L174.34 18.4075C173.512 19.2939 172.602 19.8465 171.036 19.8465Z" fill="#57068C"/>
<path d="M162.035 19.8336C159.871 19.8336 158.547 18.6363 158.547 16.2533V11.6484H160.32V16.2073C160.32 17.5312 160.965 18.1989 162.058 18.1989C163.152 18.1989 163.797 17.5542 163.797 16.2648V11.6484H165.57V16.1957C165.57 18.6363 164.2 19.8336 162.035 19.8336Z" fill="#57068C"/>
<path d="M149.784 19.7069V11.6484H152.927C155.459 11.6484 157.209 13.3868 157.209 15.6547V15.6777C157.209 17.9456 155.459 19.7069 152.927 19.7069H149.784ZM152.927 13.2486H151.557V18.1068H152.927C154.366 18.1068 155.356 17.1282 155.356 15.7007V15.6777C155.356 14.2502 154.366 13.2486 152.927 13.2486Z" fill="#57068C"/>
<path d="M142.187 19.7069V11.6484H148.265V13.2256H143.948V14.8603H147.747V16.4375H143.948V18.1298H148.323V19.7069H142.187Z" fill="#57068C"/>
<path d="M204.015 8.19523V0.136719H210.094V1.71388H205.777V3.34861H209.576V4.92578H205.777V6.61806H210.151V8.19523H204.015Z" fill="#57068C"/>
<path d="M198.063 8.25279L194.805 0.136719H196.762L198.869 5.81221L200.976 0.136719H202.887L199.629 8.25279H198.063Z" fill="#57068C"/>
<path d="M191.824 8.19523V0.136719H193.597V8.19523H191.824Z" fill="#57068C"/>
<path d="M186.27 8.19523V1.77145H183.818V0.136719H190.495V1.77145H188.043V8.19523H186.27Z" fill="#57068C"/>
<path d="M179.169 8.32186C177.005 8.32186 175.681 7.1246 175.681 4.74158V0.136719H177.454V4.69553C177.454 6.01943 178.098 6.68714 179.192 6.68714C180.286 6.68714 180.93 6.04246 180.93 4.75309V0.136719H182.703V4.68402C182.703 7.1246 181.333 8.32186 179.169 8.32186Z" fill="#57068C"/>
<path d="M171.199 8.3348C168.828 8.3348 167.066 6.50437 167.066 4.19043V4.1674C167.066 1.87648 168.793 0 171.268 0C172.776 0 173.709 0.506535 174.446 1.24331L173.318 2.54419C172.684 1.98009 172.074 1.63473 171.257 1.63473C169.898 1.63473 168.92 2.76292 168.92 4.14438V4.1674C168.92 5.54886 169.875 6.70008 171.257 6.70008C172.178 6.70008 172.742 6.3432 173.375 5.75608L174.503 6.89578C173.674 7.78222 172.765 8.3348 171.199 8.3348Z" fill="#57068C"/>
<path d="M159.826 8.19523V0.136719H165.905V1.71388H161.588V3.34861H165.387V4.92578H161.588V6.61806H165.962V8.19523H159.826Z" fill="#57068C"/>
<path d="M156.483 0.136719H158.497L155.803 4.07388L158.612 8.19523H156.54L154.733 5.43231L152.914 8.19523H150.899L153.708 4.0969L151.014 0.136719H153.086L154.767 2.74998L156.483 0.136719Z" fill="#57068C"/>
<path d="M143.912 8.19523V0.136719H149.991V1.71388H145.674V3.34861H149.473V4.92578H145.674V6.61806H150.048V8.19523H143.912Z" fill="#57068C"/>
<path d="M301.363 2.05859H299.867V7.19258H301.363V2.05859Z" fill="#57068C"/>
<path d="M303.905 7.1006H316.037V0.296875H314.539V5.74925H305.473C305.474 5.74198 305.474 5.73358 305.475 5.72575C305.501 5.58922 305.566 4.01293 307.499 4.01293H307.429V2.62969L307.479 2.63305C304.047 2.63305 303.904 5.22326 303.904 5.75149L303.905 7.1006Z" fill="#57068C"/>
<path d="M317.857 2.66016L317.876 6.74664C317.876 7.2122 317.755 7.56584 317.512 7.80533C317.269 8.04538 316.895 8.16457 316.389 8.16457H316.006V9.34189L316.428 9.34077C316.913 9.34077 317.339 9.28929 317.701 9.18577C318.063 9.08169 318.367 8.91998 318.61 8.69895C318.853 8.4796 319.034 8.19591 319.155 7.84954C319.274 7.50261 319.335 7.08238 319.335 6.59052V2.66016H317.857Z" fill="#57068C"/>
<path d="M290.911 5.73545H289.197C289.197 3.90792 290.911 4.03494 290.911 4.03494V5.73545ZM298.743 2.72276H297.247V5.84064H292.415V2.68807H292.407V2.68359L290.939 2.6987C288.298 2.84475 287.77 4.31864 287.77 5.84736V7.13323H290.928C290.878 7.42477 290.769 7.65978 290.595 7.83213C290.351 8.07218 289.977 8.19249 289.471 8.19249H288.488V9.37036L289.511 9.36813C289.996 9.36813 290.42 9.31665 290.783 9.21313C291.147 9.10961 291.449 8.94789 291.692 8.72743C291.933 8.5064 292.117 8.22382 292.237 7.87689C292.306 7.67489 292.353 7.44435 292.383 7.19143H298.743V2.72276Z" fill="#57068C"/>
<path d="M323.426 5.73545H321.712C321.712 3.90792 323.426 4.03494 323.426 4.03494V5.73545ZM330.232 2.72276H328.736V5.84064H324.933V2.68807H324.923V2.68359L323.455 2.6987C320.814 2.84475 320.286 4.31864 320.286 5.84736V7.13323H323.444C323.397 7.42477 323.286 7.65978 323.11 7.83213C322.866 8.07218 322.493 8.19249 321.987 8.19249H321.003V9.37036L322.026 9.36813C322.511 9.36813 322.936 9.31665 323.301 9.21313C323.661 9.10961 323.966 8.94789 324.209 8.72743C324.452 8.5064 324.632 8.22382 324.754 7.87689C324.823 7.67489 324.869 7.44435 324.898 7.19143H330.232V2.72276Z" fill="#57068C"/>
<path d="M334.518 5.73545H332.804C332.804 3.90792 334.518 4.03494 334.518 4.03494V5.73545ZM344.49 2.72276V5.84064H340.781V2.72276H339.284V5.84064H336.024V2.68807H336.015V2.68359L334.548 2.6987C331.907 2.84475 331.379 4.31864 331.379 5.84736V7.13323H334.537C334.489 7.42477 334.377 7.65978 334.203 7.83213C333.958 8.07218 333.586 8.19249 333.079 8.19249H332.095V9.37036L333.12 9.36813C333.603 9.36813 334.028 9.31665 334.392 9.21313C334.755 9.10961 335.059 8.94789 335.302 8.72743C335.544 8.5064 335.725 8.22382 335.846 7.87689C335.917 7.67489 335.963 7.44435 335.991 7.19143H345.988V2.72276H344.49Z" fill="#57068C"/>
<path d="M284.377 5.74725H281.476V4.01821H284.347C285.401 4.01821 285.548 4.641 285.548 4.89672C285.548 5.13677 285.529 5.74725 284.377 5.74725ZM284.475 2.66798H281.476V0.00390625H279.979V5.79146H275.226V2.66351L269.915 2.66183V4.05626H269.96C271.131 4.06465 271.493 4.57945 271.493 5.04948C271.493 5.83119 270.511 6.17364 269.535 6.15294H269.018C266.746 6.15294 266.869 4.64716 266.869 4.64716V2.66798H265.298L265.296 4.80439C265.296 6.25086 266.958 7.32802 268.791 7.32802H269.763C273.067 7.32802 272.984 5.10823 272.984 5.10823C273 4.70815 272.9 4.35898 272.725 4.05626H273.728V7.11427L284.328 7.11315C286.917 7.11315 287.07 5.27386 287.07 4.90623C287.07 4.90623 287.17 2.66798 284.475 2.66798Z" fill="#57068C"/>
<path d="M283.878 1.42992C283.878 1.81602 283.564 2.12993 283.178 2.12993C282.792 2.12993 282.479 1.81602 282.479 1.42992C282.479 1.04326 282.792 0.730469 283.178 0.730469C283.564 0.730469 283.878 1.04326 283.878 1.42992Z" fill="#57068C"/>
<path d="M345.902 1.42992C345.902 1.81602 345.59 2.12993 345.202 2.12993C344.816 2.12993 344.505 1.81602 344.505 1.42992C344.505 1.04326 344.816 0.730469 345.202 0.730469C345.59 0.730469 345.902 1.04326 345.902 1.42992Z" fill="#57068C"/>
<path d="M273.781 8.64198C273.781 9.02808 273.468 9.34087 273.083 9.34087C272.695 9.34087 272.383 9.02808 272.383 8.64198C272.383 8.25476 272.695 7.94141 273.083 7.94141C273.468 7.94141 273.781 8.25476 273.781 8.64198Z" fill="#57068C"/>
<path d="M297.533 8.69499C297.533 9.0822 297.221 9.39556 296.834 9.39556C296.448 9.39556 296.135 9.0822 296.135 8.69499C296.135 8.31001 296.448 7.99609 296.834 7.99609C297.221 7.99609 297.533 8.31001 297.533 8.69499Z" fill="#57068C"/>
<path d="M269.143 8.64198C269.143 9.02808 268.83 9.34087 268.443 9.34087C268.057 9.34087 267.744 9.02808 267.744 8.64198C267.744 8.25476 268.057 7.94141 268.443 7.94141C268.83 7.94141 269.143 8.25476 269.143 8.64198Z" fill="#57068C"/>
<path d="M270.745 8.64198C270.745 9.02808 270.433 9.34087 270.045 9.34087C269.659 9.34087 269.345 9.02808 269.345 8.64198C269.345 8.25476 269.659 7.94141 270.045 7.94141C270.433 7.94141 270.745 8.25476 270.745 8.64198Z" fill="#57068C"/>
<path d="M328.055 8.69499C328.055 9.08165 327.741 9.39556 327.356 9.39556C326.968 9.39556 326.655 9.08165 326.655 8.69499C326.655 8.30945 326.968 7.99609 327.356 7.99609C327.741 7.99609 328.055 8.30945 328.055 8.69499Z" fill="#57068C"/>
<path d="M329.656 8.69499C329.656 9.08165 329.344 9.39556 328.957 9.39556C328.57 9.39556 328.257 9.08165 328.257 8.69499C328.257 8.30945 328.57 7.99609 328.957 7.99609C329.344 7.99609 329.656 8.30945 329.656 8.69499Z" fill="#57068C"/>
<path d="M339.263 8.69499C339.263 9.08165 338.949 9.39556 338.563 9.39556C338.178 9.39556 337.864 9.08165 337.864 8.69499C337.864 8.30945 338.178 7.99609 338.563 7.99609C338.949 7.99609 339.263 8.30945 339.263 8.69499Z" fill="#57068C"/>
<path d="M340.864 8.69499C340.864 9.08165 340.552 9.39556 340.165 9.39556C339.778 9.39556 339.465 9.08165 339.465 8.69499C339.465 8.30945 339.778 7.99609 340.165 7.99609C340.552 7.99609 340.864 8.30945 340.864 8.69499Z" fill="#57068C"/>
<path d="M300.688 1.30568V1.29785C300.688 1.2279 300.7 1.16187 300.722 1.0992C300.745 1.03765 300.777 0.983933 300.816 0.93693C300.858 0.889926 300.906 0.853554 300.961 0.826695C301.014 0.800396 301.073 0.788086 301.23 0.787526V0.328125C300.998 0.329244 300.868 0.354424 300.75 0.404225C300.631 0.455705 300.527 0.525091 300.44 0.614061C300.353 0.703591 300.285 0.80711 300.237 0.926297C300.187 1.04548 300.163 1.17139 300.163 1.30568V1.31128C300.163 1.32079 300.165 1.32694 300.165 1.33422H299.865V1.82104H301.383V1.33422H300.692C300.69 1.32471 300.688 1.31519 300.688 1.30568Z" fill="#57068C"/>
<path d="M310.475 3.80098V3.79091C310.475 3.69746 310.491 3.60961 310.52 3.52736C310.55 3.4451 310.591 3.37292 310.647 3.31025C310.699 3.24702 310.764 3.19889 310.838 3.16364C310.908 3.12839 310.987 3.1116 311.196 3.11048V2.5C310.887 2.50112 310.713 2.53357 310.558 2.60128C310.396 2.66899 310.259 2.76188 310.144 2.8805C310.028 2.99913 309.938 3.13734 309.873 3.29626C309.807 3.45461 309.774 3.62248 309.774 3.80098V3.80994C309.774 3.82057 309.777 3.83008 309.777 3.83959H309.378V4.48812H311.4V3.83959H310.479C310.477 3.82672 310.475 3.81385 310.475 3.80098Z" fill="#57068C"/>
<path d="M379.361 2.63305L377.263 2.62969V4.01349H379.343C381.277 4.01349 381.34 5.58922 381.366 5.72575C381.367 5.73358 381.367 5.74198 381.369 5.74925H373.984V0.296875H372.487V7.1006H382.938L382.939 5.75149C382.939 5.22326 382.794 2.63305 379.361 2.63305Z" fill="#57068C"/>
<path d="M379.255 7.99609C378.87 7.99609 378.555 8.30945 378.555 8.69499C378.555 9.08165 378.87 9.39556 379.255 9.39556C379.643 9.39556 379.955 9.08165 379.955 8.69499C379.955 8.30945 379.643 7.99609 379.255 7.99609Z" fill="#57068C"/>
<path d="M351.179 2.12993C351.564 2.12993 351.877 1.81602 351.877 1.42992C351.877 1.04326 351.564 0.730469 351.179 0.730469C350.792 0.730469 350.478 1.04326 350.478 1.42992C350.478 1.81602 350.792 2.12993 351.179 2.12993Z" fill="#57068C"/>
<path d="M352.78 2.12993C353.166 2.12993 353.479 1.81602 353.479 1.42992C353.479 1.04326 353.166 0.730469 352.78 0.730469C352.393 0.730469 352.08 1.04326 352.08 1.42992C352.08 1.81602 352.393 2.12993 352.78 2.12993Z" fill="#57068C"/>
<path d="M368.28 5.74688V3.94453C368.28 3.94453 369.992 3.81751 369.992 5.74688H368.28ZM350.14 5.75248C350.137 5.53873 350.08 4.00497 352.225 4.00497H352.453V5.75248H350.14ZM368.249 2.60774L366.781 2.59375V2.59879H366.772V5.75136H361.013C360.979 5.61986 360.958 5.48277 360.958 5.33784V5.31826C360.958 5.12297 360.988 4.94111 361.05 4.76877C361.11 4.59754 361.2 4.44702 361.312 4.31664C361.425 4.18794 361.558 4.08498 361.712 4.01C361.863 3.93558 362.033 3.89921 362.222 3.89921C362.485 3.89921 362.708 3.95125 362.887 4.05477C363.065 4.15829 363.238 4.29762 363.407 4.4722L364.31 3.50136C364.063 3.22829 363.779 3.01454 363.456 2.85898C363.132 2.70398 362.723 2.62509 362.23 2.62509C361.829 2.62509 361.461 2.69727 361.127 2.8394C360.794 2.98209 360.507 3.17569 360.267 3.4219C360.028 3.66923 359.839 3.95684 359.703 4.28699C359.566 4.61769 359.499 4.96797 359.499 5.33784V5.35687C359.499 5.49116 359.511 5.62266 359.53 5.75248H353.949V2.65418H352.225C349.194 2.65418 348.679 4.87509 348.615 5.75248H348.611V5.81851C348.607 5.91251 348.607 5.9875 348.609 6.03618V6.05576H348.611V7.10382H371.423V5.75248H371.418C371.417 4.22655 370.886 2.75546 368.249 2.60774Z" fill="#57068C"/>
<path d="M320.189 22.9866L319.036 20.172L317.884 22.9866H320.189ZM318.181 17.8789H319.942L323.66 26.6187H321.664L320.871 24.6714H317.201L316.408 26.6187H314.461L318.181 17.8789Z" fill="#57068C"/>
<path d="M328.771 24.9427C329.614 24.9427 330.123 24.6444 330.123 24.0004V23.9757C330.123 23.3932 329.688 23.0334 328.709 23.0334H326.503V24.9427H328.771ZM328.263 21.446C329.106 21.446 329.64 21.1734 329.64 20.5294V20.5048C329.64 19.934 329.194 19.6117 328.387 19.6117H326.503V21.446H328.263ZM324.643 17.9375H328.671C329.665 17.9375 330.444 18.2106 330.94 18.7069C331.337 19.1036 331.535 19.5871 331.535 20.1825V20.2076C331.535 21.1869 331.015 21.7319 330.395 22.0783C331.399 22.4632 332.02 23.0463 332.02 24.2108V24.2359C332.02 25.8229 330.73 26.6163 328.771 26.6163H324.643V17.9375Z" fill="#57068C"/>
<path d="M332.891 22.8963V17.9375H334.8V22.8465C334.8 24.2611 335.507 24.9919 336.673 24.9919C337.837 24.9919 338.543 24.2852 338.543 22.9092V17.9375H340.453V22.8359C340.453 25.4631 338.978 26.7528 336.647 26.7528C334.316 26.7528 332.891 25.4502 332.891 22.8963Z" fill="#57068C"/>
<path d="M348.246 24.9124C349.808 24.9124 350.863 23.8587 350.863 22.3216V22.297C350.863 20.7593 349.808 19.681 348.246 19.681H346.772V24.9124H348.246ZM344.862 17.957H348.246C350.974 17.957 352.858 19.8299 352.858 22.2718V22.297C352.858 24.7384 350.974 26.6358 348.246 26.6358H344.862V17.957Z" fill="#57068C"/>
<path d="M353.91 17.957H355.82V21.3922H359.34V17.957H361.248V26.6358H359.34V23.1531H355.82V26.6358H353.91V17.957Z" fill="#57068C"/>
<path d="M368.12 23.0028L366.969 20.1876L365.815 23.0028H368.12ZM366.114 17.8945H367.873L371.591 26.6343H369.596L368.802 24.6871H365.134L364.339 26.6343H362.394L366.114 17.8945Z" fill="#57068C"/>
<path d="M376.864 24.9628C377.708 24.9628 378.217 24.6645 378.217 24.0199V23.9953C378.217 23.4128 377.782 23.0535 376.803 23.0535H374.597V24.9628H376.864ZM376.358 21.466C377.201 21.466 377.732 21.193 377.732 20.5489V20.5243C377.732 19.9541 377.286 19.6312 376.48 19.6312H374.597V21.466H376.358ZM372.736 17.957H376.767C377.757 17.957 378.539 18.2301 379.034 18.7264C379.431 19.1232 379.63 19.6066 379.63 20.202V20.2272C379.63 21.2064 379.109 21.7514 378.489 22.0984C379.495 22.4828 380.112 23.0658 380.112 24.2303V24.2555C380.112 25.8424 378.823 26.6358 376.864 26.6358H372.736V17.957Z" fill="#57068C"/>
<path d="M383.116 17.957H381.208V26.6358H383.116V17.957Z" fill="#57068C"/>
<path d="M284.528 17.9883H286.284L290.339 23.3192V17.9883H292.218V26.6453H290.598L286.407 21.1414V26.6453H284.528V17.9883Z" fill="#57068C"/>
<path d="M296.497 23.2314L293.17 17.9883H295.396L297.461 21.4632L299.564 17.9883H301.727L298.4 23.1961V26.6453H296.497V23.2314Z" fill="#57068C"/>
<path d="M302.543 22.9348V17.9883H304.447V22.885C304.447 24.2962 305.152 25.0253 306.314 25.0253C307.476 25.0253 308.181 24.3197 308.181 22.9482V17.9883H310.086V22.8733C310.086 25.4943 308.614 26.7812 306.289 26.7812C303.964 26.7812 302.543 25.4831 302.543 22.9348Z" fill="#57068C"/>
<path d="M272.051 22.7103C270.489 21.7781 270.646 20.4474 271.293 19.4688C271.308 19.4492 271.312 19.4145 271.308 19.3748C271.279 19.142 271.026 18.5539 270.92 18.3933C270.893 18.353 270.869 18.3558 270.867 18.3854C270.858 18.6501 270.555 19.3171 270.092 20.0865C269.599 20.904 269.598 22.6778 272.045 22.7478C272.068 22.7478 272.075 22.7243 272.051 22.7103ZM272.469 22.6409C271.535 20.6461 273.402 19.3585 273.707 19.0782C273.75 19.0401 273.739 19.0032 273.739 18.9573C273.74 18.33 273.381 17.3139 273.263 17.1684C273.247 17.1466 273.232 17.1555 273.225 17.179C273.066 17.7985 272.215 18.7212 272.045 18.9232C270.603 20.6371 270.933 21.6813 272.439 22.6661C272.457 22.6778 272.481 22.6633 272.469 22.6409ZM272.774 22.5575C273.214 20.4413 274.936 20.3892 275.091 19.988C275.332 19.3619 274.891 18.2506 274.78 18.1191C274.768 18.1051 274.752 18.1135 274.748 18.1252C274.513 18.6384 274.135 19.1257 273.858 19.3507C273.468 19.6646 271.972 20.7737 272.737 22.5575C272.747 22.5799 272.768 22.5743 272.774 22.5575ZM273.08 22.7411C275.869 22.8412 276.066 20.3003 276.077 19.349C276.078 19.2942 276.051 19.2891 276.037 19.3272C275.955 19.5258 275.591 20.2342 274.586 20.6662C273.689 21.0506 273.148 21.9247 273.054 22.7103C273.05 22.7288 273.067 22.7394 273.08 22.7411ZM273.714 23.6918V23.0533H271.515V23.6918H273.714ZM272.429 28.2203C272.445 28.3272 272.678 28.3787 272.73 28.2203L273.262 23.9973H271.968L272.429 28.2203ZM280.575 30.002H265.335V14.7617H280.575V30.002Z" fill="#57068C"/>
<path d="M462.036 30H432V0H462.036V30ZM447.601 2.96582C444.736 2.79586 441.897 3.7398 439.82 5.72168C438.005 7.45364 436.969 9.79726 436.429 12.2314C435.883 14.693 435.835 17.2664 436.614 19.6748C437.47 22.3192 439.269 24.5739 441.729 25.876C443.586 26.8579 445.702 27.2254 447.786 26.9805C450.235 26.6927 452.53 25.5728 454.13 23.6934C454.91 22.7771 455.491 21.7087 455.836 20.5566L455.859 20.4756L454.504 19.8975L454.474 19.999C454.175 21.0114 453.647 21.9417 452.931 22.7178C451.588 24.173 449.688 24.9962 447.711 24.9268C446.087 24.8697 444.547 24.2089 443.344 23.1143C441.419 21.3635 440.577 18.7885 440.303 16.1777C440.019 13.4731 440.32 10.7103 441.616 8.33203C442.881 6.01289 445.117 4.27362 447.644 4.59473C449.202 4.7928 450.507 5.79521 451.479 7.05762C452.525 8.41842 453.181 10.0388 453.373 11.7441L453.382 11.8223L454.844 11.9189L454.91 3.79883L453.505 3.63965L452.839 4.65137C451.264 3.65671 449.462 3.07628 447.601 2.96582ZM450.013 12.9736V18.7451H451.59C452.123 18.745 452.547 18.6076 452.86 18.333C453.174 18.0582 453.331 17.651 453.331 17.1123C453.331 16.8651 453.293 16.6454 453.216 16.4531C453.144 16.2554 453.04 16.0932 452.902 15.9668C452.765 15.8349 452.594 15.7438 452.391 15.6943C452.66 15.6228 452.867 15.4822 453.01 15.2734C453.153 15.0591 453.224 14.7866 453.224 14.457C453.224 14.0065 453.087 13.6462 452.812 13.377C452.536 13.1076 452.126 12.9736 451.581 12.9736H450.013ZM453.837 18.7451H454.853V12.9736H453.837V18.7451ZM455.509 18.7451H457.004C457.416 18.745 457.777 18.6493 458.085 18.457C458.393 18.2591 458.63 17.9477 458.795 17.5244C458.965 17.1012 459.051 16.5462 459.051 15.8594C459.051 15.1722 458.966 14.6166 458.795 14.1934C458.63 13.7703 458.393 13.4629 458.085 13.2705C457.777 13.0727 457.416 12.9737 457.004 12.9736H455.509V18.7451ZM451.515 16.1318C451.768 16.1318 451.972 16.2028 452.126 16.3457C452.286 16.4831 452.365 16.7283 452.365 17.0801C452.365 17.4317 452.286 17.6761 452.126 17.8135C451.972 17.9509 451.768 18.0195 451.515 18.0195H451.028V16.1318H451.515ZM456.971 13.8389C457.207 13.8389 457.403 13.9052 457.557 14.0371C457.716 14.1635 457.834 14.3752 457.911 14.6719C457.994 14.9632 458.035 15.3591 458.035 15.8594C458.035 16.3541 457.994 16.7501 457.911 17.0469C457.834 17.3434 457.716 17.5576 457.557 17.6895C457.403 17.8158 457.207 17.8798 456.971 17.8799H456.524V13.8389H456.971ZM451.49 13.6992C451.721 13.6992 451.906 13.7678 452.044 13.9053C452.181 14.0372 452.25 14.2514 452.25 14.5479C452.25 14.8444 452.181 15.0618 452.044 15.1992C451.906 15.3366 451.721 15.4053 451.49 15.4053H451.028V13.6992H451.49Z" fill="#57068C"/>
<path d="M470.266 8.65716L469.757 8.33285L469.971 7.98963L470.48 8.29502L470.266 8.65716ZM469.054 8.36529L469.259 8.00855L469.765 8.33285L469.557 8.66797L469.054 8.36529ZM472.804 6.44378H472.558C472.458 6.44559 472.366 6.44378 472.279 6.43838C472.192 6.43297 472.103 6.40505 472.011 6.3546C471.919 6.30415 471.726 6.10507 471.432 5.75734C471.356 5.65104 471.239 5.61681 471.08 5.65464C470.754 5.8186 470.572 5.96814 470.536 6.10326C470.536 6.14651 470.71 6.23118 471.056 6.3573C471.305 6.44739 471.439 6.50144 471.459 6.51946L471.513 6.69512L471.462 7.0978C471.451 7.17347 471.269 7.3113 470.915 7.51128C470.522 7.71488 470.132 7.81667 469.746 7.81667C469.568 7.81667 469.401 7.79145 469.246 7.741C469.091 7.69055 468.955 7.62119 468.84 7.5329C468.726 7.44462 468.636 7.33742 468.569 7.2113C468.504 7.08699 468.472 6.94916 468.472 6.79782C468.472 6.52036 468.554 6.20056 468.718 5.83842C468.857 5.53033 468.95 5.37628 468.997 5.37628L469.008 5.40061C468.993 5.44385 468.97 5.50781 468.937 5.59249C468.907 5.67536 468.877 5.76725 468.848 5.86814C468.821 5.96904 468.796 6.07174 468.772 6.17623C468.751 6.27893 468.74 6.37352 468.74 6.46C468.74 6.94285 469.055 7.18428 469.684 7.18428C469.85 7.18428 470.072 7.15185 470.35 7.08699C470.729 7.02933 470.918 6.96267 470.918 6.887C470.918 6.85997 470.817 6.80592 470.615 6.72485C470.319 6.58432 470.165 6.49603 470.152 6.46C470.147 6.44198 470.144 6.42216 470.144 6.40054C470.144 6.37892 470.146 6.33748 470.149 6.27623C470.272 5.84382 470.453 5.54654 470.691 5.38439C470.931 5.22044 471.124 5.13756 471.27 5.13576C471.358 5.13576 471.445 5.1853 471.529 5.2844C471.614 5.38169 471.718 5.4979 471.841 5.63302C471.963 5.76635 472.064 5.84833 472.144 5.87895C472.223 5.90958 472.292 5.9249 472.352 5.9249C472.413 5.9249 472.53 5.9249 472.701 5.9249H472.804V6.44378Z" fill="#57068C"/>
<path d="M474.352 5.97387C474.352 6.28556 474.309 6.44141 474.222 6.44141H472.552V5.92252H473.938C473.967 5.92252 473.981 5.8982 473.981 5.84955C473.981 5.81352 473.969 5.76217 473.946 5.69551C473.924 5.62704 473.897 5.55948 473.865 5.49282C473.832 5.42615 473.798 5.3676 473.762 5.31715C473.728 5.26671 473.698 5.24148 473.673 5.24148L473.911 4.67935C474.021 4.728 474.125 4.92438 474.222 5.26851C474.309 5.57299 474.352 5.80811 474.352 5.97387ZM474.014 3.77401L473.445 3.41187L473.683 3.02811L474.254 3.36863L474.014 3.77401ZM472.65 3.4497L472.88 3.04973L473.445 3.41187L473.213 3.78752L472.65 3.4497Z" fill="#57068C"/>
<path d="M476.565 6.44141H475.945C475.77 6.44141 475.626 6.42159 475.512 6.38195C475.401 6.34051 475.318 6.27655 475.264 6.19007C475.211 6.10179 475.185 5.94684 475.185 5.72523V2.94973L475.591 2.44166V5.72523C475.591 5.85676 475.652 5.92252 475.775 5.92252H476.565V6.44141Z" fill="#57068C"/>
<path d="M480.976 6.44354H480.326C480.314 6.44354 480.292 6.44624 480.261 6.45165C480.232 6.45705 480.201 6.46246 480.167 6.46786C480.134 6.47327 480.102 6.47867 480.072 6.48408C480.043 6.48948 480.02 6.49219 480.001 6.49219C479.653 6.49219 479.321 6.41832 479.003 6.27058C478.738 6.3949 478.488 6.45705 478.254 6.45705C477.895 6.45705 477.582 6.4021 477.315 6.2922C477.214 6.39309 477 6.44354 476.673 6.44354H476.078V5.92466C476.091 5.93186 476.138 5.93547 476.219 5.93547C476.823 5.93547 477.151 5.90304 477.204 5.83817C477.233 5.80214 477.247 5.72647 477.247 5.61116C477.247 5.53729 477.238 5.46793 477.22 5.40307L477.596 4.99498C477.6 5.02381 477.603 5.06255 477.607 5.11119C477.61 5.15984 477.612 5.21839 477.612 5.28686C477.612 5.45802 477.583 5.64359 477.523 5.84358C477.523 5.85439 477.558 5.8697 477.629 5.87871C477.699 5.88772 477.793 5.89673 477.91 5.90574C478.029 5.91294 478.166 5.91835 478.321 5.92195C478.476 5.92556 478.637 5.92736 478.803 5.92736C478.913 5.92736 478.968 5.84178 478.968 5.67062C478.968 5.55171 478.961 5.47063 478.946 5.42739L479.336 5.02741V5.3328C479.325 5.43189 479.314 5.52468 479.303 5.61116C479.294 5.69584 479.276 5.77602 479.249 5.85169L479.247 5.85979C479.247 5.90844 479.388 5.93276 479.671 5.93276C479.845 5.93276 479.936 5.93096 479.945 5.92736C480.049 5.90934 480.102 5.85259 480.102 5.7571C480.102 5.55891 480.062 5.42198 479.983 5.34631L480.391 4.97877C480.469 5.20758 480.507 5.51747 480.507 5.90844L480.499 5.92466H480.976V6.44354Z" fill="#57068C"/>
<path d="M484.929 5.67362C484.929 5.94747 484.912 6.16908 484.88 6.33844C484.725 6.43573 484.59 6.48438 484.477 6.48438C484.055 6.48438 483.705 6.41231 483.427 6.26817C483.162 6.39249 482.911 6.45465 482.675 6.45465C482.316 6.45465 482.003 6.3997 481.736 6.28979C481.651 6.39069 481.437 6.44113 481.095 6.44113H480.486V5.92225C480.498 5.92945 480.545 5.93306 480.627 5.93306C481.236 5.93306 481.57 5.90063 481.628 5.83577C481.657 5.80334 481.671 5.72767 481.671 5.60875C481.671 5.53849 481.663 5.46912 481.647 5.40066L482.025 4.99258C482.029 5.02501 482.032 5.06735 482.034 5.1196C482.037 5.17185 482.039 5.234 482.039 5.30607C482.039 5.3331 482.034 5.37363 482.023 5.42768C482.014 5.47993 482.004 5.53489 481.993 5.59254C481.982 5.65019 481.972 5.70334 481.963 5.75199C481.954 5.79883 481.95 5.83036 481.95 5.84658C481.95 5.84658 481.973 5.8655 482.004 5.87631C482.153 5.92675 482.362 5.95198 482.629 5.95198H482.783C483.142 5.95198 483.335 5.93126 483.362 5.88982C483.382 5.86459 483.392 5.79072 483.392 5.66821C483.392 5.5493 483.386 5.46822 483.373 5.42498L483.768 5.02501C483.763 5.1241 483.756 5.22499 483.749 5.32769C483.742 5.42859 483.733 5.53308 483.722 5.64118C483.715 5.69884 483.698 5.7682 483.673 5.84928L483.671 5.86009C483.671 5.93036 483.814 5.96549 484.101 5.96549C484.384 5.96549 484.526 5.89522 484.526 5.75469C484.526 5.55651 484.485 5.41958 484.404 5.34391L484.815 4.97636C484.891 5.20698 484.929 5.4394 484.929 5.67362Z" fill="#57068C"/>
<path d="M487.385 6.44291H486.849C486.829 6.63028 486.777 6.80595 486.692 6.9699C486.609 7.13566 486.502 7.27889 486.37 7.3996C486.24 7.52212 486.091 7.61851 485.921 7.68877C485.753 7.76084 485.576 7.79688 485.388 7.79688C485.125 7.79688 484.874 7.69328 484.636 7.48608C484.401 7.28069 484.26 7.04467 484.211 6.77802C484.291 6.92396 484.449 7.06449 484.687 7.19962C484.927 7.33654 485.132 7.40501 485.302 7.40501C485.44 7.40501 485.578 7.38068 485.713 7.33204C485.85 7.28339 485.975 7.21673 486.089 7.13205C486.203 7.04737 486.301 6.94738 486.384 6.83207C486.469 6.71676 486.528 6.59155 486.562 6.45642C486.537 6.46182 486.513 6.46453 486.489 6.46453C486.378 6.46453 486.272 6.44651 486.173 6.41048C486.075 6.37264 485.99 6.32129 485.916 6.25643C485.844 6.19157 485.786 6.1159 485.743 6.02942C485.701 5.94294 485.68 5.85015 485.68 5.75106C485.68 5.59791 485.753 5.39612 485.9 5.14569C486.058 4.87363 486.207 4.73761 486.346 4.73761C486.526 4.73761 486.671 4.89706 486.779 5.21596C486.862 5.45378 486.903 5.6898 486.903 5.92402H487.385V6.44291ZM486.627 5.85916C486.627 5.80151 486.617 5.74385 486.598 5.6862C486.578 5.62674 486.55 5.57359 486.514 5.52675C486.48 5.4781 486.439 5.43937 486.392 5.41054C486.345 5.37991 486.296 5.3646 486.243 5.3646C486.211 5.3646 486.18 5.3745 486.151 5.39432C486.124 5.41234 486.099 5.43576 486.075 5.46459C486.054 5.49342 486.036 5.52495 486.021 5.55918C486.009 5.59341 486.002 5.62584 486.002 5.65647C486.002 5.6907 486.02 5.72493 486.057 5.75917C486.094 5.7916 486.14 5.82042 486.194 5.84565C486.25 5.86907 486.309 5.88799 486.37 5.9024C486.434 5.91681 486.491 5.92402 486.544 5.92402C486.599 5.92402 486.627 5.9024 486.627 5.85916ZM486.473 3.79172L486.395 4.05116C486.176 4.12143 486.018 4.1917 485.919 4.26196L485.526 4.58627C485.517 4.57726 485.513 4.56555 485.513 4.55113C485.513 4.43763 485.553 4.33853 485.634 4.25385C485.479 4.15116 485.402 4.05297 485.402 3.95928C485.402 3.8728 485.422 3.79082 485.461 3.71335C485.503 3.63407 485.557 3.56471 485.624 3.50525C485.69 3.4458 485.767 3.39895 485.854 3.36472C485.942 3.32869 486.033 3.31067 486.127 3.31067C486.183 3.31067 486.232 3.31698 486.276 3.32959L486.184 3.59173C486.178 3.56111 486.115 3.54579 485.994 3.54579C485.944 3.54579 485.892 3.5548 485.84 3.57282C485.79 3.58903 485.744 3.61155 485.702 3.64038C485.662 3.66921 485.63 3.70254 485.605 3.74037C485.581 3.77821 485.569 3.81875 485.569 3.86199C485.569 3.88901 485.591 3.91424 485.634 3.93766C485.68 3.96108 485.738 3.97279 485.81 3.97279C485.837 3.97279 485.86 3.97009 485.878 3.96468L486.473 3.79172Z" fill="#57068C"/>
<path d="M489.163 6.24574C489.163 6.4151 489.097 6.53761 488.966 6.61328L488.397 6.18628C488.028 6.35564 487.721 6.44032 487.477 6.44032H486.915V5.92143C487.066 5.92143 487.182 5.92143 487.264 5.92143C487.347 5.92143 487.412 5.91783 487.458 5.91062C487.532 5.89981 487.611 5.8827 487.694 5.85927C487.779 5.83585 487.869 5.80252 487.964 5.75928V3.48645L487.767 2.88919L488.254 2.44057C488.254 2.59371 488.255 2.71353 488.257 2.80001C488.258 2.88469 488.262 2.93784 488.267 2.95946C488.304 3.109 488.407 3.23872 488.579 3.34862L488.316 3.77022V5.49714L489.109 6.10521C489.145 6.16826 489.163 6.21511 489.163 6.24574Z" fill="#57068C"/>
<path d="M490.583 5.86306L490.175 6.44141V2.93622L490.583 2.44166V5.86306Z" fill="#57068C"/>
<path d="M494.454 8.65716L493.945 8.33285L494.159 7.98963L494.668 8.29502L494.454 8.65716ZM493.242 8.36529L493.447 8.00855L493.953 8.33285L493.745 8.66797L493.242 8.36529ZM496.992 6.44378H496.746C496.646 6.44559 496.553 6.44378 496.467 6.43838C496.38 6.43297 496.291 6.40505 496.199 6.3546C496.107 6.30415 495.914 6.10507 495.62 5.75734C495.544 5.65104 495.427 5.61681 495.268 5.65464C494.942 5.8186 494.76 5.96814 494.724 6.10326C494.724 6.14651 494.898 6.23118 495.244 6.3573C495.493 6.44739 495.627 6.50144 495.647 6.51946L495.701 6.69512L495.65 7.0978C495.639 7.17347 495.457 7.3113 495.103 7.51128C494.71 7.71488 494.32 7.81667 493.934 7.81667C493.756 7.81667 493.589 7.79145 493.434 7.741C493.279 7.69055 493.143 7.62119 493.028 7.5329C492.914 7.44462 492.824 7.33742 492.757 7.2113C492.692 7.08699 492.66 6.94916 492.66 6.79782C492.66 6.52036 492.742 6.20056 492.906 5.83842C493.045 5.53033 493.138 5.37628 493.185 5.37628L493.196 5.40061C493.181 5.44385 493.158 5.50781 493.125 5.59249C493.095 5.67536 493.065 5.76725 493.036 5.86814C493.009 5.96904 492.984 6.07174 492.96 6.17623C492.939 6.27893 492.928 6.37352 492.928 6.46C492.928 6.94285 493.243 7.18428 493.872 7.18428C494.038 7.18428 494.26 7.15185 494.538 7.08699C494.917 7.02933 495.106 6.96267 495.106 6.887C495.106 6.85997 495.005 6.80592 494.803 6.72485C494.507 6.58432 494.353 6.49603 494.34 6.46C494.335 6.44198 494.332 6.42216 494.332 6.40054C494.332 6.37892 494.334 6.33748 494.337 6.27623C494.46 5.84382 494.641 5.54654 494.879 5.38439C495.119 5.22044 495.312 5.13756 495.458 5.13576C495.546 5.13576 495.633 5.1853 495.717 5.2844C495.802 5.38169 495.906 5.4979 496.029 5.63302C496.151 5.76635 496.252 5.84833 496.332 5.87895C496.411 5.90958 496.48 5.9249 496.54 5.9249C496.601 5.9249 496.718 5.9249 496.889 5.9249H496.992V6.44378Z" fill="#57068C"/>
<path d="M499.398 6.05765C499.398 6.218 499.372 6.33601 499.322 6.41168C499.309 6.4315 499.21 6.44141 499.024 6.44141H496.74V5.92252H498.48C498.733 5.92252 498.859 5.9054 498.859 5.87117C498.859 5.81172 498.633 5.57479 498.18 5.16041C497.731 4.74422 497.472 4.53612 497.403 4.53612C497.389 4.55414 497.371 4.61449 497.349 4.71719C497.311 4.68476 497.264 4.64332 497.209 4.59287C497.154 4.54062 497.091 4.48027 497.019 4.4118C496.886 4.28028 496.819 4.15326 496.819 4.03075C496.819 3.90463 496.881 3.73887 497.006 3.53348C497.076 3.42178 497.869 3.05784 499.384 2.44166L499.122 3.08756L497.238 3.85238C497.269 3.88121 497.31 3.91634 497.36 3.95778C497.412 3.99922 497.476 4.04696 497.552 4.10101C497.978 4.42532 498.339 4.7325 498.635 5.02258C498.932 5.31085 499.168 5.5838 499.341 5.84144C499.379 5.8973 499.398 5.96936 499.398 6.05765Z" fill="#57068C"/>
<path d="M501.521 6.44291H500.985C500.965 6.63028 500.913 6.80595 500.828 6.9699C500.745 7.13566 500.638 7.27889 500.506 7.3996C500.376 7.52212 500.227 7.61851 500.057 7.68877C499.889 7.76084 499.712 7.79688 499.524 7.79688C499.261 7.79688 499.01 7.69328 498.772 7.48608C498.537 7.28069 498.396 7.04467 498.347 6.77802C498.427 6.92396 498.585 7.06449 498.823 7.19962C499.063 7.33654 499.268 7.40501 499.438 7.40501C499.576 7.40501 499.714 7.38068 499.849 7.33204C499.986 7.28339 500.111 7.21673 500.225 7.13205C500.339 7.04737 500.437 6.94738 500.52 6.83207C500.605 6.71676 500.664 6.59155 500.698 6.45642C500.673 6.46182 500.649 6.46453 500.625 6.46453C500.514 6.46453 500.408 6.44651 500.309 6.41048C500.211 6.37264 500.126 6.32129 500.052 6.25643C499.98 6.19157 499.922 6.1159 499.879 6.02942C499.837 5.94294 499.816 5.85015 499.816 5.75106C499.816 5.59791 499.889 5.39612 500.036 5.14569C500.194 4.87363 500.343 4.73761 500.482 4.73761C500.662 4.73761 500.807 4.89706 500.915 5.21596C500.998 5.45378 501.039 5.6898 501.039 5.92402H501.521V6.44291ZM500.763 5.85916C500.763 5.8015 500.753 5.74385 500.734 5.6862C500.714 5.62674 500.686 5.57359 500.65 5.52675C500.615 5.4781 500.575 5.43937 500.528 5.41054C500.481 5.37991 500.431 5.36459 500.379 5.3646C500.347 5.36459 500.316 5.3745 500.287 5.39432C500.26 5.41234 500.235 5.43576 500.211 5.46459C500.19 5.49342 500.172 5.52495 500.157 5.55918C500.145 5.59341 500.138 5.62584 500.138 5.65647C500.138 5.6907 500.156 5.72493 500.192 5.75917C500.23 5.7916 500.276 5.82042 500.33 5.84565C500.386 5.86907 500.445 5.88799 500.506 5.9024C500.569 5.91681 500.627 5.92402 500.68 5.92402C500.735 5.92402 500.763 5.9024 500.763 5.85916Z" fill="#57068C"/>
<path d="M502.928 6.44141H501.05V5.92252H501.862V3.09297L502.281 2.44166V5.92252H502.928V6.44141Z" fill="#57068C"/>
<path d="M507.339 6.44354H506.689C506.677 6.44354 506.655 6.44624 506.624 6.45165C506.595 6.45705 506.564 6.46246 506.53 6.46786C506.497 6.47327 506.466 6.47867 506.435 6.48408C506.406 6.48948 506.383 6.49219 506.365 6.49219C506.016 6.49219 505.684 6.41832 505.366 6.27058C505.101 6.3949 504.851 6.45705 504.617 6.45705C504.258 6.45705 503.945 6.4021 503.678 6.2922C503.577 6.39309 503.363 6.44354 503.036 6.44354H502.441V5.92466C502.454 5.93186 502.501 5.93547 502.582 5.93547C503.186 5.93547 503.514 5.90304 503.567 5.83817C503.596 5.80214 503.61 5.72647 503.61 5.61116C503.61 5.53729 503.601 5.46793 503.583 5.40307L503.959 4.99498C503.963 5.02381 503.966 5.06255 503.97 5.11119C503.974 5.15984 503.975 5.21839 503.975 5.28686C503.975 5.45802 503.946 5.64359 503.886 5.84358C503.886 5.85439 503.921 5.8697 503.992 5.87871C504.062 5.88772 504.156 5.89673 504.273 5.90574C504.392 5.91294 504.529 5.91835 504.684 5.92195C504.839 5.92556 505 5.92736 505.166 5.92736C505.276 5.92736 505.331 5.84178 505.331 5.67062C505.331 5.55171 505.324 5.47063 505.309 5.42739L505.699 5.02741V5.3328C505.688 5.43189 505.677 5.52468 505.666 5.61116C505.657 5.69584 505.639 5.77602 505.612 5.85169L505.61 5.85979C505.61 5.90844 505.751 5.93276 506.034 5.93276C506.208 5.93276 506.299 5.93096 506.308 5.92736C506.412 5.90934 506.465 5.85259 506.465 5.7571C506.465 5.55891 506.425 5.42198 506.346 5.34631L506.754 4.97877C506.832 5.20758 506.87 5.51747 506.87 5.90844L506.862 5.92466H507.339V6.44354Z" fill="#57068C"/>
<path d="M508.264 3.26593L508.042 3.71455V6.35763L507.904 6.44141H506.849V5.92252H507.636V3.47402L507.493 2.9173L507.969 2.44166L508.01 2.99838L508.264 3.26593Z" fill="#57068C"/>
<path d="M509.678 5.86306L509.269 6.44141V2.93622L509.678 2.44166V5.86306Z" fill="#57068C"/>
<path d="M514.581 6.4419H513.969C513.935 6.4419 513.88 6.441 513.804 6.4392C513.73 6.4374 513.653 6.4347 513.572 6.43109C513.491 6.42749 513.412 6.42479 513.336 6.42299C513.261 6.42119 513.205 6.42028 513.169 6.42028C512.465 6.42028 512.112 6.47794 512.111 6.59325L512.135 6.69324C512.142 6.71486 512.154 6.7608 512.17 6.83107C512.186 6.90314 512.209 7.00043 512.238 7.12294C512.294 7.37518 512.337 7.60219 512.368 7.80398C512.4 8.00577 512.415 8.18594 512.411 8.34449C512.411 8.53907 512.341 8.75888 512.2 9.00391C512.169 8.6796 512.13 8.37512 512.084 8.09045C512.037 7.80578 511.982 7.53823 511.918 7.2878C511.875 7.11664 511.842 6.9716 511.818 6.85269C511.797 6.73378 511.786 6.64009 511.786 6.57163C511.786 6.332 511.859 6.17075 512.005 6.08787C512.088 6.04283 512.274 5.99959 512.562 5.95815C512.817 5.92032 512.999 5.9014 513.109 5.9014C513.149 5.9014 513.178 5.905 513.198 5.91221L512.744 5.40143L512.151 5.70952L512.157 5.51764C512.158 5.45638 512.258 5.33026 512.454 5.13928C512.649 4.94831 512.779 4.85281 512.844 4.85282C512.941 4.85281 513.09 4.98434 513.29 5.24738C513.537 5.56628 513.755 5.79149 513.942 5.92302H514.581V6.4419Z" fill="#57068C"/>
<path d="M516.356 6.44089H514.094V5.922H515.479C515.508 5.922 515.522 5.89768 515.522 5.84903C515.522 5.813 515.511 5.76165 515.487 5.69499C515.466 5.62652 515.439 5.55896 515.406 5.4923C515.374 5.42564 515.339 5.36708 515.303 5.31663C515.269 5.26619 515.239 5.24096 515.214 5.24096L515.46 4.67073C515.579 4.80585 515.681 5.00314 515.766 5.26258C515.851 5.50941 515.893 5.72922 515.893 5.922H516.356V6.44089ZM515.574 7.90836L515.006 7.54622L515.244 7.16246L515.815 7.50298L515.574 7.90836ZM514.21 7.58406L514.44 7.18408L515.006 7.54622L514.773 7.92188L514.21 7.58406Z" fill="#57068C"/>
<path d="M518.975 6.44113H518.304C518.257 6.46996 518.177 6.48438 518.064 6.48438C517.663 6.48438 517.312 6.36186 517.011 6.11683C516.944 6.33303 516.787 6.44113 516.54 6.44113H515.869V5.92225C516.504 5.92225 516.851 5.90063 516.911 5.85739C516.947 5.82856 517.004 5.71866 517.081 5.52768C517.134 5.39435 517.184 5.28265 517.233 5.19256C517.282 5.10068 517.33 5.02681 517.379 4.97096C517.428 4.9151 517.479 4.87547 517.533 4.85205C517.587 4.82862 517.647 4.81691 517.712 4.81691C517.872 4.81691 518.044 4.95204 518.226 5.22229C518.403 5.47993 518.49 5.69614 518.488 5.8709V5.89793L518.486 5.92225H518.975V6.44113ZM518.161 5.85739C518.161 5.79973 518.145 5.73758 518.112 5.67091C518.082 5.60425 518.044 5.54209 517.999 5.48444C517.953 5.42678 517.903 5.37904 517.847 5.3412C517.791 5.30337 517.737 5.28445 517.685 5.28445C517.65 5.28445 517.609 5.29976 517.56 5.33039C517.512 5.35922 517.465 5.39435 517.42 5.43579C517.374 5.47723 517.336 5.52047 517.303 5.56551C517.271 5.61056 517.254 5.65019 517.254 5.68443C517.254 5.70064 517.268 5.71956 517.295 5.74118C517.322 5.7628 517.357 5.78532 517.401 5.80874C517.444 5.83036 517.492 5.85198 517.544 5.8736C517.596 5.89522 517.648 5.91414 517.698 5.93036C517.749 5.94657 517.796 5.96008 517.839 5.97089C517.882 5.9817 517.917 5.98711 517.944 5.98711C518.089 5.98711 518.161 5.94387 518.161 5.85739Z" fill="#57068C"/>
<path d="M524.525 6.44141H520.448C520.085 6.44141 519.852 6.37655 519.747 6.24682C519.664 6.37655 519.247 6.44141 518.497 6.44141V5.92252C519.148 5.92252 519.529 5.89099 519.639 5.82793C519.641 5.81172 519.642 5.7928 519.642 5.77118C519.643 5.74776 519.644 5.72073 519.644 5.6901C519.644 5.55858 519.635 5.4739 519.617 5.43606L520.015 4.99285C520.044 5.09374 520.058 5.19914 520.058 5.30904C520.058 5.48741 520.026 5.66488 519.961 5.84144C520.372 5.8973 520.591 5.92522 520.618 5.92522C520.844 5.92522 521.225 5.72253 521.763 5.31715C522.3 4.90637 522.662 4.70098 522.848 4.70098C522.907 4.70098 522.97 4.71629 523.035 4.74692C523.572 4.98834 523.882 5.19734 523.965 5.37391C523.989 5.42075 524.006 5.4748 524.017 5.53606C524.029 5.59551 524.036 5.66668 524.036 5.74956C524.036 5.82703 524.029 5.88468 524.017 5.92252H524.525V6.44141ZM523.719 5.75496C523.719 5.69371 523.567 5.59011 523.262 5.44417C522.966 5.30364 522.773 5.23337 522.683 5.23337C522.566 5.23337 522.364 5.32256 522.079 5.50092C521.798 5.67389 521.628 5.81442 521.568 5.92252H522.269C522.754 5.92793 523.117 5.91351 523.357 5.87928C523.598 5.84505 523.719 5.80361 523.719 5.75496Z" fill="#57068C"/>
<path d="M526.303 6.44141H524.041V5.92252H525.426C525.455 5.92252 525.469 5.8982 525.469 5.84955C525.469 5.81352 525.458 5.76217 525.434 5.69551C525.413 5.62704 525.386 5.55948 525.353 5.49282C525.321 5.42615 525.286 5.3676 525.25 5.31715C525.216 5.26671 525.186 5.24148 525.161 5.24148L525.407 4.67125C525.526 4.80637 525.628 5.00366 525.713 5.2631C525.798 5.50993 525.84 5.72974 525.84 5.92252H526.303V6.44141ZM525.545 3.81995L524.977 3.45781L525.215 3.07405L525.786 3.41457L525.545 3.81995ZM524.181 3.49564L524.411 3.09567L524.977 3.45781L524.744 3.83346L524.181 3.49564Z" fill="#57068C"/>
<path d="M527.231 3.26593L527.009 3.71455V6.35763L526.871 6.44141H525.816V5.92252H526.604V3.47402L526.46 2.9173L526.936 2.44166L526.977 2.99838L527.231 3.26593Z" fill="#57068C"/>
<path d="M528.646 5.86306L528.237 6.44141V2.93622L528.646 2.44166V5.86306Z" fill="#57068C"/>
<path d="M533.547 6.44148H533.09C533.09 6.7856 532.936 7.11531 532.63 7.4306C532.321 7.7477 531.997 7.90625 531.656 7.90625C531.421 7.90625 531.207 7.82517 531.012 7.66302C530.954 7.61438 530.886 7.54771 530.806 7.46303C530.729 7.38016 530.644 7.27746 530.552 7.15495C530.581 7.18557 530.628 7.2171 530.695 7.24953C530.764 7.28377 530.849 7.3144 530.952 7.34142C531.048 7.36664 531.134 7.38466 531.212 7.39547C531.29 7.40628 531.36 7.41259 531.423 7.41439C532.007 7.41439 532.466 7.09999 532.798 6.4712C532.821 6.42436 532.833 6.37842 532.833 6.33338C532.833 6.08835 532.651 5.83791 532.286 5.58207L532.522 5.07129C532.792 5.28029 532.971 5.56405 533.057 5.92259H533.547V6.44148ZM532.465 3.72813L532.216 4.15243L531.607 3.7984L531.842 3.3741L532.465 3.72813Z" fill="#57068C"/>
<path d="M535.72 6.05765C535.72 6.218 535.695 6.33601 535.644 6.41168C535.632 6.4315 535.532 6.44141 535.347 6.44141H533.063V5.92252H534.803C535.055 5.92252 535.182 5.9054 535.182 5.87117C535.182 5.81172 534.955 5.57479 534.502 5.16041C534.053 4.74422 533.794 4.53612 533.726 4.53612C533.711 4.55414 533.693 4.61449 533.672 4.71719C533.634 4.68476 533.587 4.64332 533.531 4.59287C533.477 4.54062 533.414 4.48027 533.342 4.4118C533.208 4.28028 533.141 4.15326 533.141 4.03075C533.141 3.90463 533.204 3.73887 533.328 3.53348C533.399 3.42178 534.191 3.05784 535.707 2.44166L535.444 3.08756L533.561 3.85238C533.592 3.88121 533.632 3.91634 533.683 3.95778C533.735 3.99922 533.799 4.04696 533.875 4.10101C534.3 4.42532 534.661 4.7325 534.957 5.02258C535.255 5.31085 535.49 5.5838 535.663 5.84144C535.701 5.8973 535.72 5.96936 535.72 6.05765Z" fill="#57068C"/>
<path d="M537.854 6.44148H537.397C537.397 6.7856 537.244 7.11531 536.937 7.4306C536.628 7.7477 536.304 7.90625 535.963 7.90625C535.728 7.90625 535.514 7.82517 535.319 7.66302C535.261 7.61438 535.193 7.54771 535.113 7.46303C535.036 7.38016 534.951 7.27746 534.859 7.15495C534.888 7.18557 534.936 7.2171 535.002 7.24953C535.071 7.28377 535.157 7.3144 535.259 7.34142C535.355 7.36664 535.442 7.38466 535.519 7.39547C535.597 7.40628 535.667 7.41259 535.73 7.41439C536.315 7.41439 536.773 7.09999 537.105 6.4712C537.128 6.42436 537.14 6.37842 537.14 6.33338C537.14 6.08835 536.958 5.83791 536.593 5.58207L536.829 5.07129C537.099 5.28029 537.278 5.56405 537.364 5.92259H537.854V6.44148Z" fill="#57068C"/>
<path d="M539.999 6.04386C539.999 6.33754 539.851 6.48438 539.556 6.48438C539.404 6.48438 539.217 6.44834 538.996 6.37627C538.756 6.2988 538.594 6.21232 538.511 6.11683C538.444 6.33303 538.288 6.44113 538.04 6.44113H537.369V5.92225C538.004 5.92225 538.352 5.90063 538.411 5.85739C538.444 5.83036 538.498 5.72226 538.573 5.53308C538.628 5.39796 538.679 5.28535 538.728 5.19527C538.778 5.10338 538.828 5.02951 538.876 4.97366C538.927 4.91781 538.979 4.87817 539.033 4.85475C539.088 4.82952 539.146 4.81691 539.209 4.81691C539.411 4.81691 539.598 4.97456 539.769 5.28986C539.845 5.43039 539.903 5.56371 539.943 5.68983C539.984 5.81415 540.003 5.93216 539.999 6.04386ZM539.661 5.85739C539.661 5.79973 539.645 5.73758 539.612 5.67091C539.582 5.60425 539.544 5.54209 539.499 5.48444C539.454 5.42678 539.403 5.37904 539.347 5.3412C539.291 5.30337 539.237 5.28445 539.185 5.28445C539.151 5.28445 539.109 5.29976 539.06 5.33039C539.012 5.35922 538.965 5.39435 538.92 5.43579C538.875 5.47723 538.836 5.52047 538.803 5.56551C538.771 5.61056 538.755 5.65019 538.755 5.68443C538.755 5.70064 538.768 5.71956 538.795 5.74118C538.822 5.7628 538.858 5.78532 538.901 5.80874C538.944 5.83036 538.992 5.85198 539.044 5.8736C539.097 5.89522 539.148 5.91414 539.198 5.93036C539.249 5.94657 539.296 5.96008 539.339 5.97089C539.382 5.9817 539.418 5.98711 539.445 5.98711C539.589 5.98711 539.661 5.94387 539.661 5.85739Z" fill="#57068C"/>
<path d="M537.289 18.8954V12.8398H538.354V18.8954H537.289ZM538.051 18.8954V18.0043H540V18.8954H538.051Z" fill="#57068C"/>
<path d="M532.958 18.8954L534.162 12.8398H535.548L536.743 18.8954H535.713L534.786 13.8087H534.916L533.963 18.8954H532.958ZM533.703 17.494L533.799 16.6721H535.86L535.947 17.494H533.703Z" fill="#57068C"/>
<path d="M529.738 16.5597V15.6859H530.5C530.812 15.6859 531.046 15.611 531.201 15.461C531.363 15.3053 531.444 15.0516 531.444 14.6998C531.444 14.3422 531.363 14.0884 531.201 13.9385C531.046 13.7885 530.812 13.7136 530.5 13.7136H529.738V12.8398H530.612C531.201 12.8398 531.663 12.9927 531.998 13.2983C532.339 13.5982 532.509 14.0654 532.509 14.6998C532.509 15.3341 532.339 15.8042 531.998 16.1098C531.663 16.4097 531.201 16.5597 530.612 16.5597H529.738ZM528.941 18.8954V12.8398H530.006V18.8954H528.941ZM531.461 18.8954L530.5 16.1358H531.539L532.579 18.8954H531.461Z" fill="#57068C"/>
<path d="M526.301 18.9825C525.896 18.9825 525.556 18.8815 525.279 18.6797C525.001 18.4721 524.791 18.1404 524.646 17.6848C524.508 17.2292 524.438 16.6266 524.438 15.8768C524.438 15.1156 524.508 14.5071 524.646 14.0515C524.791 13.5959 525.001 13.2672 525.279 13.0653C525.556 12.8577 525.896 12.7539 526.301 12.7539C526.705 12.7539 527.043 12.8577 527.314 13.0653C527.591 13.2672 527.802 13.5959 527.946 14.0515C528.091 14.5071 528.163 15.1098 528.163 15.8595C528.163 16.615 528.091 17.2235 527.946 17.6848C527.802 18.1404 527.591 18.4721 527.314 18.6797C527.043 18.8815 526.705 18.9825 526.301 18.9825ZM526.301 18.0914C526.491 18.0914 526.641 18.0193 526.751 17.8752C526.866 17.731 526.947 17.4974 526.993 17.1744C527.04 16.8515 527.063 16.4189 527.063 15.8768C527.063 15.3289 527.04 14.8935 526.993 14.5706C526.947 14.2418 526.866 14.0054 526.751 13.8612C526.641 13.717 526.491 13.6449 526.301 13.6449C526.11 13.6449 525.957 13.717 525.842 13.8612C525.732 14.0054 525.651 14.239 525.599 14.5619C525.553 14.8849 525.53 15.3174 525.53 15.8595C525.53 16.4074 525.553 16.8457 525.599 17.1744C525.651 17.4974 525.732 17.731 525.842 17.8752C525.957 18.0193 526.11 18.0914 526.301 18.0914Z" fill="#57068C"/>
<path d="M522.589 18.8954V12.8398H523.654V18.8954H522.589Z" fill="#57068C"/>
<path d="M519.362 18.8954L518.228 12.8398H519.302L520.081 17.5718L520.861 12.8398H521.926L520.791 18.8954H519.362Z" fill="#57068C"/>
<path d="M514.639 18.8954L515.843 12.8398H517.228L518.424 18.8954H517.393L516.466 13.8087H516.596L515.643 18.8954H514.639ZM515.384 17.494L515.479 16.6721H517.54L517.627 17.494H515.384Z" fill="#57068C"/>
<path d="M513.029 18.8954V12.8398H514.094V18.8954H513.029ZM510.604 18.8954V12.8398H511.669V18.8954H510.604ZM511.149 16.2655V15.3659H513.652V16.2655H511.149Z" fill="#57068C"/>
<path d="M507.068 18.8954V12.8398H508.134V18.8954H507.068ZM507.753 18.8954V18.0043H509.97V18.8954H507.753ZM507.753 16.205V15.314H509.649V16.205H507.753ZM507.753 13.7309V12.8398H509.875V13.7309H507.753Z" fill="#57068C"/>
<path d="M502.839 18.8954V12.8398H504.485C505.057 12.8398 505.487 12.9811 505.775 13.2637C506.064 13.5463 506.209 13.9241 506.209 14.397C506.209 14.743 506.133 15.0285 505.983 15.2534C505.833 15.4726 505.617 15.6196 505.334 15.6946C505.547 15.7465 505.726 15.8417 505.871 15.9801C506.015 16.1127 506.125 16.2828 506.2 16.4905C506.281 16.6923 506.321 16.923 506.321 17.1825C506.321 17.7477 506.157 18.1745 505.827 18.4628C505.498 18.7512 505.054 18.8954 504.494 18.8954H502.839ZM503.905 18.1341H504.416C504.681 18.1341 504.895 18.062 505.057 17.9178C505.224 17.7737 505.308 17.517 505.308 17.1479C505.308 16.7788 505.224 16.5222 505.057 16.378C504.895 16.2281 504.681 16.1531 504.416 16.1531H503.506V15.3918H504.39C504.632 15.3918 504.826 15.3197 504.97 15.1755C505.114 15.0314 505.187 14.8036 505.187 14.4921C505.187 14.1807 505.114 13.9558 504.97 13.8174C504.826 13.6732 504.632 13.6011 504.39 13.6011H503.905V18.1341Z" fill="#57068C"/>
<path d="M499.668 17.0921L499.61 16.3655C499.653 16.085 499.753 15.8704 499.91 15.7217C500.068 15.5687 500.278 15.4922 500.542 15.4922H500.644V16.289H500.529C500.274 16.289 500.066 16.3527 499.904 16.4802C499.746 16.6034 499.668 16.8074 499.668 17.0921ZM498.889 18.896V15.5496H499.668V18.896H498.889Z" fill="#57068C"/>
<path d="M497.116 18.9583C496.703 18.9583 496.388 18.8139 496.171 18.5249C495.954 18.2317 495.846 17.7982 495.846 17.2245C495.846 16.6466 495.954 16.2132 496.171 15.9242C496.388 15.631 496.705 15.4844 497.122 15.4844C497.539 15.4844 497.854 15.6289 498.067 15.9178C498.284 16.2068 498.392 16.6402 498.392 17.2182C498.392 17.7919 498.284 18.2253 498.067 18.5185C497.854 18.8117 497.537 18.9583 497.116 18.9583ZM497.116 18.3847C497.307 18.3847 497.437 18.2954 497.505 18.1169C497.577 17.9342 497.613 17.6367 497.613 17.2245C497.613 16.8081 497.577 16.5106 497.505 16.3321C497.437 16.1494 497.309 16.0581 497.122 16.0581C496.931 16.0581 496.799 16.1494 496.726 16.3321C496.658 16.5106 496.624 16.806 496.624 17.2182C496.624 17.6346 496.658 17.9342 496.726 18.1169C496.799 18.2954 496.928 18.3847 497.116 18.3847Z" fill="#57068C"/>
<path d="M494.092 18.896V15.2755C494.092 14.8887 494.202 14.5955 494.423 14.3958C494.645 14.1918 494.962 14.0898 495.374 14.0898H495.63V14.7145H495.47C495.27 14.7145 495.119 14.7591 495.017 14.8484C494.915 14.9376 494.864 15.0842 494.864 15.2882V18.896H494.092ZM493.626 16.187V15.5495H495.63V16.187H493.626Z" fill="#57068C"/>
<path d="M488.759 16.5597V15.6859H489.521C489.833 15.6859 490.067 15.611 490.223 15.461C490.384 15.3053 490.465 15.0516 490.465 14.6998C490.465 14.3422 490.384 14.0884 490.223 13.9385C490.067 13.7885 489.833 13.7136 489.521 13.7136H488.759V12.8398H489.634C490.223 12.8398 490.685 12.9927 491.02 13.2983C491.36 13.5982 491.531 14.0654 491.531 14.6998C491.531 15.3341 491.36 15.8042 491.02 16.1098C490.685 16.4097 490.223 16.5597 489.634 16.5597H488.759ZM487.962 18.8954V12.8398H489.027V18.8954H487.962ZM490.483 18.8954L489.521 16.1358H490.56L491.6 18.8954H490.483Z" fill="#57068C"/>
<path d="M484.427 18.8954V12.8398H485.492V18.8954H484.427ZM485.111 18.8954V18.0043H487.328V18.8954H485.111ZM485.111 16.205V15.314H487.008V16.205H485.111ZM485.111 13.7309V12.8398H487.233V13.7309H485.111Z" fill="#57068C"/>
<path d="M481.688 18.8954V12.8398H482.754V18.8954H481.688ZM480.588 13.7309V12.8398H483.854V13.7309H480.588Z" fill="#57068C"/>
<path d="M476.307 18.8954V12.8398H477.485L479.468 18.2466L479 18.5493V12.8398H480.005V18.8954H478.827L476.844 13.4887L477.32 13.1859V18.8954H476.307Z" fill="#57068C"/>
<path d="M472.771 18.8954V12.8398H473.837V18.8954H472.771ZM473.456 18.8954V18.0043H475.673V18.8954H473.456ZM473.456 16.205V15.314H475.352V16.205H473.456ZM473.456 13.7309V12.8398H475.578V13.7309H473.456Z" fill="#57068C"/>
<path d="M470.282 18.9825C469.878 18.9825 469.54 18.8786 469.269 18.671C469.003 18.4576 468.804 18.1231 468.671 17.6675C468.538 17.2062 468.472 16.6093 468.472 15.8768C468.472 15.1213 468.541 14.5158 468.68 14.0602C468.818 13.6046 469.023 13.273 469.295 13.0653C469.572 12.8577 469.913 12.7539 470.317 12.7539C470.854 12.7539 471.264 12.9413 471.547 13.3162C471.835 13.6853 472 14.213 472.04 14.8993L470.984 15.055C470.961 14.5533 470.897 14.1928 470.793 13.9737C470.689 13.7545 470.525 13.6449 470.299 13.6449C470.12 13.6449 469.976 13.717 469.866 13.8612C469.762 14.0054 469.684 14.239 469.633 14.5619C469.586 14.8849 469.563 15.3174 469.563 15.8595C469.563 16.4132 469.586 16.8544 469.633 17.1831C469.679 17.5061 469.757 17.7396 469.866 17.8838C469.982 18.0222 470.132 18.0914 470.317 18.0914C470.571 18.0914 470.744 17.9732 470.836 17.7367C470.935 17.5003 471.001 17.1283 471.036 16.6208L472.049 16.8198C472.003 17.5176 471.83 18.0539 471.529 18.4288C471.229 18.7979 470.813 18.9825 470.282 18.9825Z" fill="#57068C"/>
<path d="M536.18 27.469V21.2148H537.397L539.445 26.7989L538.962 27.1116V21.2148H540V27.469H538.783L536.735 21.8849L537.227 21.5722V27.469H536.18Z" fill="#57068C"/>
<path d="M533.131 27.5578C532.768 27.5578 532.467 27.4357 532.228 27.1915C531.989 26.9413 531.814 26.578 531.7 26.1015C531.587 25.625 531.53 25.0413 531.53 24.3503C531.53 23.5701 531.602 22.9446 531.745 22.4741C531.894 22.0036 532.115 21.6611 532.407 21.4466C532.699 21.2322 533.057 21.125 533.48 21.125C534.047 21.125 534.482 21.3126 534.786 21.6879C535.09 22.0572 535.266 22.5754 535.314 23.2425L534.223 23.4033C534.199 22.9387 534.127 22.5962 534.008 22.3758C533.895 22.1554 533.716 22.0452 533.471 22.0452C533.269 22.0452 533.108 22.1227 532.988 22.2775C532.875 22.4265 532.792 22.6677 532.738 23.0012C532.684 23.3348 532.657 23.7815 532.657 24.3414C532.657 24.9013 532.687 25.351 532.747 25.6905C532.806 26.0241 532.896 26.2653 533.015 26.4142C533.134 26.5631 533.286 26.6376 533.471 26.6376C533.74 26.6376 533.942 26.5125 534.08 26.2623C534.217 26.0121 534.282 25.625 534.276 25.1008H533.516V24.2074H535.296V27.4685H534.375L534.285 26.7626C534.22 26.9175 534.133 27.0575 534.026 27.1826C533.925 27.3017 533.799 27.394 533.65 27.4595C533.501 27.525 533.328 27.5578 533.131 27.5578Z" fill="#57068C"/>
<path d="M529.62 27.469V21.2148H530.72V27.469H529.62Z" fill="#57068C"/>
<path d="M527.081 27.5578C526.67 27.5578 526.333 27.4804 526.07 27.3255C525.808 27.1706 525.611 26.9562 525.48 26.6822C525.355 26.4082 525.283 26.0836 525.265 25.7084L526.321 25.5386C526.351 25.9377 526.425 26.2325 526.545 26.4231C526.67 26.6137 526.855 26.709 527.099 26.709C527.326 26.709 527.499 26.6346 527.618 26.4857C527.743 26.3308 527.806 26.1045 527.806 25.8067C527.806 25.622 527.782 25.4701 527.734 25.351C527.687 25.2319 527.615 25.1336 527.52 25.0562C527.424 24.9728 527.296 24.8983 527.135 24.8328L526.607 24.6273C526.172 24.4546 525.865 24.2253 525.686 23.9394C525.513 23.6475 525.426 23.302 525.426 22.903C525.426 22.355 525.567 21.9231 525.847 21.6075C526.127 21.2858 526.545 21.125 527.099 21.125C527.618 21.125 528.02 21.2739 528.307 21.5717C528.593 21.8636 528.745 22.3163 528.763 22.9298L527.716 23.0638C527.722 22.6587 527.672 22.3788 527.564 22.2239C527.463 22.0691 527.314 21.9916 527.117 21.9916C526.926 21.9916 526.774 22.0542 526.661 22.1793C526.548 22.2984 526.491 22.4979 526.491 22.7779C526.491 23.0161 526.539 23.2067 526.634 23.3497C526.735 23.4926 526.899 23.6088 527.126 23.6981L527.609 23.8857C527.853 23.981 528.071 24.1061 528.262 24.261C528.453 24.4099 528.602 24.6005 528.709 24.8328C528.817 25.0651 528.87 25.3599 528.87 25.7173C528.87 26.307 528.718 26.7626 528.414 27.0843C528.116 27.4 527.672 27.5578 527.081 27.5578Z" fill="#57068C"/>
<path d="M521.88 27.469V21.2148H522.981V27.469H521.88ZM522.587 27.469V26.5487H524.877V27.469H522.587ZM522.587 24.6903V23.7701H524.546V24.6903H522.587ZM522.587 22.1351V21.2148H524.779V22.1351H522.587Z" fill="#57068C"/>
<path d="M517.94 27.469V26.5308H518.825C519.082 26.5308 519.293 26.4623 519.46 26.3254C519.633 26.1824 519.761 25.9501 519.845 25.6285C519.934 25.3068 519.979 24.878 519.979 24.3419C519.979 23.7999 519.934 23.371 519.845 23.0553C519.761 22.7337 519.633 22.5044 519.46 22.3674C519.293 22.2244 519.082 22.153 518.825 22.153H517.94V21.2148H518.861C519.308 21.2148 519.699 21.3221 520.033 21.5365C520.367 21.745 520.623 22.0785 520.802 22.5371C520.987 22.9958 521.079 23.5974 521.079 24.3419C521.079 25.0864 520.987 25.688 520.802 26.1467C520.623 26.6053 520.367 26.9418 520.033 27.1563C519.699 27.3647 519.308 27.469 518.861 27.469H517.94ZM517.242 27.469V21.2148H518.342V27.469H517.242Z" fill="#57068C"/>
<path d="M512.167 27.469V21.2148H513.267V27.469H512.167ZM512.954 27.469V26.5487H514.966V27.469H512.954Z" fill="#57068C"/>
<path d="M507.694 27.469L508.938 21.2148H510.369L511.603 27.469H510.539L509.582 22.2155H509.716L508.732 27.469H507.694ZM508.464 26.0216L508.562 25.1728H510.691L510.78 26.0216H508.464Z" fill="#57068C"/>
<path d="M503.309 27.469V21.2148H504.525L506.574 26.7989L506.091 27.1116V21.2148H507.128V27.469H505.912L503.863 21.8849L504.355 21.5722V27.469H503.309Z" fill="#57068C"/>
<path d="M500.582 27.5578C500.164 27.5578 499.813 27.4536 499.526 27.2451C499.24 27.0307 499.022 26.6882 498.873 26.2176C498.73 25.7471 498.659 25.1247 498.659 24.3503C498.659 23.5641 498.73 22.9357 498.873 22.4652C499.022 21.9946 499.24 21.6551 499.526 21.4466C499.813 21.2322 500.164 21.125 500.582 21.125C500.999 21.125 501.348 21.2322 501.628 21.4466C501.915 21.6551 502.132 21.9946 502.281 22.4652C502.431 22.9357 502.505 23.5581 502.505 24.3325C502.505 25.1127 502.431 25.7411 502.281 26.2176C502.132 26.6882 501.915 27.0307 501.628 27.2451C501.348 27.4536 500.999 27.5578 500.582 27.5578ZM500.582 26.6376C500.779 26.6376 500.934 26.5631 501.047 26.4142C501.166 26.2653 501.25 26.0241 501.297 25.6905C501.345 25.357 501.369 24.9102 501.369 24.3503C501.369 23.7845 501.345 23.3348 501.297 23.0012C501.25 22.6617 501.166 22.4175 501.047 22.2686C500.934 22.1197 500.779 22.0452 500.582 22.0452C500.385 22.0452 500.227 22.1197 500.108 22.2686C499.994 22.4175 499.911 22.6587 499.857 22.9923C499.81 23.3259 499.786 23.7726 499.786 24.3325C499.786 24.8983 499.81 25.351 499.857 25.6905C499.911 26.0241 499.994 26.2653 500.108 26.4142C500.227 26.5631 500.385 26.6376 500.582 26.6376Z" fill="#57068C"/>
<path d="M496.749 27.469V21.2148H497.849V27.469H496.749Z" fill="#57068C"/>
<path d="M493.921 27.469V21.2148H495.021V27.469H493.921ZM492.785 22.1351V21.2148H496.157V22.1351H492.785Z" fill="#57068C"/>
<path d="M490.379 27.5583C489.783 27.5583 489.332 27.3915 489.028 27.058C488.73 26.7244 488.581 26.2717 488.581 25.6999V21.2148H489.69V25.7089C489.69 26.0186 489.747 26.2509 489.86 26.4058C489.974 26.5547 490.146 26.6291 490.379 26.6291C490.618 26.6291 490.793 26.5547 490.907 26.4058C491.02 26.2509 491.077 26.0186 491.077 25.7089V21.2148H492.177V25.6999C492.177 26.2717 492.028 26.7244 491.73 27.058C491.432 27.3915 490.981 27.5583 490.379 27.5583Z" fill="#57068C"/>
<path d="M485.753 27.469V21.2148H486.853V27.469H485.753ZM484.617 22.1351V21.2148H487.989V22.1351H484.617Z" fill="#57068C"/>
<path d="M482.912 27.469V21.2148H484.012V27.469H482.912Z" fill="#57068C"/>
<path d="M480.084 27.469V21.2148H481.184V27.469H480.084ZM478.948 22.1351V21.2148H482.32V22.1351H478.948Z" fill="#57068C"/>
<path d="M476.852 27.5578C476.441 27.5578 476.104 27.4804 475.841 27.3255C475.579 27.1706 475.382 26.9562 475.251 26.6822C475.126 26.4082 475.054 26.0836 475.036 25.7084L476.092 25.5386C476.122 25.9377 476.196 26.2325 476.316 26.4231C476.441 26.6137 476.626 26.709 476.87 26.709C477.097 26.709 477.27 26.6346 477.389 26.4857C477.514 26.3308 477.577 26.1045 477.577 25.8067C477.577 25.622 477.553 25.4701 477.505 25.351C477.458 25.2319 477.386 25.1336 477.291 25.0562C477.195 24.9728 477.067 24.8983 476.906 24.8328L476.378 24.6273C475.943 24.4546 475.636 24.2253 475.457 23.9394C475.284 23.6475 475.197 23.302 475.197 22.903C475.197 22.355 475.338 21.9231 475.618 21.6075C475.898 21.2858 476.316 21.125 476.87 21.125C477.389 21.125 477.791 21.2739 478.078 21.5717C478.364 21.8636 478.516 22.3163 478.534 22.9298L477.487 23.0638C477.493 22.6587 477.443 22.3788 477.335 22.2239C477.234 22.0691 477.085 21.9916 476.888 21.9916C476.697 21.9916 476.545 22.0542 476.432 22.1793C476.319 22.2984 476.262 22.4979 476.262 22.7779C476.262 23.0161 476.31 23.2067 476.405 23.3497C476.506 23.4926 476.67 23.6088 476.897 23.6981L477.38 23.8857C477.624 23.981 477.842 24.1061 478.033 24.261C478.224 24.4099 478.373 24.6005 478.48 24.8328C478.588 25.0651 478.641 25.3599 478.641 25.7173C478.641 26.307 478.489 26.7626 478.185 27.0843C477.887 27.4 477.443 27.5578 476.852 27.5578Z" fill="#57068C"/>
<path d="M470.507 27.469V21.2148H471.724L473.772 26.7989L473.289 27.1116V21.2148H474.327V27.469H473.11L471.062 21.8849L471.554 21.5722V27.469H470.507Z" fill="#57068C"/>
<path d="M468.472 27.469V21.2148H469.572V27.469H468.472Z" fill="#57068C"/>
</svg>
