<svg width="1037" height="113" viewBox="0 0 1037 113" fill="none" xmlns="http://www.w3.org/2000/svg">
<path d="M62.5738 72.2C61.2937 76.04 59.3737 79.304 56.8138 81.992C54.2537 84.616 51.2457 86.6 47.7898 87.944C44.3337 89.288 40.5257 89.96 36.3657 89.96C30.2857 89.96 25.0057 88.648 20.5257 86.024C16.0457 83.4 12.5897 79.656 10.1577 74.792C7.72575 69.928 6.50975 64.104 6.50975 57.32C6.50975 50.536 7.72575 44.712 10.1577 39.848C12.5897 34.984 16.0457 31.24 20.5257 28.616C25.0057 25.992 30.2537 24.68 36.2697 24.68C40.4297 24.68 44.1737 25.256 47.5018 26.408C50.8937 27.56 53.7737 29.288 56.1417 31.592C58.5097 33.896 60.3337 36.776 61.6138 40.232L51.9178 44.552C50.6377 40.776 48.7817 38.024 46.3497 36.296C43.9177 34.504 40.7497 33.608 36.8457 33.608C32.9417 33.608 29.5177 34.536 26.5737 36.392C23.6297 38.248 21.3257 40.936 19.6617 44.456C18.0617 47.976 17.2617 52.264 17.2617 57.32C17.2617 62.312 18.0297 66.6 19.5657 70.184C21.1017 73.704 23.3097 76.392 26.1897 78.248C29.0697 80.104 32.5257 81.032 36.5577 81.032C40.4618 81.032 43.8218 80.04 46.6378 78.056C49.5178 76.008 51.5658 72.968 52.7818 68.936L62.5738 72.2ZM91.2387 40.04C95.9107 40.04 100.039 41.032 103.623 43.016C107.207 45 109.991 47.88 111.975 51.656C114.023 55.368 115.047 59.816 115.047 65C115.047 70.184 114.023 74.664 111.975 78.44C109.991 82.152 107.207 85 103.623 86.984C100.039 88.968 95.9107 89.96 91.2387 89.96C86.5667 89.96 82.4387 88.968 78.8547 86.984C75.2707 85 72.4547 82.152 70.4067 78.44C68.3587 74.664 67.3347 70.184 67.3347 65C67.3347 59.816 68.3587 55.368 70.4067 51.656C72.4547 47.88 75.2707 45 78.8547 43.016C82.4387 41.032 86.5667 40.04 91.2387 40.04ZM91.2387 48.104C88.3587 48.104 85.8947 48.776 83.8467 50.12C81.8627 51.4 80.3267 53.288 79.2387 55.784C78.1507 58.28 77.6067 61.352 77.6067 65C77.6067 68.584 78.1507 71.656 79.2387 74.216C80.3267 76.712 81.8627 78.632 83.8467 79.976C85.8947 81.256 88.3587 81.896 91.2387 81.896C94.1187 81.896 96.5507 81.256 98.5347 79.976C100.519 78.632 102.055 76.712 103.143 74.216C104.231 71.656 104.775 68.584 104.775 65C104.775 61.352 104.231 58.28 103.143 55.784C102.055 53.288 100.519 51.4 98.5347 50.12C96.5507 48.776 94.1187 48.104 91.2387 48.104ZM124.705 89V41H129.025L129.313 50.984C130.721 47.528 132.993 44.84 136.129 42.92C139.329 41 142.881 40.04 146.785 40.04C150.945 40.04 154.529 41.032 157.537 43.016C160.609 45 162.721 47.912 163.873 51.752C164.705 49.32 166.049 47.24 167.905 45.512C169.761 43.72 171.937 42.344 174.433 41.384C176.929 40.424 179.521 39.944 182.209 39.944C185.537 39.944 188.545 40.616 191.233 41.96C193.985 43.24 196.161 45.224 197.761 47.912C199.425 50.536 200.257 53.832 200.257 57.8V88.904H195.457V58.28C195.457 53.544 194.177 50.024 191.617 47.72C189.121 45.352 185.793 44.168 181.633 44.168C178.625 44.168 175.841 44.904 173.281 46.376C170.721 47.784 168.673 49.8 167.137 52.424C165.665 54.984 164.929 57.96 164.929 61.352V89H160.129V58.376C160.129 53.64 158.849 50.12 156.289 47.816C153.729 45.448 150.401 44.264 146.305 44.264C143.425 44.264 140.705 44.968 138.145 46.376C135.585 47.784 133.505 49.8 131.905 52.424C130.305 55.048 129.505 58.184 129.505 61.832V89H124.705ZM213.021 109.16V41H217.341L217.725 54.344L217.053 53.576C217.885 50.824 219.165 48.424 220.893 46.376C222.685 44.328 224.861 42.76 227.421 41.672C229.981 40.584 232.765 40.04 235.773 40.04C239.869 40.04 243.549 41.032 246.813 43.016C250.077 45 252.669 47.848 254.589 51.56C256.509 55.272 257.469 59.752 257.469 65C257.469 70.184 256.509 74.664 254.589 78.44C252.669 82.152 250.045 85 246.717 86.984C243.453 88.968 239.741 89.96 235.581 89.96C231.165 89.96 227.325 88.808 224.061 86.504C220.797 84.136 218.525 80.968 217.245 77L217.821 76.136V109.16H213.021ZM235.005 85.736C240.445 85.736 244.733 83.88 247.869 80.168C251.069 76.456 252.669 71.4 252.669 65C252.669 58.6 251.101 53.544 247.965 49.832C244.829 46.12 240.573 44.264 235.197 44.264C231.805 44.264 228.797 45.128 226.173 46.856C223.613 48.52 221.565 50.92 220.029 54.056C218.557 57.128 217.821 60.776 217.821 65C217.821 69.16 218.557 72.808 220.029 75.944C221.501 79.08 223.517 81.512 226.077 83.24C228.701 84.904 231.677 85.736 235.005 85.736ZM296.87 57.416C296.87 53.256 295.75 50.024 293.51 47.72C291.27 45.416 288.07 44.264 283.91 44.264C280.262 44.264 277.126 45.064 274.502 46.664C271.878 48.2 269.926 50.792 268.646 54.44L264.71 51.944C266.118 48.168 268.454 45.256 271.718 43.208C275.046 41.096 279.142 40.04 284.006 40.04C287.526 40.04 290.598 40.68 293.222 41.96C295.91 43.176 297.99 45 299.462 47.432C300.934 49.864 301.67 52.904 301.67 56.552V80.552C301.67 83.944 303.206 85.64 306.278 85.64C307.622 85.64 308.774 85.416 309.734 84.968L309.446 88.808C308.358 89.384 306.95 89.672 305.222 89.672C303.75 89.672 302.374 89.384 301.094 88.808C299.814 88.232 298.758 87.272 297.926 85.928C297.158 84.584 296.774 82.76 296.774 80.456V77.864L298.118 77.768C297.542 80.52 296.262 82.824 294.278 84.68C292.358 86.472 290.118 87.816 287.558 88.712C284.998 89.544 282.438 89.96 279.878 89.96C276.87 89.96 274.182 89.48 271.814 88.52C269.446 87.56 267.59 86.184 266.246 84.392C264.902 82.536 264.23 80.264 264.23 77.576C264.23 73.992 265.414 71.112 267.782 68.936C270.214 66.696 273.606 65.16 277.958 64.328L297.83 60.392V64.424L280.358 67.88C276.582 68.648 273.766 69.768 271.91 71.24C270.054 72.712 269.126 74.728 269.126 77.288C269.126 79.912 270.118 81.992 272.102 83.528C274.086 85 276.902 85.736 280.55 85.736C282.406 85.736 284.294 85.48 286.214 84.968C288.134 84.456 289.894 83.656 291.494 82.568C293.158 81.416 294.47 80.008 295.43 78.344C296.39 76.616 296.87 74.536 296.87 72.104V57.416ZM332.003 89.96C327.139 89.96 322.819 88.968 319.043 86.984C315.331 85 312.707 82.152 311.171 78.44L315.299 75.656C316.451 78.856 318.499 81.352 321.443 83.144C324.451 84.872 328.099 85.736 332.387 85.736C336.611 85.736 339.907 84.904 342.275 83.24C344.707 81.576 345.923 79.368 345.923 76.616C345.923 74.76 345.315 73.16 344.099 71.816C342.947 70.408 340.739 69.352 337.475 68.648L326.243 66.248C321.635 65.288 318.339 63.752 316.355 61.64C314.435 59.464 313.475 56.84 313.475 53.768C313.475 51.208 314.243 48.904 315.779 46.856C317.315 44.808 319.427 43.176 322.115 41.96C324.867 40.68 328.067 40.04 331.715 40.04C336.515 40.04 340.483 41 343.619 42.92C346.755 44.776 348.963 47.592 350.243 51.368L346.211 53.96C345.251 50.568 343.459 48.104 340.835 46.568C338.275 45.032 335.235 44.264 331.715 44.264C329.027 44.264 326.659 44.68 324.611 45.512C322.627 46.28 321.059 47.368 319.907 48.776C318.819 50.12 318.275 51.688 318.275 53.48C318.275 55.336 318.915 57.032 320.195 58.568C321.475 60.04 323.747 61.128 327.011 61.832L338.531 64.328C343.075 65.288 346.243 66.76 348.035 68.744C349.827 70.664 350.723 73.064 350.723 75.944C350.723 78.824 349.955 81.32 348.419 83.432C346.883 85.544 344.707 87.176 341.891 88.328C339.075 89.416 335.779 89.96 332.003 89.96ZM376.538 89.96C371.674 89.96 367.354 88.968 363.578 86.984C359.866 85 357.242 82.152 355.706 78.44L359.834 75.656C360.986 78.856 363.034 81.352 365.978 83.144C368.986 84.872 372.634 85.736 376.922 85.736C381.146 85.736 384.442 84.904 386.81 83.24C389.242 81.576 390.458 79.368 390.458 76.616C390.458 74.76 389.85 73.16 388.634 71.816C387.482 70.408 385.274 69.352 382.01 68.648L370.778 66.248C366.17 65.288 362.874 63.752 360.89 61.64C358.97 59.464 358.01 56.84 358.01 53.768C358.01 51.208 358.778 48.904 360.314 46.856C361.85 44.808 363.962 43.176 366.65 41.96C369.402 40.68 372.602 40.04 376.25 40.04C381.05 40.04 385.018 41 388.154 42.92C391.29 44.776 393.498 47.592 394.778 51.368L390.746 53.96C389.786 50.568 387.994 48.104 385.37 46.568C382.81 45.032 379.77 44.264 376.25 44.264C373.562 44.264 371.194 44.68 369.146 45.512C367.162 46.28 365.594 47.368 364.442 48.776C363.354 50.12 362.81 51.688 362.81 53.48C362.81 55.336 363.45 57.032 364.73 58.568C366.01 60.04 368.282 61.128 371.546 61.832L383.066 64.328C387.61 65.288 390.778 66.76 392.57 68.744C394.362 70.664 395.258 73.064 395.258 75.944C395.258 78.824 394.49 81.32 392.954 83.432C391.418 85.544 389.242 87.176 386.426 88.328C383.61 89.416 380.314 89.96 376.538 89.96ZM407.249 31.688C406.033 31.688 405.041 31.336 404.273 30.632C403.569 29.864 403.217 28.872 403.217 27.656C403.217 26.44 403.569 25.48 404.273 24.776C405.041 24.008 406.033 23.624 407.249 23.624C408.465 23.624 409.425 24.008 410.129 24.776C410.897 25.48 411.281 26.44 411.281 27.656C411.281 28.872 410.897 29.864 410.129 30.632C409.425 31.336 408.465 31.688 407.249 31.688ZM409.649 41V89H404.849V41H409.649ZM442.437 40.04C446.917 40.04 450.853 41.032 454.245 43.016C457.701 45 460.389 47.88 462.309 51.656C464.293 55.368 465.285 59.816 465.285 65C465.285 70.184 464.293 74.664 462.309 78.44C460.389 82.152 457.701 85 454.245 86.984C450.853 88.968 446.917 89.96 442.437 89.96C437.957 89.96 433.989 88.968 430.533 86.984C427.141 85 424.453 82.152 422.469 78.44C420.549 74.664 419.589 70.184 419.589 65C419.589 59.816 420.549 55.368 422.469 51.656C424.453 47.88 427.141 45 430.533 43.016C433.989 41.032 437.957 40.04 442.437 40.04ZM442.437 44.168C438.789 44.168 435.621 45 432.933 46.664C430.245 48.328 428.133 50.728 426.597 53.864C425.125 56.936 424.389 60.648 424.389 65C424.389 69.288 425.125 73 426.597 76.136C428.133 79.272 430.245 81.672 432.933 83.336C435.621 85 438.789 85.832 442.437 85.832C446.085 85.832 449.253 85 451.941 83.336C454.629 81.672 456.709 79.272 458.181 76.136C459.717 73 460.485 69.288 460.485 65C460.485 60.648 459.717 56.936 458.181 53.864C456.709 50.728 454.629 48.328 451.941 46.664C449.253 45 446.085 44.168 442.437 44.168ZM475.169 89V41H479.489L479.873 53L479.105 52.328C480.001 49.704 481.345 47.496 483.137 45.704C484.929 43.848 487.073 42.44 489.569 41.48C492.065 40.52 494.753 40.04 497.633 40.04C501.217 40.04 504.385 40.712 507.137 42.056C509.889 43.4 512.033 45.384 513.569 48.008C515.169 50.632 515.969 53.928 515.969 57.896V89H511.169V59.432C511.169 54.184 509.857 50.344 507.233 47.912C504.673 45.48 501.313 44.264 497.153 44.264C494.145 44.264 491.329 44.968 488.705 46.376C486.145 47.72 484.033 49.704 482.369 52.328C480.769 54.952 479.969 58.152 479.969 61.928V89H475.169Z" fill="white"/>
<path d="M573.216 88.056C570.976 88.056 568.928 87.7253 567.072 87.064C565.237 86.4027 563.509 85.3573 561.888 83.928C560.267 82.4987 558.688 80.6427 557.152 78.36C555.637 76.12 554.389 73.944 553.408 71.832C552.427 69.72 551.691 67.64 551.2 65.592C550.731 63.5227 550.496 61.464 550.496 59.416C550.496 57.048 550.955 54.9253 551.872 53.048C552.811 51.1707 554.133 49.6987 555.84 48.632C557.568 47.544 559.605 47 561.952 47C563.701 47 565.227 47.352 566.528 48.056C567.851 48.76 568.875 49.7307 569.6 50.968C570.347 52.2053 570.72 53.624 570.72 55.224C570.72 57.336 570.165 59.1813 569.056 60.76C567.947 62.3173 566.357 63.5653 564.288 64.504C562.219 65.4427 559.733 66.04 556.832 66.296L556.608 65.304C558.357 65.0693 559.872 64.536 561.152 63.704C562.453 62.8507 563.456 61.688 564.16 60.216C564.885 58.744 565.248 56.9413 565.248 54.808C565.248 52.9093 564.917 51.3733 564.256 50.2C563.616 49.0267 562.72 48.44 561.568 48.44C560.053 48.44 558.784 49.208 557.76 50.744C556.757 52.2587 556.256 54.296 556.256 56.856C556.256 58.8827 556.512 60.9093 557.024 62.936C557.536 64.9413 558.283 66.9573 559.264 68.984C560.267 70.9893 561.472 73.0053 562.88 75.032C564.587 77.5067 566.144 79.4907 567.552 80.984C568.96 82.4773 570.325 83.5653 571.648 84.248C572.992 84.9093 574.421 85.24 575.936 85.24C577.963 85.24 579.776 84.7387 581.376 83.736C582.976 82.712 584.224 81.176 585.12 79.128C586.037 77.0587 586.496 74.4453 586.496 71.288C586.496 67.3413 585.824 63.4693 584.48 59.672C583.136 55.8747 581.013 52.4187 578.112 49.304C575.36 46.3173 572.213 43.992 568.672 42.328C565.131 40.664 561.259 39.832 557.056 39.832C553.728 39.832 550.955 40.312 548.736 41.272C546.517 42.2107 544.853 43.4907 543.744 45.112C542.656 46.712 542.112 48.5147 542.112 50.52C542.112 51.3947 542.229 52.1307 542.464 52.728C542.72 53.304 542.997 53.8373 543.296 54.328C543.616 54.7973 543.893 55.2987 544.128 55.832C544.363 56.3653 544.48 57.016 544.48 57.784C544.48 58.6587 544.171 59.3947 543.552 59.992C542.955 60.568 542.187 60.856 541.248 60.856C539.947 60.856 538.912 60.28 538.144 59.128C537.397 57.9547 537.024 56.376 537.024 54.392C537.024 51.1493 537.824 48.3227 539.424 45.912C541.045 43.5013 543.36 41.6347 546.368 40.312C549.397 38.9893 553.003 38.328 557.184 38.328C561.557 38.328 565.621 39.1813 569.376 40.888C573.131 42.5947 576.48 45.0267 579.424 48.184C582.368 51.2987 584.576 54.8293 586.048 58.776C587.52 62.7013 588.256 66.8293 588.256 71.16C588.256 74.7867 587.648 77.8587 586.432 80.376C585.216 82.8933 583.488 84.8027 581.248 86.104C579.008 87.4053 576.331 88.056 573.216 88.056ZM566.496 80.952C567.968 79.8213 569.131 78.7227 569.984 77.656C570.859 76.5893 571.488 75.576 571.872 74.616C572.277 73.6347 572.48 72.728 572.48 71.896C572.48 71.128 572.363 70.488 572.128 69.976C571.915 69.4427 571.701 68.9413 571.488 68.472C571.275 68.0027 571.168 67.4693 571.168 66.872C571.168 65.976 571.467 65.208 572.064 64.568C572.683 63.928 573.461 63.608 574.4 63.608C575.381 63.608 576.181 64.0027 576.8 64.792C577.44 65.56 577.76 66.6587 577.76 68.088C577.76 70.6267 576.885 73.0587 575.136 75.384C573.408 77.688 570.763 79.8213 567.2 81.784L566.496 80.952ZM552.288 66.776C550.411 67.0747 548.843 67.6933 547.584 68.632C546.325 69.5707 545.387 70.712 544.768 72.056C544.149 73.4 543.84 74.8293 543.84 76.344C543.84 79.0747 544.597 81.24 546.112 82.84C547.648 84.4187 549.696 85.208 552.256 85.208C554.091 85.208 555.691 84.92 557.056 84.344C558.443 83.7467 559.744 82.968 560.96 82.008L561.792 83.128C560.704 84.088 559.52 84.9307 558.24 85.656C556.981 86.36 555.563 86.904 553.984 87.288C552.405 87.6933 550.613 87.896 548.608 87.896C544.917 87.896 542.037 87.0213 539.968 85.272C537.92 83.5013 536.896 81.08 536.896 78.008C536.896 75.7893 537.472 73.7947 538.624 72.024C539.776 70.2533 541.493 68.8133 543.776 67.704C546.059 66.5947 548.907 65.9013 552.32 65.624L552.288 66.776Z" fill="white"/>
<path d="M606.408 89V25.64H631.368C638.984 25.64 644.552 27.176 648.072 30.248C651.592 33.32 653.352 37.576 653.352 43.016C653.352 46.344 652.392 49.32 650.472 51.944C648.552 54.504 645.736 56.136 642.024 56.84V56.936C646.12 57.576 649.288 59.272 651.528 62.024C653.832 64.712 654.984 67.848 654.984 71.432C654.984 76.872 653 81.16 649.032 84.296C645.064 87.432 639.304 89 631.752 89H606.408ZM616.488 80.456H632.232C636.264 80.456 639.272 79.624 641.256 77.96C643.304 76.296 644.328 73.96 644.328 70.952C644.328 67.944 643.304 65.608 641.256 63.944C639.272 62.28 636.264 61.448 632.232 61.448H616.488V80.456ZM616.488 52.904H630.6C638.664 52.904 642.696 49.8 642.696 43.592C642.696 37.384 638.664 34.28 630.6 34.28H616.488V52.904ZM685.523 40.04C690.195 40.04 694.323 41.032 697.907 43.016C701.491 45 704.275 47.88 706.259 51.656C708.307 55.368 709.331 59.816 709.331 65C709.331 70.184 708.307 74.664 706.259 78.44C704.275 82.152 701.491 85 697.907 86.984C694.323 88.968 690.195 89.96 685.523 89.96C680.851 89.96 676.723 88.968 673.139 86.984C669.555 85 666.739 82.152 664.691 78.44C662.643 74.664 661.619 70.184 661.619 65C661.619 59.816 662.643 55.368 664.691 51.656C666.739 47.88 669.555 45 673.139 43.016C676.723 41.032 680.851 40.04 685.523 40.04ZM685.523 48.104C682.643 48.104 680.179 48.776 678.131 50.12C676.147 51.4 674.611 53.288 673.523 55.784C672.435 58.28 671.891 61.352 671.891 65C671.891 68.584 672.435 71.656 673.523 74.216C674.611 76.712 676.147 78.632 678.131 79.976C680.179 81.256 682.643 81.896 685.523 81.896C688.403 81.896 690.835 81.256 692.819 79.976C694.803 78.632 696.339 76.712 697.427 74.216C698.515 71.656 699.059 68.584 699.059 65C699.059 61.352 698.515 58.28 697.427 55.784C696.339 53.288 694.803 51.4 692.819 50.12C690.835 48.776 688.403 48.104 685.523 48.104ZM735.885 89.96C732.557 89.96 729.581 89.352 726.957 88.136C724.333 86.92 722.253 85.032 720.717 82.472C719.245 79.848 718.509 76.584 718.509 72.68V41H723.309V71.528C723.309 76.52 724.493 80.136 726.861 82.376C729.293 84.616 732.685 85.736 737.037 85.736C739.597 85.736 741.901 85.288 743.949 84.392C746.061 83.496 747.853 82.248 749.325 80.648C750.797 79.048 751.917 77.224 752.685 75.176C753.517 73.128 753.933 70.92 753.933 68.552V41H758.733V89H754.413L754.221 79.112C752.813 82.504 750.509 85.16 747.309 87.08C744.109 89 740.301 89.96 735.885 89.96ZM771.961 89V41H776.281L776.665 53L775.897 52.328C776.793 49.704 778.137 47.496 779.929 45.704C781.721 43.848 783.865 42.44 786.361 41.48C788.857 40.52 791.545 40.04 794.425 40.04C798.009 40.04 801.177 40.712 803.929 42.056C806.681 43.4 808.825 45.384 810.361 48.008C811.961 50.632 812.761 53.928 812.761 57.896V89H807.961V59.432C807.961 54.184 806.649 50.344 804.025 47.912C801.465 45.48 798.105 44.264 793.945 44.264C790.937 44.264 788.121 44.968 785.497 46.376C782.937 47.72 780.825 49.704 779.161 52.328C777.561 54.952 776.761 58.152 776.761 61.928V89H771.961ZM844.217 89.96C840.057 89.96 836.313 88.968 832.985 86.984C829.656 85 827.032 82.152 825.112 78.44C823.256 74.664 822.328 70.184 822.328 65C822.328 59.688 823.32 55.176 825.304 51.464C827.289 47.752 829.977 44.936 833.368 43.016C836.76 41.032 840.505 40.04 844.601 40.04C849.081 40.04 852.889 41.224 856.024 43.592C859.225 45.96 861.369 49.256 862.457 53.48L861.881 53.864V18.92H866.681V89H862.361L862.073 75.656L862.649 75.464C862.073 78.536 860.889 81.16 859.097 83.336C857.369 85.512 855.193 87.176 852.569 88.328C850.009 89.416 847.225 89.96 844.217 89.96ZM844.793 85.736C848.185 85.736 851.161 84.904 853.721 83.24C856.281 81.512 858.265 79.048 859.673 75.848C861.145 72.648 861.881 68.904 861.881 64.616C861.881 60.392 861.145 56.776 859.673 53.768C858.265 50.696 856.281 48.36 853.721 46.76C851.225 45.096 848.313 44.264 844.985 44.264C839.481 44.264 835.129 46.12 831.928 49.832C828.728 53.544 827.128 58.6 827.128 65C827.128 71.4 828.696 76.456 831.832 80.168C835.033 83.88 839.353 85.736 844.793 85.736ZM884.385 18.92V77.672C884.385 80.616 884.897 82.696 885.921 83.912C886.945 85.128 888.545 85.736 890.721 85.736C892.065 85.736 893.121 85.64 893.889 85.448C894.721 85.256 895.681 84.936 896.769 84.488L896.097 88.712C895.265 89.096 894.305 89.384 893.217 89.576C892.193 89.832 891.041 89.96 889.761 89.96C886.369 89.96 883.809 89 882.081 87.08C880.417 85.096 879.585 82.024 879.585 77.864V18.92H884.385ZM921.682 89.96C917.266 89.96 913.33 88.968 909.874 86.984C906.418 85 903.698 82.152 901.714 78.44C899.794 74.664 898.834 70.184 898.834 65C898.834 59.816 899.794 55.368 901.714 51.656C903.698 47.88 906.354 45 909.682 43.016C913.01 41.032 916.818 40.04 921.106 40.04C925.458 40.04 929.17 41 932.242 42.92C935.314 44.84 937.682 47.528 939.346 50.984C941.01 54.376 941.842 58.312 941.842 62.792C941.842 63.368 941.81 63.944 941.746 64.52C941.746 65.032 941.714 65.512 941.65 65.96H901.81V61.64H939.538L937.138 62.312C937.074 56.808 935.602 52.424 932.722 49.16C929.906 45.896 926.002 44.264 921.01 44.264C917.554 44.264 914.514 45.096 911.89 46.76C909.266 48.36 907.218 50.728 905.746 53.864C904.274 56.936 903.538 60.648 903.538 65C903.538 69.288 904.274 73 905.746 76.136C907.282 79.272 909.394 81.672 912.082 83.336C914.834 84.936 918.002 85.736 921.586 85.736C925.298 85.736 928.466 84.936 931.09 83.336C933.778 81.736 935.858 79.528 937.33 76.712L941.17 78.92C940.018 81.224 938.482 83.208 936.562 84.872C934.642 86.472 932.434 87.72 929.938 88.616C927.442 89.512 924.69 89.96 921.682 89.96ZM967.919 89.96C963.055 89.96 958.735 88.968 954.959 86.984C951.247 85 948.623 82.152 947.087 78.44L951.215 75.656C952.367 78.856 954.415 81.352 957.359 83.144C960.367 84.872 964.015 85.736 968.303 85.736C972.527 85.736 975.823 84.904 978.191 83.24C980.623 81.576 981.839 79.368 981.839 76.616C981.839 74.76 981.231 73.16 980.015 71.816C978.863 70.408 976.655 69.352 973.391 68.648L962.159 66.248C957.551 65.288 954.255 63.752 952.271 61.64C950.351 59.464 949.391 56.84 949.391 53.768C949.391 51.208 950.159 48.904 951.695 46.856C953.231 44.808 955.343 43.176 958.031 41.96C960.783 40.68 963.983 40.04 967.631 40.04C972.431 40.04 976.399 41 979.535 42.92C982.671 44.776 984.879 47.592 986.159 51.368L982.127 53.96C981.167 50.568 979.375 48.104 976.751 46.568C974.191 45.032 971.151 44.264 967.631 44.264C964.943 44.264 962.575 44.68 960.527 45.512C958.543 46.28 956.975 47.368 955.823 48.776C954.735 50.12 954.191 51.688 954.191 53.48C954.191 55.336 954.831 57.032 956.111 58.568C957.391 60.04 959.663 61.128 962.927 61.832L974.447 64.328C978.991 65.288 982.159 66.76 983.951 68.744C985.743 70.664 986.639 73.064 986.639 75.944C986.639 78.824 985.871 81.32 984.335 83.432C982.799 85.544 980.623 87.176 977.807 88.328C974.991 89.416 971.695 89.96 967.919 89.96ZM1012.45 89.96C1007.59 89.96 1003.27 88.968 999.494 86.984C995.782 85 993.158 82.152 991.622 78.44L995.75 75.656C996.902 78.856 998.95 81.352 1001.89 83.144C1004.9 84.872 1008.55 85.736 1012.84 85.736C1017.06 85.736 1020.36 84.904 1022.73 83.24C1025.16 81.576 1026.37 79.368 1026.37 76.616C1026.37 74.76 1025.77 73.16 1024.55 71.816C1023.4 70.408 1021.19 69.352 1017.93 68.648L1006.69 66.248C1002.09 65.288 998.79 63.752 996.806 61.64C994.886 59.464 993.926 56.84 993.926 53.768C993.926 51.208 994.694 48.904 996.23 46.856C997.766 44.808 999.878 43.176 1002.57 41.96C1005.32 40.68 1008.52 40.04 1012.17 40.04C1016.97 40.04 1020.93 41 1024.07 42.92C1027.21 44.776 1029.41 47.592 1030.69 51.368L1026.66 53.96C1025.7 50.568 1023.91 48.104 1021.29 46.568C1018.73 45.032 1015.69 44.264 1012.17 44.264C1009.48 44.264 1007.11 44.68 1005.06 45.512C1003.08 46.28 1001.51 47.368 1000.36 48.776C999.27 50.12 998.726 51.688 998.726 53.48C998.726 55.336 999.366 57.032 1000.65 58.568C1001.93 60.04 1004.2 61.128 1007.46 61.832L1018.98 64.328C1023.53 65.288 1026.69 66.76 1028.49 68.744C1030.28 70.664 1031.17 73.064 1031.17 75.944C1031.17 78.824 1030.41 81.32 1028.87 83.432C1027.33 85.544 1025.16 87.176 1022.34 88.328C1019.53 89.416 1016.23 89.96 1012.45 89.96Z" fill="white"/>
</svg>
