<svg width="350" height="34" viewBox="0 0 350 34" fill="none" xmlns="http://www.w3.org/2000/svg">
<path d="M342.367 24C343.156 24 343.78 23.792 344.239 23.376C344.708 22.9493 344.943 22.4053 344.943 21.744C344.943 21.328 344.841 20.9547 344.639 20.624C344.447 20.2827 344.095 19.9787 343.583 19.712C343.081 19.4347 342.367 19.1733 341.439 18.928C339.988 18.5867 338.852 18.1707 338.031 17.68C337.22 17.1893 336.644 16.6293 336.303 16C335.972 15.3707 335.807 14.6827 335.807 13.936C335.807 12.5813 336.287 11.4987 337.247 10.688C338.207 9.87732 339.572 9.47198 341.343 9.47198C342.015 9.47198 342.564 9.53065 342.991 9.64799C343.428 9.76532 343.785 9.88799 344.063 10.016C344.351 10.1333 344.596 10.192 344.799 10.192C345.001 10.192 345.161 10.1333 345.279 10.016C345.407 9.88799 345.524 9.76532 345.631 9.64799C345.748 9.53065 345.897 9.47198 346.079 9.47198C346.207 9.47198 346.319 9.51465 346.415 9.59999C346.511 9.67465 346.591 9.81865 346.655 10.032L347.807 13.504C347.892 13.7707 347.919 13.9947 347.887 14.176C347.855 14.3467 347.743 14.4693 347.551 14.544C347.38 14.6187 347.225 14.6187 347.087 14.544C346.948 14.4693 346.82 14.3413 346.703 14.16C346.233 13.2533 345.721 12.5387 345.167 12.016C344.612 11.4933 344.025 11.12 343.407 10.896C342.799 10.672 342.164 10.56 341.503 10.56C340.5 10.56 339.748 10.7733 339.247 11.2C338.745 11.6267 338.495 12.1973 338.495 12.912C338.495 13.3387 338.601 13.728 338.815 14.08C339.028 14.432 339.417 14.7573 339.983 15.056C340.548 15.3547 341.348 15.6373 342.383 15.904C343.663 16.2133 344.681 16.592 345.439 17.04C346.196 17.488 346.74 18.0213 347.071 18.64C347.412 19.2587 347.583 19.984 347.583 20.816C347.583 21.648 347.369 22.3893 346.943 23.04C346.527 23.68 345.935 24.1813 345.167 24.544C344.409 24.9067 343.524 25.088 342.511 25.088C341.86 25.088 341.332 25.0187 340.927 24.88C340.521 24.7413 340.185 24.6027 339.919 24.464C339.652 24.3253 339.401 24.256 339.167 24.256C338.964 24.256 338.799 24.3253 338.671 24.464C338.543 24.592 338.42 24.7253 338.303 24.864C338.185 25.0133 338.041 25.088 337.871 25.088C337.753 25.088 337.652 25.0453 337.567 24.96C337.481 24.8747 337.423 24.7307 337.391 24.528L336.687 21.264C336.623 20.9227 336.607 20.672 336.639 20.512C336.671 20.3413 336.767 20.224 336.927 20.16C337.108 20.0853 337.263 20.096 337.391 20.192C337.529 20.2773 337.668 20.4427 337.807 20.688C338.436 21.872 339.14 22.72 339.919 23.232C340.708 23.744 341.524 24 342.367 24Z" fill="white"/>
<path d="M328.702 24C329.491 24 330.115 23.792 330.574 23.376C331.043 22.9493 331.278 22.4053 331.278 21.744C331.278 21.328 331.176 20.9547 330.974 20.624C330.782 20.2827 330.43 19.9787 329.918 19.712C329.416 19.4347 328.702 19.1733 327.774 18.928C326.323 18.5867 325.187 18.1707 324.366 17.68C323.555 17.1893 322.979 16.6293 322.638 16C322.307 15.3707 322.142 14.6827 322.142 13.936C322.142 12.5813 322.622 11.4987 323.582 10.688C324.542 9.87732 325.907 9.47198 327.678 9.47198C328.35 9.47198 328.899 9.53065 329.326 9.64799C329.763 9.76532 330.12 9.88799 330.398 10.016C330.686 10.1333 330.931 10.192 331.134 10.192C331.336 10.192 331.496 10.1333 331.614 10.016C331.742 9.88799 331.859 9.76532 331.966 9.64799C332.083 9.53065 332.232 9.47198 332.414 9.47198C332.542 9.47198 332.654 9.51465 332.75 9.59999C332.846 9.67465 332.926 9.81865 332.99 10.032L334.142 13.504C334.227 13.7707 334.254 13.9947 334.222 14.176C334.19 14.3467 334.078 14.4693 333.886 14.544C333.715 14.6187 333.56 14.6187 333.422 14.544C333.283 14.4693 333.155 14.3413 333.038 14.16C332.568 13.2533 332.056 12.5387 331.502 12.016C330.947 11.4933 330.36 11.12 329.742 10.896C329.134 10.672 328.499 10.56 327.838 10.56C326.835 10.56 326.083 10.7733 325.582 11.2C325.08 11.6267 324.83 12.1973 324.83 12.912C324.83 13.3387 324.936 13.728 325.15 14.08C325.363 14.432 325.752 14.7573 326.318 15.056C326.883 15.3547 327.683 15.6373 328.718 15.904C329.998 16.2133 331.016 16.592 331.774 17.04C332.531 17.488 333.075 18.0213 333.406 18.64C333.747 19.2587 333.918 19.984 333.918 20.816C333.918 21.648 333.704 22.3893 333.278 23.04C332.862 23.68 332.27 24.1813 331.502 24.544C330.744 24.9067 329.859 25.088 328.846 25.088C328.195 25.088 327.667 25.0187 327.262 24.88C326.856 24.7413 326.52 24.6027 326.254 24.464C325.987 24.3253 325.736 24.256 325.502 24.256C325.299 24.256 325.134 24.3253 325.006 24.464C324.878 24.592 324.755 24.7253 324.638 24.864C324.52 25.0133 324.376 25.088 324.206 25.088C324.088 25.088 323.987 25.0453 323.902 24.96C323.816 24.8747 323.758 24.7307 323.726 24.528L323.022 21.264C322.958 20.9227 322.942 20.672 322.974 20.512C323.006 20.3413 323.102 20.224 323.262 20.16C323.443 20.0853 323.598 20.096 323.726 20.192C323.864 20.2773 324.003 20.4427 324.142 20.688C324.771 21.872 325.475 22.72 326.254 23.232C327.043 23.744 327.859 24 328.702 24Z" fill="white"/>
<path d="M320.63 15.456C320.63 15.904 320.497 16.2507 320.23 16.496C319.963 16.7307 319.579 16.848 319.078 16.848H308.886V15.904H316.502C316.993 15.904 317.238 15.6853 317.238 15.248C317.238 13.7867 316.934 12.6507 316.326 11.84C315.718 11.0293 314.902 10.624 313.878 10.624C313.078 10.624 312.374 10.8587 311.766 11.328C311.158 11.7867 310.683 12.4427 310.342 13.296C310.001 14.1493 309.83 15.152 309.83 16.304C309.83 18.4373 310.331 20.0587 311.334 21.168C312.347 22.2667 313.67 22.816 315.302 22.816C316.358 22.816 317.27 22.5707 318.038 22.08C318.817 21.5893 319.361 20.9333 319.67 20.112C319.787 19.952 319.889 19.84 319.974 19.776C320.059 19.712 320.15 19.68 320.246 19.68C320.374 19.68 320.47 19.7387 320.534 19.856C320.598 19.9733 320.625 20.112 320.614 20.272C320.55 21.1573 320.235 21.968 319.67 22.704C319.105 23.4293 318.353 24.0107 317.414 24.448C316.475 24.8747 315.409 25.088 314.214 25.088C312.742 25.088 311.441 24.7787 310.31 24.16C309.19 23.5307 308.315 22.6507 307.686 21.52C307.067 20.3893 306.758 19.0667 306.758 17.552C306.758 15.9947 307.062 14.6133 307.67 13.408C308.289 12.192 309.163 11.232 310.294 10.528C311.425 9.82398 312.763 9.47198 314.31 9.47198C315.601 9.47198 316.715 9.72799 317.654 10.24C318.603 10.752 319.334 11.456 319.846 12.352C320.369 13.248 320.63 14.2827 320.63 15.456Z" fill="white"/>
<path d="M303.593 1.88799V22.656C303.593 22.9227 303.647 23.1253 303.753 23.264C303.86 23.4027 304.014 23.4987 304.217 23.552L304.969 23.712C305.14 23.7653 305.268 23.8347 305.353 23.92C305.438 24.0053 305.481 24.112 305.481 24.24C305.481 24.3893 305.428 24.5067 305.321 24.592C305.215 24.6773 305.044 24.72 304.809 24.72H299.017C298.804 24.72 298.644 24.6773 298.537 24.592C298.431 24.5067 298.377 24.3893 298.377 24.24C298.377 24.112 298.414 24.0053 298.489 23.92C298.574 23.8347 298.708 23.7707 298.889 23.728L299.673 23.552C299.876 23.4987 300.025 23.408 300.121 23.28C300.228 23.1413 300.281 22.9387 300.281 22.672V4.064C300.281 3.84 300.244 3.67999 300.169 3.58399C300.094 3.47733 299.972 3.41866 299.801 3.408L298.697 3.35999C298.527 3.33866 298.404 3.29066 298.329 3.21599C298.265 3.14133 298.233 3.05066 298.233 2.94399C298.233 2.81599 298.27 2.70933 298.345 2.62399C298.43 2.53866 298.585 2.45866 298.809 2.384L301.577 1.43999C301.897 1.32266 302.153 1.24266 302.345 1.2C302.537 1.14666 302.697 1.12 302.825 1.12C303.092 1.12 303.284 1.18933 303.401 1.328C303.529 1.46666 303.593 1.65333 303.593 1.88799Z" fill="white"/>
<path d="M291.309 22.176L291.229 22.064V4.064C291.229 3.84 291.192 3.67999 291.117 3.58399C291.043 3.47733 290.92 3.41866 290.749 3.408L289.645 3.35999C289.475 3.33866 289.352 3.29066 289.277 3.21599C289.213 3.14133 289.181 3.05066 289.181 2.94399C289.181 2.81599 289.219 2.70933 289.293 2.62399C289.379 2.53866 289.533 2.45866 289.757 2.384L292.525 1.43999C292.835 1.32266 293.085 1.24266 293.277 1.2C293.469 1.14666 293.645 1.12 293.805 1.12C294.051 1.12 294.237 1.18933 294.365 1.328C294.493 1.46666 294.557 1.65333 294.557 1.88799V22.656C294.557 22.9227 294.605 23.1253 294.701 23.264C294.808 23.4027 294.963 23.4987 295.165 23.552L295.917 23.712C296.099 23.7653 296.232 23.8347 296.317 23.92C296.403 24.0053 296.445 24.112 296.445 24.24C296.445 24.3893 296.387 24.5067 296.269 24.592C296.163 24.6773 295.997 24.72 295.773 24.72H292.797C292.349 24.72 291.987 24.592 291.709 24.336C291.443 24.08 291.309 23.7067 291.309 23.216V22.176ZM279.725 17.632C279.725 15.9573 280.051 14.512 280.701 13.296C281.363 12.0693 282.248 11.1253 283.357 10.464C284.477 9.80266 285.715 9.47199 287.069 9.47199C288.317 9.47199 289.427 9.77599 290.397 10.384C291.368 10.992 292.147 11.8507 292.733 12.96L291.997 13.696C291.475 12.768 290.835 12.0587 290.077 11.568C289.331 11.0773 288.515 10.832 287.629 10.832C286.797 10.832 286.045 11.0667 285.373 11.536C284.701 11.9947 284.168 12.6987 283.773 13.648C283.389 14.5973 283.197 15.7973 283.197 17.248C283.197 18.6133 283.384 19.7547 283.757 20.672C284.131 21.5787 284.637 22.2667 285.277 22.736C285.928 23.1947 286.664 23.424 287.485 23.424C288.317 23.424 289.112 23.184 289.869 22.704C290.627 22.224 291.32 21.4987 291.949 20.528L292.445 21.296C291.624 22.512 290.685 23.4507 289.629 24.112C288.573 24.7627 287.432 25.088 286.205 25.088C284.957 25.088 283.843 24.7733 282.861 24.144C281.891 23.504 281.123 22.624 280.557 21.504C280.003 20.384 279.725 19.0933 279.725 17.632Z" fill="white"/>
<path d="M266.622 10.352V22.656C266.622 22.9227 266.67 23.1253 266.766 23.264C266.873 23.4027 267.028 23.4987 267.23 23.552L267.982 23.728C268.292 23.824 268.446 23.984 268.446 24.208C268.446 24.5493 268.222 24.72 267.774 24.72H262.046C261.822 24.72 261.657 24.6773 261.55 24.592C261.444 24.5067 261.39 24.3893 261.39 24.24C261.39 24.112 261.433 24.0107 261.518 23.936C261.604 23.8507 261.732 23.7813 261.902 23.728L262.686 23.552C262.889 23.4987 263.044 23.408 263.15 23.28C263.257 23.1413 263.31 22.9387 263.31 22.672V12.528C263.31 12.304 263.273 12.144 263.198 12.048C263.124 11.952 262.996 11.8933 262.814 11.872L261.726 11.84C261.556 11.808 261.433 11.76 261.358 11.696C261.284 11.6213 261.246 11.5253 261.246 11.408C261.246 11.28 261.289 11.1787 261.374 11.104C261.46 11.0187 261.609 10.9387 261.822 10.864L264.606 9.90398C264.916 9.79732 265.166 9.72265 265.358 9.67999C265.55 9.62665 265.721 9.59999 265.87 9.59999C266.126 9.59999 266.313 9.66932 266.43 9.80799C266.558 9.93599 266.622 10.1173 266.622 10.352ZM266.19 13.712L265.614 13.12L266.302 12.528C267.54 11.4293 268.601 10.6453 269.486 10.176C270.382 9.70665 271.241 9.47198 272.062 9.47198C273.321 9.47198 274.292 9.88799 274.974 10.72C275.668 11.552 276.094 12.6827 276.254 14.112L277.262 22.592C277.294 22.88 277.358 23.104 277.454 23.264C277.561 23.4133 277.726 23.5147 277.95 23.568L278.638 23.728C278.809 23.7813 278.932 23.8507 279.006 23.936C279.092 24.0107 279.134 24.112 279.134 24.24C279.134 24.3893 279.081 24.5067 278.974 24.592C278.878 24.6773 278.718 24.72 278.494 24.72H272.718C272.26 24.72 272.03 24.5493 272.03 24.208C272.03 23.984 272.185 23.824 272.494 23.728L273.278 23.552C273.502 23.4987 273.673 23.3973 273.79 23.248C273.908 23.0987 273.95 22.88 273.918 22.592L272.942 14.608C272.814 13.552 272.542 12.7627 272.126 12.24C271.71 11.7067 271.102 11.44 270.302 11.44C269.801 11.44 269.268 11.5787 268.702 11.856C268.148 12.1333 267.534 12.5547 266.862 13.12L266.19 13.712Z" fill="white"/>
<path d="M254.76 22.992V21.856L254.68 21.776V12.544C254.68 12.32 254.642 12.16 254.568 12.064C254.493 11.9573 254.365 11.8986 254.184 11.888L253.096 11.84C252.925 11.8186 252.802 11.7706 252.728 11.696C252.653 11.6213 252.616 11.5306 252.616 11.424C252.616 11.296 252.658 11.1946 252.744 11.12C252.829 11.0346 252.978 10.9493 253.192 10.864L255.976 9.91998C256.285 9.80264 256.536 9.72264 256.728 9.67998C256.92 9.62664 257.09 9.59998 257.24 9.59998C257.496 9.59998 257.682 9.66931 257.8 9.80798C257.928 9.94664 257.992 10.1333 257.992 10.368V22.656C257.992 22.9226 258.04 23.1253 258.136 23.264C258.242 23.4026 258.397 23.4986 258.6 23.552L259.352 23.712C259.533 23.7653 259.666 23.8346 259.752 23.92C259.837 24.0053 259.88 24.112 259.88 24.24C259.88 24.3893 259.821 24.5066 259.704 24.592C259.597 24.6773 259.432 24.72 259.208 24.72H256.296C255.826 24.72 255.453 24.5706 255.176 24.272C254.898 23.9626 254.76 23.536 254.76 22.992ZM244.792 20.416V12.544C244.792 12.32 244.754 12.16 244.68 12.064C244.605 11.9573 244.477 11.8986 244.296 11.888L243.192 11.84C243.032 11.8186 242.914 11.7706 242.84 11.696C242.765 11.6213 242.728 11.5306 242.728 11.424C242.728 11.296 242.77 11.1946 242.856 11.12C242.941 11.0346 243.09 10.9493 243.304 10.864L246.088 9.91998C246.408 9.80264 246.664 9.72264 246.856 9.67998C247.048 9.62664 247.208 9.59998 247.336 9.59998C247.592 9.59998 247.784 9.66931 247.912 9.80798C248.04 9.94664 248.104 10.1333 248.104 10.368V19.92C248.104 20.9973 248.36 21.7973 248.872 22.32C249.394 22.8426 250.082 23.104 250.936 23.104C251.469 23.104 252.034 22.9706 252.632 22.704C253.24 22.4373 253.885 22.0106 254.568 21.424L255.24 20.848L255.816 21.424L255.128 22.016C253.88 23.1466 252.786 23.9413 251.848 24.4C250.92 24.848 250.029 25.072 249.176 25.072C247.864 25.072 246.802 24.656 245.992 23.824C245.192 22.992 244.792 21.856 244.792 20.416Z" fill="white"/>
<path d="M233.792 9.48798C235.328 9.48798 236.688 9.81864 237.872 10.48C239.056 11.1413 239.979 12.064 240.64 13.248C241.312 14.4213 241.648 15.776 241.648 17.312C241.648 18.8053 241.307 20.1386 240.624 21.312C239.952 22.4853 239.019 23.408 237.824 24.08C236.629 24.752 235.243 25.088 233.664 25.088C232.128 25.088 230.768 24.7573 229.584 24.096C228.411 23.424 227.488 22.5013 226.816 21.328C226.144 20.1546 225.808 18.8053 225.808 17.28C225.808 15.7653 226.144 14.4266 226.816 13.264C227.499 12.0906 228.437 11.168 229.632 10.496C230.827 9.82398 232.213 9.48798 233.792 9.48798ZM234.864 23.824C235.749 23.7066 236.469 23.3493 237.024 22.752C237.579 22.144 237.952 21.328 238.144 20.304C238.336 19.28 238.32 18.0746 238.096 16.688C237.872 15.28 237.499 14.112 236.976 13.184C236.453 12.256 235.819 11.584 235.072 11.168C234.325 10.752 233.499 10.608 232.592 10.736C231.707 10.864 230.987 11.2266 230.432 11.824C229.877 12.4213 229.504 13.232 229.312 14.256C229.131 15.28 229.152 16.4906 229.376 17.888C229.6 19.2853 229.973 20.448 230.496 21.376C231.019 22.304 231.653 22.976 232.4 23.392C233.147 23.808 233.968 23.952 234.864 23.824Z" fill="white"/>
<path d="M212.781 1.88799V22.8L211.261 24.64C210.931 24.8 210.685 24.9067 210.525 24.96C210.376 25.024 210.221 25.056 210.061 25.056C209.891 25.056 209.747 25.0027 209.629 24.896C209.523 24.7893 209.469 24.6293 209.469 24.416V4.064C209.469 3.84 209.432 3.67999 209.357 3.58399C209.283 3.47733 209.16 3.41866 208.989 3.408L207.885 3.35999C207.715 3.33866 207.592 3.29066 207.517 3.21599C207.453 3.14133 207.421 3.05066 207.421 2.94399C207.421 2.81599 207.459 2.70933 207.533 2.62399C207.619 2.53866 207.773 2.45866 207.997 2.384L210.765 1.43999C211.085 1.32266 211.336 1.24266 211.517 1.2C211.709 1.14666 211.875 1.12 212.013 1.12C212.28 1.12 212.472 1.18933 212.589 1.328C212.717 1.46666 212.781 1.65333 212.781 1.88799ZM212.061 14.032L211.581 13.264C212.403 12.048 213.336 11.1147 214.381 10.464C215.437 9.80266 216.584 9.47199 217.821 9.47199C219.069 9.47199 220.179 9.79199 221.149 10.432C222.131 11.0613 222.899 11.9413 223.453 13.072C224.019 14.192 224.301 15.4773 224.301 16.928C224.301 18.6027 223.971 20.048 223.309 21.264C222.659 22.48 221.779 23.424 220.669 24.096C219.56 24.7573 218.317 25.088 216.941 25.088C215.693 25.088 214.584 24.784 213.613 24.176C212.653 23.568 211.875 22.7093 211.277 21.6L212.013 20.864C212.547 21.8027 213.187 22.5173 213.933 23.008C214.691 23.488 215.507 23.728 216.381 23.728C217.213 23.728 217.965 23.4987 218.637 23.04C219.309 22.5707 219.837 21.8613 220.221 20.912C220.616 19.952 220.813 18.752 220.813 17.312C220.813 15.9467 220.627 14.8053 220.253 13.888C219.891 12.9707 219.384 12.2827 218.733 11.824C218.093 11.3547 217.363 11.12 216.541 11.12C215.709 11.12 214.909 11.36 214.141 11.84C213.384 12.32 212.691 13.0507 212.061 14.032Z" fill="white"/>
<path d="M192.448 25.328C191.296 25.328 190.256 25.1573 189.328 24.816C188.4 24.4747 187.531 23.9413 186.72 23.216C185.92 22.4907 185.131 21.5573 184.352 20.416C183.584 19.2747 182.944 18.1707 182.432 17.104C181.92 16.0373 181.531 14.9867 181.264 13.952C181.008 12.9173 180.88 11.8827 180.88 10.848C180.88 9.664 181.109 8.608 181.568 7.68C182.037 6.74133 182.704 6.00533 183.568 5.472C184.432 4.928 185.456 4.656 186.64 4.656C187.547 4.656 188.341 4.83733 189.024 5.2C189.707 5.56267 190.235 6.064 190.608 6.704C190.992 7.344 191.184 8.07467 191.184 8.896C191.184 9.93067 190.907 10.8373 190.352 11.616C189.808 12.3947 189.013 13.0293 187.968 13.52C186.923 14 185.659 14.304 184.176 14.432L184.032 13.776C184.939 13.648 185.712 13.376 186.352 12.96C187.003 12.544 187.499 11.9787 187.84 11.264C188.181 10.5387 188.352 9.66933 188.352 8.656C188.352 7.73867 188.176 6.992 187.824 6.416C187.483 5.84 187.029 5.552 186.464 5.552C185.685 5.552 185.051 5.92 184.56 6.656C184.069 7.38133 183.824 8.368 183.824 9.616C183.824 10.5867 183.952 11.5627 184.208 12.544C184.475 13.5147 184.859 14.5013 185.36 15.504C185.872 16.5067 186.485 17.5307 187.2 18.576C188.064 19.8133 188.848 20.8107 189.552 21.568C190.256 22.3147 190.944 22.8587 191.616 23.2C192.288 23.5413 192.992 23.712 193.728 23.712C194.763 23.712 195.691 23.456 196.512 22.944C197.344 22.4213 197.995 21.632 198.464 20.576C198.944 19.5093 199.184 18.1707 199.184 16.56C199.184 14.5653 198.843 12.6133 198.16 10.704C197.488 8.79467 196.384 7.04533 194.848 5.456C193.461 4.02667 191.888 2.928 190.128 2.16C188.368 1.38133 186.421 0.992001 184.288 0.992001C182.56 0.992001 181.136 1.232 180.016 1.712C178.896 2.192 178.064 2.832 177.52 3.632C176.976 4.42133 176.704 5.30133 176.704 6.272C176.704 6.688 176.757 7.04 176.864 7.328C176.981 7.616 177.115 7.87733 177.264 8.112C177.413 8.34667 177.547 8.59733 177.664 8.864C177.781 9.13067 177.84 9.46133 177.84 9.856C177.84 10.3147 177.675 10.6987 177.344 11.008C177.013 11.3067 176.592 11.456 176.08 11.456C175.429 11.456 174.917 11.1627 174.544 10.576C174.171 9.97867 173.984 9.20533 173.984 8.256C173.984 6.57067 174.395 5.11467 175.216 3.888C176.048 2.65067 177.237 1.696 178.784 1.024C180.331 0.341333 182.187 0 184.352 0C186.603 0 188.677 0.405333 190.576 1.216C192.485 2.016 194.187 3.184 195.68 4.72C197.248 6.30933 198.411 8.10667 199.168 10.112C199.936 12.1173 200.32 14.2347 200.32 16.464C200.32 18.3627 200 19.9733 199.36 21.296C198.731 22.6187 197.829 23.6213 196.656 24.304C195.483 24.9867 194.08 25.328 192.448 25.328ZM188.88 21.536C189.659 20.96 190.277 20.416 190.736 19.904C191.205 19.3813 191.541 18.8853 191.744 18.416C191.957 17.9467 192.064 17.4933 192.064 17.056C192.064 16.704 192.016 16.4053 191.92 16.16C191.835 15.9147 191.744 15.68 191.648 15.456C191.552 15.232 191.504 14.976 191.504 14.688C191.504 14.2187 191.653 13.824 191.952 13.504C192.251 13.1733 192.64 13.008 193.12 13.008C193.611 13.008 194.005 13.2053 194.304 13.6C194.613 13.9947 194.768 14.5387 194.768 15.232C194.768 16.4907 194.32 17.7013 193.424 18.864C192.539 20.016 191.179 21.088 189.344 22.08L188.88 21.536ZM181.92 14.72C180.928 14.88 180.112 15.1893 179.472 15.648C178.832 16.1067 178.357 16.6667 178.048 17.328C177.749 17.9787 177.6 18.688 177.6 19.456C177.6 20.7573 177.973 21.7973 178.72 22.576C179.467 23.344 180.443 23.728 181.648 23.728C182.533 23.728 183.323 23.5787 184.016 23.28C184.709 22.9813 185.387 22.5707 186.048 22.048L186.608 22.768C186.032 23.2693 185.419 23.7013 184.768 24.064C184.117 24.4267 183.397 24.704 182.608 24.896C181.829 25.0987 180.949 25.2 179.968 25.2C178.08 25.2 176.608 24.7573 175.552 23.872C174.507 22.9867 173.984 21.7547 173.984 20.176C173.984 19.0667 174.277 18.0693 174.864 17.184C175.461 16.2987 176.347 15.5787 177.52 15.024C178.693 14.4587 180.16 14.1013 181.92 13.952V14.72Z" fill="white"/>
<path d="M153.561 10.352V22.656C153.561 22.9227 153.609 23.1253 153.705 23.264C153.812 23.4027 153.966 23.4987 154.169 23.552L154.921 23.728C155.23 23.824 155.385 23.984 155.385 24.208C155.385 24.5493 155.161 24.72 154.713 24.72H148.985C148.761 24.72 148.596 24.6773 148.489 24.592C148.382 24.5067 148.329 24.3893 148.329 24.24C148.329 24.112 148.372 24.0107 148.457 23.936C148.542 23.8507 148.67 23.7813 148.841 23.728L149.625 23.552C149.828 23.4987 149.982 23.408 150.089 23.28C150.196 23.1413 150.249 22.9387 150.249 22.672V12.528C150.249 12.304 150.212 12.144 150.137 12.048C150.062 11.952 149.934 11.8933 149.753 11.872L148.665 11.84C148.494 11.808 148.372 11.76 148.297 11.696C148.222 11.6213 148.185 11.5253 148.185 11.408C148.185 11.28 148.228 11.1787 148.313 11.104C148.398 11.0187 148.548 10.9387 148.761 10.864L151.545 9.90398C151.854 9.79732 152.105 9.72265 152.297 9.67999C152.489 9.62665 152.66 9.59999 152.809 9.59999C153.065 9.59999 153.252 9.66932 153.369 9.80799C153.497 9.93599 153.561 10.1173 153.561 10.352ZM153.129 13.712L152.553 13.12L153.241 12.528C154.478 11.4293 155.54 10.6453 156.425 10.176C157.321 9.70665 158.18 9.47198 159.001 9.47198C160.26 9.47198 161.23 9.88799 161.913 10.72C162.606 11.552 163.033 12.6827 163.193 14.112L164.201 22.592C164.233 22.88 164.297 23.104 164.393 23.264C164.5 23.4133 164.665 23.5147 164.889 23.568L165.577 23.728C165.748 23.7813 165.87 23.8507 165.945 23.936C166.03 24.0107 166.073 24.112 166.073 24.24C166.073 24.3893 166.02 24.5067 165.913 24.592C165.817 24.6773 165.657 24.72 165.433 24.72H159.657C159.198 24.72 158.969 24.5493 158.969 24.208C158.969 23.984 159.124 23.824 159.433 23.728L160.217 23.552C160.441 23.4987 160.612 23.3973 160.729 23.248C160.846 23.0987 160.889 22.88 160.857 22.592L159.881 14.608C159.753 13.552 159.481 12.7627 159.065 12.24C158.649 11.7067 158.041 11.44 157.241 11.44C156.74 11.44 156.206 11.5787 155.641 11.856C155.086 12.1333 154.473 12.5547 153.801 13.12L153.129 13.712Z" fill="white"/>
<path d="M138.833 9.48798C140.369 9.48798 141.729 9.81864 142.913 10.48C144.097 11.1413 145.02 12.064 145.681 13.248C146.353 14.4213 146.689 15.776 146.689 17.312C146.689 18.8053 146.348 20.1386 145.665 21.312C144.993 22.4853 144.06 23.408 142.865 24.08C141.671 24.752 140.284 25.088 138.705 25.088C137.169 25.088 135.809 24.7573 134.625 24.096C133.452 23.424 132.529 22.5013 131.857 21.328C131.185 20.1546 130.849 18.8053 130.849 17.28C130.849 15.7653 131.185 14.4266 131.857 13.264C132.54 12.0906 133.479 11.168 134.673 10.496C135.868 9.82398 137.255 9.48798 138.833 9.48798ZM139.905 23.824C140.791 23.7066 141.511 23.3493 142.065 22.752C142.62 22.144 142.993 21.328 143.185 20.304C143.377 19.28 143.361 18.0746 143.137 16.688C142.913 15.28 142.54 14.112 142.017 13.184C141.495 12.256 140.86 11.584 140.113 11.168C139.367 10.752 138.54 10.608 137.633 10.736C136.748 10.864 136.028 11.2266 135.473 11.824C134.919 12.4213 134.545 13.232 134.353 14.256C134.172 15.28 134.193 16.4906 134.417 17.888C134.641 19.2853 135.015 20.448 135.537 21.376C136.06 22.304 136.695 22.976 137.441 23.392C138.188 23.808 139.009 23.952 139.905 23.824Z" fill="white"/>
<path d="M127.778 10.352V22.656C127.778 22.9226 127.826 23.1253 127.922 23.264C128.029 23.4026 128.184 23.4986 128.386 23.552L129.138 23.712C129.32 23.7653 129.453 23.8346 129.538 23.92C129.624 24.0053 129.666 24.112 129.666 24.24C129.666 24.3893 129.608 24.5066 129.49 24.592C129.384 24.6773 129.218 24.72 128.994 24.72H123.202C122.978 24.72 122.813 24.6773 122.706 24.592C122.6 24.5066 122.546 24.3893 122.546 24.24C122.546 24.112 122.589 24.0106 122.674 23.936C122.76 23.8506 122.888 23.7813 123.058 23.728L123.842 23.552C124.045 23.4986 124.194 23.408 124.29 23.28C124.397 23.1413 124.45 22.9386 124.45 22.672V12.528C124.45 12.304 124.413 12.144 124.338 12.048C124.264 11.952 124.141 11.8933 123.97 11.872L122.866 11.84C122.706 11.808 122.589 11.76 122.514 11.696C122.44 11.6213 122.402 11.5253 122.402 11.408C122.402 11.28 122.445 11.1786 122.53 11.104C122.616 11.0186 122.765 10.9386 122.978 10.864L125.762 9.90396C126.082 9.78663 126.333 9.70663 126.514 9.66396C126.706 9.6213 126.872 9.59996 127.01 9.59996C127.266 9.59996 127.458 9.6693 127.586 9.80796C127.714 9.93596 127.778 10.1173 127.778 10.352ZM125.794 6.65596C125.112 6.65596 124.562 6.4693 124.146 6.09596C123.73 5.71196 123.522 5.22663 123.522 4.63996C123.522 4.04263 123.73 3.55729 124.146 3.18396C124.573 2.81063 125.122 2.62396 125.794 2.62396C126.466 2.62396 127.016 2.81596 127.442 3.19996C127.869 3.5733 128.082 4.0533 128.082 4.63996C128.082 5.22663 127.869 5.71196 127.442 6.09596C127.016 6.4693 126.466 6.65596 125.794 6.65596Z" fill="white"/>
<path d="M115.329 24C116.119 24 116.743 23.792 117.201 23.376C117.671 22.9493 117.905 22.4053 117.905 21.744C117.905 21.328 117.804 20.9547 117.601 20.624C117.409 20.2827 117.057 19.9787 116.545 19.712C116.044 19.4347 115.329 19.1733 114.401 18.928C112.951 18.5867 111.815 18.1707 110.993 17.68C110.183 17.1893 109.607 16.6293 109.265 16C108.935 15.3707 108.769 14.6827 108.769 13.936C108.769 12.5813 109.249 11.4987 110.209 10.688C111.169 9.87732 112.535 9.47198 114.305 9.47198C114.977 9.47198 115.527 9.53065 115.953 9.64799C116.391 9.76532 116.748 9.88799 117.025 10.016C117.313 10.1333 117.559 10.192 117.761 10.192C117.964 10.192 118.124 10.1333 118.241 10.016C118.369 9.88799 118.487 9.76532 118.593 9.64799C118.711 9.53065 118.86 9.47198 119.041 9.47198C119.169 9.47198 119.281 9.51465 119.377 9.59999C119.473 9.67465 119.553 9.81865 119.617 10.032L120.769 13.504C120.855 13.7707 120.881 13.9947 120.849 14.176C120.817 14.3467 120.705 14.4693 120.513 14.544C120.343 14.6187 120.188 14.6187 120.049 14.544C119.911 14.4693 119.783 14.3413 119.665 14.16C119.196 13.2533 118.684 12.5387 118.129 12.016C117.575 11.4933 116.988 11.12 116.369 10.896C115.761 10.672 115.127 10.56 114.465 10.56C113.463 10.56 112.711 10.7733 112.209 11.2C111.708 11.6267 111.457 12.1973 111.457 12.912C111.457 13.3387 111.564 13.728 111.777 14.08C111.991 14.432 112.38 14.7573 112.945 15.056C113.511 15.3547 114.311 15.6373 115.345 15.904C116.625 16.2133 117.644 16.592 118.401 17.04C119.159 17.488 119.703 18.0213 120.033 18.64C120.375 19.2587 120.545 19.984 120.545 20.816C120.545 21.648 120.332 22.3893 119.905 23.04C119.489 23.68 118.897 24.1813 118.129 24.544C117.372 24.9067 116.487 25.088 115.473 25.088C114.823 25.088 114.295 25.0187 113.889 24.88C113.484 24.7413 113.148 24.6027 112.881 24.464C112.615 24.3253 112.364 24.256 112.129 24.256C111.927 24.256 111.761 24.3253 111.633 24.464C111.505 24.592 111.383 24.7253 111.265 24.864C111.148 25.0133 111.004 25.088 110.833 25.088C110.716 25.088 110.615 25.0453 110.529 24.96C110.444 24.8747 110.385 24.7307 110.353 24.528L109.649 21.264C109.585 20.9227 109.569 20.672 109.601 20.512C109.633 20.3413 109.729 20.224 109.889 20.16C110.071 20.0853 110.225 20.096 110.353 20.192C110.492 20.2773 110.631 20.4427 110.769 20.688C111.399 21.872 112.103 22.72 112.881 23.232C113.671 23.744 114.487 24 115.329 24Z" fill="white"/>
<path d="M101.664 24C102.454 24 103.078 23.792 103.536 23.376C104.006 22.9493 104.24 22.4053 104.24 21.744C104.24 21.328 104.139 20.9547 103.936 20.624C103.744 20.2827 103.392 19.9787 102.88 19.712C102.379 19.4347 101.664 19.1733 100.736 18.928C99.2856 18.5867 98.1496 18.1707 97.3282 17.68C96.5176 17.1893 95.9416 16.6293 95.6003 16C95.2696 15.3707 95.1042 14.6827 95.1042 13.936C95.1042 12.5813 95.5843 11.4987 96.5443 10.688C97.5043 9.87732 98.8696 9.47198 100.64 9.47198C101.312 9.47198 101.862 9.53065 102.288 9.64799C102.726 9.76532 103.083 9.88799 103.36 10.016C103.648 10.1333 103.894 10.192 104.096 10.192C104.299 10.192 104.459 10.1333 104.576 10.016C104.704 9.88799 104.822 9.76532 104.928 9.64799C105.046 9.53065 105.195 9.47198 105.376 9.47198C105.504 9.47198 105.616 9.51465 105.712 9.59999C105.808 9.67465 105.888 9.81865 105.952 10.032L107.104 13.504C107.19 13.7707 107.216 13.9947 107.184 14.176C107.152 14.3467 107.04 14.4693 106.848 14.544C106.678 14.6187 106.523 14.6187 106.384 14.544C106.246 14.4693 106.118 14.3413 106 14.16C105.531 13.2533 105.019 12.5387 104.464 12.016C103.91 11.4933 103.323 11.12 102.704 10.896C102.096 10.672 101.462 10.56 100.8 10.56C99.7976 10.56 99.0456 10.7733 98.5443 11.2C98.0429 11.6267 97.7922 12.1973 97.7922 12.912C97.7922 13.3387 97.8989 13.728 98.1122 14.08C98.3256 14.432 98.7149 14.7573 99.2803 15.056C99.8456 15.3547 100.646 15.6373 101.68 15.904C102.96 16.2133 103.979 16.592 104.736 17.04C105.494 17.488 106.038 18.0213 106.368 18.64C106.71 19.2587 106.88 19.984 106.88 20.816C106.88 21.648 106.667 22.3893 106.24 23.04C105.824 23.68 105.232 24.1813 104.464 24.544C103.707 24.9067 102.822 25.088 101.808 25.088C101.158 25.088 100.63 25.0187 100.224 24.88C99.8189 24.7413 99.4829 24.6027 99.2162 24.464C98.9496 24.3253 98.6989 24.256 98.4642 24.256C98.2616 24.256 98.0962 24.3253 97.9682 24.464C97.8402 24.592 97.7176 24.7253 97.6003 24.864C97.4829 25.0133 97.3389 25.088 97.1682 25.088C97.0509 25.088 96.9496 25.0453 96.8643 24.96C96.7789 24.8747 96.7202 24.7307 96.6882 24.528L95.9842 21.264C95.9202 20.9227 95.9042 20.672 95.9362 20.512C95.9682 20.3413 96.0642 20.224 96.2242 20.16C96.4056 20.0853 96.5602 20.096 96.6882 20.192C96.8269 20.2773 96.9656 20.4427 97.1042 20.688C97.7336 21.872 98.4376 22.72 99.2162 23.232C100.006 23.744 100.822 24 101.664 24Z" fill="white"/>
<path d="M88.7602 22.8V22.512L88.5682 22.432V13.248C88.5682 12.32 88.3388 11.6106 87.8802 11.12C87.4322 10.6186 86.7868 10.368 85.9442 10.368C85.1335 10.368 84.5255 10.5386 84.1202 10.88C83.7148 11.2213 83.5122 11.6266 83.5122 12.096V13.328C83.5122 13.84 83.3468 14.2346 83.0162 14.512C82.6855 14.7893 82.2268 14.928 81.6402 14.928C81.1495 14.928 80.7655 14.7946 80.4882 14.528C80.2215 14.2613 80.0882 13.904 80.0882 13.456C80.0882 12.8053 80.3388 12.1813 80.8402 11.584C81.3415 10.976 82.0722 10.4746 83.0322 10.08C83.9922 9.68531 85.1602 9.48798 86.5362 9.48798C88.3282 9.48798 89.6615 9.87731 90.5362 10.656C91.4215 11.424 91.8642 12.4586 91.8642 13.76V22.4C91.8642 22.752 91.9282 23.0133 92.0562 23.184C92.1948 23.344 92.3762 23.424 92.6002 23.424C92.8562 23.424 93.0428 23.3653 93.1602 23.248C93.2882 23.12 93.3895 22.992 93.4642 22.864C93.5175 22.8 93.5655 22.7466 93.6082 22.704C93.6615 22.6506 93.7308 22.624 93.8162 22.624C93.9122 22.624 93.9815 22.6613 94.0242 22.736C94.0775 22.8106 94.1042 22.912 94.1042 23.04C94.1042 23.328 94.0028 23.632 93.8002 23.952C93.5975 24.2613 93.2935 24.5226 92.8882 24.736C92.4935 24.96 91.9975 25.072 91.4002 25.072C90.5788 25.072 89.9335 24.88 89.4642 24.496C88.9948 24.1013 88.7602 23.536 88.7602 22.8ZM79.3682 21.424C79.3682 20.176 79.9175 19.1573 81.0162 18.368C82.1255 17.568 83.6775 17.168 85.6722 17.168C86.3975 17.168 87.0588 17.2373 87.6562 17.376C88.2535 17.504 88.7815 17.6746 89.2402 17.888L89.0002 18.672C88.5628 18.48 88.1095 18.3253 87.6402 18.208C87.1815 18.0906 86.6748 18.032 86.1202 18.032C85.0748 18.032 84.2588 18.288 83.6722 18.8C83.0855 19.3013 82.7922 19.9946 82.7922 20.88C82.7922 21.744 83.0322 22.4106 83.5122 22.88C84.0028 23.3386 84.6268 23.568 85.3842 23.568C86.0775 23.568 86.7442 23.4133 87.3842 23.104C88.0348 22.784 88.5948 22.336 89.0642 21.76L89.3682 22.432C88.7602 23.2746 87.9655 23.9306 86.9842 24.4C86.0135 24.8586 84.9788 25.088 83.8802 25.088C82.5468 25.088 81.4588 24.7573 80.6162 24.096C79.7842 23.424 79.3682 22.5333 79.3682 21.424Z" fill="white"/>
<path d="M65.8746 10.336V12.336L65.9866 12.592V30.112C65.9866 30.3893 66.0346 30.5973 66.1306 30.736C66.2373 30.8747 66.3919 30.9653 66.5946 31.008L67.6986 31.184C67.8799 31.2267 68.0133 31.2907 68.0986 31.376C68.1839 31.4613 68.2266 31.568 68.2266 31.696C68.2266 31.8453 68.1733 31.9627 68.0666 32.048C67.9599 32.1333 67.7893 32.176 67.5546 32.176H61.4426C61.2186 32.176 61.0533 32.1333 60.9466 32.048C60.8399 31.9627 60.7866 31.8453 60.7866 31.696C60.7866 31.5787 60.8293 31.4773 60.9146 31.392C60.9999 31.3067 61.1279 31.2373 61.2986 31.184L62.0506 31.024C62.2533 30.9707 62.4079 30.8747 62.5146 30.736C62.6213 30.5973 62.6746 30.3947 62.6746 30.128V12.512C62.6746 12.288 62.6373 12.128 62.5626 12.032C62.4879 11.936 62.3599 11.8773 62.1786 11.856L61.0906 11.808C60.9199 11.7867 60.7973 11.744 60.7226 11.68C60.6479 11.6053 60.6106 11.5093 60.6106 11.392C60.6106 11.264 60.6533 11.1627 60.7386 11.088C60.8239 11.0133 60.9733 10.9333 61.1866 10.848L63.8586 9.88799C64.1573 9.77065 64.4026 9.69065 64.5946 9.64799C64.7866 9.60532 64.9573 9.58399 65.1066 9.58399C65.3626 9.58399 65.5546 9.65332 65.6826 9.79198C65.8106 9.91998 65.8746 10.1013 65.8746 10.336ZM65.2666 14.048L64.7706 13.28C65.5919 12.0747 66.5306 11.1413 67.5866 10.48C68.6426 9.80798 69.7946 9.47198 71.0426 9.47198C72.2906 9.47198 73.3999 9.79198 74.3706 10.432C75.3413 11.0613 76.1039 11.9413 76.6586 13.072C77.2239 14.192 77.5066 15.4773 77.5066 16.928C77.5066 18.6027 77.1813 20.0533 76.5306 21.28C75.8799 22.496 74.9999 23.4347 73.8906 24.096C72.7813 24.7573 71.5439 25.088 70.1786 25.088C68.9306 25.088 67.8213 24.7893 66.8506 24.192C65.8906 23.584 65.1119 22.7147 64.5146 21.584L65.2506 20.848C65.7839 21.7867 66.4239 22.5013 67.1706 22.992C67.9173 23.4827 68.7226 23.728 69.5866 23.728C70.4293 23.728 71.1866 23.4987 71.8586 23.04C72.5306 22.5707 73.0586 21.8613 73.4426 20.912C73.8373 19.9627 74.0346 18.768 74.0346 17.328C74.0346 15.952 73.8479 14.8053 73.4746 13.888C73.1013 12.9707 72.5893 12.2827 71.9386 11.824C71.2986 11.3547 70.5679 11.12 69.7466 11.12C68.9146 11.12 68.1146 11.3653 67.3466 11.856C66.5893 12.336 65.8959 13.0667 65.2666 14.048Z" fill="white"/>
<path d="M37.906 10.352V22.656C37.906 22.9227 37.9594 23.1253 38.066 23.264C38.1727 23.4027 38.322 23.4987 38.514 23.552L39.266 23.728C39.5754 23.824 39.73 23.984 39.73 24.208C39.73 24.5493 39.5007 24.72 39.042 24.72H33.33C33.106 24.72 32.9407 24.6773 32.834 24.592C32.7274 24.5067 32.674 24.3893 32.674 24.24C32.674 24.112 32.7167 24.0107 32.802 23.936C32.8874 23.8507 33.0154 23.7813 33.186 23.728L33.97 23.552C34.1727 23.4987 34.3274 23.408 34.434 23.28C34.5407 23.1413 34.594 22.9387 34.594 22.672V12.528C34.594 12.3147 34.5567 12.16 34.482 12.064C34.4074 11.9573 34.2794 11.8933 34.098 11.872L32.994 11.84C32.834 11.808 32.7167 11.76 32.642 11.696C32.5674 11.6213 32.53 11.5253 32.53 11.408C32.53 11.28 32.5727 11.1787 32.658 11.104C32.7434 11.0187 32.8927 10.9387 33.106 10.864L35.89 9.90398C36.1994 9.79732 36.45 9.72265 36.642 9.67999C36.834 9.62665 37.0047 9.59999 37.154 9.59999C37.41 9.59999 37.5967 9.66932 37.714 9.80799C37.842 9.93599 37.906 10.1173 37.906 10.352ZM37.474 13.712L36.898 13.136L37.586 12.528C38.8447 11.3973 39.938 10.608 40.866 10.16C41.794 9.70132 42.69 9.47198 43.554 9.47198C44.8767 9.47198 45.938 9.88799 46.738 10.72C47.538 11.552 47.938 12.6933 47.938 14.144V22.592C47.938 22.8907 47.9967 23.1147 48.114 23.264C48.2314 23.4027 48.3967 23.504 48.61 23.568L49.282 23.728C49.5807 23.8347 49.73 23.9947 49.73 24.208C49.73 24.5493 49.5114 24.72 49.074 24.72H43.426C42.978 24.72 42.754 24.5493 42.754 24.208C42.754 23.984 42.9087 23.824 43.218 23.728L43.986 23.568C44.21 23.504 44.37 23.3973 44.466 23.248C44.5727 23.088 44.626 22.864 44.626 22.576V14.624C44.626 13.5573 44.3647 12.7627 43.842 12.24C43.33 11.7067 42.642 11.44 41.778 11.44C41.2447 11.44 40.674 11.5733 40.066 11.84C39.4687 12.1067 38.8287 12.5333 38.146 13.12L37.474 13.712ZM47.49 13.712L46.914 13.136L47.586 12.528C48.802 11.4293 49.8474 10.6453 50.722 10.176C51.6074 9.70665 52.4607 9.47198 53.282 9.47198C54.5407 9.47198 55.5167 9.89332 56.21 10.736C56.914 11.568 57.346 12.704 57.506 14.144L58.514 22.592C58.546 22.8907 58.61 23.1147 58.706 23.264C58.8127 23.4133 58.9727 23.5147 59.186 23.568L59.874 23.728C60.034 23.7813 60.1567 23.8507 60.242 23.936C60.3274 24.0107 60.37 24.112 60.37 24.24C60.37 24.3893 60.3167 24.5067 60.21 24.592C60.1034 24.6773 59.938 24.72 59.714 24.72H53.954C53.506 24.72 53.282 24.5493 53.282 24.208C53.282 23.984 53.4314 23.824 53.73 23.728L54.514 23.568C54.738 23.504 54.9087 23.3973 55.026 23.248C55.1434 23.088 55.186 22.864 55.154 22.576L54.194 14.624C54.066 13.568 53.7887 12.7733 53.362 12.24C52.946 11.7067 52.3327 11.44 51.522 11.44C51.0314 11.44 50.5087 11.584 49.954 11.872C49.41 12.1493 48.8127 12.5653 48.162 13.12L47.49 13.712Z" fill="white"/>
<path d="M23.1783 9.48798C24.7143 9.48798 26.0743 9.81864 27.2583 10.48C28.4423 11.1413 29.365 12.064 30.0263 13.248C30.6983 14.4213 31.0343 15.776 31.0343 17.312C31.0343 18.8053 30.693 20.1386 30.0103 21.312C29.3383 22.4853 28.405 23.408 27.2103 24.08C26.0157 24.752 24.629 25.088 23.0503 25.088C21.5143 25.088 20.1543 24.7573 18.9703 24.096C17.797 23.424 16.8743 22.5013 16.2023 21.328C15.5303 20.1546 15.1943 18.8053 15.1943 17.28C15.1943 15.7653 15.5303 14.4266 16.2023 13.264C16.885 12.0906 17.8237 11.168 19.0183 10.496C20.213 9.82398 21.5997 9.48798 23.1783 9.48798ZM24.2503 23.824C25.1357 23.7066 25.8557 23.3493 26.4103 22.752C26.965 22.144 27.3383 21.328 27.5303 20.304C27.7223 19.28 27.7063 18.0746 27.4823 16.688C27.2583 15.28 26.885 14.112 26.3623 13.184C25.8397 12.256 25.205 11.584 24.4583 11.168C23.7117 10.752 22.885 10.608 21.9783 10.736C21.093 10.864 20.373 11.2266 19.8183 11.824C19.2637 12.4213 18.8903 13.232 18.6983 14.256C18.517 15.28 18.5383 16.4906 18.7623 17.888C18.9863 19.2853 19.3597 20.448 19.8823 21.376C20.405 22.304 21.0397 22.976 21.7863 23.392C22.533 23.808 23.3543 23.952 24.2503 23.824Z" fill="white"/>
<path d="M13.8479 13.568C13.8479 14.0693 13.6826 14.4853 13.3519 14.816C13.0319 15.1467 12.6053 15.312 12.0719 15.312C11.5492 15.312 11.1386 15.1627 10.8399 14.864C10.5519 14.5547 10.4079 14.1493 10.4079 13.648V13.104C10.4079 12.368 10.1519 11.7707 9.63992 11.312C9.12792 10.8533 8.42392 10.624 7.52792 10.624C6.71725 10.624 5.99192 10.8587 5.35192 11.328C4.72258 11.7973 4.22658 12.4587 3.86392 13.312C3.51192 14.1547 3.33592 15.152 3.33592 16.304C3.33592 17.6907 3.57058 18.8693 4.03992 19.84C4.50925 20.8 5.15458 21.5307 5.97592 22.032C6.79725 22.5333 7.73058 22.784 8.77592 22.784C9.78925 22.784 10.6639 22.5493 11.3999 22.08C12.1466 21.6107 12.6799 20.976 12.9999 20.176C13.1173 20.016 13.2186 19.9093 13.3039 19.856C13.3893 19.792 13.4853 19.76 13.5919 19.76C13.7199 19.76 13.8106 19.8187 13.8639 19.936C13.9279 20.0427 13.9546 20.1707 13.9439 20.32C13.8586 21.2053 13.5386 22.0107 12.9839 22.736C12.4292 23.4613 11.6986 24.0373 10.7919 24.464C9.88525 24.88 8.85058 25.088 7.68792 25.088C6.22658 25.088 4.93592 24.7787 3.81592 24.16C2.70658 23.5413 1.83725 22.6667 1.20792 21.536C0.578583 20.4053 0.263916 19.072 0.263916 17.536C0.263916 16.0213 0.583916 14.656 1.22392 13.44C1.86392 12.224 2.75992 11.2587 3.91192 10.544C5.07458 9.82932 6.43458 9.47198 7.99192 9.47198C9.19725 9.47198 10.2372 9.66398 11.1119 10.048C11.9972 10.4213 12.6746 10.9173 13.1439 11.536C13.6133 12.1547 13.8479 12.832 13.8479 13.568Z" fill="white"/>
</svg>
