<svg width="918" height="113" viewBox="0 0 918 113" fill="none" xmlns="http://www.w3.org/2000/svg">
<path d="M62.7963 72.2C61.5163 76.04 59.5963 79.304 57.0363 81.992C54.4763 84.616 51.4683 86.6 48.0123 87.944C44.5563 89.288 40.7483 89.96 36.5883 89.96C30.5083 89.96 25.2283 88.648 20.7483 86.024C16.2683 83.4 12.8123 79.656 10.3803 74.792C7.94825 69.928 6.73225 64.104 6.73225 57.32C6.73225 50.536 7.94825 44.712 10.3803 39.848C12.8123 34.984 16.2683 31.24 20.7483 28.616C25.2283 25.992 30.4763 24.68 36.4923 24.68C40.6523 24.68 44.3963 25.256 47.7243 26.408C51.1163 27.56 53.9963 29.288 56.3643 31.592C58.7323 33.896 60.5563 36.776 61.8363 40.232L52.1403 44.552C50.8603 40.776 49.0043 38.024 46.5723 36.296C44.1403 34.504 40.9723 33.608 37.0683 33.608C33.1643 33.608 29.7403 34.536 26.7963 36.392C23.8523 38.248 21.5483 40.936 19.8843 44.456C18.2843 47.976 17.4843 52.264 17.4843 57.32C17.4843 62.312 18.2523 66.6 19.7883 70.184C21.3243 73.704 23.5323 76.392 26.4123 78.248C29.2923 80.104 32.7483 81.032 36.7803 81.032C40.6843 81.032 44.0443 80.04 46.8603 78.056C49.7403 76.008 51.7883 72.968 53.0043 68.936L62.7963 72.2ZM91.4613 40.04C96.1333 40.04 100.261 41.032 103.845 43.016C107.429 45 110.213 47.88 112.197 51.656C114.245 55.368 115.269 59.816 115.269 65C115.269 70.184 114.245 74.664 112.197 78.44C110.213 82.152 107.429 85 103.845 86.984C100.261 88.968 96.1333 89.96 91.4613 89.96C86.7893 89.96 82.6613 88.968 79.0773 86.984C75.4933 85 72.6773 82.152 70.6293 78.44C68.5813 74.664 67.5573 70.184 67.5573 65C67.5573 59.816 68.5813 55.368 70.6293 51.656C72.6773 47.88 75.4933 45 79.0773 43.016C82.6613 41.032 86.7893 40.04 91.4613 40.04ZM91.4613 48.104C88.5813 48.104 86.1173 48.776 84.0693 50.12C82.0853 51.4 80.5493 53.288 79.4613 55.784C78.3733 58.28 77.8293 61.352 77.8293 65C77.8293 68.584 78.3733 71.656 79.4613 74.216C80.5493 76.712 82.0853 78.632 84.0693 79.976C86.1173 81.256 88.5813 81.896 91.4613 81.896C94.3413 81.896 96.7733 81.256 98.7573 79.976C100.741 78.632 102.277 76.712 103.365 74.216C104.453 71.656 104.997 68.584 104.997 65C104.997 61.352 104.453 58.28 103.365 55.784C102.277 53.288 100.741 51.4 98.7573 50.12C96.7733 48.776 94.3413 48.104 91.4613 48.104ZM124.928 89V41H129.248L129.632 53L128.864 52.328C129.76 49.704 131.104 47.496 132.896 45.704C134.688 43.848 136.832 42.44 139.328 41.48C141.824 40.52 144.512 40.04 147.392 40.04C150.976 40.04 154.144 40.712 156.896 42.056C159.648 43.4 161.792 45.384 163.328 48.008C164.928 50.632 165.728 53.928 165.728 57.896V89H160.928V59.432C160.928 54.184 159.616 50.344 156.992 47.912C154.432 45.48 151.072 44.264 146.912 44.264C143.904 44.264 141.088 44.968 138.464 46.376C135.904 47.72 133.792 49.704 132.128 52.328C130.528 54.952 129.728 58.152 129.728 61.928V89H124.928ZM195.281 18.44C197.009 18.44 198.545 18.664 199.889 19.112C201.233 19.56 202.289 20.2 203.057 21.032L201.713 24.872C200.881 24.104 199.985 23.56 199.025 23.24C198.065 22.92 196.945 22.76 195.665 22.76C192.529 22.76 190.097 23.656 188.369 25.448C186.641 27.24 185.777 29.896 185.777 33.416V41V42.728V89H180.977V32.936C180.977 30.76 181.265 28.776 181.841 26.984C182.481 25.192 183.409 23.688 184.625 22.472C185.841 21.192 187.345 20.2 189.137 19.496C190.929 18.792 192.977 18.44 195.281 18.44ZM202.673 41V45.128H171.377V41H202.673ZM214.577 31.688C213.361 31.688 212.369 31.336 211.601 30.632C210.897 29.864 210.545 28.872 210.545 27.656C210.545 26.44 210.897 25.48 211.601 24.776C212.369 24.008 213.361 23.624 214.577 23.624C215.793 23.624 216.753 24.008 217.457 24.776C218.225 25.48 218.609 26.44 218.609 27.656C218.609 28.872 218.225 29.864 217.457 30.632C216.753 31.336 215.793 31.688 214.577 31.688ZM216.977 41V89H212.177V41H216.977ZM248.937 89.96C244.777 89.96 241.033 88.968 237.705 86.984C234.377 85 231.753 82.152 229.833 78.44C227.977 74.664 227.049 70.184 227.049 65C227.049 59.688 228.041 55.176 230.025 51.464C232.009 47.752 234.697 44.936 238.089 43.016C241.481 41.032 245.225 40.04 249.321 40.04C253.801 40.04 257.609 41.224 260.745 43.592C263.945 45.96 266.089 49.256 267.177 53.48L266.601 53.864V18.92H271.401V89H267.081L266.793 75.656L267.369 75.464C266.793 78.536 265.609 81.16 263.817 83.336C262.089 85.512 259.913 87.176 257.289 88.328C254.729 89.416 251.945 89.96 248.937 89.96ZM249.513 85.736C252.905 85.736 255.881 84.904 258.441 83.24C261.001 81.512 262.985 79.048 264.393 75.848C265.865 72.648 266.601 68.904 266.601 64.616C266.601 60.392 265.865 56.776 264.393 53.768C262.985 50.696 261.001 48.36 258.441 46.76C255.945 45.096 253.033 44.264 249.705 44.264C244.201 44.264 239.849 46.12 236.649 49.832C233.449 53.544 231.849 58.6 231.849 65C231.849 71.4 233.417 76.456 236.553 80.168C239.753 83.88 244.073 85.736 249.513 85.736ZM304.273 89.96C299.857 89.96 295.921 88.968 292.465 86.984C289.009 85 286.289 82.152 284.305 78.44C282.385 74.664 281.425 70.184 281.425 65C281.425 59.816 282.385 55.368 284.305 51.656C286.289 47.88 288.945 45 292.273 43.016C295.601 41.032 299.409 40.04 303.697 40.04C308.049 40.04 311.761 41 314.833 42.92C317.905 44.84 320.273 47.528 321.937 50.984C323.601 54.376 324.433 58.312 324.433 62.792C324.433 63.368 324.401 63.944 324.337 64.52C324.337 65.032 324.305 65.512 324.241 65.96H284.401V61.64H322.129L319.729 62.312C319.665 56.808 318.193 52.424 315.313 49.16C312.497 45.896 308.593 44.264 303.601 44.264C300.145 44.264 297.105 45.096 294.481 46.76C291.857 48.36 289.809 50.728 288.337 53.864C286.865 56.936 286.129 60.648 286.129 65C286.129 69.288 286.865 73 288.337 76.136C289.873 79.272 291.985 81.672 294.673 83.336C297.425 84.936 300.593 85.736 304.177 85.736C307.889 85.736 311.057 84.936 313.681 83.336C316.369 81.736 318.449 79.528 319.921 76.712L323.761 78.92C322.609 81.224 321.073 83.208 319.153 84.872C317.233 86.472 315.025 87.72 312.529 88.616C310.033 89.512 307.281 89.96 304.273 89.96ZM334.286 89V41H338.606L338.99 53L338.222 52.328C339.118 49.704 340.462 47.496 342.254 45.704C344.046 43.848 346.19 42.44 348.686 41.48C351.182 40.52 353.87 40.04 356.75 40.04C360.334 40.04 363.502 40.712 366.254 42.056C369.006 43.4 371.15 45.384 372.686 48.008C374.286 50.632 375.086 53.928 375.086 57.896V89H370.286V59.432C370.286 54.184 368.974 50.344 366.35 47.912C363.79 45.48 360.43 44.264 356.27 44.264C353.262 44.264 350.446 44.968 347.822 46.376C345.262 47.72 343.15 49.704 341.486 52.328C339.886 54.952 339.086 58.152 339.086 61.928V89H334.286ZM407.213 40.04C410.477 40.04 413.389 40.552 415.949 41.576C418.509 42.6 420.685 44.072 422.477 45.992C424.269 47.912 425.645 50.248 426.605 53L422.093 55.112C421.069 51.656 419.277 49 416.717 47.144C414.221 45.224 411.021 44.264 407.117 44.264C403.597 44.264 400.493 45.096 397.805 46.76C395.117 48.36 393.037 50.728 391.565 53.864C390.093 56.936 389.357 60.648 389.357 65C389.357 69.288 390.093 73 391.565 76.136C393.037 79.272 395.085 81.672 397.709 83.336C400.333 84.936 403.437 85.736 407.021 85.736C409.709 85.736 412.141 85.288 414.317 84.392C416.557 83.496 418.381 82.184 419.789 80.456C421.261 78.728 422.221 76.68 422.669 74.312L427.085 75.848C426.253 78.792 424.877 81.32 422.957 83.432C421.101 85.544 418.829 87.176 416.141 88.328C413.453 89.416 410.445 89.96 407.117 89.96C402.765 89.96 398.861 88.968 395.405 86.984C392.013 85 389.357 82.152 387.437 78.44C385.517 74.664 384.557 70.184 384.557 65C384.557 59.816 385.517 55.368 387.437 51.656C389.421 47.88 392.109 45 395.501 43.016C398.957 41.032 402.861 40.04 407.213 40.04ZM455.691 89.96C451.275 89.96 447.339 88.968 443.883 86.984C440.427 85 437.707 82.152 435.723 78.44C433.803 74.664 432.843 70.184 432.843 65C432.843 59.816 433.803 55.368 435.723 51.656C437.707 47.88 440.363 45 443.691 43.016C447.019 41.032 450.827 40.04 455.115 40.04C459.467 40.04 463.179 41 466.251 42.92C469.323 44.84 471.691 47.528 473.355 50.984C475.019 54.376 475.851 58.312 475.851 62.792C475.851 63.368 475.819 63.944 475.755 64.52C475.755 65.032 475.723 65.512 475.659 65.96H435.819V61.64H473.547L471.147 62.312C471.083 56.808 469.611 52.424 466.731 49.16C463.915 45.896 460.011 44.264 455.019 44.264C451.563 44.264 448.523 45.096 445.899 46.76C443.275 48.36 441.227 50.728 439.755 53.864C438.283 56.936 437.547 60.648 437.547 65C437.547 69.288 438.283 73 439.755 76.136C441.291 79.272 443.403 81.672 446.091 83.336C448.843 84.936 452.011 85.736 455.595 85.736C459.307 85.736 462.475 84.936 465.099 83.336C467.787 81.736 469.867 79.528 471.339 76.712L475.179 78.92C474.027 81.224 472.491 83.208 470.571 84.872C468.651 86.472 466.443 87.72 463.947 88.616C461.451 89.512 458.699 89.96 455.691 89.96Z" fill="white"/>
<path d="M530.216 88.056C527.976 88.056 525.928 87.7253 524.072 87.064C522.237 86.4027 520.509 85.3573 518.888 83.928C517.267 82.4987 515.688 80.6427 514.152 78.36C512.637 76.12 511.389 73.944 510.408 71.832C509.427 69.72 508.691 67.64 508.2 65.592C507.731 63.5227 507.496 61.464 507.496 59.416C507.496 57.048 507.955 54.9253 508.872 53.048C509.811 51.1707 511.133 49.6987 512.84 48.632C514.568 47.544 516.605 47 518.952 47C520.701 47 522.227 47.352 523.528 48.056C524.851 48.76 525.875 49.7307 526.6 50.968C527.347 52.2053 527.72 53.624 527.72 55.224C527.72 57.336 527.165 59.1813 526.056 60.76C524.947 62.3173 523.357 63.5653 521.288 64.504C519.219 65.4427 516.733 66.04 513.832 66.296L513.608 65.304C515.357 65.0693 516.872 64.536 518.152 63.704C519.453 62.8507 520.456 61.688 521.16 60.216C521.885 58.744 522.248 56.9413 522.248 54.808C522.248 52.9093 521.917 51.3733 521.256 50.2C520.616 49.0267 519.72 48.44 518.568 48.44C517.053 48.44 515.784 49.208 514.76 50.744C513.757 52.2587 513.256 54.296 513.256 56.856C513.256 58.8827 513.512 60.9093 514.024 62.936C514.536 64.9413 515.283 66.9573 516.264 68.984C517.267 70.9893 518.472 73.0053 519.88 75.032C521.587 77.5067 523.144 79.4907 524.552 80.984C525.96 82.4773 527.325 83.5653 528.648 84.248C529.992 84.9093 531.421 85.24 532.936 85.24C534.963 85.24 536.776 84.7387 538.376 83.736C539.976 82.712 541.224 81.176 542.12 79.128C543.037 77.0587 543.496 74.4453 543.496 71.288C543.496 67.3413 542.824 63.4693 541.48 59.672C540.136 55.8747 538.013 52.4187 535.112 49.304C532.36 46.3173 529.213 43.992 525.672 42.328C522.131 40.664 518.259 39.832 514.056 39.832C510.728 39.832 507.955 40.312 505.736 41.272C503.517 42.2107 501.853 43.4907 500.744 45.112C499.656 46.712 499.112 48.5147 499.112 50.52C499.112 51.3947 499.229 52.1307 499.464 52.728C499.72 53.304 499.997 53.8373 500.296 54.328C500.616 54.7973 500.893 55.2987 501.128 55.832C501.363 56.3653 501.48 57.016 501.48 57.784C501.48 58.6587 501.171 59.3947 500.552 59.992C499.955 60.568 499.187 60.856 498.248 60.856C496.947 60.856 495.912 60.28 495.144 59.128C494.397 57.9547 494.024 56.376 494.024 54.392C494.024 51.1493 494.824 48.3227 496.424 45.912C498.045 43.5013 500.36 41.6347 503.368 40.312C506.397 38.9893 510.003 38.328 514.184 38.328C518.557 38.328 522.621 39.1813 526.376 40.888C530.131 42.5947 533.48 45.0267 536.424 48.184C539.368 51.2987 541.576 54.8293 543.048 58.776C544.52 62.7013 545.256 66.8293 545.256 71.16C545.256 74.7867 544.648 77.8587 543.432 80.376C542.216 82.8933 540.488 84.8027 538.248 86.104C536.008 87.4053 533.331 88.056 530.216 88.056ZM523.496 80.952C524.968 79.8213 526.131 78.7227 526.984 77.656C527.859 76.5893 528.488 75.576 528.872 74.616C529.277 73.6347 529.48 72.728 529.48 71.896C529.48 71.128 529.363 70.488 529.128 69.976C528.915 69.4427 528.701 68.9413 528.488 68.472C528.275 68.0027 528.168 67.4693 528.168 66.872C528.168 65.976 528.467 65.208 529.064 64.568C529.683 63.928 530.461 63.608 531.4 63.608C532.381 63.608 533.181 64.0027 533.8 64.792C534.44 65.56 534.76 66.6587 534.76 68.088C534.76 70.6267 533.885 73.0587 532.136 75.384C530.408 77.688 527.763 79.8213 524.2 81.784L523.496 80.952ZM509.288 66.776C507.411 67.0747 505.843 67.6933 504.584 68.632C503.325 69.5707 502.387 70.712 501.768 72.056C501.149 73.4 500.84 74.8293 500.84 76.344C500.84 79.0747 501.597 81.24 503.112 82.84C504.648 84.4187 506.696 85.208 509.256 85.208C511.091 85.208 512.691 84.92 514.056 84.344C515.443 83.7467 516.744 82.968 517.96 82.008L518.792 83.128C517.704 84.088 516.52 84.9307 515.24 85.656C513.981 86.36 512.563 86.904 510.984 87.288C509.405 87.6933 507.613 87.896 505.608 87.896C501.917 87.896 499.037 87.0213 496.968 85.272C494.92 83.5013 493.896 81.08 493.896 78.008C493.896 75.7893 494.472 73.7947 495.624 72.024C496.776 70.2533 498.493 68.8133 500.776 67.704C503.059 66.5947 505.907 65.9013 509.32 65.624L509.288 66.776Z" fill="white"/>
<path d="M563.408 89V25.64H588.368C595.984 25.64 601.552 27.176 605.072 30.248C608.592 33.32 610.352 37.576 610.352 43.016C610.352 46.344 609.392 49.32 607.472 51.944C605.552 54.504 602.736 56.136 599.024 56.84V56.936C603.12 57.576 606.288 59.272 608.528 62.024C610.832 64.712 611.984 67.848 611.984 71.432C611.984 76.872 610 81.16 606.032 84.296C602.064 87.432 596.304 89 588.752 89H563.408ZM573.488 80.456H589.232C593.264 80.456 596.272 79.624 598.256 77.96C600.304 76.296 601.328 73.96 601.328 70.952C601.328 67.944 600.304 65.608 598.256 63.944C596.272 62.28 593.264 61.448 589.232 61.448H573.488V80.456ZM573.488 52.904H587.6C595.664 52.904 599.696 49.8 599.696 43.592C599.696 37.384 595.664 34.28 587.6 34.28H573.488V52.904ZM642.523 40.04C647.195 40.04 651.323 41.032 654.907 43.016C658.491 45 661.275 47.88 663.259 51.656C665.307 55.368 666.331 59.816 666.331 65C666.331 70.184 665.307 74.664 663.259 78.44C661.275 82.152 658.491 85 654.907 86.984C651.323 88.968 647.195 89.96 642.523 89.96C637.851 89.96 633.723 88.968 630.139 86.984C626.555 85 623.739 82.152 621.691 78.44C619.643 74.664 618.619 70.184 618.619 65C618.619 59.816 619.643 55.368 621.691 51.656C623.739 47.88 626.555 45 630.139 43.016C633.723 41.032 637.851 40.04 642.523 40.04ZM642.523 48.104C639.643 48.104 637.179 48.776 635.131 50.12C633.147 51.4 631.611 53.288 630.523 55.784C629.435 58.28 628.891 61.352 628.891 65C628.891 68.584 629.435 71.656 630.523 74.216C631.611 76.712 633.147 78.632 635.131 79.976C637.179 81.256 639.643 81.896 642.523 81.896C645.403 81.896 647.835 81.256 649.819 79.976C651.803 78.632 653.339 76.712 654.427 74.216C655.515 71.656 656.059 68.584 656.059 65C656.059 61.352 655.515 58.28 654.427 55.784C653.339 53.288 651.803 51.4 649.819 50.12C647.835 48.776 645.403 48.104 642.523 48.104ZM695.573 40.04C700.053 40.04 703.989 41.032 707.381 43.016C710.837 45 713.525 47.88 715.445 51.656C717.429 55.368 718.421 59.816 718.421 65C718.421 70.184 717.429 74.664 715.445 78.44C713.525 82.152 710.837 85 707.381 86.984C703.989 88.968 700.053 89.96 695.573 89.96C691.093 89.96 687.125 88.968 683.669 86.984C680.277 85 677.589 82.152 675.605 78.44C673.685 74.664 672.725 70.184 672.725 65C672.725 59.816 673.685 55.368 675.605 51.656C677.589 47.88 680.277 45 683.669 43.016C687.125 41.032 691.093 40.04 695.573 40.04ZM695.573 44.168C691.925 44.168 688.757 45 686.069 46.664C683.381 48.328 681.269 50.728 679.733 53.864C678.261 56.936 677.525 60.648 677.525 65C677.525 69.288 678.261 73 679.733 76.136C681.269 79.272 683.381 81.672 686.069 83.336C688.757 85 691.925 85.832 695.573 85.832C699.221 85.832 702.389 85 705.077 83.336C707.765 81.672 709.845 79.272 711.317 76.136C712.853 73 713.621 69.288 713.621 65C713.621 60.648 712.853 56.936 711.317 53.864C709.845 50.728 707.765 48.328 705.077 46.664C702.389 45 699.221 44.168 695.573 44.168ZM744.529 89.96C739.665 89.96 735.345 88.968 731.569 86.984C727.857 85 725.233 82.152 723.697 78.44L727.825 75.656C728.977 78.856 731.025 81.352 733.969 83.144C736.977 84.872 740.625 85.736 744.913 85.736C749.137 85.736 752.433 84.904 754.801 83.24C757.233 81.576 758.449 79.368 758.449 76.616C758.449 74.76 757.841 73.16 756.625 71.816C755.473 70.408 753.265 69.352 750.001 68.648L738.769 66.248C734.161 65.288 730.865 63.752 728.881 61.64C726.961 59.464 726.001 56.84 726.001 53.768C726.001 51.208 726.769 48.904 728.305 46.856C729.841 44.808 731.953 43.176 734.641 41.96C737.393 40.68 740.593 40.04 744.241 40.04C749.041 40.04 753.009 41 756.145 42.92C759.281 44.776 761.489 47.592 762.769 51.368L758.737 53.96C757.777 50.568 755.985 48.104 753.361 46.568C750.801 45.032 747.761 44.264 744.241 44.264C741.553 44.264 739.185 44.68 737.137 45.512C735.153 46.28 733.585 47.368 732.433 48.776C731.345 50.12 730.801 51.688 730.801 53.48C730.801 55.336 731.441 57.032 732.721 58.568C734.001 60.04 736.273 61.128 739.537 61.832L751.057 64.328C755.601 65.288 758.769 66.76 760.561 68.744C762.353 70.664 763.249 73.064 763.249 75.944C763.249 78.824 762.481 81.32 760.945 83.432C759.409 85.544 757.233 87.176 754.417 88.328C751.601 89.416 748.305 89.96 744.529 89.96ZM780.808 27.656V76.328C780.808 79.336 781.512 81.64 782.92 83.24C784.392 84.776 786.504 85.544 789.256 85.544C791.048 85.544 792.616 85.256 793.96 84.68C795.368 84.04 796.616 83.144 797.704 81.992L799.528 85.928C798.312 87.144 796.776 88.136 794.92 88.904C793.064 89.608 790.984 89.96 788.68 89.96C786.184 89.96 783.976 89.512 782.056 88.616C780.136 87.656 778.632 86.216 777.544 84.296C776.52 82.376 776.008 79.944 776.008 77V29L780.808 27.656ZM798.76 41V45.128H766.408V41H798.76ZM807.588 31.688C806.372 31.688 805.38 31.336 804.612 30.632C803.908 29.864 803.556 28.872 803.556 27.656C803.556 26.44 803.908 25.48 804.612 24.776C805.38 24.008 806.372 23.624 807.588 23.624C808.804 23.624 809.764 24.008 810.468 24.776C811.236 25.48 811.62 26.44 811.62 27.656C811.62 28.872 811.236 29.864 810.468 30.632C809.764 31.336 808.804 31.688 807.588 31.688ZM809.988 41V89H805.188V41H809.988ZM823.191 89V41H827.511L827.895 53L827.127 52.328C828.023 49.704 829.367 47.496 831.159 45.704C832.951 43.848 835.095 42.44 837.591 41.48C840.087 40.52 842.775 40.04 845.655 40.04C849.239 40.04 852.407 40.712 855.159 42.056C857.911 43.4 860.055 45.384 861.591 48.008C863.191 50.632 863.991 53.928 863.991 57.896V89H859.191V59.432C859.191 54.184 857.879 50.344 855.255 47.912C852.695 45.48 849.335 44.264 845.175 44.264C842.167 44.264 839.351 44.968 836.727 46.376C834.167 47.72 832.055 49.704 830.391 52.328C828.791 54.952 827.991 58.152 827.991 61.928V89H823.191ZM916.47 32.168L917.622 36.392C917.558 36.392 917.494 36.392 917.43 36.392C917.366 36.392 917.27 36.392 917.142 36.392C914.006 36.392 911.574 37.224 909.846 38.888C908.182 40.488 907.35 42.76 907.35 45.704L904.278 44.168C904.278 41.736 904.79 39.624 905.814 37.832C906.838 36.04 908.246 34.664 910.038 33.704C911.83 32.68 913.846 32.168 916.086 32.168C916.214 32.168 916.278 32.168 916.278 32.168C916.342 32.168 916.406 32.168 916.47 32.168ZM901.302 84.104C906.038 84.104 909.75 85.096 912.438 87.08C915.126 89.064 916.47 91.72 916.47 95.048C916.47 97.992 915.478 100.552 913.494 102.728C911.574 104.904 908.918 106.6 905.526 107.816C902.134 109.032 898.262 109.64 893.91 109.64C886.678 109.64 881.142 108.392 877.302 105.896C873.462 103.464 871.542 100.392 871.542 96.68C871.542 93.992 872.502 91.656 874.422 89.672C876.406 87.688 879.286 86.504 883.062 86.12L882.678 86.984C880.63 86.408 878.806 85.448 877.206 84.104C875.67 82.76 874.902 80.84 874.902 78.344C874.902 75.656 875.894 73.48 877.878 71.816C879.926 70.088 882.614 69.096 885.942 68.84L891.03 70.568H889.014C886.07 70.76 883.702 71.496 881.91 72.776C880.182 73.992 879.318 75.592 879.318 77.576C879.318 79.752 880.15 81.384 881.814 82.472C883.542 83.56 885.718 84.104 888.342 84.104H901.302ZM893.91 105.608C897.686 105.608 900.918 105.16 903.606 104.264C906.294 103.368 908.342 102.152 909.75 100.616C911.222 99.144 911.958 97.48 911.958 95.624C911.958 93.384 910.966 91.592 908.982 90.248C907.062 88.904 904.118 88.232 900.15 88.232H886.518C883.51 88.232 881.014 88.936 879.03 90.344C877.046 91.752 876.054 93.64 876.054 96.008C876.054 98.888 877.622 101.192 880.758 102.92C883.958 104.712 888.342 105.608 893.91 105.608ZM893.238 40.04C897.014 40.04 900.342 40.712 903.222 42.056C906.166 43.336 908.438 45.16 910.038 47.528C911.638 49.832 912.438 52.552 912.438 55.688C912.438 58.76 911.638 61.512 910.038 63.944C908.438 66.312 906.166 68.168 903.222 69.512C900.342 70.792 897.014 71.432 893.238 71.432C887.158 71.432 882.39 69.992 878.934 67.112C875.542 64.168 873.846 60.36 873.846 55.688C873.846 52.552 874.646 49.832 876.246 47.528C877.91 45.16 880.182 43.336 883.062 42.056C886.006 40.712 889.398 40.04 893.238 40.04ZM893.238 43.976C889.014 43.976 885.558 45.064 882.87 47.24C880.182 49.352 878.838 52.168 878.838 55.688C878.838 59.208 880.182 62.056 882.87 64.232C885.558 66.408 889.014 67.496 893.238 67.496C897.462 67.496 900.886 66.408 903.51 64.232C906.198 62.056 907.542 59.208 907.542 55.688C907.542 52.168 906.198 49.352 903.51 47.24C900.886 45.064 897.462 43.976 893.238 43.976Z" fill="white"/>
</svg>
