<svg width="897" height="113" viewBox="0 0 897 113" fill="none" xmlns="http://www.w3.org/2000/svg">
<path d="M62.4175 72.2C61.1375 76.04 59.2175 79.304 56.6575 81.992C54.0975 84.616 51.0895 86.6 47.6335 87.944C44.1775 89.288 40.3695 89.96 36.2095 89.96C30.1295 89.96 24.8495 88.648 20.3695 86.024C15.8895 83.4 12.4335 79.656 10.0015 74.792C7.5695 69.928 6.3535 64.104 6.3535 57.32C6.3535 50.536 7.5695 44.712 10.0015 39.848C12.4335 34.984 15.8895 31.24 20.3695 28.616C24.8495 25.992 30.0975 24.68 36.1135 24.68C40.2735 24.68 44.0175 25.256 47.3455 26.408C50.7375 27.56 53.6175 29.288 55.9855 31.592C58.3535 33.896 60.1775 36.776 61.4575 40.232L51.7615 44.552C50.4815 40.776 48.6255 38.024 46.1935 36.296C43.7615 34.504 40.5935 33.608 36.6895 33.608C32.7855 33.608 29.3615 34.536 26.4175 36.392C23.4735 38.248 21.1695 40.936 19.5055 44.456C17.9055 47.976 17.1055 52.264 17.1055 57.32C17.1055 62.312 17.8735 66.6 19.4095 70.184C20.9455 73.704 23.1535 76.392 26.0335 78.248C28.9135 80.104 32.3695 81.032 36.4015 81.032C40.3055 81.032 43.6655 80.04 46.4815 78.056C49.3615 76.008 51.4095 72.968 52.6255 68.936L62.4175 72.2ZM91.0825 40.04C95.7545 40.04 99.8825 41.032 103.466 43.016C107.05 45 109.834 47.88 111.819 51.656C113.867 55.368 114.891 59.816 114.891 65C114.891 70.184 113.867 74.664 111.819 78.44C109.834 82.152 107.05 85 103.466 86.984C99.8825 88.968 95.7545 89.96 91.0825 89.96C86.4105 89.96 82.2825 88.968 78.6985 86.984C75.1145 85 72.2985 82.152 70.2505 78.44C68.2025 74.664 67.1785 70.184 67.1785 65C67.1785 59.816 68.2025 55.368 70.2505 51.656C72.2985 47.88 75.1145 45 78.6985 43.016C82.2825 41.032 86.4105 40.04 91.0825 40.04ZM91.0825 48.104C88.2025 48.104 85.7385 48.776 83.6905 50.12C81.7065 51.4 80.1705 53.288 79.0825 55.784C77.9945 58.28 77.4505 61.352 77.4505 65C77.4505 68.584 77.9945 71.656 79.0825 74.216C80.1705 76.712 81.7065 78.632 83.6905 79.976C85.7385 81.256 88.2025 81.896 91.0825 81.896C93.9625 81.896 96.3945 81.256 98.3785 79.976C100.362 78.632 101.898 76.712 102.986 74.216C104.074 71.656 104.618 68.584 104.618 65C104.618 61.352 104.074 58.28 102.986 55.784C101.898 53.288 100.362 51.4 98.3785 50.12C96.3945 48.776 93.9625 48.104 91.0825 48.104ZM124.549 89V41H128.869L129.253 53L128.485 52.328C129.381 49.704 130.725 47.496 132.517 45.704C134.309 43.848 136.453 42.44 138.949 41.48C141.445 40.52 144.133 40.04 147.013 40.04C150.597 40.04 153.765 40.712 156.517 42.056C159.269 43.4 161.413 45.384 162.949 48.008C164.549 50.632 165.349 53.928 165.349 57.896V89H160.549V59.432C160.549 54.184 159.237 50.344 156.613 47.912C154.053 45.48 150.693 44.264 146.533 44.264C143.525 44.264 140.709 44.968 138.085 46.376C135.525 47.72 133.413 49.704 131.749 52.328C130.149 54.952 129.349 58.152 129.349 61.928V89H124.549ZM178.084 89V41H182.404L182.788 53L182.02 52.328C182.916 49.704 184.26 47.496 186.052 45.704C187.844 43.848 189.988 42.44 192.484 41.48C194.98 40.52 197.668 40.04 200.548 40.04C204.132 40.04 207.3 40.712 210.052 42.056C212.804 43.4 214.948 45.384 216.484 48.008C218.084 50.632 218.884 53.928 218.884 57.896V89H214.084V59.432C214.084 54.184 212.772 50.344 210.148 47.912C207.588 45.48 204.228 44.264 200.068 44.264C197.06 44.264 194.244 44.968 191.62 46.376C189.06 47.72 186.948 49.704 185.284 52.328C183.684 54.952 182.884 58.152 182.884 61.928V89H178.084ZM251.203 89.96C246.787 89.96 242.851 88.968 239.395 86.984C235.939 85 233.219 82.152 231.235 78.44C229.315 74.664 228.355 70.184 228.355 65C228.355 59.816 229.315 55.368 231.235 51.656C233.219 47.88 235.875 45 239.203 43.016C242.531 41.032 246.339 40.04 250.627 40.04C254.979 40.04 258.691 41 261.763 42.92C264.835 44.84 267.203 47.528 268.867 50.984C270.531 54.376 271.363 58.312 271.363 62.792C271.363 63.368 271.331 63.944 271.267 64.52C271.267 65.032 271.235 65.512 271.171 65.96H231.331V61.64H269.059L266.659 62.312C266.595 56.808 265.123 52.424 262.243 49.16C259.427 45.896 255.523 44.264 250.531 44.264C247.075 44.264 244.035 45.096 241.411 46.76C238.787 48.36 236.739 50.728 235.267 53.864C233.795 56.936 233.059 60.648 233.059 65C233.059 69.288 233.795 73 235.267 76.136C236.803 79.272 238.915 81.672 241.603 83.336C244.355 84.936 247.523 85.736 251.107 85.736C254.819 85.736 257.987 84.936 260.611 83.336C263.299 81.736 265.379 79.528 266.851 76.712L270.691 78.92C269.539 81.224 268.003 83.208 266.083 84.872C264.163 86.472 261.955 87.72 259.459 88.616C256.963 89.512 254.211 89.96 251.203 89.96ZM300.608 40.04C303.872 40.04 306.784 40.552 309.344 41.576C311.904 42.6 314.08 44.072 315.872 45.992C317.664 47.912 319.04 50.248 320 53L315.488 55.112C314.464 51.656 312.672 49 310.112 47.144C307.616 45.224 304.416 44.264 300.512 44.264C296.992 44.264 293.888 45.096 291.2 46.76C288.512 48.36 286.432 50.728 284.96 53.864C283.488 56.936 282.752 60.648 282.752 65C282.752 69.288 283.488 73 284.96 76.136C286.432 79.272 288.48 81.672 291.104 83.336C293.728 84.936 296.832 85.736 300.416 85.736C303.104 85.736 305.536 85.288 307.712 84.392C309.952 83.496 311.776 82.184 313.184 80.456C314.656 78.728 315.616 76.68 316.064 74.312L320.48 75.848C319.648 78.792 318.272 81.32 316.352 83.432C314.496 85.544 312.224 87.176 309.536 88.328C306.848 89.416 303.84 89.96 300.512 89.96C296.16 89.96 292.256 88.968 288.8 86.984C285.408 85 282.752 82.152 280.832 78.44C278.912 74.664 277.952 70.184 277.952 65C277.952 59.816 278.912 55.368 280.832 51.656C282.816 47.88 285.504 45 288.896 43.016C292.352 41.032 296.256 40.04 300.608 40.04ZM337.469 27.656V76.328C337.469 79.336 338.173 81.64 339.581 83.24C341.053 84.776 343.165 85.544 345.917 85.544C347.709 85.544 349.277 85.256 350.621 84.68C352.029 84.04 353.277 83.144 354.365 81.992L356.189 85.928C354.973 87.144 353.437 88.136 351.581 88.904C349.725 89.608 347.645 89.96 345.341 89.96C342.845 89.96 340.637 89.512 338.717 88.616C336.797 87.656 335.293 86.216 334.205 84.296C333.181 82.376 332.669 79.944 332.669 77V29L337.469 27.656ZM355.421 41V45.128H323.069V41H355.421ZM364.249 31.688C363.033 31.688 362.041 31.336 361.273 30.632C360.569 29.864 360.217 28.872 360.217 27.656C360.217 26.44 360.569 25.48 361.273 24.776C362.041 24.008 363.033 23.624 364.249 23.624C365.465 23.624 366.425 24.008 367.129 24.776C367.897 25.48 368.281 26.44 368.281 27.656C368.281 28.872 367.897 29.864 367.129 30.632C366.425 31.336 365.465 31.688 364.249 31.688ZM366.649 41V89H361.849V41H366.649ZM399.437 40.04C403.917 40.04 407.853 41.032 411.245 43.016C414.701 45 417.389 47.88 419.309 51.656C421.293 55.368 422.285 59.816 422.285 65C422.285 70.184 421.293 74.664 419.309 78.44C417.389 82.152 414.701 85 411.245 86.984C407.853 88.968 403.917 89.96 399.437 89.96C394.957 89.96 390.989 88.968 387.533 86.984C384.141 85 381.453 82.152 379.469 78.44C377.549 74.664 376.589 70.184 376.589 65C376.589 59.816 377.549 55.368 379.469 51.656C381.453 47.88 384.141 45 387.533 43.016C390.989 41.032 394.957 40.04 399.437 40.04ZM399.437 44.168C395.789 44.168 392.621 45 389.933 46.664C387.245 48.328 385.133 50.728 383.597 53.864C382.125 56.936 381.389 60.648 381.389 65C381.389 69.288 382.125 73 383.597 76.136C385.133 79.272 387.245 81.672 389.933 83.336C392.621 85 395.789 85.832 399.437 85.832C403.085 85.832 406.253 85 408.941 83.336C411.629 81.672 413.709 79.272 415.181 76.136C416.717 73 417.485 69.288 417.485 65C417.485 60.648 416.717 56.936 415.181 53.864C413.709 50.728 411.629 48.328 408.941 46.664C406.253 45 403.085 44.168 399.437 44.168ZM432.169 89V41H436.489L436.873 53L436.105 52.328C437.001 49.704 438.345 47.496 440.137 45.704C441.929 43.848 444.073 42.44 446.569 41.48C449.065 40.52 451.753 40.04 454.633 40.04C458.217 40.04 461.385 40.712 464.137 42.056C466.889 43.4 469.033 45.384 470.569 48.008C472.169 50.632 472.969 53.928 472.969 57.896V89H468.169V59.432C468.169 54.184 466.857 50.344 464.233 47.912C461.673 45.48 458.313 44.264 454.153 44.264C451.145 44.264 448.329 44.968 445.705 46.376C443.145 47.72 441.033 49.704 439.369 52.328C437.769 54.952 436.969 58.152 436.969 61.928V89H432.169Z" fill="white"/>
<path d="M530.216 88.056C527.976 88.056 525.928 87.7253 524.072 87.064C522.237 86.4027 520.509 85.3573 518.888 83.928C517.267 82.4987 515.688 80.6427 514.152 78.36C512.637 76.12 511.389 73.944 510.408 71.832C509.427 69.72 508.691 67.64 508.2 65.592C507.731 63.5227 507.496 61.464 507.496 59.416C507.496 57.048 507.955 54.9253 508.872 53.048C509.811 51.1707 511.133 49.6987 512.84 48.632C514.568 47.544 516.605 47 518.952 47C520.701 47 522.227 47.352 523.528 48.056C524.851 48.76 525.875 49.7307 526.6 50.968C527.347 52.2053 527.72 53.624 527.72 55.224C527.72 57.336 527.165 59.1813 526.056 60.76C524.947 62.3173 523.357 63.5653 521.288 64.504C519.219 65.4427 516.733 66.04 513.832 66.296L513.608 65.304C515.357 65.0693 516.872 64.536 518.152 63.704C519.453 62.8507 520.456 61.688 521.16 60.216C521.885 58.744 522.248 56.9413 522.248 54.808C522.248 52.9093 521.917 51.3733 521.256 50.2C520.616 49.0267 519.72 48.44 518.568 48.44C517.053 48.44 515.784 49.208 514.76 50.744C513.757 52.2587 513.256 54.296 513.256 56.856C513.256 58.8827 513.512 60.9093 514.024 62.936C514.536 64.9413 515.283 66.9573 516.264 68.984C517.267 70.9893 518.472 73.0053 519.88 75.032C521.587 77.5067 523.144 79.4907 524.552 80.984C525.96 82.4773 527.325 83.5653 528.648 84.248C529.992 84.9093 531.421 85.24 532.936 85.24C534.963 85.24 536.776 84.7387 538.376 83.736C539.976 82.712 541.224 81.176 542.12 79.128C543.037 77.0587 543.496 74.4453 543.496 71.288C543.496 67.3413 542.824 63.4693 541.48 59.672C540.136 55.8747 538.013 52.4187 535.112 49.304C532.36 46.3173 529.213 43.992 525.672 42.328C522.131 40.664 518.259 39.832 514.056 39.832C510.728 39.832 507.955 40.312 505.736 41.272C503.517 42.2107 501.853 43.4907 500.744 45.112C499.656 46.712 499.112 48.5147 499.112 50.52C499.112 51.3947 499.229 52.1307 499.464 52.728C499.72 53.304 499.997 53.8373 500.296 54.328C500.616 54.7973 500.893 55.2987 501.128 55.832C501.363 56.3653 501.48 57.016 501.48 57.784C501.48 58.6587 501.171 59.3947 500.552 59.992C499.955 60.568 499.187 60.856 498.248 60.856C496.947 60.856 495.912 60.28 495.144 59.128C494.397 57.9547 494.024 56.376 494.024 54.392C494.024 51.1493 494.824 48.3227 496.424 45.912C498.045 43.5013 500.36 41.6347 503.368 40.312C506.397 38.9893 510.003 38.328 514.184 38.328C518.557 38.328 522.621 39.1813 526.376 40.888C530.131 42.5947 533.48 45.0267 536.424 48.184C539.368 51.2987 541.576 54.8293 543.048 58.776C544.52 62.7013 545.256 66.8293 545.256 71.16C545.256 74.7867 544.648 77.8587 543.432 80.376C542.216 82.8933 540.488 84.8027 538.248 86.104C536.008 87.4053 533.331 88.056 530.216 88.056ZM523.496 80.952C524.968 79.8213 526.131 78.7227 526.984 77.656C527.859 76.5893 528.488 75.576 528.872 74.616C529.277 73.6347 529.48 72.728 529.48 71.896C529.48 71.128 529.363 70.488 529.128 69.976C528.915 69.4427 528.701 68.9413 528.488 68.472C528.275 68.0027 528.168 67.4693 528.168 66.872C528.168 65.976 528.467 65.208 529.064 64.568C529.683 63.928 530.461 63.608 531.4 63.608C532.381 63.608 533.181 64.0027 533.8 64.792C534.44 65.56 534.76 66.6587 534.76 68.088C534.76 70.6267 533.885 73.0587 532.136 75.384C530.408 77.688 527.763 79.8213 524.2 81.784L523.496 80.952ZM509.288 66.776C507.411 67.0747 505.843 67.6933 504.584 68.632C503.325 69.5707 502.387 70.712 501.768 72.056C501.149 73.4 500.84 74.8293 500.84 76.344C500.84 79.0747 501.597 81.24 503.112 82.84C504.648 84.4187 506.696 85.208 509.256 85.208C511.091 85.208 512.691 84.92 514.056 84.344C515.443 83.7467 516.744 82.968 517.96 82.008L518.792 83.128C517.704 84.088 516.52 84.9307 515.24 85.656C513.981 86.36 512.563 86.904 510.984 87.288C509.405 87.6933 507.613 87.896 505.608 87.896C501.917 87.896 499.037 87.0213 496.968 85.272C494.92 83.5013 493.896 81.08 493.896 78.008C493.896 75.7893 494.472 73.7947 495.624 72.024C496.776 70.2533 498.493 68.8133 500.776 67.704C503.059 66.5947 505.907 65.9013 509.32 65.624L509.288 66.776Z" fill="white"/>
<path d="M563.408 89V25.64H588.368C595.984 25.64 601.552 27.176 605.072 30.248C608.592 33.32 610.352 37.576 610.352 43.016C610.352 46.344 609.392 49.32 607.472 51.944C605.552 54.504 602.736 56.136 599.024 56.84V56.936C603.12 57.576 606.288 59.272 608.528 62.024C610.832 64.712 611.984 67.848 611.984 71.432C611.984 76.872 610 81.16 606.032 84.296C602.064 87.432 596.304 89 588.752 89H563.408ZM573.488 80.456H589.232C593.264 80.456 596.272 79.624 598.256 77.96C600.304 76.296 601.328 73.96 601.328 70.952C601.328 67.944 600.304 65.608 598.256 63.944C596.272 62.28 593.264 61.448 589.232 61.448H573.488V80.456ZM573.488 52.904H587.6C595.664 52.904 599.696 49.8 599.696 43.592C599.696 37.384 595.664 34.28 587.6 34.28H573.488V52.904ZM642.523 40.04C647.195 40.04 651.323 41.032 654.907 43.016C658.491 45 661.275 47.88 663.259 51.656C665.307 55.368 666.331 59.816 666.331 65C666.331 70.184 665.307 74.664 663.259 78.44C661.275 82.152 658.491 85 654.907 86.984C651.323 88.968 647.195 89.96 642.523 89.96C637.851 89.96 633.723 88.968 630.139 86.984C626.555 85 623.739 82.152 621.691 78.44C619.643 74.664 618.619 70.184 618.619 65C618.619 59.816 619.643 55.368 621.691 51.656C623.739 47.88 626.555 45 630.139 43.016C633.723 41.032 637.851 40.04 642.523 40.04ZM642.523 48.104C639.643 48.104 637.179 48.776 635.131 50.12C633.147 51.4 631.611 53.288 630.523 55.784C629.435 58.28 628.891 61.352 628.891 65C628.891 68.584 629.435 71.656 630.523 74.216C631.611 76.712 633.147 78.632 635.131 79.976C637.179 81.256 639.643 81.896 642.523 81.896C645.403 81.896 647.835 81.256 649.819 79.976C651.803 78.632 653.339 76.712 654.427 74.216C655.515 71.656 656.059 68.584 656.059 65C656.059 61.352 655.515 58.28 654.427 55.784C653.339 53.288 651.803 51.4 649.819 50.12C647.835 48.776 645.403 48.104 642.523 48.104ZM675.989 89V41H680.309L680.693 53L679.925 52.328C680.821 49.704 682.165 47.496 683.957 45.704C685.749 43.848 687.893 42.44 690.389 41.48C692.885 40.52 695.573 40.04 698.453 40.04C702.037 40.04 705.205 40.712 707.957 42.056C710.709 43.4 712.853 45.384 714.389 48.008C715.989 50.632 716.789 53.928 716.789 57.896V89H711.989V59.432C711.989 54.184 710.677 50.344 708.053 47.912C705.493 45.48 702.133 44.264 697.973 44.264C694.965 44.264 692.149 44.968 689.525 46.376C686.965 47.72 684.853 49.704 683.189 52.328C681.589 54.952 680.789 58.152 680.789 61.928V89H675.989ZM748.244 89.96C744.084 89.96 740.34 88.968 737.012 86.984C733.684 85 731.06 82.152 729.14 78.44C727.284 74.664 726.356 70.184 726.356 65C726.356 59.688 727.348 55.176 729.332 51.464C731.316 47.752 734.004 44.936 737.396 43.016C740.788 41.032 744.532 40.04 748.628 40.04C753.108 40.04 756.916 41.224 760.052 43.592C763.252 45.96 765.396 49.256 766.484 53.48L765.908 53.864V18.92H770.708V89H766.388L766.1 75.656L766.676 75.464C766.1 78.536 764.916 81.16 763.124 83.336C761.396 85.512 759.22 87.176 756.596 88.328C754.036 89.416 751.252 89.96 748.244 89.96ZM748.82 85.736C752.212 85.736 755.188 84.904 757.748 83.24C760.308 81.512 762.292 79.048 763.7 75.848C765.172 72.648 765.908 68.904 765.908 64.616C765.908 60.392 765.172 56.776 763.7 53.768C762.292 50.696 760.308 48.36 757.748 46.76C755.252 45.096 752.34 44.264 749.012 44.264C743.508 44.264 739.156 46.12 735.956 49.832C732.756 53.544 731.156 58.6 731.156 65C731.156 71.4 732.724 76.456 735.86 80.168C739.06 83.88 743.38 85.736 748.82 85.736ZM786.397 31.688C785.181 31.688 784.188 31.336 783.42 30.632C782.716 29.864 782.364 28.872 782.364 27.656C782.364 26.44 782.716 25.48 783.42 24.776C784.188 24.008 785.181 23.624 786.397 23.624C787.612 23.624 788.572 24.008 789.277 24.776C790.044 25.48 790.428 26.44 790.428 27.656C790.428 28.872 790.044 29.864 789.277 30.632C788.572 31.336 787.612 31.688 786.397 31.688ZM788.797 41V89H783.996V41H788.797ZM802 89V41H806.32L806.704 53L805.936 52.328C806.832 49.704 808.176 47.496 809.968 45.704C811.76 43.848 813.904 42.44 816.4 41.48C818.896 40.52 821.584 40.04 824.464 40.04C828.048 40.04 831.216 40.712 833.968 42.056C836.72 43.4 838.864 45.384 840.4 48.008C842 50.632 842.8 53.928 842.8 57.896V89H838V59.432C838 54.184 836.688 50.344 834.064 47.912C831.504 45.48 828.144 44.264 823.984 44.264C820.976 44.264 818.16 44.968 815.536 46.376C812.976 47.72 810.864 49.704 809.2 52.328C807.6 54.952 806.8 58.152 806.8 61.928V89H802ZM895.279 32.168L896.431 36.392C896.367 36.392 896.303 36.392 896.239 36.392C896.175 36.392 896.079 36.392 895.951 36.392C892.815 36.392 890.383 37.224 888.655 38.888C886.991 40.488 886.159 42.76 886.159 45.704L883.087 44.168C883.087 41.736 883.599 39.624 884.623 37.832C885.647 36.04 887.055 34.664 888.847 33.704C890.639 32.68 892.655 32.168 894.895 32.168C895.023 32.168 895.087 32.168 895.087 32.168C895.151 32.168 895.215 32.168 895.279 32.168ZM880.111 84.104C884.847 84.104 888.559 85.096 891.247 87.08C893.935 89.064 895.279 91.72 895.279 95.048C895.279 97.992 894.287 100.552 892.303 102.728C890.383 104.904 887.727 106.6 884.335 107.816C880.943 109.032 877.071 109.64 872.719 109.64C865.487 109.64 859.951 108.392 856.111 105.896C852.271 103.464 850.351 100.392 850.351 96.68C850.351 93.992 851.311 91.656 853.231 89.672C855.215 87.688 858.095 86.504 861.871 86.12L861.487 86.984C859.439 86.408 857.615 85.448 856.015 84.104C854.479 82.76 853.711 80.84 853.711 78.344C853.711 75.656 854.703 73.48 856.687 71.816C858.735 70.088 861.423 69.096 864.751 68.84L869.839 70.568H867.823C864.879 70.76 862.511 71.496 860.719 72.776C858.991 73.992 858.127 75.592 858.127 77.576C858.127 79.752 858.959 81.384 860.623 82.472C862.351 83.56 864.527 84.104 867.151 84.104H880.111ZM872.719 105.608C876.495 105.608 879.727 105.16 882.415 104.264C885.103 103.368 887.151 102.152 888.559 100.616C890.031 99.144 890.767 97.48 890.767 95.624C890.767 93.384 889.775 91.592 887.791 90.248C885.871 88.904 882.927 88.232 878.959 88.232H865.327C862.319 88.232 859.823 88.936 857.839 90.344C855.855 91.752 854.863 93.64 854.863 96.008C854.863 98.888 856.431 101.192 859.567 102.92C862.767 104.712 867.151 105.608 872.719 105.608ZM872.047 40.04C875.823 40.04 879.151 40.712 882.031 42.056C884.975 43.336 887.247 45.16 888.847 47.528C890.447 49.832 891.247 52.552 891.247 55.688C891.247 58.76 890.447 61.512 888.847 63.944C887.247 66.312 884.975 68.168 882.031 69.512C879.151 70.792 875.823 71.432 872.047 71.432C865.967 71.432 861.199 69.992 857.743 67.112C854.351 64.168 852.655 60.36 852.655 55.688C852.655 52.552 853.455 49.832 855.055 47.528C856.719 45.16 858.991 43.336 861.871 42.056C864.815 40.712 868.207 40.04 872.047 40.04ZM872.047 43.976C867.823 43.976 864.367 45.064 861.679 47.24C858.991 49.352 857.647 52.168 857.647 55.688C857.647 59.208 858.991 62.056 861.679 64.232C864.367 66.408 867.823 67.496 872.047 67.496C876.271 67.496 879.695 66.408 882.319 64.232C885.007 62.056 886.351 59.208 886.351 55.688C886.351 52.168 885.007 49.352 882.319 47.24C879.695 45.064 876.271 43.976 872.047 43.976Z" fill="white"/>
</svg>
