<svg width="942" height="113" viewBox="0 0 942 113" fill="none" xmlns="http://www.w3.org/2000/svg">
<path d="M62.8825 72.2C61.6025 76.04 59.6825 79.304 57.1225 81.992C54.5625 84.616 51.5545 86.6 48.0985 87.944C44.6425 89.288 40.8345 89.96 36.6745 89.96C30.5945 89.96 25.3145 88.648 20.8345 86.024C16.3545 83.4 12.8985 79.656 10.4665 74.792C8.03452 69.928 6.81852 64.104 6.81852 57.32C6.81852 50.536 8.03452 44.712 10.4665 39.848C12.8985 34.984 16.3545 31.24 20.8345 28.616C25.3145 25.992 30.5625 24.68 36.5785 24.68C40.7385 24.68 44.4825 25.256 47.8105 26.408C51.2025 27.56 54.0825 29.288 56.4505 31.592C58.8185 33.896 60.6425 36.776 61.9225 40.232L52.2265 44.552C50.9465 40.776 49.0905 38.024 46.6585 36.296C44.2265 34.504 41.0585 33.608 37.1545 33.608C33.2505 33.608 29.8265 34.536 26.8825 36.392C23.9385 38.248 21.6345 40.936 19.9705 44.456C18.3705 47.976 17.5705 52.264 17.5705 57.32C17.5705 62.312 18.3385 66.6 19.8745 70.184C21.4105 73.704 23.6185 76.392 26.4985 78.248C29.3785 80.104 32.8345 81.032 36.8665 81.032C40.7705 81.032 44.1305 80.04 46.9465 78.056C49.8265 76.008 51.8745 72.968 53.0905 68.936L62.8825 72.2ZM91.5475 40.04C96.2195 40.04 100.348 41.032 103.932 43.016C107.516 45 110.3 47.88 112.284 51.656C114.332 55.368 115.356 59.816 115.356 65C115.356 70.184 114.332 74.664 112.284 78.44C110.3 82.152 107.516 85 103.932 86.984C100.348 88.968 96.2195 89.96 91.5475 89.96C86.8755 89.96 82.7475 88.968 79.1635 86.984C75.5795 85 72.7635 82.152 70.7155 78.44C68.6675 74.664 67.6435 70.184 67.6435 65C67.6435 59.816 68.6675 55.368 70.7155 51.656C72.7635 47.88 75.5795 45 79.1635 43.016C82.7475 41.032 86.8755 40.04 91.5475 40.04ZM91.5475 48.104C88.6675 48.104 86.2035 48.776 84.1555 50.12C82.1715 51.4 80.6355 53.288 79.5475 55.784C78.4595 58.28 77.9155 61.352 77.9155 65C77.9155 68.584 78.4595 71.656 79.5475 74.216C80.6355 76.712 82.1715 78.632 84.1555 79.976C86.2035 81.256 88.6675 81.896 91.5475 81.896C94.4275 81.896 96.8595 81.256 98.8435 79.976C100.828 78.632 102.364 76.712 103.452 74.216C104.54 71.656 105.084 68.584 105.084 65C105.084 61.352 104.54 58.28 103.452 55.784C102.364 53.288 100.828 51.4 98.8435 50.12C96.8595 48.776 94.4275 48.104 91.5475 48.104ZM125.014 89V41H129.334L129.718 53L128.95 52.328C129.846 49.704 131.19 47.496 132.982 45.704C134.774 43.848 136.918 42.44 139.414 41.48C141.91 40.52 144.598 40.04 147.478 40.04C151.062 40.04 154.23 40.712 156.982 42.056C159.734 43.4 161.878 45.384 163.414 48.008C165.014 50.632 165.814 53.928 165.814 57.896V89H161.014V59.432C161.014 54.184 159.702 50.344 157.078 47.912C154.518 45.48 151.158 44.264 146.998 44.264C143.99 44.264 141.174 44.968 138.55 46.376C135.99 47.72 133.878 49.704 132.214 52.328C130.614 54.952 129.814 58.152 129.814 61.928V89H125.014ZM178.549 89V41H182.869L183.253 53L182.485 52.328C183.381 49.704 184.725 47.496 186.517 45.704C188.309 43.848 190.453 42.44 192.949 41.48C195.445 40.52 198.133 40.04 201.013 40.04C204.597 40.04 207.765 40.712 210.517 42.056C213.269 43.4 215.413 45.384 216.949 48.008C218.549 50.632 219.349 53.928 219.349 57.896V89H214.549V59.432C214.549 54.184 213.237 50.344 210.613 47.912C208.053 45.48 204.693 44.264 200.533 44.264C197.525 44.264 194.709 44.968 192.085 46.376C189.525 47.72 187.413 49.704 185.749 52.328C184.149 54.952 183.349 58.152 183.349 61.928V89H178.549ZM251.668 89.96C247.252 89.96 243.316 88.968 239.86 86.984C236.404 85 233.684 82.152 231.7 78.44C229.78 74.664 228.82 70.184 228.82 65C228.82 59.816 229.78 55.368 231.7 51.656C233.684 47.88 236.34 45 239.668 43.016C242.996 41.032 246.804 40.04 251.092 40.04C255.444 40.04 259.156 41 262.228 42.92C265.3 44.84 267.668 47.528 269.332 50.984C270.996 54.376 271.828 58.312 271.828 62.792C271.828 63.368 271.796 63.944 271.732 64.52C271.732 65.032 271.7 65.512 271.636 65.96H231.796V61.64H269.524L267.124 62.312C267.06 56.808 265.588 52.424 262.708 49.16C259.892 45.896 255.988 44.264 250.996 44.264C247.54 44.264 244.5 45.096 241.876 46.76C239.252 48.36 237.204 50.728 235.732 53.864C234.26 56.936 233.524 60.648 233.524 65C233.524 69.288 234.26 73 235.732 76.136C237.268 79.272 239.38 81.672 242.068 83.336C244.82 84.936 247.988 85.736 251.572 85.736C255.284 85.736 258.452 84.936 261.076 83.336C263.764 81.736 265.844 79.528 267.316 76.712L271.156 78.92C270.004 81.224 268.468 83.208 266.548 84.872C264.628 86.472 262.42 87.72 259.924 88.616C257.428 89.512 254.676 89.96 251.668 89.96ZM301.074 40.04C304.338 40.04 307.25 40.552 309.81 41.576C312.37 42.6 314.546 44.072 316.338 45.992C318.13 47.912 319.506 50.248 320.466 53L315.954 55.112C314.93 51.656 313.138 49 310.578 47.144C308.082 45.224 304.882 44.264 300.978 44.264C297.458 44.264 294.354 45.096 291.666 46.76C288.978 48.36 286.898 50.728 285.426 53.864C283.954 56.936 283.218 60.648 283.218 65C283.218 69.288 283.954 73 285.426 76.136C286.898 79.272 288.946 81.672 291.57 83.336C294.194 84.936 297.298 85.736 300.882 85.736C303.57 85.736 306.002 85.288 308.178 84.392C310.418 83.496 312.242 82.184 313.65 80.456C315.122 78.728 316.082 76.68 316.53 74.312L320.946 75.848C320.114 78.792 318.738 81.32 316.818 83.432C314.962 85.544 312.69 87.176 310.002 88.328C307.314 89.416 304.306 89.96 300.978 89.96C296.626 89.96 292.722 88.968 289.266 86.984C285.874 85 283.218 82.152 281.298 78.44C279.378 74.664 278.418 70.184 278.418 65C278.418 59.816 279.378 55.368 281.298 51.656C283.282 47.88 285.97 45 289.362 43.016C292.818 41.032 296.722 40.04 301.074 40.04ZM337.935 27.656V76.328C337.935 79.336 338.639 81.64 340.047 83.24C341.519 84.776 343.631 85.544 346.383 85.544C348.175 85.544 349.743 85.256 351.087 84.68C352.495 84.04 353.743 83.144 354.831 81.992L356.655 85.928C355.439 87.144 353.903 88.136 352.047 88.904C350.191 89.608 348.111 89.96 345.807 89.96C343.311 89.96 341.103 89.512 339.183 88.616C337.263 87.656 335.759 86.216 334.671 84.296C333.647 82.376 333.135 79.944 333.135 77V29L337.935 27.656ZM355.887 41V45.128H323.535V41H355.887ZM364.714 31.688C363.498 31.688 362.506 31.336 361.738 30.632C361.034 29.864 360.682 28.872 360.682 27.656C360.682 26.44 361.034 25.48 361.738 24.776C362.506 24.008 363.498 23.624 364.714 23.624C365.93 23.624 366.89 24.008 367.594 24.776C368.362 25.48 368.746 26.44 368.746 27.656C368.746 28.872 368.362 29.864 367.594 30.632C366.89 31.336 365.93 31.688 364.714 31.688ZM367.114 41V89H362.314V41H367.114ZM399.902 40.04C404.382 40.04 408.318 41.032 411.71 43.016C415.166 45 417.854 47.88 419.774 51.656C421.758 55.368 422.75 59.816 422.75 65C422.75 70.184 421.758 74.664 419.774 78.44C417.854 82.152 415.166 85 411.71 86.984C408.318 88.968 404.382 89.96 399.902 89.96C395.422 89.96 391.454 88.968 387.998 86.984C384.606 85 381.918 82.152 379.934 78.44C378.014 74.664 377.054 70.184 377.054 65C377.054 59.816 378.014 55.368 379.934 51.656C381.918 47.88 384.606 45 387.998 43.016C391.454 41.032 395.422 40.04 399.902 40.04ZM399.902 44.168C396.254 44.168 393.086 45 390.398 46.664C387.71 48.328 385.598 50.728 384.062 53.864C382.59 56.936 381.854 60.648 381.854 65C381.854 69.288 382.59 73 384.062 76.136C385.598 79.272 387.71 81.672 390.398 83.336C393.086 85 396.254 85.832 399.902 85.832C403.55 85.832 406.718 85 409.406 83.336C412.094 81.672 414.174 79.272 415.646 76.136C417.182 73 417.95 69.288 417.95 65C417.95 60.648 417.182 56.936 415.646 53.864C414.174 50.728 412.094 48.328 409.406 46.664C406.718 45 403.55 44.168 399.902 44.168ZM432.634 89V41H436.954L437.338 53L436.57 52.328C437.466 49.704 438.81 47.496 440.602 45.704C442.394 43.848 444.538 42.44 447.034 41.48C449.53 40.52 452.218 40.04 455.098 40.04C458.682 40.04 461.85 40.712 464.602 42.056C467.354 43.4 469.498 45.384 471.034 48.008C472.634 50.632 473.434 53.928 473.434 57.896V89H468.634V59.432C468.634 54.184 467.322 50.344 464.698 47.912C462.138 45.48 458.778 44.264 454.618 44.264C451.61 44.264 448.794 44.968 446.17 46.376C443.61 47.72 441.498 49.704 439.834 52.328C438.234 54.952 437.434 58.152 437.434 61.928V89H432.634ZM502.393 89.96C497.529 89.96 493.209 88.968 489.433 86.984C485.721 85 483.097 82.152 481.561 78.44L485.689 75.656C486.841 78.856 488.889 81.352 491.833 83.144C494.841 84.872 498.489 85.736 502.777 85.736C507.001 85.736 510.297 84.904 512.665 83.24C515.097 81.576 516.313 79.368 516.313 76.616C516.313 74.76 515.705 73.16 514.489 71.816C513.337 70.408 511.129 69.352 507.865 68.648L496.633 66.248C492.025 65.288 488.729 63.752 486.745 61.64C484.825 59.464 483.865 56.84 483.865 53.768C483.865 51.208 484.633 48.904 486.169 46.856C487.705 44.808 489.817 43.176 492.505 41.96C495.257 40.68 498.457 40.04 502.105 40.04C506.905 40.04 510.873 41 514.009 42.92C517.145 44.776 519.353 47.592 520.633 51.368L516.601 53.96C515.641 50.568 513.849 48.104 511.225 46.568C508.665 45.032 505.625 44.264 502.105 44.264C499.417 44.264 497.049 44.68 495.001 45.512C493.017 46.28 491.449 47.368 490.297 48.776C489.209 50.12 488.665 51.688 488.665 53.48C488.665 55.336 489.305 57.032 490.585 58.568C491.865 60.04 494.137 61.128 497.401 61.832L508.921 64.328C513.465 65.288 516.633 66.76 518.425 68.744C520.217 70.664 521.113 73.064 521.113 75.944C521.113 78.824 520.345 81.32 518.809 83.432C517.273 85.544 515.097 87.176 512.281 88.328C509.465 89.416 506.169 89.96 502.393 89.96Z" fill="white"/>
<path d="M575.216 88.056C572.976 88.056 570.928 87.7253 569.072 87.064C567.237 86.4027 565.509 85.3573 563.888 83.928C562.267 82.4987 560.688 80.6427 559.152 78.36C557.637 76.12 556.389 73.944 555.408 71.832C554.427 69.72 553.691 67.64 553.2 65.592C552.731 63.5227 552.496 61.464 552.496 59.416C552.496 57.048 552.955 54.9253 553.872 53.048C554.811 51.1707 556.133 49.6987 557.84 48.632C559.568 47.544 561.605 47 563.952 47C565.701 47 567.227 47.352 568.528 48.056C569.851 48.76 570.875 49.7307 571.6 50.968C572.347 52.2053 572.72 53.624 572.72 55.224C572.72 57.336 572.165 59.1813 571.056 60.76C569.947 62.3173 568.357 63.5653 566.288 64.504C564.219 65.4427 561.733 66.04 558.832 66.296L558.608 65.304C560.357 65.0693 561.872 64.536 563.152 63.704C564.453 62.8507 565.456 61.688 566.16 60.216C566.885 58.744 567.248 56.9413 567.248 54.808C567.248 52.9093 566.917 51.3733 566.256 50.2C565.616 49.0267 564.72 48.44 563.568 48.44C562.053 48.44 560.784 49.208 559.76 50.744C558.757 52.2587 558.256 54.296 558.256 56.856C558.256 58.8827 558.512 60.9093 559.024 62.936C559.536 64.9413 560.283 66.9573 561.264 68.984C562.267 70.9893 563.472 73.0053 564.88 75.032C566.587 77.5067 568.144 79.4907 569.552 80.984C570.96 82.4773 572.325 83.5653 573.648 84.248C574.992 84.9093 576.421 85.24 577.936 85.24C579.963 85.24 581.776 84.7387 583.376 83.736C584.976 82.712 586.224 81.176 587.12 79.128C588.037 77.0587 588.496 74.4453 588.496 71.288C588.496 67.3413 587.824 63.4693 586.48 59.672C585.136 55.8747 583.013 52.4187 580.112 49.304C577.36 46.3173 574.213 43.992 570.672 42.328C567.131 40.664 563.259 39.832 559.056 39.832C555.728 39.832 552.955 40.312 550.736 41.272C548.517 42.2107 546.853 43.4907 545.744 45.112C544.656 46.712 544.112 48.5147 544.112 50.52C544.112 51.3947 544.229 52.1307 544.464 52.728C544.72 53.304 544.997 53.8373 545.296 54.328C545.616 54.7973 545.893 55.2987 546.128 55.832C546.363 56.3653 546.48 57.016 546.48 57.784C546.48 58.6587 546.171 59.3947 545.552 59.992C544.955 60.568 544.187 60.856 543.248 60.856C541.947 60.856 540.912 60.28 540.144 59.128C539.397 57.9547 539.024 56.376 539.024 54.392C539.024 51.1493 539.824 48.3227 541.424 45.912C543.045 43.5013 545.36 41.6347 548.368 40.312C551.397 38.9893 555.003 38.328 559.184 38.328C563.557 38.328 567.621 39.1813 571.376 40.888C575.131 42.5947 578.48 45.0267 581.424 48.184C584.368 51.2987 586.576 54.8293 588.048 58.776C589.52 62.7013 590.256 66.8293 590.256 71.16C590.256 74.7867 589.648 77.8587 588.432 80.376C587.216 82.8933 585.488 84.8027 583.248 86.104C581.008 87.4053 578.331 88.056 575.216 88.056ZM568.496 80.952C569.968 79.8213 571.131 78.7227 571.984 77.656C572.859 76.5893 573.488 75.576 573.872 74.616C574.277 73.6347 574.48 72.728 574.48 71.896C574.48 71.128 574.363 70.488 574.128 69.976C573.915 69.4427 573.701 68.9413 573.488 68.472C573.275 68.0027 573.168 67.4693 573.168 66.872C573.168 65.976 573.467 65.208 574.064 64.568C574.683 63.928 575.461 63.608 576.4 63.608C577.381 63.608 578.181 64.0027 578.8 64.792C579.44 65.56 579.76 66.6587 579.76 68.088C579.76 70.6267 578.885 73.0587 577.136 75.384C575.408 77.688 572.763 79.8213 569.2 81.784L568.496 80.952ZM554.288 66.776C552.411 67.0747 550.843 67.6933 549.584 68.632C548.325 69.5707 547.387 70.712 546.768 72.056C546.149 73.4 545.84 74.8293 545.84 76.344C545.84 79.0747 546.597 81.24 548.112 82.84C549.648 84.4187 551.696 85.208 554.256 85.208C556.091 85.208 557.691 84.92 559.056 84.344C560.443 83.7467 561.744 82.968 562.96 82.008L563.792 83.128C562.704 84.088 561.52 84.9307 560.24 85.656C558.981 86.36 557.563 86.904 555.984 87.288C554.405 87.6933 552.613 87.896 550.608 87.896C546.917 87.896 544.037 87.0213 541.968 85.272C539.92 83.5013 538.896 81.08 538.896 78.008C538.896 75.7893 539.472 73.7947 540.624 72.024C541.776 70.2533 543.493 68.8133 545.776 67.704C548.059 66.5947 550.907 65.9013 554.32 65.624L554.288 66.776Z" fill="white"/>
<path d="M608.408 89V25.64H633.368C640.984 25.64 646.552 27.176 650.072 30.248C653.592 33.32 655.352 37.576 655.352 43.016C655.352 46.344 654.392 49.32 652.472 51.944C650.552 54.504 647.736 56.136 644.024 56.84V56.936C648.12 57.576 651.288 59.272 653.528 62.024C655.832 64.712 656.984 67.848 656.984 71.432C656.984 76.872 655 81.16 651.032 84.296C647.064 87.432 641.304 89 633.752 89H608.408ZM618.488 80.456H634.232C638.264 80.456 641.272 79.624 643.256 77.96C645.304 76.296 646.328 73.96 646.328 70.952C646.328 67.944 645.304 65.608 643.256 63.944C641.272 62.28 638.264 61.448 634.232 61.448H618.488V80.456ZM618.488 52.904H632.6C640.664 52.904 644.696 49.8 644.696 43.592C644.696 37.384 640.664 34.28 632.6 34.28H618.488V52.904ZM687.523 40.04C692.195 40.04 696.323 41.032 699.907 43.016C703.491 45 706.275 47.88 708.259 51.656C710.307 55.368 711.331 59.816 711.331 65C711.331 70.184 710.307 74.664 708.259 78.44C706.275 82.152 703.491 85 699.907 86.984C696.323 88.968 692.195 89.96 687.523 89.96C682.851 89.96 678.723 88.968 675.139 86.984C671.555 85 668.739 82.152 666.691 78.44C664.643 74.664 663.619 70.184 663.619 65C663.619 59.816 664.643 55.368 666.691 51.656C668.739 47.88 671.555 45 675.139 43.016C678.723 41.032 682.851 40.04 687.523 40.04ZM687.523 48.104C684.643 48.104 682.179 48.776 680.131 50.12C678.147 51.4 676.611 53.288 675.523 55.784C674.435 58.28 673.891 61.352 673.891 65C673.891 68.584 674.435 71.656 675.523 74.216C676.611 76.712 678.147 78.632 680.131 79.976C682.179 81.256 684.643 81.896 687.523 81.896C690.403 81.896 692.835 81.256 694.819 79.976C696.803 78.632 698.339 76.712 699.427 74.216C700.515 71.656 701.059 68.584 701.059 65C701.059 61.352 700.515 58.28 699.427 55.784C698.339 53.288 696.803 51.4 694.819 50.12C692.835 48.776 690.403 48.104 687.523 48.104ZM720.989 89V41H725.309L725.693 53L724.925 52.328C725.821 49.704 727.165 47.496 728.957 45.704C730.749 43.848 732.893 42.44 735.389 41.48C737.885 40.52 740.573 40.04 743.453 40.04C747.037 40.04 750.205 40.712 752.957 42.056C755.709 43.4 757.853 45.384 759.389 48.008C760.989 50.632 761.789 53.928 761.789 57.896V89H756.989V59.432C756.989 54.184 755.677 50.344 753.053 47.912C750.493 45.48 747.133 44.264 742.973 44.264C739.965 44.264 737.149 44.968 734.525 46.376C731.965 47.72 729.853 49.704 728.189 52.328C726.589 54.952 725.789 58.152 725.789 61.928V89H720.989ZM793.244 89.96C789.084 89.96 785.34 88.968 782.012 86.984C778.684 85 776.06 82.152 774.14 78.44C772.284 74.664 771.356 70.184 771.356 65C771.356 59.688 772.348 55.176 774.332 51.464C776.316 47.752 779.004 44.936 782.396 43.016C785.788 41.032 789.532 40.04 793.628 40.04C798.108 40.04 801.916 41.224 805.052 43.592C808.252 45.96 810.396 49.256 811.484 53.48L810.908 53.864V18.92H815.708V89H811.388L811.1 75.656L811.676 75.464C811.1 78.536 809.916 81.16 808.124 83.336C806.396 85.512 804.22 87.176 801.596 88.328C799.036 89.416 796.252 89.96 793.244 89.96ZM793.82 85.736C797.212 85.736 800.188 84.904 802.748 83.24C805.308 81.512 807.292 79.048 808.7 75.848C810.172 72.648 810.908 68.904 810.908 64.616C810.908 60.392 810.172 56.776 808.7 53.768C807.292 50.696 805.308 48.36 802.748 46.76C800.252 45.096 797.34 44.264 794.012 44.264C788.508 44.264 784.156 46.12 780.956 49.832C777.756 53.544 776.156 58.6 776.156 65C776.156 71.4 777.724 76.456 780.86 80.168C784.06 83.88 788.38 85.736 793.82 85.736ZM831.397 31.688C830.181 31.688 829.188 31.336 828.42 30.632C827.716 29.864 827.364 28.872 827.364 27.656C827.364 26.44 827.716 25.48 828.42 24.776C829.188 24.008 830.181 23.624 831.397 23.624C832.612 23.624 833.572 24.008 834.277 24.776C835.044 25.48 835.428 26.44 835.428 27.656C835.428 28.872 835.044 29.864 834.277 30.632C833.572 31.336 832.612 31.688 831.397 31.688ZM833.797 41V89H828.996V41H833.797ZM847 89V41H851.32L851.704 53L850.936 52.328C851.832 49.704 853.176 47.496 854.968 45.704C856.76 43.848 858.904 42.44 861.4 41.48C863.896 40.52 866.584 40.04 869.464 40.04C873.048 40.04 876.216 40.712 878.968 42.056C881.72 43.4 883.864 45.384 885.4 48.008C887 50.632 887.8 53.928 887.8 57.896V89H883V59.432C883 54.184 881.688 50.344 879.064 47.912C876.504 45.48 873.144 44.264 868.984 44.264C865.976 44.264 863.16 44.968 860.536 46.376C857.976 47.72 855.864 49.704 854.2 52.328C852.6 54.952 851.8 58.152 851.8 61.928V89H847ZM940.279 32.168L941.431 36.392C941.367 36.392 941.303 36.392 941.239 36.392C941.175 36.392 941.079 36.392 940.951 36.392C937.815 36.392 935.383 37.224 933.655 38.888C931.991 40.488 931.159 42.76 931.159 45.704L928.087 44.168C928.087 41.736 928.599 39.624 929.623 37.832C930.647 36.04 932.055 34.664 933.847 33.704C935.639 32.68 937.655 32.168 939.895 32.168C940.023 32.168 940.087 32.168 940.087 32.168C940.151 32.168 940.215 32.168 940.279 32.168ZM925.111 84.104C929.847 84.104 933.559 85.096 936.247 87.08C938.935 89.064 940.279 91.72 940.279 95.048C940.279 97.992 939.287 100.552 937.303 102.728C935.383 104.904 932.727 106.6 929.335 107.816C925.943 109.032 922.071 109.64 917.719 109.64C910.487 109.64 904.951 108.392 901.111 105.896C897.271 103.464 895.351 100.392 895.351 96.68C895.351 93.992 896.311 91.656 898.231 89.672C900.215 87.688 903.095 86.504 906.871 86.12L906.487 86.984C904.439 86.408 902.615 85.448 901.015 84.104C899.479 82.76 898.711 80.84 898.711 78.344C898.711 75.656 899.703 73.48 901.687 71.816C903.735 70.088 906.423 69.096 909.751 68.84L914.839 70.568H912.823C909.879 70.76 907.511 71.496 905.719 72.776C903.991 73.992 903.127 75.592 903.127 77.576C903.127 79.752 903.959 81.384 905.623 82.472C907.351 83.56 909.527 84.104 912.151 84.104H925.111ZM917.719 105.608C921.495 105.608 924.727 105.16 927.415 104.264C930.103 103.368 932.151 102.152 933.559 100.616C935.031 99.144 935.767 97.48 935.767 95.624C935.767 93.384 934.775 91.592 932.791 90.248C930.871 88.904 927.927 88.232 923.959 88.232H910.327C907.319 88.232 904.823 88.936 902.839 90.344C900.855 91.752 899.863 93.64 899.863 96.008C899.863 98.888 901.431 101.192 904.567 102.92C907.767 104.712 912.151 105.608 917.719 105.608ZM917.047 40.04C920.823 40.04 924.151 40.712 927.031 42.056C929.975 43.336 932.247 45.16 933.847 47.528C935.447 49.832 936.247 52.552 936.247 55.688C936.247 58.76 935.447 61.512 933.847 63.944C932.247 66.312 929.975 68.168 927.031 69.512C924.151 70.792 920.823 71.432 917.047 71.432C910.967 71.432 906.199 69.992 902.743 67.112C899.351 64.168 897.655 60.36 897.655 55.688C897.655 52.552 898.455 49.832 900.055 47.528C901.719 45.16 903.991 43.336 906.871 42.056C909.815 40.712 913.207 40.04 917.047 40.04ZM917.047 43.976C912.823 43.976 909.367 45.064 906.679 47.24C903.991 49.352 902.647 52.168 902.647 55.688C902.647 59.208 903.991 62.056 906.679 64.232C909.367 66.408 912.823 67.496 917.047 67.496C921.271 67.496 924.695 66.408 927.319 64.232C930.007 62.056 931.351 59.208 931.351 55.688C931.351 52.168 930.007 49.352 927.319 47.24C924.695 45.064 921.271 43.976 917.047 43.976Z" fill="white"/>
</svg>
