<svg width="350" height="34" viewBox="0 0 350 34" fill="none" xmlns="http://www.w3.org/2000/svg">
<path d="M307.326 23.776C308.809 24.0107 309.982 24.3147 310.846 24.688C311.71 25.0613 312.323 25.5093 312.686 26.032C313.049 26.5653 313.23 27.1947 313.23 27.92C313.23 29.2853 312.521 30.4 311.102 31.264C309.683 32.128 307.641 32.56 304.974 32.56C303.171 32.56 301.721 32.3947 300.622 32.064C299.523 31.744 298.723 31.3067 298.222 30.752C297.731 30.1973 297.486 29.568 297.486 28.864C297.486 27.9893 297.913 27.2 298.766 26.496C299.619 25.792 301.123 25.3067 303.278 25.04L303.582 25.488C302.419 25.6373 301.539 25.9627 300.942 26.464C300.355 26.9653 300.062 27.536 300.062 28.176C300.062 29.1467 300.473 29.936 301.294 30.544C302.115 31.152 303.507 31.456 305.47 31.456C306.59 31.456 307.507 31.3493 308.222 31.136C308.937 30.9333 309.465 30.6347 309.806 30.24C310.147 29.8453 310.318 29.3813 310.318 28.848C310.318 28.4427 310.179 28.08 309.902 27.76C309.635 27.4507 309.15 27.168 308.446 26.912C307.753 26.656 306.766 26.416 305.486 26.192C303.929 25.9253 302.745 25.648 301.934 25.36C301.134 25.0827 300.585 24.7733 300.286 24.432C299.998 24.08 299.854 23.68 299.854 23.232C299.854 22.848 299.955 22.4853 300.158 22.144C300.361 21.8027 300.707 21.4987 301.198 21.232C301.689 20.9547 302.366 20.7467 303.23 20.608L303.614 20.816C303.219 20.9973 302.937 21.1787 302.766 21.36C302.606 21.5413 302.526 21.7387 302.526 21.952C302.526 22.144 302.617 22.336 302.798 22.528C302.979 22.7093 303.406 22.9013 304.078 23.104C304.761 23.296 305.843 23.52 307.326 23.776ZM307.998 11.072L308.494 10.16C308.942 9.27465 309.475 8.60799 310.094 8.15998C310.713 7.70132 311.374 7.47198 312.078 7.47198C312.686 7.47198 313.177 7.63732 313.55 7.96799C313.923 8.29865 314.11 8.74132 314.11 9.29599C314.11 9.76532 313.993 10.144 313.758 10.432C313.534 10.7093 313.225 10.848 312.83 10.848C312.542 10.848 312.313 10.7787 312.142 10.64C311.971 10.4907 311.817 10.3253 311.678 10.144C311.55 9.95199 311.406 9.78665 311.246 9.64799C311.097 9.49865 310.894 9.42399 310.638 9.42399C310.329 9.42399 310.041 9.54665 309.774 9.79198C309.518 10.0373 309.187 10.5173 308.782 11.232L307.998 11.072ZM311.966 15.2C311.966 16.4053 311.662 17.4667 311.054 18.384C310.457 19.2907 309.619 20 308.542 20.512C307.475 21.024 306.254 21.28 304.878 21.28C303.513 21.28 302.318 21.0293 301.294 20.528C300.281 20.0267 299.486 19.3493 298.91 18.496C298.345 17.632 298.062 16.6667 298.062 15.6C298.062 14.3947 298.361 13.3387 298.958 12.432C299.566 11.5147 300.403 10.8 301.47 10.288C302.537 9.76532 303.769 9.50399 305.166 9.50399C306.542 9.50399 307.737 9.75465 308.75 10.256C309.763 10.7573 310.553 11.44 311.118 12.304C311.683 13.1573 311.966 14.1227 311.966 15.2ZM304.558 10.56C303.854 10.5813 303.267 10.784 302.798 11.168C302.329 11.5413 301.987 12.08 301.774 12.784C301.561 13.488 301.486 14.3307 301.55 15.312C301.625 16.3253 301.833 17.2053 302.174 17.952C302.515 18.6987 302.963 19.264 303.518 19.648C304.083 20.032 304.729 20.2133 305.454 20.192C306.51 20.1493 307.299 19.7173 307.822 18.896C308.355 18.064 308.569 16.912 308.462 15.44C308.355 13.904 307.95 12.6987 307.246 11.824C306.553 10.9387 305.657 10.5173 304.558 10.56Z" fill="white"/>
<path d="M284.671 10.352V22.656C284.671 22.9227 284.719 23.1253 284.815 23.264C284.922 23.4027 285.076 23.4987 285.279 23.552L286.031 23.728C286.34 23.824 286.495 23.984 286.495 24.208C286.495 24.5493 286.271 24.72 285.823 24.72H280.095C279.871 24.72 279.706 24.6773 279.599 24.592C279.492 24.5067 279.439 24.3893 279.439 24.24C279.439 24.112 279.482 24.0107 279.567 23.936C279.652 23.8507 279.78 23.7813 279.951 23.728L280.735 23.552C280.938 23.4987 281.092 23.408 281.199 23.28C281.306 23.1413 281.359 22.9387 281.359 22.672V12.528C281.359 12.304 281.322 12.144 281.247 12.048C281.172 11.952 281.044 11.8933 280.863 11.872L279.775 11.84C279.604 11.808 279.482 11.76 279.407 11.696C279.332 11.6213 279.295 11.5253 279.295 11.408C279.295 11.28 279.338 11.1787 279.423 11.104C279.508 11.0187 279.658 10.9387 279.871 10.864L282.655 9.90398C282.964 9.79732 283.215 9.72265 283.407 9.67999C283.599 9.62665 283.77 9.59999 283.919 9.59999C284.175 9.59999 284.362 9.66932 284.479 9.80799C284.607 9.93599 284.671 10.1173 284.671 10.352ZM284.239 13.712L283.663 13.12L284.351 12.528C285.588 11.4293 286.65 10.6453 287.535 10.176C288.431 9.70665 289.29 9.47198 290.111 9.47198C291.37 9.47198 292.34 9.88799 293.023 10.72C293.716 11.552 294.143 12.6827 294.303 14.112L295.311 22.592C295.343 22.88 295.407 23.104 295.503 23.264C295.61 23.4133 295.775 23.5147 295.999 23.568L296.687 23.728C296.858 23.7813 296.98 23.8507 297.055 23.936C297.14 24.0107 297.183 24.112 297.183 24.24C297.183 24.3893 297.13 24.5067 297.023 24.592C296.927 24.6773 296.767 24.72 296.543 24.72H290.767C290.308 24.72 290.079 24.5493 290.079 24.208C290.079 23.984 290.234 23.824 290.543 23.728L291.327 23.552C291.551 23.4987 291.722 23.3973 291.839 23.248C291.956 23.0987 291.999 22.88 291.967 22.592L290.991 14.608C290.863 13.552 290.591 12.7627 290.175 12.24C289.759 11.7067 289.151 11.44 288.351 11.44C287.85 11.44 287.316 11.5787 286.751 11.856C286.196 12.1333 285.583 12.5547 284.911 13.12L284.239 13.712Z" fill="white"/>
<path d="M276.272 10.352V22.656C276.272 22.9226 276.32 23.1253 276.416 23.264C276.523 23.4026 276.677 23.4986 276.88 23.552L277.632 23.712C277.813 23.7653 277.947 23.8346 278.032 23.92C278.117 24.0053 278.16 24.112 278.16 24.24C278.16 24.3893 278.101 24.5066 277.984 24.592C277.877 24.6773 277.712 24.72 277.488 24.72H271.696C271.472 24.72 271.307 24.6773 271.2 24.592C271.093 24.5066 271.04 24.3893 271.04 24.24C271.04 24.112 271.083 24.0106 271.168 23.936C271.253 23.8506 271.381 23.7813 271.552 23.728L272.336 23.552C272.539 23.4986 272.688 23.408 272.784 23.28C272.891 23.1413 272.944 22.9386 272.944 22.672V12.528C272.944 12.304 272.907 12.144 272.832 12.048C272.757 11.952 272.635 11.8933 272.464 11.872L271.36 11.84C271.2 11.808 271.083 11.76 271.008 11.696C270.933 11.6213 270.896 11.5253 270.896 11.408C270.896 11.28 270.939 11.1786 271.024 11.104C271.109 11.0186 271.259 10.9386 271.472 10.864L274.256 9.90396C274.576 9.78663 274.827 9.70663 275.008 9.66396C275.2 9.6213 275.365 9.59996 275.504 9.59996C275.76 9.59996 275.952 9.6693 276.08 9.80796C276.208 9.93596 276.272 10.1173 276.272 10.352ZM274.288 6.65596C273.605 6.65596 273.056 6.4693 272.64 6.09596C272.224 5.71196 272.016 5.22663 272.016 4.63996C272.016 4.04263 272.224 3.55729 272.64 3.18396C273.067 2.81063 273.616 2.62396 274.288 2.62396C274.96 2.62396 275.509 2.81596 275.936 3.19996C276.363 3.5733 276.576 4.0533 276.576 4.63996C276.576 5.22663 276.363 5.71196 275.936 6.09596C275.509 6.4693 274.96 6.65596 274.288 6.65596Z" fill="white"/>
<path d="M261.489 11.04L260.577 10.816C260.332 10.7413 260.161 10.6613 260.065 10.576C259.98 10.4906 259.937 10.3893 259.937 10.272C259.937 10.1226 259.99 10.0106 260.097 9.93596C260.204 9.85063 260.348 9.80796 260.529 9.80796H261.601C261.857 9.80796 262.065 9.7653 262.225 9.67996C262.385 9.59463 262.529 9.43996 262.657 9.21596L264.049 6.81596C264.188 6.59196 264.332 6.43196 264.481 6.33596C264.63 6.2293 264.785 6.17596 264.945 6.17596C265.116 6.17596 265.244 6.2293 265.329 6.33596C265.425 6.44263 265.473 6.59196 265.473 6.78396V20.832C265.473 21.5786 265.628 22.1493 265.937 22.544C266.246 22.928 266.668 23.12 267.201 23.12C267.574 23.12 267.868 23.0613 268.081 22.944C268.294 22.816 268.465 22.6666 268.593 22.496C268.732 22.3253 268.854 22.1706 268.961 22.032C269.078 21.8933 269.212 21.808 269.361 21.776C269.489 21.7653 269.585 21.8026 269.649 21.888C269.724 21.9626 269.761 22.0906 269.761 22.272C269.74 22.7413 269.564 23.184 269.233 23.6C268.913 24.016 268.47 24.352 267.905 24.608C267.34 24.864 266.694 24.992 265.969 24.992C264.806 24.992 263.878 24.6933 263.185 24.096C262.502 23.488 262.161 22.576 262.161 21.36V11.904C262.161 11.6586 262.113 11.472 262.017 11.344C261.921 11.216 261.745 11.1146 261.489 11.04ZM264.033 10.96V9.80796H269.009C269.212 9.80796 269.366 9.8453 269.473 9.91996C269.58 9.99463 269.633 10.1066 269.633 10.256C269.633 10.4586 269.526 10.6293 269.313 10.768C269.11 10.896 268.785 10.96 268.337 10.96H264.033Z" fill="white"/>
<path d="M253.408 24C254.197 24 254.821 23.792 255.28 23.376C255.749 22.9493 255.984 22.4053 255.984 21.744C255.984 21.328 255.883 20.9547 255.68 20.624C255.488 20.2827 255.136 19.9787 254.624 19.712C254.123 19.4347 253.408 19.1733 252.48 18.928C251.029 18.5867 249.893 18.1707 249.072 17.68C248.261 17.1893 247.685 16.6293 247.344 16C247.013 15.3707 246.848 14.6827 246.848 13.936C246.848 12.5813 247.328 11.4987 248.288 10.688C249.248 9.87732 250.613 9.47198 252.384 9.47198C253.056 9.47198 253.605 9.53065 254.032 9.64799C254.469 9.76532 254.827 9.88799 255.104 10.016C255.392 10.1333 255.637 10.192 255.84 10.192C256.043 10.192 256.203 10.1333 256.32 10.016C256.448 9.88799 256.565 9.76532 256.672 9.64799C256.789 9.53065 256.939 9.47198 257.12 9.47198C257.248 9.47198 257.36 9.51465 257.456 9.59999C257.552 9.67465 257.632 9.81865 257.696 10.032L258.848 13.504C258.933 13.7707 258.96 13.9947 258.928 14.176C258.896 14.3467 258.784 14.4693 258.592 14.544C258.421 14.6187 258.267 14.6187 258.128 14.544C257.989 14.4693 257.861 14.3413 257.744 14.16C257.275 13.2533 256.763 12.5387 256.208 12.016C255.653 11.4933 255.067 11.12 254.448 10.896C253.84 10.672 253.205 10.56 252.544 10.56C251.541 10.56 250.789 10.7733 250.288 11.2C249.787 11.6267 249.536 12.1973 249.536 12.912C249.536 13.3387 249.643 13.728 249.856 14.08C250.069 14.432 250.459 14.7573 251.024 15.056C251.589 15.3547 252.389 15.6373 253.424 15.904C254.704 16.2133 255.723 16.592 256.48 17.04C257.237 17.488 257.781 18.0213 258.112 18.64C258.453 19.2587 258.624 19.984 258.624 20.816C258.624 21.648 258.411 22.3893 257.984 23.04C257.568 23.68 256.976 24.1813 256.208 24.544C255.451 24.9067 254.565 25.088 253.552 25.088C252.901 25.088 252.373 25.0187 251.968 24.88C251.563 24.7413 251.227 24.6027 250.96 24.464C250.693 24.3253 250.443 24.256 250.208 24.256C250.005 24.256 249.84 24.3253 249.712 24.464C249.584 24.592 249.461 24.7253 249.344 24.864C249.227 25.0133 249.083 25.088 248.912 25.088C248.795 25.088 248.693 25.0453 248.608 24.96C248.523 24.8747 248.464 24.7307 248.432 24.528L247.728 21.264C247.664 20.9227 247.648 20.672 247.68 20.512C247.712 20.3413 247.808 20.224 247.968 20.16C248.149 20.0853 248.304 20.096 248.432 20.192C248.571 20.2773 248.709 20.4427 248.848 20.688C249.477 21.872 250.181 22.72 250.96 23.232C251.749 23.744 252.565 24 253.408 24Z" fill="white"/>
<path d="M237.448 9.48798C238.984 9.48798 240.344 9.81864 241.528 10.48C242.712 11.1413 243.635 12.064 244.296 13.248C244.968 14.4213 245.304 15.776 245.304 17.312C245.304 18.8053 244.963 20.1386 244.28 21.312C243.608 22.4853 242.675 23.408 241.48 24.08C240.286 24.752 238.899 25.088 237.32 25.088C235.784 25.088 234.424 24.7573 233.24 24.096C232.067 23.424 231.144 22.5013 230.472 21.328C229.8 20.1546 229.464 18.8053 229.464 17.28C229.464 15.7653 229.8 14.4266 230.472 13.264C231.155 12.0906 232.094 11.168 233.288 10.496C234.483 9.82398 235.87 9.48798 237.448 9.48798ZM238.52 23.824C239.406 23.7066 240.126 23.3493 240.68 22.752C241.235 22.144 241.608 21.328 241.8 20.304C241.992 19.28 241.976 18.0746 241.752 16.688C241.528 15.28 241.155 14.112 240.632 13.184C240.11 12.256 239.475 11.584 238.728 11.168C237.982 10.752 237.155 10.608 236.248 10.736C235.363 10.864 234.643 11.2266 234.088 11.824C233.534 12.4213 233.16 13.232 232.968 14.256C232.787 15.28 232.808 16.4906 233.032 17.888C233.256 19.2853 233.63 20.448 234.152 21.376C234.675 22.304 235.31 22.976 236.056 23.392C236.803 23.808 237.624 23.952 238.52 23.824Z" fill="white"/>
<path d="M220.065 9.48798C221.601 9.48798 222.961 9.81864 224.145 10.48C225.329 11.1413 226.251 12.064 226.913 13.248C227.585 14.4213 227.921 15.776 227.921 17.312C227.921 18.8053 227.579 20.1386 226.897 21.312C226.225 22.4853 225.291 23.408 224.097 24.08C222.902 24.752 221.515 25.088 219.937 25.088C218.401 25.088 217.041 24.7573 215.857 24.096C214.683 23.424 213.761 22.5013 213.089 21.328C212.417 20.1546 212.081 18.8053 212.081 17.28C212.081 15.7653 212.417 14.4266 213.089 13.264C213.771 12.0906 214.71 11.168 215.905 10.496C217.099 9.82398 218.486 9.48798 220.065 9.48798ZM221.137 23.824C222.022 23.7066 222.742 23.3493 223.297 22.752C223.851 22.144 224.225 21.328 224.417 20.304C224.609 19.28 224.593 18.0746 224.369 16.688C224.145 15.28 223.771 14.112 223.249 13.184C222.726 12.256 222.091 11.584 221.345 11.168C220.598 10.752 219.771 10.608 218.865 10.736C217.979 10.864 217.259 11.2266 216.705 11.824C216.15 12.4213 215.777 13.232 215.585 14.256C215.403 15.28 215.425 16.4906 215.649 17.888C215.873 19.2853 216.246 20.448 216.769 21.376C217.291 22.304 217.926 22.976 218.673 23.392C219.419 23.808 220.241 23.952 221.137 23.824Z" fill="white"/>
<path d="M199.054 1.88799V22.8L197.534 24.64C197.203 24.8 196.958 24.9067 196.798 24.96C196.649 25.024 196.494 25.056 196.334 25.056C196.163 25.056 196.019 25.0027 195.902 24.896C195.795 24.7893 195.742 24.6293 195.742 24.416V4.064C195.742 3.84 195.705 3.67999 195.63 3.58399C195.555 3.47733 195.433 3.41866 195.262 3.408L194.158 3.35999C193.987 3.33866 193.865 3.29066 193.79 3.21599C193.726 3.14133 193.694 3.05066 193.694 2.94399C193.694 2.81599 193.731 2.70933 193.806 2.62399C193.891 2.53866 194.046 2.45866 194.27 2.384L197.038 1.43999C197.358 1.32266 197.609 1.24266 197.79 1.2C197.982 1.14666 198.147 1.12 198.286 1.12C198.553 1.12 198.745 1.18933 198.862 1.328C198.99 1.46666 199.054 1.65333 199.054 1.88799ZM198.334 14.032L197.854 13.264C198.675 12.048 199.609 11.1147 200.654 10.464C201.71 9.80266 202.857 9.47199 204.094 9.47199C205.342 9.47199 206.451 9.79199 207.422 10.432C208.403 11.0613 209.171 11.9413 209.726 13.072C210.291 14.192 210.574 15.4773 210.574 16.928C210.574 18.6027 210.243 20.048 209.582 21.264C208.931 22.48 208.051 23.424 206.942 24.096C205.833 24.7573 204.59 25.088 203.214 25.088C201.966 25.088 200.857 24.784 199.886 24.176C198.926 23.568 198.147 22.7093 197.55 21.6L198.286 20.864C198.819 21.8027 199.459 22.5173 200.206 23.008C200.963 23.488 201.779 23.728 202.654 23.728C203.486 23.728 204.238 23.4987 204.91 23.04C205.582 22.5707 206.11 21.8613 206.494 20.912C206.889 19.952 207.086 18.752 207.086 17.312C207.086 15.9467 206.899 14.8053 206.526 13.888C206.163 12.9707 205.657 12.2827 205.006 11.824C204.366 11.3547 203.635 11.12 202.814 11.12C201.982 11.12 201.182 11.36 200.414 11.84C199.657 12.32 198.963 13.0507 198.334 14.032Z" fill="white"/>
<path d="M178.721 25.328C177.569 25.328 176.529 25.1573 175.601 24.816C174.673 24.4747 173.803 23.9413 172.993 23.216C172.193 22.4907 171.403 21.5573 170.625 20.416C169.857 19.2747 169.217 18.1707 168.705 17.104C168.193 16.0373 167.803 14.9867 167.537 13.952C167.281 12.9173 167.153 11.8827 167.153 10.848C167.153 9.664 167.382 8.608 167.841 7.68C168.31 6.74133 168.977 6.00533 169.841 5.472C170.705 4.928 171.729 4.656 172.913 4.656C173.819 4.656 174.614 4.83733 175.297 5.2C175.979 5.56267 176.507 6.064 176.881 6.704C177.265 7.344 177.457 8.07467 177.457 8.896C177.457 9.93067 177.179 10.8373 176.625 11.616C176.081 12.3947 175.286 13.0293 174.241 13.52C173.195 14 171.931 14.304 170.449 14.432L170.305 13.776C171.211 13.648 171.985 13.376 172.625 12.96C173.275 12.544 173.771 11.9787 174.113 11.264C174.454 10.5387 174.625 9.66933 174.625 8.656C174.625 7.73867 174.449 6.992 174.097 6.416C173.755 5.84 173.302 5.552 172.737 5.552C171.958 5.552 171.323 5.92 170.833 6.656C170.342 7.38133 170.097 8.368 170.097 9.616C170.097 10.5867 170.225 11.5627 170.481 12.544C170.747 13.5147 171.131 14.5013 171.633 15.504C172.145 16.5067 172.758 17.5307 173.473 18.576C174.337 19.8133 175.121 20.8107 175.825 21.568C176.529 22.3147 177.217 22.8587 177.889 23.2C178.561 23.5413 179.265 23.712 180.001 23.712C181.035 23.712 181.963 23.456 182.785 22.944C183.617 22.4213 184.267 21.632 184.737 20.576C185.217 19.5093 185.457 18.1707 185.457 16.56C185.457 14.5653 185.115 12.6133 184.433 10.704C183.761 8.79467 182.657 7.04533 181.121 5.456C179.734 4.02667 178.161 2.928 176.401 2.16C174.641 1.38133 172.694 0.992001 170.561 0.992001C168.833 0.992001 167.409 1.232 166.289 1.712C165.169 2.192 164.337 2.832 163.793 3.632C163.249 4.42133 162.977 5.30133 162.977 6.272C162.977 6.688 163.03 7.04 163.137 7.328C163.254 7.616 163.387 7.87733 163.537 8.112C163.686 8.34667 163.819 8.59733 163.937 8.864C164.054 9.13067 164.113 9.46133 164.113 9.856C164.113 10.3147 163.947 10.6987 163.617 11.008C163.286 11.3067 162.865 11.456 162.353 11.456C161.702 11.456 161.19 11.1627 160.817 10.576C160.443 9.97867 160.257 9.20533 160.257 8.256C160.257 6.57067 160.667 5.11467 161.489 3.888C162.321 2.65067 163.51 1.696 165.057 1.024C166.603 0.341333 168.459 0 170.625 0C172.875 0 174.95 0.405333 176.849 1.216C178.758 2.016 180.459 3.184 181.953 4.72C183.521 6.30933 184.683 8.10667 185.441 10.112C186.209 12.1173 186.593 14.2347 186.593 16.464C186.593 18.3627 186.273 19.9733 185.633 21.296C185.003 22.6187 184.102 23.6213 182.929 24.304C181.755 24.9867 180.353 25.328 178.721 25.328ZM175.153 21.536C175.931 20.96 176.55 20.416 177.009 19.904C177.478 19.3813 177.814 18.8853 178.017 18.416C178.23 17.9467 178.337 17.4933 178.337 17.056C178.337 16.704 178.289 16.4053 178.193 16.16C178.107 15.9147 178.017 15.68 177.921 15.456C177.825 15.232 177.777 14.976 177.777 14.688C177.777 14.2187 177.926 13.824 178.225 13.504C178.523 13.1733 178.913 13.008 179.393 13.008C179.883 13.008 180.278 13.2053 180.577 13.6C180.886 13.9947 181.041 14.5387 181.041 15.232C181.041 16.4907 180.593 17.7013 179.697 18.864C178.811 20.016 177.451 21.088 175.617 22.08L175.153 21.536ZM168.193 14.72C167.201 14.88 166.385 15.1893 165.745 15.648C165.105 16.1067 164.63 16.6667 164.321 17.328C164.022 17.9787 163.873 18.688 163.873 19.456C163.873 20.7573 164.246 21.7973 164.993 22.576C165.739 23.344 166.715 23.728 167.921 23.728C168.806 23.728 169.595 23.5787 170.289 23.28C170.982 22.9813 171.659 22.5707 172.321 22.048L172.881 22.768C172.305 23.2693 171.691 23.7013 171.041 24.064C170.39 24.4267 169.67 24.704 168.881 24.896C168.102 25.0987 167.222 25.2 166.241 25.2C164.353 25.2 162.881 24.7573 161.825 23.872C160.779 22.9867 160.257 21.7547 160.257 20.176C160.257 19.0667 160.55 18.0693 161.137 17.184C161.734 16.2987 162.619 15.5787 163.793 15.024C164.966 14.4587 166.433 14.1013 168.193 13.952V14.72Z" fill="white"/>
<path d="M151.409 15.456C151.409 15.904 151.276 16.2507 151.009 16.496C150.742 16.7307 150.358 16.848 149.857 16.848H139.665V15.904H147.281C147.772 15.904 148.017 15.6853 148.017 15.248C148.017 13.7867 147.713 12.6507 147.105 11.84C146.497 11.0293 145.681 10.624 144.657 10.624C143.857 10.624 143.153 10.8587 142.545 11.328C141.937 11.7867 141.462 12.4427 141.121 13.296C140.78 14.1493 140.609 15.152 140.609 16.304C140.609 18.4373 141.11 20.0587 142.113 21.168C143.126 22.2667 144.449 22.816 146.081 22.816C147.137 22.816 148.049 22.5707 148.817 22.08C149.596 21.5893 150.14 20.9333 150.449 20.112C150.566 19.952 150.668 19.84 150.753 19.776C150.838 19.712 150.929 19.68 151.025 19.68C151.153 19.68 151.249 19.7387 151.313 19.856C151.377 19.9733 151.404 20.112 151.393 20.272C151.329 21.1573 151.014 21.968 150.449 22.704C149.884 23.4293 149.132 24.0107 148.193 24.448C147.254 24.8747 146.188 25.088 144.993 25.088C143.521 25.088 142.22 24.7787 141.089 24.16C139.969 23.5307 139.094 22.6507 138.465 21.52C137.846 20.3893 137.537 19.0667 137.537 17.552C137.537 15.9947 137.841 14.6133 138.449 13.408C139.068 12.192 139.942 11.232 141.073 10.528C142.204 9.82398 143.542 9.47198 145.089 9.47198C146.38 9.47198 147.494 9.72799 148.433 10.24C149.382 10.752 150.113 11.456 150.625 12.352C151.148 13.248 151.409 14.2827 151.409 15.456Z" fill="white"/>
<path d="M136.19 13.568C136.19 14.0693 136.025 14.4853 135.694 14.816C135.374 15.1467 134.948 15.312 134.414 15.312C133.892 15.312 133.481 15.1627 133.182 14.864C132.894 14.5547 132.75 14.1493 132.75 13.648V13.104C132.75 12.368 132.494 11.7707 131.982 11.312C131.47 10.8533 130.766 10.624 129.87 10.624C129.06 10.624 128.334 10.8587 127.694 11.328C127.065 11.7973 126.569 12.4587 126.206 13.312C125.854 14.1547 125.678 15.152 125.678 16.304C125.678 17.6907 125.913 18.8693 126.382 19.84C126.852 20.8 127.497 21.5307 128.318 22.032C129.14 22.5333 130.073 22.784 131.118 22.784C132.132 22.784 133.006 22.5493 133.742 22.08C134.489 21.6107 135.022 20.976 135.342 20.176C135.46 20.016 135.561 19.9093 135.646 19.856C135.732 19.792 135.828 19.76 135.934 19.76C136.062 19.76 136.153 19.8187 136.206 19.936C136.27 20.0427 136.297 20.1707 136.286 20.32C136.201 21.2053 135.881 22.0107 135.326 22.736C134.772 23.4613 134.041 24.0373 133.134 24.464C132.228 24.88 131.193 25.088 130.03 25.088C128.569 25.088 127.278 24.7787 126.158 24.16C125.049 23.5413 124.18 22.6667 123.55 21.536C122.921 20.4053 122.606 19.072 122.606 17.536C122.606 16.0213 122.926 14.656 123.566 13.44C124.206 12.224 125.102 11.2587 126.254 10.544C127.417 9.82932 128.777 9.47198 130.334 9.47198C131.54 9.47198 132.58 9.66398 133.454 10.048C134.34 10.4213 135.017 10.9173 135.486 11.536C135.956 12.1547 136.19 12.832 136.19 13.568Z" fill="white"/>
<path d="M109.503 10.352V22.656C109.503 22.9227 109.551 23.1253 109.647 23.264C109.754 23.4027 109.909 23.4987 110.111 23.552L110.863 23.728C111.173 23.824 111.327 23.984 111.327 24.208C111.327 24.5493 111.103 24.72 110.655 24.72H104.927C104.703 24.72 104.538 24.6773 104.431 24.592C104.325 24.5067 104.271 24.3893 104.271 24.24C104.271 24.112 104.314 24.0107 104.399 23.936C104.485 23.8507 104.613 23.7813 104.783 23.728L105.567 23.552C105.77 23.4987 105.925 23.408 106.031 23.28C106.138 23.1413 106.191 22.9387 106.191 22.672V12.528C106.191 12.304 106.154 12.144 106.079 12.048C106.005 11.952 105.877 11.8933 105.695 11.872L104.607 11.84C104.437 11.808 104.314 11.76 104.239 11.696C104.165 11.6213 104.127 11.5253 104.127 11.408C104.127 11.28 104.17 11.1787 104.255 11.104C104.341 11.0187 104.49 10.9387 104.703 10.864L107.487 9.90398C107.797 9.79732 108.047 9.72265 108.239 9.67999C108.431 9.62665 108.602 9.59999 108.751 9.59999C109.007 9.59999 109.194 9.66932 109.311 9.80799C109.439 9.93599 109.503 10.1173 109.503 10.352ZM109.071 13.712L108.495 13.12L109.183 12.528C110.421 11.4293 111.482 10.6453 112.367 10.176C113.263 9.70665 114.122 9.47198 114.943 9.47198C116.202 9.47198 117.173 9.88799 117.855 10.72C118.549 11.552 118.975 12.6827 119.135 14.112L120.143 22.592C120.175 22.88 120.239 23.104 120.335 23.264C120.442 23.4133 120.607 23.5147 120.831 23.568L121.519 23.728C121.69 23.7813 121.813 23.8507 121.887 23.936C121.973 24.0107 122.015 24.112 122.015 24.24C122.015 24.3893 121.962 24.5067 121.855 24.592C121.759 24.6773 121.599 24.72 121.375 24.72H115.599C115.141 24.72 114.911 24.5493 114.911 24.208C114.911 23.984 115.066 23.824 115.375 23.728L116.159 23.552C116.383 23.4987 116.554 23.3973 116.671 23.248C116.789 23.0987 116.831 22.88 116.799 22.592L115.823 14.608C115.695 13.552 115.423 12.7627 115.007 12.24C114.591 11.7067 113.983 11.44 113.183 11.44C112.682 11.44 112.149 11.5787 111.583 11.856C111.029 12.1333 110.415 12.5547 109.743 13.12L109.071 13.712Z" fill="white"/>
<path d="M102.664 15.456C102.664 15.904 102.53 16.2507 102.264 16.496C101.997 16.7307 101.613 16.848 101.112 16.848H90.9197V15.904H98.5358C99.0264 15.904 99.2717 15.6853 99.2717 15.248C99.2717 13.7867 98.9677 12.6507 98.3597 11.84C97.7517 11.0293 96.9357 10.624 95.9117 10.624C95.1117 10.624 94.4077 10.8587 93.7997 11.328C93.1917 11.7867 92.7171 12.4427 92.3757 13.296C92.0344 14.1493 91.8637 15.152 91.8637 16.304C91.8637 18.4373 92.3651 20.0587 93.3677 21.168C94.3811 22.2667 95.7037 22.816 97.3357 22.816C98.3917 22.816 99.3037 22.5707 100.072 22.08C100.85 21.5893 101.394 20.9333 101.704 20.112C101.821 19.952 101.922 19.84 102.008 19.776C102.093 19.712 102.184 19.68 102.28 19.68C102.408 19.68 102.504 19.7387 102.568 19.856C102.632 19.9733 102.658 20.112 102.648 20.272C102.584 21.1573 102.269 21.968 101.704 22.704C101.138 23.4293 100.386 24.0107 99.4477 24.448C98.5091 24.8747 97.4424 25.088 96.2477 25.088C94.7757 25.088 93.4744 24.7787 92.3438 24.16C91.2237 23.5307 90.3491 22.6507 89.7197 21.52C89.1011 20.3893 88.7917 19.0667 88.7917 17.552C88.7917 15.9947 89.0958 14.6133 89.7038 13.408C90.3224 12.192 91.1971 11.232 92.3277 10.528C93.4584 9.82398 94.7971 9.47198 96.3438 9.47198C97.6344 9.47198 98.7491 9.72799 99.6877 10.24C100.637 10.752 101.368 11.456 101.88 12.352C102.402 13.248 102.664 14.2827 102.664 15.456Z" fill="white"/>
<path d="M82.3831 22.176L82.3031 22.064V4.064C82.3031 3.84 82.2657 3.67999 82.1911 3.58399C82.1164 3.47733 81.9937 3.41866 81.8231 3.408L80.7191 3.35999C80.5484 3.33866 80.4257 3.29066 80.3511 3.21599C80.2871 3.14133 80.2551 3.05066 80.2551 2.94399C80.2551 2.81599 80.2924 2.70933 80.3671 2.62399C80.4524 2.53866 80.6071 2.45866 80.8311 2.384L83.5991 1.43999C83.9084 1.32266 84.1591 1.24266 84.3511 1.2C84.5431 1.14666 84.7191 1.12 84.8791 1.12C85.1244 1.12 85.3111 1.18933 85.4391 1.328C85.5671 1.46666 85.6311 1.65333 85.6311 1.88799V22.656C85.6311 22.9227 85.6791 23.1253 85.7751 23.264C85.8817 23.4027 86.0364 23.4987 86.2391 23.552L86.9911 23.712C87.1724 23.7653 87.3057 23.8347 87.3911 23.92C87.4764 24.0053 87.5191 24.112 87.5191 24.24C87.5191 24.3893 87.4604 24.5067 87.3431 24.592C87.2364 24.6773 87.0711 24.72 86.8471 24.72H83.8711C83.4231 24.72 83.0604 24.592 82.7831 24.336C82.5164 24.08 82.3831 23.7067 82.3831 23.216V22.176ZM70.7991 17.632C70.7991 15.9573 71.1244 14.512 71.7751 13.296C72.4364 12.0693 73.3217 11.1253 74.4311 10.464C75.5511 9.80266 76.7884 9.47199 78.1431 9.47199C79.3911 9.47199 80.5004 9.77599 81.4711 10.384C82.4417 10.992 83.2204 11.8507 83.8071 12.96L83.0711 13.696C82.5484 12.768 81.9084 12.0587 81.1511 11.568C80.4044 11.0773 79.5884 10.832 78.7031 10.832C77.8711 10.832 77.1191 11.0667 76.4471 11.536C75.7751 11.9947 75.2417 12.6987 74.8471 13.648C74.4631 14.5973 74.2711 15.7973 74.2711 17.248C74.2711 18.6133 74.4577 19.7547 74.8311 20.672C75.2044 21.5787 75.7111 22.2667 76.3511 22.736C77.0017 23.1947 77.7377 23.424 78.5591 23.424C79.3911 23.424 80.1857 23.184 80.9431 22.704C81.7004 22.224 82.3937 21.4987 83.0231 20.528L83.5191 21.296C82.6977 22.512 81.7591 23.4507 80.7031 24.112C79.6471 24.7627 78.5057 25.088 77.2791 25.088C76.0311 25.088 74.9164 24.7733 73.9351 24.144C72.9644 23.504 72.1964 22.624 71.6311 21.504C71.0764 20.384 70.7991 19.0933 70.7991 17.632Z" fill="white"/>
<path d="M56.8651 22.656C56.8651 22.9013 56.9238 23.104 57.0411 23.264C57.1691 23.4133 57.3558 23.4987 57.6011 23.52L59.2491 23.712C59.4518 23.7333 59.6011 23.792 59.6971 23.888C59.7931 23.9733 59.8411 24.0853 59.8411 24.224C59.8411 24.5547 59.6224 24.72 59.1851 24.72H52.0011C51.8091 24.72 51.6544 24.6773 51.5371 24.592C51.4304 24.5067 51.3771 24.3947 51.3771 24.256C51.3771 24.1067 51.4251 23.9893 51.5211 23.904C51.6171 23.8187 51.7611 23.7547 51.9531 23.712L52.7851 23.552C53.0518 23.4773 53.2438 23.376 53.3611 23.248C53.4891 23.1093 53.5531 22.9173 53.5531 22.672V12.24C53.5531 12.0373 53.5051 11.872 53.4091 11.744C53.3131 11.6053 53.1318 11.4933 52.8651 11.408L51.8571 11.152C51.5584 11.056 51.3558 10.96 51.2491 10.864C51.1424 10.7573 51.0891 10.6453 51.0891 10.528C51.0891 10.4 51.1371 10.2987 51.2331 10.224C51.3398 10.1387 51.4944 10.096 51.6971 10.096H54.2891L53.5691 10.608V10.096C53.5691 9.74399 53.4891 9.41332 53.3291 9.10398C53.1798 8.78399 52.9984 8.45865 52.7851 8.12799C52.5718 7.78665 52.3851 7.41332 52.2251 7.00799C52.0758 6.59199 52.0011 6.11199 52.0011 5.56799C52.0011 4.34132 52.4224 3.35465 53.2651 2.60798C54.1078 1.85065 55.2544 1.47198 56.7051 1.47198C57.6331 1.47198 58.4224 1.62665 59.0731 1.93599C59.7238 2.24532 60.2144 2.65065 60.5451 3.15199C60.8864 3.65332 61.0571 4.20265 61.0571 4.79999C61.0571 5.37598 60.9131 5.81332 60.6251 6.11198C60.3478 6.41065 59.9798 6.55998 59.5211 6.55998C59.0304 6.55998 58.6358 6.40532 58.3371 6.09599C58.0491 5.77599 57.9051 5.35465 57.9051 4.83199V3.99998C57.9051 3.47732 57.7664 3.07732 57.4891 2.79998C57.2118 2.51198 56.8118 2.36798 56.2891 2.36798C55.6384 2.37865 55.1371 2.58665 54.7851 2.99199C54.4331 3.39732 54.2571 3.96799 54.2571 4.70399C54.2571 5.17332 54.3371 5.60532 54.4971 5.99998C54.6571 6.38398 54.8598 6.74132 55.1051 7.07199C55.3504 7.40265 55.5904 7.72265 55.8251 8.03198C56.0704 8.34132 56.2731 8.66132 56.4331 8.99199C56.5931 9.31199 56.6731 9.65332 56.6731 10.016V10.64L56.2571 10.096H59.9371C60.1398 10.096 60.2944 10.1333 60.4011 10.208C60.5078 10.2827 60.5611 10.3893 60.5611 10.528C60.5611 10.7413 60.4544 10.9173 60.2411 11.056C60.0384 11.184 59.7131 11.248 59.2651 11.248H56.8651V22.656ZM67.7131 10.352V22.656C67.7131 22.9227 67.7611 23.1253 67.8571 23.264C67.9638 23.4027 68.1184 23.4987 68.3211 23.552L69.0731 23.712C69.2544 23.7653 69.3878 23.8347 69.4731 23.92C69.5584 24.0053 69.6011 24.112 69.6011 24.24C69.6011 24.3893 69.5424 24.5067 69.4251 24.592C69.3184 24.6773 69.1531 24.72 68.9291 24.72H63.1371C62.9131 24.72 62.7478 24.6773 62.6411 24.592C62.5344 24.5067 62.4811 24.3893 62.4811 24.24C62.4811 24.112 62.5238 24.0107 62.6091 23.936C62.6944 23.8507 62.8224 23.7813 62.9931 23.728L63.7771 23.552C63.9798 23.4987 64.1291 23.408 64.2251 23.28C64.3318 23.1413 64.3851 22.9387 64.3851 22.672V12.528C64.3851 12.304 64.3478 12.144 64.2731 12.048C64.1984 11.952 64.0758 11.8933 63.9051 11.872L62.8011 11.84C62.6411 11.808 62.5238 11.76 62.4491 11.696C62.3744 11.6213 62.3371 11.5253 62.3371 11.408C62.3371 11.28 62.3798 11.1787 62.4651 11.104C62.5504 11.0187 62.6998 10.9387 62.9131 10.864L65.6971 9.90398C66.0171 9.78665 66.2678 9.70665 66.4491 9.66399C66.6411 9.62132 66.8064 9.59999 66.9451 9.59999C67.2011 9.59999 67.3931 9.66932 67.5211 9.80799C67.6491 9.93599 67.7131 10.1173 67.7131 10.352ZM65.7291 6.65598C65.0464 6.65598 64.4971 6.46932 64.0811 6.09599C63.6651 5.71199 63.4571 5.22665 63.4571 4.63998C63.4571 4.04265 63.6651 3.55732 64.0811 3.18398C64.5078 2.81065 65.0571 2.62399 65.7291 2.62399C66.4011 2.62399 66.9504 2.81599 67.3771 3.19999C67.8038 3.57332 68.0171 4.05332 68.0171 4.63998C68.0171 5.22665 67.8038 5.71199 67.3771 6.09599C66.9504 6.46932 66.4011 6.65598 65.7291 6.65598Z" fill="white"/>
<path d="M37.906 10.352V22.656C37.906 22.9227 37.954 23.1253 38.05 23.264C38.1567 23.4027 38.3114 23.4987 38.514 23.552L39.266 23.728C39.5754 23.824 39.73 23.984 39.73 24.208C39.73 24.5493 39.506 24.72 39.058 24.72H33.33C33.106 24.72 32.9407 24.6773 32.834 24.592C32.7274 24.5067 32.674 24.3893 32.674 24.24C32.674 24.112 32.7167 24.0107 32.802 23.936C32.8874 23.8507 33.0154 23.7813 33.186 23.728L33.97 23.552C34.1727 23.4987 34.3274 23.408 34.434 23.28C34.5407 23.1413 34.594 22.9387 34.594 22.672V12.528C34.594 12.304 34.5567 12.144 34.482 12.048C34.4074 11.952 34.2794 11.8933 34.098 11.872L33.01 11.84C32.8394 11.808 32.7167 11.76 32.642 11.696C32.5674 11.6213 32.53 11.5253 32.53 11.408C32.53 11.28 32.5727 11.1787 32.658 11.104C32.7434 11.0187 32.8927 10.9387 33.106 10.864L35.89 9.90398C36.1994 9.79732 36.45 9.72265 36.642 9.67999C36.834 9.62665 37.0047 9.59999 37.154 9.59999C37.41 9.59999 37.5967 9.66932 37.714 9.80799C37.842 9.93599 37.906 10.1173 37.906 10.352ZM37.474 13.712L36.898 13.12L37.586 12.528C38.8234 11.4293 39.8847 10.6453 40.77 10.176C41.666 9.70665 42.5247 9.47198 43.346 9.47198C44.6047 9.47198 45.5754 9.88799 46.258 10.72C46.9514 11.552 47.378 12.6827 47.538 14.112L48.546 22.592C48.578 22.88 48.642 23.104 48.738 23.264C48.8447 23.4133 49.01 23.5147 49.234 23.568L49.922 23.728C50.0927 23.7813 50.2154 23.8507 50.29 23.936C50.3754 24.0107 50.418 24.112 50.418 24.24C50.418 24.3893 50.3647 24.5067 50.258 24.592C50.162 24.6773 50.002 24.72 49.778 24.72H44.002C43.5434 24.72 43.314 24.5493 43.314 24.208C43.314 23.984 43.4687 23.824 43.778 23.728L44.562 23.552C44.786 23.4987 44.9567 23.3973 45.074 23.248C45.1914 23.0987 45.234 22.88 45.202 22.592L44.226 14.608C44.098 13.552 43.826 12.7627 43.41 12.24C42.994 11.7067 42.386 11.44 41.586 11.44C41.0847 11.44 40.5514 11.5787 39.986 11.856C39.4314 12.1333 38.818 12.5547 38.146 13.12L37.474 13.712Z" fill="white"/>
<path d="M23.1783 9.48798C24.7143 9.48798 26.0743 9.81864 27.2583 10.48C28.4423 11.1413 29.365 12.064 30.0263 13.248C30.6983 14.4213 31.0343 15.776 31.0343 17.312C31.0343 18.8053 30.693 20.1386 30.0103 21.312C29.3383 22.4853 28.405 23.408 27.2103 24.08C26.0157 24.752 24.629 25.088 23.0503 25.088C21.5143 25.088 20.1543 24.7573 18.9703 24.096C17.797 23.424 16.8743 22.5013 16.2023 21.328C15.5303 20.1546 15.1943 18.8053 15.1943 17.28C15.1943 15.7653 15.5303 14.4266 16.2023 13.264C16.885 12.0906 17.8237 11.168 19.0183 10.496C20.213 9.82398 21.5997 9.48798 23.1783 9.48798ZM24.2503 23.824C25.1357 23.7066 25.8557 23.3493 26.4103 22.752C26.965 22.144 27.3383 21.328 27.5303 20.304C27.7223 19.28 27.7063 18.0746 27.4823 16.688C27.2583 15.28 26.885 14.112 26.3623 13.184C25.8397 12.256 25.205 11.584 24.4583 11.168C23.7117 10.752 22.885 10.608 21.9783 10.736C21.093 10.864 20.373 11.2266 19.8183 11.824C19.2637 12.4213 18.8903 13.232 18.6983 14.256C18.517 15.28 18.5383 16.4906 18.7623 17.888C18.9863 19.2853 19.3597 20.448 19.8823 21.376C20.405 22.304 21.0397 22.976 21.7863 23.392C22.533 23.808 23.3543 23.952 24.2503 23.824Z" fill="white"/>
<path d="M13.8479 13.568C13.8479 14.0693 13.6826 14.4853 13.3519 14.816C13.0319 15.1467 12.6053 15.312 12.0719 15.312C11.5492 15.312 11.1386 15.1627 10.8399 14.864C10.5519 14.5547 10.4079 14.1493 10.4079 13.648V13.104C10.4079 12.368 10.1519 11.7707 9.63992 11.312C9.12792 10.8533 8.42392 10.624 7.52792 10.624C6.71725 10.624 5.99192 10.8587 5.35192 11.328C4.72258 11.7973 4.22658 12.4587 3.86392 13.312C3.51192 14.1547 3.33592 15.152 3.33592 16.304C3.33592 17.6907 3.57058 18.8693 4.03992 19.84C4.50925 20.8 5.15458 21.5307 5.97592 22.032C6.79725 22.5333 7.73058 22.784 8.77592 22.784C9.78925 22.784 10.6639 22.5493 11.3999 22.08C12.1466 21.6107 12.6799 20.976 12.9999 20.176C13.1173 20.016 13.2186 19.9093 13.3039 19.856C13.3893 19.792 13.4853 19.76 13.5919 19.76C13.7199 19.76 13.8106 19.8187 13.8639 19.936C13.9279 20.0427 13.9546 20.1707 13.9439 20.32C13.8586 21.2053 13.5386 22.0107 12.9839 22.736C12.4292 23.4613 11.6986 24.0373 10.7919 24.464C9.88525 24.88 8.85058 25.088 7.68792 25.088C6.22658 25.088 4.93592 24.7787 3.81592 24.16C2.70658 23.5413 1.83725 22.6667 1.20792 21.536C0.578583 20.4053 0.263916 19.072 0.263916 17.536C0.263916 16.0213 0.583916 14.656 1.22392 13.44C1.86392 12.224 2.75992 11.2587 3.91192 10.544C5.07458 9.82932 6.43458 9.47198 7.99192 9.47198C9.19725 9.47198 10.2372 9.66398 11.1119 10.048C11.9972 10.4213 12.6746 10.9173 13.1439 11.536C13.6133 12.1547 13.8479 12.832 13.8479 13.568Z" fill="white"/>
</svg>
