<svg width="350" height="34" viewBox="0 0 350 34" fill="none" xmlns="http://www.w3.org/2000/svg">
<path d="M268.224 23.776C269.706 24.0107 270.88 24.3147 271.744 24.688C272.608 25.0613 273.221 25.5093 273.584 26.032C273.946 26.5653 274.128 27.1947 274.128 27.92C274.128 29.2853 273.418 30.4 272 31.264C270.581 32.128 268.538 32.56 265.872 32.56C264.069 32.56 262.618 32.3947 261.52 32.064C260.421 31.744 259.621 31.3067 259.12 30.752C258.629 30.1973 258.384 29.568 258.384 28.864C258.384 27.9893 258.81 27.2 259.664 26.496C260.517 25.792 262.021 25.3067 264.176 25.04L264.48 25.488C263.317 25.6373 262.437 25.9627 261.84 26.464C261.253 26.9653 260.96 27.536 260.96 28.176C260.96 29.1467 261.37 29.936 262.192 30.544C263.013 31.152 264.405 31.456 266.368 31.456C267.488 31.456 268.405 31.3493 269.12 31.136C269.834 30.9333 270.362 30.6347 270.704 30.24C271.045 29.8453 271.216 29.3813 271.216 28.848C271.216 28.4427 271.077 28.08 270.8 27.76C270.533 27.4507 270.048 27.168 269.344 26.912C268.65 26.656 267.664 26.416 266.384 26.192C264.826 25.9253 263.642 25.648 262.832 25.36C262.032 25.0827 261.482 24.7733 261.184 24.432C260.896 24.08 260.752 23.68 260.752 23.232C260.752 22.848 260.853 22.4853 261.056 22.144C261.258 21.8027 261.605 21.4987 262.096 21.232C262.586 20.9547 263.264 20.7467 264.128 20.608L264.512 20.816C264.117 20.9973 263.834 21.1787 263.664 21.36C263.504 21.5413 263.424 21.7387 263.424 21.952C263.424 22.144 263.514 22.336 263.696 22.528C263.877 22.7093 264.304 22.9013 264.976 23.104C265.658 23.296 266.741 23.52 268.224 23.776ZM268.896 11.072L269.392 10.16C269.84 9.27465 270.373 8.60799 270.992 8.15998C271.61 7.70132 272.272 7.47198 272.976 7.47198C273.584 7.47198 274.074 7.63732 274.448 7.96799C274.821 8.29865 275.008 8.74132 275.008 9.29599C275.008 9.76532 274.89 10.144 274.656 10.432C274.432 10.7093 274.122 10.848 273.728 10.848C273.44 10.848 273.21 10.7787 273.04 10.64C272.869 10.4907 272.714 10.3253 272.576 10.144C272.448 9.95199 272.304 9.78665 272.144 9.64799C271.994 9.49865 271.792 9.42399 271.536 9.42399C271.226 9.42399 270.938 9.54665 270.672 9.79198C270.416 10.0373 270.085 10.5173 269.68 11.232L268.896 11.072ZM272.864 15.2C272.864 16.4053 272.56 17.4667 271.952 18.384C271.354 19.2907 270.517 20 269.44 20.512C268.373 21.024 267.152 21.28 265.776 21.28C264.41 21.28 263.216 21.0293 262.192 20.528C261.178 20.0267 260.384 19.3493 259.808 18.496C259.242 17.632 258.96 16.6667 258.96 15.6C258.96 14.3947 259.258 13.3387 259.856 12.432C260.464 11.5147 261.301 10.8 262.368 10.288C263.434 9.76532 264.666 9.50399 266.064 9.50399C267.44 9.50399 268.634 9.75465 269.648 10.256C270.661 10.7573 271.45 11.44 272.016 12.304C272.581 13.1573 272.864 14.1227 272.864 15.2ZM265.456 10.56C264.752 10.5813 264.165 10.784 263.696 11.168C263.226 11.5413 262.885 12.08 262.672 12.784C262.458 13.488 262.384 14.3307 262.448 15.312C262.522 16.3253 262.73 17.2053 263.072 17.952C263.413 18.6987 263.861 19.264 264.416 19.648C264.981 20.032 265.626 20.2133 266.352 20.192C267.408 20.1493 268.197 19.7173 268.72 18.896C269.253 18.064 269.466 16.912 269.36 15.44C269.253 13.904 268.848 12.6987 268.144 11.824C267.45 10.9387 266.554 10.5173 265.456 10.56Z" fill="white"/>
<path d="M245.568 10.352V22.656C245.568 22.9227 245.616 23.1253 245.712 23.264C245.819 23.4027 245.974 23.4987 246.176 23.552L246.928 23.728C247.238 23.824 247.392 23.984 247.392 24.208C247.392 24.5493 247.168 24.72 246.72 24.72H240.992C240.768 24.72 240.603 24.6773 240.496 24.592C240.39 24.5067 240.336 24.3893 240.336 24.24C240.336 24.112 240.379 24.0107 240.464 23.936C240.55 23.8507 240.678 23.7813 240.848 23.728L241.632 23.552C241.835 23.4987 241.99 23.408 242.096 23.28C242.203 23.1413 242.256 22.9387 242.256 22.672V12.528C242.256 12.304 242.219 12.144 242.144 12.048C242.07 11.952 241.942 11.8933 241.76 11.872L240.672 11.84C240.502 11.808 240.379 11.76 240.304 11.696C240.23 11.6213 240.192 11.5253 240.192 11.408C240.192 11.28 240.235 11.1787 240.32 11.104C240.406 11.0187 240.555 10.9387 240.768 10.864L243.552 9.90398C243.862 9.79732 244.112 9.72265 244.304 9.67999C244.496 9.62665 244.667 9.59999 244.816 9.59999C245.072 9.59999 245.259 9.66932 245.376 9.80799C245.504 9.93599 245.568 10.1173 245.568 10.352ZM245.136 13.712L244.56 13.12L245.248 12.528C246.486 11.4293 247.547 10.6453 248.432 10.176C249.328 9.70665 250.187 9.47198 251.008 9.47198C252.267 9.47198 253.238 9.88799 253.92 10.72C254.614 11.552 255.04 12.6827 255.2 14.112L256.208 22.592C256.24 22.88 256.304 23.104 256.4 23.264C256.507 23.4133 256.672 23.5147 256.896 23.568L257.584 23.728C257.755 23.7813 257.878 23.8507 257.952 23.936C258.038 24.0107 258.08 24.112 258.08 24.24C258.08 24.3893 258.027 24.5067 257.92 24.592C257.824 24.6773 257.664 24.72 257.44 24.72H251.664C251.206 24.72 250.976 24.5493 250.976 24.208C250.976 23.984 251.131 23.824 251.44 23.728L252.224 23.552C252.448 23.4987 252.619 23.3973 252.736 23.248C252.854 23.0987 252.896 22.88 252.864 22.592L251.888 14.608C251.76 13.552 251.488 12.7627 251.072 12.24C250.656 11.7067 250.048 11.44 249.248 11.44C248.747 11.44 248.214 11.5787 247.648 11.856C247.094 12.1333 246.48 12.5547 245.808 13.12L245.136 13.712Z" fill="white"/>
<path d="M237.169 10.352V22.656C237.169 22.9226 237.217 23.1253 237.313 23.264C237.42 23.4026 237.575 23.4986 237.777 23.552L238.529 23.712C238.711 23.7653 238.844 23.8346 238.929 23.92C239.015 24.0053 239.057 24.112 239.057 24.24C239.057 24.3893 238.999 24.5066 238.881 24.592C238.775 24.6773 238.609 24.72 238.385 24.72H232.593C232.369 24.72 232.204 24.6773 232.097 24.592C231.991 24.5066 231.937 24.3893 231.937 24.24C231.937 24.112 231.98 24.0106 232.065 23.936C232.151 23.8506 232.279 23.7813 232.449 23.728L233.233 23.552C233.436 23.4986 233.585 23.408 233.681 23.28C233.788 23.1413 233.841 22.9386 233.841 22.672V12.528C233.841 12.304 233.804 12.144 233.729 12.048C233.655 11.952 233.532 11.8933 233.361 11.872L232.257 11.84C232.097 11.808 231.98 11.76 231.905 11.696C231.831 11.6213 231.793 11.5253 231.793 11.408C231.793 11.28 231.836 11.1786 231.921 11.104C232.007 11.0186 232.156 10.9386 232.369 10.864L235.153 9.90396C235.473 9.78663 235.724 9.70663 235.905 9.66396C236.097 9.6213 236.263 9.59996 236.401 9.59996C236.657 9.59996 236.849 9.6693 236.977 9.80796C237.105 9.93596 237.169 10.1173 237.169 10.352ZM235.185 6.65596C234.503 6.65596 233.953 6.4693 233.537 6.09596C233.121 5.71196 232.913 5.22663 232.913 4.63996C232.913 4.04263 233.121 3.55729 233.537 3.18396C233.964 2.81063 234.513 2.62396 235.185 2.62396C235.857 2.62396 236.407 2.81596 236.833 3.19996C237.26 3.5733 237.473 4.0533 237.473 4.63996C237.473 5.22663 237.26 5.71196 236.833 6.09596C236.407 6.4693 235.857 6.65596 235.185 6.65596Z" fill="white"/>
<path d="M223.445 16.448C223.445 14.9333 223.664 13.6587 224.101 12.624C224.549 11.5893 225.125 10.8053 225.829 10.272C226.544 9.73865 227.296 9.47198 228.085 9.47198C229.035 9.47198 229.765 9.73332 230.277 10.256C230.8 10.7787 231.061 11.504 231.061 12.432C231.061 13.1573 230.907 13.7067 230.597 14.08C230.288 14.4427 229.888 14.624 229.397 14.624C228.907 14.624 228.523 14.4907 228.245 14.224C227.979 13.9467 227.845 13.5573 227.845 13.056V12.528C227.845 12.1653 227.76 11.8987 227.589 11.728C227.419 11.5467 227.141 11.456 226.757 11.456C226.309 11.456 225.867 11.6427 225.429 12.016C225.003 12.3787 224.651 12.928 224.373 13.664C224.096 14.4 223.957 15.328 223.957 16.448H223.445ZM223.797 10.368L223.957 14.288V22.64C223.957 22.896 224.016 23.0933 224.133 23.232C224.261 23.36 224.464 23.4453 224.741 23.488L226.197 23.696C226.4 23.728 226.549 23.7867 226.645 23.872C226.741 23.9573 226.789 24.0747 226.789 24.224C226.789 24.384 226.731 24.5067 226.613 24.592C226.507 24.6773 226.341 24.72 226.117 24.72H219.397C219.173 24.72 219.008 24.6773 218.901 24.592C218.795 24.496 218.741 24.3787 218.741 24.24C218.741 24.112 218.779 24.0053 218.853 23.92C218.939 23.8347 219.067 23.7707 219.237 23.728L220.037 23.552C220.229 23.4987 220.379 23.408 220.485 23.28C220.592 23.1413 220.645 22.9387 220.645 22.672V12.544C220.645 12.32 220.608 12.16 220.533 12.064C220.459 11.968 220.336 11.9093 220.165 11.888L219.045 11.84C218.885 11.8187 218.768 11.776 218.693 11.712C218.619 11.6373 218.581 11.5413 218.581 11.424C218.581 11.296 218.624 11.1893 218.709 11.104C218.795 11.0187 218.944 10.944 219.157 10.88L221.909 9.95198C222.283 9.80265 222.565 9.70665 222.757 9.66399C222.949 9.62132 223.099 9.59999 223.205 9.59999C223.397 9.59999 223.536 9.65865 223.621 9.77599C223.717 9.89332 223.776 10.0907 223.797 10.368Z" fill="white"/>
<path d="M217.118 15.456C217.118 15.904 216.984 16.2507 216.718 16.496C216.451 16.7307 216.067 16.848 215.566 16.848H205.374V15.904H212.99C213.48 15.904 213.726 15.6853 213.726 15.248C213.726 13.7867 213.422 12.6507 212.814 11.84C212.206 11.0293 211.39 10.624 210.366 10.624C209.566 10.624 208.862 10.8587 208.254 11.328C207.646 11.7867 207.171 12.4427 206.83 13.296C206.488 14.1493 206.318 15.152 206.318 16.304C206.318 18.4373 206.819 20.0587 207.822 21.168C208.835 22.2667 210.158 22.816 211.79 22.816C212.846 22.816 213.758 22.5707 214.526 22.08C215.304 21.5893 215.848 20.9333 216.158 20.112C216.275 19.952 216.376 19.84 216.462 19.776C216.547 19.712 216.638 19.68 216.734 19.68C216.862 19.68 216.958 19.7387 217.022 19.856C217.086 19.9733 217.112 20.112 217.102 20.272C217.038 21.1573 216.723 21.968 216.158 22.704C215.592 23.4293 214.84 24.0107 213.902 24.448C212.963 24.8747 211.896 25.088 210.702 25.088C209.23 25.088 207.928 24.7787 206.798 24.16C205.678 23.5307 204.803 22.6507 204.174 21.52C203.555 20.3893 203.246 19.0667 203.246 17.552C203.246 15.9947 203.55 14.6133 204.158 13.408C204.776 12.192 205.651 11.232 206.782 10.528C207.912 9.82398 209.251 9.47198 210.798 9.47198C212.088 9.47198 213.203 9.72799 214.142 10.24C215.091 10.752 215.822 11.456 216.334 12.352C216.856 13.248 217.118 14.2827 217.118 15.456Z" fill="white"/>
<path d="M193.838 11.04L192.926 10.816C192.68 10.7413 192.51 10.6613 192.414 10.576C192.328 10.4906 192.286 10.3893 192.286 10.272C192.286 10.1226 192.339 10.0106 192.446 9.93596C192.552 9.85063 192.696 9.80796 192.878 9.80796H193.95C194.206 9.80796 194.414 9.7653 194.574 9.67996C194.734 9.59463 194.878 9.43996 195.006 9.21596L196.398 6.81596C196.536 6.59196 196.68 6.43196 196.83 6.33596C196.979 6.2293 197.134 6.17596 197.294 6.17596C197.464 6.17596 197.592 6.2293 197.678 6.33596C197.774 6.44263 197.822 6.59196 197.822 6.78396V20.832C197.822 21.5786 197.976 22.1493 198.286 22.544C198.595 22.928 199.016 23.12 199.55 23.12C199.923 23.12 200.216 23.0613 200.43 22.944C200.643 22.816 200.814 22.6666 200.942 22.496C201.08 22.3253 201.203 22.1706 201.31 22.032C201.427 21.8933 201.56 21.808 201.71 21.776C201.838 21.7653 201.934 21.8026 201.998 21.888C202.072 21.9626 202.11 22.0906 202.11 22.272C202.088 22.7413 201.912 23.184 201.582 23.6C201.262 24.016 200.819 24.352 200.254 24.608C199.688 24.864 199.043 24.992 198.318 24.992C197.155 24.992 196.227 24.6933 195.534 24.096C194.851 23.488 194.51 22.576 194.51 21.36V11.904C194.51 11.6586 194.462 11.472 194.366 11.344C194.27 11.216 194.094 11.1146 193.838 11.04ZM196.382 10.96V9.80796H201.358C201.56 9.80796 201.715 9.8453 201.822 9.91996C201.928 9.99463 201.982 10.1066 201.982 10.256C201.982 10.4586 201.875 10.6293 201.662 10.768C201.459 10.896 201.134 10.96 200.686 10.96H196.382Z" fill="white"/>
<path d="M185.757 24C186.546 24 187.17 23.792 187.629 23.376C188.098 22.9493 188.333 22.4053 188.333 21.744C188.333 21.328 188.231 20.9547 188.029 20.624C187.837 20.2827 187.485 19.9787 186.973 19.712C186.471 19.4347 185.757 19.1733 184.829 18.928C183.378 18.5867 182.242 18.1707 181.421 17.68C180.61 17.1893 180.034 16.6293 179.693 16C179.362 15.3707 179.197 14.6827 179.197 13.936C179.197 12.5813 179.677 11.4987 180.637 10.688C181.597 9.87732 182.962 9.47198 184.733 9.47198C185.405 9.47198 185.954 9.53065 186.381 9.64799C186.818 9.76532 187.175 9.88799 187.453 10.016C187.741 10.1333 187.986 10.192 188.189 10.192C188.391 10.192 188.551 10.1333 188.669 10.016C188.797 9.88799 188.914 9.76532 189.021 9.64799C189.138 9.53065 189.287 9.47198 189.469 9.47198C189.597 9.47198 189.709 9.51465 189.805 9.59999C189.901 9.67465 189.981 9.81865 190.045 10.032L191.197 13.504C191.282 13.7707 191.309 13.9947 191.277 14.176C191.245 14.3467 191.133 14.4693 190.941 14.544C190.77 14.6187 190.615 14.6187 190.477 14.544C190.338 14.4693 190.21 14.3413 190.093 14.16C189.623 13.2533 189.111 12.5387 188.557 12.016C188.002 11.4933 187.415 11.12 186.797 10.896C186.189 10.672 185.554 10.56 184.893 10.56C183.89 10.56 183.138 10.7733 182.637 11.2C182.135 11.6267 181.885 12.1973 181.885 12.912C181.885 13.3387 181.991 13.728 182.205 14.08C182.418 14.432 182.807 14.7573 183.373 15.056C183.938 15.3547 184.738 15.6373 185.773 15.904C187.053 16.2133 188.071 16.592 188.829 17.04C189.586 17.488 190.13 18.0213 190.461 18.64C190.802 19.2587 190.973 19.984 190.973 20.816C190.973 21.648 190.759 22.3893 190.333 23.04C189.917 23.68 189.325 24.1813 188.557 24.544C187.799 24.9067 186.914 25.088 185.901 25.088C185.25 25.088 184.722 25.0187 184.317 24.88C183.911 24.7413 183.575 24.6027 183.309 24.464C183.042 24.3253 182.791 24.256 182.557 24.256C182.354 24.256 182.189 24.3253 182.061 24.464C181.933 24.592 181.81 24.7253 181.693 24.864C181.575 25.0133 181.431 25.088 181.261 25.088C181.143 25.088 181.042 25.0453 180.957 24.96C180.871 24.8747 180.813 24.7307 180.781 24.528L180.077 21.264C180.013 20.9227 179.997 20.672 180.029 20.512C180.061 20.3413 180.157 20.224 180.317 20.16C180.498 20.0853 180.653 20.096 180.781 20.192C180.919 20.2773 181.058 20.4427 181.197 20.688C181.826 21.872 182.53 22.72 183.309 23.232C184.098 23.744 184.914 24 185.757 24Z" fill="white"/>
<path d="M176.032 1.88799V22.656C176.032 22.9227 176.085 23.1253 176.192 23.264C176.299 23.4027 176.453 23.4987 176.656 23.552L177.408 23.712C177.579 23.7653 177.707 23.8347 177.792 23.92C177.877 24.0053 177.92 24.112 177.92 24.24C177.92 24.3893 177.867 24.5067 177.76 24.592C177.653 24.6773 177.483 24.72 177.248 24.72H171.456C171.243 24.72 171.083 24.6773 170.976 24.592C170.869 24.5067 170.816 24.3893 170.816 24.24C170.816 24.112 170.853 24.0053 170.928 23.92C171.013 23.8347 171.147 23.7707 171.328 23.728L172.112 23.552C172.315 23.4987 172.464 23.408 172.56 23.28C172.667 23.1413 172.72 22.9387 172.72 22.672V4.064C172.72 3.84 172.683 3.67999 172.608 3.58399C172.533 3.47733 172.411 3.41866 172.24 3.408L171.136 3.35999C170.965 3.33866 170.843 3.29066 170.768 3.21599C170.704 3.14133 170.672 3.05066 170.672 2.94399C170.672 2.81599 170.709 2.70933 170.784 2.62399C170.869 2.53866 171.024 2.45866 171.248 2.384L174.016 1.43999C174.336 1.32266 174.592 1.24266 174.784 1.2C174.976 1.14666 175.136 1.12 175.264 1.12C175.531 1.12 175.723 1.18933 175.84 1.328C175.968 1.46666 176.032 1.65333 176.032 1.88799Z" fill="white"/>
<path d="M161.288 9.48798C162.824 9.48798 164.184 9.81864 165.368 10.48C166.552 11.1413 167.475 12.064 168.136 13.248C168.808 14.4213 169.144 15.776 169.144 17.312C169.144 18.8053 168.803 20.1386 168.12 21.312C167.448 22.4853 166.515 23.408 165.32 24.08C164.126 24.752 162.739 25.088 161.16 25.088C159.624 25.088 158.264 24.7573 157.08 24.096C155.907 23.424 154.984 22.5013 154.312 21.328C153.64 20.1546 153.304 18.8053 153.304 17.28C153.304 15.7653 153.64 14.4266 154.312 13.264C154.995 12.0906 155.934 11.168 157.128 10.496C158.323 9.82398 159.71 9.48798 161.288 9.48798ZM162.36 23.824C163.246 23.7066 163.966 23.3493 164.52 22.752C165.075 22.144 165.448 21.328 165.64 20.304C165.832 19.28 165.816 18.0746 165.592 16.688C165.368 15.28 164.995 14.112 164.472 13.184C163.95 12.256 163.315 11.584 162.568 11.168C161.822 10.752 160.995 10.608 160.088 10.736C159.203 10.864 158.483 11.2266 157.928 11.824C157.374 12.4213 157 13.232 156.808 14.256C156.627 15.28 156.648 16.4906 156.872 17.888C157.096 19.2853 157.47 20.448 157.992 21.376C158.515 22.304 159.15 22.976 159.896 23.392C160.643 23.808 161.464 23.952 162.36 23.824Z" fill="white"/>
<path d="M140.278 1.88799V22.8L138.758 24.64C138.427 24.8 138.182 24.9067 138.022 24.96C137.872 25.024 137.718 25.056 137.558 25.056C137.387 25.056 137.243 25.0027 137.126 24.896C137.019 24.7893 136.966 24.6293 136.966 24.416V4.064C136.966 3.84 136.928 3.67999 136.854 3.58399C136.779 3.47733 136.656 3.41866 136.486 3.408L135.382 3.35999C135.211 3.33866 135.088 3.29066 135.014 3.21599C134.95 3.14133 134.918 3.05066 134.918 2.94399C134.918 2.81599 134.955 2.70933 135.03 2.62399C135.115 2.53866 135.27 2.45866 135.494 2.384L138.262 1.43999C138.582 1.32266 138.832 1.24266 139.014 1.2C139.206 1.14666 139.371 1.12 139.51 1.12C139.776 1.12 139.968 1.18933 140.086 1.328C140.214 1.46666 140.278 1.65333 140.278 1.88799ZM139.558 14.032L139.078 13.264C139.899 12.048 140.832 11.1147 141.878 10.464C142.934 9.80266 144.08 9.47199 145.318 9.47199C146.566 9.47199 147.675 9.79199 148.646 10.432C149.627 11.0613 150.395 11.9413 150.95 13.072C151.515 14.192 151.798 15.4773 151.798 16.928C151.798 18.6027 151.467 20.048 150.806 21.264C150.155 22.48 149.275 23.424 148.166 24.096C147.056 24.7573 145.814 25.088 144.438 25.088C143.19 25.088 142.08 24.784 141.11 24.176C140.15 23.568 139.371 22.7093 138.774 21.6L139.51 20.864C140.043 21.8027 140.683 22.5173 141.43 23.008C142.187 23.488 143.003 23.728 143.878 23.728C144.71 23.728 145.462 23.4987 146.134 23.04C146.806 22.5707 147.334 21.8613 147.718 20.912C148.112 19.952 148.31 18.752 148.31 17.312C148.31 15.9467 148.123 14.8053 147.75 13.888C147.387 12.9707 146.88 12.2827 146.23 11.824C145.59 11.3547 144.859 11.12 144.038 11.12C143.206 11.12 142.406 11.36 141.638 11.84C140.88 12.32 140.187 13.0507 139.558 14.032Z" fill="white"/>
<path d="M119.944 25.328C118.792 25.328 117.752 25.1573 116.824 24.816C115.896 24.4747 115.027 23.9413 114.216 23.216C113.416 22.4907 112.627 21.5573 111.848 20.416C111.08 19.2747 110.44 18.1707 109.928 17.104C109.416 16.0373 109.027 14.9867 108.76 13.952C108.504 12.9173 108.376 11.8827 108.376 10.848C108.376 9.664 108.606 8.608 109.064 7.68C109.534 6.74133 110.2 6.00533 111.064 5.472C111.928 4.928 112.952 4.656 114.136 4.656C115.043 4.656 115.838 4.83733 116.52 5.2C117.203 5.56267 117.731 6.064 118.104 6.704C118.488 7.344 118.68 8.07467 118.68 8.896C118.68 9.93067 118.403 10.8373 117.848 11.616C117.304 12.3947 116.51 13.0293 115.464 13.52C114.419 14 113.155 14.304 111.672 14.432L111.528 13.776C112.435 13.648 113.208 13.376 113.848 12.96C114.499 12.544 114.995 11.9787 115.336 11.264C115.678 10.5387 115.848 9.66933 115.848 8.656C115.848 7.73867 115.672 6.992 115.32 6.416C114.979 5.84 114.526 5.552 113.96 5.552C113.182 5.552 112.547 5.92 112.056 6.656C111.566 7.38133 111.32 8.368 111.32 9.616C111.32 10.5867 111.448 11.5627 111.704 12.544C111.971 13.5147 112.355 14.5013 112.856 15.504C113.368 16.5067 113.982 17.5307 114.696 18.576C115.56 19.8133 116.344 20.8107 117.048 21.568C117.752 22.3147 118.44 22.8587 119.112 23.2C119.784 23.5413 120.488 23.712 121.224 23.712C122.259 23.712 123.187 23.456 124.008 22.944C124.84 22.4213 125.491 21.632 125.96 20.576C126.44 19.5093 126.68 18.1707 126.68 16.56C126.68 14.5653 126.339 12.6133 125.656 10.704C124.984 8.79467 123.88 7.04533 122.344 5.456C120.958 4.02667 119.384 2.928 117.624 2.16C115.864 1.38133 113.918 0.992001 111.784 0.992001C110.056 0.992001 108.632 1.232 107.512 1.712C106.392 2.192 105.56 2.832 105.016 3.632C104.472 4.42133 104.2 5.30133 104.2 6.272C104.2 6.688 104.254 7.04 104.36 7.328C104.478 7.616 104.611 7.87733 104.76 8.112C104.91 8.34667 105.043 8.59733 105.16 8.864C105.278 9.13067 105.336 9.46133 105.336 9.856C105.336 10.3147 105.171 10.6987 104.84 11.008C104.51 11.3067 104.088 11.456 103.576 11.456C102.926 11.456 102.414 11.1627 102.04 10.576C101.667 9.97867 101.48 9.20533 101.48 8.256C101.48 6.57067 101.891 5.11467 102.712 3.888C103.544 2.65067 104.734 1.696 106.28 1.024C107.827 0.341333 109.683 0 111.848 0C114.099 0 116.174 0.405333 118.072 1.216C119.982 2.016 121.683 3.184 123.176 4.72C124.744 6.30933 125.907 8.10667 126.664 10.112C127.432 12.1173 127.816 14.2347 127.816 16.464C127.816 18.3627 127.496 19.9733 126.856 21.296C126.227 22.6187 125.326 23.6213 124.152 24.304C122.979 24.9867 121.576 25.328 119.944 25.328ZM116.376 21.536C117.155 20.96 117.774 20.416 118.232 19.904C118.702 19.3813 119.038 18.8853 119.24 18.416C119.454 17.9467 119.56 17.4933 119.56 17.056C119.56 16.704 119.512 16.4053 119.416 16.16C119.331 15.9147 119.24 15.68 119.144 15.456C119.048 15.232 119 14.976 119 14.688C119 14.2187 119.15 13.824 119.448 13.504C119.747 13.1733 120.136 13.008 120.616 13.008C121.107 13.008 121.502 13.2053 121.8 13.6C122.11 13.9947 122.264 14.5387 122.264 15.232C122.264 16.4907 121.816 17.7013 120.92 18.864C120.035 20.016 118.675 21.088 116.84 22.08L116.376 21.536ZM109.416 14.72C108.424 14.88 107.608 15.1893 106.968 15.648C106.328 16.1067 105.854 16.6667 105.544 17.328C105.246 17.9787 105.096 18.688 105.096 19.456C105.096 20.7573 105.47 21.7973 106.216 22.576C106.963 23.344 107.939 23.728 109.144 23.728C110.03 23.728 110.819 23.5787 111.512 23.28C112.206 22.9813 112.883 22.5707 113.544 22.048L114.104 22.768C113.528 23.2693 112.915 23.7013 112.264 24.064C111.614 24.4267 110.894 24.704 110.104 24.896C109.326 25.0987 108.446 25.2 107.464 25.2C105.576 25.2 104.104 24.7573 103.048 23.872C102.003 22.9867 101.48 21.7547 101.48 20.176C101.48 19.0667 101.774 18.0693 102.36 17.184C102.958 16.2987 103.843 15.5787 105.016 15.024C106.19 14.4587 107.656 14.1013 109.416 13.952V14.72Z" fill="white"/>
<path d="M87.1098 23.776C88.5924 24.0107 89.7658 24.3147 90.6298 24.688C91.4938 25.0613 92.1071 25.5093 92.4698 26.032C92.8324 26.5653 93.0138 27.1947 93.0138 27.92C93.0138 29.2853 92.3044 30.4 90.8858 31.264C89.4671 32.128 87.4244 32.56 84.7578 32.56C82.9551 32.56 81.5044 32.3947 80.4058 32.064C79.3071 31.744 78.5071 31.3067 78.0058 30.752C77.5151 30.1973 77.2698 29.568 77.2698 28.864C77.2698 27.9893 77.6964 27.2 78.5498 26.496C79.4031 25.792 80.9071 25.3067 83.0618 25.04L83.3658 25.488C82.2031 25.6373 81.3231 25.9627 80.7258 26.464C80.1391 26.9653 79.8458 27.536 79.8458 28.176C79.8458 29.1467 80.2564 29.936 81.0778 30.544C81.8991 31.152 83.2911 31.456 85.2538 31.456C86.3738 31.456 87.2911 31.3493 88.0058 31.136C88.7204 30.9333 89.2484 30.6347 89.5898 30.24C89.9311 29.8453 90.1018 29.3813 90.1018 28.848C90.1018 28.4427 89.9631 28.08 89.6858 27.76C89.4191 27.4507 88.9338 27.168 88.2298 26.912C87.5364 26.656 86.5498 26.416 85.2698 26.192C83.7124 25.9253 82.5284 25.648 81.7178 25.36C80.9178 25.0827 80.3684 24.7733 80.0698 24.432C79.7818 24.08 79.6378 23.68 79.6378 23.232C79.6378 22.848 79.7391 22.4853 79.9418 22.144C80.1444 21.8027 80.4911 21.4987 80.9818 21.232C81.4724 20.9547 82.1498 20.7467 83.0138 20.608L83.3978 20.816C83.0031 20.9973 82.7204 21.1787 82.5498 21.36C82.3898 21.5413 82.3098 21.7387 82.3098 21.952C82.3098 22.144 82.4004 22.336 82.5818 22.528C82.7631 22.7093 83.1898 22.9013 83.8618 23.104C84.5444 23.296 85.6271 23.52 87.1098 23.776ZM87.7818 11.072L88.2778 10.16C88.7258 9.27465 89.2591 8.60799 89.8778 8.15998C90.4964 7.70132 91.1578 7.47198 91.8618 7.47198C92.4698 7.47198 92.9604 7.63732 93.3338 7.96799C93.7071 8.29865 93.8938 8.74132 93.8938 9.29599C93.8938 9.76532 93.7764 10.144 93.5418 10.432C93.3178 10.7093 93.0084 10.848 92.6138 10.848C92.3258 10.848 92.0964 10.7787 91.9258 10.64C91.7551 10.4907 91.6004 10.3253 91.4618 10.144C91.3338 9.95199 91.1898 9.78665 91.0298 9.64799C90.8804 9.49865 90.6778 9.42399 90.4218 9.42399C90.1124 9.42399 89.8244 9.54665 89.5578 9.79198C89.3018 10.0373 88.9711 10.5173 88.5658 11.232L87.7818 11.072ZM91.7498 15.2C91.7498 16.4053 91.4458 17.4667 90.8378 18.384C90.2404 19.2907 89.4031 20 88.3258 20.512C87.2591 21.024 86.0378 21.28 84.6618 21.28C83.2964 21.28 82.1018 21.0293 81.0778 20.528C80.0644 20.0267 79.2698 19.3493 78.6938 18.496C78.1284 17.632 77.8458 16.6667 77.8458 15.6C77.8458 14.3947 78.1444 13.3387 78.7418 12.432C79.3498 11.5147 80.1871 10.8 81.2538 10.288C82.3204 9.76532 83.5524 9.50399 84.9498 9.50399C86.3258 9.50399 87.5204 9.75465 88.5338 10.256C89.5471 10.7573 90.3364 11.44 90.9018 12.304C91.4671 13.1573 91.7498 14.1227 91.7498 15.2ZM84.3418 10.56C83.6378 10.5813 83.0511 10.784 82.5818 11.168C82.1124 11.5413 81.7711 12.08 81.5578 12.784C81.3444 13.488 81.2698 14.3307 81.3338 15.312C81.4084 16.3253 81.6164 17.2053 81.9578 17.952C82.2991 18.6987 82.7471 19.264 83.3018 19.648C83.8671 20.032 84.5124 20.2133 85.2378 20.192C86.2938 20.1493 87.0831 19.7173 87.6058 18.896C88.1391 18.064 88.3524 16.912 88.2458 15.44C88.1391 13.904 87.7338 12.6987 87.0298 11.824C86.3364 10.9387 85.4404 10.5173 84.3418 10.56Z" fill="white"/>
<path d="M64.4549 10.352V22.656C64.4549 22.9227 64.5029 23.1253 64.5989 23.264C64.7055 23.4027 64.8602 23.4987 65.0629 23.552L65.8149 23.728C66.1242 23.824 66.2789 23.984 66.2789 24.208C66.2789 24.5493 66.0549 24.72 65.6069 24.72H59.8789C59.6549 24.72 59.4895 24.6773 59.3829 24.592C59.2762 24.5067 59.2229 24.3893 59.2229 24.24C59.2229 24.112 59.2655 24.0107 59.3509 23.936C59.4362 23.8507 59.5642 23.7813 59.7349 23.728L60.5189 23.552C60.7215 23.4987 60.8762 23.408 60.9829 23.28C61.0895 23.1413 61.1429 22.9387 61.1429 22.672V12.528C61.1429 12.304 61.1055 12.144 61.0309 12.048C60.9562 11.952 60.8282 11.8933 60.6469 11.872L59.5589 11.84C59.3882 11.808 59.2655 11.76 59.1909 11.696C59.1162 11.6213 59.0789 11.5253 59.0789 11.408C59.0789 11.28 59.1215 11.1787 59.2069 11.104C59.2922 11.0187 59.4415 10.9387 59.6549 10.864L62.4389 9.90398C62.7482 9.79732 62.9989 9.72265 63.1909 9.67999C63.3829 9.62665 63.5535 9.59999 63.7029 9.59999C63.9589 9.59999 64.1455 9.66932 64.2629 9.80799C64.3909 9.93599 64.4549 10.1173 64.4549 10.352ZM64.0229 13.712L63.4469 13.12L64.1349 12.528C65.3722 11.4293 66.4335 10.6453 67.3189 10.176C68.2149 9.70665 69.0735 9.47198 69.8949 9.47198C71.1535 9.47198 72.1242 9.88799 72.8069 10.72C73.5002 11.552 73.9269 12.6827 74.0869 14.112L75.0949 22.592C75.1269 22.88 75.1909 23.104 75.2869 23.264C75.3935 23.4133 75.5589 23.5147 75.7829 23.568L76.4709 23.728C76.6415 23.7813 76.7642 23.8507 76.8389 23.936C76.9242 24.0107 76.9669 24.112 76.9669 24.24C76.9669 24.3893 76.9135 24.5067 76.8069 24.592C76.7109 24.6773 76.5509 24.72 76.3269 24.72H70.5509C70.0922 24.72 69.8629 24.5493 69.8629 24.208C69.8629 23.984 70.0175 23.824 70.3269 23.728L71.1109 23.552C71.3349 23.4987 71.5055 23.3973 71.6229 23.248C71.7402 23.0987 71.7829 22.88 71.7509 22.592L70.7749 14.608C70.6469 13.552 70.3749 12.7627 69.9589 12.24C69.5429 11.7067 68.9349 11.44 68.1349 11.44C67.6335 11.44 67.1002 11.5787 66.5349 11.856C65.9802 12.1333 65.3669 12.5547 64.6949 13.12L64.0229 13.712Z" fill="white"/>
<path d="M56.0557 10.352V22.656C56.0557 22.9226 56.1037 23.1253 56.1997 23.264C56.3064 23.4026 56.461 23.4986 56.6637 23.552L57.4157 23.712C57.597 23.7653 57.7304 23.8346 57.8157 23.92C57.901 24.0053 57.9437 24.112 57.9437 24.24C57.9437 24.3893 57.885 24.5066 57.7677 24.592C57.661 24.6773 57.4957 24.72 57.2717 24.72H51.4797C51.2557 24.72 51.0904 24.6773 50.9837 24.592C50.877 24.5066 50.8237 24.3893 50.8237 24.24C50.8237 24.112 50.8664 24.0106 50.9517 23.936C51.037 23.8506 51.165 23.7813 51.3357 23.728L52.1197 23.552C52.3224 23.4986 52.4717 23.408 52.5677 23.28C52.6744 23.1413 52.7277 22.9386 52.7277 22.672V12.528C52.7277 12.304 52.6904 12.144 52.6157 12.048C52.541 11.952 52.4184 11.8933 52.2477 11.872L51.1437 11.84C50.9837 11.808 50.8664 11.76 50.7917 11.696C50.717 11.6213 50.6797 11.5253 50.6797 11.408C50.6797 11.28 50.7224 11.1786 50.8077 11.104C50.893 11.0186 51.0424 10.9386 51.2557 10.864L54.0397 9.90396C54.3597 9.78663 54.6104 9.70663 54.7917 9.66396C54.9837 9.6213 55.149 9.59996 55.2877 9.59996C55.5437 9.59996 55.7357 9.6693 55.8637 9.80796C55.9917 9.93596 56.0557 10.1173 56.0557 10.352ZM54.0717 6.65596C53.389 6.65596 52.8397 6.4693 52.4237 6.09596C52.0077 5.71196 51.7997 5.22663 51.7997 4.63996C51.7997 4.04263 52.0077 3.55729 52.4237 3.18396C52.8504 2.81063 53.3997 2.62396 54.0717 2.62396C54.7437 2.62396 55.293 2.81596 55.7197 3.19996C56.1464 3.5733 56.3597 4.0533 56.3597 4.63996C56.3597 5.22663 56.1464 5.71196 55.7197 6.09596C55.293 6.4693 54.7437 6.65596 54.0717 6.65596Z" fill="white"/>
<path d="M37.5221 10.336V12.336L37.6341 12.592V30.112C37.6341 30.3893 37.6821 30.5973 37.7781 30.736C37.8847 30.8747 38.0394 30.9653 38.2421 31.008L39.3461 31.184C39.5274 31.2267 39.6607 31.2907 39.7461 31.376C39.8314 31.4613 39.8741 31.568 39.8741 31.696C39.8741 31.8453 39.8207 31.9627 39.7141 32.048C39.6074 32.1333 39.4367 32.176 39.2021 32.176H33.0901C32.8661 32.176 32.7007 32.1333 32.5941 32.048C32.4874 31.9627 32.4341 31.8453 32.4341 31.696C32.4341 31.5787 32.4767 31.4773 32.5621 31.392C32.6474 31.3067 32.7754 31.2373 32.9461 31.184L33.6981 31.024C33.9007 30.9707 34.0554 30.8747 34.1621 30.736C34.2687 30.5973 34.3221 30.3947 34.3221 30.128V12.512C34.3221 12.288 34.2847 12.128 34.2101 12.032C34.1354 11.936 34.0074 11.8773 33.8261 11.856L32.7381 11.808C32.5674 11.7867 32.4447 11.744 32.3701 11.68C32.2954 11.6053 32.2581 11.5093 32.2581 11.392C32.2581 11.264 32.3007 11.1627 32.3861 11.088C32.4714 11.0133 32.6207 10.9333 32.8341 10.848L35.5061 9.88799C35.8047 9.77065 36.0501 9.69065 36.2421 9.64799C36.4341 9.60532 36.6047 9.58399 36.7541 9.58399C37.0101 9.58399 37.2021 9.65332 37.3301 9.79198C37.4581 9.91998 37.5221 10.1013 37.5221 10.336ZM36.9141 14.048L36.4181 13.28C37.2394 12.0747 38.1781 11.1413 39.2341 10.48C40.2901 9.80798 41.4421 9.47198 42.6901 9.47198C43.9381 9.47198 45.0474 9.79198 46.0181 10.432C46.9887 11.0613 47.7514 11.9413 48.3061 13.072C48.8714 14.192 49.1541 15.4773 49.1541 16.928C49.1541 18.6027 48.8287 20.0533 48.1781 21.28C47.5274 22.496 46.6474 23.4347 45.5381 24.096C44.4287 24.7573 43.1914 25.088 41.8261 25.088C40.5781 25.088 39.4687 24.7893 38.4981 24.192C37.5381 23.584 36.7594 22.7147 36.1621 21.584L36.8981 20.848C37.4314 21.7867 38.0714 22.5013 38.8181 22.992C39.5647 23.4827 40.3701 23.728 41.2341 23.728C42.0767 23.728 42.8341 23.4987 43.5061 23.04C44.1781 22.5707 44.7061 21.8613 45.0901 20.912C45.4847 19.9627 45.6821 18.768 45.6821 17.328C45.6821 15.952 45.4954 14.8053 45.1221 13.888C44.7487 12.9707 44.2367 12.2827 43.5861 11.824C42.9461 11.3547 42.2154 11.12 41.3941 11.12C40.5621 11.12 39.7621 11.3653 38.9941 11.856C38.2367 12.336 37.5434 13.0667 36.9141 14.048Z" fill="white"/>
<path d="M23.1783 9.48798C24.7143 9.48798 26.0743 9.81864 27.2583 10.48C28.4423 11.1413 29.365 12.064 30.0263 13.248C30.6983 14.4213 31.0343 15.776 31.0343 17.312C31.0343 18.8053 30.693 20.1386 30.0103 21.312C29.3383 22.4853 28.405 23.408 27.2103 24.08C26.0157 24.752 24.629 25.088 23.0503 25.088C21.5143 25.088 20.1543 24.7573 18.9703 24.096C17.797 23.424 16.8743 22.5013 16.2023 21.328C15.5303 20.1546 15.1943 18.8053 15.1943 17.28C15.1943 15.7653 15.5303 14.4266 16.2023 13.264C16.885 12.0906 17.8237 11.168 19.0183 10.496C20.213 9.82398 21.5997 9.48798 23.1783 9.48798ZM24.2503 23.824C25.1357 23.7066 25.8557 23.3493 26.4103 22.752C26.965 22.144 27.3383 21.328 27.5303 20.304C27.7223 19.28 27.7063 18.0746 27.4823 16.688C27.2583 15.28 26.885 14.112 26.3623 13.184C25.8397 12.256 25.205 11.584 24.4583 11.168C23.7117 10.752 22.885 10.608 21.9783 10.736C21.093 10.864 20.373 11.2266 19.8183 11.824C19.2637 12.4213 18.8903 13.232 18.6983 14.256C18.517 15.28 18.5383 16.4906 18.7623 17.888C18.9863 19.2853 19.3597 20.448 19.8823 21.376C20.405 22.304 21.0397 22.976 21.7863 23.392C22.533 23.808 23.3543 23.952 24.2503 23.824Z" fill="white"/>
<path d="M13.8479 13.568C13.8479 14.0693 13.6826 14.4853 13.3519 14.816C13.0319 15.1467 12.6053 15.312 12.0719 15.312C11.5492 15.312 11.1386 15.1627 10.8399 14.864C10.5519 14.5547 10.4079 14.1493 10.4079 13.648V13.104C10.4079 12.368 10.1519 11.7707 9.63992 11.312C9.12792 10.8533 8.42392 10.624 7.52792 10.624C6.71725 10.624 5.99192 10.8587 5.35192 11.328C4.72258 11.7973 4.22658 12.4587 3.86392 13.312C3.51192 14.1547 3.33592 15.152 3.33592 16.304C3.33592 17.6907 3.57058 18.8693 4.03992 19.84C4.50925 20.8 5.15458 21.5307 5.97592 22.032C6.79725 22.5333 7.73058 22.784 8.77592 22.784C9.78925 22.784 10.6639 22.5493 11.3999 22.08C12.1466 21.6107 12.6799 20.976 12.9999 20.176C13.1173 20.016 13.2186 19.9093 13.3039 19.856C13.3893 19.792 13.4853 19.76 13.5919 19.76C13.7199 19.76 13.8106 19.8187 13.8639 19.936C13.9279 20.0427 13.9546 20.1707 13.9439 20.32C13.8586 21.2053 13.5386 22.0107 12.9839 22.736C12.4292 23.4613 11.6986 24.0373 10.7919 24.464C9.88525 24.88 8.85058 25.088 7.68792 25.088C6.22658 25.088 4.93592 24.7787 3.81592 24.16C2.70658 23.5413 1.83725 22.6667 1.20792 21.536C0.578583 20.4053 0.263916 19.072 0.263916 17.536C0.263916 16.0213 0.583916 14.656 1.22392 13.44C1.86392 12.224 2.75992 11.2587 3.91192 10.544C5.07458 9.82932 6.43458 9.47198 7.99192 9.47198C9.19725 9.47198 10.2372 9.66398 11.1119 10.048C11.9972 10.4213 12.6746 10.9173 13.1439 11.536C13.6133 12.1547 13.8479 12.832 13.8479 13.568Z" fill="white"/>
</svg>
