<svg width="66" height="25" viewBox="0 0 66 25" fill="none" xmlns="http://www.w3.org/2000/svg">
<path d="M57.1645 8.768C58.7005 8.768 60.0605 9.09866 61.2445 9.76C62.4285 10.4213 63.3512 11.344 64.0125 12.528C64.6845 13.7013 65.0205 15.056 65.0205 16.592C65.0205 18.0853 64.6792 19.4187 63.9965 20.592C63.3245 21.7653 62.3912 22.688 61.1965 23.36C60.0018 24.032 58.6152 24.368 57.0365 24.368C55.5005 24.368 54.1405 24.0373 52.9565 23.376C51.7832 22.704 50.8605 21.7813 50.1885 20.608C49.5165 19.4347 49.1805 18.0853 49.1805 16.56C49.1805 15.0453 49.5165 13.7067 50.1885 12.544C50.8712 11.3707 51.8098 10.448 53.0045 9.776C54.1992 9.104 55.5858 8.768 57.1645 8.768ZM58.2365 23.104C59.1218 22.9867 59.8418 22.6293 60.3965 22.032C60.9512 21.424 61.3245 20.608 61.5165 19.584C61.7085 18.56 61.6925 17.3547 61.4685 15.968C61.2445 14.56 60.8712 13.392 60.3485 12.464C59.8258 11.536 59.1912 10.864 58.4445 10.448C57.6978 10.032 56.8712 9.888 55.9645 10.016C55.0792 10.144 54.3592 10.5067 53.8045 11.104C53.2498 11.7013 52.8765 12.512 52.6845 13.536C52.5032 14.56 52.5245 15.7707 52.7485 17.168C52.9725 18.5653 53.3458 19.728 53.8685 20.656C54.3912 21.584 55.0258 22.256 55.7725 22.672C56.5192 23.088 57.3405 23.232 58.2365 23.104Z" fill="black"/>
<path d="M36.154 1.168V22.08L34.634 23.92C34.3033 24.08 34.058 24.1867 33.898 24.24C33.7487 24.304 33.594 24.336 33.434 24.336C33.2633 24.336 33.1193 24.2827 33.002 24.176C32.8953 24.0693 32.842 23.9093 32.842 23.696V3.344C32.842 3.12 32.8047 2.96 32.73 2.864C32.6553 2.75733 32.5327 2.69867 32.362 2.688L31.258 2.64C31.0873 2.61867 30.9647 2.57067 30.89 2.496C30.826 2.42133 30.794 2.33067 30.794 2.224C30.794 2.096 30.8313 1.98933 30.906 1.904C30.9913 1.81867 31.146 1.73867 31.37 1.664L34.138 0.720001C34.458 0.602667 34.7087 0.522668 34.89 0.480001C35.082 0.426668 35.2473 0.400002 35.386 0.400002C35.6527 0.400002 35.8447 0.469335 35.962 0.608002C36.09 0.746667 36.154 0.933334 36.154 1.168ZM35.434 13.312L34.954 12.544C35.7753 11.328 36.7087 10.3947 37.754 9.744C38.81 9.08267 39.9567 8.752 41.194 8.752C42.442 8.752 43.5513 9.072 44.522 9.712C45.5033 10.3413 46.2713 11.2213 46.826 12.352C47.3913 13.472 47.674 14.7573 47.674 16.208C47.674 17.8827 47.3433 19.328 46.682 20.544C46.0313 21.76 45.1513 22.704 44.042 23.376C42.9327 24.0373 41.69 24.368 40.314 24.368C39.066 24.368 37.9567 24.064 36.986 23.456C36.026 22.848 35.2473 21.9893 34.65 20.88L35.386 20.144C35.9193 21.0827 36.5593 21.7973 37.306 22.288C38.0633 22.768 38.8793 23.008 39.754 23.008C40.586 23.008 41.338 22.7787 42.01 22.32C42.682 21.8507 43.21 21.1413 43.594 20.192C43.9887 19.232 44.186 18.032 44.186 16.592C44.186 15.2267 43.9993 14.0853 43.626 13.168C43.2633 12.2507 42.7567 11.5627 42.106 11.104C41.466 10.6347 40.7353 10.4 39.914 10.4C39.082 10.4 38.282 10.64 37.514 11.12C36.7567 11.6 36.0633 12.3307 35.434 13.312Z" fill="black"/>
<path d="M23.1782 8.768C24.7142 8.768 26.0742 9.09866 27.2582 9.76C28.4422 10.4213 29.3649 11.344 30.0262 12.528C30.6982 13.7013 31.0342 15.056 31.0342 16.592C31.0342 18.0853 30.6929 19.4187 30.0102 20.592C29.3382 21.7653 28.4049 22.688 27.2102 23.36C26.0156 24.032 24.6289 24.368 23.0502 24.368C21.5142 24.368 20.1542 24.0373 18.9702 23.376C17.7969 22.704 16.8742 21.7813 16.2022 20.608C15.5302 19.4347 15.1942 18.0853 15.1942 16.56C15.1942 15.0453 15.5302 13.7067 16.2022 12.544C16.8849 11.3707 17.8236 10.448 19.0182 9.776C20.2129 9.104 21.5996 8.768 23.1782 8.768ZM24.2502 23.104C25.1356 22.9867 25.8556 22.6293 26.4102 22.032C26.9649 21.424 27.3382 20.608 27.5302 19.584C27.7222 18.56 27.7062 17.3547 27.4822 15.968C27.2582 14.56 26.8849 13.392 26.3622 12.464C25.8396 11.536 25.2049 10.864 24.4582 10.448C23.7116 10.032 22.8849 9.888 21.9782 10.016C21.0929 10.144 20.3729 10.5067 19.8182 11.104C19.2636 11.7013 18.8902 12.512 18.6982 13.536C18.5169 14.56 18.5382 15.7707 18.7622 17.168C18.9862 18.5653 19.3596 19.728 19.8822 20.656C20.4049 21.584 21.0396 22.256 21.7862 22.672C22.5329 23.088 23.3542 23.232 24.2502 23.104Z" fill="black"/>
<path d="M13.848 12.848C13.848 13.3493 13.6827 13.7653 13.352 14.096C13.032 14.4267 12.6053 14.592 12.072 14.592C11.5493 14.592 11.1387 14.4427 10.84 14.144C10.552 13.8347 10.408 13.4293 10.408 12.928V12.384C10.408 11.648 10.152 11.0507 9.64001 10.592C9.12801 10.1333 8.42401 9.904 7.52801 9.904C6.71734 9.904 5.99201 10.1387 5.35201 10.608C4.72267 11.0773 4.22667 11.7387 3.86401 12.592C3.51201 13.4347 3.33601 14.432 3.33601 15.584C3.33601 16.9707 3.57067 18.1493 4.04001 19.12C4.50934 20.08 5.15467 20.8107 5.97601 21.312C6.79734 21.8133 7.73067 22.064 8.77601 22.064C9.78934 22.064 10.664 21.8293 11.4 21.36C12.1467 20.8907 12.68 20.256 13 19.456C13.1173 19.296 13.2187 19.1893 13.304 19.136C13.3893 19.072 13.4853 19.04 13.592 19.04C13.72 19.04 13.8107 19.0987 13.864 19.216C13.928 19.3227 13.9547 19.4507 13.944 19.6C13.8587 20.4853 13.5387 21.2907 12.984 22.016C12.4293 22.7413 11.6987 23.3173 10.792 23.744C9.88534 24.16 8.85067 24.368 7.68801 24.368C6.22667 24.368 4.93601 24.0587 3.81601 23.44C2.70667 22.8213 1.83734 21.9467 1.20801 20.816C0.578674 19.6853 0.264008 18.352 0.264008 16.816C0.264008 15.3013 0.584008 13.936 1.22401 12.72C1.86401 11.504 2.76001 10.5387 3.91201 9.824C5.07467 9.10933 6.43467 8.752 7.99201 8.752C9.19734 8.752 10.2373 8.944 11.112 9.328C11.9973 9.70133 12.6747 10.1973 13.144 10.816C13.6133 11.4347 13.848 12.112 13.848 12.848Z" fill="black"/>
</svg>
