<svg width="159" height="40" viewBox="0 0 159 40" fill="none" xmlns="http://www.w3.org/2000/svg">
<circle cx="20" cy="20" r="18" stroke="black" stroke-width="4"/>
<circle cx="44" cy="20" r="18" stroke="black" stroke-width="4"/>
<path d="M149.399 12.8824C151.261 12.8824 152.891 13.2623 154.288 14.0221C155.71 14.7819 156.813 15.8726 157.597 17.2941C158.406 18.7157 158.81 20.4314 158.81 22.4412C158.81 24.4265 158.406 26.1422 157.597 27.5883C156.813 29.0098 155.71 30.1005 154.288 30.8603C152.891 31.6201 151.261 32 149.399 32C147.56 32 145.93 31.6201 144.509 30.8603C143.087 30.1005 141.972 29.0098 141.163 27.5883C140.379 26.1422 139.987 24.4265 139.987 22.4412C139.987 20.4314 140.379 18.7157 141.163 17.2941C141.972 15.8726 143.087 14.7819 144.509 14.0221C145.93 13.2623 147.56 12.8824 149.399 12.8824ZM149.399 16.6324C148.467 16.6324 147.671 16.853 147.009 17.2941C146.372 17.7108 145.881 18.3481 145.538 19.2059C145.195 20.0638 145.024 21.1422 145.024 22.4412C145.024 23.7402 145.195 24.8186 145.538 25.6765C145.881 26.5343 146.372 27.1838 147.009 27.625C147.671 28.0417 148.467 28.25 149.399 28.25C150.305 28.25 151.077 28.0417 151.715 27.625C152.376 27.1838 152.879 26.5343 153.222 25.6765C153.565 24.8186 153.737 23.7402 153.737 22.4412C153.737 21.1422 153.565 20.0638 153.222 19.2059C152.879 18.3481 152.376 17.7108 151.715 17.2941C151.077 16.853 150.305 16.6324 149.399 16.6324Z" fill="black"/>
<path d="M117.933 31.6324V7.36768H128.558C131.499 7.36768 133.668 7.94365 135.065 9.09561C136.462 10.2476 137.161 11.8775 137.161 13.9853C137.161 15.2843 136.768 16.4363 135.984 17.4412C135.2 18.4461 134.048 19.0833 132.528 19.353V19.3897C134.219 19.6348 135.518 20.2721 136.425 21.3015C137.332 22.3309 137.786 23.5564 137.786 24.978C137.786 27.0613 137.026 28.6912 135.506 29.8677C134.011 31.0441 131.817 31.6324 128.925 31.6324H117.933ZM122.859 27.8088H128.484C129.857 27.8088 130.874 27.527 131.536 26.9632C132.197 26.3995 132.528 25.6152 132.528 24.6103C132.528 23.5809 132.197 22.7966 131.536 22.2574C130.874 21.7181 129.857 21.4485 128.484 21.4485H122.859V27.8088ZM122.859 17.5515H127.896C130.567 17.5515 131.903 16.5098 131.903 14.4265C131.903 12.3432 130.567 11.3015 127.896 11.3015H122.859V17.5515Z" fill="black"/>
<path d="M105.074 12.8824C106.937 12.8824 108.567 13.2623 109.964 14.0221C111.385 14.7819 112.488 15.8726 113.273 17.2941C114.082 18.7157 114.486 20.4314 114.486 22.4412C114.486 24.4265 114.082 26.1422 113.273 27.5883C112.488 29.0098 111.385 30.1005 109.964 30.8603C108.567 31.6201 106.937 32 105.074 32C103.236 32 101.606 31.6201 100.184 30.8603C98.7629 30.1005 97.6477 29.0098 96.8389 27.5883C96.0546 26.1422 95.6624 24.4265 95.6624 22.4412C95.6624 20.4314 96.0546 18.7157 96.8389 17.2941C97.6477 15.8726 98.7629 14.7819 100.184 14.0221C101.606 13.2623 103.236 12.8824 105.074 12.8824ZM105.074 16.6324C104.143 16.6324 103.346 16.853 102.684 17.2941C102.047 17.7108 101.557 18.3481 101.214 19.2059C100.871 20.0638 100.699 21.1422 100.699 22.4412C100.699 23.7402 100.871 24.8186 101.214 25.6765C101.557 26.5343 102.047 27.1838 102.684 27.625C103.346 28.0417 104.143 28.25 105.074 28.25C105.981 28.25 106.753 28.0417 107.39 27.625C108.052 27.1838 108.555 26.5343 108.898 25.6765C109.241 24.8186 109.412 23.7402 109.412 22.4412C109.412 21.1422 109.241 20.0638 108.898 19.2059C108.555 18.3481 108.052 17.7108 107.39 17.2941C106.753 16.853 105.981 16.6324 105.074 16.6324Z" fill="black"/>
<path d="M93.9853 24.9412C93.5196 26.5098 92.7843 27.8211 91.7794 28.875C90.7745 29.9289 89.5858 30.7132 88.2132 31.2279C86.8407 31.7426 85.3333 32 83.6912 32C81.2892 32 79.2059 31.4975 77.4412 30.4926C75.701 29.4877 74.3529 28.0539 73.3971 26.1912C72.4657 24.3284 72 22.098 72 19.5C72 16.9019 72.4657 14.6716 73.3971 12.8088C74.3529 10.9461 75.701 9.51225 77.4412 8.50735C79.2059 7.50245 81.2647 7 83.6176 7C85.2843 7 86.7917 7.23284 88.1397 7.69853C89.4877 8.1397 90.6274 8.82598 91.5588 9.75735C92.5147 10.6887 93.2132 11.8652 93.6544 13.2868L89.0588 15.2353C88.6421 13.7647 88.0049 12.723 87.147 12.1103C86.2892 11.473 85.1863 11.1544 83.8382 11.1544C82.5147 11.1544 81.3505 11.473 80.3456 12.1103C79.3652 12.7475 78.6054 13.6912 78.0662 14.9412C77.527 16.1667 77.2573 17.6863 77.2573 19.5C77.2573 21.2892 77.5024 22.8088 77.9926 24.0588C78.5073 25.3088 79.2549 26.2524 80.2353 26.8897C81.2157 27.5269 82.4167 27.8456 83.8382 27.8456C85.1618 27.8456 86.3015 27.4902 87.2573 26.7794C88.2377 26.0686 88.924 24.9902 89.3162 23.5441L93.9853 24.9412Z" fill="black"/>
</svg>
