<svg width="129" height="40" viewBox="0 0 129 40" fill="none" xmlns="http://www.w3.org/2000/svg">
<path d="M69 40V2H82.5C86.7103 2 89.8391 2.88283 91.8863 4.64849C93.9335 6.37576 94.9571 8.85152 94.9571 12.0758C94.9571 14.2636 94.3584 16.1444 93.1609 17.7182C91.9635 19.2535 90.2253 20.2515 87.9464 20.7121V20.7697C90.4185 21.1535 92.3691 22.1707 93.7983 23.8212C95.2661 25.4333 96 27.4293 96 29.8091C96 32.995 94.8412 35.4899 92.5236 37.2939C90.206 39.098 86.8648 40 82.5 40H69ZM71.897 37.3515H83.0794C86.3627 37.3515 88.8154 36.699 90.4378 35.3939C92.0987 34.0889 92.9292 32.2081 92.9292 29.7515C92.9292 27.2566 92.0987 25.3758 90.4378 24.1091C88.8154 22.804 86.3627 22.1515 83.0794 22.1515H71.897V37.3515ZM71.897 19.503H82.5579C88.7768 19.503 91.8863 17.0273 91.8863 12.0758C91.8863 7.12424 88.7768 4.64849 82.5579 4.64849H71.897V19.503Z" fill="black"/>
<circle cx="20" cy="20" r="18.5" stroke="black" stroke-width="3"/>
<circle cx="44" cy="20" r="19" fill="white" stroke="white" stroke-width="2"/>
<circle cx="49" cy="25" r="13.5" stroke="black" stroke-width="3"/>
<circle cx="114" cy="25" r="13.5" stroke="black" stroke-width="3"/>
</svg>
