<svg width="115" height="25" viewBox="0 0 115 25" fill="none" xmlns="http://www.w3.org/2000/svg">
<path d="M32.4482 5.88235C34.2375 5.88235 35.8183 6.26226 37.1909 7.02206C38.5634 7.78187 39.6296 8.88481 40.3894 10.3309C41.1737 11.7525 41.5659 13.4559 41.5659 15.4412C41.5659 17.4265 41.1737 19.1422 40.3894 20.5882C39.6296 22.0098 38.5634 23.1005 37.1909 23.8603C35.8183 24.6201 34.2375 25 32.4482 25C30.659 25 29.0781 24.6201 27.7056 23.8603C26.333 23.1005 25.2546 22.0098 24.4703 20.5882C23.686 19.1422 23.2938 17.4265 23.2938 15.4412C23.2938 13.4559 23.686 11.7525 24.4703 10.3309C25.2546 8.88481 26.333 7.78187 27.7056 7.02206C29.0781 6.26226 30.659 5.88235 32.4482 5.88235ZM32.4482 8.97059C31.3453 8.97059 30.4017 9.22794 29.6174 9.74265C28.8575 10.2328 28.2693 10.9559 27.8526 11.9118C27.436 12.8677 27.2276 14.0441 27.2276 15.4412C27.2276 16.8137 27.436 17.9902 27.8526 18.9706C28.2693 19.9265 28.8575 20.6618 29.6174 21.1765C30.4017 21.6667 31.3453 21.9118 32.4482 21.9118C33.5512 21.9118 34.4826 21.6667 35.2424 21.1765C36.0022 20.6618 36.5904 19.9265 37.0071 18.9706C37.4237 17.9902 37.6321 16.8137 37.6321 15.4412C37.6321 14.0441 37.4237 12.8677 37.0071 11.9118C36.5904 10.9559 36.0022 10.2328 35.2424 9.74265C34.4826 9.22794 33.5512 8.97059 32.4482 8.97059Z" fill="black"/>
<path d="M21.4706 18.1985C20.9804 19.6691 20.2451 20.9191 19.2647 21.9485C18.2843 22.9534 17.1324 23.7132 15.8088 24.2279C14.4853 24.7426 13.027 25 11.4338 25C9.10539 25 7.08333 24.4975 5.36765 23.4926C3.65196 22.4877 2.32843 21.0539 1.39706 19.1912C0.465686 17.3284 0 15.098 0 12.5C0 9.90196 0.465686 7.67157 1.39706 5.80882C2.32843 3.94608 3.65196 2.51226 5.36765 1.50735C7.08333 0.502451 9.09314 0 11.3971 0C12.9902 0 14.424 0.220588 15.6985 0.661765C16.9975 1.10294 18.1005 1.76471 19.0074 2.64706C19.9142 3.52941 20.6127 4.63235 21.1029 5.95588L17.3897 7.61029C16.8995 6.16422 16.1887 5.11029 15.2574 4.44853C14.326 3.76225 13.1127 3.41912 11.6176 3.41912C10.1225 3.41912 8.81127 3.77451 7.68382 4.48529C6.55637 5.19608 5.67402 6.22549 5.03676 7.57353C4.42402 8.92157 4.11765 10.5637 4.11765 12.5C4.11765 14.4118 4.41176 16.0539 5 17.4265C5.58824 18.7745 6.43382 19.8039 7.53676 20.5147C8.63971 21.2255 9.96323 21.5809 11.5074 21.5809C13.0025 21.5809 14.2892 21.201 15.3676 20.4412C16.4706 19.6569 17.2549 18.4926 17.7206 16.9485L21.4706 18.1985Z" fill="black"/>
<path d="M62.3114 24.2708C61.4536 24.2708 60.6693 24.1442 59.9585 23.8909C59.2559 23.6377 58.5941 23.2373 57.9732 22.69C57.3523 22.1426 56.7477 21.4318 56.1595 20.5576C55.5794 19.6998 55.1014 18.8664 54.7256 18.0576C54.3498 17.2488 54.0679 16.4522 53.88 15.6679C53.7003 14.8754 53.6104 14.087 53.6104 13.3027C53.6104 12.3958 53.7861 11.5829 54.1374 10.864C54.4969 10.145 55.0034 9.58129 55.657 9.17279C56.3188 8.75613 57.099 8.54779 57.9977 8.54779C58.6676 8.54779 59.2518 8.6826 59.7501 8.95221C60.2567 9.22181 60.6488 9.59355 60.9266 10.0674C61.2126 10.5413 61.3555 11.0846 61.3555 11.6973C61.3555 12.5061 61.1431 13.2128 60.7183 13.8174C60.2934 14.4138 59.6848 14.8917 58.8923 15.2512C58.0998 15.6107 57.148 15.8395 56.0369 15.9375L55.9511 15.5576C56.6211 15.4677 57.2011 15.2635 57.6913 14.9449C58.1897 14.6181 58.5737 14.1728 58.8433 13.6091C59.1211 13.0453 59.2599 12.355 59.2599 11.538C59.2599 10.8109 59.1333 10.2226 58.88 9.77328C58.6349 9.32394 58.2918 9.09926 57.8506 9.09926C57.2706 9.09926 56.7845 9.39338 56.3923 9.98162C56.0083 10.5617 55.8163 11.3419 55.8163 12.3223C55.8163 13.0984 55.9144 13.8746 56.1104 14.6507C56.3065 15.4187 56.5925 16.1908 56.9683 16.9669C57.3523 17.7349 57.8139 18.5069 58.3531 19.2831C59.0067 20.2308 59.6031 20.9906 60.1423 21.5625C60.6815 22.1344 61.2044 22.5511 61.7109 22.8125C62.2256 23.0658 62.773 23.1924 63.3531 23.1924C64.1292 23.1924 64.8237 23.0004 65.4364 22.6164C66.0492 22.2243 66.5271 21.636 66.8702 20.8517C67.2215 20.0592 67.3972 19.0584 67.3972 17.8493C67.3972 16.3378 67.1398 14.855 66.6251 13.4007C66.1104 11.9465 65.2975 10.623 64.1864 9.43015C63.1325 8.28636 61.9274 7.39583 60.5712 6.75858C59.215 6.12132 57.7322 5.80269 56.1227 5.80269C54.8482 5.80269 53.7861 5.98652 52.9364 6.35417C52.0867 6.71364 51.4495 7.20384 51.0246 7.82475C50.608 8.4375 50.3996 9.12786 50.3996 9.89583C50.3996 10.2308 50.4446 10.5127 50.5345 10.7414C50.6325 10.962 50.7387 11.1663 50.8531 11.3542C50.9756 11.5339 51.0818 11.7259 51.1717 11.9301C51.2616 12.1344 51.3065 12.3836 51.3065 12.6777C51.3065 13.0127 51.188 13.2945 50.9511 13.5233C50.7224 13.7439 50.4282 13.8542 50.0688 13.8542C49.5704 13.8542 49.1742 13.6336 48.88 13.1924C48.5941 12.7431 48.4511 12.1385 48.4511 11.3787C48.4511 10.1368 48.7575 9.05433 49.3702 8.13113C49.9912 7.20792 50.8776 6.49305 52.0296 5.98652C53.1897 5.47998 54.5704 5.22672 56.1717 5.22672C57.8465 5.22672 59.4029 5.55351 60.8408 6.20711C62.2787 6.8607 63.5614 7.79207 64.6889 9.00122C65.8163 10.194 66.6619 11.5462 67.2256 13.0576C67.7894 14.5609 68.0712 16.1417 68.0712 17.8002C68.0712 19.1891 67.8384 20.3656 67.3727 21.3297C66.907 22.2937 66.2452 23.0249 65.3874 23.5233C64.5296 24.0217 63.5042 24.2708 62.3114 24.2708ZM59.7379 21.5502C60.3016 21.1172 60.7469 20.6965 61.0737 20.288C61.4086 19.8795 61.6496 19.4914 61.7967 19.1238C61.9519 18.748 62.0296 18.4007 62.0296 18.0821C62.0296 17.788 61.9846 17.5429 61.8947 17.3468C61.813 17.1426 61.7313 16.9506 61.6496 16.7708C61.568 16.5911 61.5271 16.3868 61.5271 16.1581C61.5271 15.815 61.6415 15.5208 61.8702 15.2757C62.1072 15.0306 62.4054 14.9081 62.7648 14.9081C63.1407 14.9081 63.447 15.0592 63.684 15.3615C63.9291 15.6556 64.0516 16.0764 64.0516 16.6238C64.0516 17.596 63.7166 18.5274 63.0467 19.4179C62.3849 20.3002 61.3719 21.1172 60.0075 21.8689L59.7379 21.5502ZM54.2967 16.1213C53.5778 16.2357 52.9773 16.4726 52.4952 16.8321C52.0132 17.1916 51.6537 17.6287 51.4168 18.1434C51.1799 18.6581 51.0614 19.2055 51.0614 19.7855C51.0614 20.8313 51.3514 21.6605 51.9315 22.2733C52.5197 22.8779 53.3041 23.1801 54.2845 23.1801C54.9871 23.1801 55.5998 23.0699 56.1227 22.8493C56.6537 22.6205 57.1521 22.3223 57.6178 21.9547L57.9364 22.3836C57.5197 22.7512 57.0663 23.0739 56.5761 23.3517C56.0941 23.6213 55.5508 23.8297 54.9462 23.9767C54.3416 24.1319 53.6554 24.2096 52.8874 24.2096C51.474 24.2096 50.3711 23.8746 49.5786 23.2047C48.7943 22.5266 48.4021 21.5993 48.4021 20.4228C48.4021 19.5731 48.6227 18.8092 49.0639 18.1311C49.505 17.453 50.1627 16.9016 51.0369 16.4767C51.9111 16.0519 53.0018 15.7864 54.309 15.6801L54.2967 16.1213Z" fill="black"/>
<path d="M105.321 5.88235C107.11 5.88235 108.691 6.26225 110.064 7.02206C111.436 7.78186 112.502 8.8848 113.262 10.3309C114.046 11.7524 114.439 13.4559 114.439 15.4412C114.439 17.4265 114.046 19.1422 113.262 20.5882C112.502 22.0098 111.436 23.1005 110.064 23.8603C108.691 24.6201 107.11 25 105.321 25C103.532 25 101.951 24.6201 100.578 23.8603C99.2057 23.1005 98.1273 22.0098 97.343 20.5882C96.5587 19.1422 96.1665 17.4265 96.1665 15.4412C96.1665 13.4559 96.5587 11.7524 97.343 10.3309C98.1273 8.8848 99.2057 7.78186 100.578 7.02206C101.951 6.26225 103.532 5.88235 105.321 5.88235ZM105.321 8.97058C104.218 8.97058 103.274 9.22794 102.49 9.74264C101.73 10.2328 101.142 10.9559 100.725 11.9118C100.309 12.8676 100.1 14.0441 100.1 15.4412C100.1 16.8137 100.309 17.9902 100.725 18.9706C101.142 19.9265 101.73 20.6618 102.49 21.1765C103.274 21.6667 104.218 21.9118 105.321 21.9118C106.424 21.9118 107.355 21.6667 108.115 21.1765C108.875 20.6618 109.463 19.9265 109.88 18.9706C110.296 17.9902 110.505 16.8137 110.505 15.4412C110.505 14.0441 110.296 12.8676 109.88 11.9118C109.463 10.9559 108.875 10.2328 108.115 9.74264C107.355 9.22794 106.424 8.97058 105.321 8.97058Z" fill="black"/>
<path d="M75.0228 24.6324V0.367645H84.5817C87.4983 0.367645 89.6307 0.95588 90.9787 2.13235C92.3267 3.30882 93.0008 4.93872 93.0008 7.02206C93.0008 8.29657 92.6331 9.43627 91.8978 10.4412C91.1625 11.4216 90.0841 12.0466 88.6625 12.3162V12.3529C90.2312 12.598 91.4444 13.2475 92.3022 14.3015C93.1846 15.3309 93.6258 16.5319 93.6258 17.9044C93.6258 19.9877 92.866 21.6299 91.3464 22.8309C89.8267 24.0319 87.6209 24.6324 84.7287 24.6324H75.0228ZM78.8831 21.3603H84.9125C86.4567 21.3603 87.6086 21.0417 88.3684 20.4044C89.1527 19.7672 89.5449 18.8725 89.5449 17.7206C89.5449 16.5686 89.1527 15.674 88.3684 15.0368C87.6086 14.3995 86.4567 14.0809 84.9125 14.0809H78.8831V21.3603ZM78.8831 10.8088H84.2875C87.3758 10.8088 88.9199 9.6201 88.9199 7.24265C88.9199 4.86519 87.3758 3.67647 84.2875 3.67647H78.8831V10.8088Z" fill="black"/>
</svg>
