<svg width="340" height="90" viewBox="0 0 340 90" fill="none" xmlns="http://www.w3.org/2000/svg">
<path d="M82.5964 29.8978V22.832H85.4181C86.0255 22.832 86.5447 22.933 86.9758 23.1349C87.4134 23.3367 87.7498 23.6261 87.9849 24.0029C88.2201 24.3798 88.3376 24.8273 88.3376 25.3454C88.3376 25.8636 88.2201 26.3111 87.9849 26.6879C87.7498 27.0648 87.4134 27.3541 86.9758 27.556C86.5447 27.7579 86.0255 27.8588 85.4181 27.8588H83.3018L83.8701 27.2431V29.8978H82.5964ZM83.8701 27.3844L83.3018 26.7485H85.3593C85.921 26.7485 86.3423 26.6274 86.6231 26.3851C86.9105 26.1361 87.0542 25.7896 87.0542 25.3454C87.0542 24.8946 86.9105 24.548 86.6231 24.3058C86.3423 24.0635 85.921 23.9424 85.3593 23.9424H83.3018L83.8701 23.2964V27.3844Z" fill="#030000"/>
<path d="M77.5749 30.0006C76.5998 30.0006 75.8346 29.7263 75.2793 29.1779C74.7308 28.6294 74.4565 27.8371 74.4565 26.8011V22.7891H75.777V26.7503C75.777 27.4816 75.9328 28.0132 76.2443 28.345C76.5625 28.6768 77.0095 28.8427 77.5851 28.8427C78.1606 28.8427 78.6042 28.6768 78.9157 28.345C79.2272 28.0132 79.3829 27.4816 79.3829 26.7503V22.7891H80.6831V26.8011C80.6831 27.8371 80.4055 28.6294 79.8502 29.1779C79.3017 29.7263 78.5432 30.0006 77.5749 30.0006Z" fill="#030000"/>
<path d="M69.4113 30.0006C68.856 30.0006 68.3448 29.9092 67.8775 29.7264C67.4103 29.5435 67.004 29.2896 66.6586 28.9646C66.3133 28.6328 66.0458 28.2468 65.8562 27.8067C65.6666 27.3598 65.5718 26.8722 65.5718 26.344C65.5718 25.8159 65.6666 25.3317 65.8562 24.8916C66.0458 24.4447 66.3133 24.0587 66.6586 23.7337C67.004 23.4019 67.4103 23.1446 67.8775 22.9617C68.3448 22.7789 68.8527 22.6875 69.4012 22.6875C69.9564 22.6875 70.4643 22.7789 70.9248 22.9617C71.392 23.1446 71.7983 23.4019 72.1437 23.7337C72.489 24.0587 72.7565 24.4447 72.9461 24.8916C73.1357 25.3317 73.2305 25.8159 73.2305 26.344C73.2305 26.8722 73.1357 27.3598 72.9461 27.8067C72.7565 28.2536 72.489 28.6395 72.1437 28.9646C71.7983 29.2896 71.392 29.5435 70.9248 29.7264C70.4643 29.9092 69.9598 30.0006 69.4113 30.0006ZM69.4012 28.8427C69.7601 28.8427 70.0919 28.7817 70.3966 28.6599C70.7013 28.538 70.9654 28.3653 71.1889 28.1418C71.4124 27.9116 71.585 27.6475 71.7069 27.3496C71.8356 27.0449 71.8999 26.7097 71.8999 26.344C71.8999 25.9784 71.8356 25.6466 71.7069 25.3487C71.585 25.0439 71.4124 24.7799 71.1889 24.5564C70.9654 24.3262 70.7013 24.1501 70.3966 24.0282C70.0919 23.9063 69.7601 23.8454 69.4012 23.8454C69.0423 23.8454 68.7105 23.9063 68.4057 24.0282C68.1078 24.1501 67.8437 24.3262 67.6134 24.5564C67.39 24.7799 67.2139 25.0439 67.0852 25.3487C66.9634 25.6466 66.9024 25.9784 66.9024 26.344C66.9024 26.7029 66.9634 27.0347 67.0852 27.3394C67.2139 27.6442 67.39 27.9116 67.6134 28.1418C67.8369 28.3653 68.101 28.538 68.4057 28.6599C68.7105 28.7817 69.0423 28.8427 69.4012 28.8427Z" fill="#030000"/>
<path d="M58.4976 29.899V22.7891H61.4229C62.0527 22.7891 62.591 22.8906 63.038 23.0938C63.4917 23.2969 63.8404 23.5881 64.0842 23.9673C64.328 24.3465 64.4499 24.7968 64.4499 25.3182C64.4499 25.8396 64.328 26.2899 64.0842 26.6691C63.8404 27.0415 63.4917 27.3293 63.038 27.5324C62.591 27.7288 62.0527 27.827 61.4229 27.827H59.2289L59.818 27.2277V29.899H58.4976ZM63.1497 29.899L61.3518 27.3191H62.7637L64.5718 29.899H63.1497ZM59.818 27.3699L59.2289 26.7402H61.362C61.9443 26.7402 62.3811 26.6149 62.6723 26.3644C62.9703 26.1138 63.1192 25.7651 63.1192 25.3182C63.1192 24.8645 62.9703 24.5158 62.6723 24.272C62.3811 24.0282 61.9443 23.9063 61.362 23.9063H59.2289L59.818 23.2563V27.3699Z" fill="#030000"/>
<path d="M53.9971 30.0006C53.4418 30.0006 52.9306 29.9126 52.4633 29.7365C52.0028 29.5537 51.5999 29.2998 51.2546 28.9747C50.9092 28.6429 50.6417 28.2536 50.4521 27.8067C50.2625 27.3598 50.1677 26.8722 50.1677 26.344C50.1677 25.8159 50.2625 25.3283 50.4521 24.8814C50.6417 24.4345 50.9092 24.0485 51.2546 23.7235C51.6067 23.3917 52.0164 23.1378 52.4836 22.9617C52.9509 22.7789 53.4621 22.6875 54.0174 22.6875C54.6201 22.6875 55.1618 22.7857 55.6426 22.9821C56.1302 23.1784 56.5399 23.4662 56.8717 23.8454L56.0388 24.658C55.7611 24.3803 55.4598 24.1772 55.1347 24.0485C54.8165 23.9131 54.4644 23.8454 54.0784 23.8454C53.7059 23.8454 53.3606 23.9063 53.0423 24.0282C52.724 24.1501 52.4498 24.3228 52.2195 24.5462C51.9893 24.7697 51.8099 25.0338 51.6812 25.3385C51.5593 25.6432 51.4984 25.9784 51.4984 26.344C51.4984 26.7029 51.5593 27.0347 51.6812 27.3394C51.8099 27.6442 51.9893 27.9116 52.2195 28.1418C52.4498 28.3653 52.7206 28.538 53.0321 28.6599C53.3436 28.7817 53.689 28.8427 54.0682 28.8427C54.4203 28.8427 54.7589 28.7885 55.084 28.6802C55.4158 28.5651 55.7307 28.3755 56.0286 28.1114L56.7803 29.0966C56.4078 29.3946 55.9744 29.6214 55.4801 29.7771C54.9925 29.9261 54.4982 30.0006 53.9971 30.0006ZM55.5309 28.9239V26.2628H56.7803V29.0966L55.5309 28.9239Z" fill="#030000"/>
<path d="M41.9777 25.7448H45.5125V26.8316H41.9777V25.7448ZM42.0793 28.7919H46.0915V29.899H40.7588V22.7891H45.9493V23.8962H42.0793V28.7919Z" fill="#030000"/>
<path d="M36.8707 30.0006C36.329 30.0006 35.8245 29.9126 35.3572 29.7365C34.8967 29.5537 34.4938 29.2998 34.1485 28.9747C33.8099 28.6429 33.5458 28.2536 33.3562 27.8067C33.1666 27.3598 33.0718 26.8722 33.0718 26.344C33.0718 25.8159 33.1666 25.3283 33.3562 24.8814C33.5458 24.4345 33.8133 24.0485 34.1586 23.7235C34.504 23.3917 34.9069 23.1378 35.3674 22.9617C35.8278 22.7789 36.3323 22.6875 36.8808 22.6875C37.4632 22.6875 37.9948 22.7891 38.4756 22.9922C38.9564 23.1886 39.3627 23.4831 39.6945 23.8759L38.8412 24.6783C38.5839 24.4007 38.2961 24.1941 37.9779 24.0587C37.6596 23.9165 37.3142 23.8454 36.9418 23.8454C36.5693 23.8454 36.2274 23.9063 35.9159 24.0282C35.6112 24.1501 35.3437 24.3228 35.1134 24.5462C34.89 24.7697 34.7139 25.0338 34.5852 25.3385C34.4634 25.6432 34.4024 25.9784 34.4024 26.344C34.4024 26.7097 34.4634 27.0449 34.5852 27.3496C34.7139 27.6543 34.89 27.9184 35.1134 28.1418C35.3437 28.3653 35.6112 28.538 35.9159 28.6599C36.2274 28.7817 36.5693 28.8427 36.9418 28.8427C37.3142 28.8427 37.6596 28.775 37.9779 28.6395C38.2961 28.4973 38.5839 28.284 38.8412 27.9996L39.6945 28.8122C39.3627 29.1982 38.9564 29.4927 38.4756 29.6959C37.9948 29.899 37.4598 30.0006 36.8707 30.0006Z" fill="#030000"/>
<path d="M25.2041 29.899V22.7891H26.291L30.7501 28.2637H30.2118V22.7891H31.5221V29.899H30.4352L25.9761 24.4244H26.5144V29.899H25.2041Z" fill="#030000"/>
<path d="M19.466 25.7448H23.0008V26.8316H19.466V25.7448ZM19.5675 28.7919H23.5798V29.899H18.2471V22.7891H23.4376V23.8962H19.5675V28.7919Z" fill="#030000"/>
<path d="M14.8508 29.899V22.7891H16.1713V29.899H14.8508Z" fill="#030000"/>
<path d="M10.6981 30.0006C10.1563 30.0006 9.65186 29.9126 9.18461 29.7365C8.72414 29.5537 8.32122 29.2998 7.97587 28.9747C7.63728 28.6429 7.37319 28.2536 7.18358 27.8067C6.99397 27.3598 6.89917 26.8722 6.89917 26.344C6.89917 25.8159 6.99397 25.3283 7.18358 24.8814C7.37319 24.4345 7.64067 24.0485 7.98602 23.7235C8.33138 23.3917 8.73429 23.1378 9.19477 22.9617C9.65524 22.7789 10.1597 22.6875 10.7082 22.6875C11.2906 22.6875 11.8222 22.7891 12.303 22.9922C12.7838 23.1886 13.1901 23.4831 13.5219 23.8759L12.6686 24.6783C12.4113 24.4007 12.1235 24.1941 11.8053 24.0587C11.487 23.9165 11.1416 23.8454 10.7692 23.8454C10.3967 23.8454 10.0548 23.9063 9.74327 24.0282C9.43855 24.1501 9.17107 24.3228 8.94083 24.5462C8.71737 24.7697 8.5413 25.0338 8.41264 25.3385C8.29075 25.6432 8.2298 25.9784 8.2298 26.344C8.2298 26.7097 8.29075 27.0449 8.41264 27.3496C8.5413 27.6543 8.71737 27.9184 8.94083 28.1418C9.17107 28.3653 9.43855 28.538 9.74327 28.6599C10.0548 28.7817 10.3967 28.8427 10.7692 28.8427C11.1416 28.8427 11.487 28.775 11.8053 28.6395C12.1235 28.4973 12.4113 28.284 12.6686 27.9996L13.5219 28.8122C13.1901 29.1982 12.7838 29.4927 12.303 29.6959C11.8222 29.899 11.2872 30.0006 10.6981 30.0006Z" fill="#030000"/>
<path d="M3.07056 30.0006C2.51529 30.0006 1.98371 29.9227 1.47583 29.767C0.967958 29.6045 0.565044 29.3979 0.26709 29.1474L0.724178 28.1215C1.00859 28.345 1.36072 28.5312 1.78056 28.6802C2.2004 28.8291 2.63041 28.9036 3.07056 28.9036C3.44301 28.9036 3.74435 28.863 3.97458 28.7817C4.20482 28.7005 4.37411 28.5921 4.48246 28.4567C4.59081 28.3145 4.64498 28.1554 4.64498 27.9793C4.64498 27.7627 4.5671 27.59 4.41136 27.4613C4.25561 27.3259 4.05246 27.2209 3.80191 27.1465C3.55812 27.0652 3.28387 26.9907 2.97915 26.923C2.68119 26.8553 2.37985 26.7774 2.07513 26.6894C1.77717 26.5946 1.50292 26.4761 1.25237 26.3339C1.00859 26.1849 0.808824 25.9885 0.653075 25.7448C0.497327 25.501 0.419453 25.1895 0.419453 24.8103C0.419453 24.4244 0.521028 24.0722 0.724178 23.754C0.9341 23.429 1.24898 23.1717 1.66883 22.9821C2.09544 22.7857 2.63379 22.6875 3.28387 22.6875C3.71049 22.6875 4.13372 22.7417 4.55356 22.85C4.97341 22.9584 5.33908 23.1141 5.65057 23.3172L5.23412 24.3431C4.91585 24.1535 4.58742 24.0147 4.24884 23.9267C3.91025 23.8319 3.58521 23.7845 3.27371 23.7845C2.90804 23.7845 2.61009 23.8285 2.37985 23.9165C2.15639 24.0045 1.99048 24.1196 1.88213 24.2618C1.78056 24.404 1.72977 24.5666 1.72977 24.7494C1.72977 24.9661 1.80426 25.1421 1.95324 25.2776C2.10899 25.4062 2.30875 25.5078 2.55253 25.5823C2.80308 25.6568 3.08072 25.7312 3.38545 25.8057C3.69017 25.8734 3.99151 25.9513 4.28947 26.0393C4.59419 26.1274 4.86844 26.2425 5.11222 26.3847C5.36278 26.5269 5.56254 26.7199 5.71152 26.9636C5.86727 27.2074 5.94514 27.5155 5.94514 27.8879C5.94514 28.2671 5.84018 28.6192 5.63026 28.9443C5.42711 29.2625 5.11223 29.5198 4.68561 29.7162C4.25899 29.9058 3.72065 30.0006 3.07056 30.0006Z" fill="#030000"/>
<path d="M66.1309 20.4447V13.3789H67.4273V19.3344H70.6355V20.4447H66.1309Z" fill="#030000"/>
<path d="M57.3647 20.4498L60.5644 13.3398H61.8645L65.0743 20.4498H63.6929L60.9402 14.0407H61.4684L58.7259 20.4498H57.3647ZM58.8376 18.8043L59.1931 17.7683H63.0326L63.3882 18.8043H58.8376Z" fill="#030000"/>
<path d="M50.6116 20.4498V13.3398H53.5369C54.1667 13.3398 54.7051 13.4414 55.152 13.6446C55.6057 13.8477 55.9544 14.1389 56.1982 14.5181C56.442 14.8973 56.5639 15.3476 56.5639 15.869C56.5639 16.3904 56.442 16.8406 56.1982 17.2198C55.9544 17.5923 55.6057 17.8801 55.152 18.0832C54.7051 18.2796 54.1667 18.3778 53.5369 18.3778H51.3429L51.9321 17.7785V20.4498H50.6116ZM55.2637 20.4498L53.4658 17.8699H54.8777L56.6858 20.4498H55.2637ZM51.9321 17.9207L51.3429 17.2909H53.476C54.0584 17.2909 54.4951 17.1657 54.7863 16.9151C55.0843 16.6646 55.2332 16.3159 55.2332 15.869C55.2332 15.4153 55.0843 15.0665 54.7863 14.8228C54.4951 14.579 54.0584 14.4571 53.476 14.4571H51.3429L51.9321 13.8071V17.9207Z" fill="#030000"/>
<path d="M45.5051 20.5475C44.9498 20.5475 44.4385 20.4561 43.9713 20.2732C43.504 20.0904 43.0977 19.8365 42.7524 19.5114C42.407 19.1796 42.1395 18.7937 41.9499 18.3535C41.7603 17.9066 41.6655 17.4191 41.6655 16.8909C41.6655 16.3628 41.7603 15.8786 41.9499 15.4385C42.1395 14.9915 42.407 14.6056 42.7524 14.2806C43.0977 13.9488 43.504 13.6914 43.9713 13.5086C44.4385 13.3258 44.9464 13.2344 45.4949 13.2344C46.0502 13.2344 46.5581 13.3258 47.0185 13.5086C47.4858 13.6914 47.8921 13.9488 48.2374 14.2806C48.5828 14.6056 48.8503 14.9915 49.0399 15.4385C49.2295 15.8786 49.3243 16.3628 49.3243 16.8909C49.3243 17.4191 49.2295 17.9066 49.0399 18.3535C48.8503 18.8005 48.5828 19.1864 48.2374 19.5114C47.8921 19.8365 47.4858 20.0904 47.0185 20.2732C46.5581 20.4561 46.0536 20.5475 45.5051 20.5475ZM45.4949 19.3896C45.8538 19.3896 46.1856 19.3286 46.4903 19.2067C46.7951 19.0848 47.0592 18.9122 47.2826 18.6887C47.5061 18.4585 47.6788 18.1944 47.8007 17.8965C47.9293 17.5918 47.9937 17.2566 47.9937 16.8909C47.9937 16.5253 47.9293 16.1935 47.8007 15.8955C47.6788 15.5908 47.5061 15.3267 47.2826 15.1033C47.0592 14.873 46.7951 14.697 46.4903 14.5751C46.1856 14.4532 45.8538 14.3923 45.4949 14.3923C45.136 14.3923 44.8042 14.4532 44.4995 14.5751C44.2015 14.697 43.9374 14.873 43.7072 15.1033C43.4837 15.3267 43.3077 15.5908 43.179 15.8955C43.0571 16.1935 42.9962 16.5253 42.9962 16.8909C42.9962 17.2498 43.0571 17.5816 43.179 17.8863C43.3077 18.191 43.4837 18.4585 43.7072 18.6887C43.9307 18.9122 44.1947 19.0848 44.4995 19.2067C44.8042 19.3286 45.136 19.3896 45.4949 19.3896Z" fill="#030000"/>
<path d="M38.7776 20.4498V13.3398H40.0981V20.4498H38.7776Z" fill="#030000"/>
<path d="M33.5074 20.4447L30.5449 13.3789H31.91L34.5529 19.7684H33.7688L36.4408 13.3789H37.6993L34.7466 20.4447H33.5074Z" fill="#030000"/>
<path d="M22.7197 20.4447L25.9089 13.3789H27.2048L30.4041 20.4447H29.0272L26.2835 14.0754H26.81L24.0764 20.4447H22.7197ZM24.1878 18.8095L24.5421 17.7799H28.3691L28.7235 18.8095H24.1878Z" fill="#030000"/>
<path d="M20.2592 13.3398H21.5797V20.4498H20.2592V13.3398ZM16.5822 20.4498H15.2617V13.3398H16.5822V20.4498ZM20.3608 17.4027H16.4705V16.2752H20.3608V17.4027Z" fill="#030000"/>
<path d="M9.69815 16.2956H13.233V17.3824H9.69815V16.2956ZM9.79973 19.3427H13.8119V20.4498H8.47925V13.3398H13.6697V14.447H9.79973V19.3427Z" fill="#030000"/>
<path d="M0.866211 20.4447V13.3789H3.98688C4.78608 13.3789 5.39499 13.5471 5.81362 13.8836C6.23224 14.2133 6.44156 14.6575 6.44156 15.216C6.44156 15.5929 6.3591 15.9159 6.19419 16.185C6.02927 16.4475 5.80727 16.6527 5.52819 16.8008C5.25545 16.9421 4.95733 17.0127 4.63385 17.0127L4.80511 16.6494C5.17933 16.6494 5.5155 16.7234 5.81362 16.8714C6.11173 17.0127 6.34641 17.2213 6.51767 17.4973C6.69527 17.7732 6.78407 18.1163 6.78407 18.5268C6.78407 19.1325 6.56524 19.6035 6.12758 19.94C5.68993 20.2765 5.03979 20.4447 4.17717 20.4447H0.866211ZM2.10306 19.4151H4.10105C4.56408 19.4151 4.91928 19.3344 5.16665 19.1729C5.41402 19.0113 5.5377 18.7523 5.5377 18.3956C5.5377 18.0457 5.41402 17.79 5.16665 17.6285C4.91928 17.4602 4.56408 17.3761 4.10105 17.3761H2.00792V16.3566H3.85368C4.28499 16.3566 4.61482 16.2759 4.84316 16.1144C5.07785 15.9529 5.19519 15.7106 5.19519 15.3876C5.19519 15.0579 5.07785 14.8123 4.84316 14.6507C4.61482 14.4892 4.28499 14.4085 3.85368 14.4085H2.10306V19.4151Z" fill="#030000"/>
<path d="M6.80112 4.19531C6.80112 2.75633 5.63454 1.5898 4.1955 1.5898C2.75645 1.5898 1.58987 2.75633 1.58987 4.19531C1.58987 5.6343 2.75645 6.80082 4.1955 6.80082V8.39063C1.87839 8.39063 0 6.51232 0 4.19531C0 1.87831 1.87839 0 4.1955 0C6.5126 0 8.39099 1.87831 8.39099 4.19531C8.39099 6.51232 6.5126 8.39063 4.1955 8.39063V6.80082C5.63454 6.80082 6.80112 5.6343 6.80112 4.19531Z" fill="#A2958C"/>
<path d="M17.4887 4.23828C17.4887 3.33587 16.7571 2.60432 15.8547 2.60432C14.9522 2.60432 14.2206 3.33587 14.2206 4.23828C14.2206 5.14069 14.9522 5.87225 15.8547 5.87225V8.43359C13.5376 8.43359 11.6592 6.55529 11.6592 4.23828C11.6592 1.92127 13.5376 0.0429688 15.8547 0.0429688C18.1718 0.0429688 20.0502 1.92127 20.0502 4.23828C20.0502 6.55529 18.1718 8.43359 15.8547 8.43359V5.87225C16.7571 5.87225 17.4887 5.14069 17.4887 4.23828Z" fill="#EF4147"/>
<ellipse cx="27.5136" cy="4.19531" rx="4.1955" ry="4.19531" fill="#0BB3A6"/>
<path d="M339.494 29.893V23.0742H340V29.893H339.494Z" fill="#57068C"/>
<path d="M332.493 29.893V23.0742H335.308C336.087 23.0742 336.701 23.2983 337.081 23.6782C337.373 23.9704 337.519 24.3308 337.519 24.7497V24.7692C337.519 25.7043 336.915 26.1524 336.36 26.3862C337.178 26.6005 337.899 27.0778 337.899 28.0129V28.0324C337.899 29.1721 336.925 29.893 335.454 29.893H332.493ZM337.003 24.8179V24.7984C337.003 24.0483 336.399 23.5418 335.298 23.5418H332.999V26.2206H335.249C336.262 26.2206 337.003 25.7238 337.003 24.8179ZM337.383 28.0324V28.0129C337.383 27.1655 336.662 26.6882 335.308 26.6882H332.999V29.4254H335.473C336.642 29.4254 337.383 28.8896 337.383 28.0324Z" fill="#57068C"/>
<path d="M324.31 29.8948L327.485 23.0273H327.972L331.148 29.8948H330.593L329.726 27.9855H325.703L324.836 29.8948H324.31ZM325.917 27.5277H329.512L327.719 23.5826L325.917 27.5277Z" fill="#57068C"/>
<path d="M317.591 29.893V23.0742H318.097V26.2303H322.461V23.0742H322.968V29.893H322.461V26.6979H318.097V29.893H317.591Z" fill="#57068C"/>
<path d="M310.068 29.893V23.0742H312.338C314.481 23.0742 315.962 24.5451 315.962 26.4641V26.4836C315.962 28.4026 314.481 29.893 312.338 29.893H310.068ZM312.338 23.5418H310.575V29.4254H312.338C314.238 29.4254 315.436 28.1298 315.436 26.5031V26.4836C315.436 24.8763 314.238 23.5418 312.338 23.5418Z" fill="#57068C"/>
<path d="M302.631 30.0001C300.994 30.0001 299.835 28.9676 299.835 27.0583V23.0742H300.341V27.0096C300.341 28.6364 301.199 29.5423 302.65 29.5423C304.024 29.5423 304.92 28.7045 304.92 27.0583V23.0742H305.426V26.9999C305.426 28.9481 304.287 30.0001 302.631 30.0001Z" fill="#57068C"/>
<path d="M293.009 29.893V23.0742H295.824C296.604 23.0742 297.217 23.2983 297.597 23.6782C297.89 23.9704 298.036 24.3308 298.036 24.7497V24.7692C298.036 25.7043 297.432 26.1524 296.877 26.3862C297.695 26.6005 298.416 27.0778 298.416 28.0129V28.0324C298.416 29.1721 297.441 29.893 295.971 29.893H293.009ZM297.519 24.8179V24.7984C297.519 24.0483 296.915 23.5418 295.815 23.5418H293.516V26.2206H295.766C296.779 26.2206 297.519 25.7238 297.519 24.8179ZM297.899 28.0324V28.0129C297.899 27.1655 297.178 26.6882 295.824 26.6882H293.516V29.4254H295.99C297.159 29.4254 297.899 28.8896 297.899 28.0324Z" fill="#57068C"/>
<path d="M284.826 29.8948L288.002 23.0273H288.489L291.664 29.8948H291.109L290.242 27.9855H286.219L285.352 29.8948H284.826ZM286.433 27.5277H290.028L288.236 23.5826L286.433 27.5277Z" fill="#57068C"/>
<path d="M277.973 30.0001C276.336 30.0001 275.177 28.9676 275.177 27.0583V23.0742H275.684V27.0096C275.684 28.6364 276.541 29.5423 277.992 29.5423C279.366 29.5423 280.262 28.7045 280.262 27.0583V23.0742H280.768V26.9999C280.768 28.9481 279.629 30.0001 277.973 30.0001Z" fill="#57068C"/>
<path d="M270.63 29.893V27.1947L267.708 23.0742H268.341L270.893 26.7369L273.455 23.0742H274.059L271.136 27.1849V29.893H270.63Z" fill="#57068C"/>
<path d="M260.81 29.893V23.0742H261.288L265.993 29.0065V23.0742H266.48V29.893H266.1L261.297 23.834V29.893H260.81Z" fill="#57068C"/>
<path d="M327.946 19.7069V11.6484H329.581L333.357 16.6102V11.6484H335.107V19.7069H333.599L329.696 14.584V19.7069H327.946Z" fill="#57068C"/>
<path d="M322.195 19.8465C319.708 19.8465 317.924 17.9931 317.924 15.7021V15.6791C317.924 13.3882 319.731 11.5117 322.218 11.5117C324.705 11.5117 326.489 13.3652 326.489 15.6561V15.6791C326.489 17.97 324.682 19.8465 322.195 19.8465ZM322.218 18.2118C323.645 18.2118 324.635 17.0836 324.635 15.7021V15.6791C324.635 14.2977 323.622 13.1464 322.195 13.1464C320.767 13.1464 319.777 14.2746 319.777 15.6561V15.6791C319.777 17.0606 320.79 18.2118 322.218 18.2118Z" fill="#57068C"/>
<path d="M314.609 19.7069V11.6484H316.382V19.7069H314.609Z" fill="#57068C"/>
<path d="M309.055 19.7069V13.2832H306.603V11.6484H313.28V13.2832H310.828V19.7069H309.055Z" fill="#57068C"/>
<path d="M298.542 19.7098L301.996 11.5938H303.631L307.085 19.7098H305.231L304.494 17.9024H301.087L300.35 19.7098H298.542ZM301.72 16.3368H303.861L302.79 13.7235L301.72 16.3368Z" fill="#57068C"/>
<path d="M294.625 19.8465C292.253 19.8465 290.492 18.0161 290.492 15.7021V15.6791C290.492 13.3882 292.219 11.5117 294.694 11.5117C296.202 11.5117 297.134 12.0183 297.871 12.755L296.743 14.0559C296.11 13.4918 295.5 13.1464 294.682 13.1464C293.324 13.1464 292.345 14.2746 292.345 15.6561V15.6791C292.345 17.0606 293.301 18.2118 294.682 18.2118C295.603 18.2118 296.167 17.8549 296.801 17.2678L297.929 18.4075C297.1 19.2939 296.19 19.8465 294.625 19.8465Z" fill="#57068C"/>
<path d="M285.624 19.8336C283.459 19.8336 282.135 18.6363 282.135 16.2533V11.6484H283.908V16.2073C283.908 17.5312 284.553 18.1989 285.647 18.1989C286.74 18.1989 287.385 17.5542 287.385 16.2648V11.6484H289.158V16.1957C289.158 18.6363 287.788 19.8336 285.624 19.8336Z" fill="#57068C"/>
<path d="M273.372 19.7069V11.6484H276.515C279.048 11.6484 280.797 13.3868 280.797 15.6547V15.6777C280.797 17.9456 279.048 19.7069 276.515 19.7069H273.372ZM276.515 13.2486H275.145V18.1068H276.515C277.954 18.1068 278.944 17.1282 278.944 15.7007V15.6777C278.944 14.2502 277.954 13.2486 276.515 13.2486Z" fill="#57068C"/>
<path d="M265.775 19.7069V11.6484H271.853V13.2256H267.536V14.8603H271.335V16.4375H267.536V18.1298H271.911V19.7069H265.775Z" fill="#57068C"/>
<path d="M327.604 8.19523V0.136719H333.682V1.71388H329.365V3.34861H333.164V4.92578H329.365V6.61806H333.74V8.19523H327.604Z" fill="#57068C"/>
<path d="M321.652 8.25279L318.394 0.136719H320.351L322.458 5.81221L324.564 0.136719H326.475L323.217 8.25279H321.652Z" fill="#57068C"/>
<path d="M315.413 8.19523V0.136719H317.186V8.19523H315.413Z" fill="#57068C"/>
<path d="M309.859 8.19523V1.77145H307.407V0.136719H314.084V1.77145H311.632V8.19523H309.859Z" fill="#57068C"/>
<path d="M302.757 8.32186C300.593 8.32186 299.269 7.1246 299.269 4.74158V0.136719H301.042V4.69553C301.042 6.01943 301.687 6.68714 302.781 6.68714C303.874 6.68714 304.519 6.04246 304.519 4.75309V0.136719H306.292V4.68402C306.292 7.1246 304.922 8.32186 302.757 8.32186Z" fill="#57068C"/>
<path d="M294.788 8.3348C292.416 8.3348 290.655 6.50437 290.655 4.19043V4.1674C290.655 1.87648 292.382 0 294.857 0C296.365 0 297.297 0.506535 298.034 1.24331L296.906 2.54419C296.273 1.98009 295.663 1.63473 294.845 1.63473C293.487 1.63473 292.508 2.76292 292.508 4.14438V4.1674C292.508 5.54886 293.464 6.70008 294.845 6.70008C295.766 6.70008 296.33 6.3432 296.963 5.75608L298.092 6.89578C297.263 7.78222 296.353 8.3348 294.788 8.3348Z" fill="#57068C"/>
<path d="M283.415 8.19523V0.136719H289.493V1.71388H285.176V3.34861H288.975V4.92578H285.176V6.61806H289.551V8.19523H283.415Z" fill="#57068C"/>
<path d="M280.071 0.136719H282.086L279.392 4.07388L282.201 8.19523H280.129L278.321 5.43231L276.502 8.19523H274.488L277.297 4.0969L274.603 0.136719H276.675L278.356 2.74998L280.071 0.136719Z" fill="#57068C"/>
<path d="M267.501 8.19523V0.136719H273.579V1.71388H269.262V3.34861H273.061V4.92578H269.262V6.61806H273.637V8.19523H267.501Z" fill="#57068C"/>
<path d="M36.0675 62.0547H34.5718V67.1887H36.0675V62.0547Z" fill="#57068C"/>
<path d="M38.609 67.0967H50.7416V60.293H49.243V65.7453H40.1769C40.1781 65.7381 40.1781 65.7297 40.1797 65.7218C40.2049 65.5853 40.2704 64.009 42.2031 64.009H42.1332V62.6258L42.183 62.6291C38.7517 62.6291 38.6079 65.2194 38.6079 65.7476L38.609 67.0967Z" fill="#57068C"/>
<path d="M52.5612 62.6562L52.5808 66.7427C52.5808 67.2083 52.4594 67.5619 52.216 67.8014C51.9737 68.0415 51.5994 68.1607 51.0929 68.1607H50.7102V69.338L51.1327 69.3369C51.6173 69.3369 52.0437 69.2854 52.4051 69.1819C52.7677 69.0778 53.071 68.9161 53.3144 68.695C53.5573 68.4757 53.7386 68.192 53.8594 67.8456C53.9786 67.4987 54.0391 67.0785 54.0391 66.5866V62.6562H52.5612Z" fill="#57068C"/>
<path d="M25.6153 65.7315H23.9013C23.9013 63.904 25.6153 64.031 25.6153 64.031V65.7315ZM33.447 62.7189H31.9513V65.8367H27.1194V62.6842H27.1116V62.6797L25.6433 62.6948C23.0027 62.8408 22.4739 64.3147 22.4739 65.8435V67.1293H25.6326C25.5828 67.4209 25.4732 67.6559 25.2991 67.8282C25.0552 68.0683 24.6814 68.1886 24.1755 68.1886H23.1924V69.3665L24.2152 69.3642C24.7004 69.3642 25.124 69.3127 25.4871 69.2092C25.8509 69.1057 26.1536 68.944 26.3959 68.7235C26.6376 68.5025 26.8217 68.2199 26.9409 67.873C27.0108 67.671 27.0573 67.4404 27.0869 67.1875H33.447V62.7189Z" fill="#57068C"/>
<path d="M58.1302 65.7315H56.4168C56.4168 63.904 58.1302 64.031 58.1302 64.031V65.7315ZM64.9362 62.7189H63.4399V65.8367H59.6377V62.6842H59.6276V62.6797L58.1593 62.6948C55.5182 62.8408 54.9905 64.3147 54.9905 65.8435V67.1293H58.1487C58.1011 67.4209 57.9903 67.6559 57.8141 67.8282C57.5701 68.0683 57.1968 68.1886 56.691 68.1886H55.7078V69.3665L56.7302 69.3642C57.2153 69.3642 57.6406 69.3127 58.0049 69.2092C58.3658 69.1057 58.6702 68.944 58.913 68.7235C59.1559 68.5025 59.3366 68.2199 59.4581 67.873C59.5269 67.671 59.5733 67.4404 59.6019 67.1875H64.9362V62.7189Z" fill="#57068C"/>
<path d="M69.2222 65.7315H67.5088C67.5088 63.904 69.2222 64.031 69.2222 64.031V65.7315ZM79.1942 62.7189V65.8367H75.4854V62.7189H73.988V65.8367H70.7285V62.6842H70.7196V62.6797L69.2524 62.6948C66.6118 62.8408 66.083 64.3147 66.083 65.8435V67.1293H69.2418C69.1931 67.4209 69.0817 67.6559 68.9071 67.8282C68.6626 68.0683 68.2899 68.1886 67.783 68.1886H66.7998V69.3665L67.8244 69.3642C68.3078 69.3642 68.7326 69.3127 69.0963 69.2092C69.4589 69.1057 69.7633 68.944 70.0061 68.7235C70.2484 68.5025 70.4297 68.2199 70.55 67.873C70.6211 67.671 70.667 67.4404 70.6955 67.1875H80.6922V62.7189H79.1942Z" fill="#57068C"/>
<path d="M19.0812 65.7433H16.1799V64.0143H19.051C20.1052 64.0143 20.2524 64.6371 20.2524 64.8928C20.2524 65.1329 20.2334 65.7433 19.0812 65.7433ZM19.1791 62.6641H16.1799V60H14.6836V65.7876H9.93007V62.6596L4.61922 62.6579V64.0524H4.66399C5.83572 64.0607 6.19776 64.5755 6.19776 65.0456C6.19776 65.8273 5.21516 66.1697 4.23984 66.149H3.72224C1.4504 66.149 1.57294 64.6432 1.57294 64.6432V62.6641H0.00279843L0 64.8005C0 66.247 1.66191 67.3241 3.49561 67.3241H4.46702C7.77126 67.3241 7.68844 65.1043 7.68844 65.1043C7.70467 64.7042 7.60451 64.3551 7.42936 64.0524H8.43267V67.1104L19.032 67.1092C21.6216 67.1092 21.7739 65.27 21.7739 64.9023C21.7739 64.9023 21.874 62.6641 19.1791 62.6641Z" fill="#57068C"/>
<path d="M18.582 61.426C18.582 61.8121 18.268 62.126 17.8825 62.126C17.4964 62.126 17.1836 61.8121 17.1836 61.426C17.1836 61.0394 17.4964 60.7266 17.8825 60.7266C18.268 60.7266 18.582 61.0394 18.582 61.426Z" fill="#57068C"/>
<path d="M80.6068 61.426C80.6068 61.8121 80.294 62.126 79.9062 62.126C79.5201 62.126 79.209 61.8121 79.209 61.426C79.209 61.0394 79.5201 60.7266 79.9062 60.7266C80.294 60.7266 80.6068 61.0394 80.6068 61.426Z" fill="#57068C"/>
<path d="M8.48552 68.6381C8.48552 69.0242 8.17216 69.337 7.78718 69.337C7.3994 69.337 7.08716 69.0242 7.08716 68.6381C7.08716 68.2509 7.3994 67.9375 7.78718 67.9375C8.17216 67.9375 8.48552 68.2509 8.48552 68.6381Z" fill="#57068C"/>
<path d="M32.2377 68.6911C32.2377 69.0783 31.9249 69.3917 31.5388 69.3917C31.1522 69.3917 30.8394 69.0783 30.8394 68.6911C30.8394 68.3061 31.1522 67.9922 31.5388 67.9922C31.9249 67.9922 32.2377 68.3061 32.2377 68.6911Z" fill="#57068C"/>
<path d="M3.84716 68.6381C3.84716 69.0242 3.53436 69.337 3.1477 69.337C2.7616 69.337 2.44824 69.0242 2.44824 68.6381C2.44824 68.2509 2.7616 67.9375 3.1477 67.9375C3.53436 67.9375 3.84716 68.2509 3.84716 68.6381Z" fill="#57068C"/>
<path d="M5.44911 68.6381C5.44911 69.0242 5.13687 69.337 4.74909 69.337C4.36355 69.337 4.04907 69.0242 4.04907 68.6381C4.04907 68.2509 4.36355 67.9375 4.74909 67.9375C5.13687 67.9375 5.44911 68.2509 5.44911 68.6381Z" fill="#57068C"/>
<path d="M62.7591 68.6911C62.7591 69.0777 62.4452 69.3917 62.0602 69.3917C61.6724 69.3917 61.3596 69.0777 61.3596 68.6911C61.3596 68.3055 61.6724 67.9922 62.0602 67.9922C62.4452 67.9922 62.7591 68.3055 62.7591 68.6911Z" fill="#57068C"/>
<path d="M64.3601 68.6911C64.3601 69.0777 64.0479 69.3917 63.6612 69.3917C63.274 69.3917 62.9612 69.0777 62.9612 68.6911C62.9612 68.3055 63.274 67.9922 63.6612 67.9922C64.0479 67.9922 64.3601 68.3055 64.3601 68.6911Z" fill="#57068C"/>
<path d="M73.9676 68.6911C73.9676 69.0777 73.6537 69.3917 73.2676 69.3917C72.8826 69.3917 72.5681 69.0777 72.5681 68.6911C72.5681 68.3055 72.8826 67.9922 73.2676 67.9922C73.6537 67.9922 73.9676 68.3055 73.9676 68.6911Z" fill="#57068C"/>
<path d="M75.5683 68.6911C75.5683 69.0777 75.2561 69.3917 74.8695 69.3917C74.4828 69.3917 74.1694 69.0777 74.1694 68.6911C74.1694 68.3055 74.4828 67.9922 74.8695 67.9922C75.2561 67.9922 75.5683 68.3055 75.5683 68.6911Z" fill="#57068C"/>
<path d="M35.3925 61.3018V61.2939C35.3925 61.224 35.4048 61.158 35.4267 61.0953C35.449 61.0337 35.4809 60.98 35.5207 60.933C35.5621 60.886 35.6108 60.8496 35.665 60.8228C35.7188 60.7965 35.7769 60.7842 35.9342 60.7836V60.3242C35.7025 60.3253 35.5722 60.3505 35.4546 60.4003C35.3349 60.4518 35.2314 60.5212 35.1446 60.6102C35.0573 60.6997 34.9896 60.8032 34.9415 60.9224C34.8917 61.0416 34.8677 61.1675 34.8677 61.3018V61.3074C34.8677 61.3169 34.8693 61.323 34.8693 61.3303H34.5688V61.8171H36.0875V61.3303H35.3959C35.3948 61.3208 35.3925 61.3113 35.3925 61.3018Z" fill="#57068C"/>
<path d="M45.1793 63.7971V63.787C45.1793 63.6936 45.1949 63.6057 45.2246 63.5235C45.2543 63.4412 45.2951 63.369 45.3511 63.3063C45.4037 63.2431 45.4686 63.195 45.5419 63.1597C45.6124 63.1245 45.6918 63.1077 45.9006 63.1066V62.4961C45.5917 62.4972 45.4171 62.5297 45.2621 62.5974C45.1004 62.6651 44.9638 62.758 44.8486 62.8766C44.7327 62.9952 44.6421 63.1334 44.5777 63.2924C44.5111 63.4507 44.4787 63.6186 44.4787 63.7971V63.806C44.4787 63.8167 44.4809 63.8262 44.4809 63.8357H44.0825V64.4842H46.1048V63.8357H45.1832C45.1815 63.8228 45.1793 63.8099 45.1793 63.7971Z" fill="#57068C"/>
<path d="M114.066 62.6291L111.967 62.6258V64.0096H114.048C115.982 64.0096 116.045 65.5853 116.071 65.7218C116.072 65.7297 116.072 65.7381 116.074 65.7453H108.688V60.293H107.192V67.0967H117.642L117.643 65.7476C117.643 65.2194 117.499 62.6291 114.066 62.6291Z" fill="#57068C"/>
<path d="M113.959 67.9922C113.574 67.9922 113.26 68.3055 113.26 68.6911C113.26 69.0777 113.574 69.3917 113.959 69.3917C114.347 69.3917 114.659 69.0777 114.659 68.6911C114.659 68.3055 114.347 67.9922 113.959 67.9922Z" fill="#57068C"/>
<path d="M85.8833 62.126C86.2688 62.126 86.581 61.8121 86.581 61.426C86.581 61.0394 86.2688 60.7266 85.8833 60.7266C85.496 60.7266 85.1821 61.0394 85.1821 61.426C85.1821 61.8121 85.496 62.126 85.8833 62.126Z" fill="#57068C"/>
<path d="M87.4839 62.126C87.87 62.126 88.1833 61.8121 88.1833 61.426C88.1833 61.0394 87.87 60.7266 87.4839 60.7266C87.0978 60.7266 86.7844 61.0394 86.7844 61.426C86.7844 61.8121 87.0978 62.126 87.4839 62.126Z" fill="#57068C"/>
<path d="M102.984 65.743V63.9406C102.984 63.9406 104.696 63.8136 104.696 65.743H102.984ZM84.8441 65.7486C84.8413 65.5348 84.7848 64.0011 86.929 64.0011H87.1574V65.7486H84.8441ZM102.953 62.6038L101.485 62.5898V62.5949H101.476V65.7475H95.7176C95.6835 65.616 95.6622 65.4789 95.6622 65.3339V65.3144C95.6622 65.1191 95.6919 64.9372 95.754 64.7649C95.8144 64.5936 95.9039 64.4431 96.0164 64.3127C96.1294 64.184 96.2626 64.0811 96.4159 64.0061C96.5676 63.9317 96.7377 63.8953 96.9263 63.8953C97.1898 63.8953 97.4125 63.9473 97.5916 64.0509C97.7695 64.1544 97.9419 64.2937 98.1109 64.4683L99.0146 63.4975C98.7678 63.2244 98.4835 63.0106 98.1601 62.8551C97.8367 62.7001 97.4276 62.6212 96.9347 62.6212C96.5335 62.6212 96.1653 62.6934 95.8318 62.8355C95.4983 62.9782 95.2112 63.1718 94.9717 63.418C94.7322 63.6653 94.5436 63.9529 94.4071 64.2831C94.2706 64.6138 94.2034 64.9641 94.2034 65.3339V65.353C94.2034 65.4873 94.2157 65.6188 94.2342 65.7486H88.6536V62.6503H86.929C83.8984 62.6503 83.3836 64.8712 83.3193 65.7486H83.3154V65.8146C83.3109 65.9086 83.3109 65.9836 83.3137 66.0323V66.0519H83.3154V67.0999H106.128V65.7486H106.123C106.121 64.2226 105.591 62.7516 102.953 62.6038Z" fill="#57068C"/>
<path d="M54.8938 82.9827L53.7405 80.1681L52.5884 82.9827H54.8938ZM52.885 77.875H54.6465L58.3648 86.6148H56.3688L55.5754 84.6675H51.9057L51.1123 86.6148H49.1655L52.885 77.875Z" fill="#57068C"/>
<path d="M63.475 84.9388C64.3188 84.9388 64.8269 84.6405 64.8269 83.9965V83.9718C64.8269 83.3893 64.3921 83.0295 63.4135 83.0295H61.2071V84.9388H63.475ZM62.9669 81.442C63.8108 81.442 64.344 81.1695 64.344 80.5255V80.5009C64.344 79.9301 63.8981 79.6078 63.0917 79.6078H61.2071V81.442H62.9669ZM59.3477 77.9336H63.3754C64.3692 77.9336 65.1481 78.2067 65.6445 78.703C66.0417 79.0997 66.2398 79.5832 66.2398 80.1786V80.2037C66.2398 81.183 65.7189 81.728 65.0989 82.0744C66.1033 82.4593 66.7239 83.0424 66.7239 84.2068V84.232C66.7239 85.8189 65.4346 86.6124 63.475 86.6124H59.3477V77.9336Z" fill="#57068C"/>
<path d="M67.5955 82.8924V77.9336H69.5041V82.8426C69.5041 84.2572 70.2109 84.988 71.377 84.988C72.5409 84.988 73.2476 84.2813 73.2476 82.9053V77.9336H75.1569V82.832C75.1569 85.4591 73.6819 86.7489 71.3518 86.7489C69.0207 86.7489 67.5955 85.4463 67.5955 82.8924Z" fill="#57068C"/>
<path d="M82.9507 84.9085C84.5125 84.9085 85.5673 83.8548 85.5673 82.3177V82.2931C85.5673 80.7554 84.5125 79.6771 82.9507 79.6771H81.4763V84.9085H82.9507ZM79.5659 77.9531H82.9507C85.6781 77.9531 87.5627 79.826 87.5627 82.2679V82.2931C87.5627 84.7345 85.6781 86.6319 82.9507 86.6319H79.5659V77.9531Z" fill="#57068C"/>
<path d="M88.6145 77.9531H90.5243V81.3883H94.0445V77.9531H95.9527V86.6319H94.0445V83.1492H90.5243V86.6319H88.6145V77.9531Z" fill="#57068C"/>
<path d="M102.824 82.9989L101.673 80.1837L100.52 82.9989H102.824ZM100.818 77.8906H102.578L106.295 86.6304H104.301L103.506 84.6832H99.8381L99.043 86.6304H97.0979L100.818 77.8906Z" fill="#57068C"/>
<path d="M111.569 84.9588C112.412 84.9588 112.921 84.6606 112.921 84.016V83.9914C112.921 83.4089 112.487 83.0496 111.507 83.0496H109.302V84.9588H111.569ZM111.062 81.4621C111.905 81.4621 112.436 81.1891 112.436 80.545V80.5204C112.436 79.9502 111.991 79.6273 111.185 79.6273H109.302V81.4621H111.062ZM107.441 77.9531H111.471C112.462 77.9531 113.243 78.2262 113.739 78.7225C114.135 79.1193 114.334 79.6027 114.334 80.1981V80.2233C114.334 81.2025 113.813 81.7475 113.194 82.0944C114.199 82.4789 114.816 83.0619 114.816 84.2264V84.2516C114.816 85.8385 113.527 86.6319 111.569 86.6319H107.441V77.9531Z" fill="#57068C"/>
<path d="M117.82 77.9531H115.913V86.6319H117.82V77.9531Z" fill="#57068C"/>
<path d="M19.2319 77.9844H20.9879L25.0436 83.3153V77.9844H26.9221V86.6414H25.3027L21.1115 81.1375V86.6414H19.2319V77.9844Z" fill="#57068C"/>
<path d="M31.2009 83.2275L27.8743 77.9844H30.1002L32.1656 81.4593L34.2679 77.9844H36.4312L33.1045 83.1922V86.6414H31.2009V83.2275Z" fill="#57068C"/>
<path d="M37.2471 82.9309V77.9844H39.1513V82.8811C39.1513 84.2923 39.8563 85.0214 41.0185 85.0214C42.1802 85.0214 42.8858 84.3158 42.8858 82.9443V77.9844H44.79V82.8694C44.79 85.4903 43.3184 86.7773 40.9934 86.7773C38.6684 86.7773 37.2471 85.4792 37.2471 82.9309Z" fill="#57068C"/>
<path d="M6.75571 82.7064C5.1934 81.7742 5.35008 80.4435 5.99694 79.4649C6.01205 79.4453 6.01596 79.4106 6.01205 79.3708C5.98351 79.1381 5.73058 78.55 5.62483 78.3894C5.59685 78.3491 5.57335 78.3519 5.57111 78.3815C5.56272 78.6462 5.25887 79.3132 4.79667 80.0826C4.30369 80.9001 4.30257 82.6739 6.749 82.7439C6.7725 82.7439 6.77921 82.7204 6.75571 82.7064ZM7.17371 82.637C6.23979 80.6422 8.10594 79.3546 8.41147 79.0743C8.45455 79.0362 8.44336 78.9993 8.44336 78.9534C8.44448 78.3261 8.08524 77.31 7.96717 77.1645C7.9515 77.1427 7.9364 77.1516 7.92912 77.1751C7.7702 77.7946 6.9191 78.7173 6.749 78.9193C5.30699 80.6332 5.63714 81.6774 7.14293 82.6622C7.1614 82.6739 7.1849 82.6594 7.17371 82.637ZM7.47811 82.5536C7.91849 80.4374 9.64083 80.3853 9.79528 79.9841C10.0359 79.358 9.59551 78.2467 9.48416 78.1152C9.47185 78.1012 9.45618 78.1096 9.45226 78.1213C9.2178 78.6345 8.83898 79.1218 8.56255 79.3468C8.17253 79.6607 6.67625 80.7698 7.44118 82.5536C7.45125 82.576 7.47252 82.5704 7.47811 82.5536ZM7.78419 82.7372C10.5731 82.8373 10.77 80.2964 10.7812 79.3451C10.7824 79.2903 10.7555 79.2852 10.7409 79.3233C10.6598 79.5219 10.295 80.2303 9.29055 80.6623C8.393 81.0467 7.8519 81.9208 7.75845 82.7064C7.75454 82.7249 7.77132 82.7355 7.78419 82.7372ZM8.41818 83.6879V83.0494H6.21909V83.6879H8.41818ZM7.13286 88.2164C7.14965 88.3233 7.38186 88.3748 7.4339 88.2164L7.96605 83.9934H6.67234L7.13286 88.2164ZM15.279 89.9981H0.0397949V74.7578H15.279V89.9981Z" fill="#57068C"/>
<path d="M262.036 90H232V60H262.036V90ZM247.601 62.9658C244.736 62.7959 241.897 63.7398 239.82 65.7217C238.005 67.4536 236.969 69.7973 236.429 72.2314C235.883 74.693 235.835 77.2664 236.614 79.6748C237.47 82.3192 239.269 84.5739 241.729 85.876C243.586 86.8579 245.702 87.2254 247.786 86.9805C250.235 86.6927 252.53 85.5728 254.13 83.6934C254.91 82.7771 255.491 81.7087 255.836 80.5566L255.859 80.4756L254.504 79.8975L254.474 79.999C254.175 81.0114 253.647 81.9417 252.931 82.7178C251.588 84.173 249.688 84.9962 247.711 84.9268C246.087 84.8697 244.547 84.2089 243.344 83.1143C241.419 81.3635 240.577 78.7885 240.303 76.1777C240.019 73.4731 240.32 70.7103 241.616 68.332C242.881 66.0129 245.117 64.2736 247.644 64.5947C249.202 64.7928 250.507 65.7952 251.479 67.0576C252.525 68.4184 253.181 70.0388 253.373 71.7441L253.382 71.8223L254.844 71.9189L254.91 63.7988L253.505 63.6396L252.839 64.6514C251.264 63.6567 249.462 63.0763 247.601 62.9658ZM250.013 72.9736V78.7451H251.59C252.123 78.745 252.547 78.6076 252.86 78.333C253.174 78.0582 253.331 77.651 253.331 77.1123C253.331 76.8651 253.293 76.6454 253.216 76.4531C253.144 76.2554 253.04 76.0932 252.902 75.9668C252.765 75.8349 252.594 75.7438 252.391 75.6943C252.66 75.6228 252.867 75.4822 253.01 75.2734C253.153 75.0591 253.224 74.7866 253.224 74.457C253.224 74.0065 253.087 73.6462 252.812 73.377C252.536 73.1076 252.126 72.9736 251.581 72.9736H250.013ZM253.837 78.7451H254.853V72.9736H253.837V78.7451ZM255.509 78.7451H257.004C257.416 78.745 257.777 78.6493 258.085 78.457C258.393 78.2591 258.63 77.9477 258.795 77.5244C258.965 77.1012 259.051 76.5462 259.051 75.8594C259.051 75.1722 258.966 74.6166 258.795 74.1934C258.63 73.7703 258.393 73.4629 258.085 73.2705C257.777 73.0727 257.416 72.9737 257.004 72.9736H255.509V78.7451ZM251.515 76.1318C251.768 76.1318 251.972 76.2028 252.126 76.3457C252.286 76.4831 252.365 76.7283 252.365 77.0801C252.365 77.4317 252.286 77.6761 252.126 77.8135C251.972 77.9509 251.768 78.0195 251.515 78.0195H251.028V76.1318H251.515ZM256.971 73.8389C257.207 73.8389 257.403 73.9052 257.557 74.0371C257.716 74.1635 257.834 74.3752 257.911 74.6719C257.994 74.9632 258.035 75.3591 258.035 75.8594C258.035 76.3541 257.994 76.7501 257.911 77.0469C257.834 77.3434 257.716 77.5576 257.557 77.6895C257.403 77.8158 257.207 77.8798 256.971 77.8799H256.524V73.8389H256.971ZM251.49 73.6992C251.721 73.6992 251.906 73.7678 252.044 73.9053C252.181 74.0372 252.25 74.2514 252.25 74.5479C252.25 74.8444 252.181 75.0618 252.044 75.1992C251.906 75.3366 251.721 75.4053 251.49 75.4053H251.028V73.6992H251.49Z" fill="#57068C"/>
<path d="M270.266 68.6572L269.757 68.3329L269.971 67.9896L270.48 68.295L270.266 68.6572ZM269.054 68.3653L269.259 68.0086L269.765 68.3329L269.557 68.668L269.054 68.3653ZM272.804 66.4438H272.558C272.458 66.4456 272.366 66.4438 272.279 66.4384C272.192 66.433 272.103 66.405 272.011 66.3546C271.919 66.3042 271.726 66.1051 271.432 65.7573C271.356 65.651 271.239 65.6168 271.08 65.6546C270.754 65.8186 270.572 65.9681 270.536 66.1033C270.536 66.1465 270.71 66.2312 271.056 66.3573C271.305 66.4474 271.439 66.5014 271.459 66.5195L271.513 66.6951L271.462 67.0978C271.451 67.1735 271.269 67.3113 270.915 67.5113C270.522 67.7149 270.132 67.8167 269.746 67.8167C269.568 67.8167 269.401 67.7914 269.246 67.741C269.091 67.6906 268.955 67.6212 268.84 67.5329C268.726 67.4446 268.636 67.3374 268.569 67.2113C268.504 67.087 268.472 66.9492 268.472 66.7978C268.472 66.5204 268.554 66.2006 268.718 65.8384C268.857 65.5303 268.95 65.3763 268.997 65.3763L269.008 65.4006C268.993 65.4438 268.97 65.5078 268.937 65.5925C268.907 65.6754 268.877 65.7673 268.848 65.8681C268.821 65.969 268.796 66.0717 268.772 66.1762C268.751 66.2789 268.74 66.3735 268.74 66.46C268.74 66.9429 269.055 67.1843 269.684 67.1843C269.85 67.1843 270.072 67.1518 270.35 67.087C270.729 67.0293 270.918 66.9627 270.918 66.887C270.918 66.86 270.817 66.8059 270.615 66.7248C270.319 66.5843 270.165 66.496 270.152 66.46C270.147 66.442 270.144 66.4222 270.144 66.4005C270.144 66.3789 270.146 66.3375 270.149 66.2762C270.272 65.8438 270.453 65.5465 270.691 65.3844C270.931 65.2204 271.124 65.1376 271.27 65.1358C271.358 65.1358 271.445 65.1853 271.529 65.2844C271.614 65.3817 271.718 65.4979 271.841 65.633C271.963 65.7663 272.064 65.8483 272.144 65.879C272.223 65.9096 272.292 65.9249 272.352 65.9249C272.413 65.9249 272.53 65.9249 272.701 65.9249H272.804V66.4438Z" fill="#57068C"/>
<path d="M274.352 65.9739C274.352 66.2856 274.309 66.4414 274.222 66.4414H272.552V65.9225H273.938C273.967 65.9225 273.981 65.8982 273.981 65.8496C273.981 65.8135 273.969 65.7622 273.946 65.6955C273.924 65.627 273.897 65.5595 273.865 65.4928C273.832 65.4262 273.798 65.3676 273.762 65.3172C273.728 65.2667 273.698 65.2415 273.673 65.2415L273.911 64.6794C274.021 64.728 274.125 64.9244 274.222 65.2685C274.309 65.573 274.352 65.8081 274.352 65.9739ZM274.014 63.774L273.445 63.4119L273.683 63.0281L274.254 63.3686L274.014 63.774ZM272.65 63.4497L272.88 63.0497L273.445 63.4119L273.213 63.7875L272.65 63.4497Z" fill="#57068C"/>
<path d="M276.565 66.4414H275.945C275.77 66.4414 275.626 66.4216 275.512 66.382C275.401 66.3405 275.318 66.2766 275.264 66.1901C275.211 66.1018 275.185 65.9468 275.185 65.7252V62.9497L275.591 62.4417V65.7252C275.591 65.8568 275.652 65.9225 275.775 65.9225H276.565V66.4414Z" fill="#57068C"/>
<path d="M280.976 66.4435H280.326C280.314 66.4435 280.292 66.4462 280.261 66.4516C280.232 66.4571 280.201 66.4625 280.167 66.4679C280.134 66.4733 280.102 66.4787 280.072 66.4841C280.043 66.4895 280.02 66.4922 280.001 66.4922C279.653 66.4922 279.321 66.4183 279.003 66.2706C278.738 66.3949 278.488 66.4571 278.254 66.4571C277.895 66.4571 277.582 66.4021 277.315 66.2922C277.214 66.3931 277 66.4435 276.673 66.4435H276.078V65.9247C276.091 65.9319 276.138 65.9355 276.219 65.9355C276.823 65.9355 277.151 65.903 277.204 65.8382C277.233 65.8021 277.247 65.7265 277.247 65.6112C277.247 65.5373 277.238 65.4679 277.22 65.4031L277.596 64.995C277.6 65.0238 277.603 65.0625 277.607 65.1112C277.61 65.1598 277.612 65.2184 277.612 65.2869C277.612 65.458 277.583 65.6436 277.523 65.8436C277.523 65.8544 277.558 65.8697 277.629 65.8787C277.699 65.8877 277.793 65.8967 277.91 65.9057C278.029 65.9129 278.166 65.9183 278.321 65.922C278.476 65.9256 278.637 65.9274 278.803 65.9274C278.913 65.9274 278.968 65.8418 278.968 65.6706C278.968 65.5517 278.961 65.4706 278.946 65.4274L279.336 65.0274V65.3328C279.325 65.4319 279.314 65.5247 279.303 65.6112C279.294 65.6958 279.276 65.776 279.249 65.8517L279.247 65.8598C279.247 65.9084 279.388 65.9328 279.671 65.9328C279.845 65.9328 279.936 65.931 279.945 65.9274C280.049 65.9093 280.102 65.8526 280.102 65.7571C280.102 65.5589 280.062 65.422 279.983 65.3463L280.391 64.9788C280.469 65.2076 280.507 65.5175 280.507 65.9084L280.499 65.9247H280.976V66.4435Z" fill="#57068C"/>
<path d="M284.929 65.6736C284.929 65.9475 284.912 66.1691 284.88 66.3384C284.725 66.4357 284.59 66.4844 284.477 66.4844C284.055 66.4844 283.705 66.4123 283.427 66.2682C283.162 66.3925 282.911 66.4546 282.675 66.4546C282.316 66.4546 282.003 66.3997 281.736 66.2898C281.651 66.3907 281.437 66.4411 281.095 66.4411H280.486V65.9222C280.498 65.9295 280.545 65.9331 280.627 65.9331C281.236 65.9331 281.57 65.9006 281.628 65.8358C281.657 65.8033 281.671 65.7277 281.671 65.6088C281.671 65.5385 281.663 65.4691 281.647 65.4007L282.025 64.9926C282.029 65.025 282.032 65.0673 282.034 65.1196C282.037 65.1718 282.039 65.234 282.039 65.3061C282.039 65.3331 282.034 65.3736 282.023 65.4277C282.014 65.4799 282.004 65.5349 281.993 65.5925C281.982 65.6502 281.972 65.7033 281.963 65.752C281.954 65.7988 281.95 65.8304 281.95 65.8466C281.95 65.8466 281.973 65.8655 282.004 65.8763C282.153 65.9268 282.362 65.952 282.629 65.952H282.783C283.142 65.952 283.335 65.9313 283.362 65.8898C283.382 65.8646 283.392 65.7907 283.392 65.6682C283.392 65.5493 283.386 65.4682 283.373 65.425L283.768 65.025C283.763 65.1241 283.756 65.225 283.749 65.3277C283.742 65.4286 283.733 65.5331 283.722 65.6412C283.715 65.6988 283.698 65.7682 283.673 65.8493L283.671 65.8601C283.671 65.9304 283.814 65.9655 284.101 65.9655C284.384 65.9655 284.526 65.8952 284.526 65.7547C284.526 65.5565 284.485 65.4196 284.404 65.3439L284.815 64.9764C284.891 65.207 284.929 65.4394 284.929 65.6736Z" fill="#57068C"/>
<path d="M287.385 66.4429H286.849C286.829 66.6303 286.777 66.8059 286.692 66.9699C286.609 67.1357 286.502 67.2789 286.37 67.3996C286.24 67.5221 286.091 67.6185 285.921 67.6888C285.753 67.7608 285.576 67.7969 285.388 67.7969C285.125 67.7969 284.874 67.6933 284.636 67.4861C284.401 67.2807 284.26 67.0447 284.211 66.778C284.291 66.924 284.449 67.0645 284.687 67.1996C284.927 67.3365 285.132 67.405 285.302 67.405C285.44 67.405 285.578 67.3807 285.713 67.332C285.85 67.2834 285.975 67.2167 286.089 67.1321C286.203 67.0474 286.301 66.9474 286.384 66.8321C286.469 66.7168 286.528 66.5915 286.562 66.4564C286.537 66.4618 286.513 66.4645 286.489 66.4645C286.378 66.4645 286.272 66.4465 286.173 66.4105C286.075 66.3726 285.99 66.3213 285.916 66.2564C285.844 66.1916 285.786 66.1159 285.743 66.0294C285.701 65.9429 285.68 65.8502 285.68 65.7511C285.68 65.5979 285.753 65.3961 285.9 65.1457C286.058 64.8736 286.207 64.7376 286.346 64.7376C286.526 64.7376 286.671 64.8971 286.779 65.216C286.862 65.4538 286.903 65.6898 286.903 65.924H287.385V66.4429ZM286.627 65.8592C286.627 65.8015 286.617 65.7439 286.598 65.6862C286.578 65.6267 286.55 65.5736 286.514 65.5267C286.48 65.4781 286.439 65.4394 286.392 65.4105C286.345 65.3799 286.296 65.3646 286.243 65.3646C286.211 65.3646 286.18 65.3745 286.151 65.3943C286.124 65.4123 286.099 65.4358 286.075 65.4646C286.054 65.4934 286.036 65.5249 286.021 65.5592C286.009 65.5934 286.002 65.6258 286.002 65.6565C286.002 65.6907 286.02 65.7249 286.057 65.7592C286.094 65.7916 286.14 65.8204 286.194 65.8456C286.25 65.8691 286.309 65.888 286.37 65.9024C286.434 65.9168 286.491 65.924 286.544 65.924C286.599 65.924 286.627 65.9024 286.627 65.8592ZM286.473 63.7917L286.395 64.0512C286.176 64.1214 286.018 64.1917 285.919 64.262L285.526 64.5863C285.517 64.5773 285.513 64.5655 285.513 64.5511C285.513 64.4376 285.553 64.3385 285.634 64.2539C285.479 64.1512 285.402 64.053 285.402 63.9593C285.402 63.8728 285.422 63.7908 285.461 63.7133C285.503 63.6341 285.557 63.5647 285.624 63.5053C285.69 63.4458 285.767 63.399 285.854 63.3647C285.942 63.3287 286.033 63.3107 286.127 63.3107C286.183 63.3107 286.232 63.317 286.276 63.3296L286.184 63.5917C286.178 63.5611 286.115 63.5458 285.994 63.5458C285.944 63.5458 285.892 63.5548 285.84 63.5728C285.79 63.589 285.744 63.6116 285.702 63.6404C285.662 63.6692 285.63 63.7025 285.605 63.7404C285.581 63.7782 285.569 63.8187 285.569 63.862C285.569 63.889 285.591 63.9142 285.634 63.9377C285.68 63.9611 285.738 63.9728 285.81 63.9728C285.837 63.9728 285.86 63.9701 285.878 63.9647L286.473 63.7917Z" fill="#57068C"/>
<path d="M289.163 66.2457C289.163 66.4151 289.097 66.5376 288.966 66.6133L288.397 66.1863C288.028 66.3556 287.721 66.4403 287.477 66.4403H286.915V65.9214C287.066 65.9214 287.182 65.9214 287.264 65.9214C287.347 65.9214 287.412 65.9178 287.458 65.9106C287.532 65.8998 287.611 65.8827 287.694 65.8593C287.779 65.8359 287.869 65.8025 287.964 65.7593V63.4865L287.767 62.8892L288.254 62.4406C288.254 62.5937 288.255 62.7135 288.257 62.8C288.258 62.8847 288.262 62.9378 288.267 62.9595C288.304 63.109 288.407 63.2387 288.579 63.3486L288.316 63.7702V65.4971L289.109 66.1052C289.145 66.1683 289.163 66.2151 289.163 66.2457Z" fill="#57068C"/>
<path d="M290.583 65.8631L290.175 66.4414V62.9362L290.583 62.4417V65.8631Z" fill="#57068C"/>
<path d="M294.454 68.6572L293.945 68.3329L294.159 67.9896L294.668 68.295L294.454 68.6572ZM293.242 68.3653L293.447 68.0086L293.953 68.3329L293.745 68.668L293.242 68.3653ZM296.992 66.4438H296.746C296.646 66.4456 296.553 66.4438 296.467 66.4384C296.38 66.433 296.291 66.405 296.199 66.3546C296.107 66.3042 295.914 66.1051 295.62 65.7573C295.544 65.651 295.427 65.6168 295.268 65.6546C294.942 65.8186 294.76 65.9681 294.724 66.1033C294.724 66.1465 294.898 66.2312 295.244 66.3573C295.493 66.4474 295.627 66.5014 295.647 66.5195L295.701 66.6951L295.65 67.0978C295.639 67.1735 295.457 67.3113 295.103 67.5113C294.71 67.7149 294.32 67.8167 293.934 67.8167C293.756 67.8167 293.589 67.7914 293.434 67.741C293.279 67.6906 293.143 67.6212 293.028 67.5329C292.914 67.4446 292.824 67.3374 292.757 67.2113C292.692 67.087 292.66 66.9492 292.66 66.7978C292.66 66.5204 292.742 66.2006 292.906 65.8384C293.045 65.5303 293.138 65.3763 293.185 65.3763L293.196 65.4006C293.181 65.4438 293.158 65.5078 293.125 65.5925C293.095 65.6754 293.065 65.7673 293.036 65.8681C293.009 65.969 292.984 66.0717 292.96 66.1762C292.939 66.2789 292.928 66.3735 292.928 66.46C292.928 66.9429 293.243 67.1843 293.872 67.1843C294.038 67.1843 294.26 67.1518 294.538 67.087C294.917 67.0293 295.106 66.9627 295.106 66.887C295.106 66.86 295.005 66.8059 294.803 66.7248C294.507 66.5843 294.353 66.496 294.34 66.46C294.335 66.442 294.332 66.4222 294.332 66.4005C294.332 66.3789 294.334 66.3375 294.337 66.2762C294.46 65.8438 294.641 65.5465 294.879 65.3844C295.119 65.2204 295.312 65.1376 295.458 65.1358C295.546 65.1358 295.633 65.1853 295.717 65.2844C295.802 65.3817 295.906 65.4979 296.029 65.633C296.151 65.7663 296.252 65.8483 296.332 65.879C296.411 65.9096 296.48 65.9249 296.54 65.9249C296.601 65.9249 296.718 65.9249 296.889 65.9249H296.992V66.4438Z" fill="#57068C"/>
<path d="M299.398 66.0576C299.398 66.218 299.372 66.336 299.322 66.4117C299.309 66.4315 299.21 66.4414 299.024 66.4414H296.74V65.9225H298.48C298.733 65.9225 298.859 65.9054 298.859 65.8712C298.859 65.8117 298.633 65.5748 298.18 65.1604C297.731 64.7442 297.472 64.5361 297.403 64.5361C297.389 64.5541 297.371 64.6145 297.349 64.7172C297.311 64.6848 297.264 64.6433 297.209 64.5929C297.154 64.5406 297.091 64.4803 297.019 64.4118C296.886 64.2803 296.819 64.1533 296.819 64.0307C296.819 63.9046 296.881 63.7389 297.006 63.5335C297.076 63.4218 297.869 63.0578 299.384 62.4417L299.122 63.0876L297.238 63.8524C297.269 63.8812 297.31 63.9163 297.36 63.9578C297.412 63.9992 297.476 64.047 297.552 64.101C297.978 64.4253 298.339 64.7325 298.635 65.0226C298.932 65.3108 299.168 65.5838 299.341 65.8414C299.379 65.8973 299.398 65.9694 299.398 66.0576Z" fill="#57068C"/>
<path d="M301.521 66.4429H300.985C300.965 66.6303 300.913 66.8059 300.828 66.9699C300.745 67.1357 300.638 67.2789 300.506 67.3996C300.376 67.5221 300.227 67.6185 300.057 67.6888C299.889 67.7608 299.712 67.7969 299.524 67.7969C299.261 67.7969 299.01 67.6933 298.772 67.4861C298.537 67.2807 298.396 67.0447 298.347 66.778C298.427 66.924 298.585 67.0645 298.823 67.1996C299.063 67.3365 299.268 67.405 299.438 67.405C299.576 67.405 299.714 67.3807 299.849 67.332C299.986 67.2834 300.111 67.2167 300.225 67.1321C300.339 67.0474 300.437 66.9474 300.52 66.8321C300.605 66.7168 300.664 66.5915 300.698 66.4564C300.673 66.4618 300.649 66.4645 300.625 66.4645C300.514 66.4645 300.408 66.4465 300.309 66.4105C300.211 66.3726 300.126 66.3213 300.052 66.2564C299.98 66.1916 299.922 66.1159 299.879 66.0294C299.837 65.9429 299.816 65.8502 299.816 65.7511C299.816 65.5979 299.889 65.3961 300.036 65.1457C300.194 64.8736 300.343 64.7376 300.482 64.7376C300.662 64.7376 300.807 64.8971 300.915 65.216C300.998 65.4538 301.039 65.6898 301.039 65.924H301.521V66.4429ZM300.763 65.8592C300.763 65.8015 300.753 65.7439 300.734 65.6862C300.714 65.6267 300.686 65.5736 300.65 65.5267C300.615 65.4781 300.575 65.4394 300.528 65.4105C300.481 65.3799 300.431 65.3646 300.379 65.3646C300.347 65.3646 300.316 65.3745 300.287 65.3943C300.26 65.4123 300.235 65.4358 300.211 65.4646C300.19 65.4934 300.172 65.5249 300.157 65.5592C300.145 65.5934 300.138 65.6258 300.138 65.6565C300.138 65.6907 300.156 65.7249 300.192 65.7592C300.23 65.7916 300.276 65.8204 300.33 65.8456C300.386 65.8691 300.445 65.888 300.506 65.9024C300.569 65.9168 300.627 65.924 300.68 65.924C300.735 65.924 300.763 65.9024 300.763 65.8592Z" fill="#57068C"/>
<path d="M302.928 66.4414H301.05V65.9225H301.862V63.093L302.281 62.4417V65.9225H302.928V66.4414Z" fill="#57068C"/>
<path d="M307.339 66.4435H306.689C306.677 66.4435 306.655 66.4462 306.624 66.4516C306.595 66.4571 306.564 66.4625 306.53 66.4679C306.497 66.4733 306.466 66.4787 306.435 66.4841C306.406 66.4895 306.383 66.4922 306.365 66.4922C306.016 66.4922 305.684 66.4183 305.366 66.2706C305.101 66.3949 304.851 66.4571 304.617 66.4571C304.258 66.4571 303.945 66.4021 303.678 66.2922C303.577 66.3931 303.363 66.4435 303.036 66.4435H302.441V65.9247C302.454 65.9319 302.501 65.9355 302.582 65.9355C303.186 65.9355 303.514 65.903 303.567 65.8382C303.596 65.8021 303.61 65.7265 303.61 65.6112C303.61 65.5373 303.601 65.4679 303.583 65.4031L303.959 64.995C303.963 65.0238 303.966 65.0625 303.97 65.1112C303.974 65.1598 303.975 65.2184 303.975 65.2869C303.975 65.458 303.946 65.6436 303.886 65.8436C303.886 65.8544 303.921 65.8697 303.992 65.8787C304.062 65.8877 304.156 65.8967 304.273 65.9057C304.392 65.9129 304.529 65.9183 304.684 65.922C304.839 65.9256 305 65.9274 305.166 65.9274C305.276 65.9274 305.331 65.8418 305.331 65.6706C305.331 65.5517 305.324 65.4706 305.309 65.4274L305.699 65.0274V65.3328C305.688 65.4319 305.677 65.5247 305.666 65.6112C305.657 65.6958 305.639 65.776 305.612 65.8517L305.61 65.8598C305.61 65.9084 305.751 65.9328 306.034 65.9328C306.208 65.9328 306.299 65.931 306.308 65.9274C306.412 65.9093 306.465 65.8526 306.465 65.7571C306.465 65.5589 306.425 65.422 306.346 65.3463L306.754 64.9788C306.832 65.2076 306.87 65.5175 306.87 65.9084L306.862 65.9247H307.339V66.4435Z" fill="#57068C"/>
<path d="M308.264 63.2659L308.042 63.7146V66.3576L307.904 66.4414H306.849V65.9225H307.636V63.474L307.493 62.9173L307.969 62.4417L308.01 62.9984L308.264 63.2659Z" fill="#57068C"/>
<path d="M309.678 65.8631L309.269 66.4414V62.9362L309.678 62.4417V65.8631Z" fill="#57068C"/>
<path d="M314.581 66.4419H313.969C313.935 66.4419 313.88 66.441 313.804 66.4392C313.73 66.4374 313.653 66.4347 313.572 66.4311C313.491 66.4275 313.412 66.4248 313.336 66.423C313.261 66.4212 313.205 66.4203 313.169 66.4203C312.465 66.4203 312.112 66.4779 312.111 66.5932L312.135 66.6932C312.142 66.7149 312.154 66.7608 312.17 66.8311C312.186 66.9031 312.209 67.0004 312.238 67.1229C312.294 67.3752 312.337 67.6022 312.368 67.804C312.4 68.0058 312.415 68.1859 312.411 68.3445C312.411 68.5391 312.341 68.7589 312.2 69.0039C312.169 68.6796 312.13 68.3751 312.084 68.0904C312.037 67.8058 311.982 67.5382 311.918 67.2878C311.875 67.1166 311.842 66.9716 311.818 66.8527C311.797 66.7338 311.786 66.6401 311.786 66.5716C311.786 66.332 311.859 66.1708 312.005 66.0879C312.088 66.0428 312.274 65.9996 312.562 65.9582C312.817 65.9203 312.999 65.9014 313.109 65.9014C313.149 65.9014 313.178 65.905 313.198 65.9122L312.744 65.4014L312.151 65.7095L312.157 65.5176C312.158 65.4564 312.258 65.3303 312.454 65.1393C312.649 64.9483 312.779 64.8528 312.844 64.8528C312.941 64.8528 313.09 64.9843 313.29 65.2474C313.537 65.5663 313.755 65.7915 313.942 65.923H314.581V66.4419Z" fill="#57068C"/>
<path d="M316.356 66.4409H314.094V65.922H315.479C315.508 65.922 315.522 65.8977 315.522 65.849C315.522 65.813 315.511 65.7617 315.487 65.695C315.466 65.6265 315.439 65.559 315.406 65.4923C315.374 65.4256 315.339 65.3671 315.303 65.3166C315.269 65.2662 315.239 65.241 315.214 65.241L315.46 64.6707C315.579 64.8059 315.681 65.0031 315.766 65.2626C315.851 65.5094 315.893 65.7292 315.893 65.922H316.356V66.4409ZM315.574 67.9084L315.006 67.5462L315.244 67.1625L315.815 67.503L315.574 67.9084ZM314.21 67.5841L314.44 67.1841L315.006 67.5462L314.773 67.9219L314.21 67.5841Z" fill="#57068C"/>
<path d="M318.975 66.4411H318.304C318.257 66.47 318.177 66.4844 318.064 66.4844C317.663 66.4844 317.312 66.3619 317.011 66.1168C316.944 66.333 316.787 66.4411 316.54 66.4411H315.869V65.9222C316.504 65.9222 316.851 65.9006 316.911 65.8574C316.947 65.8286 317.004 65.7187 317.081 65.5277C317.134 65.3944 317.184 65.2826 317.233 65.1926C317.282 65.1007 317.33 65.0268 317.379 64.971C317.428 64.9151 317.479 64.8755 317.533 64.852C317.587 64.8286 317.647 64.8169 317.712 64.8169C317.872 64.8169 318.044 64.952 318.226 65.2223C318.403 65.4799 318.49 65.6961 318.488 65.8709V65.8979L318.486 65.9222H318.975V66.4411ZM318.161 65.8574C318.161 65.7997 318.145 65.7376 318.112 65.6709C318.082 65.6043 318.044 65.5421 317.999 65.4844C317.953 65.4268 317.903 65.379 317.847 65.3412C317.791 65.3034 317.737 65.2845 317.685 65.2845C317.65 65.2845 317.609 65.2998 317.56 65.3304C317.512 65.3592 317.465 65.3944 317.42 65.4358C317.374 65.4772 317.336 65.5205 317.303 65.5655C317.271 65.6106 317.254 65.6502 317.254 65.6844C317.254 65.7006 317.268 65.7196 317.295 65.7412C317.322 65.7628 317.357 65.7853 317.401 65.8087C317.444 65.8304 317.492 65.852 317.544 65.8736C317.596 65.8952 317.648 65.9141 317.698 65.9304C317.749 65.9466 317.796 65.9601 317.839 65.9709C317.882 65.9817 317.917 65.9871 317.944 65.9871C318.089 65.9871 318.161 65.9439 318.161 65.8574Z" fill="#57068C"/>
<path d="M324.525 66.4414H320.448C320.085 66.4414 319.852 66.3765 319.747 66.2468C319.664 66.3765 319.247 66.4414 318.497 66.4414V65.9225C319.148 65.9225 319.529 65.891 319.639 65.8279C319.641 65.8117 319.642 65.7928 319.642 65.7712C319.643 65.7478 319.644 65.7207 319.644 65.6901C319.644 65.5586 319.635 65.4739 319.617 65.4361L320.015 64.9928C320.044 65.0937 320.058 65.1991 320.058 65.309C320.058 65.4874 320.026 65.6649 319.961 65.8414C320.372 65.8973 320.591 65.9252 320.618 65.9252C320.844 65.9252 321.225 65.7225 321.763 65.3172C322.3 64.9064 322.662 64.701 322.848 64.701C322.907 64.701 322.97 64.7163 323.035 64.7469C323.572 64.9883 323.882 65.1973 323.965 65.3739C323.989 65.4207 324.006 65.4748 324.017 65.5361C324.029 65.5955 324.036 65.6667 324.036 65.7496C324.036 65.827 324.029 65.8847 324.017 65.9225H324.525V66.4414ZM323.719 65.755C323.719 65.6937 323.567 65.5901 323.262 65.4442C322.966 65.3036 322.773 65.2334 322.683 65.2334C322.566 65.2334 322.364 65.3226 322.079 65.5009C321.798 65.6739 321.628 65.8144 321.568 65.9225H322.269C322.754 65.9279 323.117 65.9135 323.357 65.8793C323.598 65.845 323.719 65.8036 323.719 65.755Z" fill="#57068C"/>
<path d="M326.303 66.4414H324.041V65.9225H325.426C325.455 65.9225 325.469 65.8982 325.469 65.8496C325.469 65.8135 325.458 65.7622 325.434 65.6955C325.413 65.627 325.386 65.5595 325.353 65.4928C325.321 65.4262 325.286 65.3676 325.25 65.3172C325.216 65.2667 325.186 65.2415 325.161 65.2415L325.407 64.6712C325.526 64.8064 325.628 65.0037 325.713 65.2631C325.798 65.5099 325.84 65.7297 325.84 65.9225H326.303V66.4414ZM325.545 63.8199L324.977 63.4578L325.215 63.0741L325.786 63.4146L325.545 63.8199ZM324.181 63.4956L324.411 63.0957L324.977 63.4578L324.744 63.8335L324.181 63.4956Z" fill="#57068C"/>
<path d="M327.231 63.2659L327.009 63.7146V66.3576L326.871 66.4414H325.816V65.9225H326.604V63.474L326.46 62.9173L326.936 62.4417L326.977 62.9984L327.231 63.2659Z" fill="#57068C"/>
<path d="M328.646 65.8631L328.237 66.4414V62.9362L328.646 62.4417V65.8631Z" fill="#57068C"/>
<path d="M333.547 66.4415H333.09C333.09 66.7856 332.936 67.1153 332.63 67.4306C332.321 67.7477 331.997 67.9062 331.656 67.9062C331.421 67.9062 331.207 67.8252 331.012 67.663C330.954 67.6144 330.886 67.5477 330.806 67.463C330.729 67.3802 330.644 67.2775 330.552 67.1549C330.581 67.1856 330.628 67.2171 330.695 67.2495C330.764 67.2838 330.849 67.3144 330.952 67.3414C331.048 67.3666 331.134 67.3847 331.212 67.3955C331.29 67.4063 331.36 67.4126 331.423 67.4144C332.007 67.4144 332.466 67.1 332.798 66.4712C332.821 66.4244 332.833 66.3784 332.833 66.3334C332.833 66.0883 332.651 65.8379 332.286 65.5821L332.522 65.0713C332.792 65.2803 332.971 65.5641 333.057 65.9226H333.547V66.4415ZM332.465 63.7281L332.216 64.1524L331.607 63.7984L331.842 63.3741L332.465 63.7281Z" fill="#57068C"/>
<path d="M335.72 66.0576C335.72 66.218 335.695 66.336 335.644 66.4117C335.632 66.4315 335.532 66.4414 335.347 66.4414H333.063V65.9225H334.803C335.055 65.9225 335.182 65.9054 335.182 65.8712C335.182 65.8117 334.955 65.5748 334.502 65.1604C334.053 64.7442 333.794 64.5361 333.726 64.5361C333.711 64.5541 333.693 64.6145 333.672 64.7172C333.634 64.6848 333.587 64.6433 333.531 64.5929C333.477 64.5406 333.414 64.4803 333.342 64.4118C333.208 64.2803 333.141 64.1533 333.141 64.0307C333.141 63.9046 333.204 63.7389 333.328 63.5335C333.399 63.4218 334.191 63.0578 335.707 62.4417L335.444 63.0876L333.561 63.8524C333.592 63.8812 333.632 63.9163 333.683 63.9578C333.735 63.9992 333.799 64.047 333.875 64.101C334.3 64.4253 334.661 64.7325 334.957 65.0226C335.255 65.3108 335.49 65.5838 335.663 65.8414C335.701 65.8973 335.72 65.9694 335.72 66.0576Z" fill="#57068C"/>
<path d="M337.854 66.4415H337.397C337.397 66.7856 337.244 67.1153 336.937 67.4306C336.628 67.7477 336.304 67.9062 335.963 67.9062C335.728 67.9062 335.514 67.8252 335.319 67.663C335.261 67.6144 335.193 67.5477 335.113 67.463C335.036 67.3802 334.951 67.2775 334.859 67.1549C334.888 67.1856 334.936 67.2171 335.002 67.2495C335.071 67.2838 335.157 67.3144 335.259 67.3414C335.355 67.3666 335.442 67.3847 335.519 67.3955C335.597 67.4063 335.667 67.4126 335.73 67.4144C336.315 67.4144 336.773 67.1 337.105 66.4712C337.128 66.4244 337.14 66.3784 337.14 66.3334C337.14 66.0883 336.958 65.8379 336.593 65.5821L336.829 65.0713C337.099 65.2803 337.278 65.5641 337.364 65.9226H337.854V66.4415Z" fill="#57068C"/>
<path d="M339.999 66.0439C339.999 66.3375 339.851 66.4844 339.556 66.4844C339.404 66.4844 339.217 66.4483 338.996 66.3763C338.756 66.2988 338.594 66.2123 338.511 66.1168C338.444 66.333 338.288 66.4411 338.04 66.4411H337.369V65.9222C338.004 65.9222 338.352 65.9006 338.411 65.8574C338.444 65.8304 338.498 65.7223 338.573 65.5331C338.628 65.398 338.679 65.2854 338.728 65.1953C338.778 65.1034 338.828 65.0295 338.876 64.9737C338.927 64.9178 338.979 64.8782 339.033 64.8547C339.088 64.8295 339.146 64.8169 339.209 64.8169C339.411 64.8169 339.598 64.9746 339.769 65.2899C339.845 65.4304 339.903 65.5637 339.943 65.6898C339.984 65.8141 340.003 65.9322 339.999 66.0439ZM339.661 65.8574C339.661 65.7997 339.645 65.7376 339.612 65.6709C339.582 65.6043 339.544 65.5421 339.499 65.4844C339.454 65.4268 339.403 65.379 339.347 65.3412C339.291 65.3034 339.237 65.2845 339.185 65.2845C339.151 65.2845 339.109 65.2998 339.06 65.3304C339.012 65.3592 338.965 65.3944 338.92 65.4358C338.875 65.4772 338.836 65.5205 338.803 65.5655C338.771 65.6106 338.755 65.6502 338.755 65.6844C338.755 65.7006 338.768 65.7196 338.795 65.7412C338.822 65.7628 338.858 65.7853 338.901 65.8087C338.944 65.8304 338.992 65.852 339.044 65.8736C339.097 65.8952 339.148 65.9141 339.198 65.9304C339.249 65.9466 339.296 65.9601 339.339 65.9709C339.382 65.9817 339.418 65.9871 339.445 65.9871C339.589 65.9871 339.661 65.9439 339.661 65.8574Z" fill="#57068C"/>
<path d="M337.289 78.8954V72.8398H338.354V78.8954H337.289ZM338.051 78.8954V78.0043H340V78.8954H338.051Z" fill="#57068C"/>
<path d="M332.958 78.8954L334.162 72.8398H335.548L336.743 78.8954H335.713L334.786 73.8087H334.916L333.963 78.8954H332.958ZM333.703 77.494L333.799 76.6721H335.86L335.947 77.494H333.703Z" fill="#57068C"/>
<path d="M329.738 76.5597V75.6859H330.5C330.812 75.6859 331.046 75.611 331.201 75.461C331.363 75.3053 331.444 75.0516 331.444 74.6998C331.444 74.3422 331.363 74.0884 331.201 73.9385C331.046 73.7885 330.812 73.7136 330.5 73.7136H329.738V72.8398H330.612C331.201 72.8398 331.663 72.9927 331.998 73.2983C332.339 73.5982 332.509 74.0654 332.509 74.6998C332.509 75.3341 332.339 75.8042 331.998 76.1098C331.663 76.4097 331.201 76.5597 330.612 76.5597H329.738ZM328.941 78.8954V72.8398H330.006V78.8954H328.941ZM331.461 78.8954L330.5 76.1358H331.539L332.579 78.8954H331.461Z" fill="#57068C"/>
<path d="M326.301 78.9825C325.896 78.9825 325.556 78.8815 325.279 78.6797C325.001 78.4721 324.791 78.1404 324.646 77.6848C324.508 77.2292 324.438 76.6266 324.438 75.8768C324.438 75.1156 324.508 74.5071 324.646 74.0515C324.791 73.5959 325.001 73.2672 325.279 73.0653C325.556 72.8577 325.896 72.7539 326.301 72.7539C326.705 72.7539 327.043 72.8577 327.314 73.0653C327.591 73.2672 327.802 73.5959 327.946 74.0515C328.091 74.5071 328.163 75.1098 328.163 75.8595C328.163 76.615 328.091 77.2235 327.946 77.6848C327.802 78.1404 327.591 78.4721 327.314 78.6797C327.043 78.8815 326.705 78.9825 326.301 78.9825ZM326.301 78.0914C326.491 78.0914 326.641 78.0193 326.751 77.8752C326.866 77.731 326.947 77.4974 326.993 77.1744C327.04 76.8515 327.063 76.4189 327.063 75.8768C327.063 75.3289 327.04 74.8935 326.993 74.5706C326.947 74.2418 326.866 74.0054 326.751 73.8612C326.641 73.717 326.491 73.6449 326.301 73.6449C326.11 73.6449 325.957 73.717 325.842 73.8612C325.732 74.0054 325.651 74.239 325.599 74.5619C325.553 74.8849 325.53 75.3174 325.53 75.8595C325.53 76.4074 325.553 76.8457 325.599 77.1744C325.651 77.4974 325.732 77.731 325.842 77.8752C325.957 78.0193 326.11 78.0914 326.301 78.0914Z" fill="#57068C"/>
<path d="M322.589 78.8954V72.8398H323.654V78.8954H322.589Z" fill="#57068C"/>
<path d="M319.362 78.8954L318.228 72.8398H319.302L320.081 77.5718L320.861 72.8398H321.926L320.791 78.8954H319.362Z" fill="#57068C"/>
<path d="M314.639 78.8954L315.843 72.8398H317.228L318.424 78.8954H317.393L316.466 73.8087H316.596L315.643 78.8954H314.639ZM315.384 77.494L315.479 76.6721H317.54L317.627 77.494H315.384Z" fill="#57068C"/>
<path d="M313.029 78.8954V72.8398H314.094V78.8954H313.029ZM310.604 78.8954V72.8398H311.669V78.8954H310.604ZM311.149 76.2655V75.3659H313.652V76.2655H311.149Z" fill="#57068C"/>
<path d="M307.068 78.8954V72.8398H308.134V78.8954H307.068ZM307.753 78.8954V78.0043H309.97V78.8954H307.753ZM307.753 76.205V75.314H309.649V76.205H307.753ZM307.753 73.7309V72.8398H309.875V73.7309H307.753Z" fill="#57068C"/>
<path d="M302.839 78.8954V72.8398H304.485C305.057 72.8398 305.487 72.9811 305.775 73.2637C306.064 73.5463 306.209 73.9241 306.209 74.397C306.209 74.743 306.133 75.0285 305.983 75.2534C305.833 75.4726 305.617 75.6196 305.334 75.6946C305.547 75.7465 305.726 75.8417 305.871 75.9801C306.015 76.1127 306.125 76.2828 306.2 76.4905C306.281 76.6923 306.321 76.923 306.321 77.1825C306.321 77.7477 306.157 78.1745 305.827 78.4628C305.498 78.7512 305.054 78.8954 304.494 78.8954H302.839ZM303.905 78.1341H304.416C304.681 78.1341 304.895 78.062 305.057 77.9178C305.224 77.7737 305.308 77.517 305.308 77.1479C305.308 76.7788 305.224 76.5222 305.057 76.378C304.895 76.2281 304.681 76.1531 304.416 76.1531H303.506V75.3918H304.39C304.632 75.3918 304.826 75.3197 304.97 75.1755C305.114 75.0314 305.187 74.8036 305.187 74.4921C305.187 74.1807 305.114 73.9558 304.97 73.8174C304.826 73.6732 304.632 73.6011 304.39 73.6011H303.905V78.1341Z" fill="#57068C"/>
<path d="M299.668 77.0921L299.61 76.3655C299.653 76.085 299.753 75.8704 299.91 75.7217C300.068 75.5687 300.278 75.4922 300.542 75.4922H300.644V76.289H300.529C300.274 76.289 300.066 76.3527 299.904 76.4802C299.746 76.6034 299.668 76.8074 299.668 77.0921ZM298.889 78.896V75.5496H299.668V78.896H298.889Z" fill="#57068C"/>
<path d="M297.116 78.9583C296.703 78.9583 296.388 78.8139 296.171 78.5249C295.954 78.2317 295.846 77.7982 295.846 77.2245C295.846 76.6466 295.954 76.2132 296.171 75.9242C296.388 75.631 296.705 75.4844 297.122 75.4844C297.539 75.4844 297.854 75.6289 298.067 75.9178C298.284 76.2068 298.392 76.6402 298.392 77.2182C298.392 77.7919 298.284 78.2253 298.067 78.5185C297.854 78.8117 297.537 78.9583 297.116 78.9583ZM297.116 78.3847C297.307 78.3847 297.437 78.2954 297.505 78.1169C297.577 77.9342 297.613 77.6367 297.613 77.2245C297.613 76.8081 297.577 76.5106 297.505 76.3321C297.437 76.1494 297.309 76.0581 297.122 76.0581C296.931 76.0581 296.799 76.1494 296.726 76.3321C296.658 76.5106 296.624 76.806 296.624 77.2182C296.624 77.6346 296.658 77.9342 296.726 78.1169C296.799 78.2954 296.928 78.3847 297.116 78.3847Z" fill="#57068C"/>
<path d="M294.092 78.896V75.2755C294.092 74.8887 294.202 74.5955 294.423 74.3958C294.645 74.1918 294.962 74.0898 295.374 74.0898H295.63V74.7145H295.47C295.27 74.7145 295.119 74.7591 295.017 74.8484C294.915 74.9376 294.864 75.0842 294.864 75.2882V78.896H294.092ZM293.626 76.187V75.5495H295.63V76.187H293.626Z" fill="#57068C"/>
<path d="M288.759 76.5597V75.6859H289.521C289.833 75.6859 290.067 75.611 290.223 75.461C290.384 75.3053 290.465 75.0516 290.465 74.6998C290.465 74.3422 290.384 74.0884 290.223 73.9385C290.067 73.7885 289.833 73.7136 289.521 73.7136H288.759V72.8398H289.634C290.223 72.8398 290.685 72.9927 291.02 73.2983C291.36 73.5982 291.531 74.0654 291.531 74.6998C291.531 75.3341 291.36 75.8042 291.02 76.1098C290.685 76.4097 290.223 76.5597 289.634 76.5597H288.759ZM287.962 78.8954V72.8398H289.027V78.8954H287.962ZM290.483 78.8954L289.521 76.1358H290.56L291.6 78.8954H290.483Z" fill="#57068C"/>
<path d="M284.427 78.8954V72.8398H285.492V78.8954H284.427ZM285.111 78.8954V78.0043H287.328V78.8954H285.111ZM285.111 76.205V75.314H287.008V76.205H285.111ZM285.111 73.7309V72.8398H287.233V73.7309H285.111Z" fill="#57068C"/>
<path d="M281.688 78.8954V72.8398H282.754V78.8954H281.688ZM280.588 73.7309V72.8398H283.854V73.7309H280.588Z" fill="#57068C"/>
<path d="M276.307 78.8954V72.8398H277.485L279.468 78.2466L279 78.5493V72.8398H280.005V78.8954H278.827L276.844 73.4887L277.32 73.1859V78.8954H276.307Z" fill="#57068C"/>
<path d="M272.771 78.8954V72.8398H273.837V78.8954H272.771ZM273.456 78.8954V78.0043H275.673V78.8954H273.456ZM273.456 76.205V75.314H275.352V76.205H273.456ZM273.456 73.7309V72.8398H275.578V73.7309H273.456Z" fill="#57068C"/>
<path d="M270.282 78.9825C269.878 78.9825 269.54 78.8786 269.269 78.671C269.003 78.4576 268.804 78.1231 268.671 77.6675C268.538 77.2062 268.472 76.6093 268.472 75.8768C268.472 75.1213 268.541 74.5158 268.68 74.0602C268.818 73.6046 269.023 73.273 269.295 73.0653C269.572 72.8577 269.913 72.7539 270.317 72.7539C270.854 72.7539 271.264 72.9413 271.547 73.3162C271.835 73.6853 272 74.213 272.04 74.8993L270.984 75.055C270.961 74.5533 270.897 74.1928 270.793 73.9737C270.689 73.7545 270.525 73.6449 270.299 73.6449C270.12 73.6449 269.976 73.717 269.866 73.8612C269.762 74.0054 269.684 74.239 269.633 74.5619C269.586 74.8849 269.563 75.3174 269.563 75.8595C269.563 76.4132 269.586 76.8544 269.633 77.1831C269.679 77.5061 269.757 77.7396 269.866 77.8838C269.982 78.0222 270.132 78.0914 270.317 78.0914C270.571 78.0914 270.744 77.9732 270.836 77.7367C270.935 77.5003 271.001 77.1283 271.036 76.6208L272.049 76.8198C272.003 77.5176 271.83 78.0539 271.529 78.4288C271.229 78.7979 270.813 78.9825 270.282 78.9825Z" fill="#57068C"/>
<path d="M336.18 87.469V81.2148H337.397L339.445 86.7989L338.962 87.1116V81.2148H340V87.469H338.783L336.735 81.8849L337.227 81.5722V87.469H336.18Z" fill="#57068C"/>
<path d="M333.131 87.5578C332.768 87.5578 332.467 87.4357 332.228 87.1915C331.989 86.9413 331.814 86.578 331.7 86.1015C331.587 85.625 331.53 85.0413 331.53 84.3503C331.53 83.5701 331.602 82.9446 331.745 82.4741C331.894 82.0036 332.115 81.6611 332.407 81.4466C332.699 81.2322 333.057 81.125 333.48 81.125C334.047 81.125 334.482 81.3126 334.786 81.6879C335.09 82.0572 335.266 82.5754 335.314 83.2425L334.223 83.4033C334.199 82.9387 334.127 82.5962 334.008 82.3758C333.895 82.1554 333.716 82.0452 333.471 82.0452C333.269 82.0452 333.108 82.1227 332.988 82.2775C332.875 82.4265 332.792 82.6677 332.738 83.0012C332.684 83.3348 332.657 83.7815 332.657 84.3414C332.657 84.9013 332.687 85.351 332.747 85.6905C332.806 86.0241 332.896 86.2653 333.015 86.4142C333.134 86.5631 333.286 86.6376 333.471 86.6376C333.74 86.6376 333.942 86.5125 334.08 86.2623C334.217 86.0121 334.282 85.625 334.276 85.1008H333.516V84.2074H335.296V87.4685H334.375L334.285 86.7626C334.22 86.9175 334.133 87.0575 334.026 87.1826C333.925 87.3017 333.799 87.394 333.65 87.4595C333.501 87.525 333.328 87.5578 333.131 87.5578Z" fill="#57068C"/>
<path d="M329.62 87.469V81.2148H330.72V87.469H329.62Z" fill="#57068C"/>
<path d="M327.081 87.5578C326.67 87.5578 326.333 87.4804 326.07 87.3255C325.808 87.1706 325.611 86.9562 325.48 86.6822C325.355 86.4082 325.283 86.0836 325.265 85.7084L326.321 85.5386C326.351 85.9377 326.425 86.2325 326.545 86.4231C326.67 86.6137 326.855 86.709 327.099 86.709C327.326 86.709 327.499 86.6346 327.618 86.4857C327.743 86.3308 327.806 86.1045 327.806 85.8067C327.806 85.622 327.782 85.4701 327.734 85.351C327.687 85.2319 327.615 85.1336 327.52 85.0562C327.424 84.9728 327.296 84.8983 327.135 84.8328L326.607 84.6273C326.172 84.4546 325.865 84.2253 325.686 83.9394C325.513 83.6475 325.426 83.302 325.426 82.903C325.426 82.355 325.567 81.9231 325.847 81.6075C326.127 81.2858 326.545 81.125 327.099 81.125C327.618 81.125 328.02 81.2739 328.307 81.5717C328.593 81.8636 328.745 82.3163 328.763 82.9298L327.716 83.0638C327.722 82.6587 327.672 82.3788 327.564 82.2239C327.463 82.0691 327.314 81.9916 327.117 81.9916C326.926 81.9916 326.774 82.0542 326.661 82.1793C326.548 82.2984 326.491 82.4979 326.491 82.7779C326.491 83.0161 326.539 83.2067 326.634 83.3497C326.735 83.4926 326.899 83.6088 327.126 83.6981L327.609 83.8857C327.853 83.981 328.071 84.1061 328.262 84.261C328.453 84.4099 328.602 84.6005 328.709 84.8328C328.817 85.0651 328.87 85.3599 328.87 85.7173C328.87 86.307 328.718 86.7626 328.414 87.0843C328.116 87.4 327.672 87.5578 327.081 87.5578Z" fill="#57068C"/>
<path d="M321.88 87.469V81.2148H322.981V87.469H321.88ZM322.587 87.469V86.5487H324.877V87.469H322.587ZM322.587 84.6903V83.7701H324.546V84.6903H322.587ZM322.587 82.1351V81.2148H324.779V82.1351H322.587Z" fill="#57068C"/>
<path d="M317.94 87.469V86.5308H318.825C319.082 86.5308 319.293 86.4623 319.46 86.3254C319.633 86.1824 319.761 85.9501 319.845 85.6285C319.934 85.3068 319.979 84.878 319.979 84.3419C319.979 83.7999 319.934 83.371 319.845 83.0553C319.761 82.7337 319.633 82.5044 319.46 82.3674C319.293 82.2244 319.082 82.153 318.825 82.153H317.94V81.2148H318.861C319.308 81.2148 319.699 81.3221 320.033 81.5365C320.367 81.745 320.623 82.0785 320.802 82.5371C320.987 82.9958 321.079 83.5974 321.079 84.3419C321.079 85.0864 320.987 85.688 320.802 86.1467C320.623 86.6053 320.367 86.9418 320.033 87.1563C319.699 87.3647 319.308 87.469 318.861 87.469H317.94ZM317.242 87.469V81.2148H318.342V87.469H317.242Z" fill="#57068C"/>
<path d="M312.167 87.469V81.2148H313.267V87.469H312.167ZM312.954 87.469V86.5487H314.966V87.469H312.954Z" fill="#57068C"/>
<path d="M307.694 87.469L308.938 81.2148H310.369L311.603 87.469H310.539L309.582 82.2155H309.716L308.732 87.469H307.694ZM308.464 86.0216L308.562 85.1728H310.691L310.78 86.0216H308.464Z" fill="#57068C"/>
<path d="M303.309 87.469V81.2148H304.525L306.574 86.7989L306.091 87.1116V81.2148H307.128V87.469H305.912L303.863 81.8849L304.355 81.5722V87.469H303.309Z" fill="#57068C"/>
<path d="M300.582 87.5578C300.164 87.5578 299.813 87.4536 299.526 87.2451C299.24 87.0307 299.022 86.6882 298.873 86.2176C298.73 85.7471 298.659 85.1247 298.659 84.3503C298.659 83.5641 298.73 82.9357 298.873 82.4652C299.022 81.9946 299.24 81.6551 299.526 81.4466C299.813 81.2322 300.164 81.125 300.582 81.125C300.999 81.125 301.348 81.2322 301.628 81.4466C301.915 81.6551 302.132 81.9946 302.281 82.4652C302.431 82.9357 302.505 83.5581 302.505 84.3325C302.505 85.1127 302.431 85.7411 302.281 86.2176C302.132 86.6882 301.915 87.0307 301.628 87.2451C301.348 87.4536 300.999 87.5578 300.582 87.5578ZM300.582 86.6376C300.779 86.6376 300.934 86.5631 301.047 86.4142C301.166 86.2653 301.25 86.0241 301.297 85.6905C301.345 85.357 301.369 84.9102 301.369 84.3503C301.369 83.7845 301.345 83.3348 301.297 83.0012C301.25 82.6617 301.166 82.4175 301.047 82.2686C300.934 82.1197 300.779 82.0452 300.582 82.0452C300.385 82.0452 300.227 82.1197 300.108 82.2686C299.994 82.4175 299.911 82.6587 299.857 82.9923C299.81 83.3259 299.786 83.7726 299.786 84.3325C299.786 84.8983 299.81 85.351 299.857 85.6905C299.911 86.0241 299.994 86.2653 300.108 86.4142C300.227 86.5631 300.385 86.6376 300.582 86.6376Z" fill="#57068C"/>
<path d="M296.749 87.469V81.2148H297.849V87.469H296.749Z" fill="#57068C"/>
<path d="M293.921 87.469V81.2148H295.021V87.469H293.921ZM292.785 82.1351V81.2148H296.157V82.1351H292.785Z" fill="#57068C"/>
<path d="M290.379 87.5583C289.783 87.5583 289.332 87.3915 289.028 87.058C288.73 86.7244 288.581 86.2717 288.581 85.6999V81.2148H289.69V85.7089C289.69 86.0186 289.747 86.2509 289.86 86.4058C289.974 86.5547 290.146 86.6291 290.379 86.6291C290.618 86.6291 290.793 86.5547 290.907 86.4058C291.02 86.2509 291.077 86.0186 291.077 85.7089V81.2148H292.177V85.6999C292.177 86.2717 292.028 86.7244 291.73 87.058C291.432 87.3915 290.981 87.5583 290.379 87.5583Z" fill="#57068C"/>
<path d="M285.753 87.469V81.2148H286.853V87.469H285.753ZM284.617 82.1351V81.2148H287.989V82.1351H284.617Z" fill="#57068C"/>
<path d="M282.912 87.469V81.2148H284.012V87.469H282.912Z" fill="#57068C"/>
<path d="M280.084 87.469V81.2148H281.184V87.469H280.084ZM278.948 82.1351V81.2148H282.32V82.1351H278.948Z" fill="#57068C"/>
<path d="M276.852 87.5578C276.441 87.5578 276.104 87.4804 275.841 87.3255C275.579 87.1706 275.382 86.9562 275.251 86.6822C275.126 86.4082 275.054 86.0836 275.036 85.7084L276.092 85.5386C276.122 85.9377 276.196 86.2325 276.316 86.4231C276.441 86.6137 276.626 86.709 276.87 86.709C277.097 86.709 277.27 86.6346 277.389 86.4857C277.514 86.3308 277.577 86.1045 277.577 85.8067C277.577 85.622 277.553 85.4701 277.505 85.351C277.458 85.2319 277.386 85.1336 277.291 85.0562C277.195 84.9728 277.067 84.8983 276.906 84.8328L276.378 84.6273C275.943 84.4546 275.636 84.2253 275.457 83.9394C275.284 83.6475 275.197 83.302 275.197 82.903C275.197 82.355 275.338 81.9231 275.618 81.6075C275.898 81.2858 276.316 81.125 276.87 81.125C277.389 81.125 277.791 81.2739 278.078 81.5717C278.364 81.8636 278.516 82.3163 278.534 82.9298L277.487 83.0638C277.493 82.6587 277.443 82.3788 277.335 82.2239C277.234 82.0691 277.085 81.9916 276.888 81.9916C276.697 81.9916 276.545 82.0542 276.432 82.1793C276.319 82.2984 276.262 82.4979 276.262 82.7779C276.262 83.0161 276.31 83.2067 276.405 83.3497C276.506 83.4926 276.67 83.6088 276.897 83.6981L277.38 83.8857C277.624 83.981 277.842 84.1061 278.033 84.261C278.224 84.4099 278.373 84.6005 278.48 84.8328C278.588 85.0651 278.641 85.3599 278.641 85.7173C278.641 86.307 278.489 86.7626 278.185 87.0843C277.887 87.4 277.443 87.5578 276.852 87.5578Z" fill="#57068C"/>
<path d="M270.507 87.469V81.2148H271.724L273.772 86.7989L273.289 87.1116V81.2148H274.327V87.469H273.11L271.062 81.8849L271.554 81.5722V87.469H270.507Z" fill="#57068C"/>
<path d="M268.472 87.469V81.2148H269.572V87.469H268.472Z" fill="#57068C"/>
</svg>
