<svg width="311" height="113" viewBox="0 0 311 113" fill="none" xmlns="http://www.w3.org/2000/svg">
<path d="M62.5725 72.2C61.2925 76.04 59.3725 79.304 56.8125 81.992C54.2525 84.616 51.2445 86.6 47.7885 87.944C44.3325 89.288 40.5245 89.96 36.3645 89.96C30.2845 89.96 25.0045 88.648 20.5245 86.024C16.0445 83.4 12.5885 79.656 10.1565 74.792C7.7245 69.928 6.5085 64.104 6.5085 57.32C6.5085 50.536 7.7245 44.712 10.1565 39.848C12.5885 34.984 16.0445 31.24 20.5245 28.616C25.0045 25.992 30.2525 24.68 36.2685 24.68C40.4285 24.68 44.1725 25.256 47.5005 26.408C50.8925 27.56 53.7725 29.288 56.1405 31.592C58.5085 33.896 60.3325 36.776 61.6125 40.232L51.9165 44.552C50.6365 40.776 48.7805 38.024 46.3485 36.296C43.9165 34.504 40.7485 33.608 36.8445 33.608C32.9405 33.608 29.5165 34.536 26.5725 36.392C23.6285 38.248 21.3245 40.936 19.6605 44.456C18.0605 47.976 17.2605 52.264 17.2605 57.32C17.2605 62.312 18.0285 66.6 19.5645 70.184C21.1005 73.704 23.3085 76.392 26.1885 78.248C29.0685 80.104 32.5245 81.032 36.5565 81.032C40.4605 81.032 43.8205 80.04 46.6365 78.056C49.5165 76.008 51.5645 72.968 52.7805 68.936L62.5725 72.2ZM91.2375 40.04C95.9095 40.04 100.037 41.032 103.621 43.016C107.205 45 109.989 47.88 111.973 51.656C114.021 55.368 115.045 59.816 115.045 65C115.045 70.184 114.021 74.664 111.973 78.44C109.989 82.152 107.205 85 103.621 86.984C100.037 88.968 95.9095 89.96 91.2375 89.96C86.5655 89.96 82.4375 88.968 78.8535 86.984C75.2695 85 72.4535 82.152 70.4055 78.44C68.3575 74.664 67.3335 70.184 67.3335 65C67.3335 59.816 68.3575 55.368 70.4055 51.656C72.4535 47.88 75.2695 45 78.8535 43.016C82.4375 41.032 86.5655 40.04 91.2375 40.04ZM91.2375 48.104C88.3575 48.104 85.8935 48.776 83.8455 50.12C81.8615 51.4 80.3255 53.288 79.2375 55.784C78.1495 58.28 77.6055 61.352 77.6055 65C77.6055 68.584 78.1495 71.656 79.2375 74.216C80.3255 76.712 81.8615 78.632 83.8455 79.976C85.8935 81.256 88.3575 81.896 91.2375 81.896C94.1175 81.896 96.5495 81.256 98.5335 79.976C100.517 78.632 102.053 76.712 103.141 74.216C104.229 71.656 104.773 68.584 104.773 65C104.773 61.352 104.229 58.28 103.141 55.784C102.053 53.288 100.517 51.4 98.5335 50.12C96.5495 48.776 94.1175 48.104 91.2375 48.104Z" fill="white"/>
<path d="M169.216 88.056C166.976 88.056 164.928 87.7253 163.072 87.064C161.237 86.4027 159.509 85.3573 157.888 83.928C156.267 82.4987 154.688 80.6427 153.152 78.36C151.637 76.12 150.389 73.944 149.408 71.832C148.427 69.72 147.691 67.64 147.2 65.592C146.731 63.5227 146.496 61.464 146.496 59.416C146.496 57.048 146.955 54.9253 147.872 53.048C148.811 51.1707 150.133 49.6987 151.84 48.632C153.568 47.544 155.605 47 157.952 47C159.701 47 161.227 47.352 162.528 48.056C163.851 48.76 164.875 49.7307 165.6 50.968C166.347 52.2053 166.72 53.624 166.72 55.224C166.72 57.336 166.165 59.1813 165.056 60.76C163.947 62.3173 162.357 63.5653 160.288 64.504C158.219 65.4427 155.733 66.04 152.832 66.296L152.608 65.304C154.357 65.0693 155.872 64.536 157.152 63.704C158.453 62.8507 159.456 61.688 160.16 60.216C160.885 58.744 161.248 56.9413 161.248 54.808C161.248 52.9093 160.917 51.3733 160.256 50.2C159.616 49.0267 158.72 48.44 157.568 48.44C156.053 48.44 154.784 49.208 153.76 50.744C152.757 52.2587 152.256 54.296 152.256 56.856C152.256 58.8827 152.512 60.9093 153.024 62.936C153.536 64.9413 154.283 66.9573 155.264 68.984C156.267 70.9893 157.472 73.0053 158.88 75.032C160.587 77.5067 162.144 79.4907 163.552 80.984C164.96 82.4773 166.325 83.5653 167.648 84.248C168.992 84.9093 170.421 85.24 171.936 85.24C173.963 85.24 175.776 84.7387 177.376 83.736C178.976 82.712 180.224 81.176 181.12 79.128C182.037 77.0587 182.496 74.4453 182.496 71.288C182.496 67.3413 181.824 63.4693 180.48 59.672C179.136 55.8747 177.013 52.4187 174.112 49.304C171.36 46.3173 168.213 43.992 164.672 42.328C161.131 40.664 157.259 39.832 153.056 39.832C149.728 39.832 146.955 40.312 144.736 41.272C142.517 42.2107 140.853 43.4907 139.744 45.112C138.656 46.712 138.112 48.5147 138.112 50.52C138.112 51.3947 138.229 52.1307 138.464 52.728C138.72 53.304 138.997 53.8373 139.296 54.328C139.616 54.7973 139.893 55.2987 140.128 55.832C140.363 56.3653 140.48 57.016 140.48 57.784C140.48 58.6587 140.171 59.3947 139.552 59.992C138.955 60.568 138.187 60.856 137.248 60.856C135.947 60.856 134.912 60.28 134.144 59.128C133.397 57.9547 133.024 56.376 133.024 54.392C133.024 51.1493 133.824 48.3227 135.424 45.912C137.045 43.5013 139.36 41.6347 142.368 40.312C145.397 38.9893 149.003 38.328 153.184 38.328C157.557 38.328 161.621 39.1813 165.376 40.888C169.131 42.5947 172.48 45.0267 175.424 48.184C178.368 51.2987 180.576 54.8293 182.048 58.776C183.52 62.7013 184.256 66.8293 184.256 71.16C184.256 74.7867 183.648 77.8587 182.432 80.376C181.216 82.8933 179.488 84.8027 177.248 86.104C175.008 87.4053 172.331 88.056 169.216 88.056ZM162.496 80.952C163.968 79.8213 165.131 78.7227 165.984 77.656C166.859 76.5893 167.488 75.576 167.872 74.616C168.277 73.6347 168.48 72.728 168.48 71.896C168.48 71.128 168.363 70.488 168.128 69.976C167.915 69.4427 167.701 68.9413 167.488 68.472C167.275 68.0027 167.168 67.4693 167.168 66.872C167.168 65.976 167.467 65.208 168.064 64.568C168.683 63.928 169.461 63.608 170.4 63.608C171.381 63.608 172.181 64.0027 172.8 64.792C173.44 65.56 173.76 66.6587 173.76 68.088C173.76 70.6267 172.885 73.0587 171.136 75.384C169.408 77.688 166.763 79.8213 163.2 81.784L162.496 80.952ZM148.288 66.776C146.411 67.0747 144.843 67.6933 143.584 68.632C142.325 69.5707 141.387 70.712 140.768 72.056C140.149 73.4 139.84 74.8293 139.84 76.344C139.84 79.0747 140.597 81.24 142.112 82.84C143.648 84.4187 145.696 85.208 148.256 85.208C150.091 85.208 151.691 84.92 153.056 84.344C154.443 83.7467 155.744 82.968 156.96 82.008L157.792 83.128C156.704 84.088 155.52 84.9307 154.24 85.656C152.981 86.36 151.563 86.904 149.984 87.288C148.405 87.6933 146.613 87.896 144.608 87.896C140.917 87.896 138.037 87.0213 135.968 85.272C133.92 83.5013 132.896 81.08 132.896 78.008C132.896 75.7893 133.472 73.7947 134.624 72.024C135.776 70.2533 137.493 68.8133 139.776 67.704C142.059 66.5947 144.907 65.9013 148.32 65.624L148.288 66.776Z" fill="white"/>
<path d="M202.408 89V25.64H227.368C234.984 25.64 240.552 27.176 244.072 30.248C247.592 33.32 249.352 37.576 249.352 43.016C249.352 46.344 248.392 49.32 246.472 51.944C244.552 54.504 241.736 56.136 238.024 56.84V56.936C242.12 57.576 245.288 59.272 247.528 62.024C249.832 64.712 250.984 67.848 250.984 71.432C250.984 76.872 249 81.16 245.032 84.296C241.064 87.432 235.304 89 227.752 89H202.408ZM212.488 80.456H228.232C232.264 80.456 235.272 79.624 237.256 77.96C239.304 76.296 240.328 73.96 240.328 70.952C240.328 67.944 239.304 65.608 237.256 63.944C235.272 62.28 232.264 61.448 228.232 61.448H212.488V80.456ZM212.488 52.904H226.6C234.664 52.904 238.696 49.8 238.696 43.592C238.696 37.384 234.664 34.28 226.6 34.28H212.488V52.904ZM281.523 40.04C286.195 40.04 290.323 41.032 293.907 43.016C297.491 45 300.275 47.88 302.259 51.656C304.307 55.368 305.331 59.816 305.331 65C305.331 70.184 304.307 74.664 302.259 78.44C300.275 82.152 297.491 85 293.907 86.984C290.323 88.968 286.195 89.96 281.523 89.96C276.851 89.96 272.723 88.968 269.139 86.984C265.555 85 262.739 82.152 260.691 78.44C258.643 74.664 257.619 70.184 257.619 65C257.619 59.816 258.643 55.368 260.691 51.656C262.739 47.88 265.555 45 269.139 43.016C272.723 41.032 276.851 40.04 281.523 40.04ZM281.523 48.104C278.643 48.104 276.179 48.776 274.131 50.12C272.147 51.4 270.611 53.288 269.523 55.784C268.435 58.28 267.891 61.352 267.891 65C267.891 68.584 268.435 71.656 269.523 74.216C270.611 76.712 272.147 78.632 274.131 79.976C276.179 81.256 278.643 81.896 281.523 81.896C284.403 81.896 286.835 81.256 288.819 79.976C290.803 78.632 292.339 76.712 293.427 74.216C294.515 71.656 295.059 68.584 295.059 65C295.059 61.352 294.515 58.28 293.427 55.784C292.339 53.288 290.803 51.4 288.819 50.12C286.835 48.776 284.403 48.104 281.523 48.104Z" fill="white"/>
</svg>
