<svg width="350" height="34" viewBox="0 0 350 34" fill="none" xmlns="http://www.w3.org/2000/svg">
<path d="M335.242 24C336.031 24 336.655 23.792 337.114 23.376C337.583 22.9493 337.818 22.4053 337.818 21.744C337.818 21.328 337.716 20.9547 337.514 20.624C337.322 20.2827 336.97 19.9787 336.458 19.712C335.956 19.4347 335.242 19.1733 334.314 18.928C332.863 18.5867 331.727 18.1707 330.906 17.68C330.095 17.1893 329.519 16.6293 329.178 16C328.847 15.3707 328.682 14.6827 328.682 13.936C328.682 12.5813 329.162 11.4987 330.122 10.688C331.082 9.87732 332.447 9.47198 334.218 9.47198C334.89 9.47198 335.439 9.53065 335.866 9.64799C336.303 9.76532 336.66 9.88799 336.938 10.016C337.226 10.1333 337.471 10.192 337.674 10.192C337.876 10.192 338.036 10.1333 338.154 10.016C338.282 9.88799 338.399 9.76532 338.506 9.64799C338.623 9.53065 338.772 9.47198 338.954 9.47198C339.082 9.47198 339.194 9.51465 339.29 9.59999C339.386 9.67465 339.466 9.81865 339.53 10.032L340.682 13.504C340.767 13.7707 340.794 13.9947 340.762 14.176C340.73 14.3467 340.618 14.4693 340.426 14.544C340.255 14.6187 340.1 14.6187 339.962 14.544C339.823 14.4693 339.695 14.3413 339.578 14.16C339.108 13.2533 338.596 12.5387 338.042 12.016C337.487 11.4933 336.9 11.12 336.282 10.896C335.674 10.672 335.039 10.56 334.378 10.56C333.375 10.56 332.623 10.7733 332.122 11.2C331.62 11.6267 331.37 12.1973 331.37 12.912C331.37 13.3387 331.476 13.728 331.69 14.08C331.903 14.432 332.292 14.7573 332.858 15.056C333.423 15.3547 334.223 15.6373 335.258 15.904C336.538 16.2133 337.556 16.592 338.314 17.04C339.071 17.488 339.615 18.0213 339.946 18.64C340.287 19.2587 340.458 19.984 340.458 20.816C340.458 21.648 340.244 22.3893 339.818 23.04C339.402 23.68 338.81 24.1813 338.042 24.544C337.284 24.9067 336.399 25.088 335.386 25.088C334.735 25.088 334.207 25.0187 333.802 24.88C333.396 24.7413 333.06 24.6027 332.794 24.464C332.527 24.3253 332.276 24.256 332.042 24.256C331.839 24.256 331.674 24.3253 331.546 24.464C331.418 24.592 331.295 24.7253 331.178 24.864C331.06 25.0133 330.916 25.088 330.746 25.088C330.628 25.088 330.527 25.0453 330.442 24.96C330.356 24.8747 330.298 24.7307 330.266 24.528L329.562 21.264C329.498 20.9227 329.482 20.672 329.514 20.512C329.546 20.3413 329.642 20.224 329.802 20.16C329.983 20.0853 330.138 20.096 330.266 20.192C330.404 20.2773 330.543 20.4427 330.682 20.688C331.311 21.872 332.015 22.72 332.794 23.232C333.583 23.744 334.399 24 335.242 24Z" fill="white"/>
<path d="M321.577 24C322.366 24 322.99 23.792 323.449 23.376C323.918 22.9493 324.153 22.4053 324.153 21.744C324.153 21.328 324.051 20.9547 323.849 20.624C323.657 20.2827 323.305 19.9787 322.793 19.712C322.291 19.4347 321.577 19.1733 320.649 18.928C319.198 18.5867 318.062 18.1707 317.241 17.68C316.43 17.1893 315.854 16.6293 315.513 16C315.182 15.3707 315.017 14.6827 315.017 13.936C315.017 12.5813 315.497 11.4987 316.457 10.688C317.417 9.87732 318.782 9.47198 320.553 9.47198C321.225 9.47198 321.774 9.53065 322.201 9.64799C322.638 9.76532 322.995 9.88799 323.273 10.016C323.561 10.1333 323.806 10.192 324.009 10.192C324.211 10.192 324.371 10.1333 324.489 10.016C324.617 9.88799 324.734 9.76532 324.841 9.64799C324.958 9.53065 325.107 9.47198 325.289 9.47198C325.417 9.47198 325.529 9.51465 325.625 9.59999C325.721 9.67465 325.801 9.81865 325.865 10.032L327.017 13.504C327.102 13.7707 327.129 13.9947 327.097 14.176C327.065 14.3467 326.953 14.4693 326.761 14.544C326.59 14.6187 326.435 14.6187 326.297 14.544C326.158 14.4693 326.03 14.3413 325.913 14.16C325.443 13.2533 324.931 12.5387 324.377 12.016C323.822 11.4933 323.235 11.12 322.617 10.896C322.009 10.672 321.374 10.56 320.713 10.56C319.71 10.56 318.958 10.7733 318.457 11.2C317.955 11.6267 317.705 12.1973 317.705 12.912C317.705 13.3387 317.811 13.728 318.025 14.08C318.238 14.432 318.627 14.7573 319.193 15.056C319.758 15.3547 320.558 15.6373 321.593 15.904C322.873 16.2133 323.891 16.592 324.649 17.04C325.406 17.488 325.95 18.0213 326.281 18.64C326.622 19.2587 326.793 19.984 326.793 20.816C326.793 21.648 326.579 22.3893 326.153 23.04C325.737 23.68 325.145 24.1813 324.377 24.544C323.619 24.9067 322.734 25.088 321.721 25.088C321.07 25.088 320.542 25.0187 320.137 24.88C319.731 24.7413 319.395 24.6027 319.129 24.464C318.862 24.3253 318.611 24.256 318.377 24.256C318.174 24.256 318.009 24.3253 317.881 24.464C317.753 24.592 317.63 24.7253 317.513 24.864C317.395 25.0133 317.251 25.088 317.081 25.088C316.963 25.088 316.862 25.0453 316.777 24.96C316.691 24.8747 316.633 24.7307 316.601 24.528L315.897 21.264C315.833 20.9227 315.817 20.672 315.849 20.512C315.881 20.3413 315.977 20.224 316.137 20.16C316.318 20.0853 316.473 20.096 316.601 20.192C316.739 20.2773 316.878 20.4427 317.017 20.688C317.646 21.872 318.35 22.72 319.129 23.232C319.918 23.744 320.734 24 321.577 24Z" fill="white"/>
<path d="M313.505 15.456C313.505 15.904 313.372 16.2507 313.105 16.496C312.838 16.7307 312.454 16.848 311.953 16.848H301.761V15.904H309.377C309.868 15.904 310.113 15.6853 310.113 15.248C310.113 13.7867 309.809 12.6507 309.201 11.84C308.593 11.0293 307.777 10.624 306.753 10.624C305.953 10.624 305.249 10.8587 304.641 11.328C304.033 11.7867 303.558 12.4427 303.217 13.296C302.876 14.1493 302.705 15.152 302.705 16.304C302.705 18.4373 303.206 20.0587 304.209 21.168C305.222 22.2667 306.545 22.816 308.177 22.816C309.233 22.816 310.145 22.5707 310.913 22.08C311.692 21.5893 312.236 20.9333 312.545 20.112C312.662 19.952 312.764 19.84 312.849 19.776C312.934 19.712 313.025 19.68 313.121 19.68C313.249 19.68 313.345 19.7387 313.409 19.856C313.473 19.9733 313.5 20.112 313.489 20.272C313.425 21.1573 313.11 21.968 312.545 22.704C311.98 23.4293 311.228 24.0107 310.289 24.448C309.35 24.8747 308.284 25.088 307.089 25.088C305.617 25.088 304.316 24.7787 303.185 24.16C302.065 23.5307 301.19 22.6507 300.561 21.52C299.942 20.3893 299.633 19.0667 299.633 17.552C299.633 15.9947 299.937 14.6133 300.545 13.408C301.164 12.192 302.038 11.232 303.169 10.528C304.3 9.82398 305.638 9.47198 307.185 9.47198C308.476 9.47198 309.59 9.72799 310.529 10.24C311.478 10.752 312.209 11.456 312.721 12.352C313.244 13.248 313.505 14.2827 313.505 15.456Z" fill="white"/>
<path d="M286.546 10.352V22.656C286.546 22.9227 286.594 23.1253 286.69 23.264C286.797 23.4027 286.951 23.4987 287.154 23.552L287.906 23.728C288.215 23.824 288.37 23.984 288.37 24.208C288.37 24.5493 288.146 24.72 287.698 24.72H281.97C281.746 24.72 281.581 24.6773 281.474 24.592C281.367 24.5067 281.314 24.3893 281.314 24.24C281.314 24.112 281.357 24.0107 281.442 23.936C281.527 23.8507 281.655 23.7813 281.826 23.728L282.61 23.552C282.813 23.4987 282.967 23.408 283.074 23.28C283.181 23.1413 283.234 22.9387 283.234 22.672V12.528C283.234 12.304 283.197 12.144 283.122 12.048C283.047 11.952 282.919 11.8933 282.738 11.872L281.65 11.84C281.479 11.808 281.357 11.76 281.282 11.696C281.207 11.6213 281.17 11.5253 281.17 11.408C281.17 11.28 281.213 11.1787 281.298 11.104C281.383 11.0187 281.533 10.9387 281.746 10.864L284.53 9.90398C284.839 9.79732 285.09 9.72265 285.282 9.67999C285.474 9.62665 285.645 9.59999 285.794 9.59999C286.05 9.59999 286.237 9.66932 286.354 9.80799C286.482 9.93599 286.546 10.1173 286.546 10.352ZM286.114 13.712L285.538 13.12L286.226 12.528C287.463 11.4293 288.525 10.6453 289.41 10.176C290.306 9.70665 291.165 9.47198 291.986 9.47198C293.245 9.47198 294.215 9.88799 294.898 10.72C295.591 11.552 296.018 12.6827 296.178 14.112L297.186 22.592C297.218 22.88 297.282 23.104 297.378 23.264C297.485 23.4133 297.65 23.5147 297.874 23.568L298.562 23.728C298.733 23.7813 298.855 23.8507 298.93 23.936C299.015 24.0107 299.058 24.112 299.058 24.24C299.058 24.3893 299.005 24.5067 298.898 24.592C298.802 24.6773 298.642 24.72 298.418 24.72H292.642C292.183 24.72 291.954 24.5493 291.954 24.208C291.954 23.984 292.109 23.824 292.418 23.728L293.202 23.552C293.426 23.4987 293.597 23.3973 293.714 23.248C293.831 23.0987 293.874 22.88 293.842 22.592L292.866 14.608C292.738 13.552 292.466 12.7627 292.05 12.24C291.634 11.7067 291.026 11.44 290.226 11.44C289.725 11.44 289.191 11.5787 288.626 11.856C288.071 12.1333 287.458 12.5547 286.786 13.12L286.114 13.712Z" fill="white"/>
<path d="M274.809 22.176L274.729 22.064V4.064C274.729 3.84 274.692 3.67999 274.617 3.58399C274.543 3.47733 274.42 3.41866 274.249 3.408L273.145 3.35999C272.975 3.33866 272.852 3.29066 272.777 3.21599C272.713 3.14133 272.681 3.05066 272.681 2.94399C272.681 2.81599 272.719 2.70933 272.793 2.62399C272.879 2.53866 273.033 2.45866 273.257 2.384L276.025 1.43999C276.335 1.32266 276.585 1.24266 276.777 1.2C276.969 1.14666 277.145 1.12 277.305 1.12C277.551 1.12 277.737 1.18933 277.865 1.328C277.993 1.46666 278.057 1.65333 278.057 1.88799V22.656C278.057 22.9227 278.105 23.1253 278.201 23.264C278.308 23.4027 278.463 23.4987 278.665 23.552L279.417 23.712C279.599 23.7653 279.732 23.8347 279.817 23.92C279.903 24.0053 279.945 24.112 279.945 24.24C279.945 24.3893 279.887 24.5067 279.769 24.592C279.663 24.6773 279.497 24.72 279.273 24.72H276.297C275.849 24.72 275.487 24.592 275.209 24.336C274.943 24.08 274.809 23.7067 274.809 23.216V22.176ZM263.225 17.632C263.225 15.9573 263.551 14.512 264.201 13.296C264.863 12.0693 265.748 11.1253 266.857 10.464C267.977 9.80266 269.215 9.47199 270.569 9.47199C271.817 9.47199 272.927 9.77599 273.897 10.384C274.868 10.992 275.647 11.8507 276.233 12.96L275.497 13.696C274.975 12.768 274.335 12.0587 273.577 11.568C272.831 11.0773 272.015 10.832 271.129 10.832C270.297 10.832 269.545 11.0667 268.873 11.536C268.201 11.9947 267.668 12.6987 267.273 13.648C266.889 14.5973 266.697 15.7973 266.697 17.248C266.697 18.6133 266.884 19.7547 267.257 20.672C267.631 21.5787 268.137 22.2667 268.777 22.736C269.428 23.1947 270.164 23.424 270.985 23.424C271.817 23.424 272.612 23.184 273.369 22.704C274.127 22.224 274.82 21.4987 275.449 20.528L275.945 21.296C275.124 22.512 274.185 23.4507 273.129 24.112C272.073 24.7627 270.932 25.088 269.705 25.088C268.457 25.088 267.343 24.7733 266.361 24.144C265.391 23.504 264.623 22.624 264.057 21.504C263.503 20.384 263.225 19.0933 263.225 17.632Z" fill="white"/>
<path d="M260.045 1.88799V22.656C260.045 22.9227 260.098 23.1253 260.205 23.264C260.311 23.4027 260.466 23.4987 260.669 23.552L261.421 23.712C261.591 23.7653 261.719 23.8347 261.805 23.92C261.89 24.0053 261.933 24.112 261.933 24.24C261.933 24.3893 261.879 24.5067 261.773 24.592C261.666 24.6773 261.495 24.72 261.261 24.72H255.469C255.255 24.72 255.095 24.6773 254.989 24.592C254.882 24.5067 254.829 24.3893 254.829 24.24C254.829 24.112 254.866 24.0053 254.941 23.92C255.026 23.8347 255.159 23.7707 255.341 23.728L256.125 23.552C256.327 23.4987 256.477 23.408 256.573 23.28C256.679 23.1413 256.733 22.9387 256.733 22.672V4.064C256.733 3.84 256.695 3.67999 256.621 3.58399C256.546 3.47733 256.423 3.41866 256.253 3.408L255.149 3.35999C254.978 3.33866 254.855 3.29066 254.781 3.21599C254.717 3.14133 254.685 3.05066 254.685 2.94399C254.685 2.81599 254.722 2.70933 254.797 2.62399C254.882 2.53866 255.037 2.45866 255.261 2.384L258.029 1.43999C258.349 1.32266 258.605 1.24266 258.797 1.2C258.989 1.14666 259.149 1.12 259.277 1.12C259.543 1.12 259.735 1.18933 259.853 1.328C259.981 1.46666 260.045 1.65333 260.045 1.88799Z" fill="white"/>
<path d="M245.301 9.48798C246.837 9.48798 248.197 9.81864 249.381 10.48C250.565 11.1413 251.487 12.064 252.149 13.248C252.821 14.4213 253.157 15.776 253.157 17.312C253.157 18.8053 252.815 20.1386 252.133 21.312C251.461 22.4853 250.527 23.408 249.333 24.08C248.138 24.752 246.751 25.088 245.173 25.088C243.637 25.088 242.277 24.7573 241.093 24.096C239.919 23.424 238.997 22.5013 238.325 21.328C237.653 20.1546 237.317 18.8053 237.317 17.28C237.317 15.7653 237.653 14.4266 238.325 13.264C239.007 12.0906 239.946 11.168 241.141 10.496C242.335 9.82398 243.722 9.48798 245.301 9.48798ZM246.373 23.824C247.258 23.7066 247.978 23.3493 248.533 22.752C249.087 22.144 249.461 21.328 249.653 20.304C249.845 19.28 249.829 18.0746 249.605 16.688C249.381 15.28 249.007 14.112 248.485 13.184C247.962 12.256 247.327 11.584 246.581 11.168C245.834 10.752 245.007 10.608 244.101 10.736C243.215 10.864 242.495 11.2266 241.941 11.824C241.386 12.4213 241.013 13.232 240.821 14.256C240.639 15.28 240.661 16.4906 240.885 17.888C241.109 19.2853 241.482 20.448 242.005 21.376C242.527 22.304 243.162 22.976 243.909 23.392C244.655 23.808 245.477 23.952 246.373 23.824Z" fill="white"/>
<path d="M224.29 1.88799V22.8L222.77 24.64C222.44 24.8 222.194 24.9067 222.034 24.96C221.885 25.024 221.73 25.056 221.57 25.056C221.4 25.056 221.256 25.0027 221.138 24.896C221.032 24.7893 220.978 24.6293 220.978 24.416V4.064C220.978 3.84 220.941 3.67999 220.866 3.58399C220.791 3.47733 220.669 3.41866 220.498 3.408L219.394 3.35999C219.223 3.33866 219.101 3.29066 219.026 3.21599C218.962 3.14133 218.93 3.05066 218.93 2.94399C218.93 2.81599 218.968 2.70933 219.042 2.62399C219.128 2.53866 219.282 2.45866 219.506 2.384L222.274 1.43999C222.594 1.32266 222.845 1.24266 223.026 1.2C223.218 1.14666 223.384 1.12 223.522 1.12C223.789 1.12 223.981 1.18933 224.098 1.328C224.226 1.46666 224.29 1.65333 224.29 1.88799ZM223.57 14.032L223.09 13.264C223.911 12.048 224.845 11.1147 225.89 10.464C226.946 9.80266 228.093 9.47199 229.33 9.47199C230.578 9.47199 231.688 9.79199 232.658 10.432C233.64 11.0613 234.408 11.9413 234.962 13.072C235.528 14.192 235.81 15.4773 235.81 16.928C235.81 18.6027 235.48 20.048 234.818 21.264C234.168 22.48 233.288 23.424 232.178 24.096C231.069 24.7573 229.826 25.088 228.45 25.088C227.202 25.088 226.093 24.784 225.122 24.176C224.162 23.568 223.384 22.7093 222.786 21.6L223.522 20.864C224.056 21.8027 224.696 22.5173 225.442 23.008C226.2 23.488 227.016 23.728 227.89 23.728C228.722 23.728 229.474 23.4987 230.146 23.04C230.818 22.5707 231.346 21.8613 231.73 20.912C232.125 19.952 232.322 18.752 232.322 17.312C232.322 15.9467 232.136 14.8053 231.762 13.888C231.4 12.9707 230.893 12.2827 230.242 11.824C229.602 11.3547 228.872 11.12 228.05 11.12C227.218 11.12 226.418 11.36 225.65 11.84C224.893 12.32 224.2 13.0507 223.57 14.032Z" fill="white"/>
<path d="M203.957 25.328C202.805 25.328 201.765 25.1573 200.837 24.816C199.909 24.4747 199.039 23.9413 198.229 23.216C197.429 22.4907 196.639 21.5573 195.861 20.416C195.093 19.2747 194.453 18.1707 193.941 17.104C193.429 16.0373 193.039 14.9867 192.773 13.952C192.517 12.9173 192.389 11.8827 192.389 10.848C192.389 9.664 192.618 8.608 193.077 7.68C193.546 6.74133 194.213 6.00533 195.077 5.472C195.941 4.928 196.965 4.656 198.149 4.656C199.055 4.656 199.85 4.83733 200.533 5.2C201.215 5.56267 201.743 6.064 202.117 6.704C202.501 7.344 202.693 8.07467 202.693 8.896C202.693 9.93067 202.415 10.8373 201.861 11.616C201.317 12.3947 200.522 13.0293 199.477 13.52C198.431 14 197.167 14.304 195.685 14.432L195.541 13.776C196.447 13.648 197.221 13.376 197.861 12.96C198.511 12.544 199.007 11.9787 199.349 11.264C199.69 10.5387 199.861 9.66933 199.861 8.656C199.861 7.73867 199.685 6.992 199.333 6.416C198.991 5.84 198.538 5.552 197.973 5.552C197.194 5.552 196.559 5.92 196.069 6.656C195.578 7.38133 195.333 8.368 195.333 9.616C195.333 10.5867 195.461 11.5627 195.717 12.544C195.983 13.5147 196.367 14.5013 196.869 15.504C197.381 16.5067 197.994 17.5307 198.709 18.576C199.573 19.8133 200.357 20.8107 201.061 21.568C201.765 22.3147 202.453 22.8587 203.125 23.2C203.797 23.5413 204.501 23.712 205.237 23.712C206.271 23.712 207.199 23.456 208.021 22.944C208.853 22.4213 209.503 21.632 209.973 20.576C210.453 19.5093 210.693 18.1707 210.693 16.56C210.693 14.5653 210.351 12.6133 209.669 10.704C208.997 8.79467 207.893 7.04533 206.357 5.456C204.97 4.02667 203.397 2.928 201.637 2.16C199.877 1.38133 197.93 0.992001 195.797 0.992001C194.069 0.992001 192.645 1.232 191.525 1.712C190.405 2.192 189.573 2.832 189.029 3.632C188.485 4.42133 188.213 5.30133 188.213 6.272C188.213 6.688 188.266 7.04 188.373 7.328C188.49 7.616 188.623 7.87733 188.773 8.112C188.922 8.34667 189.055 8.59733 189.173 8.864C189.29 9.13067 189.349 9.46133 189.349 9.856C189.349 10.3147 189.183 10.6987 188.853 11.008C188.522 11.3067 188.101 11.456 187.589 11.456C186.938 11.456 186.426 11.1627 186.053 10.576C185.679 9.97867 185.493 9.20533 185.493 8.256C185.493 6.57067 185.903 5.11467 186.725 3.888C187.557 2.65067 188.746 1.696 190.293 1.024C191.839 0.341333 193.695 0 195.861 0C198.111 0 200.186 0.405333 202.085 1.216C203.994 2.016 205.695 3.184 207.189 4.72C208.757 6.30933 209.919 8.10667 210.677 10.112C211.445 12.1173 211.829 14.2347 211.829 16.464C211.829 18.3627 211.509 19.9733 210.869 21.296C210.239 22.6187 209.338 23.6213 208.165 24.304C206.991 24.9867 205.589 25.328 203.957 25.328ZM200.389 21.536C201.167 20.96 201.786 20.416 202.245 19.904C202.714 19.3813 203.05 18.8853 203.253 18.416C203.466 17.9467 203.573 17.4933 203.573 17.056C203.573 16.704 203.525 16.4053 203.429 16.16C203.343 15.9147 203.253 15.68 203.157 15.456C203.061 15.232 203.013 14.976 203.013 14.688C203.013 14.2187 203.162 13.824 203.461 13.504C203.759 13.1733 204.149 13.008 204.629 13.008C205.119 13.008 205.514 13.2053 205.813 13.6C206.122 13.9947 206.277 14.5387 206.277 15.232C206.277 16.4907 205.829 17.7013 204.933 18.864C204.047 20.016 202.687 21.088 200.853 22.08L200.389 21.536ZM193.429 14.72C192.437 14.88 191.621 15.1893 190.981 15.648C190.341 16.1067 189.866 16.6667 189.557 17.328C189.258 17.9787 189.109 18.688 189.109 19.456C189.109 20.7573 189.482 21.7973 190.229 22.576C190.975 23.344 191.951 23.728 193.157 23.728C194.042 23.728 194.831 23.5787 195.525 23.28C196.218 22.9813 196.895 22.5707 197.557 22.048L198.117 22.768C197.541 23.2693 196.927 23.7013 196.277 24.064C195.626 24.4267 194.906 24.704 194.117 24.896C193.338 25.0987 192.458 25.2 191.477 25.2C189.589 25.2 188.117 24.7573 187.061 23.872C186.015 22.9867 185.493 21.7547 185.493 20.176C185.493 19.0667 185.786 18.0693 186.373 17.184C186.97 16.2987 187.855 15.5787 189.029 15.024C190.202 14.4587 191.669 14.1013 193.429 13.952V14.72Z" fill="white"/>
<path d="M168.718 11.04L167.806 10.816C167.56 10.7413 167.39 10.6613 167.294 10.576C167.208 10.4906 167.166 10.3893 167.166 10.272C167.166 10.1226 167.219 10.0106 167.326 9.93596C167.432 9.85063 167.576 9.80796 167.758 9.80796H168.83C169.086 9.80796 169.294 9.7653 169.454 9.67996C169.614 9.59463 169.758 9.43996 169.886 9.21596L171.278 6.81596C171.416 6.59196 171.56 6.43196 171.71 6.33596C171.859 6.2293 172.014 6.17596 172.174 6.17596C172.344 6.17596 172.472 6.2293 172.558 6.33596C172.654 6.44263 172.702 6.59196 172.702 6.78396V20.832C172.702 21.5786 172.856 22.1493 173.166 22.544C173.475 22.928 173.896 23.12 174.43 23.12C174.803 23.12 175.096 23.0613 175.31 22.944C175.523 22.816 175.694 22.6666 175.822 22.496C175.96 22.3253 176.083 22.1706 176.19 22.032C176.307 21.8933 176.44 21.808 176.59 21.776C176.718 21.7653 176.814 21.8026 176.878 21.888C176.952 21.9626 176.99 22.0906 176.99 22.272C176.968 22.7413 176.792 23.184 176.462 23.6C176.142 24.016 175.699 24.352 175.134 24.608C174.568 24.864 173.923 24.992 173.198 24.992C172.035 24.992 171.107 24.6933 170.414 24.096C169.731 23.488 169.39 22.576 169.39 21.36V11.904C169.39 11.6586 169.342 11.472 169.246 11.344C169.15 11.216 168.974 11.1146 168.718 11.04ZM171.262 10.96V9.80796H176.238C176.44 9.80796 176.595 9.8453 176.702 9.91996C176.808 9.99463 176.862 10.1066 176.862 10.256C176.862 10.4586 176.755 10.6293 176.542 10.768C176.339 10.896 176.014 10.96 175.566 10.96H171.262Z" fill="white"/>
<path d="M154.655 10.352V22.656C154.655 22.9227 154.703 23.1253 154.799 23.264C154.905 23.4027 155.06 23.4987 155.263 23.552L156.015 23.728C156.324 23.824 156.479 23.984 156.479 24.208C156.479 24.5493 156.255 24.72 155.807 24.72H150.079C149.855 24.72 149.689 24.6773 149.583 24.592C149.476 24.5067 149.423 24.3893 149.423 24.24C149.423 24.112 149.465 24.0107 149.551 23.936C149.636 23.8507 149.764 23.7813 149.935 23.728L150.719 23.552C150.921 23.4987 151.076 23.408 151.183 23.28C151.289 23.1413 151.343 22.9387 151.343 22.672V12.528C151.343 12.304 151.305 12.144 151.231 12.048C151.156 11.952 151.028 11.8933 150.847 11.872L149.759 11.84C149.588 11.808 149.465 11.76 149.391 11.696C149.316 11.6213 149.279 11.5253 149.279 11.408C149.279 11.28 149.321 11.1787 149.407 11.104C149.492 11.0187 149.641 10.9387 149.855 10.864L152.639 9.90398C152.948 9.79732 153.199 9.72265 153.391 9.67999C153.583 9.62665 153.753 9.59999 153.903 9.59999C154.159 9.59999 154.345 9.66932 154.463 9.80799C154.591 9.93599 154.655 10.1173 154.655 10.352ZM154.223 13.712L153.647 13.12L154.335 12.528C155.572 11.4293 156.633 10.6453 157.519 10.176C158.415 9.70665 159.273 9.47198 160.095 9.47198C161.353 9.47198 162.324 9.88799 163.007 10.72C163.7 11.552 164.127 12.6827 164.287 14.112L165.295 22.592C165.327 22.88 165.391 23.104 165.487 23.264C165.593 23.4133 165.759 23.5147 165.983 23.568L166.671 23.728C166.841 23.7813 166.964 23.8507 167.039 23.936C167.124 24.0107 167.167 24.112 167.167 24.24C167.167 24.3893 167.113 24.5067 167.007 24.592C166.911 24.6773 166.751 24.72 166.527 24.72H160.751C160.292 24.72 160.063 24.5493 160.063 24.208C160.063 23.984 160.217 23.824 160.527 23.728L161.311 23.552C161.535 23.4987 161.705 23.3973 161.823 23.248C161.94 23.0987 161.983 22.88 161.951 22.592L160.975 14.608C160.847 13.552 160.575 12.7627 160.159 12.24C159.743 11.7067 159.135 11.44 158.335 11.44C157.833 11.44 157.3 11.5787 156.735 11.856C156.18 12.1333 155.567 12.5547 154.895 13.12L154.223 13.712Z" fill="white"/>
<path d="M147.815 15.456C147.815 15.904 147.682 16.2507 147.415 16.496C147.148 16.7307 146.764 16.848 146.263 16.848H136.071V15.904H143.687C144.178 15.904 144.423 15.6853 144.423 15.248C144.423 13.7867 144.119 12.6507 143.511 11.84C142.903 11.0293 142.087 10.624 141.063 10.624C140.263 10.624 139.559 10.8587 138.951 11.328C138.343 11.7867 137.868 12.4427 137.527 13.296C137.186 14.1493 137.015 15.152 137.015 16.304C137.015 18.4373 137.516 20.0587 138.519 21.168C139.532 22.2667 140.855 22.816 142.487 22.816C143.543 22.816 144.455 22.5707 145.223 22.08C146.002 21.5893 146.546 20.9333 146.855 20.112C146.972 19.952 147.074 19.84 147.159 19.776C147.244 19.712 147.335 19.68 147.431 19.68C147.559 19.68 147.655 19.7387 147.719 19.856C147.783 19.9733 147.81 20.112 147.799 20.272C147.735 21.1573 147.42 21.968 146.855 22.704C146.29 23.4293 145.538 24.0107 144.599 24.448C143.66 24.8747 142.594 25.088 141.399 25.088C139.927 25.088 138.626 24.7787 137.495 24.16C136.375 23.5307 135.5 22.6507 134.871 21.52C134.252 20.3893 133.943 19.0667 133.943 17.552C133.943 15.9947 134.247 14.6133 134.855 13.408C135.474 12.192 136.348 11.232 137.479 10.528C138.61 9.82398 139.948 9.47198 141.495 9.47198C142.786 9.47198 143.9 9.72799 144.839 10.24C145.788 10.752 146.519 11.456 147.031 12.352C147.554 13.248 147.815 14.2827 147.815 15.456Z" fill="white"/>
<path d="M110.918 10.352V22.656C110.918 22.9227 110.972 23.1253 111.078 23.264C111.185 23.4027 111.334 23.4987 111.526 23.552L112.278 23.728C112.588 23.824 112.742 23.984 112.742 24.208C112.742 24.5493 112.513 24.72 112.054 24.72H106.342C106.118 24.72 105.953 24.6773 105.846 24.592C105.74 24.5067 105.686 24.3893 105.686 24.24C105.686 24.112 105.729 24.0107 105.814 23.936C105.9 23.8507 106.028 23.7813 106.198 23.728L106.982 23.552C107.185 23.4987 107.34 23.408 107.446 23.28C107.553 23.1413 107.606 22.9387 107.606 22.672V12.528C107.606 12.3147 107.569 12.16 107.494 12.064C107.42 11.9573 107.292 11.8933 107.11 11.872L106.006 11.84C105.846 11.808 105.729 11.76 105.654 11.696C105.58 11.6213 105.542 11.5253 105.542 11.408C105.542 11.28 105.585 11.1787 105.67 11.104C105.756 11.0187 105.905 10.9387 106.118 10.864L108.902 9.90398C109.212 9.79732 109.462 9.72265 109.654 9.67999C109.846 9.62665 110.017 9.59999 110.166 9.59999C110.422 9.59999 110.609 9.66932 110.726 9.80799C110.854 9.93599 110.918 10.1173 110.918 10.352ZM110.486 13.712L109.91 13.136L110.598 12.528C111.857 11.3973 112.95 10.608 113.878 10.16C114.806 9.70132 115.702 9.47198 116.566 9.47198C117.889 9.47198 118.95 9.88799 119.75 10.72C120.55 11.552 120.95 12.6933 120.95 14.144V22.592C120.95 22.8907 121.009 23.1147 121.126 23.264C121.244 23.4027 121.409 23.504 121.622 23.568L122.294 23.728C122.593 23.8347 122.742 23.9947 122.742 24.208C122.742 24.5493 122.524 24.72 122.086 24.72H116.438C115.99 24.72 115.766 24.5493 115.766 24.208C115.766 23.984 115.921 23.824 116.23 23.728L116.998 23.568C117.222 23.504 117.382 23.3973 117.478 23.248C117.585 23.088 117.638 22.864 117.638 22.576V14.624C117.638 13.5573 117.377 12.7627 116.854 12.24C116.342 11.7067 115.654 11.44 114.79 11.44C114.257 11.44 113.686 11.5733 113.078 11.84C112.481 12.1067 111.841 12.5333 111.158 13.12L110.486 13.712ZM120.502 13.712L119.926 13.136L120.598 12.528C121.814 11.4293 122.86 10.6453 123.734 10.176C124.62 9.70665 125.473 9.47198 126.294 9.47198C127.553 9.47198 128.529 9.89332 129.222 10.736C129.926 11.568 130.358 12.704 130.518 14.144L131.526 22.592C131.558 22.8907 131.622 23.1147 131.718 23.264C131.825 23.4133 131.985 23.5147 132.198 23.568L132.886 23.728C133.046 23.7813 133.169 23.8507 133.254 23.936C133.34 24.0107 133.382 24.112 133.382 24.24C133.382 24.3893 133.329 24.5067 133.222 24.592C133.116 24.6773 132.95 24.72 132.726 24.72H126.966C126.518 24.72 126.294 24.5493 126.294 24.208C126.294 23.984 126.444 23.824 126.742 23.728L127.526 23.568C127.75 23.504 127.921 23.3973 128.038 23.248C128.156 23.088 128.198 22.864 128.166 22.576L127.206 14.624C127.078 13.568 126.801 12.7733 126.374 12.24C125.958 11.7067 125.345 11.44 124.534 11.44C124.044 11.44 123.521 11.584 122.966 11.872C122.422 12.1493 121.825 12.5653 121.174 13.12L120.502 13.712Z" fill="white"/>
<path d="M96.1516 11.04L95.2396 10.816C94.9943 10.7413 94.8236 10.6613 94.7276 10.576C94.6423 10.4906 94.5996 10.3893 94.5996 10.272C94.5996 10.1226 94.6529 10.0106 94.7596 9.93596C94.8663 9.85063 95.0103 9.80796 95.1916 9.80796H96.2636C96.5196 9.80796 96.7276 9.7653 96.8876 9.67996C97.0476 9.59463 97.1916 9.43996 97.3196 9.21596L98.7116 6.81596C98.8503 6.59196 98.9943 6.43196 99.1436 6.33596C99.2929 6.2293 99.4476 6.17596 99.6076 6.17596C99.7783 6.17596 99.9063 6.2293 99.9916 6.33596C100.088 6.44263 100.136 6.59196 100.136 6.78396V20.832C100.136 21.5786 100.29 22.1493 100.6 22.544C100.909 22.928 101.33 23.12 101.864 23.12C102.237 23.12 102.53 23.0613 102.744 22.944C102.957 22.816 103.128 22.6666 103.256 22.496C103.394 22.3253 103.517 22.1706 103.624 22.032C103.741 21.8933 103.874 21.808 104.024 21.776C104.152 21.7653 104.248 21.8026 104.312 21.888C104.386 21.9626 104.424 22.0906 104.424 22.272C104.402 22.7413 104.226 23.184 103.896 23.6C103.576 24.016 103.133 24.352 102.568 24.608C102.002 24.864 101.357 24.992 100.632 24.992C99.4689 24.992 98.5409 24.6933 97.8476 24.096C97.1649 23.488 96.8236 22.576 96.8236 21.36V11.904C96.8236 11.6586 96.7756 11.472 96.6796 11.344C96.5836 11.216 96.4076 11.1146 96.1516 11.04ZM98.6956 10.96V9.80796H103.672C103.874 9.80796 104.029 9.8453 104.136 9.91996C104.242 9.99463 104.296 10.1066 104.296 10.256C104.296 10.4586 104.189 10.6293 103.976 10.768C103.773 10.896 103.448 10.96 103 10.96H98.6956Z" fill="white"/>
<path d="M82.0884 10.352V22.656C82.0884 22.9227 82.1364 23.1253 82.2324 23.264C82.3391 23.4027 82.4937 23.4987 82.6964 23.552L83.4484 23.728C83.7577 23.824 83.9124 23.984 83.9124 24.208C83.9124 24.5493 83.6884 24.72 83.2404 24.72H77.5124C77.2884 24.72 77.1231 24.6773 77.0164 24.592C76.9097 24.5067 76.8564 24.3893 76.8564 24.24C76.8564 24.112 76.8991 24.0107 76.9844 23.936C77.0697 23.8507 77.1977 23.7813 77.3684 23.728L78.1524 23.552C78.3551 23.4987 78.5097 23.408 78.6164 23.28C78.7231 23.1413 78.7764 22.9387 78.7764 22.672V12.528C78.7764 12.304 78.7391 12.144 78.6644 12.048C78.5897 11.952 78.4617 11.8933 78.2804 11.872L77.1924 11.84C77.0217 11.808 76.8991 11.76 76.8244 11.696C76.7497 11.6213 76.7124 11.5253 76.7124 11.408C76.7124 11.28 76.7551 11.1787 76.8404 11.104C76.9257 11.0187 77.0751 10.9387 77.2884 10.864L80.0724 9.90398C80.3817 9.79732 80.6324 9.72265 80.8244 9.67999C81.0164 9.62665 81.1871 9.59999 81.3364 9.59999C81.5924 9.59999 81.7791 9.66932 81.8964 9.80799C82.0244 9.93599 82.0884 10.1173 82.0884 10.352ZM81.6564 13.712L81.0804 13.12L81.7684 12.528C83.0057 11.4293 84.0671 10.6453 84.9524 10.176C85.8484 9.70665 86.7071 9.47198 87.5284 9.47198C88.7871 9.47198 89.7577 9.88799 90.4404 10.72C91.1337 11.552 91.5604 12.6827 91.7204 14.112L92.7284 22.592C92.7604 22.88 92.8244 23.104 92.9204 23.264C93.0271 23.4133 93.1924 23.5147 93.4164 23.568L94.1044 23.728C94.2751 23.7813 94.3977 23.8507 94.4724 23.936C94.5577 24.0107 94.6004 24.112 94.6004 24.24C94.6004 24.3893 94.5471 24.5067 94.4404 24.592C94.3444 24.6773 94.1844 24.72 93.9604 24.72H88.1844C87.7257 24.72 87.4964 24.5493 87.4964 24.208C87.4964 23.984 87.6511 23.824 87.9604 23.728L88.7444 23.552C88.9684 23.4987 89.1391 23.3973 89.2564 23.248C89.3737 23.0987 89.4164 22.88 89.3844 22.592L88.4084 14.608C88.2804 13.552 88.0084 12.7627 87.5924 12.24C87.1764 11.7067 86.5684 11.44 85.7684 11.44C85.2671 11.44 84.7337 11.5787 84.1684 11.856C83.6137 12.1333 83.0004 12.5547 82.3284 13.12L81.6564 13.712Z" fill="white"/>
<path d="M75.2487 15.456C75.2487 15.904 75.1154 16.2507 74.8487 16.496C74.582 16.7307 74.198 16.848 73.6967 16.848H63.5047V15.904H71.1207C71.6114 15.904 71.8567 15.6853 71.8567 15.248C71.8567 13.7867 71.5527 12.6507 70.9447 11.84C70.3367 11.0293 69.5207 10.624 68.4967 10.624C67.6967 10.624 66.9927 10.8587 66.3847 11.328C65.7767 11.7867 65.302 12.4427 64.9607 13.296C64.6194 14.1493 64.4487 15.152 64.4487 16.304C64.4487 18.4373 64.95 20.0587 65.9527 21.168C66.966 22.2667 68.2887 22.816 69.9207 22.816C70.9767 22.816 71.8887 22.5707 72.6567 22.08C73.4354 21.5893 73.9794 20.9333 74.2887 20.112C74.406 19.952 74.5074 19.84 74.5927 19.776C74.678 19.712 74.7687 19.68 74.8647 19.68C74.9927 19.68 75.0887 19.7387 75.1527 19.856C75.2167 19.9733 75.2434 20.112 75.2327 20.272C75.1687 21.1573 74.854 21.968 74.2887 22.704C73.7234 23.4293 72.9714 24.0107 72.0327 24.448C71.094 24.8747 70.0274 25.088 68.8327 25.088C67.3607 25.088 66.0594 24.7787 64.9287 24.16C63.8087 23.5307 62.934 22.6507 62.3047 21.52C61.686 20.3893 61.3767 19.0667 61.3767 17.552C61.3767 15.9947 61.6807 14.6133 62.2887 13.408C62.9074 12.192 63.782 11.232 64.9127 10.528C66.0434 9.82398 67.382 9.47198 68.9287 9.47198C70.2194 9.47198 71.334 9.72799 72.2727 10.24C73.222 10.752 73.9527 11.456 74.4647 12.352C74.9874 13.248 75.2487 14.2827 75.2487 15.456Z" fill="white"/>
<path d="M51.969 11.04L51.057 10.816C50.8117 10.7413 50.641 10.6613 50.545 10.576C50.4597 10.4906 50.417 10.3893 50.417 10.272C50.417 10.1226 50.4703 10.0106 50.577 9.93596C50.6837 9.85063 50.8277 9.80796 51.009 9.80796H52.081C52.337 9.80796 52.545 9.7653 52.705 9.67996C52.865 9.59463 53.009 9.43996 53.137 9.21596L54.529 6.81596C54.6677 6.59196 54.8117 6.43196 54.961 6.33596C55.1103 6.2293 55.265 6.17596 55.425 6.17596C55.5957 6.17596 55.7237 6.2293 55.809 6.33596C55.905 6.44263 55.953 6.59196 55.953 6.78396V20.832C55.953 21.5786 56.1077 22.1493 56.417 22.544C56.7263 22.928 57.1477 23.12 57.681 23.12C58.0543 23.12 58.3477 23.0613 58.561 22.944C58.7743 22.816 58.945 22.6666 59.073 22.496C59.2117 22.3253 59.3343 22.1706 59.441 22.032C59.5583 21.8933 59.6917 21.808 59.841 21.776C59.969 21.7653 60.065 21.8026 60.129 21.888C60.2037 21.9626 60.241 22.0906 60.241 22.272C60.2197 22.7413 60.0437 23.184 59.713 23.6C59.393 24.016 58.9503 24.352 58.385 24.608C57.8197 24.864 57.1743 24.992 56.449 24.992C55.2863 24.992 54.3583 24.6933 53.665 24.096C52.9823 23.488 52.641 22.576 52.641 21.36V11.904C52.641 11.6586 52.593 11.472 52.497 11.344C52.401 11.216 52.225 11.1146 51.969 11.04ZM54.513 10.96V9.80796H59.489C59.6917 9.80796 59.8463 9.8453 59.953 9.91996C60.0597 9.99463 60.113 10.1066 60.113 10.256C60.113 10.4586 60.0063 10.6293 59.793 10.768C59.5903 10.896 59.265 10.96 58.817 10.96H54.513Z" fill="white"/>
<path d="M37.906 10.352V22.656C37.906 22.9227 37.954 23.1253 38.05 23.264C38.1567 23.4027 38.3114 23.4987 38.514 23.552L39.266 23.728C39.5754 23.824 39.73 23.984 39.73 24.208C39.73 24.5493 39.506 24.72 39.058 24.72H33.33C33.106 24.72 32.9407 24.6773 32.834 24.592C32.7274 24.5067 32.674 24.3893 32.674 24.24C32.674 24.112 32.7167 24.0107 32.802 23.936C32.8874 23.8507 33.0154 23.7813 33.186 23.728L33.97 23.552C34.1727 23.4987 34.3274 23.408 34.434 23.28C34.5407 23.1413 34.594 22.9387 34.594 22.672V12.528C34.594 12.304 34.5567 12.144 34.482 12.048C34.4074 11.952 34.2794 11.8933 34.098 11.872L33.01 11.84C32.8394 11.808 32.7167 11.76 32.642 11.696C32.5674 11.6213 32.53 11.5253 32.53 11.408C32.53 11.28 32.5727 11.1787 32.658 11.104C32.7434 11.0187 32.8927 10.9387 33.106 10.864L35.89 9.90398C36.1994 9.79732 36.45 9.72265 36.642 9.67999C36.834 9.62665 37.0047 9.59999 37.154 9.59999C37.41 9.59999 37.5967 9.66932 37.714 9.80799C37.842 9.93599 37.906 10.1173 37.906 10.352ZM37.474 13.712L36.898 13.12L37.586 12.528C38.8234 11.4293 39.8847 10.6453 40.77 10.176C41.666 9.70665 42.5247 9.47198 43.346 9.47198C44.6047 9.47198 45.5754 9.88799 46.258 10.72C46.9514 11.552 47.378 12.6827 47.538 14.112L48.546 22.592C48.578 22.88 48.642 23.104 48.738 23.264C48.8447 23.4133 49.01 23.5147 49.234 23.568L49.922 23.728C50.0927 23.7813 50.2154 23.8507 50.29 23.936C50.3754 24.0107 50.418 24.112 50.418 24.24C50.418 24.3893 50.3647 24.5067 50.258 24.592C50.162 24.6773 50.002 24.72 49.778 24.72H44.002C43.5434 24.72 43.314 24.5493 43.314 24.208C43.314 23.984 43.4687 23.824 43.778 23.728L44.562 23.552C44.786 23.4987 44.9567 23.3973 45.074 23.248C45.1914 23.0987 45.234 22.88 45.202 22.592L44.226 14.608C44.098 13.552 43.826 12.7627 43.41 12.24C42.994 11.7067 42.386 11.44 41.586 11.44C41.0847 11.44 40.5514 11.5787 39.986 11.856C39.4314 12.1333 38.818 12.5547 38.146 13.12L37.474 13.712Z" fill="white"/>
<path d="M23.1783 9.48798C24.7143 9.48798 26.0743 9.81864 27.2583 10.48C28.4423 11.1413 29.365 12.064 30.0263 13.248C30.6983 14.4213 31.0343 15.776 31.0343 17.312C31.0343 18.8053 30.693 20.1386 30.0103 21.312C29.3383 22.4853 28.405 23.408 27.2103 24.08C26.0157 24.752 24.629 25.088 23.0503 25.088C21.5143 25.088 20.1543 24.7573 18.9703 24.096C17.797 23.424 16.8743 22.5013 16.2023 21.328C15.5303 20.1546 15.1943 18.8053 15.1943 17.28C15.1943 15.7653 15.5303 14.4266 16.2023 13.264C16.885 12.0906 17.8237 11.168 19.0183 10.496C20.213 9.82398 21.5997 9.48798 23.1783 9.48798ZM24.2503 23.824C25.1357 23.7066 25.8557 23.3493 26.4103 22.752C26.965 22.144 27.3383 21.328 27.5303 20.304C27.7223 19.28 27.7063 18.0746 27.4823 16.688C27.2583 15.28 26.885 14.112 26.3623 13.184C25.8397 12.256 25.205 11.584 24.4583 11.168C23.7117 10.752 22.885 10.608 21.9783 10.736C21.093 10.864 20.373 11.2266 19.8183 11.824C19.2637 12.4213 18.8903 13.232 18.6983 14.256C18.517 15.28 18.5383 16.4906 18.7623 17.888C18.9863 19.2853 19.3597 20.448 19.8823 21.376C20.405 22.304 21.0397 22.976 21.7863 23.392C22.533 23.808 23.3543 23.952 24.2503 23.824Z" fill="white"/>
<path d="M13.8479 13.568C13.8479 14.0693 13.6826 14.4853 13.3519 14.816C13.0319 15.1467 12.6053 15.312 12.0719 15.312C11.5492 15.312 11.1386 15.1627 10.8399 14.864C10.5519 14.5547 10.4079 14.1493 10.4079 13.648V13.104C10.4079 12.368 10.1519 11.7707 9.63992 11.312C9.12792 10.8533 8.42392 10.624 7.52792 10.624C6.71725 10.624 5.99192 10.8587 5.35192 11.328C4.72258 11.7973 4.22658 12.4587 3.86392 13.312C3.51192 14.1547 3.33592 15.152 3.33592 16.304C3.33592 17.6907 3.57058 18.8693 4.03992 19.84C4.50925 20.8 5.15458 21.5307 5.97592 22.032C6.79725 22.5333 7.73058 22.784 8.77592 22.784C9.78925 22.784 10.6639 22.5493 11.3999 22.08C12.1466 21.6107 12.6799 20.976 12.9999 20.176C13.1173 20.016 13.2186 19.9093 13.3039 19.856C13.3893 19.792 13.4853 19.76 13.5919 19.76C13.7199 19.76 13.8106 19.8187 13.8639 19.936C13.9279 20.0427 13.9546 20.1707 13.9439 20.32C13.8586 21.2053 13.5386 22.0107 12.9839 22.736C12.4292 23.4613 11.6986 24.0373 10.7919 24.464C9.88525 24.88 8.85058 25.088 7.68792 25.088C6.22658 25.088 4.93592 24.7787 3.81592 24.16C2.70658 23.5413 1.83725 22.6667 1.20792 21.536C0.578583 20.4053 0.263916 19.072 0.263916 17.536C0.263916 16.0213 0.583916 14.656 1.22392 13.44C1.86392 12.224 2.75992 11.2587 3.91192 10.544C5.07458 9.82932 6.43458 9.47198 7.99192 9.47198C9.19725 9.47198 10.2372 9.66398 11.1119 10.048C11.9972 10.4213 12.6746 10.9173 13.1439 11.536C13.6133 12.1547 13.8479 12.832 13.8479 13.568Z" fill="white"/>
</svg>
