<svg width="1021" height="113" viewBox="0 0 1021 113" fill="none" xmlns="http://www.w3.org/2000/svg">
<path d="M62.07 72.2C60.79 76.04 58.87 79.304 56.31 81.992C53.75 84.616 50.742 86.6 47.286 87.944C43.83 89.288 40.022 89.96 35.862 89.96C29.782 89.96 24.502 88.648 20.022 86.024C15.542 83.4 12.086 79.656 9.65403 74.792C7.22202 69.928 6.00602 64.104 6.00602 57.32C6.00602 50.536 7.22202 44.712 9.65403 39.848C12.086 34.984 15.542 31.24 20.022 28.616C24.502 25.992 29.75 24.68 35.766 24.68C39.926 24.68 43.67 25.256 46.998 26.408C50.39 27.56 53.27 29.288 55.638 31.592C58.006 33.896 59.83 36.776 61.11 40.232L51.414 44.552C50.134 40.776 48.278 38.024 45.846 36.296C43.414 34.504 40.246 33.608 36.342 33.608C32.438 33.608 29.014 34.536 26.07 36.392C23.126 38.248 20.822 40.936 19.158 44.456C17.558 47.976 16.758 52.264 16.758 57.32C16.758 62.312 17.526 66.6 19.062 70.184C20.598 73.704 22.806 76.392 25.686 78.248C28.566 80.104 32.022 81.032 36.054 81.032C39.958 81.032 43.318 80.04 46.134 78.056C49.014 76.008 51.062 72.968 52.278 68.936L62.07 72.2ZM90.735 40.04C95.407 40.04 99.535 41.032 103.119 43.016C106.703 45 109.487 47.88 111.471 51.656C113.519 55.368 114.543 59.816 114.543 65C114.543 70.184 113.519 74.664 111.471 78.44C109.487 82.152 106.703 85 103.119 86.984C99.535 88.968 95.407 89.96 90.735 89.96C86.063 89.96 81.935 88.968 78.351 86.984C74.767 85 71.951 82.152 69.903 78.44C67.855 74.664 66.831 70.184 66.831 65C66.831 59.816 67.855 55.368 69.903 51.656C71.951 47.88 74.767 45 78.351 43.016C81.935 41.032 86.063 40.04 90.735 40.04ZM90.735 48.104C87.855 48.104 85.391 48.776 83.343 50.12C81.359 51.4 79.823 53.288 78.735 55.784C77.647 58.28 77.103 61.352 77.103 65C77.103 68.584 77.647 71.656 78.735 74.216C79.823 76.712 81.359 78.632 83.343 79.976C85.391 81.256 87.855 81.896 90.735 81.896C93.615 81.896 96.047 81.256 98.031 79.976C100.015 78.632 101.551 76.712 102.639 74.216C103.727 71.656 104.271 68.584 104.271 65C104.271 61.352 103.727 58.28 102.639 55.784C101.551 53.288 100.015 51.4 98.031 50.12C96.047 48.776 93.615 48.104 90.735 48.104ZM124.202 89V41H128.522L128.906 53L128.138 52.328C129.034 49.704 130.378 47.496 132.17 45.704C133.962 43.848 136.106 42.44 138.602 41.48C141.098 40.52 143.786 40.04 146.666 40.04C150.25 40.04 153.418 40.712 156.17 42.056C158.922 43.4 161.066 45.384 162.602 48.008C164.202 50.632 165.002 53.928 165.002 57.896V89H160.202V59.432C160.202 54.184 158.89 50.344 156.266 47.912C153.706 45.48 150.346 44.264 146.186 44.264C143.178 44.264 140.362 44.968 137.738 46.376C135.178 47.72 133.066 49.704 131.402 52.328C129.802 54.952 129.002 58.152 129.002 61.928V89H124.202ZM184.486 27.656V76.328C184.486 79.336 185.19 81.64 186.598 83.24C188.07 84.776 190.182 85.544 192.934 85.544C194.726 85.544 196.294 85.256 197.638 84.68C199.046 84.04 200.294 83.144 201.382 81.992L203.206 85.928C201.99 87.144 200.454 88.136 198.598 88.904C196.742 89.608 194.662 89.96 192.358 89.96C189.862 89.96 187.654 89.512 185.734 88.616C183.814 87.656 182.31 86.216 181.222 84.296C180.198 82.376 179.686 79.944 179.686 77V29L184.486 27.656ZM202.438 41V45.128H170.086V41H202.438ZM228.449 89.96C224.033 89.96 220.097 88.968 216.641 86.984C213.185 85 210.465 82.152 208.481 78.44C206.561 74.664 205.601 70.184 205.601 65C205.601 59.816 206.561 55.368 208.481 51.656C210.465 47.88 213.121 45 216.449 43.016C219.777 41.032 223.585 40.04 227.873 40.04C232.225 40.04 235.937 41 239.009 42.92C242.081 44.84 244.449 47.528 246.113 50.984C247.777 54.376 248.609 58.312 248.609 62.792C248.609 63.368 248.577 63.944 248.513 64.52C248.513 65.032 248.481 65.512 248.417 65.96H208.577V61.64H246.305L243.905 62.312C243.841 56.808 242.369 52.424 239.489 49.16C236.673 45.896 232.769 44.264 227.777 44.264C224.321 44.264 221.281 45.096 218.657 46.76C216.033 48.36 213.985 50.728 212.513 53.864C211.041 56.936 210.305 60.648 210.305 65C210.305 69.288 211.041 73 212.513 76.136C214.049 79.272 216.161 81.672 218.849 83.336C221.601 84.936 224.769 85.736 228.353 85.736C232.065 85.736 235.233 84.936 237.857 83.336C240.545 81.736 242.625 79.528 244.097 76.712L247.937 78.92C246.785 81.224 245.249 83.208 243.329 84.872C241.409 86.472 239.201 87.72 236.705 88.616C234.209 89.512 231.457 89.96 228.449 89.96ZM258.463 89V41H262.783L263.167 53L262.399 52.328C263.295 49.704 264.639 47.496 266.431 45.704C268.223 43.848 270.367 42.44 272.863 41.48C275.359 40.52 278.047 40.04 280.927 40.04C284.511 40.04 287.679 40.712 290.431 42.056C293.183 43.4 295.327 45.384 296.863 48.008C298.463 50.632 299.263 53.928 299.263 57.896V89H294.463V59.432C294.463 54.184 293.151 50.344 290.527 47.912C287.967 45.48 284.607 44.264 280.447 44.264C277.439 44.264 274.623 44.968 271.999 46.376C269.439 47.72 267.327 49.704 265.663 52.328C264.063 54.952 263.263 58.152 263.263 61.928V89H258.463ZM318.747 27.656V76.328C318.747 79.336 319.451 81.64 320.859 83.24C322.331 84.776 324.443 85.544 327.195 85.544C328.987 85.544 330.555 85.256 331.899 84.68C333.307 84.04 334.555 83.144 335.643 81.992L337.467 85.928C336.251 87.144 334.715 88.136 332.859 88.904C331.003 89.608 328.923 89.96 326.619 89.96C324.123 89.96 321.915 89.512 319.995 88.616C318.075 87.656 316.571 86.216 315.483 84.296C314.459 82.376 313.947 79.944 313.947 77V29L318.747 27.656ZM336.699 41V45.128H304.347V41H336.699ZM343.127 89V41H347.447L347.735 50.984C349.143 47.528 351.415 44.84 354.551 42.92C357.751 41 361.303 40.04 365.207 40.04C369.367 40.04 372.951 41.032 375.959 43.016C379.031 45 381.143 47.912 382.295 51.752C383.127 49.32 384.471 47.24 386.327 45.512C388.183 43.72 390.359 42.344 392.855 41.384C395.351 40.424 397.943 39.944 400.631 39.944C403.959 39.944 406.967 40.616 409.655 41.96C412.407 43.24 414.583 45.224 416.183 47.912C417.847 50.536 418.679 53.832 418.679 57.8V88.904H413.879V58.28C413.879 53.544 412.599 50.024 410.039 47.72C407.543 45.352 404.215 44.168 400.055 44.168C397.047 44.168 394.263 44.904 391.703 46.376C389.143 47.784 387.095 49.8 385.559 52.424C384.087 54.984 383.351 57.96 383.351 61.352V89H378.551V58.376C378.551 53.64 377.271 50.12 374.711 47.816C372.151 45.448 368.823 44.264 364.727 44.264C361.847 44.264 359.127 44.968 356.567 46.376C354.007 47.784 351.927 49.8 350.327 52.424C348.727 55.048 347.927 58.184 347.927 61.832V89H343.127ZM451.027 89.96C446.611 89.96 442.675 88.968 439.219 86.984C435.763 85 433.043 82.152 431.059 78.44C429.139 74.664 428.179 70.184 428.179 65C428.179 59.816 429.139 55.368 431.059 51.656C433.043 47.88 435.699 45 439.027 43.016C442.355 41.032 446.163 40.04 450.451 40.04C454.803 40.04 458.515 41 461.587 42.92C464.659 44.84 467.027 47.528 468.691 50.984C470.355 54.376 471.187 58.312 471.187 62.792C471.187 63.368 471.155 63.944 471.091 64.52C471.091 65.032 471.059 65.512 470.995 65.96H431.155V61.64H468.883L466.483 62.312C466.419 56.808 464.947 52.424 462.067 49.16C459.251 45.896 455.347 44.264 450.355 44.264C446.899 44.264 443.859 45.096 441.235 46.76C438.611 48.36 436.563 50.728 435.091 53.864C433.619 56.936 432.883 60.648 432.883 65C432.883 69.288 433.619 73 435.091 76.136C436.627 79.272 438.739 81.672 441.427 83.336C444.179 84.936 447.347 85.736 450.931 85.736C454.643 85.736 457.811 84.936 460.435 83.336C463.123 81.736 465.203 79.528 466.675 76.712L470.515 78.92C469.363 81.224 467.827 83.208 465.907 84.872C463.987 86.472 461.779 87.72 459.283 88.616C456.787 89.512 454.035 89.96 451.027 89.96ZM481.04 89V41H485.36L485.744 53L484.976 52.328C485.872 49.704 487.216 47.496 489.008 45.704C490.8 43.848 492.944 42.44 495.44 41.48C497.936 40.52 500.624 40.04 503.504 40.04C507.088 40.04 510.256 40.712 513.008 42.056C515.76 43.4 517.904 45.384 519.44 48.008C521.04 50.632 521.84 53.928 521.84 57.896V89H517.04V59.432C517.04 54.184 515.728 50.344 513.104 47.912C510.544 45.48 507.184 44.264 503.024 44.264C500.016 44.264 497.2 44.968 494.576 46.376C492.016 47.72 489.904 49.704 488.24 52.328C486.64 54.952 485.84 58.152 485.84 61.928V89H481.04ZM541.325 27.656V76.328C541.325 79.336 542.029 81.64 543.437 83.24C544.909 84.776 547.021 85.544 549.773 85.544C551.565 85.544 553.133 85.256 554.477 84.68C555.885 84.04 557.133 83.144 558.221 81.992L560.045 85.928C558.829 87.144 557.293 88.136 555.437 88.904C553.581 89.608 551.501 89.96 549.197 89.96C546.701 89.96 544.493 89.512 542.573 88.616C540.653 87.656 539.149 86.216 538.061 84.296C537.037 82.376 536.525 79.944 536.525 77V29L541.325 27.656ZM559.277 41V45.128H526.925V41H559.277Z" fill="white"/>
<path d="M610.216 88.056C607.976 88.056 605.928 87.7253 604.072 87.064C602.237 86.4027 600.509 85.3573 598.888 83.928C597.267 82.4987 595.688 80.6427 594.152 78.36C592.637 76.12 591.389 73.944 590.408 71.832C589.427 69.72 588.691 67.64 588.2 65.592C587.731 63.5227 587.496 61.464 587.496 59.416C587.496 57.048 587.955 54.9253 588.872 53.048C589.811 51.1707 591.133 49.6987 592.84 48.632C594.568 47.544 596.605 47 598.952 47C600.701 47 602.227 47.352 603.528 48.056C604.851 48.76 605.875 49.7307 606.6 50.968C607.347 52.2053 607.72 53.624 607.72 55.224C607.72 57.336 607.165 59.1813 606.056 60.76C604.947 62.3173 603.357 63.5653 601.288 64.504C599.219 65.4427 596.733 66.04 593.832 66.296L593.608 65.304C595.357 65.0693 596.872 64.536 598.152 63.704C599.453 62.8507 600.456 61.688 601.16 60.216C601.885 58.744 602.248 56.9413 602.248 54.808C602.248 52.9093 601.917 51.3733 601.256 50.2C600.616 49.0267 599.72 48.44 598.568 48.44C597.053 48.44 595.784 49.208 594.76 50.744C593.757 52.2587 593.256 54.296 593.256 56.856C593.256 58.8827 593.512 60.9093 594.024 62.936C594.536 64.9413 595.283 66.9573 596.264 68.984C597.267 70.9893 598.472 73.0053 599.88 75.032C601.587 77.5067 603.144 79.4907 604.552 80.984C605.96 82.4773 607.325 83.5653 608.648 84.248C609.992 84.9093 611.421 85.24 612.936 85.24C614.963 85.24 616.776 84.7387 618.376 83.736C619.976 82.712 621.224 81.176 622.12 79.128C623.037 77.0587 623.496 74.4453 623.496 71.288C623.496 67.3413 622.824 63.4693 621.48 59.672C620.136 55.8747 618.013 52.4187 615.112 49.304C612.36 46.3173 609.213 43.992 605.672 42.328C602.131 40.664 598.259 39.832 594.056 39.832C590.728 39.832 587.955 40.312 585.736 41.272C583.517 42.2107 581.853 43.4907 580.744 45.112C579.656 46.712 579.112 48.5147 579.112 50.52C579.112 51.3947 579.229 52.1307 579.464 52.728C579.72 53.304 579.997 53.8373 580.296 54.328C580.616 54.7973 580.893 55.2987 581.128 55.832C581.363 56.3653 581.48 57.016 581.48 57.784C581.48 58.6587 581.171 59.3947 580.552 59.992C579.955 60.568 579.187 60.856 578.248 60.856C576.947 60.856 575.912 60.28 575.144 59.128C574.397 57.9547 574.024 56.376 574.024 54.392C574.024 51.1493 574.824 48.3227 576.424 45.912C578.045 43.5013 580.36 41.6347 583.368 40.312C586.397 38.9893 590.003 38.328 594.184 38.328C598.557 38.328 602.621 39.1813 606.376 40.888C610.131 42.5947 613.48 45.0267 616.424 48.184C619.368 51.2987 621.576 54.8293 623.048 58.776C624.52 62.7013 625.256 66.8293 625.256 71.16C625.256 74.7867 624.648 77.8587 623.432 80.376C622.216 82.8933 620.488 84.8027 618.248 86.104C616.008 87.4053 613.331 88.056 610.216 88.056ZM603.496 80.952C604.968 79.8213 606.131 78.7227 606.984 77.656C607.859 76.5893 608.488 75.576 608.872 74.616C609.277 73.6347 609.48 72.728 609.48 71.896C609.48 71.128 609.363 70.488 609.128 69.976C608.915 69.4427 608.701 68.9413 608.488 68.472C608.275 68.0027 608.168 67.4693 608.168 66.872C608.168 65.976 608.467 65.208 609.064 64.568C609.683 63.928 610.461 63.608 611.4 63.608C612.381 63.608 613.181 64.0027 613.8 64.792C614.44 65.56 614.76 66.6587 614.76 68.088C614.76 70.6267 613.885 73.0587 612.136 75.384C610.408 77.688 607.763 79.8213 604.2 81.784L603.496 80.952ZM589.288 66.776C587.411 67.0747 585.843 67.6933 584.584 68.632C583.325 69.5707 582.387 70.712 581.768 72.056C581.149 73.4 580.84 74.8293 580.84 76.344C580.84 79.0747 581.597 81.24 583.112 82.84C584.648 84.4187 586.696 85.208 589.256 85.208C591.091 85.208 592.691 84.92 594.056 84.344C595.443 83.7467 596.744 82.968 597.96 82.008L598.792 83.128C597.704 84.088 596.52 84.9307 595.24 85.656C593.981 86.36 592.563 86.904 590.984 87.288C589.405 87.6933 587.613 87.896 585.608 87.896C581.917 87.896 579.037 87.0213 576.968 85.272C574.92 83.5013 573.896 81.08 573.896 78.008C573.896 75.7893 574.472 73.7947 575.624 72.024C576.776 70.2533 578.493 68.8133 580.776 67.704C583.059 66.5947 585.907 65.9013 589.32 65.624L589.288 66.776Z" fill="white"/>
<path d="M642.256 89V25.64H670C677.68 25.64 683.344 27.144 686.992 30.152C690.64 33.16 692.464 37.416 692.464 42.92C692.464 46.312 691.44 49.32 689.392 51.944C687.344 54.568 684.336 56.232 680.368 56.936V57.032C684.784 57.672 688.176 59.336 690.544 62.024C692.912 64.712 694.096 67.912 694.096 71.624C694.096 77.064 692.112 81.32 688.144 84.392C684.24 87.464 678.512 89 670.96 89H642.256ZM655.12 79.016H669.808C673.392 79.016 676.048 78.28 677.776 76.808C679.504 75.336 680.368 73.288 680.368 70.664C680.368 67.976 679.504 65.928 677.776 64.52C676.048 63.112 673.392 62.408 669.808 62.408H655.12V79.016ZM655.12 52.232H668.272C675.248 52.232 678.736 49.512 678.736 44.072C678.736 38.632 675.248 35.912 668.272 35.912H655.12V52.232ZM723.46 40.04C728.324 40.04 732.58 41.032 736.228 43.016C739.94 45 742.82 47.848 744.868 51.56C746.98 55.272 748.036 59.752 748.036 65C748.036 70.184 746.98 74.664 744.868 78.44C742.82 82.152 739.94 85 736.228 86.984C732.58 88.968 728.324 89.96 723.46 89.96C718.66 89.96 714.404 88.968 710.692 86.984C706.98 85 704.068 82.152 701.956 78.44C699.908 74.664 698.884 70.184 698.884 65C698.884 59.752 699.908 55.272 701.956 51.56C704.068 47.848 706.98 45 710.692 43.016C714.404 41.032 718.66 40.04 723.46 40.04ZM723.46 49.832C721.028 49.832 718.948 50.408 717.22 51.56C715.556 52.648 714.276 54.312 713.38 56.552C712.484 58.792 712.036 61.608 712.036 65C712.036 68.392 712.484 71.208 713.38 73.448C714.276 75.688 715.556 77.384 717.22 78.536C718.948 79.624 721.028 80.168 723.46 80.168C725.828 80.168 727.844 79.624 729.508 78.536C731.236 77.384 732.548 75.688 733.444 73.448C734.34 71.208 734.788 68.392 734.788 65C734.788 61.608 734.34 58.792 733.444 56.552C732.548 54.312 731.236 52.648 729.508 51.56C727.844 50.408 725.828 49.832 723.46 49.832ZM761.249 18.92V77.672C761.249 80.616 761.761 82.696 762.785 83.912C763.809 85.128 765.409 85.736 767.585 85.736C768.929 85.736 769.985 85.64 770.753 85.448C771.585 85.256 772.545 84.936 773.633 84.488L772.961 88.712C772.129 89.096 771.169 89.384 770.081 89.576C769.057 89.832 767.905 89.96 766.625 89.96C763.233 89.96 760.673 89 758.945 87.08C757.281 85.096 756.449 82.024 756.449 77.864V18.92H761.249ZM797.681 89.96C793.521 89.96 789.777 88.968 786.449 86.984C783.121 85 780.497 82.152 778.577 78.44C776.721 74.664 775.793 70.184 775.793 65C775.793 59.688 776.785 55.176 778.769 51.464C780.753 47.752 783.441 44.936 786.833 43.016C790.225 41.032 793.969 40.04 798.065 40.04C802.545 40.04 806.353 41.224 809.489 43.592C812.689 45.96 814.833 49.256 815.921 53.48L815.345 53.864V18.92H820.145V89H815.825L815.537 75.656L816.113 75.464C815.537 78.536 814.353 81.16 812.561 83.336C810.833 85.512 808.657 87.176 806.033 88.328C803.473 89.416 800.689 89.96 797.681 89.96ZM798.257 85.736C801.649 85.736 804.625 84.904 807.185 83.24C809.745 81.512 811.729 79.048 813.137 75.848C814.609 72.648 815.345 68.904 815.345 64.616C815.345 60.392 814.609 56.776 813.137 53.768C811.729 50.696 809.745 48.36 807.185 46.76C804.689 45.096 801.777 44.264 798.449 44.264C792.945 44.264 788.593 46.12 785.393 49.832C782.193 53.544 780.593 58.6 780.593 65C780.593 71.4 782.161 76.456 785.297 80.168C788.497 83.88 792.817 85.736 798.257 85.736ZM833.434 89V41H837.754L838.138 53L837.37 52.328C838.266 49.704 839.61 47.496 841.402 45.704C843.194 43.848 845.338 42.44 847.834 41.48C850.33 40.52 853.018 40.04 855.898 40.04C859.482 40.04 862.65 40.712 865.402 42.056C868.154 43.4 870.298 45.384 871.834 48.008C873.434 50.632 874.234 53.928 874.234 57.896V89H869.434V59.432C869.434 54.184 868.122 50.344 865.498 47.912C862.938 45.48 859.578 44.264 855.418 44.264C852.41 44.264 849.594 44.968 846.97 46.376C844.41 47.72 842.298 49.704 840.634 52.328C839.034 54.952 838.234 58.152 838.234 61.928V89H833.434ZM906.553 89.96C902.137 89.96 898.201 88.968 894.745 86.984C891.289 85 888.569 82.152 886.585 78.44C884.665 74.664 883.705 70.184 883.705 65C883.705 59.816 884.665 55.368 886.585 51.656C888.569 47.88 891.225 45 894.553 43.016C897.881 41.032 901.689 40.04 905.977 40.04C910.329 40.04 914.041 41 917.113 42.92C920.185 44.84 922.553 47.528 924.217 50.984C925.881 54.376 926.713 58.312 926.713 62.792C926.713 63.368 926.681 63.944 926.617 64.52C926.617 65.032 926.585 65.512 926.521 65.96H886.681V61.64H924.409L922.009 62.312C921.945 56.808 920.473 52.424 917.593 49.16C914.777 45.896 910.873 44.264 905.881 44.264C902.425 44.264 899.385 45.096 896.761 46.76C894.137 48.36 892.089 50.728 890.617 53.864C889.145 56.936 888.409 60.648 888.409 65C888.409 69.288 889.145 73 890.617 76.136C892.153 79.272 894.265 81.672 896.953 83.336C899.705 84.936 902.873 85.736 906.457 85.736C910.169 85.736 913.337 84.936 915.961 83.336C918.649 81.736 920.729 79.528 922.201 76.712L926.041 78.92C924.889 81.224 923.353 83.208 921.433 84.872C919.513 86.472 917.305 87.72 914.809 88.616C912.313 89.512 909.561 89.96 906.553 89.96ZM952.79 89.96C947.926 89.96 943.606 88.968 939.83 86.984C936.118 85 933.494 82.152 931.958 78.44L936.086 75.656C937.238 78.856 939.286 81.352 942.23 83.144C945.238 84.872 948.886 85.736 953.174 85.736C957.398 85.736 960.694 84.904 963.062 83.24C965.494 81.576 966.71 79.368 966.71 76.616C966.71 74.76 966.102 73.16 964.886 71.816C963.734 70.408 961.526 69.352 958.262 68.648L947.03 66.248C942.422 65.288 939.126 63.752 937.142 61.64C935.222 59.464 934.262 56.84 934.262 53.768C934.262 51.208 935.03 48.904 936.566 46.856C938.102 44.808 940.214 43.176 942.902 41.96C945.654 40.68 948.854 40.04 952.502 40.04C957.302 40.04 961.27 41 964.406 42.92C967.542 44.776 969.75 47.592 971.03 51.368L966.998 53.96C966.038 50.568 964.246 48.104 961.622 46.568C959.062 45.032 956.022 44.264 952.502 44.264C949.814 44.264 947.446 44.68 945.398 45.512C943.414 46.28 941.846 47.368 940.694 48.776C939.606 50.12 939.062 51.688 939.062 53.48C939.062 55.336 939.702 57.032 940.982 58.568C942.262 60.04 944.534 61.128 947.798 61.832L959.318 64.328C963.862 65.288 967.03 66.76 968.822 68.744C970.614 70.664 971.51 73.064 971.51 75.944C971.51 78.824 970.742 81.32 969.206 83.432C967.67 85.544 965.494 87.176 962.678 88.328C959.862 89.416 956.566 89.96 952.79 89.96ZM997.325 89.96C992.461 89.96 988.141 88.968 984.365 86.984C980.653 85 978.029 82.152 976.493 78.44L980.621 75.656C981.773 78.856 983.821 81.352 986.765 83.144C989.773 84.872 993.421 85.736 997.709 85.736C1001.93 85.736 1005.23 84.904 1007.6 83.24C1010.03 81.576 1011.25 79.368 1011.25 76.616C1011.25 74.76 1010.64 73.16 1009.42 71.816C1008.27 70.408 1006.06 69.352 1002.8 68.648L991.565 66.248C986.957 65.288 983.661 63.752 981.677 61.64C979.757 59.464 978.797 56.84 978.797 53.768C978.797 51.208 979.565 48.904 981.101 46.856C982.637 44.808 984.749 43.176 987.437 41.96C990.189 40.68 993.389 40.04 997.037 40.04C1001.84 40.04 1005.81 41 1008.94 42.92C1012.08 44.776 1014.29 47.592 1015.57 51.368L1011.53 53.96C1010.57 50.568 1008.78 48.104 1006.16 46.568C1003.6 45.032 1000.56 44.264 997.037 44.264C994.349 44.264 991.981 44.68 989.933 45.512C987.949 46.28 986.381 47.368 985.229 48.776C984.141 50.12 983.597 51.688 983.597 53.48C983.597 55.336 984.237 57.032 985.517 58.568C986.797 60.04 989.069 61.128 992.333 61.832L1003.85 64.328C1008.4 65.288 1011.57 66.76 1013.36 68.744C1015.15 70.664 1016.05 73.064 1016.05 75.944C1016.05 78.824 1015.28 81.32 1013.74 83.432C1012.21 85.544 1010.03 87.176 1007.21 88.328C1004.4 89.416 1001.1 89.96 997.325 89.96Z" fill="white"/>
</svg>
