<svg width="984" height="113" viewBox="0 0 984 113" fill="none" xmlns="http://www.w3.org/2000/svg">
<path d="M62.5738 72.2C61.2937 76.04 59.3737 79.304 56.8138 81.992C54.2537 84.616 51.2457 86.6 47.7898 87.944C44.3337 89.288 40.5257 89.96 36.3657 89.96C30.2857 89.96 25.0057 88.648 20.5257 86.024C16.0457 83.4 12.5897 79.656 10.1577 74.792C7.72575 69.928 6.50975 64.104 6.50975 57.32C6.50975 50.536 7.72575 44.712 10.1577 39.848C12.5897 34.984 16.0457 31.24 20.5257 28.616C25.0057 25.992 30.2537 24.68 36.2697 24.68C40.4297 24.68 44.1737 25.256 47.5018 26.408C50.8937 27.56 53.7737 29.288 56.1417 31.592C58.5097 33.896 60.3337 36.776 61.6138 40.232L51.9178 44.552C50.6377 40.776 48.7817 38.024 46.3497 36.296C43.9177 34.504 40.7497 33.608 36.8457 33.608C32.9417 33.608 29.5177 34.536 26.5737 36.392C23.6297 38.248 21.3257 40.936 19.6617 44.456C18.0617 47.976 17.2617 52.264 17.2617 57.32C17.2617 62.312 18.0297 66.6 19.5657 70.184C21.1017 73.704 23.3097 76.392 26.1897 78.248C29.0697 80.104 32.5257 81.032 36.5577 81.032C40.4618 81.032 43.8218 80.04 46.6378 78.056C49.5178 76.008 51.5658 72.968 52.7818 68.936L62.5738 72.2ZM91.2387 40.04C95.9107 40.04 100.039 41.032 103.623 43.016C107.207 45 109.991 47.88 111.975 51.656C114.023 55.368 115.047 59.816 115.047 65C115.047 70.184 114.023 74.664 111.975 78.44C109.991 82.152 107.207 85 103.623 86.984C100.039 88.968 95.9107 89.96 91.2387 89.96C86.5667 89.96 82.4387 88.968 78.8547 86.984C75.2707 85 72.4547 82.152 70.4067 78.44C68.3587 74.664 67.3347 70.184 67.3347 65C67.3347 59.816 68.3587 55.368 70.4067 51.656C72.4547 47.88 75.2707 45 78.8547 43.016C82.4387 41.032 86.5667 40.04 91.2387 40.04ZM91.2387 48.104C88.3587 48.104 85.8947 48.776 83.8467 50.12C81.8627 51.4 80.3267 53.288 79.2387 55.784C78.1507 58.28 77.6067 61.352 77.6067 65C77.6067 68.584 78.1507 71.656 79.2387 74.216C80.3267 76.712 81.8627 78.632 83.8467 79.976C85.8947 81.256 88.3587 81.896 91.2387 81.896C94.1187 81.896 96.5507 81.256 98.5347 79.976C100.519 78.632 102.055 76.712 103.143 74.216C104.231 71.656 104.775 68.584 104.775 65C104.775 61.352 104.231 58.28 103.143 55.784C102.055 53.288 100.519 51.4 98.5347 50.12C96.5507 48.776 94.1187 48.104 91.2387 48.104ZM124.705 89V41H129.025L129.313 50.984C130.721 47.528 132.993 44.84 136.129 42.92C139.329 41 142.881 40.04 146.785 40.04C150.945 40.04 154.529 41.032 157.537 43.016C160.609 45 162.721 47.912 163.873 51.752C164.705 49.32 166.049 47.24 167.905 45.512C169.761 43.72 171.937 42.344 174.433 41.384C176.929 40.424 179.521 39.944 182.209 39.944C185.537 39.944 188.545 40.616 191.233 41.96C193.985 43.24 196.161 45.224 197.761 47.912C199.425 50.536 200.257 53.832 200.257 57.8V88.904H195.457V58.28C195.457 53.544 194.177 50.024 191.617 47.72C189.121 45.352 185.793 44.168 181.633 44.168C178.625 44.168 175.841 44.904 173.281 46.376C170.721 47.784 168.673 49.8 167.137 52.424C165.665 54.984 164.929 57.96 164.929 61.352V89H160.129V58.376C160.129 53.64 158.849 50.12 156.289 47.816C153.729 45.448 150.401 44.264 146.305 44.264C143.425 44.264 140.705 44.968 138.145 46.376C135.585 47.784 133.505 49.8 131.905 52.424C130.305 55.048 129.505 58.184 129.505 61.832V89H124.705ZM213.021 109.16V41H217.341L217.725 54.344L217.053 53.576C217.885 50.824 219.165 48.424 220.893 46.376C222.685 44.328 224.861 42.76 227.421 41.672C229.981 40.584 232.765 40.04 235.773 40.04C239.869 40.04 243.549 41.032 246.813 43.016C250.077 45 252.669 47.848 254.589 51.56C256.509 55.272 257.469 59.752 257.469 65C257.469 70.184 256.509 74.664 254.589 78.44C252.669 82.152 250.045 85 246.717 86.984C243.453 88.968 239.741 89.96 235.581 89.96C231.165 89.96 227.325 88.808 224.061 86.504C220.797 84.136 218.525 80.968 217.245 77L217.821 76.136V109.16H213.021ZM235.005 85.736C240.445 85.736 244.733 83.88 247.869 80.168C251.069 76.456 252.669 71.4 252.669 65C252.669 58.6 251.101 53.544 247.965 49.832C244.829 46.12 240.573 44.264 235.197 44.264C231.805 44.264 228.797 45.128 226.173 46.856C223.613 48.52 221.565 50.92 220.029 54.056C218.557 57.128 217.821 60.776 217.821 65C217.821 69.16 218.557 72.808 220.029 75.944C221.501 79.08 223.517 81.512 226.077 83.24C228.701 84.904 231.677 85.736 235.005 85.736ZM296.87 57.416C296.87 53.256 295.75 50.024 293.51 47.72C291.27 45.416 288.07 44.264 283.91 44.264C280.262 44.264 277.126 45.064 274.502 46.664C271.878 48.2 269.926 50.792 268.646 54.44L264.71 51.944C266.118 48.168 268.454 45.256 271.718 43.208C275.046 41.096 279.142 40.04 284.006 40.04C287.526 40.04 290.598 40.68 293.222 41.96C295.91 43.176 297.99 45 299.462 47.432C300.934 49.864 301.67 52.904 301.67 56.552V80.552C301.67 83.944 303.206 85.64 306.278 85.64C307.622 85.64 308.774 85.416 309.734 84.968L309.446 88.808C308.358 89.384 306.95 89.672 305.222 89.672C303.75 89.672 302.374 89.384 301.094 88.808C299.814 88.232 298.758 87.272 297.926 85.928C297.158 84.584 296.774 82.76 296.774 80.456V77.864L298.118 77.768C297.542 80.52 296.262 82.824 294.278 84.68C292.358 86.472 290.118 87.816 287.558 88.712C284.998 89.544 282.438 89.96 279.878 89.96C276.87 89.96 274.182 89.48 271.814 88.52C269.446 87.56 267.59 86.184 266.246 84.392C264.902 82.536 264.23 80.264 264.23 77.576C264.23 73.992 265.414 71.112 267.782 68.936C270.214 66.696 273.606 65.16 277.958 64.328L297.83 60.392V64.424L280.358 67.88C276.582 68.648 273.766 69.768 271.91 71.24C270.054 72.712 269.126 74.728 269.126 77.288C269.126 79.912 270.118 81.992 272.102 83.528C274.086 85 276.902 85.736 280.55 85.736C282.406 85.736 284.294 85.48 286.214 84.968C288.134 84.456 289.894 83.656 291.494 82.568C293.158 81.416 294.47 80.008 295.43 78.344C296.39 76.616 296.87 74.536 296.87 72.104V57.416ZM332.003 89.96C327.139 89.96 322.819 88.968 319.043 86.984C315.331 85 312.707 82.152 311.171 78.44L315.299 75.656C316.451 78.856 318.499 81.352 321.443 83.144C324.451 84.872 328.099 85.736 332.387 85.736C336.611 85.736 339.907 84.904 342.275 83.24C344.707 81.576 345.923 79.368 345.923 76.616C345.923 74.76 345.315 73.16 344.099 71.816C342.947 70.408 340.739 69.352 337.475 68.648L326.243 66.248C321.635 65.288 318.339 63.752 316.355 61.64C314.435 59.464 313.475 56.84 313.475 53.768C313.475 51.208 314.243 48.904 315.779 46.856C317.315 44.808 319.427 43.176 322.115 41.96C324.867 40.68 328.067 40.04 331.715 40.04C336.515 40.04 340.483 41 343.619 42.92C346.755 44.776 348.963 47.592 350.243 51.368L346.211 53.96C345.251 50.568 343.459 48.104 340.835 46.568C338.275 45.032 335.235 44.264 331.715 44.264C329.027 44.264 326.659 44.68 324.611 45.512C322.627 46.28 321.059 47.368 319.907 48.776C318.819 50.12 318.275 51.688 318.275 53.48C318.275 55.336 318.915 57.032 320.195 58.568C321.475 60.04 323.747 61.128 327.011 61.832L338.531 64.328C343.075 65.288 346.243 66.76 348.035 68.744C349.827 70.664 350.723 73.064 350.723 75.944C350.723 78.824 349.955 81.32 348.419 83.432C346.883 85.544 344.707 87.176 341.891 88.328C339.075 89.416 335.779 89.96 332.003 89.96ZM376.538 89.96C371.674 89.96 367.354 88.968 363.578 86.984C359.866 85 357.242 82.152 355.706 78.44L359.834 75.656C360.986 78.856 363.034 81.352 365.978 83.144C368.986 84.872 372.634 85.736 376.922 85.736C381.146 85.736 384.442 84.904 386.81 83.24C389.242 81.576 390.458 79.368 390.458 76.616C390.458 74.76 389.85 73.16 388.634 71.816C387.482 70.408 385.274 69.352 382.01 68.648L370.778 66.248C366.17 65.288 362.874 63.752 360.89 61.64C358.97 59.464 358.01 56.84 358.01 53.768C358.01 51.208 358.778 48.904 360.314 46.856C361.85 44.808 363.962 43.176 366.65 41.96C369.402 40.68 372.602 40.04 376.25 40.04C381.05 40.04 385.018 41 388.154 42.92C391.29 44.776 393.498 47.592 394.778 51.368L390.746 53.96C389.786 50.568 387.994 48.104 385.37 46.568C382.81 45.032 379.77 44.264 376.25 44.264C373.562 44.264 371.194 44.68 369.146 45.512C367.162 46.28 365.594 47.368 364.442 48.776C363.354 50.12 362.81 51.688 362.81 53.48C362.81 55.336 363.45 57.032 364.73 58.568C366.01 60.04 368.282 61.128 371.546 61.832L383.066 64.328C387.61 65.288 390.778 66.76 392.57 68.744C394.362 70.664 395.258 73.064 395.258 75.944C395.258 78.824 394.49 81.32 392.954 83.432C391.418 85.544 389.242 87.176 386.426 88.328C383.61 89.416 380.314 89.96 376.538 89.96ZM407.249 31.688C406.033 31.688 405.041 31.336 404.273 30.632C403.569 29.864 403.217 28.872 403.217 27.656C403.217 26.44 403.569 25.48 404.273 24.776C405.041 24.008 406.033 23.624 407.249 23.624C408.465 23.624 409.425 24.008 410.129 24.776C410.897 25.48 411.281 26.44 411.281 27.656C411.281 28.872 410.897 29.864 410.129 30.632C409.425 31.336 408.465 31.688 407.249 31.688ZM409.649 41V89H404.849V41H409.649ZM442.437 40.04C446.917 40.04 450.853 41.032 454.245 43.016C457.701 45 460.389 47.88 462.309 51.656C464.293 55.368 465.285 59.816 465.285 65C465.285 70.184 464.293 74.664 462.309 78.44C460.389 82.152 457.701 85 454.245 86.984C450.853 88.968 446.917 89.96 442.437 89.96C437.957 89.96 433.989 88.968 430.533 86.984C427.141 85 424.453 82.152 422.469 78.44C420.549 74.664 419.589 70.184 419.589 65C419.589 59.816 420.549 55.368 422.469 51.656C424.453 47.88 427.141 45 430.533 43.016C433.989 41.032 437.957 40.04 442.437 40.04ZM442.437 44.168C438.789 44.168 435.621 45 432.933 46.664C430.245 48.328 428.133 50.728 426.597 53.864C425.125 56.936 424.389 60.648 424.389 65C424.389 69.288 425.125 73 426.597 76.136C428.133 79.272 430.245 81.672 432.933 83.336C435.621 85 438.789 85.832 442.437 85.832C446.085 85.832 449.253 85 451.941 83.336C454.629 81.672 456.709 79.272 458.181 76.136C459.717 73 460.485 69.288 460.485 65C460.485 60.648 459.717 56.936 458.181 53.864C456.709 50.728 454.629 48.328 451.941 46.664C449.253 45 446.085 44.168 442.437 44.168ZM475.169 89V41H479.489L479.873 53L479.105 52.328C480.001 49.704 481.345 47.496 483.137 45.704C484.929 43.848 487.073 42.44 489.569 41.48C492.065 40.52 494.753 40.04 497.633 40.04C501.217 40.04 504.385 40.712 507.137 42.056C509.889 43.4 512.033 45.384 513.569 48.008C515.169 50.632 515.969 53.928 515.969 57.896V89H511.169V59.432C511.169 54.184 509.857 50.344 507.233 47.912C504.673 45.48 501.313 44.264 497.153 44.264C494.145 44.264 491.329 44.968 488.705 46.376C486.145 47.72 484.033 49.704 482.369 52.328C480.769 54.952 479.969 58.152 479.969 61.928V89H475.169Z" fill="white"/>
<path d="M573.216 88.056C570.976 88.056 568.928 87.7253 567.072 87.064C565.237 86.4027 563.509 85.3573 561.888 83.928C560.267 82.4987 558.688 80.6427 557.152 78.36C555.637 76.12 554.389 73.944 553.408 71.832C552.427 69.72 551.691 67.64 551.2 65.592C550.731 63.5227 550.496 61.464 550.496 59.416C550.496 57.048 550.955 54.9253 551.872 53.048C552.811 51.1707 554.133 49.6987 555.84 48.632C557.568 47.544 559.605 47 561.952 47C563.701 47 565.227 47.352 566.528 48.056C567.851 48.76 568.875 49.7307 569.6 50.968C570.347 52.2053 570.72 53.624 570.72 55.224C570.72 57.336 570.165 59.1813 569.056 60.76C567.947 62.3173 566.357 63.5653 564.288 64.504C562.219 65.4427 559.733 66.04 556.832 66.296L556.608 65.304C558.357 65.0693 559.872 64.536 561.152 63.704C562.453 62.8507 563.456 61.688 564.16 60.216C564.885 58.744 565.248 56.9413 565.248 54.808C565.248 52.9093 564.917 51.3733 564.256 50.2C563.616 49.0267 562.72 48.44 561.568 48.44C560.053 48.44 558.784 49.208 557.76 50.744C556.757 52.2587 556.256 54.296 556.256 56.856C556.256 58.8827 556.512 60.9093 557.024 62.936C557.536 64.9413 558.283 66.9573 559.264 68.984C560.267 70.9893 561.472 73.0053 562.88 75.032C564.587 77.5067 566.144 79.4907 567.552 80.984C568.96 82.4773 570.325 83.5653 571.648 84.248C572.992 84.9093 574.421 85.24 575.936 85.24C577.963 85.24 579.776 84.7387 581.376 83.736C582.976 82.712 584.224 81.176 585.12 79.128C586.037 77.0587 586.496 74.4453 586.496 71.288C586.496 67.3413 585.824 63.4693 584.48 59.672C583.136 55.8747 581.013 52.4187 578.112 49.304C575.36 46.3173 572.213 43.992 568.672 42.328C565.131 40.664 561.259 39.832 557.056 39.832C553.728 39.832 550.955 40.312 548.736 41.272C546.517 42.2107 544.853 43.4907 543.744 45.112C542.656 46.712 542.112 48.5147 542.112 50.52C542.112 51.3947 542.229 52.1307 542.464 52.728C542.72 53.304 542.997 53.8373 543.296 54.328C543.616 54.7973 543.893 55.2987 544.128 55.832C544.363 56.3653 544.48 57.016 544.48 57.784C544.48 58.6587 544.171 59.3947 543.552 59.992C542.955 60.568 542.187 60.856 541.248 60.856C539.947 60.856 538.912 60.28 538.144 59.128C537.397 57.9547 537.024 56.376 537.024 54.392C537.024 51.1493 537.824 48.3227 539.424 45.912C541.045 43.5013 543.36 41.6347 546.368 40.312C549.397 38.9893 553.003 38.328 557.184 38.328C561.557 38.328 565.621 39.1813 569.376 40.888C573.131 42.5947 576.48 45.0267 579.424 48.184C582.368 51.2987 584.576 54.8293 586.048 58.776C587.52 62.7013 588.256 66.8293 588.256 71.16C588.256 74.7867 587.648 77.8587 586.432 80.376C585.216 82.8933 583.488 84.8027 581.248 86.104C579.008 87.4053 576.331 88.056 573.216 88.056ZM566.496 80.952C567.968 79.8213 569.131 78.7227 569.984 77.656C570.859 76.5893 571.488 75.576 571.872 74.616C572.277 73.6347 572.48 72.728 572.48 71.896C572.48 71.128 572.363 70.488 572.128 69.976C571.915 69.4427 571.701 68.9413 571.488 68.472C571.275 68.0027 571.168 67.4693 571.168 66.872C571.168 65.976 571.467 65.208 572.064 64.568C572.683 63.928 573.461 63.608 574.4 63.608C575.381 63.608 576.181 64.0027 576.8 64.792C577.44 65.56 577.76 66.6587 577.76 68.088C577.76 70.6267 576.885 73.0587 575.136 75.384C573.408 77.688 570.763 79.8213 567.2 81.784L566.496 80.952ZM552.288 66.776C550.411 67.0747 548.843 67.6933 547.584 68.632C546.325 69.5707 545.387 70.712 544.768 72.056C544.149 73.4 543.84 74.8293 543.84 76.344C543.84 79.0747 544.597 81.24 546.112 82.84C547.648 84.4187 549.696 85.208 552.256 85.208C554.091 85.208 555.691 84.92 557.056 84.344C558.443 83.7467 559.744 82.968 560.96 82.008L561.792 83.128C560.704 84.088 559.52 84.9307 558.24 85.656C556.981 86.36 555.563 86.904 553.984 87.288C552.405 87.6933 550.613 87.896 548.608 87.896C544.917 87.896 542.037 87.0213 539.968 85.272C537.92 83.5013 536.896 81.08 536.896 78.008C536.896 75.7893 537.472 73.7947 538.624 72.024C539.776 70.2533 541.493 68.8133 543.776 67.704C546.059 66.5947 548.907 65.9013 552.32 65.624L552.288 66.776Z" fill="white"/>
<path d="M606.408 89V25.64H631.368C638.984 25.64 644.552 27.176 648.072 30.248C651.592 33.32 653.352 37.576 653.352 43.016C653.352 46.344 652.392 49.32 650.472 51.944C648.552 54.504 645.736 56.136 642.024 56.84V56.936C646.12 57.576 649.288 59.272 651.528 62.024C653.832 64.712 654.984 67.848 654.984 71.432C654.984 76.872 653 81.16 649.032 84.296C645.064 87.432 639.304 89 631.752 89H606.408ZM616.488 80.456H632.232C636.264 80.456 639.272 79.624 641.256 77.96C643.304 76.296 644.328 73.96 644.328 70.952C644.328 67.944 643.304 65.608 641.256 63.944C639.272 62.28 636.264 61.448 632.232 61.448H616.488V80.456ZM616.488 52.904H630.6C638.664 52.904 642.696 49.8 642.696 43.592C642.696 37.384 638.664 34.28 630.6 34.28H616.488V52.904ZM685.523 40.04C690.195 40.04 694.323 41.032 697.907 43.016C701.491 45 704.275 47.88 706.259 51.656C708.307 55.368 709.331 59.816 709.331 65C709.331 70.184 708.307 74.664 706.259 78.44C704.275 82.152 701.491 85 697.907 86.984C694.323 88.968 690.195 89.96 685.523 89.96C680.851 89.96 676.723 88.968 673.139 86.984C669.555 85 666.739 82.152 664.691 78.44C662.643 74.664 661.619 70.184 661.619 65C661.619 59.816 662.643 55.368 664.691 51.656C666.739 47.88 669.555 45 673.139 43.016C676.723 41.032 680.851 40.04 685.523 40.04ZM685.523 48.104C682.643 48.104 680.179 48.776 678.131 50.12C676.147 51.4 674.611 53.288 673.523 55.784C672.435 58.28 671.891 61.352 671.891 65C671.891 68.584 672.435 71.656 673.523 74.216C674.611 76.712 676.147 78.632 678.131 79.976C680.179 81.256 682.643 81.896 685.523 81.896C688.403 81.896 690.835 81.256 692.819 79.976C694.803 78.632 696.339 76.712 697.427 74.216C698.515 71.656 699.059 68.584 699.059 65C699.059 61.352 698.515 58.28 697.427 55.784C696.339 53.288 694.803 51.4 692.819 50.12C690.835 48.776 688.403 48.104 685.523 48.104ZM723.405 18.92V77.672C723.405 80.616 723.917 82.696 724.941 83.912C725.965 85.128 727.565 85.736 729.741 85.736C731.085 85.736 732.141 85.64 732.909 85.448C733.741 85.256 734.701 84.936 735.789 84.488L735.117 88.712C734.285 89.096 733.325 89.384 732.237 89.576C731.213 89.832 730.061 89.96 728.781 89.96C725.389 89.96 722.829 89 721.101 87.08C719.437 85.096 718.605 82.024 718.605 77.864V18.92H723.405ZM759.838 89.96C755.678 89.96 751.934 88.968 748.606 86.984C745.278 85 742.654 82.152 740.734 78.44C738.878 74.664 737.95 70.184 737.95 65C737.95 59.688 738.942 55.176 740.926 51.464C742.91 47.752 745.598 44.936 748.99 43.016C752.382 41.032 756.126 40.04 760.222 40.04C764.702 40.04 768.51 41.224 771.646 43.592C774.846 45.96 776.99 49.256 778.078 53.48L777.502 53.864V18.92H782.302V89H777.982L777.694 75.656L778.27 75.464C777.694 78.536 776.51 81.16 774.718 83.336C772.99 85.512 770.814 87.176 768.19 88.328C765.63 89.416 762.846 89.96 759.838 89.96ZM760.414 85.736C763.806 85.736 766.782 84.904 769.342 83.24C771.902 81.512 773.886 79.048 775.294 75.848C776.766 72.648 777.502 68.904 777.502 64.616C777.502 60.392 776.766 56.776 775.294 53.768C773.886 50.696 771.902 48.36 769.342 46.76C766.846 45.096 763.934 44.264 760.606 44.264C755.102 44.264 750.75 46.12 747.55 49.832C744.35 53.544 742.75 58.6 742.75 65C742.75 71.4 744.318 76.456 747.454 80.168C750.654 83.88 754.974 85.736 760.414 85.736ZM795.59 89V41H799.91L800.294 53L799.526 52.328C800.422 49.704 801.766 47.496 803.558 45.704C805.35 43.848 807.494 42.44 809.99 41.48C812.486 40.52 815.174 40.04 818.054 40.04C821.638 40.04 824.806 40.712 827.558 42.056C830.31 43.4 832.454 45.384 833.99 48.008C835.59 50.632 836.39 53.928 836.39 57.896V89H831.59V59.432C831.59 54.184 830.278 50.344 827.654 47.912C825.094 45.48 821.734 44.264 817.574 44.264C814.566 44.264 811.75 44.968 809.126 46.376C806.566 47.72 804.454 49.704 802.79 52.328C801.19 54.952 800.39 58.152 800.39 61.928V89H795.59ZM868.709 89.96C864.293 89.96 860.357 88.968 856.901 86.984C853.445 85 850.725 82.152 848.741 78.44C846.821 74.664 845.861 70.184 845.861 65C845.861 59.816 846.821 55.368 848.741 51.656C850.725 47.88 853.381 45 856.709 43.016C860.037 41.032 863.845 40.04 868.133 40.04C872.485 40.04 876.197 41 879.269 42.92C882.341 44.84 884.709 47.528 886.373 50.984C888.037 54.376 888.869 58.312 888.869 62.792C888.869 63.368 888.837 63.944 888.773 64.52C888.773 65.032 888.741 65.512 888.677 65.96H848.837V61.64H886.565L884.165 62.312C884.101 56.808 882.629 52.424 879.749 49.16C876.933 45.896 873.029 44.264 868.037 44.264C864.581 44.264 861.541 45.096 858.917 46.76C856.293 48.36 854.245 50.728 852.773 53.864C851.301 56.936 850.565 60.648 850.565 65C850.565 69.288 851.301 73 852.773 76.136C854.309 79.272 856.421 81.672 859.109 83.336C861.861 84.936 865.029 85.736 868.613 85.736C872.325 85.736 875.493 84.936 878.117 83.336C880.805 81.736 882.885 79.528 884.357 76.712L888.197 78.92C887.045 81.224 885.509 83.208 883.589 84.872C881.669 86.472 879.461 87.72 876.965 88.616C874.469 89.512 871.717 89.96 868.709 89.96ZM914.947 89.96C910.083 89.96 905.763 88.968 901.987 86.984C898.275 85 895.651 82.152 894.115 78.44L898.243 75.656C899.395 78.856 901.443 81.352 904.387 83.144C907.395 84.872 911.043 85.736 915.331 85.736C919.555 85.736 922.851 84.904 925.219 83.24C927.651 81.576 928.867 79.368 928.867 76.616C928.867 74.76 928.259 73.16 927.043 71.816C925.891 70.408 923.683 69.352 920.419 68.648L909.187 66.248C904.579 65.288 901.283 63.752 899.299 61.64C897.379 59.464 896.419 56.84 896.419 53.768C896.419 51.208 897.187 48.904 898.723 46.856C900.259 44.808 902.371 43.176 905.059 41.96C907.811 40.68 911.011 40.04 914.659 40.04C919.459 40.04 923.427 41 926.563 42.92C929.699 44.776 931.907 47.592 933.187 51.368L929.155 53.96C928.195 50.568 926.403 48.104 923.779 46.568C921.219 45.032 918.179 44.264 914.659 44.264C911.971 44.264 909.603 44.68 907.555 45.512C905.571 46.28 904.003 47.368 902.851 48.776C901.763 50.12 901.219 51.688 901.219 53.48C901.219 55.336 901.859 57.032 903.139 58.568C904.419 60.04 906.691 61.128 909.955 61.832L921.475 64.328C926.019 65.288 929.187 66.76 930.979 68.744C932.771 70.664 933.667 73.064 933.667 75.944C933.667 78.824 932.899 81.32 931.363 83.432C929.827 85.544 927.651 87.176 924.835 88.328C922.019 89.416 918.723 89.96 914.947 89.96ZM959.482 89.96C954.618 89.96 950.298 88.968 946.522 86.984C942.81 85 940.186 82.152 938.65 78.44L942.778 75.656C943.93 78.856 945.978 81.352 948.922 83.144C951.93 84.872 955.578 85.736 959.866 85.736C964.09 85.736 967.386 84.904 969.754 83.24C972.186 81.576 973.402 79.368 973.402 76.616C973.402 74.76 972.794 73.16 971.578 71.816C970.426 70.408 968.218 69.352 964.954 68.648L953.722 66.248C949.114 65.288 945.818 63.752 943.834 61.64C941.914 59.464 940.954 56.84 940.954 53.768C940.954 51.208 941.722 48.904 943.258 46.856C944.794 44.808 946.906 43.176 949.594 41.96C952.346 40.68 955.546 40.04 959.194 40.04C963.994 40.04 967.962 41 971.098 42.92C974.234 44.776 976.442 47.592 977.722 51.368L973.69 53.96C972.73 50.568 970.938 48.104 968.314 46.568C965.754 45.032 962.714 44.264 959.194 44.264C956.506 44.264 954.138 44.68 952.09 45.512C950.106 46.28 948.538 47.368 947.386 48.776C946.298 50.12 945.754 51.688 945.754 53.48C945.754 55.336 946.394 57.032 947.674 58.568C948.954 60.04 951.226 61.128 954.49 61.832L966.01 64.328C970.554 65.288 973.722 66.76 975.514 68.744C977.306 70.664 978.202 73.064 978.202 75.944C978.202 78.824 977.434 81.32 975.898 83.432C974.362 85.544 972.186 87.176 969.37 88.328C966.554 89.416 963.258 89.96 959.482 89.96Z" fill="white"/>
</svg>
