<svg width="780" height="113" viewBox="0 0 780 113" fill="none" xmlns="http://www.w3.org/2000/svg">
<path d="M61.995 72.2C60.715 76.04 58.795 79.304 56.235 81.992C53.675 84.616 50.667 86.6 47.211 87.944C43.755 89.288 39.947 89.96 35.787 89.96C29.707 89.96 24.427 88.648 19.947 86.024C15.467 83.4 12.011 79.656 9.57901 74.792C7.14701 69.928 5.93101 64.104 5.93101 57.32C5.93101 50.536 7.14701 44.712 9.57901 39.848C12.011 34.984 15.467 31.24 19.947 28.616C24.427 25.992 29.675 24.68 35.691 24.68C39.851 24.68 43.595 25.256 46.923 26.408C50.315 27.56 53.195 29.288 55.563 31.592C57.931 33.896 59.755 36.776 61.035 40.232L51.339 44.552C50.059 40.776 48.203 38.024 45.771 36.296C43.339 34.504 40.171 33.608 36.267 33.608C32.363 33.608 28.939 34.536 25.995 36.392C23.051 38.248 20.747 40.936 19.083 44.456C17.483 47.976 16.683 52.264 16.683 57.32C16.683 62.312 17.451 66.6 18.987 70.184C20.523 73.704 22.731 76.392 25.611 78.248C28.491 80.104 31.947 81.032 35.979 81.032C39.883 81.032 43.243 80.04 46.059 78.056C48.939 76.008 50.987 72.968 52.203 68.936L61.995 72.2ZM90.66 40.04C95.332 40.04 99.46 41.032 103.044 43.016C106.628 45 109.412 47.88 111.396 51.656C113.444 55.368 114.468 59.816 114.468 65C114.468 70.184 113.444 74.664 111.396 78.44C109.412 82.152 106.628 85 103.044 86.984C99.46 88.968 95.332 89.96 90.66 89.96C85.988 89.96 81.86 88.968 78.276 86.984C74.692 85 71.876 82.152 69.828 78.44C67.78 74.664 66.756 70.184 66.756 65C66.756 59.816 67.78 55.368 69.828 51.656C71.876 47.88 74.692 45 78.276 43.016C81.86 41.032 85.988 40.04 90.66 40.04ZM90.66 48.104C87.78 48.104 85.316 48.776 83.268 50.12C81.284 51.4 79.748 53.288 78.66 55.784C77.572 58.28 77.028 61.352 77.028 65C77.028 68.584 77.572 71.656 78.66 74.216C79.748 76.712 81.284 78.632 83.268 79.976C85.316 81.256 87.78 81.896 90.66 81.896C93.54 81.896 95.972 81.256 97.956 79.976C99.94 78.632 101.476 76.712 102.564 74.216C103.652 71.656 104.196 68.584 104.196 65C104.196 61.352 103.652 58.28 102.564 55.784C101.476 53.288 99.94 51.4 97.956 50.12C95.972 48.776 93.54 48.104 90.66 48.104ZM124.127 109.16V41H128.447L128.831 54.344L128.159 53.576C128.991 50.824 130.271 48.424 131.999 46.376C133.791 44.328 135.967 42.76 138.527 41.672C141.087 40.584 143.871 40.04 146.879 40.04C150.975 40.04 154.655 41.032 157.919 43.016C161.183 45 163.775 47.848 165.695 51.56C167.615 55.272 168.575 59.752 168.575 65C168.575 70.184 167.615 74.664 165.695 78.44C163.775 82.152 161.151 85 157.823 86.984C154.559 88.968 150.847 89.96 146.687 89.96C142.271 89.96 138.431 88.808 135.167 86.504C131.903 84.136 129.631 80.968 128.351 77L128.927 76.136V109.16H124.127ZM146.111 85.736C151.551 85.736 155.839 83.88 158.975 80.168C162.175 76.456 163.775 71.4 163.775 65C163.775 58.6 162.207 53.544 159.071 49.832C155.935 46.12 151.679 44.264 146.303 44.264C142.911 44.264 139.903 45.128 137.279 46.856C134.719 48.52 132.671 50.92 131.135 54.056C129.663 57.128 128.927 60.776 128.927 65C128.927 69.16 129.663 72.808 131.135 75.944C132.607 79.08 134.623 81.512 137.183 83.24C139.807 84.904 142.783 85.736 146.111 85.736ZM180.999 31.688C179.783 31.688 178.791 31.336 178.023 30.632C177.319 29.864 176.967 28.872 176.967 27.656C176.967 26.44 177.319 25.48 178.023 24.776C178.791 24.008 179.783 23.624 180.999 23.624C182.215 23.624 183.175 24.008 183.879 24.776C184.647 25.48 185.031 26.44 185.031 27.656C185.031 28.872 184.647 29.864 183.879 30.632C183.175 31.336 182.215 31.688 180.999 31.688ZM183.399 41V89H178.599V41H183.399ZM196.603 89V41H200.923L201.307 53L200.539 52.328C201.435 49.704 202.779 47.496 204.571 45.704C206.363 43.848 208.507 42.44 211.003 41.48C213.499 40.52 216.187 40.04 219.067 40.04C222.651 40.04 225.819 40.712 228.571 42.056C231.323 43.4 233.467 45.384 235.003 48.008C236.603 50.632 237.403 53.928 237.403 57.896V89H232.603V59.432C232.603 54.184 231.291 50.344 228.667 47.912C226.107 45.48 222.747 44.264 218.587 44.264C215.579 44.264 212.763 44.968 210.139 46.376C207.579 47.72 205.467 49.704 203.803 52.328C202.203 54.952 201.403 58.152 201.403 61.928V89H196.603ZM289.882 32.168L291.034 36.392C290.97 36.392 290.906 36.392 290.842 36.392C290.778 36.392 290.682 36.392 290.554 36.392C287.418 36.392 284.986 37.224 283.258 38.888C281.594 40.488 280.762 42.76 280.762 45.704L277.69 44.168C277.69 41.736 278.202 39.624 279.226 37.832C280.25 36.04 281.658 34.664 283.45 33.704C285.242 32.68 287.258 32.168 289.498 32.168C289.626 32.168 289.69 32.168 289.69 32.168C289.754 32.168 289.818 32.168 289.882 32.168ZM274.714 84.104C279.45 84.104 283.162 85.096 285.85 87.08C288.538 89.064 289.882 91.72 289.882 95.048C289.882 97.992 288.89 100.552 286.906 102.728C284.986 104.904 282.33 106.6 278.938 107.816C275.546 109.032 271.674 109.64 267.322 109.64C260.09 109.64 254.554 108.392 250.714 105.896C246.874 103.464 244.954 100.392 244.954 96.68C244.954 93.992 245.914 91.656 247.834 89.672C249.818 87.688 252.698 86.504 256.474 86.12L256.09 86.984C254.042 86.408 252.218 85.448 250.618 84.104C249.082 82.76 248.314 80.84 248.314 78.344C248.314 75.656 249.306 73.48 251.29 71.816C253.338 70.088 256.026 69.096 259.354 68.84L264.442 70.568H262.426C259.482 70.76 257.114 71.496 255.322 72.776C253.594 73.992 252.73 75.592 252.73 77.576C252.73 79.752 253.562 81.384 255.226 82.472C256.954 83.56 259.13 84.104 261.754 84.104H274.714ZM267.322 105.608C271.098 105.608 274.33 105.16 277.018 104.264C279.706 103.368 281.754 102.152 283.162 100.616C284.634 99.144 285.37 97.48 285.37 95.624C285.37 93.384 284.378 91.592 282.394 90.248C280.474 88.904 277.53 88.232 273.562 88.232H259.93C256.922 88.232 254.426 88.936 252.442 90.344C250.458 91.752 249.466 93.64 249.466 96.008C249.466 98.888 251.034 101.192 254.17 102.92C257.37 104.712 261.754 105.608 267.322 105.608ZM266.65 40.04C270.426 40.04 273.754 40.712 276.634 42.056C279.578 43.336 281.85 45.16 283.45 47.528C285.05 49.832 285.85 52.552 285.85 55.688C285.85 58.76 285.05 61.512 283.45 63.944C281.85 66.312 279.578 68.168 276.634 69.512C273.754 70.792 270.426 71.432 266.65 71.432C260.57 71.432 255.802 69.992 252.346 67.112C248.954 64.168 247.258 60.36 247.258 55.688C247.258 52.552 248.058 49.832 249.658 47.528C251.322 45.16 253.594 43.336 256.474 42.056C259.418 40.712 262.81 40.04 266.65 40.04ZM266.65 43.976C262.426 43.976 258.97 45.064 256.282 47.24C253.594 49.352 252.25 52.168 252.25 55.688C252.25 59.208 253.594 62.056 256.282 64.232C258.97 66.408 262.426 67.496 266.65 67.496C270.874 67.496 274.298 66.408 276.922 64.232C279.61 62.056 280.954 59.208 280.954 55.688C280.954 52.168 279.61 49.352 276.922 47.24C274.298 45.064 270.874 43.976 266.65 43.976Z" fill="white"/>
<path d="M340.216 88.056C337.976 88.056 335.928 87.7253 334.072 87.064C332.237 86.4027 330.509 85.3573 328.888 83.928C327.267 82.4987 325.688 80.6427 324.152 78.36C322.637 76.12 321.389 73.944 320.408 71.832C319.427 69.72 318.691 67.64 318.2 65.592C317.731 63.5227 317.496 61.464 317.496 59.416C317.496 57.048 317.955 54.9253 318.872 53.048C319.811 51.1707 321.133 49.6987 322.84 48.632C324.568 47.544 326.605 47 328.952 47C330.701 47 332.227 47.352 333.528 48.056C334.851 48.76 335.875 49.7307 336.6 50.968C337.347 52.2053 337.72 53.624 337.72 55.224C337.72 57.336 337.165 59.1813 336.056 60.76C334.947 62.3173 333.357 63.5653 331.288 64.504C329.219 65.4427 326.733 66.04 323.832 66.296L323.608 65.304C325.357 65.0693 326.872 64.536 328.152 63.704C329.453 62.8507 330.456 61.688 331.16 60.216C331.885 58.744 332.248 56.9413 332.248 54.808C332.248 52.9093 331.917 51.3733 331.256 50.2C330.616 49.0267 329.72 48.44 328.568 48.44C327.053 48.44 325.784 49.208 324.76 50.744C323.757 52.2587 323.256 54.296 323.256 56.856C323.256 58.8827 323.512 60.9093 324.024 62.936C324.536 64.9413 325.283 66.9573 326.264 68.984C327.267 70.9893 328.472 73.0053 329.88 75.032C331.587 77.5067 333.144 79.4907 334.552 80.984C335.96 82.4773 337.325 83.5653 338.648 84.248C339.992 84.9093 341.421 85.24 342.936 85.24C344.963 85.24 346.776 84.7387 348.376 83.736C349.976 82.712 351.224 81.176 352.12 79.128C353.037 77.0587 353.496 74.4453 353.496 71.288C353.496 67.3413 352.824 63.4693 351.48 59.672C350.136 55.8747 348.013 52.4187 345.112 49.304C342.36 46.3173 339.213 43.992 335.672 42.328C332.131 40.664 328.259 39.832 324.056 39.832C320.728 39.832 317.955 40.312 315.736 41.272C313.517 42.2107 311.853 43.4907 310.744 45.112C309.656 46.712 309.112 48.5147 309.112 50.52C309.112 51.3947 309.229 52.1307 309.464 52.728C309.72 53.304 309.997 53.8373 310.296 54.328C310.616 54.7973 310.893 55.2987 311.128 55.832C311.363 56.3653 311.48 57.016 311.48 57.784C311.48 58.6587 311.171 59.3947 310.552 59.992C309.955 60.568 309.187 60.856 308.248 60.856C306.947 60.856 305.912 60.28 305.144 59.128C304.397 57.9547 304.024 56.376 304.024 54.392C304.024 51.1493 304.824 48.3227 306.424 45.912C308.045 43.5013 310.36 41.6347 313.368 40.312C316.397 38.9893 320.003 38.328 324.184 38.328C328.557 38.328 332.621 39.1813 336.376 40.888C340.131 42.5947 343.48 45.0267 346.424 48.184C349.368 51.2987 351.576 54.8293 353.048 58.776C354.52 62.7013 355.256 66.8293 355.256 71.16C355.256 74.7867 354.648 77.8587 353.432 80.376C352.216 82.8933 350.488 84.8027 348.248 86.104C346.008 87.4053 343.331 88.056 340.216 88.056ZM333.496 80.952C334.968 79.8213 336.131 78.7227 336.984 77.656C337.859 76.5893 338.488 75.576 338.872 74.616C339.277 73.6347 339.48 72.728 339.48 71.896C339.48 71.128 339.363 70.488 339.128 69.976C338.915 69.4427 338.701 68.9413 338.488 68.472C338.275 68.0027 338.168 67.4693 338.168 66.872C338.168 65.976 338.467 65.208 339.064 64.568C339.683 63.928 340.461 63.608 341.4 63.608C342.381 63.608 343.181 64.0027 343.8 64.792C344.44 65.56 344.76 66.6587 344.76 68.088C344.76 70.6267 343.885 73.0587 342.136 75.384C340.408 77.688 337.763 79.8213 334.2 81.784L333.496 80.952ZM319.288 66.776C317.411 67.0747 315.843 67.6933 314.584 68.632C313.325 69.5707 312.387 70.712 311.768 72.056C311.149 73.4 310.84 74.8293 310.84 76.344C310.84 79.0747 311.597 81.24 313.112 82.84C314.648 84.4187 316.696 85.208 319.256 85.208C321.091 85.208 322.691 84.92 324.056 84.344C325.443 83.7467 326.744 82.968 327.96 82.008L328.792 83.128C327.704 84.088 326.52 84.9307 325.24 85.656C323.981 86.36 322.563 86.904 320.984 87.288C319.405 87.6933 317.613 87.896 315.608 87.896C311.917 87.896 309.037 87.0213 306.968 85.272C304.92 83.5013 303.896 81.08 303.896 78.008C303.896 75.7893 304.472 73.7947 305.624 72.024C306.776 70.2533 308.493 68.8133 310.776 67.704C313.059 66.5947 315.907 65.9013 319.32 65.624L319.288 66.776Z" fill="white"/>
<path d="M373.408 89V25.64H398.368C405.984 25.64 411.552 27.176 415.072 30.248C418.592 33.32 420.352 37.576 420.352 43.016C420.352 46.344 419.392 49.32 417.472 51.944C415.552 54.504 412.736 56.136 409.024 56.84V56.936C413.12 57.576 416.288 59.272 418.528 62.024C420.832 64.712 421.984 67.848 421.984 71.432C421.984 76.872 420 81.16 416.032 84.296C412.064 87.432 406.304 89 398.752 89H373.408ZM383.488 80.456H399.232C403.264 80.456 406.272 79.624 408.256 77.96C410.304 76.296 411.328 73.96 411.328 70.952C411.328 67.944 410.304 65.608 408.256 63.944C406.272 62.28 403.264 61.448 399.232 61.448H383.488V80.456ZM383.488 52.904H397.6C405.664 52.904 409.696 49.8 409.696 43.592C409.696 37.384 405.664 34.28 397.6 34.28H383.488V52.904ZM452.523 40.04C457.195 40.04 461.323 41.032 464.907 43.016C468.491 45 471.275 47.88 473.259 51.656C475.307 55.368 476.331 59.816 476.331 65C476.331 70.184 475.307 74.664 473.259 78.44C471.275 82.152 468.491 85 464.907 86.984C461.323 88.968 457.195 89.96 452.523 89.96C447.851 89.96 443.723 88.968 440.139 86.984C436.555 85 433.739 82.152 431.691 78.44C429.643 74.664 428.619 70.184 428.619 65C428.619 59.816 429.643 55.368 431.691 51.656C433.739 47.88 436.555 45 440.139 43.016C443.723 41.032 447.851 40.04 452.523 40.04ZM452.523 48.104C449.643 48.104 447.179 48.776 445.131 50.12C443.147 51.4 441.611 53.288 440.523 55.784C439.435 58.28 438.891 61.352 438.891 65C438.891 68.584 439.435 71.656 440.523 74.216C441.611 76.712 443.147 78.632 445.131 79.976C447.179 81.256 449.643 81.896 452.523 81.896C455.403 81.896 457.835 81.256 459.819 79.976C461.803 78.632 463.339 76.712 464.427 74.216C465.515 71.656 466.059 68.584 466.059 65C466.059 61.352 465.515 58.28 464.427 55.784C463.339 53.288 461.803 51.4 459.819 50.12C457.835 48.776 455.403 48.104 452.523 48.104ZM490.405 18.92V77.672C490.405 80.616 490.917 82.696 491.941 83.912C492.965 85.128 494.565 85.736 496.741 85.736C498.085 85.736 499.141 85.64 499.909 85.448C500.741 85.256 501.701 84.936 502.789 84.488L502.117 88.712C501.285 89.096 500.325 89.384 499.237 89.576C498.213 89.832 497.061 89.96 495.781 89.96C492.389 89.96 489.829 89 488.101 87.08C486.437 85.096 485.605 82.024 485.605 77.864V18.92H490.405ZM524.717 89.96C519.853 89.96 515.533 88.968 511.757 86.984C508.045 85 505.421 82.152 503.885 78.44L508.013 75.656C509.165 78.856 511.213 81.352 514.157 83.144C517.165 84.872 520.813 85.736 525.101 85.736C529.325 85.736 532.621 84.904 534.989 83.24C537.421 81.576 538.637 79.368 538.637 76.616C538.637 74.76 538.029 73.16 536.813 71.816C535.661 70.408 533.453 69.352 530.189 68.648L518.957 66.248C514.349 65.288 511.053 63.752 509.069 61.64C507.149 59.464 506.189 56.84 506.189 53.768C506.189 51.208 506.957 48.904 508.493 46.856C510.029 44.808 512.141 43.176 514.829 41.96C517.581 40.68 520.781 40.04 524.429 40.04C529.229 40.04 533.197 41 536.333 42.92C539.469 44.776 541.677 47.592 542.957 51.368L538.925 53.96C537.965 50.568 536.173 48.104 533.549 46.568C530.989 45.032 527.949 44.264 524.429 44.264C521.741 44.264 519.373 44.68 517.325 45.512C515.341 46.28 513.773 47.368 512.621 48.776C511.533 50.12 510.989 51.688 510.989 53.48C510.989 55.336 511.629 57.032 512.909 58.568C514.189 60.04 516.461 61.128 519.725 61.832L531.245 64.328C535.789 65.288 538.957 66.76 540.749 68.744C542.541 70.664 543.437 73.064 543.437 75.944C543.437 78.824 542.669 81.32 541.133 83.432C539.597 85.544 537.421 87.176 534.605 88.328C531.789 89.416 528.493 89.96 524.717 89.96ZM560.996 27.656V76.328C560.996 79.336 561.7 81.64 563.108 83.24C564.58 84.776 566.692 85.544 569.444 85.544C571.236 85.544 572.804 85.256 574.148 84.68C575.556 84.04 576.804 83.144 577.892 81.992L579.716 85.928C578.5 87.144 576.964 88.136 575.108 88.904C573.252 89.608 571.172 89.96 568.868 89.96C566.372 89.96 564.164 89.512 562.244 88.616C560.324 87.656 558.82 86.216 557.732 84.296C556.708 82.376 556.196 79.944 556.196 77V29L560.996 27.656ZM578.948 41V45.128H546.596V41H578.948ZM604.959 89.96C600.543 89.96 596.607 88.968 593.151 86.984C589.695 85 586.975 82.152 584.991 78.44C583.071 74.664 582.111 70.184 582.111 65C582.111 59.816 583.071 55.368 584.991 51.656C586.975 47.88 589.631 45 592.959 43.016C596.287 41.032 600.095 40.04 604.383 40.04C608.735 40.04 612.447 41 615.519 42.92C618.591 44.84 620.959 47.528 622.623 50.984C624.287 54.376 625.119 58.312 625.119 62.792C625.119 63.368 625.087 63.944 625.023 64.52C625.023 65.032 624.991 65.512 624.927 65.96H585.087V61.64H622.815L620.415 62.312C620.351 56.808 618.879 52.424 615.999 49.16C613.183 45.896 609.279 44.264 604.287 44.264C600.831 44.264 597.791 45.096 595.167 46.76C592.543 48.36 590.495 50.728 589.023 53.864C587.551 56.936 586.815 60.648 586.815 65C586.815 69.288 587.551 73 589.023 76.136C590.559 79.272 592.671 81.672 595.359 83.336C598.111 84.936 601.279 85.736 604.863 85.736C608.575 85.736 611.743 84.936 614.367 83.336C617.055 81.736 619.135 79.528 620.607 76.712L624.447 78.92C623.295 81.224 621.759 83.208 619.839 84.872C617.919 86.472 615.711 87.72 613.215 88.616C610.719 89.512 607.967 89.96 604.959 89.96ZM634.973 89V41H639.005L639.581 51.08C640.797 47.688 642.749 45 645.437 43.016C648.125 41.032 651.357 40.04 655.133 40.04C656.413 40.04 657.565 40.168 658.589 40.424C659.613 40.68 660.445 41.096 661.085 41.672L660.029 45.896C659.325 45.448 658.557 45.096 657.725 44.84C656.893 44.584 655.645 44.456 653.981 44.456C651.549 44.456 649.245 45.224 647.069 46.76C644.893 48.232 643.133 50.312 641.789 53C640.445 55.624 639.773 58.664 639.773 62.12V89H634.973ZM669.814 31.688C668.598 31.688 667.606 31.336 666.838 30.632C666.134 29.864 665.782 28.872 665.782 27.656C665.782 26.44 666.134 25.48 666.838 24.776C667.606 24.008 668.598 23.624 669.814 23.624C671.03 23.624 671.99 24.008 672.694 24.776C673.462 25.48 673.846 26.44 673.846 27.656C673.846 28.872 673.462 29.864 672.694 30.632C671.99 31.336 671.03 31.688 669.814 31.688ZM672.214 41V89H667.414V41H672.214ZM685.418 89V41H689.738L690.122 53L689.354 52.328C690.25 49.704 691.594 47.496 693.386 45.704C695.178 43.848 697.322 42.44 699.818 41.48C702.314 40.52 705.002 40.04 707.882 40.04C711.466 40.04 714.634 40.712 717.386 42.056C720.138 43.4 722.282 45.384 723.818 48.008C725.418 50.632 726.218 53.928 726.218 57.896V89H721.418V59.432C721.418 54.184 720.106 50.344 717.482 47.912C714.922 45.48 711.562 44.264 707.402 44.264C704.394 44.264 701.578 44.968 698.954 46.376C696.394 47.72 694.282 49.704 692.618 52.328C691.018 54.952 690.218 58.152 690.218 61.928V89H685.418ZM778.697 32.168L779.849 36.392C779.785 36.392 779.721 36.392 779.657 36.392C779.593 36.392 779.497 36.392 779.369 36.392C776.233 36.392 773.801 37.224 772.073 38.888C770.409 40.488 769.577 42.76 769.577 45.704L766.505 44.168C766.505 41.736 767.017 39.624 768.041 37.832C769.065 36.04 770.473 34.664 772.265 33.704C774.057 32.68 776.073 32.168 778.313 32.168C778.441 32.168 778.505 32.168 778.505 32.168C778.569 32.168 778.633 32.168 778.697 32.168ZM763.529 84.104C768.265 84.104 771.977 85.096 774.665 87.08C777.353 89.064 778.697 91.72 778.697 95.048C778.697 97.992 777.705 100.552 775.721 102.728C773.801 104.904 771.145 106.6 767.753 107.816C764.361 109.032 760.489 109.64 756.137 109.64C748.905 109.64 743.369 108.392 739.529 105.896C735.689 103.464 733.769 100.392 733.769 96.68C733.769 93.992 734.729 91.656 736.649 89.672C738.633 87.688 741.513 86.504 745.289 86.12L744.905 86.984C742.857 86.408 741.033 85.448 739.433 84.104C737.897 82.76 737.129 80.84 737.129 78.344C737.129 75.656 738.121 73.48 740.105 71.816C742.153 70.088 744.841 69.096 748.169 68.84L753.257 70.568H751.241C748.297 70.76 745.929 71.496 744.137 72.776C742.409 73.992 741.545 75.592 741.545 77.576C741.545 79.752 742.377 81.384 744.041 82.472C745.769 83.56 747.945 84.104 750.569 84.104H763.529ZM756.137 105.608C759.913 105.608 763.145 105.16 765.833 104.264C768.521 103.368 770.569 102.152 771.977 100.616C773.449 99.144 774.185 97.48 774.185 95.624C774.185 93.384 773.193 91.592 771.209 90.248C769.289 88.904 766.345 88.232 762.377 88.232H748.745C745.737 88.232 743.241 88.936 741.257 90.344C739.273 91.752 738.281 93.64 738.281 96.008C738.281 98.888 739.849 101.192 742.985 102.92C746.185 104.712 750.569 105.608 756.137 105.608ZM755.465 40.04C759.241 40.04 762.569 40.712 765.449 42.056C768.393 43.336 770.665 45.16 772.265 47.528C773.865 49.832 774.665 52.552 774.665 55.688C774.665 58.76 773.865 61.512 772.265 63.944C770.665 66.312 768.393 68.168 765.449 69.512C762.569 70.792 759.241 71.432 755.465 71.432C749.385 71.432 744.617 69.992 741.161 67.112C737.769 64.168 736.073 60.36 736.073 55.688C736.073 52.552 736.873 49.832 738.473 47.528C740.137 45.16 742.409 43.336 745.289 42.056C748.233 40.712 751.625 40.04 755.465 40.04ZM755.465 43.976C751.241 43.976 747.785 45.064 745.097 47.24C742.409 49.352 741.065 52.168 741.065 55.688C741.065 59.208 742.409 62.056 745.097 64.232C747.785 66.408 751.241 67.496 755.465 67.496C759.689 67.496 763.113 66.408 765.737 64.232C768.425 62.056 769.769 59.208 769.769 55.688C769.769 52.168 768.425 49.352 765.737 47.24C763.113 45.064 759.689 43.976 755.465 43.976Z" fill="white"/>
</svg>
