<svg width="275" height="33" viewBox="0 0 275 33" fill="none" xmlns="http://www.w3.org/2000/svg">
<path d="M13.848 13.848C13.848 14.3493 13.6827 14.7653 13.352 15.096C13.032 15.4267 12.6053 15.592 12.072 15.592C11.5493 15.592 11.1387 15.4427 10.84 15.144C10.552 14.8347 10.408 14.4293 10.408 13.928V13.384C10.408 12.648 10.152 12.0507 9.64 11.592C9.128 11.1333 8.424 10.904 7.528 10.904C6.71733 10.904 5.992 11.1387 5.352 11.608C4.72267 12.0773 4.22667 12.7387 3.864 13.592C3.512 14.4347 3.336 15.432 3.336 16.584C3.336 17.9707 3.57067 19.1493 4.04 20.12C4.50933 21.08 5.15467 21.8107 5.976 22.312C6.79733 22.8133 7.73067 23.064 8.776 23.064C9.78933 23.064 10.664 22.8293 11.4 22.36C12.1467 21.8907 12.68 21.256 13 20.456C13.1173 20.296 13.2187 20.1893 13.304 20.136C13.3893 20.072 13.4853 20.04 13.592 20.04C13.72 20.04 13.8107 20.0987 13.864 20.216C13.928 20.3227 13.9547 20.4507 13.944 20.6C13.8587 21.4853 13.5387 22.2907 12.984 23.016C12.4293 23.7413 11.6987 24.3173 10.792 24.744C9.88533 25.16 8.85067 25.368 7.688 25.368C6.22667 25.368 4.936 25.0587 3.816 24.44C2.70667 23.8213 1.83733 22.9467 1.208 21.816C0.578667 20.6853 0.264 19.352 0.264 17.816C0.264 16.3013 0.584 14.936 1.224 13.72C1.864 12.504 2.76 11.5387 3.912 10.824C5.07467 10.1093 6.43467 9.752 7.992 9.752C9.19733 9.752 10.2373 9.944 11.112 10.328C11.9973 10.7013 12.6747 11.1973 13.144 11.816C13.6133 12.4347 13.848 13.112 13.848 13.848ZM23.1783 9.768C24.7143 9.768 26.0743 10.0987 27.2583 10.76C28.4423 11.4213 29.3649 12.344 30.0262 13.528C30.6983 14.7013 31.0343 16.056 31.0343 17.592C31.0343 19.0853 30.6929 20.4187 30.0103 21.592C29.3383 22.7653 28.4049 23.688 27.2103 24.36C26.0156 25.032 24.6289 25.368 23.0503 25.368C21.5143 25.368 20.1543 25.0373 18.9703 24.376C17.7969 23.704 16.8743 22.7813 16.2023 21.608C15.5302 20.4347 15.1942 19.0853 15.1942 17.56C15.1942 16.0453 15.5302 14.7067 16.2023 13.544C16.8849 12.3707 17.8236 11.448 19.0182 10.776C20.2129 10.104 21.5996 9.768 23.1783 9.768ZM24.2503 24.104C25.1356 23.9867 25.8556 23.6293 26.4103 23.032C26.9649 22.424 27.3383 21.608 27.5303 20.584C27.7223 19.56 27.7063 18.3547 27.4823 16.968C27.2583 15.56 26.8849 14.392 26.3623 13.464C25.8396 12.536 25.2049 11.864 24.4583 11.448C23.7116 11.032 22.8849 10.888 21.9783 11.016C21.0929 11.144 20.3729 11.5067 19.8183 12.104C19.2636 12.7013 18.8903 13.512 18.6983 14.536C18.5169 15.56 18.5383 16.7707 18.7623 18.168C18.9863 19.5653 19.3596 20.728 19.8823 21.656C20.4049 22.584 21.0396 23.256 21.7863 23.672C22.5329 24.088 23.3543 24.232 24.2503 24.104ZM37.522 10.616V12.616L37.634 12.872V30.392C37.634 30.6693 37.682 30.8773 37.778 31.016C37.8847 31.1547 38.0393 31.2453 38.242 31.288L39.346 31.464C39.5273 31.5067 39.6607 31.5707 39.746 31.656C39.8313 31.7413 39.874 31.848 39.874 31.976C39.874 32.1253 39.8207 32.2427 39.714 32.328C39.6073 32.4133 39.4367 32.456 39.202 32.456H33.09C32.866 32.456 32.7007 32.4133 32.594 32.328C32.4873 32.2427 32.434 32.1253 32.434 31.976C32.434 31.8587 32.4767 31.7573 32.562 31.672C32.6473 31.5867 32.7753 31.5173 32.946 31.464L33.698 31.304C33.9007 31.2507 34.0553 31.1547 34.162 31.016C34.2687 30.8773 34.322 30.6747 34.322 30.408V12.792C34.322 12.568 34.2847 12.408 34.21 12.312C34.1353 12.216 34.0073 12.1573 33.826 12.136L32.738 12.088C32.5673 12.0667 32.4447 12.024 32.37 11.96C32.2953 11.8853 32.258 11.7893 32.258 11.672C32.258 11.544 32.3007 11.4427 32.386 11.368C32.4713 11.2933 32.6207 11.2133 32.834 11.128L35.506 10.168C35.8047 10.0507 36.05 9.97067 36.242 9.928C36.434 9.88533 36.6047 9.864 36.754 9.864C37.01 9.864 37.202 9.93333 37.33 10.072C37.458 10.2 37.522 10.3813 37.522 10.616ZM36.914 14.328L36.418 13.56C37.2393 12.3547 38.178 11.4213 39.234 10.76C40.29 10.088 41.442 9.752 42.69 9.752C43.938 9.752 45.0473 10.072 46.018 10.712C46.9887 11.3413 47.7513 12.2213 48.306 13.352C48.8713 14.472 49.154 15.7573 49.154 17.208C49.154 18.8827 48.8287 20.3333 48.178 21.56C47.5273 22.776 46.6473 23.7147 45.538 24.376C44.4287 25.0373 43.1913 25.368 41.826 25.368C40.578 25.368 39.4687 25.0693 38.498 24.472C37.538 23.864 36.7593 22.9947 36.162 21.864L36.898 21.128C37.4313 22.0667 38.0713 22.7813 38.818 23.272C39.5647 23.7627 40.37 24.008 41.234 24.008C42.0767 24.008 42.834 23.7787 43.506 23.32C44.178 22.8507 44.706 22.1413 45.09 21.192C45.4847 20.2427 45.682 19.048 45.682 17.608C45.682 16.232 45.4953 15.0853 45.122 14.168C44.7487 13.2507 44.2367 12.5627 43.586 12.104C42.946 11.6347 42.2153 11.4 41.394 11.4C40.562 11.4 39.762 11.6453 38.994 12.136C38.2367 12.616 37.5433 13.3467 36.914 14.328ZM56.0557 10.632V22.936C56.0557 23.2027 56.1037 23.4053 56.1997 23.544C56.3064 23.6827 56.4611 23.7787 56.6637 23.832L57.4157 23.992C57.5971 24.0453 57.7304 24.1147 57.8157 24.2C57.9011 24.2853 57.9437 24.392 57.9437 24.52C57.9437 24.6693 57.8851 24.7867 57.7677 24.872C57.6611 24.9573 57.4957 25 57.2717 25H51.4797C51.2557 25 51.0904 24.9573 50.9837 24.872C50.8771 24.7867 50.8237 24.6693 50.8237 24.52C50.8237 24.392 50.8664 24.2907 50.9517 24.216C51.0371 24.1307 51.1651 24.0613 51.3357 24.008L52.1197 23.832C52.3224 23.7787 52.4717 23.688 52.5677 23.56C52.6744 23.4213 52.7277 23.2187 52.7277 22.952V12.808C52.7277 12.584 52.6904 12.424 52.6157 12.328C52.5411 12.232 52.4184 12.1733 52.2477 12.152L51.1437 12.12C50.9837 12.088 50.8664 12.04 50.7917 11.976C50.7171 11.9013 50.6797 11.8053 50.6797 11.688C50.6797 11.56 50.7224 11.4587 50.8077 11.384C50.8931 11.2987 51.0424 11.2187 51.2557 11.144L54.0397 10.184C54.3597 10.0667 54.6104 9.98667 54.7917 9.944C54.9837 9.90133 55.1491 9.88 55.2877 9.88C55.5437 9.88 55.7357 9.94933 55.8637 10.088C55.9917 10.216 56.0557 10.3973 56.0557 10.632ZM54.0717 6.936C53.3891 6.936 52.8397 6.74933 52.4237 6.376C52.0077 5.992 51.7997 5.50667 51.7997 4.92C51.7997 4.32266 52.0077 3.83733 52.4237 3.464C52.8504 3.09067 53.3997 2.904 54.0717 2.904C54.7437 2.904 55.2931 3.096 55.7197 3.48C56.1464 3.85333 56.3597 4.33333 56.3597 4.92C56.3597 5.50667 56.1464 5.992 55.7197 6.376C55.2931 6.74933 54.7437 6.936 54.0717 6.936ZM64.4548 10.632V22.936C64.4548 23.2027 64.5028 23.4053 64.5988 23.544C64.7054 23.6827 64.8601 23.7787 65.0628 23.832L65.8148 24.008C66.1241 24.104 66.2788 24.264 66.2788 24.488C66.2788 24.8293 66.0548 25 65.6068 25H59.8787C59.6547 25 59.4894 24.9573 59.3827 24.872C59.2761 24.7867 59.2227 24.6693 59.2227 24.52C59.2227 24.392 59.2654 24.2907 59.3507 24.216C59.4361 24.1307 59.5641 24.0613 59.7347 24.008L60.5187 23.832C60.7214 23.7787 60.8761 23.688 60.9827 23.56C61.0894 23.4213 61.1428 23.2187 61.1428 22.952V12.808C61.1428 12.584 61.1054 12.424 61.0308 12.328C60.9561 12.232 60.8281 12.1733 60.6467 12.152L59.5587 12.12C59.3881 12.088 59.2654 12.04 59.1907 11.976C59.1161 11.9013 59.0787 11.8053 59.0787 11.688C59.0787 11.56 59.1214 11.4587 59.2067 11.384C59.2921 11.2987 59.4414 11.2187 59.6547 11.144L62.4388 10.184C62.7481 10.0773 62.9988 10.0027 63.1908 9.96C63.3828 9.90667 63.5534 9.88 63.7028 9.88C63.9588 9.88 64.1454 9.94933 64.2628 10.088C64.3908 10.216 64.4548 10.3973 64.4548 10.632ZM64.0227 13.992L63.4468 13.4L64.1348 12.808C65.3721 11.7093 66.4334 10.9253 67.3188 10.456C68.2148 9.98667 69.0734 9.752 69.8948 9.752C71.1534 9.752 72.1241 10.168 72.8068 11C73.5001 11.832 73.9268 12.9627 74.0868 14.392L75.0948 22.872C75.1268 23.16 75.1908 23.384 75.2868 23.544C75.3934 23.6933 75.5588 23.7947 75.7828 23.848L76.4708 24.008C76.6414 24.0613 76.7641 24.1307 76.8388 24.216C76.9241 24.2907 76.9668 24.392 76.9668 24.52C76.9668 24.6693 76.9134 24.7867 76.8068 24.872C76.7108 24.9573 76.5508 25 76.3267 25H70.5508C70.0921 25 69.8628 24.8293 69.8628 24.488C69.8628 24.264 70.0174 24.104 70.3268 24.008L71.1108 23.832C71.3348 23.7787 71.5054 23.6773 71.6228 23.528C71.7401 23.3787 71.7828 23.16 71.7508 22.872L70.7748 14.888C70.6468 13.832 70.3748 13.0427 69.9588 12.52C69.5428 11.9867 68.9348 11.72 68.1348 11.72C67.6334 11.72 67.1001 11.8587 66.5347 12.136C65.9801 12.4133 65.3668 12.8347 64.6948 13.4L64.0227 13.992ZM87.1097 24.056C88.5924 24.2907 89.7657 24.5947 90.6297 24.968C91.4937 25.3413 92.1071 25.7893 92.4697 26.312C92.8324 26.8453 93.0137 27.4747 93.0137 28.2C93.0137 29.5653 92.3044 30.68 90.8857 31.544C89.4671 32.408 87.4244 32.84 84.7577 32.84C82.9551 32.84 81.5044 32.6747 80.4057 32.344C79.3071 32.024 78.5071 31.5867 78.0057 31.032C77.5151 30.4773 77.2697 29.848 77.2697 29.144C77.2697 28.2693 77.6964 27.48 78.5497 26.776C79.4031 26.072 80.9071 25.5867 83.0617 25.32L83.3657 25.768C82.2031 25.9173 81.3231 26.2427 80.7257 26.744C80.1391 27.2453 79.8457 27.816 79.8457 28.456C79.8457 29.4267 80.2564 30.216 81.0777 30.824C81.8991 31.432 83.2911 31.736 85.2537 31.736C86.3737 31.736 87.2911 31.6293 88.0057 31.416C88.7204 31.2133 89.2484 30.9147 89.5897 30.52C89.9311 30.1253 90.1017 29.6613 90.1017 29.128C90.1017 28.7227 89.9631 28.36 89.6857 28.04C89.4191 27.7307 88.9337 27.448 88.2297 27.192C87.5364 26.936 86.5497 26.696 85.2697 26.472C83.7124 26.2053 82.5284 25.928 81.7177 25.64C80.9177 25.3627 80.3684 25.0533 80.0697 24.712C79.7817 24.36 79.6377 23.96 79.6377 23.512C79.6377 23.128 79.7391 22.7653 79.9417 22.424C80.1444 22.0827 80.4911 21.7787 80.9817 21.512C81.4724 21.2347 82.1497 21.0267 83.0137 20.888L83.3977 21.096C83.0031 21.2773 82.7204 21.4587 82.5497 21.64C82.3897 21.8213 82.3097 22.0187 82.3097 22.232C82.3097 22.424 82.4004 22.616 82.5817 22.808C82.7631 22.9893 83.1897 23.1813 83.8617 23.384C84.5444 23.576 85.6271 23.8 87.1097 24.056ZM87.7817 11.352L88.2777 10.44C88.7257 9.55467 89.2591 8.888 89.8777 8.44C90.4964 7.98133 91.1577 7.752 91.8617 7.752C92.4697 7.752 92.9604 7.91733 93.3337 8.248C93.7071 8.57867 93.8937 9.02133 93.8937 9.576C93.8937 10.0453 93.7764 10.424 93.5417 10.712C93.3177 10.9893 93.0084 11.128 92.6137 11.128C92.3257 11.128 92.0964 11.0587 91.9257 10.92C91.7551 10.7707 91.6004 10.6053 91.4617 10.424C91.3337 10.232 91.1897 10.0667 91.0297 9.928C90.8804 9.77867 90.6777 9.704 90.4217 9.704C90.1124 9.704 89.8244 9.82667 89.5577 10.072C89.3017 10.3173 88.9711 10.7973 88.5657 11.512L87.7817 11.352ZM91.7497 15.48C91.7497 16.6853 91.4457 17.7467 90.8377 18.664C90.2404 19.5707 89.4031 20.28 88.3257 20.792C87.2591 21.304 86.0377 21.56 84.6617 21.56C83.2964 21.56 82.1017 21.3093 81.0777 20.808C80.0644 20.3067 79.2697 19.6293 78.6937 18.776C78.1284 17.912 77.8457 16.9467 77.8457 15.88C77.8457 14.6747 78.1444 13.6187 78.7417 12.712C79.3497 11.7947 80.1871 11.08 81.2537 10.568C82.3204 10.0453 83.5524 9.784 84.9497 9.784C86.3257 9.784 87.5204 10.0347 88.5337 10.536C89.5471 11.0373 90.3364 11.72 90.9017 12.584C91.4671 13.4373 91.7497 14.4027 91.7497 15.48ZM84.3417 10.84C83.6377 10.8613 83.0511 11.064 82.5817 11.448C82.1124 11.8213 81.7711 12.36 81.5577 13.064C81.3444 13.768 81.2697 14.6107 81.3337 15.592C81.4084 16.6053 81.6164 17.4853 81.9577 18.232C82.2991 18.9787 82.7471 19.544 83.3017 19.928C83.8671 20.312 84.5124 20.4933 85.2377 20.472C86.2937 20.4293 87.0831 19.9973 87.6057 19.176C88.1391 18.344 88.3524 17.192 88.2457 15.72C88.1391 14.184 87.7337 12.9787 87.0297 12.104C86.3364 11.2187 85.4404 10.7973 84.3417 10.84ZM119.944 25.608C118.792 25.608 117.752 25.4373 116.824 25.096C115.896 24.7547 115.027 24.2213 114.216 23.496C113.416 22.7707 112.627 21.8373 111.848 20.696C111.08 19.5547 110.44 18.4507 109.928 17.384C109.416 16.3173 109.027 15.2667 108.76 14.232C108.504 13.1973 108.376 12.1627 108.376 11.128C108.376 9.944 108.606 8.888 109.064 7.96C109.534 7.02133 110.2 6.28533 111.064 5.752C111.928 5.208 112.952 4.936 114.136 4.936C115.043 4.936 115.838 5.11733 116.52 5.48C117.203 5.84267 117.731 6.344 118.104 6.984C118.488 7.624 118.68 8.35467 118.68 9.176C118.68 10.2107 118.403 11.1173 117.848 11.896C117.304 12.6747 116.51 13.3093 115.464 13.8C114.419 14.28 113.155 14.584 111.672 14.712L111.528 14.056C112.435 13.928 113.208 13.656 113.848 13.24C114.499 12.824 114.995 12.2587 115.336 11.544C115.678 10.8187 115.848 9.94933 115.848 8.936C115.848 8.01867 115.672 7.272 115.32 6.696C114.979 6.12 114.526 5.832 113.96 5.832C113.182 5.832 112.547 6.2 112.056 6.936C111.566 7.66133 111.32 8.648 111.32 9.896C111.32 10.8667 111.448 11.8427 111.704 12.824C111.971 13.7947 112.355 14.7813 112.856 15.784C113.368 16.7867 113.982 17.8107 114.696 18.856C115.56 20.0933 116.344 21.0907 117.048 21.848C117.752 22.5947 118.44 23.1387 119.112 23.48C119.784 23.8213 120.488 23.992 121.224 23.992C122.259 23.992 123.187 23.736 124.008 23.224C124.84 22.7013 125.491 21.912 125.96 20.856C126.44 19.7893 126.68 18.4507 126.68 16.84C126.68 14.8453 126.339 12.8933 125.656 10.984C124.984 9.07467 123.88 7.32533 122.344 5.736C120.958 4.30667 119.384 3.208 117.624 2.44C115.864 1.66133 113.918 1.272 111.784 1.272C110.056 1.272 108.632 1.512 107.512 1.992C106.392 2.472 105.56 3.112 105.016 3.912C104.472 4.70133 104.2 5.58133 104.2 6.552C104.2 6.968 104.254 7.32 104.36 7.608C104.478 7.896 104.611 8.15733 104.76 8.392C104.91 8.62667 105.043 8.87733 105.16 9.144C105.278 9.41067 105.336 9.74133 105.336 10.136C105.336 10.5947 105.171 10.9787 104.84 11.288C104.51 11.5867 104.088 11.736 103.576 11.736C102.926 11.736 102.414 11.4427 102.04 10.856C101.667 10.2587 101.48 9.48533 101.48 8.536C101.48 6.85067 101.891 5.39467 102.712 4.168C103.544 2.93067 104.734 1.976 106.28 1.304C107.827 0.621332 109.683 0.279999 111.848 0.279999C114.099 0.279999 116.174 0.685332 118.072 1.496C119.982 2.296 121.683 3.464 123.176 5C124.744 6.58933 125.907 8.38667 126.664 10.392C127.432 12.3973 127.816 14.5147 127.816 16.744C127.816 18.6427 127.496 20.2533 126.856 21.576C126.227 22.8987 125.326 23.9013 124.152 24.584C122.979 25.2667 121.576 25.608 119.944 25.608ZM116.376 21.816C117.155 21.24 117.774 20.696 118.232 20.184C118.702 19.6613 119.038 19.1653 119.24 18.696C119.454 18.2267 119.56 17.7733 119.56 17.336C119.56 16.984 119.512 16.6853 119.416 16.44C119.331 16.1947 119.24 15.96 119.144 15.736C119.048 15.512 119 15.256 119 14.968C119 14.4987 119.15 14.104 119.448 13.784C119.747 13.4533 120.136 13.288 120.616 13.288C121.107 13.288 121.502 13.4853 121.8 13.88C122.11 14.2747 122.264 14.8187 122.264 15.512C122.264 16.7707 121.816 17.9813 120.92 19.144C120.035 20.296 118.675 21.368 116.84 22.36L116.376 21.816ZM109.416 15C108.424 15.16 107.608 15.4693 106.968 15.928C106.328 16.3867 105.854 16.9467 105.544 17.608C105.246 18.2587 105.096 18.968 105.096 19.736C105.096 21.0373 105.47 22.0773 106.216 22.856C106.963 23.624 107.939 24.008 109.144 24.008C110.03 24.008 110.819 23.8587 111.512 23.56C112.206 23.2613 112.883 22.8507 113.544 22.328L114.104 23.048C113.528 23.5493 112.915 23.9813 112.264 24.344C111.614 24.7067 110.894 24.984 110.104 25.176C109.326 25.3787 108.446 25.48 107.464 25.48C105.576 25.48 104.104 25.0373 103.048 24.152C102.003 23.2667 101.48 22.0347 101.48 20.456C101.48 19.3467 101.774 18.3493 102.36 17.464C102.958 16.5787 103.843 15.8587 105.016 15.304C106.19 14.7387 107.656 14.3813 109.416 14.232V15ZM140.278 2.168V23.08L138.758 24.92C138.427 25.08 138.182 25.1867 138.022 25.24C137.872 25.304 137.718 25.336 137.558 25.336C137.387 25.336 137.243 25.2827 137.126 25.176C137.019 25.0693 136.966 24.9093 136.966 24.696V4.344C136.966 4.12 136.928 3.96 136.854 3.864C136.779 3.75733 136.656 3.69867 136.486 3.688L135.382 3.64C135.211 3.61867 135.088 3.57067 135.014 3.496C134.95 3.42133 134.918 3.33067 134.918 3.224C134.918 3.096 134.955 2.98933 135.03 2.904C135.115 2.81867 135.27 2.73867 135.494 2.664L138.262 1.72C138.582 1.60267 138.832 1.52267 139.014 1.48C139.206 1.42667 139.371 1.4 139.51 1.4C139.776 1.4 139.968 1.46933 140.086 1.608C140.214 1.74667 140.278 1.93333 140.278 2.168ZM139.558 14.312L139.078 13.544C139.899 12.328 140.832 11.3947 141.878 10.744C142.934 10.0827 144.08 9.752 145.318 9.752C146.566 9.752 147.675 10.072 148.646 10.712C149.627 11.3413 150.395 12.2213 150.95 13.352C151.515 14.472 151.798 15.7573 151.798 17.208C151.798 18.8827 151.467 20.328 150.806 21.544C150.155 22.76 149.275 23.704 148.166 24.376C147.056 25.0373 145.814 25.368 144.438 25.368C143.19 25.368 142.08 25.064 141.11 24.456C140.15 23.848 139.371 22.9893 138.774 21.88L139.51 21.144C140.043 22.0827 140.683 22.7973 141.43 23.288C142.187 23.768 143.003 24.008 143.878 24.008C144.71 24.008 145.462 23.7787 146.134 23.32C146.806 22.8507 147.334 22.1413 147.718 21.192C148.112 20.232 148.31 19.032 148.31 17.592C148.31 16.2267 148.123 15.0853 147.75 14.168C147.387 13.2507 146.88 12.5627 146.23 12.104C145.59 11.6347 144.859 11.4 144.038 11.4C143.206 11.4 142.406 11.64 141.638 12.12C140.88 12.6 140.187 13.3307 139.558 14.312ZM161.288 9.768C162.824 9.768 164.184 10.0987 165.368 10.76C166.552 11.4213 167.475 12.344 168.136 13.528C168.808 14.7013 169.144 16.056 169.144 17.592C169.144 19.0853 168.803 20.4187 168.12 21.592C167.448 22.7653 166.515 23.688 165.32 24.36C164.126 25.032 162.739 25.368 161.16 25.368C159.624 25.368 158.264 25.0373 157.08 24.376C155.907 23.704 154.984 22.7813 154.312 21.608C153.64 20.4347 153.304 19.0853 153.304 17.56C153.304 16.0453 153.64 14.7067 154.312 13.544C154.995 12.3707 155.934 11.448 157.128 10.776C158.323 10.104 159.71 9.768 161.288 9.768ZM162.36 24.104C163.246 23.9867 163.966 23.6293 164.52 23.032C165.075 22.424 165.448 21.608 165.64 20.584C165.832 19.56 165.816 18.3547 165.592 16.968C165.368 15.56 164.995 14.392 164.472 13.464C163.95 12.536 163.315 11.864 162.568 11.448C161.822 11.032 160.995 10.888 160.088 11.016C159.203 11.144 158.483 11.5067 157.928 12.104C157.374 12.7013 157 13.512 156.808 14.536C156.627 15.56 156.648 16.7707 156.872 18.168C157.096 19.5653 157.47 20.728 157.992 21.656C158.515 22.584 159.15 23.256 159.896 23.672C160.643 24.088 161.464 24.232 162.36 24.104ZM176.032 2.168V22.936C176.032 23.2027 176.085 23.4053 176.192 23.544C176.299 23.6827 176.453 23.7787 176.656 23.832L177.408 23.992C177.579 24.0453 177.707 24.1147 177.792 24.2C177.877 24.2853 177.92 24.392 177.92 24.52C177.92 24.6693 177.867 24.7867 177.76 24.872C177.653 24.9573 177.483 25 177.248 25H171.456C171.243 25 171.083 24.9573 170.976 24.872C170.869 24.7867 170.816 24.6693 170.816 24.52C170.816 24.392 170.853 24.2853 170.928 24.2C171.013 24.1147 171.147 24.0507 171.328 24.008L172.112 23.832C172.315 23.7787 172.464 23.688 172.56 23.56C172.667 23.4213 172.72 23.2187 172.72 22.952V4.344C172.72 4.12 172.683 3.96 172.608 3.864C172.533 3.75733 172.411 3.69867 172.24 3.688L171.136 3.64C170.965 3.61867 170.843 3.57067 170.768 3.496C170.704 3.42133 170.672 3.33067 170.672 3.224C170.672 3.096 170.709 2.98933 170.784 2.904C170.869 2.81867 171.024 2.73867 171.248 2.664L174.016 1.72C174.336 1.60267 174.592 1.52267 174.784 1.48C174.976 1.42667 175.136 1.4 175.264 1.4C175.531 1.4 175.723 1.46933 175.84 1.608C175.968 1.74667 176.032 1.93333 176.032 2.168ZM185.757 24.28C186.546 24.28 187.17 24.072 187.629 23.656C188.098 23.2293 188.333 22.6853 188.333 22.024C188.333 21.608 188.231 21.2347 188.029 20.904C187.837 20.5627 187.485 20.2587 186.973 19.992C186.471 19.7147 185.757 19.4533 184.829 19.208C183.378 18.8667 182.242 18.4507 181.421 17.96C180.61 17.4693 180.034 16.9093 179.693 16.28C179.362 15.6507 179.197 14.9627 179.197 14.216C179.197 12.8613 179.677 11.7787 180.637 10.968C181.597 10.1573 182.962 9.752 184.733 9.752C185.405 9.752 185.954 9.81067 186.381 9.928C186.818 10.0453 187.175 10.168 187.453 10.296C187.741 10.4133 187.986 10.472 188.189 10.472C188.391 10.472 188.551 10.4133 188.669 10.296C188.797 10.168 188.914 10.0453 189.021 9.928C189.138 9.81067 189.287 9.752 189.469 9.752C189.597 9.752 189.709 9.79467 189.805 9.88C189.901 9.95467 189.981 10.0987 190.045 10.312L191.197 13.784C191.282 14.0507 191.309 14.2747 191.277 14.456C191.245 14.6267 191.133 14.7493 190.941 14.824C190.77 14.8987 190.615 14.8987 190.477 14.824C190.338 14.7493 190.21 14.6213 190.093 14.44C189.623 13.5333 189.111 12.8187 188.557 12.296C188.002 11.7733 187.415 11.4 186.797 11.176C186.189 10.952 185.554 10.84 184.893 10.84C183.89 10.84 183.138 11.0533 182.637 11.48C182.135 11.9067 181.885 12.4773 181.885 13.192C181.885 13.6187 181.991 14.008 182.205 14.36C182.418 14.712 182.807 15.0373 183.373 15.336C183.938 15.6347 184.738 15.9173 185.773 16.184C187.053 16.4933 188.071 16.872 188.829 17.32C189.586 17.768 190.13 18.3013 190.461 18.92C190.802 19.5387 190.973 20.264 190.973 21.096C190.973 21.928 190.759 22.6693 190.333 23.32C189.917 23.96 189.325 24.4613 188.557 24.824C187.799 25.1867 186.914 25.368 185.901 25.368C185.25 25.368 184.722 25.2987 184.317 25.16C183.911 25.0213 183.575 24.8827 183.309 24.744C183.042 24.6053 182.791 24.536 182.557 24.536C182.354 24.536 182.189 24.6053 182.061 24.744C181.933 24.872 181.81 25.0053 181.693 25.144C181.575 25.2933 181.431 25.368 181.261 25.368C181.143 25.368 181.042 25.3253 180.957 25.24C180.871 25.1547 180.813 25.0107 180.781 24.808L180.077 21.544C180.013 21.2027 179.997 20.952 180.029 20.792C180.061 20.6213 180.157 20.504 180.317 20.44C180.498 20.3653 180.653 20.376 180.781 20.472C180.919 20.5573 181.058 20.7227 181.197 20.968C181.826 22.152 182.53 23 183.309 23.512C184.098 24.024 184.914 24.28 185.757 24.28ZM193.838 11.32L192.926 11.096C192.68 11.0213 192.51 10.9413 192.414 10.856C192.328 10.7707 192.286 10.6693 192.286 10.552C192.286 10.4027 192.339 10.2907 192.446 10.216C192.552 10.1307 192.696 10.088 192.878 10.088H193.95C194.206 10.088 194.414 10.0453 194.574 9.96C194.734 9.87467 194.878 9.72 195.006 9.496L196.398 7.096C196.536 6.872 196.68 6.712 196.83 6.616C196.979 6.50933 197.134 6.456 197.294 6.456C197.464 6.456 197.592 6.50933 197.678 6.616C197.774 6.72267 197.822 6.872 197.822 7.064V21.112C197.822 21.8587 197.976 22.4293 198.286 22.824C198.595 23.208 199.016 23.4 199.55 23.4C199.923 23.4 200.216 23.3413 200.43 23.224C200.643 23.096 200.814 22.9467 200.942 22.776C201.08 22.6053 201.203 22.4507 201.31 22.312C201.427 22.1733 201.56 22.088 201.71 22.056C201.838 22.0453 201.934 22.0827 201.998 22.168C202.072 22.2427 202.11 22.3707 202.11 22.552C202.088 23.0213 201.912 23.464 201.582 23.88C201.262 24.296 200.819 24.632 200.254 24.888C199.688 25.144 199.043 25.272 198.318 25.272C197.155 25.272 196.227 24.9733 195.534 24.376C194.851 23.768 194.51 22.856 194.51 21.64V12.184C194.51 11.9387 194.462 11.752 194.366 11.624C194.27 11.496 194.094 11.3947 193.838 11.32ZM196.382 11.24V10.088H201.358C201.56 10.088 201.715 10.1253 201.822 10.2C201.928 10.2747 201.982 10.3867 201.982 10.536C201.982 10.7387 201.875 10.9093 201.662 11.048C201.459 11.176 201.134 11.24 200.686 11.24H196.382ZM217.117 15.736C217.117 16.184 216.984 16.5307 216.717 16.776C216.451 17.0107 216.067 17.128 215.565 17.128H205.373V16.184H212.989C213.48 16.184 213.725 15.9653 213.725 15.528C213.725 14.0667 213.421 12.9307 212.813 12.12C212.205 11.3093 211.389 10.904 210.365 10.904C209.565 10.904 208.861 11.1387 208.253 11.608C207.645 12.0667 207.171 12.7227 206.829 13.576C206.488 14.4293 206.317 15.432 206.317 16.584C206.317 18.7173 206.819 20.3387 207.821 21.448C208.835 22.5467 210.157 23.096 211.789 23.096C212.845 23.096 213.757 22.8507 214.525 22.36C215.304 21.8693 215.848 21.2133 216.157 20.392C216.275 20.232 216.376 20.12 216.461 20.056C216.547 19.992 216.637 19.96 216.733 19.96C216.861 19.96 216.957 20.0187 217.021 20.136C217.085 20.2533 217.112 20.392 217.101 20.552C217.037 21.4373 216.723 22.248 216.157 22.984C215.592 23.7093 214.84 24.2907 213.901 24.728C212.963 25.1547 211.896 25.368 210.701 25.368C209.229 25.368 207.928 25.0587 206.797 24.44C205.677 23.8107 204.803 22.9307 204.173 21.8C203.555 20.6693 203.245 19.3467 203.245 17.832C203.245 16.2747 203.549 14.8933 204.157 13.688C204.776 12.472 205.651 11.512 206.781 10.808C207.912 10.104 209.251 9.752 210.797 9.752C212.088 9.752 213.203 10.008 214.141 10.52C215.091 11.032 215.821 11.736 216.333 12.632C216.856 13.528 217.117 14.5627 217.117 15.736ZM223.445 16.728C223.445 15.2133 223.664 13.9387 224.101 12.904C224.549 11.8693 225.125 11.0853 225.829 10.552C226.544 10.0187 227.296 9.752 228.085 9.752C229.035 9.752 229.765 10.0133 230.277 10.536C230.8 11.0587 231.061 11.784 231.061 12.712C231.061 13.4373 230.907 13.9867 230.597 14.36C230.288 14.7227 229.888 14.904 229.397 14.904C228.907 14.904 228.523 14.7707 228.245 14.504C227.979 14.2267 227.845 13.8373 227.845 13.336V12.808C227.845 12.4453 227.76 12.1787 227.589 12.008C227.419 11.8267 227.141 11.736 226.757 11.736C226.309 11.736 225.867 11.9227 225.429 12.296C225.003 12.6587 224.651 13.208 224.373 13.944C224.096 14.68 223.957 15.608 223.957 16.728H223.445ZM223.797 10.648L223.957 14.568V22.92C223.957 23.176 224.016 23.3733 224.133 23.512C224.261 23.64 224.464 23.7253 224.741 23.768L226.197 23.976C226.4 24.008 226.549 24.0667 226.645 24.152C226.741 24.2373 226.789 24.3547 226.789 24.504C226.789 24.664 226.731 24.7867 226.613 24.872C226.507 24.9573 226.341 25 226.117 25H219.397C219.173 25 219.008 24.9573 218.901 24.872C218.795 24.776 218.741 24.6587 218.741 24.52C218.741 24.392 218.779 24.2853 218.853 24.2C218.939 24.1147 219.067 24.0507 219.237 24.008L220.037 23.832C220.229 23.7787 220.379 23.688 220.485 23.56C220.592 23.4213 220.645 23.2187 220.645 22.952V12.824C220.645 12.6 220.608 12.44 220.533 12.344C220.459 12.248 220.336 12.1893 220.165 12.168L219.045 12.12C218.885 12.0987 218.768 12.056 218.693 11.992C218.619 11.9173 218.581 11.8213 218.581 11.704C218.581 11.576 218.624 11.4693 218.709 11.384C218.795 11.2987 218.944 11.224 219.157 11.16L221.909 10.232C222.283 10.0827 222.565 9.98667 222.757 9.944C222.949 9.90133 223.099 9.88 223.205 9.88C223.397 9.88 223.536 9.93867 223.621 10.056C223.717 10.1733 223.776 10.3707 223.797 10.648ZM237.169 10.632V22.936C237.169 23.2027 237.217 23.4053 237.313 23.544C237.42 23.6827 237.575 23.7787 237.777 23.832L238.529 23.992C238.711 24.0453 238.844 24.1147 238.929 24.2C239.015 24.2853 239.057 24.392 239.057 24.52C239.057 24.6693 238.999 24.7867 238.882 24.872C238.775 24.9573 238.609 25 238.385 25H232.593C232.369 25 232.204 24.9573 232.097 24.872C231.991 24.7867 231.937 24.6693 231.937 24.52C231.937 24.392 231.98 24.2907 232.065 24.216C232.151 24.1307 232.279 24.0613 232.449 24.008L233.233 23.832C233.436 23.7787 233.585 23.688 233.681 23.56C233.788 23.4213 233.841 23.2187 233.841 22.952V12.808C233.841 12.584 233.804 12.424 233.729 12.328C233.655 12.232 233.532 12.1733 233.361 12.152L232.257 12.12C232.097 12.088 231.98 12.04 231.905 11.976C231.831 11.9013 231.793 11.8053 231.793 11.688C231.793 11.56 231.836 11.4587 231.921 11.384C232.007 11.2987 232.156 11.2187 232.369 11.144L235.153 10.184C235.473 10.0667 235.724 9.98667 235.905 9.944C236.097 9.90133 236.263 9.88 236.401 9.88C236.657 9.88 236.849 9.94933 236.977 10.088C237.105 10.216 237.169 10.3973 237.169 10.632ZM235.185 6.936C234.503 6.936 233.953 6.74933 233.537 6.376C233.121 5.992 232.913 5.50667 232.913 4.92C232.913 4.32266 233.121 3.83733 233.537 3.464C233.964 3.09067 234.513 2.904 235.185 2.904C235.857 2.904 236.407 3.096 236.833 3.48C237.26 3.85333 237.473 4.33333 237.473 4.92C237.473 5.50667 237.26 5.992 236.833 6.376C236.407 6.74933 235.857 6.936 235.185 6.936ZM245.569 10.632V22.936C245.569 23.2027 245.617 23.4053 245.713 23.544C245.819 23.6827 245.974 23.7787 246.177 23.832L246.929 24.008C247.238 24.104 247.393 24.264 247.393 24.488C247.393 24.8293 247.169 25 246.721 25H240.993C240.769 25 240.603 24.9573 240.497 24.872C240.39 24.7867 240.337 24.6693 240.337 24.52C240.337 24.392 240.379 24.2907 240.465 24.216C240.55 24.1307 240.678 24.0613 240.849 24.008L241.633 23.832C241.835 23.7787 241.99 23.688 242.097 23.56C242.203 23.4213 242.257 23.2187 242.257 22.952V12.808C242.257 12.584 242.219 12.424 242.145 12.328C242.07 12.232 241.942 12.1733 241.761 12.152L240.673 12.12C240.502 12.088 240.379 12.04 240.305 11.976C240.23 11.9013 240.193 11.8053 240.193 11.688C240.193 11.56 240.235 11.4587 240.321 11.384C240.406 11.2987 240.555 11.2187 240.769 11.144L243.553 10.184C243.862 10.0773 244.113 10.0027 244.305 9.96C244.497 9.90667 244.667 9.88 244.817 9.88C245.073 9.88 245.259 9.94933 245.377 10.088C245.505 10.216 245.569 10.3973 245.569 10.632ZM245.137 13.992L244.561 13.4L245.249 12.808C246.486 11.7093 247.547 10.9253 248.433 10.456C249.329 9.98667 250.187 9.752 251.009 9.752C252.267 9.752 253.238 10.168 253.921 11C254.614 11.832 255.041 12.9627 255.201 14.392L256.209 22.872C256.241 23.16 256.305 23.384 256.401 23.544C256.507 23.6933 256.673 23.7947 256.897 23.848L257.585 24.008C257.755 24.0613 257.878 24.1307 257.953 24.216C258.038 24.2907 258.081 24.392 258.081 24.52C258.081 24.6693 258.027 24.7867 257.921 24.872C257.825 24.9573 257.665 25 257.441 25H251.665C251.206 25 250.977 24.8293 250.977 24.488C250.977 24.264 251.131 24.104 251.441 24.008L252.225 23.832C252.449 23.7787 252.619 23.6773 252.737 23.528C252.854 23.3787 252.897 23.16 252.865 22.872L251.889 14.888C251.761 13.832 251.489 13.0427 251.073 12.52C250.657 11.9867 250.049 11.72 249.249 11.72C248.747 11.72 248.214 11.8587 247.649 12.136C247.094 12.4133 246.481 12.8347 245.809 13.4L245.137 13.992ZM268.224 24.056C269.706 24.2907 270.88 24.5947 271.744 24.968C272.608 25.3413 273.221 25.7893 273.584 26.312C273.946 26.8453 274.128 27.4747 274.128 28.2C274.128 29.5653 273.418 30.68 272 31.544C270.581 32.408 268.538 32.84 265.872 32.84C264.069 32.84 262.618 32.6747 261.52 32.344C260.421 32.024 259.621 31.5867 259.12 31.032C258.629 30.4773 258.384 29.848 258.384 29.144C258.384 28.2693 258.81 27.48 259.664 26.776C260.517 26.072 262.021 25.5867 264.176 25.32L264.48 25.768C263.317 25.9173 262.437 26.2427 261.84 26.744C261.253 27.2453 260.96 27.816 260.96 28.456C260.96 29.4267 261.37 30.216 262.192 30.824C263.013 31.432 264.405 31.736 266.368 31.736C267.488 31.736 268.405 31.6293 269.12 31.416C269.834 31.2133 270.362 30.9147 270.704 30.52C271.045 30.1253 271.216 29.6613 271.216 29.128C271.216 28.7227 271.077 28.36 270.8 28.04C270.533 27.7307 270.048 27.448 269.344 27.192C268.65 26.936 267.664 26.696 266.384 26.472C264.826 26.2053 263.642 25.928 262.832 25.64C262.032 25.3627 261.482 25.0533 261.184 24.712C260.896 24.36 260.752 23.96 260.752 23.512C260.752 23.128 260.853 22.7653 261.056 22.424C261.258 22.0827 261.605 21.7787 262.096 21.512C262.586 21.2347 263.264 21.0267 264.128 20.888L264.512 21.096C264.117 21.2773 263.834 21.4587 263.664 21.64C263.504 21.8213 263.424 22.0187 263.424 22.232C263.424 22.424 263.514 22.616 263.696 22.808C263.877 22.9893 264.304 23.1813 264.976 23.384C265.658 23.576 266.741 23.8 268.224 24.056ZM268.896 11.352L269.392 10.44C269.84 9.55467 270.373 8.888 270.992 8.44C271.61 7.98133 272.272 7.752 272.976 7.752C273.584 7.752 274.074 7.91733 274.448 8.248C274.821 8.57867 275.008 9.02133 275.008 9.576C275.008 10.0453 274.89 10.424 274.656 10.712C274.432 10.9893 274.122 11.128 273.728 11.128C273.44 11.128 273.21 11.0587 273.04 10.92C272.869 10.7707 272.714 10.6053 272.576 10.424C272.448 10.232 272.304 10.0667 272.144 9.928C271.994 9.77867 271.792 9.704 271.536 9.704C271.226 9.704 270.938 9.82667 270.672 10.072C270.416 10.3173 270.085 10.7973 269.68 11.512L268.896 11.352ZM272.864 15.48C272.864 16.6853 272.56 17.7467 271.952 18.664C271.354 19.5707 270.517 20.28 269.44 20.792C268.373 21.304 267.152 21.56 265.776 21.56C264.41 21.56 263.216 21.3093 262.192 20.808C261.178 20.3067 260.384 19.6293 259.808 18.776C259.242 17.912 258.96 16.9467 258.96 15.88C258.96 14.6747 259.258 13.6187 259.856 12.712C260.464 11.7947 261.301 11.08 262.368 10.568C263.434 10.0453 264.666 9.784 266.064 9.784C267.44 9.784 268.634 10.0347 269.648 10.536C270.661 11.0373 271.45 11.72 272.016 12.584C272.581 13.4373 272.864 14.4027 272.864 15.48ZM265.456 10.84C264.752 10.8613 264.165 11.064 263.696 11.448C263.226 11.8213 262.885 12.36 262.672 13.064C262.458 13.768 262.384 14.6107 262.448 15.592C262.522 16.6053 262.73 17.4853 263.072 18.232C263.413 18.9787 263.861 19.544 264.416 19.928C264.981 20.312 265.626 20.4933 266.352 20.472C267.408 20.4293 268.197 19.9973 268.72 19.176C269.253 18.344 269.466 17.192 269.36 15.72C269.253 14.184 268.848 12.9787 268.144 12.104C267.45 11.2187 266.554 10.7973 265.456 10.84Z" fill="white"/>
</svg>
