<svg width="350" height="34" viewBox="0 0 350 34" fill="none" xmlns="http://www.w3.org/2000/svg">
<path d="M302.951 23.776C304.434 24.0107 305.607 24.3147 306.471 24.688C307.335 25.0613 307.948 25.5093 308.311 26.032C308.674 26.5653 308.855 27.1947 308.855 27.92C308.855 29.2853 308.146 30.4 306.727 31.264C305.308 32.128 303.266 32.56 300.599 32.56C298.796 32.56 297.346 32.3947 296.247 32.064C295.148 31.744 294.348 31.3067 293.847 30.752C293.356 30.1973 293.111 29.568 293.111 28.864C293.111 27.9893 293.538 27.2 294.391 26.496C295.244 25.792 296.748 25.3067 298.903 25.04L299.207 25.488C298.044 25.6373 297.164 25.9627 296.567 26.464C295.98 26.9653 295.687 27.536 295.687 28.176C295.687 29.1467 296.098 29.936 296.919 30.544C297.74 31.152 299.132 31.456 301.095 31.456C302.215 31.456 303.132 31.3493 303.847 31.136C304.562 30.9333 305.09 30.6347 305.431 30.24C305.772 29.8453 305.943 29.3813 305.943 28.848C305.943 28.4427 305.804 28.08 305.527 27.76C305.26 27.4507 304.775 27.168 304.071 26.912C303.378 26.656 302.391 26.416 301.111 26.192C299.554 25.9253 298.37 25.648 297.559 25.36C296.759 25.0827 296.21 24.7733 295.911 24.432C295.623 24.08 295.479 23.68 295.479 23.232C295.479 22.848 295.58 22.4853 295.783 22.144C295.986 21.8027 296.332 21.4987 296.823 21.232C297.314 20.9547 297.991 20.7467 298.855 20.608L299.239 20.816C298.844 20.9973 298.562 21.1787 298.391 21.36C298.231 21.5413 298.151 21.7387 298.151 21.952C298.151 22.144 298.242 22.336 298.423 22.528C298.604 22.7093 299.031 22.9013 299.703 23.104C300.386 23.296 301.468 23.52 302.951 23.776ZM303.623 11.072L304.119 10.16C304.567 9.27465 305.1 8.60799 305.719 8.15998C306.338 7.70132 306.999 7.47198 307.703 7.47198C308.311 7.47198 308.802 7.63732 309.175 7.96799C309.548 8.29865 309.735 8.74132 309.735 9.29599C309.735 9.76532 309.618 10.144 309.383 10.432C309.159 10.7093 308.85 10.848 308.455 10.848C308.167 10.848 307.938 10.7787 307.767 10.64C307.596 10.4907 307.442 10.3253 307.303 10.144C307.175 9.95199 307.031 9.78665 306.871 9.64799C306.722 9.49865 306.519 9.42399 306.263 9.42399C305.954 9.42399 305.666 9.54665 305.399 9.79198C305.143 10.0373 304.812 10.5173 304.407 11.232L303.623 11.072ZM307.591 15.2C307.591 16.4053 307.287 17.4667 306.679 18.384C306.082 19.2907 305.244 20 304.167 20.512C303.1 21.024 301.879 21.28 300.503 21.28C299.138 21.28 297.943 21.0293 296.919 20.528C295.906 20.0267 295.111 19.3493 294.535 18.496C293.97 17.632 293.687 16.6667 293.687 15.6C293.687 14.3947 293.986 13.3387 294.583 12.432C295.191 11.5147 296.028 10.8 297.095 10.288C298.162 9.76532 299.394 9.50399 300.791 9.50399C302.167 9.50399 303.362 9.75465 304.375 10.256C305.388 10.7573 306.178 11.44 306.743 12.304C307.308 13.1573 307.591 14.1227 307.591 15.2ZM300.183 10.56C299.479 10.5813 298.892 10.784 298.423 11.168C297.954 11.5413 297.612 12.08 297.399 12.784C297.186 13.488 297.111 14.3307 297.175 15.312C297.25 16.3253 297.458 17.2053 297.799 17.952C298.14 18.6987 298.588 19.264 299.143 19.648C299.708 20.032 300.354 20.2133 301.079 20.192C302.135 20.1493 302.924 19.7173 303.447 18.896C303.98 18.064 304.194 16.912 304.087 15.44C303.98 13.904 303.575 12.6987 302.871 11.824C302.178 10.9387 301.282 10.5173 300.183 10.56Z" fill="white"/>
<path d="M280.296 10.352V22.656C280.296 22.9227 280.344 23.1253 280.44 23.264C280.547 23.4027 280.701 23.4987 280.904 23.552L281.656 23.728C281.965 23.824 282.12 23.984 282.12 24.208C282.12 24.5493 281.896 24.72 281.448 24.72H275.72C275.496 24.72 275.331 24.6773 275.224 24.592C275.117 24.5067 275.064 24.3893 275.064 24.24C275.064 24.112 275.107 24.0107 275.192 23.936C275.277 23.8507 275.405 23.7813 275.576 23.728L276.36 23.552C276.563 23.4987 276.717 23.408 276.824 23.28C276.931 23.1413 276.984 22.9387 276.984 22.672V12.528C276.984 12.304 276.947 12.144 276.872 12.048C276.797 11.952 276.669 11.8933 276.488 11.872L275.4 11.84C275.229 11.808 275.107 11.76 275.032 11.696C274.957 11.6213 274.92 11.5253 274.92 11.408C274.92 11.28 274.963 11.1787 275.048 11.104C275.133 11.0187 275.283 10.9387 275.496 10.864L278.28 9.90398C278.589 9.79732 278.84 9.72265 279.032 9.67999C279.224 9.62665 279.395 9.59999 279.544 9.59999C279.8 9.59999 279.987 9.66932 280.104 9.80799C280.232 9.93599 280.296 10.1173 280.296 10.352ZM279.864 13.712L279.288 13.12L279.976 12.528C281.213 11.4293 282.275 10.6453 283.16 10.176C284.056 9.70665 284.915 9.47198 285.736 9.47198C286.995 9.47198 287.965 9.88799 288.648 10.72C289.341 11.552 289.768 12.6827 289.928 14.112L290.936 22.592C290.968 22.88 291.032 23.104 291.128 23.264C291.235 23.4133 291.4 23.5147 291.624 23.568L292.312 23.728C292.483 23.7813 292.605 23.8507 292.68 23.936C292.765 24.0107 292.808 24.112 292.808 24.24C292.808 24.3893 292.755 24.5067 292.648 24.592C292.552 24.6773 292.392 24.72 292.168 24.72H286.392C285.933 24.72 285.704 24.5493 285.704 24.208C285.704 23.984 285.859 23.824 286.168 23.728L286.952 23.552C287.176 23.4987 287.347 23.3973 287.464 23.248C287.581 23.0987 287.624 22.88 287.592 22.592L286.616 14.608C286.488 13.552 286.216 12.7627 285.8 12.24C285.384 11.7067 284.776 11.44 283.976 11.44C283.475 11.44 282.941 11.5787 282.376 11.856C281.821 12.1333 281.208 12.5547 280.536 13.12L279.864 13.712Z" fill="white"/>
<path d="M271.897 10.352V22.656C271.897 22.9226 271.945 23.1253 272.041 23.264C272.148 23.4026 272.302 23.4986 272.505 23.552L273.257 23.712C273.438 23.7653 273.572 23.8346 273.657 23.92C273.742 24.0053 273.785 24.112 273.785 24.24C273.785 24.3893 273.726 24.5066 273.609 24.592C273.502 24.6773 273.337 24.72 273.113 24.72H267.321C267.097 24.72 266.932 24.6773 266.825 24.592C266.718 24.5066 266.665 24.3893 266.665 24.24C266.665 24.112 266.708 24.0106 266.793 23.936C266.878 23.8506 267.006 23.7813 267.177 23.728L267.961 23.552C268.164 23.4986 268.313 23.408 268.409 23.28C268.516 23.1413 268.569 22.9386 268.569 22.672V12.528C268.569 12.304 268.532 12.144 268.457 12.048C268.382 11.952 268.26 11.8933 268.089 11.872L266.985 11.84C266.825 11.808 266.708 11.76 266.633 11.696C266.558 11.6213 266.521 11.5253 266.521 11.408C266.521 11.28 266.564 11.1786 266.649 11.104C266.734 11.0186 266.884 10.9386 267.097 10.864L269.881 9.90396C270.201 9.78663 270.452 9.70663 270.633 9.66396C270.825 9.6213 270.99 9.59996 271.129 9.59996C271.385 9.59996 271.577 9.6693 271.705 9.80796C271.833 9.93596 271.897 10.1173 271.897 10.352ZM269.913 6.65596C269.23 6.65596 268.681 6.4693 268.265 6.09596C267.849 5.71196 267.641 5.22663 267.641 4.63996C267.641 4.04263 267.849 3.55729 268.265 3.18396C268.692 2.81063 269.241 2.62396 269.913 2.62396C270.585 2.62396 271.134 2.81596 271.561 3.19996C271.988 3.5733 272.201 4.0533 272.201 4.63996C272.201 5.22663 271.988 5.71196 271.561 6.09596C271.134 6.4693 270.585 6.65596 269.913 6.65596Z" fill="white"/>
<path d="M260.144 22.176L260.064 22.064V4.064C260.064 3.84 260.027 3.67999 259.952 3.58399C259.878 3.47733 259.755 3.41866 259.584 3.408L258.48 3.35999C258.31 3.33866 258.187 3.29066 258.112 3.21599C258.048 3.14133 258.016 3.05066 258.016 2.94399C258.016 2.81599 258.054 2.70933 258.128 2.62399C258.214 2.53866 258.368 2.45866 258.592 2.384L261.36 1.43999C261.67 1.32266 261.92 1.24266 262.112 1.2C262.304 1.14666 262.48 1.12 262.64 1.12C262.886 1.12 263.072 1.18933 263.2 1.328C263.328 1.46666 263.392 1.65333 263.392 1.88799V22.656C263.392 22.9227 263.44 23.1253 263.536 23.264C263.643 23.4027 263.798 23.4987 264 23.552L264.752 23.712C264.934 23.7653 265.067 23.8347 265.152 23.92C265.238 24.0053 265.28 24.112 265.28 24.24C265.28 24.3893 265.222 24.5067 265.104 24.592C264.998 24.6773 264.832 24.72 264.608 24.72H261.632C261.184 24.72 260.822 24.592 260.544 24.336C260.278 24.08 260.144 23.7067 260.144 23.216V22.176ZM248.56 17.632C248.56 15.9573 248.886 14.512 249.536 13.296C250.198 12.0693 251.083 11.1253 252.192 10.464C253.312 9.80266 254.55 9.47199 255.904 9.47199C257.152 9.47199 258.262 9.77599 259.232 10.384C260.203 10.992 260.982 11.8507 261.568 12.96L260.832 13.696C260.31 12.768 259.67 12.0587 258.912 11.568C258.166 11.0773 257.35 10.832 256.464 10.832C255.632 10.832 254.88 11.0667 254.208 11.536C253.536 11.9947 253.003 12.6987 252.608 13.648C252.224 14.5973 252.032 15.7973 252.032 17.248C252.032 18.6133 252.219 19.7547 252.592 20.672C252.966 21.5787 253.472 22.2667 254.112 22.736C254.763 23.1947 255.499 23.424 256.32 23.424C257.152 23.424 257.947 23.184 258.704 22.704C259.462 22.224 260.155 21.4987 260.784 20.528L261.28 21.296C260.459 22.512 259.52 23.4507 258.464 24.112C257.408 24.7627 256.267 25.088 255.04 25.088C253.792 25.088 252.678 24.7733 251.696 24.144C250.726 23.504 249.958 22.624 249.392 21.504C248.838 20.384 248.56 19.0933 248.56 17.632Z" fill="white"/>
<path d="M235.457 10.352V22.656C235.457 22.9227 235.505 23.1253 235.601 23.264C235.708 23.4027 235.863 23.4987 236.065 23.552L236.817 23.728C237.127 23.824 237.281 23.984 237.281 24.208C237.281 24.5493 237.057 24.72 236.609 24.72H230.881C230.657 24.72 230.492 24.6773 230.385 24.592C230.279 24.5067 230.225 24.3893 230.225 24.24C230.225 24.112 230.268 24.0107 230.353 23.936C230.439 23.8507 230.567 23.7813 230.737 23.728L231.521 23.552C231.724 23.4987 231.879 23.408 231.985 23.28C232.092 23.1413 232.145 22.9387 232.145 22.672V12.528C232.145 12.304 232.108 12.144 232.033 12.048C231.959 11.952 231.831 11.8933 231.649 11.872L230.561 11.84C230.391 11.808 230.268 11.76 230.193 11.696C230.119 11.6213 230.081 11.5253 230.081 11.408C230.081 11.28 230.124 11.1787 230.209 11.104C230.295 11.0187 230.444 10.9387 230.657 10.864L233.441 9.90398C233.751 9.79732 234.001 9.72265 234.193 9.67999C234.385 9.62665 234.556 9.59999 234.705 9.59999C234.961 9.59999 235.148 9.66932 235.265 9.80799C235.393 9.93599 235.457 10.1173 235.457 10.352ZM235.025 13.712L234.449 13.12L235.137 12.528C236.375 11.4293 237.436 10.6453 238.321 10.176C239.217 9.70665 240.076 9.47198 240.897 9.47198C242.156 9.47198 243.127 9.88799 243.809 10.72C244.503 11.552 244.929 12.6827 245.089 14.112L246.097 22.592C246.129 22.88 246.193 23.104 246.289 23.264C246.396 23.4133 246.561 23.5147 246.785 23.568L247.473 23.728C247.644 23.7813 247.767 23.8507 247.841 23.936C247.927 24.0107 247.969 24.112 247.969 24.24C247.969 24.3893 247.916 24.5067 247.809 24.592C247.713 24.6773 247.553 24.72 247.329 24.72H241.553C241.095 24.72 240.865 24.5493 240.865 24.208C240.865 23.984 241.02 23.824 241.329 23.728L242.113 23.552C242.337 23.4987 242.508 23.3973 242.625 23.248C242.743 23.0987 242.785 22.88 242.753 22.592L241.777 14.608C241.649 13.552 241.377 12.7627 240.961 12.24C240.545 11.7067 239.937 11.44 239.137 11.44C238.636 11.44 238.103 11.5787 237.537 11.856C236.983 12.1333 236.369 12.5547 235.697 13.12L235.025 13.712Z" fill="white"/>
<path d="M220.73 9.48798C222.266 9.48798 223.626 9.81864 224.81 10.48C225.994 11.1413 226.916 12.064 227.578 13.248C228.25 14.4213 228.586 15.776 228.586 17.312C228.586 18.8053 228.244 20.1386 227.562 21.312C226.89 22.4853 225.956 23.408 224.762 24.08C223.567 24.752 222.18 25.088 220.602 25.088C219.066 25.088 217.706 24.7573 216.522 24.096C215.348 23.424 214.426 22.5013 213.754 21.328C213.082 20.1546 212.746 18.8053 212.746 17.28C212.746 15.7653 213.082 14.4266 213.754 13.264C214.436 12.0906 215.375 11.168 216.57 10.496C217.764 9.82398 219.151 9.48798 220.73 9.48798ZM221.802 23.824C222.687 23.7066 223.407 23.3493 223.962 22.752C224.516 22.144 224.89 21.328 225.082 20.304C225.274 19.28 225.258 18.0746 225.034 16.688C224.81 15.28 224.436 14.112 223.914 13.184C223.391 12.256 222.756 11.584 222.01 11.168C221.263 10.752 220.436 10.608 219.53 10.736C218.644 10.864 217.924 11.2266 217.37 11.824C216.815 12.4213 216.442 13.232 216.25 14.256C216.068 15.28 216.09 16.4906 216.314 17.888C216.538 19.2853 216.911 20.448 217.434 21.376C217.956 22.304 218.591 22.976 219.338 23.392C220.084 23.808 220.906 23.952 221.802 23.824Z" fill="white"/>
<path d="M199.719 1.88799V22.8L198.199 24.64C197.868 24.8 197.623 24.9067 197.463 24.96C197.314 25.024 197.159 25.056 196.999 25.056C196.828 25.056 196.684 25.0027 196.567 24.896C196.46 24.7893 196.407 24.6293 196.407 24.416V4.064C196.407 3.84 196.37 3.67999 196.295 3.58399C196.22 3.47733 196.098 3.41866 195.927 3.408L194.823 3.35999C194.652 3.33866 194.53 3.29066 194.455 3.21599C194.391 3.14133 194.359 3.05066 194.359 2.94399C194.359 2.81599 194.396 2.70933 194.471 2.62399C194.556 2.53866 194.711 2.45866 194.935 2.384L197.703 1.43999C198.023 1.32266 198.274 1.24266 198.455 1.2C198.647 1.14666 198.812 1.12 198.951 1.12C199.218 1.12 199.41 1.18933 199.527 1.328C199.655 1.46666 199.719 1.65333 199.719 1.88799ZM198.999 14.032L198.519 13.264C199.34 12.048 200.274 11.1147 201.319 10.464C202.375 9.80266 203.522 9.47199 204.759 9.47199C206.007 9.47199 207.116 9.79199 208.087 10.432C209.068 11.0613 209.836 11.9413 210.391 13.072C210.956 14.192 211.239 15.4773 211.239 16.928C211.239 18.6027 210.908 20.048 210.247 21.264C209.596 22.48 208.716 23.424 207.607 24.096C206.498 24.7573 205.255 25.088 203.879 25.088C202.631 25.088 201.522 24.784 200.551 24.176C199.591 23.568 198.812 22.7093 198.215 21.6L198.951 20.864C199.484 21.8027 200.124 22.5173 200.871 23.008C201.628 23.488 202.444 23.728 203.319 23.728C204.151 23.728 204.903 23.4987 205.575 23.04C206.247 22.5707 206.775 21.8613 207.159 20.912C207.554 19.952 207.751 18.752 207.751 17.312C207.751 15.9467 207.564 14.8053 207.191 13.888C206.828 12.9707 206.322 12.2827 205.671 11.824C205.031 11.3547 204.3 11.12 203.479 11.12C202.647 11.12 201.847 11.36 201.079 11.84C200.322 12.32 199.628 13.0507 198.999 14.032Z" fill="white"/>
<path d="M179.385 25.328C178.233 25.328 177.193 25.1573 176.265 24.816C175.337 24.4747 174.468 23.9413 173.657 23.216C172.857 22.4907 172.068 21.5573 171.289 20.416C170.521 19.2747 169.881 18.1707 169.369 17.104C168.857 16.0373 168.468 14.9867 168.201 13.952C167.945 12.9173 167.817 11.8827 167.817 10.848C167.817 9.664 168.047 8.608 168.505 7.68C168.975 6.74133 169.641 6.00533 170.505 5.472C171.369 4.928 172.393 4.656 173.577 4.656C174.484 4.656 175.279 4.83733 175.961 5.2C176.644 5.56267 177.172 6.064 177.545 6.704C177.929 7.344 178.121 8.07467 178.121 8.896C178.121 9.93067 177.844 10.8373 177.289 11.616C176.745 12.3947 175.951 13.0293 174.905 13.52C173.86 14 172.596 14.304 171.113 14.432L170.969 13.776C171.876 13.648 172.649 13.376 173.289 12.96C173.94 12.544 174.436 11.9787 174.777 11.264C175.119 10.5387 175.289 9.66933 175.289 8.656C175.289 7.73867 175.113 6.992 174.761 6.416C174.42 5.84 173.967 5.552 173.401 5.552C172.623 5.552 171.988 5.92 171.497 6.656C171.007 7.38133 170.761 8.368 170.761 9.616C170.761 10.5867 170.889 11.5627 171.145 12.544C171.412 13.5147 171.796 14.5013 172.297 15.504C172.809 16.5067 173.423 17.5307 174.137 18.576C175.001 19.8133 175.785 20.8107 176.489 21.568C177.193 22.3147 177.881 22.8587 178.553 23.2C179.225 23.5413 179.929 23.712 180.665 23.712C181.7 23.712 182.628 23.456 183.449 22.944C184.281 22.4213 184.932 21.632 185.401 20.576C185.881 19.5093 186.121 18.1707 186.121 16.56C186.121 14.5653 185.78 12.6133 185.097 10.704C184.425 8.79467 183.321 7.04533 181.785 5.456C180.399 4.02667 178.825 2.928 177.065 2.16C175.305 1.38133 173.359 0.992001 171.225 0.992001C169.497 0.992001 168.073 1.232 166.953 1.712C165.833 2.192 165.001 2.832 164.457 3.632C163.913 4.42133 163.641 5.30133 163.641 6.272C163.641 6.688 163.695 7.04 163.801 7.328C163.919 7.616 164.052 7.87733 164.201 8.112C164.351 8.34667 164.484 8.59733 164.601 8.864C164.719 9.13067 164.777 9.46133 164.777 9.856C164.777 10.3147 164.612 10.6987 164.281 11.008C163.951 11.3067 163.529 11.456 163.017 11.456C162.367 11.456 161.855 11.1627 161.481 10.576C161.108 9.97867 160.921 9.20533 160.921 8.256C160.921 6.57067 161.332 5.11467 162.153 3.888C162.985 2.65067 164.175 1.696 165.721 1.024C167.268 0.341333 169.124 0 171.289 0C173.54 0 175.615 0.405333 177.513 1.216C179.423 2.016 181.124 3.184 182.617 4.72C184.185 6.30933 185.348 8.10667 186.105 10.112C186.873 12.1173 187.257 14.2347 187.257 16.464C187.257 18.3627 186.937 19.9733 186.297 21.296C185.668 22.6187 184.767 23.6213 183.593 24.304C182.42 24.9867 181.017 25.328 179.385 25.328ZM175.817 21.536C176.596 20.96 177.215 20.416 177.673 19.904C178.143 19.3813 178.479 18.8853 178.681 18.416C178.895 17.9467 179.001 17.4933 179.001 17.056C179.001 16.704 178.953 16.4053 178.857 16.16C178.772 15.9147 178.681 15.68 178.585 15.456C178.489 15.232 178.441 14.976 178.441 14.688C178.441 14.2187 178.591 13.824 178.889 13.504C179.188 13.1733 179.577 13.008 180.057 13.008C180.548 13.008 180.943 13.2053 181.241 13.6C181.551 13.9947 181.705 14.5387 181.705 15.232C181.705 16.4907 181.257 17.7013 180.361 18.864C179.476 20.016 178.116 21.088 176.281 22.08L175.817 21.536ZM168.857 14.72C167.865 14.88 167.049 15.1893 166.409 15.648C165.769 16.1067 165.295 16.6667 164.985 17.328C164.687 17.9787 164.537 18.688 164.537 19.456C164.537 20.7573 164.911 21.7973 165.657 22.576C166.404 23.344 167.38 23.728 168.585 23.728C169.471 23.728 170.26 23.5787 170.953 23.28C171.647 22.9813 172.324 22.5707 172.985 22.048L173.545 22.768C172.969 23.2693 172.356 23.7013 171.705 24.064C171.055 24.4267 170.335 24.704 169.545 24.896C168.767 25.0987 167.887 25.2 166.905 25.2C165.017 25.2 163.545 24.7573 162.489 23.872C161.444 22.9867 160.921 21.7547 160.921 20.176C160.921 19.0667 161.215 18.0693 161.801 17.184C162.399 16.2987 163.284 15.5787 164.457 15.024C165.631 14.4587 167.097 14.1013 168.857 13.952V14.72Z" fill="white"/>
<path d="M146.551 23.776C148.034 24.0107 149.207 24.3147 150.071 24.688C150.935 25.0613 151.548 25.5093 151.911 26.032C152.274 26.5653 152.455 27.1947 152.455 27.92C152.455 29.2853 151.746 30.4 150.327 31.264C148.908 32.128 146.866 32.56 144.199 32.56C142.396 32.56 140.946 32.3947 139.847 32.064C138.748 31.744 137.948 31.3067 137.447 30.752C136.956 30.1973 136.711 29.568 136.711 28.864C136.711 27.9893 137.138 27.2 137.991 26.496C138.844 25.792 140.348 25.3067 142.503 25.04L142.807 25.488C141.644 25.6373 140.764 25.9627 140.167 26.464C139.58 26.9653 139.287 27.536 139.287 28.176C139.287 29.1467 139.698 29.936 140.519 30.544C141.34 31.152 142.732 31.456 144.695 31.456C145.815 31.456 146.732 31.3493 147.447 31.136C148.162 30.9333 148.69 30.6347 149.031 30.24C149.372 29.8453 149.543 29.3813 149.543 28.848C149.543 28.4427 149.404 28.08 149.127 27.76C148.86 27.4507 148.375 27.168 147.671 26.912C146.978 26.656 145.991 26.416 144.711 26.192C143.154 25.9253 141.97 25.648 141.159 25.36C140.359 25.0827 139.81 24.7733 139.511 24.432C139.223 24.08 139.079 23.68 139.079 23.232C139.079 22.848 139.18 22.4853 139.383 22.144C139.586 21.8027 139.932 21.4987 140.423 21.232C140.914 20.9547 141.591 20.7467 142.455 20.608L142.839 20.816C142.444 20.9973 142.162 21.1787 141.991 21.36C141.831 21.5413 141.751 21.7387 141.751 21.952C141.751 22.144 141.842 22.336 142.023 22.528C142.204 22.7093 142.631 22.9013 143.303 23.104C143.986 23.296 145.068 23.52 146.551 23.776ZM147.223 11.072L147.719 10.16C148.167 9.27465 148.7 8.60799 149.319 8.15998C149.938 7.70132 150.599 7.47198 151.303 7.47198C151.911 7.47198 152.402 7.63732 152.775 7.96799C153.148 8.29865 153.335 8.74132 153.335 9.29599C153.335 9.76532 153.218 10.144 152.983 10.432C152.759 10.7093 152.45 10.848 152.055 10.848C151.767 10.848 151.538 10.7787 151.367 10.64C151.196 10.4907 151.042 10.3253 150.903 10.144C150.775 9.95199 150.631 9.78665 150.471 9.64799C150.322 9.49865 150.119 9.42399 149.863 9.42399C149.554 9.42399 149.266 9.54665 148.999 9.79198C148.743 10.0373 148.412 10.5173 148.007 11.232L147.223 11.072ZM151.191 15.2C151.191 16.4053 150.887 17.4667 150.279 18.384C149.682 19.2907 148.844 20 147.767 20.512C146.7 21.024 145.479 21.28 144.103 21.28C142.738 21.28 141.543 21.0293 140.519 20.528C139.506 20.0267 138.711 19.3493 138.135 18.496C137.57 17.632 137.287 16.6667 137.287 15.6C137.287 14.3947 137.586 13.3387 138.183 12.432C138.791 11.5147 139.628 10.8 140.695 10.288C141.762 9.76532 142.994 9.50399 144.391 9.50399C145.767 9.50399 146.962 9.75465 147.975 10.256C148.988 10.7573 149.778 11.44 150.343 12.304C150.908 13.1573 151.191 14.1227 151.191 15.2ZM143.783 10.56C143.079 10.5813 142.492 10.784 142.023 11.168C141.554 11.5413 141.212 12.08 140.999 12.784C140.786 13.488 140.711 14.3307 140.775 15.312C140.85 16.3253 141.058 17.2053 141.399 17.952C141.74 18.6987 142.188 19.264 142.743 19.648C143.308 20.032 143.954 20.2133 144.679 20.192C145.735 20.1493 146.524 19.7173 147.047 18.896C147.58 18.064 147.794 16.912 147.687 15.44C147.58 13.904 147.175 12.6987 146.471 11.824C145.778 10.9387 144.882 10.5173 143.783 10.56Z" fill="white"/>
<path d="M123.896 10.352V22.656C123.896 22.9227 123.944 23.1253 124.04 23.264C124.147 23.4027 124.301 23.4987 124.504 23.552L125.256 23.728C125.565 23.824 125.72 23.984 125.72 24.208C125.72 24.5493 125.496 24.72 125.048 24.72H119.32C119.096 24.72 118.931 24.6773 118.824 24.592C118.717 24.5067 118.664 24.3893 118.664 24.24C118.664 24.112 118.707 24.0107 118.792 23.936C118.877 23.8507 119.005 23.7813 119.176 23.728L119.96 23.552C120.163 23.4987 120.317 23.408 120.424 23.28C120.531 23.1413 120.584 22.9387 120.584 22.672V12.528C120.584 12.304 120.547 12.144 120.472 12.048C120.397 11.952 120.269 11.8933 120.088 11.872L119 11.84C118.829 11.808 118.707 11.76 118.632 11.696C118.557 11.6213 118.52 11.5253 118.52 11.408C118.52 11.28 118.563 11.1787 118.648 11.104C118.733 11.0187 118.883 10.9387 119.096 10.864L121.88 9.90398C122.189 9.79732 122.44 9.72265 122.632 9.67999C122.824 9.62665 122.995 9.59999 123.144 9.59999C123.4 9.59999 123.587 9.66932 123.704 9.80799C123.832 9.93599 123.896 10.1173 123.896 10.352ZM123.464 13.712L122.888 13.12L123.576 12.528C124.813 11.4293 125.875 10.6453 126.76 10.176C127.656 9.70665 128.515 9.47198 129.336 9.47198C130.595 9.47198 131.565 9.88799 132.248 10.72C132.941 11.552 133.368 12.6827 133.528 14.112L134.536 22.592C134.568 22.88 134.632 23.104 134.728 23.264C134.835 23.4133 135 23.5147 135.224 23.568L135.912 23.728C136.083 23.7813 136.205 23.8507 136.28 23.936C136.365 24.0107 136.408 24.112 136.408 24.24C136.408 24.3893 136.355 24.5067 136.248 24.592C136.152 24.6773 135.992 24.72 135.768 24.72H129.992C129.533 24.72 129.304 24.5493 129.304 24.208C129.304 23.984 129.459 23.824 129.768 23.728L130.552 23.552C130.776 23.4987 130.947 23.3973 131.064 23.248C131.181 23.0987 131.224 22.88 131.192 22.592L130.216 14.608C130.088 13.552 129.816 12.7627 129.4 12.24C128.984 11.7067 128.376 11.44 127.576 11.44C127.075 11.44 126.541 11.5787 125.976 11.856C125.421 12.1333 124.808 12.5547 124.136 13.12L123.464 13.712Z" fill="white"/>
<path d="M115.497 10.352V22.656C115.497 22.9226 115.545 23.1253 115.641 23.264C115.748 23.4026 115.902 23.4986 116.105 23.552L116.857 23.712C117.038 23.7653 117.172 23.8346 117.257 23.92C117.342 24.0053 117.385 24.112 117.385 24.24C117.385 24.3893 117.326 24.5066 117.209 24.592C117.102 24.6773 116.937 24.72 116.713 24.72H110.921C110.697 24.72 110.532 24.6773 110.425 24.592C110.318 24.5066 110.265 24.3893 110.265 24.24C110.265 24.112 110.308 24.0106 110.393 23.936C110.478 23.8506 110.606 23.7813 110.777 23.728L111.561 23.552C111.764 23.4986 111.913 23.408 112.009 23.28C112.116 23.1413 112.169 22.9386 112.169 22.672V12.528C112.169 12.304 112.132 12.144 112.057 12.048C111.982 11.952 111.86 11.8933 111.689 11.872L110.585 11.84C110.425 11.808 110.308 11.76 110.233 11.696C110.158 11.6213 110.121 11.5253 110.121 11.408C110.121 11.28 110.164 11.1786 110.249 11.104C110.334 11.0186 110.484 10.9386 110.697 10.864L113.481 9.90396C113.801 9.78663 114.052 9.70663 114.233 9.66396C114.425 9.6213 114.59 9.59996 114.729 9.59996C114.985 9.59996 115.177 9.6693 115.305 9.80796C115.433 9.93596 115.497 10.1173 115.497 10.352ZM113.513 6.65596C112.83 6.65596 112.281 6.4693 111.865 6.09596C111.449 5.71196 111.241 5.22663 111.241 4.63996C111.241 4.04263 111.449 3.55729 111.865 3.18396C112.292 2.81063 112.841 2.62396 113.513 2.62396C114.185 2.62396 114.734 2.81596 115.161 3.19996C115.588 3.5733 115.801 4.0533 115.801 4.63996C115.801 5.22663 115.588 5.71196 115.161 6.09596C114.734 6.4693 114.185 6.65596 113.513 6.65596Z" fill="white"/>
<path d="M100.714 11.04L99.8021 10.816C99.5568 10.7413 99.3861 10.6613 99.2901 10.576C99.2048 10.4906 99.1621 10.3893 99.1621 10.272C99.1621 10.1226 99.2154 10.0106 99.3221 9.93596C99.4288 9.85063 99.5728 9.80796 99.7541 9.80796H100.826C101.082 9.80796 101.29 9.7653 101.45 9.67996C101.61 9.59463 101.754 9.43996 101.882 9.21596L103.274 6.81596C103.413 6.59196 103.557 6.43196 103.706 6.33596C103.855 6.2293 104.01 6.17596 104.17 6.17596C104.341 6.17596 104.469 6.2293 104.554 6.33596C104.65 6.44263 104.698 6.59196 104.698 6.78396V20.832C104.698 21.5786 104.853 22.1493 105.162 22.544C105.471 22.928 105.893 23.12 106.426 23.12C106.799 23.12 107.093 23.0613 107.306 22.944C107.519 22.816 107.69 22.6666 107.818 22.496C107.957 22.3253 108.079 22.1706 108.186 22.032C108.303 21.8933 108.437 21.808 108.586 21.776C108.714 21.7653 108.81 21.8026 108.874 21.888C108.949 21.9626 108.986 22.0906 108.986 22.272C108.965 22.7413 108.789 23.184 108.458 23.6C108.138 24.016 107.695 24.352 107.13 24.608C106.565 24.864 105.919 24.992 105.194 24.992C104.031 24.992 103.103 24.6933 102.41 24.096C101.727 23.488 101.386 22.576 101.386 21.36V11.904C101.386 11.6586 101.338 11.472 101.242 11.344C101.146 11.216 100.97 11.1146 100.714 11.04ZM103.258 10.96V9.80796H108.234C108.437 9.80796 108.591 9.8453 108.698 9.91996C108.805 9.99463 108.858 10.1066 108.858 10.256C108.858 10.4586 108.751 10.6293 108.538 10.768C108.335 10.896 108.01 10.96 107.562 10.96H103.258Z" fill="white"/>
<path d="M98.3919 13.568C98.3919 14.0693 98.2265 14.4853 97.8959 14.816C97.5759 15.1467 97.1492 15.312 96.6159 15.312C96.0932 15.312 95.6825 15.1627 95.3839 14.864C95.0959 14.5547 94.9519 14.1493 94.9519 13.648V13.104C94.9519 12.368 94.6959 11.7707 94.1839 11.312C93.6719 10.8533 92.9679 10.624 92.0719 10.624C91.2612 10.624 90.5359 10.8587 89.8959 11.328C89.2665 11.7973 88.7705 12.4587 88.4079 13.312C88.0559 14.1547 87.8799 15.152 87.8799 16.304C87.8799 17.6907 88.1145 18.8693 88.5839 19.84C89.0532 20.8 89.6985 21.5307 90.5199 22.032C91.3412 22.5333 92.2745 22.784 93.3199 22.784C94.3332 22.784 95.2079 22.5493 95.9439 22.08C96.6905 21.6107 97.2239 20.976 97.5439 20.176C97.6612 20.016 97.7625 19.9093 97.8479 19.856C97.9332 19.792 98.0292 19.76 98.1359 19.76C98.2639 19.76 98.3545 19.8187 98.4079 19.936C98.4719 20.0427 98.4985 20.1707 98.4879 20.32C98.4025 21.2053 98.0825 22.0107 97.5279 22.736C96.9732 23.4613 96.2425 24.0373 95.3359 24.464C94.4292 24.88 93.3945 25.088 92.2319 25.088C90.7705 25.088 89.4799 24.7787 88.3599 24.16C87.2505 23.5413 86.3812 22.6667 85.7519 21.536C85.1225 20.4053 84.8079 19.072 84.8079 17.536C84.8079 16.0213 85.1279 14.656 85.7679 13.44C86.4079 12.224 87.3039 11.2587 88.4559 10.544C89.6185 9.82932 90.9785 9.47198 92.5359 9.47198C93.7412 9.47198 94.7812 9.66398 95.6559 10.048C96.5412 10.4213 97.2185 10.9173 97.6879 11.536C98.1572 12.1547 98.3919 12.832 98.3919 13.568Z" fill="white"/>
<path d="M83.28 15.456C83.28 15.904 83.1466 16.2507 82.88 16.496C82.6133 16.7307 82.2293 16.848 81.728 16.848H71.536V15.904H79.152C79.6426 15.904 79.888 15.6853 79.888 15.248C79.888 13.7867 79.584 12.6507 78.976 11.84C78.368 11.0293 77.552 10.624 76.528 10.624C75.728 10.624 75.024 10.8587 74.416 11.328C73.808 11.7867 73.3333 12.4427 72.992 13.296C72.6506 14.1493 72.48 15.152 72.48 16.304C72.48 18.4373 72.9813 20.0587 73.984 21.168C74.9973 22.2667 76.32 22.816 77.952 22.816C79.008 22.816 79.92 22.5707 80.688 22.08C81.4666 21.5893 82.0106 20.9333 82.32 20.112C82.4373 19.952 82.5386 19.84 82.624 19.776C82.7093 19.712 82.8 19.68 82.896 19.68C83.024 19.68 83.12 19.7387 83.184 19.856C83.248 19.9733 83.2746 20.112 83.264 20.272C83.2 21.1573 82.8853 21.968 82.32 22.704C81.7546 23.4293 81.0026 24.0107 80.064 24.448C79.1253 24.8747 78.0586 25.088 76.864 25.088C75.392 25.088 74.0906 24.7787 72.96 24.16C71.84 23.5307 70.9653 22.6507 70.336 21.52C69.7173 20.3893 69.408 19.0667 69.408 17.552C69.408 15.9947 69.712 14.6133 70.32 13.408C70.9386 12.192 71.8133 11.232 72.944 10.528C74.0746 9.82398 75.4133 9.47198 76.96 9.47198C78.2506 9.47198 79.3653 9.72799 80.304 10.24C81.2533 10.752 81.984 11.456 82.496 12.352C83.0186 13.248 83.28 14.2827 83.28 15.456Z" fill="white"/>
<path d="M56.3211 10.352V22.656C56.3211 22.9227 56.3691 23.1253 56.4651 23.264C56.5717 23.4027 56.7264 23.4987 56.9291 23.552L57.6811 23.728C57.9904 23.824 58.1451 23.984 58.1451 24.208C58.1451 24.5493 57.9211 24.72 57.4731 24.72H51.7451C51.5211 24.72 51.3557 24.6773 51.2491 24.592C51.1424 24.5067 51.0891 24.3893 51.0891 24.24C51.0891 24.112 51.1317 24.0107 51.2171 23.936C51.3024 23.8507 51.4304 23.7813 51.6011 23.728L52.3851 23.552C52.5877 23.4987 52.7424 23.408 52.8491 23.28C52.9557 23.1413 53.0091 22.9387 53.0091 22.672V12.528C53.0091 12.304 52.9717 12.144 52.8971 12.048C52.8224 11.952 52.6944 11.8933 52.5131 11.872L51.4251 11.84C51.2544 11.808 51.1317 11.76 51.0571 11.696C50.9824 11.6213 50.9451 11.5253 50.9451 11.408C50.9451 11.28 50.9877 11.1787 51.0731 11.104C51.1584 11.0187 51.3077 10.9387 51.5211 10.864L54.3051 9.90398C54.6144 9.79732 54.8651 9.72265 55.0571 9.67999C55.2491 9.62665 55.4197 9.59999 55.5691 9.59999C55.8251 9.59999 56.0117 9.66932 56.1291 9.80799C56.2571 9.93599 56.3211 10.1173 56.3211 10.352ZM55.8891 13.712L55.3131 13.12L56.0011 12.528C57.2384 11.4293 58.2997 10.6453 59.1851 10.176C60.0811 9.70665 60.9397 9.47198 61.7611 9.47198C63.0197 9.47198 63.9904 9.88799 64.6731 10.72C65.3664 11.552 65.7931 12.6827 65.9531 14.112L66.9611 22.592C66.9931 22.88 67.0571 23.104 67.1531 23.264C67.2597 23.4133 67.4251 23.5147 67.6491 23.568L68.3371 23.728C68.5077 23.7813 68.6304 23.8507 68.7051 23.936C68.7904 24.0107 68.8331 24.112 68.8331 24.24C68.8331 24.3893 68.7797 24.5067 68.6731 24.592C68.5771 24.6773 68.4171 24.72 68.1931 24.72H62.4171C61.9584 24.72 61.7291 24.5493 61.7291 24.208C61.7291 23.984 61.8837 23.824 62.1931 23.728L62.9771 23.552C63.2011 23.4987 63.3717 23.3973 63.4891 23.248C63.6064 23.0987 63.6491 22.88 63.6171 22.592L62.6411 14.608C62.5131 13.552 62.2411 12.7627 61.8251 12.24C61.4091 11.7067 60.8011 11.44 60.0011 11.44C59.4997 11.44 58.9664 11.5787 58.4011 11.856C57.8464 12.1333 57.2331 12.5547 56.5611 13.12L55.8891 13.712Z" fill="white"/>
<path d="M37.906 10.352V22.656C37.906 22.9227 37.954 23.1253 38.05 23.264C38.1567 23.4027 38.3114 23.4987 38.514 23.552L39.266 23.728C39.5754 23.824 39.73 23.984 39.73 24.208C39.73 24.5493 39.506 24.72 39.058 24.72H33.33C33.106 24.72 32.9407 24.6773 32.834 24.592C32.7274 24.5067 32.674 24.3893 32.674 24.24C32.674 24.112 32.7167 24.0107 32.802 23.936C32.8874 23.8507 33.0154 23.7813 33.186 23.728L33.97 23.552C34.1727 23.4987 34.3274 23.408 34.434 23.28C34.5407 23.1413 34.594 22.9387 34.594 22.672V12.528C34.594 12.304 34.5567 12.144 34.482 12.048C34.4074 11.952 34.2794 11.8933 34.098 11.872L33.01 11.84C32.8394 11.808 32.7167 11.76 32.642 11.696C32.5674 11.6213 32.53 11.5253 32.53 11.408C32.53 11.28 32.5727 11.1787 32.658 11.104C32.7434 11.0187 32.8927 10.9387 33.106 10.864L35.89 9.90398C36.1994 9.79732 36.45 9.72265 36.642 9.67999C36.834 9.62665 37.0047 9.59999 37.154 9.59999C37.41 9.59999 37.5967 9.66932 37.714 9.80799C37.842 9.93599 37.906 10.1173 37.906 10.352ZM37.474 13.712L36.898 13.12L37.586 12.528C38.8234 11.4293 39.8847 10.6453 40.77 10.176C41.666 9.70665 42.5247 9.47198 43.346 9.47198C44.6047 9.47198 45.5754 9.88799 46.258 10.72C46.9514 11.552 47.378 12.6827 47.538 14.112L48.546 22.592C48.578 22.88 48.642 23.104 48.738 23.264C48.8447 23.4133 49.01 23.5147 49.234 23.568L49.922 23.728C50.0927 23.7813 50.2154 23.8507 50.29 23.936C50.3754 24.0107 50.418 24.112 50.418 24.24C50.418 24.3893 50.3647 24.5067 50.258 24.592C50.162 24.6773 50.002 24.72 49.778 24.72H44.002C43.5434 24.72 43.314 24.5493 43.314 24.208C43.314 23.984 43.4687 23.824 43.778 23.728L44.562 23.552C44.786 23.4987 44.9567 23.3973 45.074 23.248C45.1914 23.0987 45.234 22.88 45.202 22.592L44.226 14.608C44.098 13.552 43.826 12.7627 43.41 12.24C42.994 11.7067 42.386 11.44 41.586 11.44C41.0847 11.44 40.5514 11.5787 39.986 11.856C39.4314 12.1333 38.818 12.5547 38.146 13.12L37.474 13.712Z" fill="white"/>
<path d="M23.1783 9.48798C24.7143 9.48798 26.0743 9.81864 27.2583 10.48C28.4423 11.1413 29.365 12.064 30.0263 13.248C30.6983 14.4213 31.0343 15.776 31.0343 17.312C31.0343 18.8053 30.693 20.1386 30.0103 21.312C29.3383 22.4853 28.405 23.408 27.2103 24.08C26.0157 24.752 24.629 25.088 23.0503 25.088C21.5143 25.088 20.1543 24.7573 18.9703 24.096C17.797 23.424 16.8743 22.5013 16.2023 21.328C15.5303 20.1546 15.1943 18.8053 15.1943 17.28C15.1943 15.7653 15.5303 14.4266 16.2023 13.264C16.885 12.0906 17.8237 11.168 19.0183 10.496C20.213 9.82398 21.5997 9.48798 23.1783 9.48798ZM24.2503 23.824C25.1357 23.7066 25.8557 23.3493 26.4103 22.752C26.965 22.144 27.3383 21.328 27.5303 20.304C27.7223 19.28 27.7063 18.0746 27.4823 16.688C27.2583 15.28 26.885 14.112 26.3623 13.184C25.8397 12.256 25.205 11.584 24.4583 11.168C23.7117 10.752 22.885 10.608 21.9783 10.736C21.093 10.864 20.373 11.2266 19.8183 11.824C19.2637 12.4213 18.8903 13.232 18.6983 14.256C18.517 15.28 18.5383 16.4906 18.7623 17.888C18.9863 19.2853 19.3597 20.448 19.8823 21.376C20.405 22.304 21.0397 22.976 21.7863 23.392C22.533 23.808 23.3543 23.952 24.2503 23.824Z" fill="white"/>
<path d="M13.8479 13.568C13.8479 14.0693 13.6826 14.4853 13.3519 14.816C13.0319 15.1467 12.6053 15.312 12.0719 15.312C11.5492 15.312 11.1386 15.1627 10.8399 14.864C10.5519 14.5547 10.4079 14.1493 10.4079 13.648V13.104C10.4079 12.368 10.1519 11.7707 9.63992 11.312C9.12792 10.8533 8.42392 10.624 7.52792 10.624C6.71725 10.624 5.99192 10.8587 5.35192 11.328C4.72258 11.7973 4.22658 12.4587 3.86392 13.312C3.51192 14.1547 3.33592 15.152 3.33592 16.304C3.33592 17.6907 3.57058 18.8693 4.03992 19.84C4.50925 20.8 5.15458 21.5307 5.97592 22.032C6.79725 22.5333 7.73058 22.784 8.77592 22.784C9.78925 22.784 10.6639 22.5493 11.3999 22.08C12.1466 21.6107 12.6799 20.976 12.9999 20.176C13.1173 20.016 13.2186 19.9093 13.3039 19.856C13.3893 19.792 13.4853 19.76 13.5919 19.76C13.7199 19.76 13.8106 19.8187 13.8639 19.936C13.9279 20.0427 13.9546 20.1707 13.9439 20.32C13.8586 21.2053 13.5386 22.0107 12.9839 22.736C12.4292 23.4613 11.6986 24.0373 10.7919 24.464C9.88525 24.88 8.85058 25.088 7.68792 25.088C6.22658 25.088 4.93592 24.7787 3.81592 24.16C2.70658 23.5413 1.83725 22.6667 1.20792 21.536C0.578583 20.4053 0.263916 19.072 0.263916 17.536C0.263916 16.0213 0.583916 14.656 1.22392 13.44C1.86392 12.224 2.75992 11.2587 3.91192 10.544C5.07458 9.82932 6.43458 9.47198 7.99192 9.47198C9.19725 9.47198 10.2372 9.66398 11.1119 10.048C11.9972 10.4213 12.6746 10.9173 13.1439 11.536C13.6133 12.1547 13.8479 12.832 13.8479 13.568Z" fill="white"/>
</svg>
