<svg width="894" height="113" viewBox="0 0 894 113" fill="none" xmlns="http://www.w3.org/2000/svg">
<path d="M62.39 72.2C61.11 76.04 59.19 79.304 56.63 81.992C54.07 84.616 51.062 86.6 47.606 87.944C44.15 89.288 40.342 89.96 36.182 89.96C30.102 89.96 24.822 88.648 20.342 86.024C15.862 83.4 12.406 79.656 9.974 74.792C7.542 69.928 6.326 64.104 6.326 57.32C6.326 50.536 7.542 44.712 9.974 39.848C12.406 34.984 15.862 31.24 20.342 28.616C24.822 25.992 30.07 24.68 36.086 24.68C40.246 24.68 43.99 25.256 47.318 26.408C50.71 27.56 53.59 29.288 55.958 31.592C58.326 33.896 60.15 36.776 61.43 40.232L51.734 44.552C50.454 40.776 48.598 38.024 46.166 36.296C43.734 34.504 40.566 33.608 36.662 33.608C32.758 33.608 29.334 34.536 26.39 36.392C23.446 38.248 21.142 40.936 19.478 44.456C17.878 47.976 17.078 52.264 17.078 57.32C17.078 62.312 17.846 66.6 19.382 70.184C20.918 73.704 23.126 76.392 26.006 78.248C28.886 80.104 32.342 81.032 36.374 81.032C40.278 81.032 43.638 80.04 46.454 78.056C49.334 76.008 51.382 72.968 52.598 68.936L62.39 72.2ZM91.055 40.04C95.727 40.04 99.855 41.032 103.439 43.016C107.023 45 109.807 47.88 111.791 51.656C113.839 55.368 114.863 59.816 114.863 65C114.863 70.184 113.839 74.664 111.791 78.44C109.807 82.152 107.023 85 103.439 86.984C99.855 88.968 95.727 89.96 91.055 89.96C86.383 89.96 82.255 88.968 78.671 86.984C75.087 85 72.271 82.152 70.223 78.44C68.175 74.664 67.151 70.184 67.151 65C67.151 59.816 68.175 55.368 70.223 51.656C72.271 47.88 75.087 45 78.671 43.016C82.255 41.032 86.383 40.04 91.055 40.04ZM91.055 48.104C88.175 48.104 85.711 48.776 83.663 50.12C81.679 51.4 80.143 53.288 79.055 55.784C77.967 58.28 77.423 61.352 77.423 65C77.423 68.584 77.967 71.656 79.055 74.216C80.143 76.712 81.679 78.632 83.663 79.976C85.711 81.256 88.175 81.896 91.055 81.896C93.935 81.896 96.367 81.256 98.351 79.976C100.335 78.632 101.871 76.712 102.959 74.216C104.047 71.656 104.591 68.584 104.591 65C104.591 61.352 104.047 58.28 102.959 55.784C101.871 53.288 100.335 51.4 98.351 50.12C96.367 48.776 93.935 48.104 91.055 48.104ZM124.522 89V41H128.842L129.226 53L128.458 52.328C129.354 49.704 130.698 47.496 132.49 45.704C134.282 43.848 136.426 42.44 138.922 41.48C141.418 40.52 144.106 40.04 146.986 40.04C150.57 40.04 153.738 40.712 156.49 42.056C159.242 43.4 161.386 45.384 162.922 48.008C164.522 50.632 165.322 53.928 165.322 57.896V89H160.522V59.432C160.522 54.184 159.21 50.344 156.586 47.912C154.026 45.48 150.666 44.264 146.506 44.264C143.498 44.264 140.682 44.968 138.058 46.376C135.498 47.72 133.386 49.704 131.722 52.328C130.122 54.952 129.322 58.152 129.322 61.928V89H124.522ZM194.28 89.96C189.416 89.96 185.096 88.968 181.32 86.984C177.608 85 174.984 82.152 173.448 78.44L177.576 75.656C178.728 78.856 180.776 81.352 183.72 83.144C186.728 84.872 190.376 85.736 194.664 85.736C198.888 85.736 202.184 84.904 204.552 83.24C206.984 81.576 208.2 79.368 208.2 76.616C208.2 74.76 207.592 73.16 206.376 71.816C205.224 70.408 203.016 69.352 199.752 68.648L188.52 66.248C183.912 65.288 180.616 63.752 178.632 61.64C176.712 59.464 175.752 56.84 175.752 53.768C175.752 51.208 176.52 48.904 178.056 46.856C179.592 44.808 181.704 43.176 184.392 41.96C187.144 40.68 190.344 40.04 193.992 40.04C198.792 40.04 202.76 41 205.896 42.92C209.032 44.776 211.24 47.592 212.52 51.368L208.488 53.96C207.528 50.568 205.736 48.104 203.112 46.568C200.552 45.032 197.512 44.264 193.992 44.264C191.304 44.264 188.936 44.68 186.888 45.512C184.904 46.28 183.336 47.368 182.184 48.776C181.096 50.12 180.552 51.688 180.552 53.48C180.552 55.336 181.192 57.032 182.472 58.568C183.752 60.04 186.024 61.128 189.288 61.832L200.808 64.328C205.352 65.288 208.52 66.76 210.312 68.744C212.104 70.664 213 73.064 213 75.944C213 78.824 212.232 81.32 210.696 83.432C209.16 85.544 206.984 87.176 204.168 88.328C201.352 89.416 198.056 89.96 194.28 89.96ZM241.984 40.04C245.248 40.04 248.16 40.552 250.72 41.576C253.28 42.6 255.456 44.072 257.248 45.992C259.04 47.912 260.416 50.248 261.376 53L256.864 55.112C255.84 51.656 254.048 49 251.488 47.144C248.992 45.224 245.792 44.264 241.888 44.264C238.368 44.264 235.264 45.096 232.576 46.76C229.888 48.36 227.808 50.728 226.336 53.864C224.864 56.936 224.128 60.648 224.128 65C224.128 69.288 224.864 73 226.336 76.136C227.808 79.272 229.856 81.672 232.48 83.336C235.104 84.936 238.208 85.736 241.792 85.736C244.48 85.736 246.912 85.288 249.088 84.392C251.328 83.496 253.152 82.184 254.56 80.456C256.032 78.728 256.992 76.68 257.44 74.312L261.856 75.848C261.024 78.792 259.648 81.32 257.728 83.432C255.872 85.544 253.6 87.176 250.912 88.328C248.224 89.416 245.216 89.96 241.888 89.96C237.536 89.96 233.632 88.968 230.176 86.984C226.784 85 224.128 82.152 222.208 78.44C220.288 74.664 219.328 70.184 219.328 65C219.328 59.816 220.288 55.368 222.208 51.656C224.192 47.88 226.88 45 230.272 43.016C233.728 41.032 237.632 40.04 241.984 40.04ZM273.276 31.688C272.06 31.688 271.068 31.336 270.3 30.632C269.596 29.864 269.244 28.872 269.244 27.656C269.244 26.44 269.596 25.48 270.3 24.776C271.068 24.008 272.06 23.624 273.276 23.624C274.492 23.624 275.452 24.008 276.156 24.776C276.924 25.48 277.308 26.44 277.308 27.656C277.308 28.872 276.924 29.864 276.156 30.632C275.452 31.336 274.492 31.688 273.276 31.688ZM275.676 41V89H270.876V41H275.676ZM308.464 40.04C312.944 40.04 316.88 41.032 320.272 43.016C323.728 45 326.416 47.88 328.336 51.656C330.32 55.368 331.312 59.816 331.312 65C331.312 70.184 330.32 74.664 328.336 78.44C326.416 82.152 323.728 85 320.272 86.984C316.88 88.968 312.944 89.96 308.464 89.96C303.984 89.96 300.016 88.968 296.56 86.984C293.168 85 290.48 82.152 288.496 78.44C286.576 74.664 285.616 70.184 285.616 65C285.616 59.816 286.576 55.368 288.496 51.656C290.48 47.88 293.168 45 296.56 43.016C300.016 41.032 303.984 40.04 308.464 40.04ZM308.464 44.168C304.816 44.168 301.648 45 298.96 46.664C296.272 48.328 294.16 50.728 292.624 53.864C291.152 56.936 290.416 60.648 290.416 65C290.416 69.288 291.152 73 292.624 76.136C294.16 79.272 296.272 81.672 298.96 83.336C301.648 85 304.816 85.832 308.464 85.832C312.112 85.832 315.28 85 317.968 83.336C320.656 81.672 322.736 79.272 324.208 76.136C325.744 73 326.512 69.288 326.512 65C326.512 60.648 325.744 56.936 324.208 53.864C322.736 50.728 320.656 48.328 317.968 46.664C315.28 45 312.112 44.168 308.464 44.168ZM358.092 89.96C354.764 89.96 351.788 89.352 349.164 88.136C346.54 86.92 344.46 85.032 342.924 82.472C341.452 79.848 340.716 76.584 340.716 72.68V41H345.516V71.528C345.516 76.52 346.7 80.136 349.068 82.376C351.5 84.616 354.892 85.736 359.244 85.736C361.804 85.736 364.108 85.288 366.156 84.392C368.268 83.496 370.06 82.248 371.532 80.648C373.004 79.048 374.124 77.224 374.892 75.176C375.724 73.128 376.14 70.92 376.14 68.552V41H380.94V89H376.62L376.428 79.112C375.02 82.504 372.716 85.16 369.516 87.08C366.316 89 362.508 89.96 358.092 89.96ZM410.393 89.96C405.529 89.96 401.209 88.968 397.433 86.984C393.721 85 391.097 82.152 389.561 78.44L393.689 75.656C394.841 78.856 396.889 81.352 399.833 83.144C402.841 84.872 406.489 85.736 410.777 85.736C415.001 85.736 418.297 84.904 420.665 83.24C423.097 81.576 424.313 79.368 424.313 76.616C424.313 74.76 423.705 73.16 422.489 71.816C421.337 70.408 419.129 69.352 415.865 68.648L404.633 66.248C400.025 65.288 396.729 63.752 394.745 61.64C392.825 59.464 391.865 56.84 391.865 53.768C391.865 51.208 392.633 48.904 394.169 46.856C395.705 44.808 397.817 43.176 400.505 41.96C403.257 40.68 406.457 40.04 410.105 40.04C414.905 40.04 418.873 41 422.009 42.92C425.145 44.776 427.353 47.592 428.633 51.368L424.601 53.96C423.641 50.568 421.849 48.104 419.225 46.568C416.665 45.032 413.625 44.264 410.105 44.264C407.417 44.264 405.049 44.68 403.001 45.512C401.017 46.28 399.449 47.368 398.297 48.776C397.209 50.12 396.665 51.688 396.665 53.48C396.665 55.336 397.305 57.032 398.585 58.568C399.865 60.04 402.137 61.128 405.401 61.832L416.921 64.328C421.465 65.288 424.633 66.76 426.425 68.744C428.217 70.664 429.113 73.064 429.113 75.944C429.113 78.824 428.345 81.32 426.809 83.432C425.273 85.544 423.097 87.176 420.281 88.328C417.465 89.416 414.169 89.96 410.393 89.96Z" fill="white"/>
<path d="M483.216 88.056C480.976 88.056 478.928 87.7253 477.072 87.064C475.237 86.4027 473.509 85.3573 471.888 83.928C470.267 82.4987 468.688 80.6427 467.152 78.36C465.637 76.12 464.389 73.944 463.408 71.832C462.427 69.72 461.691 67.64 461.2 65.592C460.731 63.5227 460.496 61.464 460.496 59.416C460.496 57.048 460.955 54.9253 461.872 53.048C462.811 51.1707 464.133 49.6987 465.84 48.632C467.568 47.544 469.605 47 471.952 47C473.701 47 475.227 47.352 476.528 48.056C477.851 48.76 478.875 49.7307 479.6 50.968C480.347 52.2053 480.72 53.624 480.72 55.224C480.72 57.336 480.165 59.1813 479.056 60.76C477.947 62.3173 476.357 63.5653 474.288 64.504C472.219 65.4427 469.733 66.04 466.832 66.296L466.608 65.304C468.357 65.0693 469.872 64.536 471.152 63.704C472.453 62.8507 473.456 61.688 474.16 60.216C474.885 58.744 475.248 56.9413 475.248 54.808C475.248 52.9093 474.917 51.3733 474.256 50.2C473.616 49.0267 472.72 48.44 471.568 48.44C470.053 48.44 468.784 49.208 467.76 50.744C466.757 52.2587 466.256 54.296 466.256 56.856C466.256 58.8827 466.512 60.9093 467.024 62.936C467.536 64.9413 468.283 66.9573 469.264 68.984C470.267 70.9893 471.472 73.0053 472.88 75.032C474.587 77.5067 476.144 79.4907 477.552 80.984C478.96 82.4773 480.325 83.5653 481.648 84.248C482.992 84.9093 484.421 85.24 485.936 85.24C487.963 85.24 489.776 84.7387 491.376 83.736C492.976 82.712 494.224 81.176 495.12 79.128C496.037 77.0587 496.496 74.4453 496.496 71.288C496.496 67.3413 495.824 63.4693 494.48 59.672C493.136 55.8747 491.013 52.4187 488.112 49.304C485.36 46.3173 482.213 43.992 478.672 42.328C475.131 40.664 471.259 39.832 467.056 39.832C463.728 39.832 460.955 40.312 458.736 41.272C456.517 42.2107 454.853 43.4907 453.744 45.112C452.656 46.712 452.112 48.5147 452.112 50.52C452.112 51.3947 452.229 52.1307 452.464 52.728C452.72 53.304 452.997 53.8373 453.296 54.328C453.616 54.7973 453.893 55.2987 454.128 55.832C454.363 56.3653 454.48 57.016 454.48 57.784C454.48 58.6587 454.171 59.3947 453.552 59.992C452.955 60.568 452.187 60.856 451.248 60.856C449.947 60.856 448.912 60.28 448.144 59.128C447.397 57.9547 447.024 56.376 447.024 54.392C447.024 51.1493 447.824 48.3227 449.424 45.912C451.045 43.5013 453.36 41.6347 456.368 40.312C459.397 38.9893 463.003 38.328 467.184 38.328C471.557 38.328 475.621 39.1813 479.376 40.888C483.131 42.5947 486.48 45.0267 489.424 48.184C492.368 51.2987 494.576 54.8293 496.048 58.776C497.52 62.7013 498.256 66.8293 498.256 71.16C498.256 74.7867 497.648 77.8587 496.432 80.376C495.216 82.8933 493.488 84.8027 491.248 86.104C489.008 87.4053 486.331 88.056 483.216 88.056ZM476.496 80.952C477.968 79.8213 479.131 78.7227 479.984 77.656C480.859 76.5893 481.488 75.576 481.872 74.616C482.277 73.6347 482.48 72.728 482.48 71.896C482.48 71.128 482.363 70.488 482.128 69.976C481.915 69.4427 481.701 68.9413 481.488 68.472C481.275 68.0027 481.168 67.4693 481.168 66.872C481.168 65.976 481.467 65.208 482.064 64.568C482.683 63.928 483.461 63.608 484.4 63.608C485.381 63.608 486.181 64.0027 486.8 64.792C487.44 65.56 487.76 66.6587 487.76 68.088C487.76 70.6267 486.885 73.0587 485.136 75.384C483.408 77.688 480.763 79.8213 477.2 81.784L476.496 80.952ZM462.288 66.776C460.411 67.0747 458.843 67.6933 457.584 68.632C456.325 69.5707 455.387 70.712 454.768 72.056C454.149 73.4 453.84 74.8293 453.84 76.344C453.84 79.0747 454.597 81.24 456.112 82.84C457.648 84.4187 459.696 85.208 462.256 85.208C464.091 85.208 465.691 84.92 467.056 84.344C468.443 83.7467 469.744 82.968 470.96 82.008L471.792 83.128C470.704 84.088 469.52 84.9307 468.24 85.656C466.981 86.36 465.563 86.904 463.984 87.288C462.405 87.6933 460.613 87.896 458.608 87.896C454.917 87.896 452.037 87.0213 449.968 85.272C447.92 83.5013 446.896 81.08 446.896 78.008C446.896 75.7893 447.472 73.7947 448.624 72.024C449.776 70.2533 451.493 68.8133 453.776 67.704C456.059 66.5947 458.907 65.9013 462.32 65.624L462.288 66.776Z" fill="white"/>
<path d="M516.408 89V25.64H541.368C548.984 25.64 554.552 27.176 558.072 30.248C561.592 33.32 563.352 37.576 563.352 43.016C563.352 46.344 562.392 49.32 560.472 51.944C558.552 54.504 555.736 56.136 552.024 56.84V56.936C556.12 57.576 559.288 59.272 561.528 62.024C563.832 64.712 564.984 67.848 564.984 71.432C564.984 76.872 563 81.16 559.032 84.296C555.064 87.432 549.304 89 541.752 89H516.408ZM526.488 80.456H542.232C546.264 80.456 549.272 79.624 551.256 77.96C553.304 76.296 554.328 73.96 554.328 70.952C554.328 67.944 553.304 65.608 551.256 63.944C549.272 62.28 546.264 61.448 542.232 61.448H526.488V80.456ZM526.488 52.904H540.6C548.664 52.904 552.696 49.8 552.696 43.592C552.696 37.384 548.664 34.28 540.6 34.28H526.488V52.904ZM595.523 40.04C600.195 40.04 604.323 41.032 607.907 43.016C611.491 45 614.275 47.88 616.259 51.656C618.307 55.368 619.331 59.816 619.331 65C619.331 70.184 618.307 74.664 616.259 78.44C614.275 82.152 611.491 85 607.907 86.984C604.323 88.968 600.195 89.96 595.523 89.96C590.851 89.96 586.723 88.968 583.139 86.984C579.555 85 576.739 82.152 574.691 78.44C572.643 74.664 571.619 70.184 571.619 65C571.619 59.816 572.643 55.368 574.691 51.656C576.739 47.88 579.555 45 583.139 43.016C586.723 41.032 590.851 40.04 595.523 40.04ZM595.523 48.104C592.643 48.104 590.179 48.776 588.131 50.12C586.147 51.4 584.611 53.288 583.523 55.784C582.435 58.28 581.891 61.352 581.891 65C581.891 68.584 582.435 71.656 583.523 74.216C584.611 76.712 586.147 78.632 588.131 79.976C590.179 81.256 592.643 81.896 595.523 81.896C598.403 81.896 600.835 81.256 602.819 79.976C604.803 78.632 606.339 76.712 607.427 74.216C608.515 71.656 609.059 68.584 609.059 65C609.059 61.352 608.515 58.28 607.427 55.784C606.339 53.288 604.803 51.4 602.819 50.12C600.835 48.776 598.403 48.104 595.523 48.104ZM633.405 18.92V77.672C633.405 80.616 633.917 82.696 634.941 83.912C635.965 85.128 637.565 85.736 639.741 85.736C641.085 85.736 642.141 85.64 642.909 85.448C643.741 85.256 644.701 84.936 645.789 84.488L645.117 88.712C644.285 89.096 643.325 89.384 642.237 89.576C641.213 89.832 640.061 89.96 638.781 89.96C635.389 89.96 632.829 89 631.101 87.08C629.437 85.096 628.605 82.024 628.605 77.864V18.92H633.405ZM669.838 89.96C665.678 89.96 661.934 88.968 658.606 86.984C655.278 85 652.654 82.152 650.734 78.44C648.878 74.664 647.95 70.184 647.95 65C647.95 59.688 648.942 55.176 650.926 51.464C652.91 47.752 655.598 44.936 658.99 43.016C662.382 41.032 666.126 40.04 670.222 40.04C674.702 40.04 678.51 41.224 681.646 43.592C684.846 45.96 686.99 49.256 688.078 53.48L687.502 53.864V18.92H692.302V89H687.982L687.694 75.656L688.27 75.464C687.694 78.536 686.51 81.16 684.718 83.336C682.99 85.512 680.814 87.176 678.19 88.328C675.63 89.416 672.846 89.96 669.838 89.96ZM670.414 85.736C673.806 85.736 676.782 84.904 679.342 83.24C681.902 81.512 683.886 79.048 685.294 75.848C686.766 72.648 687.502 68.904 687.502 64.616C687.502 60.392 686.766 56.776 685.294 53.768C683.886 50.696 681.902 48.36 679.342 46.76C676.846 45.096 673.934 44.264 670.606 44.264C665.102 44.264 660.75 46.12 657.55 49.832C654.35 53.544 652.75 58.6 652.75 65C652.75 71.4 654.318 76.456 657.454 80.168C660.654 83.88 664.974 85.736 670.414 85.736ZM705.59 89V41H709.91L710.294 53L709.526 52.328C710.422 49.704 711.766 47.496 713.558 45.704C715.35 43.848 717.494 42.44 719.99 41.48C722.486 40.52 725.174 40.04 728.054 40.04C731.638 40.04 734.806 40.712 737.558 42.056C740.31 43.4 742.454 45.384 743.99 48.008C745.59 50.632 746.39 53.928 746.39 57.896V89H741.59V59.432C741.59 54.184 740.278 50.344 737.654 47.912C735.094 45.48 731.734 44.264 727.574 44.264C724.566 44.264 721.75 44.968 719.126 46.376C716.566 47.72 714.454 49.704 712.79 52.328C711.19 54.952 710.39 58.152 710.39 61.928V89H705.59ZM778.709 89.96C774.293 89.96 770.357 88.968 766.901 86.984C763.445 85 760.725 82.152 758.741 78.44C756.821 74.664 755.861 70.184 755.861 65C755.861 59.816 756.821 55.368 758.741 51.656C760.725 47.88 763.381 45 766.709 43.016C770.037 41.032 773.845 40.04 778.133 40.04C782.485 40.04 786.197 41 789.269 42.92C792.341 44.84 794.709 47.528 796.373 50.984C798.037 54.376 798.869 58.312 798.869 62.792C798.869 63.368 798.837 63.944 798.773 64.52C798.773 65.032 798.741 65.512 798.677 65.96H758.837V61.64H796.565L794.165 62.312C794.101 56.808 792.629 52.424 789.749 49.16C786.933 45.896 783.029 44.264 778.037 44.264C774.581 44.264 771.541 45.096 768.917 46.76C766.293 48.36 764.245 50.728 762.773 53.864C761.301 56.936 760.565 60.648 760.565 65C760.565 69.288 761.301 73 762.773 76.136C764.309 79.272 766.421 81.672 769.109 83.336C771.861 84.936 775.029 85.736 778.613 85.736C782.325 85.736 785.493 84.936 788.117 83.336C790.805 81.736 792.885 79.528 794.357 76.712L798.197 78.92C797.045 81.224 795.509 83.208 793.589 84.872C791.669 86.472 789.461 87.72 786.965 88.616C784.469 89.512 781.717 89.96 778.709 89.96ZM824.947 89.96C820.083 89.96 815.763 88.968 811.987 86.984C808.275 85 805.651 82.152 804.115 78.44L808.243 75.656C809.395 78.856 811.443 81.352 814.387 83.144C817.395 84.872 821.043 85.736 825.331 85.736C829.555 85.736 832.851 84.904 835.219 83.24C837.651 81.576 838.867 79.368 838.867 76.616C838.867 74.76 838.259 73.16 837.043 71.816C835.891 70.408 833.683 69.352 830.419 68.648L819.187 66.248C814.579 65.288 811.283 63.752 809.299 61.64C807.379 59.464 806.419 56.84 806.419 53.768C806.419 51.208 807.187 48.904 808.723 46.856C810.259 44.808 812.371 43.176 815.059 41.96C817.811 40.68 821.011 40.04 824.659 40.04C829.459 40.04 833.427 41 836.563 42.92C839.699 44.776 841.907 47.592 843.187 51.368L839.155 53.96C838.195 50.568 836.403 48.104 833.779 46.568C831.219 45.032 828.179 44.264 824.659 44.264C821.971 44.264 819.603 44.68 817.555 45.512C815.571 46.28 814.003 47.368 812.851 48.776C811.763 50.12 811.219 51.688 811.219 53.48C811.219 55.336 811.859 57.032 813.139 58.568C814.419 60.04 816.691 61.128 819.955 61.832L831.475 64.328C836.019 65.288 839.187 66.76 840.979 68.744C842.771 70.664 843.667 73.064 843.667 75.944C843.667 78.824 842.899 81.32 841.363 83.432C839.827 85.544 837.651 87.176 834.835 88.328C832.019 89.416 828.723 89.96 824.947 89.96ZM869.482 89.96C864.618 89.96 860.298 88.968 856.522 86.984C852.81 85 850.186 82.152 848.65 78.44L852.778 75.656C853.93 78.856 855.978 81.352 858.922 83.144C861.93 84.872 865.578 85.736 869.866 85.736C874.09 85.736 877.386 84.904 879.754 83.24C882.186 81.576 883.402 79.368 883.402 76.616C883.402 74.76 882.794 73.16 881.578 71.816C880.426 70.408 878.218 69.352 874.954 68.648L863.722 66.248C859.114 65.288 855.818 63.752 853.834 61.64C851.914 59.464 850.954 56.84 850.954 53.768C850.954 51.208 851.722 48.904 853.258 46.856C854.794 44.808 856.906 43.176 859.594 41.96C862.346 40.68 865.546 40.04 869.194 40.04C873.994 40.04 877.962 41 881.098 42.92C884.234 44.776 886.442 47.592 887.722 51.368L883.69 53.96C882.73 50.568 880.938 48.104 878.314 46.568C875.754 45.032 872.714 44.264 869.194 44.264C866.506 44.264 864.138 44.68 862.09 45.512C860.106 46.28 858.538 47.368 857.386 48.776C856.298 50.12 855.754 51.688 855.754 53.48C855.754 55.336 856.394 57.032 857.674 58.568C858.954 60.04 861.226 61.128 864.49 61.832L876.01 64.328C880.554 65.288 883.722 66.76 885.514 68.744C887.306 70.664 888.202 73.064 888.202 75.944C888.202 78.824 887.434 81.32 885.898 83.432C884.362 85.544 882.186 87.176 879.37 88.328C876.554 89.416 873.258 89.96 869.482 89.96Z" fill="white"/>
</svg>
