<svg width="1021" height="113" viewBox="0 0 1021 113" fill="none" xmlns="http://www.w3.org/2000/svg">
<path d="M62.07 72.2C60.79 76.04 58.87 79.304 56.31 81.992C53.75 84.616 50.742 86.6 47.286 87.944C43.83 89.288 40.022 89.96 35.862 89.96C29.782 89.96 24.502 88.648 20.022 86.024C15.542 83.4 12.086 79.656 9.65403 74.792C7.22202 69.928 6.00602 64.104 6.00602 57.32C6.00602 50.536 7.22202 44.712 9.65403 39.848C12.086 34.984 15.542 31.24 20.022 28.616C24.502 25.992 29.75 24.68 35.766 24.68C39.926 24.68 43.67 25.256 46.998 26.408C50.39 27.56 53.27 29.288 55.638 31.592C58.006 33.896 59.83 36.776 61.11 40.232L51.414 44.552C50.134 40.776 48.278 38.024 45.846 36.296C43.414 34.504 40.246 33.608 36.342 33.608C32.438 33.608 29.014 34.536 26.07 36.392C23.126 38.248 20.822 40.936 19.158 44.456C17.558 47.976 16.758 52.264 16.758 57.32C16.758 62.312 17.526 66.6 19.062 70.184C20.598 73.704 22.806 76.392 25.686 78.248C28.566 80.104 32.022 81.032 36.054 81.032C39.958 81.032 43.318 80.04 46.134 78.056C49.014 76.008 51.062 72.968 52.278 68.936L62.07 72.2ZM90.735 40.04C95.407 40.04 99.535 41.032 103.119 43.016C106.703 45 109.487 47.88 111.471 51.656C113.519 55.368 114.543 59.816 114.543 65C114.543 70.184 113.519 74.664 111.471 78.44C109.487 82.152 106.703 85 103.119 86.984C99.535 88.968 95.407 89.96 90.735 89.96C86.063 89.96 81.935 88.968 78.351 86.984C74.767 85 71.951 82.152 69.903 78.44C67.855 74.664 66.831 70.184 66.831 65C66.831 59.816 67.855 55.368 69.903 51.656C71.951 47.88 74.767 45 78.351 43.016C81.935 41.032 86.063 40.04 90.735 40.04ZM90.735 48.104C87.855 48.104 85.391 48.776 83.343 50.12C81.359 51.4 79.823 53.288 78.735 55.784C77.647 58.28 77.103 61.352 77.103 65C77.103 68.584 77.647 71.656 78.735 74.216C79.823 76.712 81.359 78.632 83.343 79.976C85.391 81.256 87.855 81.896 90.735 81.896C93.615 81.896 96.047 81.256 98.031 79.976C100.015 78.632 101.551 76.712 102.639 74.216C103.727 71.656 104.271 68.584 104.271 65C104.271 61.352 103.727 58.28 102.639 55.784C101.551 53.288 100.015 51.4 98.031 50.12C96.047 48.776 93.615 48.104 90.735 48.104ZM124.202 89V41H128.522L128.906 53L128.138 52.328C129.034 49.704 130.378 47.496 132.17 45.704C133.962 43.848 136.106 42.44 138.602 41.48C141.098 40.52 143.786 40.04 146.666 40.04C150.25 40.04 153.418 40.712 156.17 42.056C158.922 43.4 161.066 45.384 162.602 48.008C164.202 50.632 165.002 53.928 165.002 57.896V89H160.202V59.432C160.202 54.184 158.89 50.344 156.266 47.912C153.706 45.48 150.346 44.264 146.186 44.264C143.178 44.264 140.362 44.968 137.738 46.376C135.178 47.72 133.066 49.704 131.402 52.328C129.802 54.952 129.002 58.152 129.002 61.928V89H124.202ZM184.486 27.656V76.328C184.486 79.336 185.19 81.64 186.598 83.24C188.07 84.776 190.182 85.544 192.934 85.544C194.726 85.544 196.294 85.256 197.638 84.68C199.046 84.04 200.294 83.144 201.382 81.992L203.206 85.928C201.99 87.144 200.454 88.136 198.598 88.904C196.742 89.608 194.662 89.96 192.358 89.96C189.862 89.96 187.654 89.512 185.734 88.616C183.814 87.656 182.31 86.216 181.222 84.296C180.198 82.376 179.686 79.944 179.686 77V29L184.486 27.656ZM202.438 41V45.128H170.086V41H202.438ZM228.449 89.96C224.033 89.96 220.097 88.968 216.641 86.984C213.185 85 210.465 82.152 208.481 78.44C206.561 74.664 205.601 70.184 205.601 65C205.601 59.816 206.561 55.368 208.481 51.656C210.465 47.88 213.121 45 216.449 43.016C219.777 41.032 223.585 40.04 227.873 40.04C232.225 40.04 235.937 41 239.009 42.92C242.081 44.84 244.449 47.528 246.113 50.984C247.777 54.376 248.609 58.312 248.609 62.792C248.609 63.368 248.577 63.944 248.513 64.52C248.513 65.032 248.481 65.512 248.417 65.96H208.577V61.64H246.305L243.905 62.312C243.841 56.808 242.369 52.424 239.489 49.16C236.673 45.896 232.769 44.264 227.777 44.264C224.321 44.264 221.281 45.096 218.657 46.76C216.033 48.36 213.985 50.728 212.513 53.864C211.041 56.936 210.305 60.648 210.305 65C210.305 69.288 211.041 73 212.513 76.136C214.049 79.272 216.161 81.672 218.849 83.336C221.601 84.936 224.769 85.736 228.353 85.736C232.065 85.736 235.233 84.936 237.857 83.336C240.545 81.736 242.625 79.528 244.097 76.712L247.937 78.92C246.785 81.224 245.249 83.208 243.329 84.872C241.409 86.472 239.201 87.72 236.705 88.616C234.209 89.512 231.457 89.96 228.449 89.96ZM258.463 89V41H262.783L263.167 53L262.399 52.328C263.295 49.704 264.639 47.496 266.431 45.704C268.223 43.848 270.367 42.44 272.863 41.48C275.359 40.52 278.047 40.04 280.927 40.04C284.511 40.04 287.679 40.712 290.431 42.056C293.183 43.4 295.327 45.384 296.863 48.008C298.463 50.632 299.263 53.928 299.263 57.896V89H294.463V59.432C294.463 54.184 293.151 50.344 290.527 47.912C287.967 45.48 284.607 44.264 280.447 44.264C277.439 44.264 274.623 44.968 271.999 46.376C269.439 47.72 267.327 49.704 265.663 52.328C264.063 54.952 263.263 58.152 263.263 61.928V89H258.463ZM318.747 27.656V76.328C318.747 79.336 319.451 81.64 320.859 83.24C322.331 84.776 324.443 85.544 327.195 85.544C328.987 85.544 330.555 85.256 331.899 84.68C333.307 84.04 334.555 83.144 335.643 81.992L337.467 85.928C336.251 87.144 334.715 88.136 332.859 88.904C331.003 89.608 328.923 89.96 326.619 89.96C324.123 89.96 321.915 89.512 319.995 88.616C318.075 87.656 316.571 86.216 315.483 84.296C314.459 82.376 313.947 79.944 313.947 77V29L318.747 27.656ZM336.699 41V45.128H304.347V41H336.699ZM343.127 89V41H347.447L347.735 50.984C349.143 47.528 351.415 44.84 354.551 42.92C357.751 41 361.303 40.04 365.207 40.04C369.367 40.04 372.951 41.032 375.959 43.016C379.031 45 381.143 47.912 382.295 51.752C383.127 49.32 384.471 47.24 386.327 45.512C388.183 43.72 390.359 42.344 392.855 41.384C395.351 40.424 397.943 39.944 400.631 39.944C403.959 39.944 406.967 40.616 409.655 41.96C412.407 43.24 414.583 45.224 416.183 47.912C417.847 50.536 418.679 53.832 418.679 57.8V88.904H413.879V58.28C413.879 53.544 412.599 50.024 410.039 47.72C407.543 45.352 404.215 44.168 400.055 44.168C397.047 44.168 394.263 44.904 391.703 46.376C389.143 47.784 387.095 49.8 385.559 52.424C384.087 54.984 383.351 57.96 383.351 61.352V89H378.551V58.376C378.551 53.64 377.271 50.12 374.711 47.816C372.151 45.448 368.823 44.264 364.727 44.264C361.847 44.264 359.127 44.968 356.567 46.376C354.007 47.784 351.927 49.8 350.327 52.424C348.727 55.048 347.927 58.184 347.927 61.832V89H343.127ZM451.027 89.96C446.611 89.96 442.675 88.968 439.219 86.984C435.763 85 433.043 82.152 431.059 78.44C429.139 74.664 428.179 70.184 428.179 65C428.179 59.816 429.139 55.368 431.059 51.656C433.043 47.88 435.699 45 439.027 43.016C442.355 41.032 446.163 40.04 450.451 40.04C454.803 40.04 458.515 41 461.587 42.92C464.659 44.84 467.027 47.528 468.691 50.984C470.355 54.376 471.187 58.312 471.187 62.792C471.187 63.368 471.155 63.944 471.091 64.52C471.091 65.032 471.059 65.512 470.995 65.96H431.155V61.64H468.883L466.483 62.312C466.419 56.808 464.947 52.424 462.067 49.16C459.251 45.896 455.347 44.264 450.355 44.264C446.899 44.264 443.859 45.096 441.235 46.76C438.611 48.36 436.563 50.728 435.091 53.864C433.619 56.936 432.883 60.648 432.883 65C432.883 69.288 433.619 73 435.091 76.136C436.627 79.272 438.739 81.672 441.427 83.336C444.179 84.936 447.347 85.736 450.931 85.736C454.643 85.736 457.811 84.936 460.435 83.336C463.123 81.736 465.203 79.528 466.675 76.712L470.515 78.92C469.363 81.224 467.827 83.208 465.907 84.872C463.987 86.472 461.779 87.72 459.283 88.616C456.787 89.512 454.035 89.96 451.027 89.96ZM481.04 89V41H485.36L485.744 53L484.976 52.328C485.872 49.704 487.216 47.496 489.008 45.704C490.8 43.848 492.944 42.44 495.44 41.48C497.936 40.52 500.624 40.04 503.504 40.04C507.088 40.04 510.256 40.712 513.008 42.056C515.76 43.4 517.904 45.384 519.44 48.008C521.04 50.632 521.84 53.928 521.84 57.896V89H517.04V59.432C517.04 54.184 515.728 50.344 513.104 47.912C510.544 45.48 507.184 44.264 503.024 44.264C500.016 44.264 497.2 44.968 494.576 46.376C492.016 47.72 489.904 49.704 488.24 52.328C486.64 54.952 485.84 58.152 485.84 61.928V89H481.04ZM541.325 27.656V76.328C541.325 79.336 542.029 81.64 543.437 83.24C544.909 84.776 547.021 85.544 549.773 85.544C551.565 85.544 553.133 85.256 554.477 84.68C555.885 84.04 557.133 83.144 558.221 81.992L560.045 85.928C558.829 87.144 557.293 88.136 555.437 88.904C553.581 89.608 551.501 89.96 549.197 89.96C546.701 89.96 544.493 89.512 542.573 88.616C540.653 87.656 539.149 86.216 538.061 84.296C537.037 82.376 536.525 79.944 536.525 77V29L541.325 27.656ZM559.277 41V45.128H526.925V41H559.277Z" fill="white"/>
<path d="M610.216 88.056C607.976 88.056 605.928 87.7253 604.072 87.064C602.237 86.4027 600.509 85.3573 598.888 83.928C597.267 82.4987 595.688 80.6427 594.152 78.36C592.637 76.12 591.389 73.944 590.408 71.832C589.427 69.72 588.691 67.64 588.2 65.592C587.731 63.5227 587.496 61.464 587.496 59.416C587.496 57.048 587.955 54.9253 588.872 53.048C589.811 51.1707 591.133 49.6987 592.84 48.632C594.568 47.544 596.605 47 598.952 47C600.701 47 602.227 47.352 603.528 48.056C604.851 48.76 605.875 49.7307 606.6 50.968C607.347 52.2053 607.72 53.624 607.72 55.224C607.72 57.336 607.165 59.1813 606.056 60.76C604.947 62.3173 603.357 63.5653 601.288 64.504C599.219 65.4427 596.733 66.04 593.832 66.296L593.608 65.304C595.357 65.0693 596.872 64.536 598.152 63.704C599.453 62.8507 600.456 61.688 601.16 60.216C601.885 58.744 602.248 56.9413 602.248 54.808C602.248 52.9093 601.917 51.3733 601.256 50.2C600.616 49.0267 599.72 48.44 598.568 48.44C597.053 48.44 595.784 49.208 594.76 50.744C593.757 52.2587 593.256 54.296 593.256 56.856C593.256 58.8827 593.512 60.9093 594.024 62.936C594.536 64.9413 595.283 66.9573 596.264 68.984C597.267 70.9893 598.472 73.0053 599.88 75.032C601.587 77.5067 603.144 79.4907 604.552 80.984C605.96 82.4773 607.325 83.5653 608.648 84.248C609.992 84.9093 611.421 85.24 612.936 85.24C614.963 85.24 616.776 84.7387 618.376 83.736C619.976 82.712 621.224 81.176 622.12 79.128C623.037 77.0587 623.496 74.4453 623.496 71.288C623.496 67.3413 622.824 63.4693 621.48 59.672C620.136 55.8747 618.013 52.4187 615.112 49.304C612.36 46.3173 609.213 43.992 605.672 42.328C602.131 40.664 598.259 39.832 594.056 39.832C590.728 39.832 587.955 40.312 585.736 41.272C583.517 42.2107 581.853 43.4907 580.744 45.112C579.656 46.712 579.112 48.5147 579.112 50.52C579.112 51.3947 579.229 52.1307 579.464 52.728C579.72 53.304 579.997 53.8373 580.296 54.328C580.616 54.7973 580.893 55.2987 581.128 55.832C581.363 56.3653 581.48 57.016 581.48 57.784C581.48 58.6587 581.171 59.3947 580.552 59.992C579.955 60.568 579.187 60.856 578.248 60.856C576.947 60.856 575.912 60.28 575.144 59.128C574.397 57.9547 574.024 56.376 574.024 54.392C574.024 51.1493 574.824 48.3227 576.424 45.912C578.045 43.5013 580.36 41.6347 583.368 40.312C586.397 38.9893 590.003 38.328 594.184 38.328C598.557 38.328 602.621 39.1813 606.376 40.888C610.131 42.5947 613.48 45.0267 616.424 48.184C619.368 51.2987 621.576 54.8293 623.048 58.776C624.52 62.7013 625.256 66.8293 625.256 71.16C625.256 74.7867 624.648 77.8587 623.432 80.376C622.216 82.8933 620.488 84.8027 618.248 86.104C616.008 87.4053 613.331 88.056 610.216 88.056ZM603.496 80.952C604.968 79.8213 606.131 78.7227 606.984 77.656C607.859 76.5893 608.488 75.576 608.872 74.616C609.277 73.6347 609.48 72.728 609.48 71.896C609.48 71.128 609.363 70.488 609.128 69.976C608.915 69.4427 608.701 68.9413 608.488 68.472C608.275 68.0027 608.168 67.4693 608.168 66.872C608.168 65.976 608.467 65.208 609.064 64.568C609.683 63.928 610.461 63.608 611.4 63.608C612.381 63.608 613.181 64.0027 613.8 64.792C614.44 65.56 614.76 66.6587 614.76 68.088C614.76 70.6267 613.885 73.0587 612.136 75.384C610.408 77.688 607.763 79.8213 604.2 81.784L603.496 80.952ZM589.288 66.776C587.411 67.0747 585.843 67.6933 584.584 68.632C583.325 69.5707 582.387 70.712 581.768 72.056C581.149 73.4 580.84 74.8293 580.84 76.344C580.84 79.0747 581.597 81.24 583.112 82.84C584.648 84.4187 586.696 85.208 589.256 85.208C591.091 85.208 592.691 84.92 594.056 84.344C595.443 83.7467 596.744 82.968 597.96 82.008L598.792 83.128C597.704 84.088 596.52 84.9307 595.24 85.656C593.981 86.36 592.563 86.904 590.984 87.288C589.405 87.6933 587.613 87.896 585.608 87.896C581.917 87.896 579.037 87.0213 576.968 85.272C574.92 83.5013 573.896 81.08 573.896 78.008C573.896 75.7893 574.472 73.7947 575.624 72.024C576.776 70.2533 578.493 68.8133 580.776 67.704C583.059 66.5947 585.907 65.9013 589.32 65.624L589.288 66.776Z" fill="white"/>
<path d="M643.408 89V25.64H668.368C675.984 25.64 681.552 27.176 685.072 30.248C688.592 33.32 690.352 37.576 690.352 43.016C690.352 46.344 689.392 49.32 687.472 51.944C685.552 54.504 682.736 56.136 679.024 56.84V56.936C683.12 57.576 686.288 59.272 688.528 62.024C690.832 64.712 691.984 67.848 691.984 71.432C691.984 76.872 690 81.16 686.032 84.296C682.064 87.432 676.304 89 668.752 89H643.408ZM653.488 80.456H669.232C673.264 80.456 676.272 79.624 678.256 77.96C680.304 76.296 681.328 73.96 681.328 70.952C681.328 67.944 680.304 65.608 678.256 63.944C676.272 62.28 673.264 61.448 669.232 61.448H653.488V80.456ZM653.488 52.904H667.6C675.664 52.904 679.696 49.8 679.696 43.592C679.696 37.384 675.664 34.28 667.6 34.28H653.488V52.904ZM722.523 40.04C727.195 40.04 731.323 41.032 734.907 43.016C738.491 45 741.275 47.88 743.259 51.656C745.307 55.368 746.331 59.816 746.331 65C746.331 70.184 745.307 74.664 743.259 78.44C741.275 82.152 738.491 85 734.907 86.984C731.323 88.968 727.195 89.96 722.523 89.96C717.851 89.96 713.723 88.968 710.139 86.984C706.555 85 703.739 82.152 701.691 78.44C699.643 74.664 698.619 70.184 698.619 65C698.619 59.816 699.643 55.368 701.691 51.656C703.739 47.88 706.555 45 710.139 43.016C713.723 41.032 717.851 40.04 722.523 40.04ZM722.523 48.104C719.643 48.104 717.179 48.776 715.131 50.12C713.147 51.4 711.611 53.288 710.523 55.784C709.435 58.28 708.891 61.352 708.891 65C708.891 68.584 709.435 71.656 710.523 74.216C711.611 76.712 713.147 78.632 715.131 79.976C717.179 81.256 719.643 81.896 722.523 81.896C725.403 81.896 727.835 81.256 729.819 79.976C731.803 78.632 733.339 76.712 734.427 74.216C735.515 71.656 736.059 68.584 736.059 65C736.059 61.352 735.515 58.28 734.427 55.784C733.339 53.288 731.803 51.4 729.819 50.12C727.835 48.776 725.403 48.104 722.523 48.104ZM760.405 18.92V77.672C760.405 80.616 760.917 82.696 761.941 83.912C762.965 85.128 764.565 85.736 766.741 85.736C768.085 85.736 769.141 85.64 769.909 85.448C770.741 85.256 771.701 84.936 772.789 84.488L772.117 88.712C771.285 89.096 770.325 89.384 769.237 89.576C768.213 89.832 767.061 89.96 765.781 89.96C762.389 89.96 759.829 89 758.101 87.08C756.437 85.096 755.605 82.024 755.605 77.864V18.92H760.405ZM796.838 89.96C792.678 89.96 788.934 88.968 785.606 86.984C782.278 85 779.654 82.152 777.734 78.44C775.878 74.664 774.95 70.184 774.95 65C774.95 59.688 775.942 55.176 777.926 51.464C779.91 47.752 782.598 44.936 785.99 43.016C789.382 41.032 793.126 40.04 797.222 40.04C801.702 40.04 805.51 41.224 808.646 43.592C811.846 45.96 813.99 49.256 815.078 53.48L814.502 53.864V18.92H819.302V89H814.982L814.694 75.656L815.27 75.464C814.694 78.536 813.51 81.16 811.718 83.336C809.99 85.512 807.814 87.176 805.19 88.328C802.63 89.416 799.846 89.96 796.838 89.96ZM797.414 85.736C800.806 85.736 803.782 84.904 806.342 83.24C808.902 81.512 810.886 79.048 812.294 75.848C813.766 72.648 814.502 68.904 814.502 64.616C814.502 60.392 813.766 56.776 812.294 53.768C810.886 50.696 808.902 48.36 806.342 46.76C803.846 45.096 800.934 44.264 797.606 44.264C792.102 44.264 787.75 46.12 784.55 49.832C781.35 53.544 779.75 58.6 779.75 65C779.75 71.4 781.318 76.456 784.454 80.168C787.654 83.88 791.974 85.736 797.414 85.736ZM832.59 89V41H836.91L837.294 53L836.526 52.328C837.422 49.704 838.766 47.496 840.558 45.704C842.35 43.848 844.494 42.44 846.99 41.48C849.486 40.52 852.174 40.04 855.054 40.04C858.638 40.04 861.806 40.712 864.558 42.056C867.31 43.4 869.454 45.384 870.99 48.008C872.59 50.632 873.39 53.928 873.39 57.896V89H868.59V59.432C868.59 54.184 867.278 50.344 864.654 47.912C862.094 45.48 858.734 44.264 854.574 44.264C851.566 44.264 848.75 44.968 846.126 46.376C843.566 47.72 841.454 49.704 839.79 52.328C838.19 54.952 837.39 58.152 837.39 61.928V89H832.59ZM905.709 89.96C901.293 89.96 897.357 88.968 893.901 86.984C890.445 85 887.725 82.152 885.741 78.44C883.821 74.664 882.861 70.184 882.861 65C882.861 59.816 883.821 55.368 885.741 51.656C887.725 47.88 890.381 45 893.709 43.016C897.037 41.032 900.845 40.04 905.133 40.04C909.485 40.04 913.197 41 916.269 42.92C919.341 44.84 921.709 47.528 923.373 50.984C925.037 54.376 925.869 58.312 925.869 62.792C925.869 63.368 925.837 63.944 925.773 64.52C925.773 65.032 925.741 65.512 925.677 65.96H885.837V61.64H923.565L921.165 62.312C921.101 56.808 919.629 52.424 916.749 49.16C913.933 45.896 910.029 44.264 905.037 44.264C901.581 44.264 898.541 45.096 895.917 46.76C893.293 48.36 891.245 50.728 889.773 53.864C888.301 56.936 887.565 60.648 887.565 65C887.565 69.288 888.301 73 889.773 76.136C891.309 79.272 893.421 81.672 896.109 83.336C898.861 84.936 902.029 85.736 905.613 85.736C909.325 85.736 912.493 84.936 915.117 83.336C917.805 81.736 919.885 79.528 921.357 76.712L925.197 78.92C924.045 81.224 922.509 83.208 920.589 84.872C918.669 86.472 916.461 87.72 913.965 88.616C911.469 89.512 908.717 89.96 905.709 89.96ZM951.947 89.96C947.083 89.96 942.763 88.968 938.987 86.984C935.275 85 932.651 82.152 931.115 78.44L935.243 75.656C936.395 78.856 938.443 81.352 941.387 83.144C944.395 84.872 948.043 85.736 952.331 85.736C956.555 85.736 959.851 84.904 962.219 83.24C964.651 81.576 965.867 79.368 965.867 76.616C965.867 74.76 965.259 73.16 964.043 71.816C962.891 70.408 960.683 69.352 957.419 68.648L946.187 66.248C941.579 65.288 938.283 63.752 936.299 61.64C934.379 59.464 933.419 56.84 933.419 53.768C933.419 51.208 934.187 48.904 935.723 46.856C937.259 44.808 939.371 43.176 942.059 41.96C944.811 40.68 948.011 40.04 951.659 40.04C956.459 40.04 960.427 41 963.563 42.92C966.699 44.776 968.907 47.592 970.187 51.368L966.155 53.96C965.195 50.568 963.403 48.104 960.779 46.568C958.219 45.032 955.179 44.264 951.659 44.264C948.971 44.264 946.603 44.68 944.555 45.512C942.571 46.28 941.003 47.368 939.851 48.776C938.763 50.12 938.219 51.688 938.219 53.48C938.219 55.336 938.859 57.032 940.139 58.568C941.419 60.04 943.691 61.128 946.955 61.832L958.475 64.328C963.019 65.288 966.187 66.76 967.979 68.744C969.771 70.664 970.667 73.064 970.667 75.944C970.667 78.824 969.899 81.32 968.363 83.432C966.827 85.544 964.651 87.176 961.835 88.328C959.019 89.416 955.723 89.96 951.947 89.96ZM996.482 89.96C991.618 89.96 987.298 88.968 983.522 86.984C979.81 85 977.186 82.152 975.65 78.44L979.778 75.656C980.93 78.856 982.978 81.352 985.922 83.144C988.93 84.872 992.578 85.736 996.866 85.736C1001.09 85.736 1004.39 84.904 1006.75 83.24C1009.19 81.576 1010.4 79.368 1010.4 76.616C1010.4 74.76 1009.79 73.16 1008.58 71.816C1007.43 70.408 1005.22 69.352 1001.95 68.648L990.722 66.248C986.114 65.288 982.818 63.752 980.834 61.64C978.914 59.464 977.954 56.84 977.954 53.768C977.954 51.208 978.722 48.904 980.258 46.856C981.794 44.808 983.906 43.176 986.594 41.96C989.346 40.68 992.546 40.04 996.194 40.04C1000.99 40.04 1004.96 41 1008.1 42.92C1011.23 44.776 1013.44 47.592 1014.72 51.368L1010.69 53.96C1009.73 50.568 1007.94 48.104 1005.31 46.568C1002.75 45.032 999.714 44.264 996.194 44.264C993.506 44.264 991.138 44.68 989.09 45.512C987.106 46.28 985.538 47.368 984.386 48.776C983.298 50.12 982.754 51.688 982.754 53.48C982.754 55.336 983.394 57.032 984.674 58.568C985.954 60.04 988.226 61.128 991.49 61.832L1003.01 64.328C1007.55 65.288 1010.72 66.76 1012.51 68.744C1014.31 70.664 1015.2 73.064 1015.2 75.944C1015.2 78.824 1014.43 81.32 1012.9 83.432C1011.36 85.544 1009.19 87.176 1006.37 88.328C1003.55 89.416 1000.26 89.96 996.482 89.96Z" fill="white"/>
</svg>
