<svg width="915" height="113" viewBox="0 0 915 113" fill="none" xmlns="http://www.w3.org/2000/svg">
<path d="M62.1875 72.2C60.9075 76.04 58.9875 79.304 56.4275 81.992C53.8675 84.616 50.8595 86.6 47.4035 87.944C43.9475 89.288 40.1395 89.96 35.9795 89.96C29.8995 89.96 24.6195 88.648 20.1395 86.024C15.6595 83.4 12.2035 79.656 9.77152 74.792C7.33952 69.928 6.12352 64.104 6.12352 57.32C6.12352 50.536 7.33952 44.712 9.77152 39.848C12.2035 34.984 15.6595 31.24 20.1395 28.616C24.6195 25.992 29.8675 24.68 35.8835 24.68C40.0435 24.68 43.7875 25.256 47.1155 26.408C50.5075 27.56 53.3875 29.288 55.7555 31.592C58.1235 33.896 59.9475 36.776 61.2275 40.232L51.5315 44.552C50.2515 40.776 48.3955 38.024 45.9635 36.296C43.5315 34.504 40.3635 33.608 36.4595 33.608C32.5555 33.608 29.1315 34.536 26.1875 36.392C23.2435 38.248 20.9395 40.936 19.2755 44.456C17.6755 47.976 16.8755 52.264 16.8755 57.32C16.8755 62.312 17.6435 66.6 19.1795 70.184C20.7155 73.704 22.9235 76.392 25.8035 78.248C28.6835 80.104 32.1395 81.032 36.1715 81.032C40.0755 81.032 43.4355 80.04 46.2515 78.056C49.1315 76.008 51.1795 72.968 52.3955 68.936L62.1875 72.2ZM90.8525 40.04C95.5245 40.04 99.6525 41.032 103.237 43.016C106.821 45 109.605 47.88 111.589 51.656C113.637 55.368 114.661 59.816 114.661 65C114.661 70.184 113.637 74.664 111.589 78.44C109.605 82.152 106.821 85 103.237 86.984C99.6525 88.968 95.5245 89.96 90.8525 89.96C86.1805 89.96 82.0525 88.968 78.4685 86.984C74.8845 85 72.0685 82.152 70.0205 78.44C67.9725 74.664 66.9485 70.184 66.9485 65C66.9485 59.816 67.9725 55.368 70.0205 51.656C72.0685 47.88 74.8845 45 78.4685 43.016C82.0525 41.032 86.1805 40.04 90.8525 40.04ZM90.8525 48.104C87.9725 48.104 85.5085 48.776 83.4605 50.12C81.4765 51.4 79.9405 53.288 78.8525 55.784C77.7645 58.28 77.2205 61.352 77.2205 65C77.2205 68.584 77.7645 71.656 78.8525 74.216C79.9405 76.712 81.4765 78.632 83.4605 79.976C85.5085 81.256 87.9725 81.896 90.8525 81.896C93.7325 81.896 96.1645 81.256 98.1485 79.976C100.133 78.632 101.669 76.712 102.757 74.216C103.845 71.656 104.389 68.584 104.389 65C104.389 61.352 103.845 58.28 102.757 55.784C101.669 53.288 100.133 51.4 98.1485 50.12C96.1645 48.776 93.7325 48.104 90.8525 48.104ZM124.319 89V41H128.639L129.023 53L128.255 52.328C129.151 49.704 130.495 47.496 132.287 45.704C134.079 43.848 136.223 42.44 138.719 41.48C141.215 40.52 143.903 40.04 146.783 40.04C150.367 40.04 153.535 40.712 156.287 42.056C159.039 43.4 161.183 45.384 162.719 48.008C164.319 50.632 165.119 53.928 165.119 57.896V89H160.319V59.432C160.319 54.184 159.007 50.344 156.383 47.912C153.823 45.48 150.463 44.264 146.303 44.264C143.295 44.264 140.479 44.968 137.855 46.376C135.295 47.72 133.183 49.704 131.519 52.328C129.919 54.952 129.119 58.152 129.119 61.928V89H124.319ZM194.078 89.96C189.214 89.96 184.894 88.968 181.118 86.984C177.406 85 174.782 82.152 173.246 78.44L177.374 75.656C178.526 78.856 180.574 81.352 183.518 83.144C186.526 84.872 190.174 85.736 194.462 85.736C198.686 85.736 201.982 84.904 204.35 83.24C206.782 81.576 207.998 79.368 207.998 76.616C207.998 74.76 207.39 73.16 206.174 71.816C205.022 70.408 202.814 69.352 199.55 68.648L188.318 66.248C183.71 65.288 180.414 63.752 178.43 61.64C176.51 59.464 175.55 56.84 175.55 53.768C175.55 51.208 176.318 48.904 177.854 46.856C179.39 44.808 181.502 43.176 184.19 41.96C186.942 40.68 190.142 40.04 193.79 40.04C198.59 40.04 202.558 41 205.694 42.92C208.83 44.776 211.038 47.592 212.318 51.368L208.286 53.96C207.326 50.568 205.534 48.104 202.91 46.568C200.35 45.032 197.31 44.264 193.79 44.264C191.102 44.264 188.734 44.68 186.686 45.512C184.702 46.28 183.134 47.368 181.982 48.776C180.894 50.12 180.35 51.688 180.35 53.48C180.35 55.336 180.99 57.032 182.27 58.568C183.55 60.04 185.822 61.128 189.086 61.832L200.606 64.328C205.15 65.288 208.318 66.76 210.11 68.744C211.902 70.664 212.798 73.064 212.798 75.944C212.798 78.824 212.03 81.32 210.494 83.432C208.958 85.544 206.782 87.176 203.966 88.328C201.15 89.416 197.854 89.96 194.078 89.96ZM241.781 40.04C245.045 40.04 247.957 40.552 250.517 41.576C253.077 42.6 255.253 44.072 257.045 45.992C258.837 47.912 260.213 50.248 261.173 53L256.661 55.112C255.637 51.656 253.845 49 251.285 47.144C248.789 45.224 245.589 44.264 241.685 44.264C238.165 44.264 235.061 45.096 232.373 46.76C229.685 48.36 227.605 50.728 226.133 53.864C224.661 56.936 223.925 60.648 223.925 65C223.925 69.288 224.661 73 226.133 76.136C227.605 79.272 229.653 81.672 232.277 83.336C234.901 84.936 238.005 85.736 241.589 85.736C244.277 85.736 246.709 85.288 248.885 84.392C251.125 83.496 252.949 82.184 254.357 80.456C255.829 78.728 256.789 76.68 257.237 74.312L261.653 75.848C260.821 78.792 259.445 81.32 257.525 83.432C255.669 85.544 253.397 87.176 250.709 88.328C248.021 89.416 245.013 89.96 241.685 89.96C237.333 89.96 233.429 88.968 229.973 86.984C226.581 85 223.925 82.152 222.005 78.44C220.085 74.664 219.125 70.184 219.125 65C219.125 59.816 220.085 55.368 222.005 51.656C223.989 47.88 226.677 45 230.069 43.016C233.525 41.032 237.429 40.04 241.781 40.04ZM273.074 31.688C271.858 31.688 270.866 31.336 270.098 30.632C269.394 29.864 269.042 28.872 269.042 27.656C269.042 26.44 269.394 25.48 270.098 24.776C270.866 24.008 271.858 23.624 273.074 23.624C274.29 23.624 275.25 24.008 275.954 24.776C276.722 25.48 277.106 26.44 277.106 27.656C277.106 28.872 276.722 29.864 275.954 30.632C275.25 31.336 274.29 31.688 273.074 31.688ZM275.474 41V89H270.674V41H275.474ZM308.262 40.04C312.742 40.04 316.678 41.032 320.07 43.016C323.526 45 326.214 47.88 328.134 51.656C330.118 55.368 331.11 59.816 331.11 65C331.11 70.184 330.118 74.664 328.134 78.44C326.214 82.152 323.526 85 320.07 86.984C316.678 88.968 312.742 89.96 308.262 89.96C303.782 89.96 299.814 88.968 296.358 86.984C292.966 85 290.278 82.152 288.294 78.44C286.374 74.664 285.414 70.184 285.414 65C285.414 59.816 286.374 55.368 288.294 51.656C290.278 47.88 292.966 45 296.358 43.016C299.814 41.032 303.782 40.04 308.262 40.04ZM308.262 44.168C304.614 44.168 301.446 45 298.758 46.664C296.07 48.328 293.958 50.728 292.422 53.864C290.95 56.936 290.214 60.648 290.214 65C290.214 69.288 290.95 73 292.422 76.136C293.958 79.272 296.07 81.672 298.758 83.336C301.446 85 304.614 85.832 308.262 85.832C311.91 85.832 315.078 85 317.766 83.336C320.454 81.672 322.534 79.272 324.006 76.136C325.542 73 326.31 69.288 326.31 65C326.31 60.648 325.542 56.936 324.006 53.864C322.534 50.728 320.454 48.328 317.766 46.664C315.078 45 311.91 44.168 308.262 44.168ZM357.89 89.96C354.562 89.96 351.586 89.352 348.962 88.136C346.338 86.92 344.258 85.032 342.722 82.472C341.25 79.848 340.514 76.584 340.514 72.68V41H345.314V71.528C345.314 76.52 346.498 80.136 348.866 82.376C351.298 84.616 354.69 85.736 359.042 85.736C361.602 85.736 363.906 85.288 365.954 84.392C368.066 83.496 369.858 82.248 371.33 80.648C372.802 79.048 373.922 77.224 374.69 75.176C375.522 73.128 375.938 70.92 375.938 68.552V41H380.738V89H376.418L376.226 79.112C374.818 82.504 372.514 85.16 369.314 87.08C366.114 89 362.306 89.96 357.89 89.96ZM410.191 89.96C405.327 89.96 401.007 88.968 397.231 86.984C393.519 85 390.895 82.152 389.359 78.44L393.487 75.656C394.639 78.856 396.687 81.352 399.631 83.144C402.639 84.872 406.287 85.736 410.575 85.736C414.799 85.736 418.095 84.904 420.463 83.24C422.895 81.576 424.111 79.368 424.111 76.616C424.111 74.76 423.503 73.16 422.287 71.816C421.135 70.408 418.927 69.352 415.663 68.648L404.431 66.248C399.823 65.288 396.527 63.752 394.543 61.64C392.623 59.464 391.663 56.84 391.663 53.768C391.663 51.208 392.431 48.904 393.967 46.856C395.503 44.808 397.615 43.176 400.303 41.96C403.055 40.68 406.255 40.04 409.903 40.04C414.703 40.04 418.671 41 421.807 42.92C424.943 44.776 427.151 47.592 428.431 51.368L424.399 53.96C423.439 50.568 421.647 48.104 419.023 46.568C416.463 45.032 413.423 44.264 409.903 44.264C407.215 44.264 404.847 44.68 402.799 45.512C400.815 46.28 399.247 47.368 398.095 48.776C397.007 50.12 396.463 51.688 396.463 53.48C396.463 55.336 397.103 57.032 398.383 58.568C399.663 60.04 401.935 61.128 405.199 61.832L416.719 64.328C421.263 65.288 424.431 66.76 426.223 68.744C428.015 70.664 428.911 73.064 428.911 75.944C428.911 78.824 428.143 81.32 426.607 83.432C425.071 85.544 422.895 87.176 420.079 88.328C417.263 89.416 413.967 89.96 410.191 89.96ZM438.502 89V41H442.822L443.206 53L442.438 52.328C443.334 49.704 444.678 47.496 446.47 45.704C448.262 43.848 450.406 42.44 452.902 41.48C455.398 40.52 458.086 40.04 460.966 40.04C464.55 40.04 467.718 40.712 470.47 42.056C473.222 43.4 475.366 45.384 476.902 48.008C478.502 50.632 479.302 53.928 479.302 57.896V89H474.502V59.432C474.502 54.184 473.19 50.344 470.566 47.912C468.006 45.48 464.646 44.264 460.486 44.264C457.478 44.264 454.662 44.968 452.038 46.376C449.478 47.72 447.366 49.704 445.702 52.328C444.102 54.952 443.302 58.152 443.302 61.928V89H438.502ZM511.621 89.96C507.205 89.96 503.269 88.968 499.813 86.984C496.357 85 493.637 82.152 491.653 78.44C489.733 74.664 488.773 70.184 488.773 65C488.773 59.816 489.733 55.368 491.653 51.656C493.637 47.88 496.293 45 499.621 43.016C502.949 41.032 506.757 40.04 511.045 40.04C515.397 40.04 519.109 41 522.181 42.92C525.253 44.84 527.621 47.528 529.285 50.984C530.949 54.376 531.781 58.312 531.781 62.792C531.781 63.368 531.749 63.944 531.685 64.52C531.685 65.032 531.653 65.512 531.589 65.96H491.749V61.64H529.477L527.077 62.312C527.013 56.808 525.541 52.424 522.661 49.16C519.845 45.896 515.941 44.264 510.949 44.264C507.493 44.264 504.453 45.096 501.829 46.76C499.205 48.36 497.157 50.728 495.685 53.864C494.213 56.936 493.477 60.648 493.477 65C493.477 69.288 494.213 73 495.685 76.136C497.221 79.272 499.333 81.672 502.021 83.336C504.773 84.936 507.941 85.736 511.525 85.736C515.237 85.736 518.405 84.936 521.029 83.336C523.717 81.736 525.797 79.528 527.269 76.712L531.109 78.92C529.957 81.224 528.421 83.208 526.501 84.872C524.581 86.472 522.373 87.72 519.877 88.616C517.381 89.512 514.629 89.96 511.621 89.96ZM557.858 89.96C552.994 89.96 548.674 88.968 544.898 86.984C541.186 85 538.562 82.152 537.026 78.44L541.154 75.656C542.306 78.856 544.354 81.352 547.298 83.144C550.306 84.872 553.954 85.736 558.242 85.736C562.466 85.736 565.762 84.904 568.13 83.24C570.562 81.576 571.778 79.368 571.778 76.616C571.778 74.76 571.17 73.16 569.954 71.816C568.802 70.408 566.594 69.352 563.33 68.648L552.098 66.248C547.49 65.288 544.194 63.752 542.21 61.64C540.29 59.464 539.33 56.84 539.33 53.768C539.33 51.208 540.098 48.904 541.634 46.856C543.17 44.808 545.282 43.176 547.97 41.96C550.722 40.68 553.922 40.04 557.57 40.04C562.37 40.04 566.338 41 569.474 42.92C572.61 44.776 574.818 47.592 576.098 51.368L572.066 53.96C571.106 50.568 569.314 48.104 566.69 46.568C564.13 45.032 561.09 44.264 557.57 44.264C554.882 44.264 552.514 44.68 550.466 45.512C548.482 46.28 546.914 47.368 545.762 48.776C544.674 50.12 544.13 51.688 544.13 53.48C544.13 55.336 544.77 57.032 546.05 58.568C547.33 60.04 549.602 61.128 552.866 61.832L564.386 64.328C568.93 65.288 572.098 66.76 573.89 68.744C575.682 70.664 576.578 73.064 576.578 75.944C576.578 78.824 575.81 81.32 574.274 83.432C572.738 85.544 570.562 87.176 567.746 88.328C564.93 89.416 561.634 89.96 557.858 89.96ZM602.393 89.96C597.529 89.96 593.209 88.968 589.433 86.984C585.721 85 583.097 82.152 581.561 78.44L585.689 75.656C586.841 78.856 588.889 81.352 591.833 83.144C594.841 84.872 598.489 85.736 602.777 85.736C607.001 85.736 610.297 84.904 612.665 83.24C615.097 81.576 616.313 79.368 616.313 76.616C616.313 74.76 615.705 73.16 614.489 71.816C613.337 70.408 611.129 69.352 607.865 68.648L596.633 66.248C592.025 65.288 588.729 63.752 586.745 61.64C584.825 59.464 583.865 56.84 583.865 53.768C583.865 51.208 584.633 48.904 586.169 46.856C587.705 44.808 589.817 43.176 592.505 41.96C595.257 40.68 598.457 40.04 602.105 40.04C606.905 40.04 610.873 41 614.009 42.92C617.145 44.776 619.353 47.592 620.633 51.368L616.601 53.96C615.641 50.568 613.849 48.104 611.225 46.568C608.665 45.032 605.625 44.264 602.105 44.264C599.417 44.264 597.049 44.68 595.001 45.512C593.017 46.28 591.449 47.368 590.297 48.776C589.209 50.12 588.665 51.688 588.665 53.48C588.665 55.336 589.305 57.032 590.585 58.568C591.865 60.04 594.137 61.128 597.401 61.832L608.921 64.328C613.465 65.288 616.633 66.76 618.425 68.744C620.217 70.664 621.113 73.064 621.113 75.944C621.113 78.824 620.345 81.32 618.809 83.432C617.273 85.544 615.097 87.176 612.281 88.328C609.465 89.416 606.169 89.96 602.393 89.96Z" fill="white"/>
<path d="M675.216 88.056C672.976 88.056 670.928 87.7253 669.072 87.064C667.237 86.4027 665.509 85.3573 663.888 83.928C662.267 82.4987 660.688 80.6427 659.152 78.36C657.637 76.12 656.389 73.944 655.408 71.832C654.427 69.72 653.691 67.64 653.2 65.592C652.731 63.5227 652.496 61.464 652.496 59.416C652.496 57.048 652.955 54.9253 653.872 53.048C654.811 51.1707 656.133 49.6987 657.84 48.632C659.568 47.544 661.605 47 663.952 47C665.701 47 667.227 47.352 668.528 48.056C669.851 48.76 670.875 49.7307 671.6 50.968C672.347 52.2053 672.72 53.624 672.72 55.224C672.72 57.336 672.165 59.1813 671.056 60.76C669.947 62.3173 668.357 63.5653 666.288 64.504C664.219 65.4427 661.733 66.04 658.832 66.296L658.608 65.304C660.357 65.0693 661.872 64.536 663.152 63.704C664.453 62.8507 665.456 61.688 666.16 60.216C666.885 58.744 667.248 56.9413 667.248 54.808C667.248 52.9093 666.917 51.3733 666.256 50.2C665.616 49.0267 664.72 48.44 663.568 48.44C662.053 48.44 660.784 49.208 659.76 50.744C658.757 52.2587 658.256 54.296 658.256 56.856C658.256 58.8827 658.512 60.9093 659.024 62.936C659.536 64.9413 660.283 66.9573 661.264 68.984C662.267 70.9893 663.472 73.0053 664.88 75.032C666.587 77.5067 668.144 79.4907 669.552 80.984C670.96 82.4773 672.325 83.5653 673.648 84.248C674.992 84.9093 676.421 85.24 677.936 85.24C679.963 85.24 681.776 84.7387 683.376 83.736C684.976 82.712 686.224 81.176 687.12 79.128C688.037 77.0587 688.496 74.4453 688.496 71.288C688.496 67.3413 687.824 63.4693 686.48 59.672C685.136 55.8747 683.013 52.4187 680.112 49.304C677.36 46.3173 674.213 43.992 670.672 42.328C667.131 40.664 663.259 39.832 659.056 39.832C655.728 39.832 652.955 40.312 650.736 41.272C648.517 42.2107 646.853 43.4907 645.744 45.112C644.656 46.712 644.112 48.5147 644.112 50.52C644.112 51.3947 644.229 52.1307 644.464 52.728C644.72 53.304 644.997 53.8373 645.296 54.328C645.616 54.7973 645.893 55.2987 646.128 55.832C646.363 56.3653 646.48 57.016 646.48 57.784C646.48 58.6587 646.171 59.3947 645.552 59.992C644.955 60.568 644.187 60.856 643.248 60.856C641.947 60.856 640.912 60.28 640.144 59.128C639.397 57.9547 639.024 56.376 639.024 54.392C639.024 51.1493 639.824 48.3227 641.424 45.912C643.045 43.5013 645.36 41.6347 648.368 40.312C651.397 38.9893 655.003 38.328 659.184 38.328C663.557 38.328 667.621 39.1813 671.376 40.888C675.131 42.5947 678.48 45.0267 681.424 48.184C684.368 51.2987 686.576 54.8293 688.048 58.776C689.52 62.7013 690.256 66.8293 690.256 71.16C690.256 74.7867 689.648 77.8587 688.432 80.376C687.216 82.8933 685.488 84.8027 683.248 86.104C681.008 87.4053 678.331 88.056 675.216 88.056ZM668.496 80.952C669.968 79.8213 671.131 78.7227 671.984 77.656C672.859 76.5893 673.488 75.576 673.872 74.616C674.277 73.6347 674.48 72.728 674.48 71.896C674.48 71.128 674.363 70.488 674.128 69.976C673.915 69.4427 673.701 68.9413 673.488 68.472C673.275 68.0027 673.168 67.4693 673.168 66.872C673.168 65.976 673.467 65.208 674.064 64.568C674.683 63.928 675.461 63.608 676.4 63.608C677.381 63.608 678.181 64.0027 678.8 64.792C679.44 65.56 679.76 66.6587 679.76 68.088C679.76 70.6267 678.885 73.0587 677.136 75.384C675.408 77.688 672.763 79.8213 669.2 81.784L668.496 80.952ZM654.288 66.776C652.411 67.0747 650.843 67.6933 649.584 68.632C648.325 69.5707 647.387 70.712 646.768 72.056C646.149 73.4 645.84 74.8293 645.84 76.344C645.84 79.0747 646.597 81.24 648.112 82.84C649.648 84.4187 651.696 85.208 654.256 85.208C656.091 85.208 657.691 84.92 659.056 84.344C660.443 83.7467 661.744 82.968 662.96 82.008L663.792 83.128C662.704 84.088 661.52 84.9307 660.24 85.656C658.981 86.36 657.563 86.904 655.984 87.288C654.405 87.6933 652.613 87.896 650.608 87.896C646.917 87.896 644.037 87.0213 641.968 85.272C639.92 83.5013 638.896 81.08 638.896 78.008C638.896 75.7893 639.472 73.7947 640.624 72.024C641.776 70.2533 643.493 68.8133 645.776 67.704C648.059 66.5947 650.907 65.9013 654.32 65.624L654.288 66.776Z" fill="white"/>
<path d="M708.408 89V25.64H733.368C740.984 25.64 746.552 27.176 750.072 30.248C753.592 33.32 755.352 37.576 755.352 43.016C755.352 46.344 754.392 49.32 752.472 51.944C750.552 54.504 747.736 56.136 744.024 56.84V56.936C748.12 57.576 751.288 59.272 753.528 62.024C755.832 64.712 756.984 67.848 756.984 71.432C756.984 76.872 755 81.16 751.032 84.296C747.064 87.432 741.304 89 733.752 89H708.408ZM718.488 80.456H734.232C738.264 80.456 741.272 79.624 743.256 77.96C745.304 76.296 746.328 73.96 746.328 70.952C746.328 67.944 745.304 65.608 743.256 63.944C741.272 62.28 738.264 61.448 734.232 61.448H718.488V80.456ZM718.488 52.904H732.6C740.664 52.904 744.696 49.8 744.696 43.592C744.696 37.384 740.664 34.28 732.6 34.28H718.488V52.904ZM787.523 40.04C792.195 40.04 796.323 41.032 799.907 43.016C803.491 45 806.275 47.88 808.259 51.656C810.307 55.368 811.331 59.816 811.331 65C811.331 70.184 810.307 74.664 808.259 78.44C806.275 82.152 803.491 85 799.907 86.984C796.323 88.968 792.195 89.96 787.523 89.96C782.851 89.96 778.723 88.968 775.139 86.984C771.555 85 768.739 82.152 766.691 78.44C764.643 74.664 763.619 70.184 763.619 65C763.619 59.816 764.643 55.368 766.691 51.656C768.739 47.88 771.555 45 775.139 43.016C778.723 41.032 782.851 40.04 787.523 40.04ZM787.523 48.104C784.643 48.104 782.179 48.776 780.131 50.12C778.147 51.4 776.611 53.288 775.523 55.784C774.435 58.28 773.891 61.352 773.891 65C773.891 68.584 774.435 71.656 775.523 74.216C776.611 76.712 778.147 78.632 780.131 79.976C782.179 81.256 784.643 81.896 787.523 81.896C790.403 81.896 792.835 81.256 794.819 79.976C796.803 78.632 798.339 76.712 799.427 74.216C800.515 71.656 801.059 68.584 801.059 65C801.059 61.352 800.515 58.28 799.427 55.784C798.339 53.288 796.803 51.4 794.819 50.12C792.835 48.776 790.403 48.104 787.523 48.104ZM839.709 89.96C835.549 89.96 831.805 88.968 828.477 86.984C825.149 85 822.525 82.152 820.605 78.44C818.749 74.664 817.821 70.184 817.821 65C817.821 59.688 818.813 55.176 820.797 51.464C822.781 47.752 825.469 44.936 828.861 43.016C832.253 41.032 835.997 40.04 840.093 40.04C844.573 40.04 848.381 41.224 851.517 43.592C854.717 45.96 856.861 49.256 857.949 53.48L857.373 53.864V18.92H862.173V89H857.853L857.565 75.656L858.141 75.464C857.565 78.536 856.381 81.16 854.589 83.336C852.861 85.512 850.685 87.176 848.061 88.328C845.501 89.416 842.717 89.96 839.709 89.96ZM840.285 85.736C843.677 85.736 846.653 84.904 849.213 83.24C851.773 81.512 853.757 79.048 855.165 75.848C856.637 72.648 857.373 68.904 857.373 64.616C857.373 60.392 856.637 56.776 855.165 53.768C853.757 50.696 851.773 48.36 849.213 46.76C846.717 45.096 843.805 44.264 840.477 44.264C834.973 44.264 830.621 46.12 827.421 49.832C824.221 53.544 822.621 58.6 822.621 65C822.621 71.4 824.189 76.456 827.325 80.168C830.525 83.88 834.845 85.736 840.285 85.736ZM913.285 41L890.053 97.832C888.901 100.776 887.653 103.112 886.309 104.84C884.965 106.568 883.461 107.784 881.797 108.488C880.133 109.256 878.213 109.64 876.037 109.64C874.117 109.64 872.357 109.352 870.757 108.776C869.157 108.2 867.845 107.4 866.821 106.376L868.357 102.248C869.317 103.4 870.469 104.2 871.813 104.648C873.157 105.16 874.533 105.416 875.941 105.416C877.989 105.416 879.813 104.808 881.413 103.592C883.013 102.44 884.517 100.136 885.925 96.68L889.093 89L884.005 77.096L868.837 41H874.309L888.997 77.384L891.397 83.816L893.989 76.904L908.101 41H913.285Z" fill="white"/>
</svg>
