<svg width="350" height="34" viewBox="0 0 350 34" fill="none" xmlns="http://www.w3.org/2000/svg">
<path d="M301.668 22.72L299.956 26.224L293.876 12.144C293.684 11.6853 293.481 11.376 293.268 11.216C293.054 11.0453 292.713 10.912 292.244 10.816C292.052 10.7627 291.918 10.6987 291.844 10.624C291.78 10.5386 291.748 10.4266 291.748 10.288C291.748 10.1386 291.801 10.0213 291.908 9.93598C292.025 9.85065 292.185 9.80798 292.388 9.80798H298.836C299.038 9.80798 299.193 9.85065 299.3 9.93598C299.417 10.0107 299.476 10.128 299.476 10.288C299.476 10.416 299.433 10.5227 299.348 10.608C299.273 10.6933 299.134 10.7573 298.932 10.8L298.196 10.912C297.705 10.9973 297.417 11.1573 297.332 11.392C297.246 11.6266 297.321 12.0373 297.556 12.624L301.668 22.72ZM298.916 27.952L300.26 24.608L300.66 23.776L305.028 12.816C305.273 12.1973 305.348 11.76 305.252 11.504C305.166 11.2373 304.868 11.056 304.356 10.96L303.62 10.816C303.417 10.7733 303.273 10.7093 303.188 10.624C303.102 10.5386 303.06 10.4266 303.06 10.288C303.06 10.1386 303.113 10.0213 303.22 9.93598C303.337 9.85065 303.497 9.80798 303.7 9.80798H308.212C308.414 9.80798 308.574 9.85065 308.692 9.93598C308.809 10.0213 308.868 10.1386 308.868 10.288C308.868 10.4053 308.825 10.5067 308.74 10.592C308.665 10.6773 308.526 10.752 308.324 10.816C307.812 10.9333 307.428 11.104 307.172 11.328C306.926 11.552 306.692 11.9413 306.468 12.496L300.324 27.824C299.833 29.0293 299.364 29.9627 298.916 30.624C298.478 31.296 298.004 31.7653 297.492 32.032C296.98 32.2987 296.377 32.432 295.684 32.432C294.628 32.432 293.796 32.1493 293.188 31.584C292.59 31.0293 292.292 30.352 292.292 29.552C292.292 28.9867 292.425 28.544 292.692 28.224C292.958 27.9147 293.316 27.76 293.764 27.76C294.19 27.76 294.521 27.8933 294.756 28.16C294.99 28.4373 295.166 28.8053 295.284 29.264L295.412 29.808C295.476 30.1813 295.598 30.464 295.78 30.656C295.972 30.848 296.196 30.944 296.452 30.944C296.729 30.944 296.99 30.8587 297.236 30.688C297.492 30.5173 297.753 30.2133 298.02 29.776C298.286 29.3493 298.585 28.7413 298.916 27.952Z" fill="white"/>
<path d="M286.443 22.176L286.363 22.064V4.064C286.363 3.84 286.326 3.67999 286.251 3.58399C286.176 3.47733 286.054 3.41866 285.883 3.408L284.779 3.35999C284.608 3.33866 284.486 3.29066 284.411 3.21599C284.347 3.14133 284.315 3.05066 284.315 2.94399C284.315 2.81599 284.352 2.70933 284.427 2.62399C284.512 2.53866 284.667 2.45866 284.891 2.384L287.659 1.43999C287.968 1.32266 288.219 1.24266 288.411 1.2C288.603 1.14666 288.779 1.12 288.939 1.12C289.184 1.12 289.371 1.18933 289.499 1.328C289.627 1.46666 289.691 1.65333 289.691 1.88799V22.656C289.691 22.9227 289.739 23.1253 289.835 23.264C289.942 23.4027 290.096 23.4987 290.299 23.552L291.051 23.712C291.232 23.7653 291.366 23.8347 291.451 23.92C291.536 24.0053 291.579 24.112 291.579 24.24C291.579 24.3893 291.52 24.5067 291.403 24.592C291.296 24.6773 291.131 24.72 290.907 24.72H287.931C287.483 24.72 287.12 24.592 286.843 24.336C286.576 24.08 286.443 23.7067 286.443 23.216V22.176ZM274.859 17.632C274.859 15.9573 275.184 14.512 275.835 13.296C276.496 12.0693 277.382 11.1253 278.491 10.464C279.611 9.80266 280.848 9.47199 282.203 9.47199C283.451 9.47199 284.56 9.77599 285.531 10.384C286.502 10.992 287.28 11.8507 287.867 12.96L287.131 13.696C286.608 12.768 285.968 12.0587 285.211 11.568C284.464 11.0773 283.648 10.832 282.763 10.832C281.931 10.832 281.179 11.0667 280.507 11.536C279.835 11.9947 279.302 12.6987 278.907 13.648C278.523 14.5973 278.331 15.7973 278.331 17.248C278.331 18.6133 278.518 19.7547 278.891 20.672C279.264 21.5787 279.771 22.2667 280.411 22.736C281.062 23.1947 281.798 23.424 282.619 23.424C283.451 23.424 284.246 23.184 285.003 22.704C285.76 22.224 286.454 21.4987 287.083 20.528L287.579 21.296C286.758 22.512 285.819 23.4507 284.763 24.112C283.707 24.7627 282.566 25.088 281.339 25.088C280.091 25.088 278.976 24.7733 277.995 24.144C277.024 23.504 276.256 22.624 275.691 21.504C275.136 20.384 274.859 19.0933 274.859 17.632Z" fill="white"/>
<path d="M265.443 9.48798C266.979 9.48798 268.339 9.81864 269.523 10.48C270.707 11.1413 271.63 12.064 272.291 13.248C272.963 14.4213 273.299 15.776 273.299 17.312C273.299 18.8053 272.958 20.1386 272.275 21.312C271.603 22.4853 270.67 23.408 269.475 24.08C268.281 24.752 266.894 25.088 265.315 25.088C263.779 25.088 262.419 24.7573 261.235 24.096C260.062 23.424 259.139 22.5013 258.467 21.328C257.795 20.1546 257.459 18.8053 257.459 17.28C257.459 15.7653 257.795 14.4266 258.467 13.264C259.15 12.0906 260.089 11.168 261.283 10.496C262.478 9.82398 263.865 9.48798 265.443 9.48798ZM266.515 23.824C267.401 23.7066 268.121 23.3493 268.675 22.752C269.23 22.144 269.603 21.328 269.795 20.304C269.987 19.28 269.971 18.0746 269.747 16.688C269.523 15.28 269.15 14.112 268.627 13.184C268.105 12.256 267.47 11.584 266.723 11.168C265.977 10.752 265.15 10.608 264.243 10.736C263.358 10.864 262.638 11.2266 262.083 11.824C261.529 12.4213 261.155 13.232 260.963 14.256C260.782 15.28 260.803 16.4906 261.027 17.888C261.251 19.2853 261.625 20.448 262.147 21.376C262.67 22.304 263.305 22.976 264.051 23.392C264.798 23.808 265.619 23.952 266.515 23.824Z" fill="white"/>
<path d="M244.433 1.88799V22.8L242.913 24.64C242.582 24.8 242.337 24.9067 242.177 24.96C242.027 25.024 241.873 25.056 241.713 25.056C241.542 25.056 241.398 25.0027 241.281 24.896C241.174 24.7893 241.121 24.6293 241.121 24.416V4.064C241.121 3.84 241.083 3.67999 241.009 3.58399C240.934 3.47733 240.811 3.41866 240.641 3.408L239.537 3.35999C239.366 3.33866 239.243 3.29066 239.169 3.21599C239.105 3.14133 239.073 3.05066 239.073 2.94399C239.073 2.81599 239.11 2.70933 239.185 2.62399C239.27 2.53866 239.425 2.45866 239.649 2.384L242.417 1.43999C242.737 1.32266 242.987 1.24266 243.169 1.2C243.361 1.14666 243.526 1.12 243.665 1.12C243.931 1.12 244.123 1.18933 244.241 1.328C244.369 1.46666 244.433 1.65333 244.433 1.88799ZM243.713 14.032L243.233 13.264C244.054 12.048 244.987 11.1147 246.033 10.464C247.089 9.80266 248.235 9.47199 249.473 9.47199C250.721 9.47199 251.83 9.79199 252.801 10.432C253.782 11.0613 254.55 11.9413 255.105 13.072C255.67 14.192 255.953 15.4773 255.953 16.928C255.953 18.6027 255.622 20.048 254.961 21.264C254.31 22.48 253.43 23.424 252.321 24.096C251.211 24.7573 249.969 25.088 248.593 25.088C247.345 25.088 246.235 24.784 245.265 24.176C244.305 23.568 243.526 22.7093 242.929 21.6L243.665 20.864C244.198 21.8027 244.838 22.5173 245.585 23.008C246.342 23.488 247.158 23.728 248.033 23.728C248.865 23.728 249.617 23.4987 250.289 23.04C250.961 22.5707 251.489 21.8613 251.873 20.912C252.267 19.952 252.465 18.752 252.465 17.312C252.465 15.9467 252.278 14.8053 251.905 13.888C251.542 12.9707 251.035 12.2827 250.385 11.824C249.745 11.3547 249.014 11.12 248.193 11.12C247.361 11.12 246.561 11.36 245.793 11.84C245.035 12.32 244.342 13.0507 243.713 14.032Z" fill="white"/>
<path d="M224.099 25.328C222.947 25.328 221.907 25.1573 220.979 24.816C220.051 24.4747 219.182 23.9413 218.371 23.216C217.571 22.4907 216.782 21.5573 216.003 20.416C215.235 19.2747 214.595 18.1707 214.083 17.104C213.571 16.0373 213.182 14.9867 212.915 13.952C212.659 12.9173 212.531 11.8827 212.531 10.848C212.531 9.664 212.761 8.608 213.219 7.68C213.689 6.74133 214.355 6.00533 215.219 5.472C216.083 4.928 217.107 4.656 218.291 4.656C219.198 4.656 219.993 4.83733 220.675 5.2C221.358 5.56267 221.886 6.064 222.259 6.704C222.643 7.344 222.835 8.07467 222.835 8.896C222.835 9.93067 222.558 10.8373 222.003 11.616C221.459 12.3947 220.665 13.0293 219.619 13.52C218.574 14 217.31 14.304 215.827 14.432L215.683 13.776C216.59 13.648 217.363 13.376 218.003 12.96C218.654 12.544 219.15 11.9787 219.491 11.264C219.833 10.5387 220.003 9.66933 220.003 8.656C220.003 7.73867 219.827 6.992 219.475 6.416C219.134 5.84 218.681 5.552 218.115 5.552C217.337 5.552 216.702 5.92 216.211 6.656C215.721 7.38133 215.475 8.368 215.475 9.616C215.475 10.5867 215.603 11.5627 215.859 12.544C216.126 13.5147 216.51 14.5013 217.011 15.504C217.523 16.5067 218.137 17.5307 218.851 18.576C219.715 19.8133 220.499 20.8107 221.203 21.568C221.907 22.3147 222.595 22.8587 223.267 23.2C223.939 23.5413 224.643 23.712 225.379 23.712C226.414 23.712 227.342 23.456 228.163 22.944C228.995 22.4213 229.646 21.632 230.115 20.576C230.595 19.5093 230.835 18.1707 230.835 16.56C230.835 14.5653 230.494 12.6133 229.811 10.704C229.139 8.79467 228.035 7.04533 226.499 5.456C225.113 4.02667 223.539 2.928 221.779 2.16C220.019 1.38133 218.073 0.992001 215.939 0.992001C214.211 0.992001 212.787 1.232 211.667 1.712C210.547 2.192 209.715 2.832 209.171 3.632C208.627 4.42133 208.355 5.30133 208.355 6.272C208.355 6.688 208.409 7.04 208.515 7.328C208.633 7.616 208.766 7.87733 208.915 8.112C209.065 8.34667 209.198 8.59733 209.315 8.864C209.433 9.13067 209.491 9.46133 209.491 9.856C209.491 10.3147 209.326 10.6987 208.995 11.008C208.665 11.3067 208.243 11.456 207.731 11.456C207.081 11.456 206.569 11.1627 206.195 10.576C205.822 9.97867 205.635 9.20533 205.635 8.256C205.635 6.57067 206.046 5.11467 206.867 3.888C207.699 2.65067 208.889 1.696 210.435 1.024C211.982 0.341333 213.838 0 216.003 0C218.254 0 220.329 0.405333 222.227 1.216C224.137 2.016 225.838 3.184 227.331 4.72C228.899 6.30933 230.062 8.10667 230.819 10.112C231.587 12.1173 231.971 14.2347 231.971 16.464C231.971 18.3627 231.651 19.9733 231.011 21.296C230.382 22.6187 229.481 23.6213 228.307 24.304C227.134 24.9867 225.731 25.328 224.099 25.328ZM220.531 21.536C221.31 20.96 221.929 20.416 222.387 19.904C222.857 19.3813 223.193 18.8853 223.395 18.416C223.609 17.9467 223.715 17.4933 223.715 17.056C223.715 16.704 223.667 16.4053 223.571 16.16C223.486 15.9147 223.395 15.68 223.299 15.456C223.203 15.232 223.155 14.976 223.155 14.688C223.155 14.2187 223.305 13.824 223.603 13.504C223.902 13.1733 224.291 13.008 224.771 13.008C225.262 13.008 225.657 13.2053 225.955 13.6C226.265 13.9947 226.419 14.5387 226.419 15.232C226.419 16.4907 225.971 17.7013 225.075 18.864C224.19 20.016 222.83 21.088 220.995 22.08L220.531 21.536ZM213.571 14.72C212.579 14.88 211.763 15.1893 211.123 15.648C210.483 16.1067 210.009 16.6667 209.699 17.328C209.401 17.9787 209.251 18.688 209.251 19.456C209.251 20.7573 209.625 21.7973 210.371 22.576C211.118 23.344 212.094 23.728 213.299 23.728C214.185 23.728 214.974 23.5787 215.667 23.28C216.361 22.9813 217.038 22.5707 217.699 22.048L218.259 22.768C217.683 23.2693 217.07 23.7013 216.419 24.064C215.769 24.4267 215.049 24.704 214.259 24.896C213.481 25.0987 212.601 25.2 211.619 25.2C209.731 25.2 208.259 24.7573 207.203 23.872C206.158 22.9867 205.635 21.7547 205.635 20.176C205.635 19.0667 205.929 18.0693 206.515 17.184C207.113 16.2987 207.998 15.5787 209.171 15.024C210.345 14.4587 211.811 14.1013 213.571 13.952V14.72Z" fill="white"/>
<path d="M191.194 24C191.984 24 192.608 23.792 193.066 23.376C193.536 22.9493 193.77 22.4053 193.77 21.744C193.77 21.328 193.669 20.9547 193.466 20.624C193.274 20.2827 192.922 19.9787 192.41 19.712C191.909 19.4347 191.194 19.1733 190.266 18.928C188.816 18.5867 187.68 18.1707 186.858 17.68C186.048 17.1893 185.472 16.6293 185.13 16C184.8 15.3707 184.634 14.6827 184.634 13.936C184.634 12.5813 185.114 11.4987 186.074 10.688C187.034 9.87732 188.4 9.47198 190.17 9.47198C190.842 9.47198 191.392 9.53065 191.818 9.64799C192.256 9.76532 192.613 9.88799 192.89 10.016C193.178 10.1333 193.424 10.192 193.626 10.192C193.829 10.192 193.989 10.1333 194.106 10.016C194.234 9.88799 194.352 9.76532 194.458 9.64799C194.576 9.53065 194.725 9.47198 194.906 9.47198C195.034 9.47198 195.146 9.51465 195.242 9.59999C195.338 9.67465 195.418 9.81865 195.482 10.032L196.634 13.504C196.72 13.7707 196.746 13.9947 196.714 14.176C196.682 14.3467 196.57 14.4693 196.378 14.544C196.208 14.6187 196.053 14.6187 195.914 14.544C195.776 14.4693 195.648 14.3413 195.53 14.16C195.061 13.2533 194.549 12.5387 193.994 12.016C193.44 11.4933 192.853 11.12 192.234 10.896C191.626 10.672 190.992 10.56 190.33 10.56C189.328 10.56 188.576 10.7733 188.074 11.2C187.573 11.6267 187.322 12.1973 187.322 12.912C187.322 13.3387 187.429 13.728 187.642 14.08C187.856 14.432 188.245 14.7573 188.81 15.056C189.376 15.3547 190.176 15.6373 191.21 15.904C192.49 16.2133 193.509 16.592 194.266 17.04C195.024 17.488 195.568 18.0213 195.898 18.64C196.24 19.2587 196.41 19.984 196.41 20.816C196.41 21.648 196.197 22.3893 195.77 23.04C195.354 23.68 194.762 24.1813 193.994 24.544C193.237 24.9067 192.352 25.088 191.338 25.088C190.688 25.088 190.16 25.0187 189.754 24.88C189.349 24.7413 189.013 24.6027 188.746 24.464C188.48 24.3253 188.229 24.256 187.994 24.256C187.792 24.256 187.626 24.3253 187.498 24.464C187.37 24.592 187.248 24.7253 187.13 24.864C187.013 25.0133 186.869 25.088 186.698 25.088C186.581 25.088 186.48 25.0453 186.394 24.96C186.309 24.8747 186.25 24.7307 186.218 24.528L185.514 21.264C185.45 20.9227 185.434 20.672 185.466 20.512C185.498 20.3413 185.594 20.224 185.754 20.16C185.936 20.0853 186.09 20.096 186.218 20.192C186.357 20.2773 186.496 20.4427 186.634 20.688C187.264 21.872 187.968 22.72 188.746 23.232C189.536 23.744 190.352 24 191.194 24Z" fill="white"/>
<path d="M177.529 24C178.319 24 178.943 23.792 179.401 23.376C179.871 22.9493 180.105 22.4053 180.105 21.744C180.105 21.328 180.004 20.9547 179.801 20.624C179.609 20.2827 179.257 19.9787 178.745 19.712C178.244 19.4347 177.529 19.1733 176.601 18.928C175.151 18.5867 174.015 18.1707 173.193 17.68C172.383 17.1893 171.807 16.6293 171.465 16C171.135 15.3707 170.969 14.6827 170.969 13.936C170.969 12.5813 171.449 11.4987 172.409 10.688C173.369 9.87732 174.735 9.47198 176.505 9.47198C177.177 9.47198 177.727 9.53065 178.153 9.64799C178.591 9.76532 178.948 9.88799 179.225 10.016C179.513 10.1333 179.759 10.192 179.961 10.192C180.164 10.192 180.324 10.1333 180.441 10.016C180.569 9.88799 180.687 9.76532 180.793 9.64799C180.911 9.53065 181.06 9.47198 181.241 9.47198C181.369 9.47198 181.481 9.51465 181.577 9.59999C181.673 9.67465 181.753 9.81865 181.817 10.032L182.969 13.504C183.055 13.7707 183.081 13.9947 183.049 14.176C183.017 14.3467 182.905 14.4693 182.713 14.544C182.543 14.6187 182.388 14.6187 182.249 14.544C182.111 14.4693 181.983 14.3413 181.865 14.16C181.396 13.2533 180.884 12.5387 180.329 12.016C179.775 11.4933 179.188 11.12 178.569 10.896C177.961 10.672 177.327 10.56 176.665 10.56C175.663 10.56 174.911 10.7733 174.409 11.2C173.908 11.6267 173.657 12.1973 173.657 12.912C173.657 13.3387 173.764 13.728 173.977 14.08C174.191 14.432 174.58 14.7573 175.145 15.056C175.711 15.3547 176.511 15.6373 177.545 15.904C178.825 16.2133 179.844 16.592 180.601 17.04C181.359 17.488 181.903 18.0213 182.233 18.64C182.575 19.2587 182.745 19.984 182.745 20.816C182.745 21.648 182.532 22.3893 182.105 23.04C181.689 23.68 181.097 24.1813 180.329 24.544C179.572 24.9067 178.687 25.088 177.673 25.088C177.023 25.088 176.495 25.0187 176.089 24.88C175.684 24.7413 175.348 24.6027 175.081 24.464C174.815 24.3253 174.564 24.256 174.329 24.256C174.127 24.256 173.961 24.3253 173.833 24.464C173.705 24.592 173.583 24.7253 173.465 24.864C173.348 25.0133 173.204 25.088 173.033 25.088C172.916 25.088 172.815 25.0453 172.729 24.96C172.644 24.8747 172.585 24.7307 172.553 24.528L171.849 21.264C171.785 20.9227 171.769 20.672 171.801 20.512C171.833 20.3413 171.929 20.224 172.089 20.16C172.271 20.0853 172.425 20.096 172.553 20.192C172.692 20.2773 172.831 20.4427 172.969 20.688C173.599 21.872 174.303 22.72 175.081 23.232C175.871 23.744 176.687 24 177.529 24Z" fill="white"/>
<path d="M169.457 15.456C169.457 15.904 169.324 16.2507 169.057 16.496C168.791 16.7307 168.407 16.848 167.905 16.848H157.713V15.904H165.329C165.82 15.904 166.065 15.6853 166.065 15.248C166.065 13.7867 165.761 12.6507 165.153 11.84C164.545 11.0293 163.729 10.624 162.705 10.624C161.905 10.624 161.201 10.8587 160.593 11.328C159.985 11.7867 159.511 12.4427 159.169 13.296C158.828 14.1493 158.657 15.152 158.657 16.304C158.657 18.4373 159.159 20.0587 160.161 21.168C161.175 22.2667 162.497 22.816 164.129 22.816C165.185 22.816 166.097 22.5707 166.865 22.08C167.644 21.5893 168.188 20.9333 168.497 20.112C168.615 19.952 168.716 19.84 168.801 19.776C168.887 19.712 168.977 19.68 169.073 19.68C169.201 19.68 169.297 19.7387 169.361 19.856C169.425 19.9733 169.452 20.112 169.441 20.272C169.377 21.1573 169.063 21.968 168.497 22.704C167.932 23.4293 167.18 24.0107 166.241 24.448C165.303 24.8747 164.236 25.088 163.041 25.088C161.569 25.088 160.268 24.7787 159.137 24.16C158.017 23.5307 157.143 22.6507 156.513 21.52C155.895 20.3893 155.585 19.0667 155.585 17.552C155.585 15.9947 155.889 14.6133 156.497 13.408C157.116 12.192 157.991 11.232 159.121 10.528C160.252 9.82398 161.591 9.47198 163.137 9.47198C164.428 9.47198 165.543 9.72799 166.481 10.24C167.431 10.752 168.161 11.456 168.673 12.352C169.196 13.248 169.457 14.2827 169.457 15.456Z" fill="white"/>
<path d="M142.499 10.352V22.656C142.499 22.9227 142.547 23.1253 142.643 23.264C142.749 23.4027 142.904 23.4987 143.107 23.552L143.859 23.728C144.168 23.824 144.323 23.984 144.323 24.208C144.323 24.5493 144.099 24.72 143.651 24.72H137.923C137.699 24.72 137.533 24.6773 137.427 24.592C137.32 24.5067 137.267 24.3893 137.267 24.24C137.267 24.112 137.309 24.0107 137.395 23.936C137.48 23.8507 137.608 23.7813 137.779 23.728L138.563 23.552C138.765 23.4987 138.92 23.408 139.027 23.28C139.133 23.1413 139.187 22.9387 139.187 22.672V12.528C139.187 12.304 139.149 12.144 139.075 12.048C139 11.952 138.872 11.8933 138.691 11.872L137.603 11.84C137.432 11.808 137.309 11.76 137.235 11.696C137.16 11.6213 137.123 11.5253 137.123 11.408C137.123 11.28 137.165 11.1787 137.251 11.104C137.336 11.0187 137.485 10.9387 137.699 10.864L140.483 9.90398C140.792 9.79732 141.043 9.72265 141.235 9.67999C141.427 9.62665 141.597 9.59999 141.747 9.59999C142.003 9.59999 142.189 9.66932 142.307 9.80799C142.435 9.93599 142.499 10.1173 142.499 10.352ZM142.067 13.712L141.491 13.12L142.179 12.528C143.416 11.4293 144.477 10.6453 145.363 10.176C146.259 9.70665 147.117 9.47198 147.939 9.47198C149.197 9.47198 150.168 9.88799 150.851 10.72C151.544 11.552 151.971 12.6827 152.131 14.112L153.139 22.592C153.171 22.88 153.235 23.104 153.331 23.264C153.437 23.4133 153.603 23.5147 153.827 23.568L154.515 23.728C154.685 23.7813 154.808 23.8507 154.883 23.936C154.968 24.0107 155.011 24.112 155.011 24.24C155.011 24.3893 154.957 24.5067 154.851 24.592C154.755 24.6773 154.595 24.72 154.371 24.72H148.595C148.136 24.72 147.907 24.5493 147.907 24.208C147.907 23.984 148.061 23.824 148.371 23.728L149.155 23.552C149.379 23.4987 149.549 23.3973 149.667 23.248C149.784 23.0987 149.827 22.88 149.795 22.592L148.819 14.608C148.691 13.552 148.419 12.7627 148.003 12.24C147.587 11.7067 146.979 11.44 146.179 11.44C145.677 11.44 145.144 11.5787 144.579 11.856C144.024 12.1333 143.411 12.5547 142.739 13.12L142.067 13.712Z" fill="white"/>
<path d="M130.066 24C130.855 24 131.479 23.792 131.938 23.376C132.407 22.9493 132.642 22.4053 132.642 21.744C132.642 21.328 132.54 20.9547 132.338 20.624C132.146 20.2827 131.794 19.9787 131.282 19.712C130.78 19.4347 130.066 19.1733 129.138 18.928C127.687 18.5867 126.551 18.1707 125.73 17.68C124.919 17.1893 124.343 16.6293 124.002 16C123.671 15.3707 123.506 14.6827 123.506 13.936C123.506 12.5813 123.986 11.4987 124.946 10.688C125.906 9.87732 127.271 9.47198 129.042 9.47198C129.714 9.47198 130.263 9.53065 130.69 9.64799C131.127 9.76532 131.484 9.88799 131.762 10.016C132.05 10.1333 132.295 10.192 132.498 10.192C132.7 10.192 132.86 10.1333 132.978 10.016C133.106 9.88799 133.223 9.76532 133.33 9.64799C133.447 9.53065 133.596 9.47198 133.778 9.47198C133.906 9.47198 134.018 9.51465 134.114 9.59999C134.21 9.67465 134.29 9.81865 134.354 10.032L135.506 13.504C135.591 13.7707 135.618 13.9947 135.586 14.176C135.554 14.3467 135.442 14.4693 135.25 14.544C135.079 14.6187 134.924 14.6187 134.786 14.544C134.647 14.4693 134.519 14.3413 134.402 14.16C133.932 13.2533 133.42 12.5387 132.866 12.016C132.311 11.4933 131.724 11.12 131.106 10.896C130.498 10.672 129.863 10.56 129.202 10.56C128.199 10.56 127.447 10.7733 126.946 11.2C126.444 11.6267 126.194 12.1973 126.194 12.912C126.194 13.3387 126.3 13.728 126.514 14.08C126.727 14.432 127.116 14.7573 127.682 15.056C128.247 15.3547 129.047 15.6373 130.082 15.904C131.362 16.2133 132.38 16.592 133.138 17.04C133.895 17.488 134.439 18.0213 134.77 18.64C135.111 19.2587 135.282 19.984 135.282 20.816C135.282 21.648 135.068 22.3893 134.642 23.04C134.226 23.68 133.634 24.1813 132.866 24.544C132.108 24.9067 131.223 25.088 130.21 25.088C129.559 25.088 129.031 25.0187 128.626 24.88C128.22 24.7413 127.884 24.6027 127.618 24.464C127.351 24.3253 127.1 24.256 126.866 24.256C126.663 24.256 126.498 24.3253 126.37 24.464C126.242 24.592 126.119 24.7253 126.002 24.864C125.884 25.0133 125.74 25.088 125.57 25.088C125.452 25.088 125.351 25.0453 125.266 24.96C125.18 24.8747 125.122 24.7307 125.09 24.528L124.386 21.264C124.322 20.9227 124.306 20.672 124.338 20.512C124.37 20.3413 124.466 20.224 124.626 20.16C124.807 20.0853 124.962 20.096 125.09 20.192C125.228 20.2773 125.367 20.4427 125.506 20.688C126.135 21.872 126.839 22.72 127.618 23.232C128.407 23.744 129.223 24 130.066 24Z" fill="white"/>
<path d="M116.971 22.992V21.856L116.891 21.776V12.544C116.891 12.32 116.854 12.16 116.779 12.064C116.704 11.9573 116.576 11.8986 116.395 11.888L115.307 11.84C115.136 11.8186 115.014 11.7706 114.939 11.696C114.864 11.6213 114.827 11.5306 114.827 11.424C114.827 11.296 114.87 11.1946 114.955 11.12C115.04 11.0346 115.19 10.9493 115.403 10.864L118.187 9.91998C118.496 9.80264 118.747 9.72264 118.939 9.67998C119.131 9.62664 119.302 9.59998 119.451 9.59998C119.707 9.59998 119.894 9.66931 120.011 9.80798C120.139 9.94664 120.203 10.1333 120.203 10.368V22.656C120.203 22.9226 120.251 23.1253 120.347 23.264C120.454 23.4026 120.608 23.4986 120.811 23.552L121.563 23.712C121.744 23.7653 121.878 23.8346 121.963 23.92C122.048 24.0053 122.091 24.112 122.091 24.24C122.091 24.3893 122.032 24.5066 121.915 24.592C121.808 24.6773 121.643 24.72 121.419 24.72H118.507C118.038 24.72 117.664 24.5706 117.387 24.272C117.11 23.9626 116.971 23.536 116.971 22.992ZM107.003 20.416V12.544C107.003 12.32 106.966 12.16 106.891 12.064C106.816 11.9573 106.688 11.8986 106.507 11.888L105.403 11.84C105.243 11.8186 105.126 11.7706 105.051 11.696C104.976 11.6213 104.939 11.5306 104.939 11.424C104.939 11.296 104.982 11.1946 105.067 11.12C105.152 11.0346 105.302 10.9493 105.515 10.864L108.299 9.91998C108.619 9.80264 108.875 9.72264 109.067 9.67998C109.259 9.62664 109.419 9.59998 109.547 9.59998C109.803 9.59998 109.995 9.66931 110.123 9.80798C110.251 9.94664 110.315 10.1333 110.315 10.368V19.92C110.315 20.9973 110.571 21.7973 111.083 22.32C111.606 22.8426 112.294 23.104 113.147 23.104C113.68 23.104 114.246 22.9706 114.843 22.704C115.451 22.4373 116.096 22.0106 116.779 21.424L117.451 20.848L118.027 21.424L117.339 22.016C116.091 23.1466 114.998 23.9413 114.059 24.4C113.131 24.848 112.24 25.072 111.387 25.072C110.075 25.072 109.014 24.656 108.203 23.824C107.403 22.992 107.003 21.856 107.003 20.416Z" fill="white"/>
<path d="M96.0033 9.48798C97.5393 9.48798 98.8993 9.81864 100.083 10.48C101.267 11.1413 102.19 12.064 102.851 13.248C103.523 14.4213 103.859 15.776 103.859 17.312C103.859 18.8053 103.518 20.1386 102.835 21.312C102.163 22.4853 101.23 23.408 100.035 24.08C98.8406 24.752 97.4539 25.088 95.8753 25.088C94.3393 25.088 92.9793 24.7573 91.7953 24.096C90.622 23.424 89.6993 22.5013 89.0273 21.328C88.3553 20.1546 88.0193 18.8053 88.0193 17.28C88.0193 15.7653 88.3553 14.4266 89.0273 13.264C89.7099 12.0906 90.6486 11.168 91.8433 10.496C93.038 9.82398 94.4246 9.48798 96.0033 9.48798ZM97.0753 23.824C97.9606 23.7066 98.6806 23.3493 99.2353 22.752C99.7899 22.144 100.163 21.328 100.355 20.304C100.547 19.28 100.531 18.0746 100.307 16.688C100.083 15.28 99.71 14.112 99.1873 13.184C98.6646 12.256 98.03 11.584 97.2833 11.168C96.5366 10.752 95.71 10.608 94.8033 10.736C93.918 10.864 93.198 11.2266 92.6433 11.824C92.0886 12.4213 91.7153 13.232 91.5233 14.256C91.342 15.28 91.3633 16.4906 91.5873 17.888C91.8113 19.2853 92.1846 20.448 92.7073 21.376C93.2299 22.304 93.8646 22.976 94.6113 23.392C95.358 23.808 96.1793 23.952 97.0753 23.824Z" fill="white"/>
<path d="M84.9483 10.352V22.656C84.9483 22.9226 84.9963 23.1253 85.0923 23.264C85.1989 23.4026 85.3536 23.4986 85.5563 23.552L86.3083 23.712C86.4896 23.7653 86.6229 23.8346 86.7083 23.92C86.7936 24.0053 86.8363 24.112 86.8363 24.24C86.8363 24.3893 86.7776 24.5066 86.6603 24.592C86.5536 24.6773 86.3883 24.72 86.1643 24.72H80.3723C80.1483 24.72 79.9829 24.6773 79.8763 24.592C79.7696 24.5066 79.7163 24.3893 79.7163 24.24C79.7163 24.112 79.7589 24.0106 79.8443 23.936C79.9296 23.8506 80.0576 23.7813 80.2283 23.728L81.0123 23.552C81.2149 23.4986 81.3643 23.408 81.4603 23.28C81.5669 23.1413 81.6203 22.9386 81.6203 22.672V12.528C81.6203 12.304 81.5829 12.144 81.5083 12.048C81.4336 11.952 81.3109 11.8933 81.1403 11.872L80.0363 11.84C79.8763 11.808 79.7589 11.76 79.6843 11.696C79.6096 11.6213 79.5723 11.5253 79.5723 11.408C79.5723 11.28 79.6149 11.1786 79.7003 11.104C79.7856 11.0186 79.9349 10.9386 80.1483 10.864L82.9323 9.90396C83.2523 9.78663 83.5029 9.70663 83.6843 9.66396C83.8763 9.6213 84.0416 9.59996 84.1803 9.59996C84.4363 9.59996 84.6283 9.6693 84.7563 9.80796C84.8843 9.93596 84.9483 10.1173 84.9483 10.352ZM82.9643 6.65596C82.2816 6.65596 81.7323 6.4693 81.3163 6.09596C80.9003 5.71196 80.6923 5.22663 80.6923 4.63996C80.6923 4.04263 80.9003 3.55729 81.3163 3.18396C81.7429 2.81063 82.2923 2.62396 82.9643 2.62396C83.6363 2.62396 84.1856 2.81596 84.6123 3.19996C85.0389 3.5733 85.2523 4.0533 85.2523 4.63996C85.2523 5.22663 85.0389 5.71196 84.6123 6.09596C84.1856 6.4693 83.6363 6.65596 82.9643 6.65596Z" fill="white"/>
<path d="M78.2581 13.568C78.2581 14.0693 78.0927 14.4853 77.7621 14.816C77.4421 15.1467 77.0154 15.312 76.4821 15.312C75.9594 15.312 75.5487 15.1627 75.2501 14.864C74.9621 14.5547 74.8181 14.1493 74.8181 13.648V13.104C74.8181 12.368 74.5621 11.7707 74.0501 11.312C73.5381 10.8533 72.8341 10.624 71.9381 10.624C71.1274 10.624 70.4021 10.8587 69.7621 11.328C69.1327 11.7973 68.6367 12.4587 68.2741 13.312C67.9221 14.1547 67.7461 15.152 67.7461 16.304C67.7461 17.6907 67.9807 18.8693 68.4501 19.84C68.9194 20.8 69.5647 21.5307 70.3861 22.032C71.2074 22.5333 72.1407 22.784 73.1861 22.784C74.1994 22.784 75.0741 22.5493 75.8101 22.08C76.5567 21.6107 77.0901 20.976 77.4101 20.176C77.5274 20.016 77.6287 19.9093 77.7141 19.856C77.7994 19.792 77.8954 19.76 78.0021 19.76C78.1301 19.76 78.2207 19.8187 78.2741 19.936C78.3381 20.0427 78.3647 20.1707 78.3541 20.32C78.2687 21.2053 77.9487 22.0107 77.3941 22.736C76.8394 23.4613 76.1087 24.0373 75.2021 24.464C74.2954 24.88 73.2607 25.088 72.0981 25.088C70.6367 25.088 69.3461 24.7787 68.2261 24.16C67.1167 23.5413 66.2474 22.6667 65.6181 21.536C64.9887 20.4053 64.6741 19.072 64.6741 17.536C64.6741 16.0213 64.9941 14.656 65.6341 13.44C66.2741 12.224 67.1701 11.2587 68.3221 10.544C69.4847 9.82932 70.8447 9.47198 72.4021 9.47198C73.6074 9.47198 74.6474 9.66398 75.5221 10.048C76.4074 10.4213 77.0847 10.9173 77.5541 11.536C78.0234 12.1547 78.2581 12.832 78.2581 13.568Z" fill="white"/>
<path d="M57.5529 24C58.3423 24 58.9663 23.792 59.4249 23.376C59.8943 22.9493 60.1289 22.4053 60.1289 21.744C60.1289 21.328 60.0276 20.9547 59.8249 20.624C59.6329 20.2827 59.2809 19.9787 58.7689 19.712C58.2676 19.4347 57.5529 19.1733 56.6249 18.928C55.1743 18.5867 54.0383 18.1707 53.2169 17.68C52.4063 17.1893 51.8303 16.6293 51.4889 16C51.1583 15.3707 50.9929 14.6827 50.9929 13.936C50.9929 12.5813 51.4729 11.4987 52.4329 10.688C53.3929 9.87732 54.7583 9.47198 56.5289 9.47198C57.2009 9.47198 57.7503 9.53065 58.1769 9.64799C58.6143 9.76532 58.9716 9.88799 59.2489 10.016C59.5369 10.1333 59.7823 10.192 59.9849 10.192C60.1876 10.192 60.3476 10.1333 60.4649 10.016C60.5929 9.88799 60.7103 9.76532 60.8169 9.64799C60.9343 9.53065 61.0836 9.47198 61.2649 9.47198C61.3929 9.47198 61.5049 9.51465 61.6009 9.59999C61.6969 9.67465 61.7769 9.81865 61.8409 10.032L62.9929 13.504C63.0783 13.7707 63.1049 13.9947 63.0729 14.176C63.0409 14.3467 62.9289 14.4693 62.7369 14.544C62.5663 14.6187 62.4116 14.6187 62.2729 14.544C62.1343 14.4693 62.0063 14.3413 61.8889 14.16C61.4196 13.2533 60.9076 12.5387 60.3529 12.016C59.7983 11.4933 59.2116 11.12 58.5929 10.896C57.9849 10.672 57.3503 10.56 56.6889 10.56C55.6863 10.56 54.9343 10.7733 54.4329 11.2C53.9316 11.6267 53.6809 12.1973 53.6809 12.912C53.6809 13.3387 53.7876 13.728 54.0009 14.08C54.2143 14.432 54.6036 14.7573 55.1689 15.056C55.7343 15.3547 56.5343 15.6373 57.5689 15.904C58.8489 16.2133 59.8676 16.592 60.6249 17.04C61.3823 17.488 61.9263 18.0213 62.2569 18.64C62.5983 19.2587 62.7689 19.984 62.7689 20.816C62.7689 21.648 62.5556 22.3893 62.1289 23.04C61.7129 23.68 61.1209 24.1813 60.3529 24.544C59.5956 24.9067 58.7103 25.088 57.6969 25.088C57.0463 25.088 56.5183 25.0187 56.1129 24.88C55.7076 24.7413 55.3716 24.6027 55.1049 24.464C54.8383 24.3253 54.5876 24.256 54.3529 24.256C54.1503 24.256 53.9849 24.3253 53.8569 24.464C53.7289 24.592 53.6063 24.7253 53.4889 24.864C53.3716 25.0133 53.2276 25.088 53.0569 25.088C52.9396 25.088 52.8383 25.0453 52.7529 24.96C52.6676 24.8747 52.6089 24.7307 52.5769 24.528L51.8729 21.264C51.8089 20.9227 51.7929 20.672 51.8249 20.512C51.8569 20.3413 51.9529 20.224 52.1129 20.16C52.2943 20.0853 52.4489 20.096 52.5769 20.192C52.7156 20.2773 52.8543 20.4427 52.9929 20.688C53.6223 21.872 54.3263 22.72 55.1049 23.232C55.8943 23.744 56.7103 24 57.5529 24Z" fill="white"/>
<path d="M37.906 10.352V22.656C37.906 22.9227 37.954 23.1253 38.05 23.264C38.1567 23.4027 38.3114 23.4987 38.514 23.552L39.266 23.728C39.5754 23.824 39.73 23.984 39.73 24.208C39.73 24.5493 39.506 24.72 39.058 24.72H33.33C33.106 24.72 32.9407 24.6773 32.834 24.592C32.7274 24.5067 32.674 24.3893 32.674 24.24C32.674 24.112 32.7167 24.0107 32.802 23.936C32.8874 23.8507 33.0154 23.7813 33.186 23.728L33.97 23.552C34.1727 23.4987 34.3274 23.408 34.434 23.28C34.5407 23.1413 34.594 22.9387 34.594 22.672V12.528C34.594 12.304 34.5567 12.144 34.482 12.048C34.4074 11.952 34.2794 11.8933 34.098 11.872L33.01 11.84C32.8394 11.808 32.7167 11.76 32.642 11.696C32.5674 11.6213 32.53 11.5253 32.53 11.408C32.53 11.28 32.5727 11.1787 32.658 11.104C32.7434 11.0187 32.8927 10.9387 33.106 10.864L35.89 9.90398C36.1994 9.79732 36.45 9.72265 36.642 9.67999C36.834 9.62665 37.0047 9.59999 37.154 9.59999C37.41 9.59999 37.5967 9.66932 37.714 9.80799C37.842 9.93599 37.906 10.1173 37.906 10.352ZM37.474 13.712L36.898 13.12L37.586 12.528C38.8234 11.4293 39.8847 10.6453 40.77 10.176C41.666 9.70665 42.5247 9.47198 43.346 9.47198C44.6047 9.47198 45.5754 9.88799 46.258 10.72C46.9514 11.552 47.378 12.6827 47.538 14.112L48.546 22.592C48.578 22.88 48.642 23.104 48.738 23.264C48.8447 23.4133 49.01 23.5147 49.234 23.568L49.922 23.728C50.0927 23.7813 50.2154 23.8507 50.29 23.936C50.3754 24.0107 50.418 24.112 50.418 24.24C50.418 24.3893 50.3647 24.5067 50.258 24.592C50.162 24.6773 50.002 24.72 49.778 24.72H44.002C43.5434 24.72 43.314 24.5493 43.314 24.208C43.314 23.984 43.4687 23.824 43.778 23.728L44.562 23.552C44.786 23.4987 44.9567 23.3973 45.074 23.248C45.1914 23.0987 45.234 22.88 45.202 22.592L44.226 14.608C44.098 13.552 43.826 12.7627 43.41 12.24C42.994 11.7067 42.386 11.44 41.586 11.44C41.0847 11.44 40.5514 11.5787 39.986 11.856C39.4314 12.1333 38.818 12.5547 38.146 13.12L37.474 13.712Z" fill="white"/>
<path d="M23.1783 9.48798C24.7143 9.48798 26.0743 9.81864 27.2583 10.48C28.4423 11.1413 29.365 12.064 30.0263 13.248C30.6983 14.4213 31.0343 15.776 31.0343 17.312C31.0343 18.8053 30.693 20.1386 30.0103 21.312C29.3383 22.4853 28.405 23.408 27.2103 24.08C26.0157 24.752 24.629 25.088 23.0503 25.088C21.5143 25.088 20.1543 24.7573 18.9703 24.096C17.797 23.424 16.8743 22.5013 16.2023 21.328C15.5303 20.1546 15.1943 18.8053 15.1943 17.28C15.1943 15.7653 15.5303 14.4266 16.2023 13.264C16.885 12.0906 17.8237 11.168 19.0183 10.496C20.213 9.82398 21.5997 9.48798 23.1783 9.48798ZM24.2503 23.824C25.1357 23.7066 25.8557 23.3493 26.4103 22.752C26.965 22.144 27.3383 21.328 27.5303 20.304C27.7223 19.28 27.7063 18.0746 27.4823 16.688C27.2583 15.28 26.885 14.112 26.3623 13.184C25.8397 12.256 25.205 11.584 24.4583 11.168C23.7117 10.752 22.885 10.608 21.9783 10.736C21.093 10.864 20.373 11.2266 19.8183 11.824C19.2637 12.4213 18.8903 13.232 18.6983 14.256C18.517 15.28 18.5383 16.4906 18.7623 17.888C18.9863 19.2853 19.3597 20.448 19.8823 21.376C20.405 22.304 21.0397 22.976 21.7863 23.392C22.533 23.808 23.3543 23.952 24.2503 23.824Z" fill="white"/>
<path d="M13.8479 13.568C13.8479 14.0693 13.6826 14.4853 13.3519 14.816C13.0319 15.1467 12.6053 15.312 12.0719 15.312C11.5492 15.312 11.1386 15.1627 10.8399 14.864C10.5519 14.5547 10.4079 14.1493 10.4079 13.648V13.104C10.4079 12.368 10.1519 11.7707 9.63992 11.312C9.12792 10.8533 8.42392 10.624 7.52792 10.624C6.71725 10.624 5.99192 10.8587 5.35192 11.328C4.72258 11.7973 4.22658 12.4587 3.86392 13.312C3.51192 14.1547 3.33592 15.152 3.33592 16.304C3.33592 17.6907 3.57058 18.8693 4.03992 19.84C4.50925 20.8 5.15458 21.5307 5.97592 22.032C6.79725 22.5333 7.73058 22.784 8.77592 22.784C9.78925 22.784 10.6639 22.5493 11.3999 22.08C12.1466 21.6107 12.6799 20.976 12.9999 20.176C13.1173 20.016 13.2186 19.9093 13.3039 19.856C13.3893 19.792 13.4853 19.76 13.5919 19.76C13.7199 19.76 13.8106 19.8187 13.8639 19.936C13.9279 20.0427 13.9546 20.1707 13.9439 20.32C13.8586 21.2053 13.5386 22.0107 12.9839 22.736C12.4292 23.4613 11.6986 24.0373 10.7919 24.464C9.88525 24.88 8.85058 25.088 7.68792 25.088C6.22658 25.088 4.93592 24.7787 3.81592 24.16C2.70658 23.5413 1.83725 22.6667 1.20792 21.536C0.578583 20.4053 0.263916 19.072 0.263916 17.536C0.263916 16.0213 0.583916 14.656 1.22392 13.44C1.86392 12.224 2.75992 11.2587 3.91192 10.544C5.07458 9.82932 6.43458 9.47198 7.99192 9.47198C9.19725 9.47198 10.2372 9.66398 11.1119 10.048C11.9972 10.4213 12.6746 10.9173 13.1439 11.536C13.6133 12.1547 13.8479 12.832 13.8479 13.568Z" fill="white"/>
</svg>
