<svg width="1074" height="113" viewBox="0 0 1074 113" fill="none" xmlns="http://www.w3.org/2000/svg">
<path d="M62.07 72.2C60.79 76.04 58.87 79.304 56.31 81.992C53.75 84.616 50.742 86.6 47.286 87.944C43.83 89.288 40.022 89.96 35.862 89.96C29.782 89.96 24.502 88.648 20.022 86.024C15.542 83.4 12.086 79.656 9.65403 74.792C7.22202 69.928 6.00602 64.104 6.00602 57.32C6.00602 50.536 7.22202 44.712 9.65403 39.848C12.086 34.984 15.542 31.24 20.022 28.616C24.502 25.992 29.75 24.68 35.766 24.68C39.926 24.68 43.67 25.256 46.998 26.408C50.39 27.56 53.27 29.288 55.638 31.592C58.006 33.896 59.83 36.776 61.11 40.232L51.414 44.552C50.134 40.776 48.278 38.024 45.846 36.296C43.414 34.504 40.246 33.608 36.342 33.608C32.438 33.608 29.014 34.536 26.07 36.392C23.126 38.248 20.822 40.936 19.158 44.456C17.558 47.976 16.758 52.264 16.758 57.32C16.758 62.312 17.526 66.6 19.062 70.184C20.598 73.704 22.806 76.392 25.686 78.248C28.566 80.104 32.022 81.032 36.054 81.032C39.958 81.032 43.318 80.04 46.134 78.056C49.014 76.008 51.062 72.968 52.278 68.936L62.07 72.2ZM90.735 40.04C95.407 40.04 99.535 41.032 103.119 43.016C106.703 45 109.487 47.88 111.471 51.656C113.519 55.368 114.543 59.816 114.543 65C114.543 70.184 113.519 74.664 111.471 78.44C109.487 82.152 106.703 85 103.119 86.984C99.535 88.968 95.407 89.96 90.735 89.96C86.063 89.96 81.935 88.968 78.351 86.984C74.767 85 71.951 82.152 69.903 78.44C67.855 74.664 66.831 70.184 66.831 65C66.831 59.816 67.855 55.368 69.903 51.656C71.951 47.88 74.767 45 78.351 43.016C81.935 41.032 86.063 40.04 90.735 40.04ZM90.735 48.104C87.855 48.104 85.391 48.776 83.343 50.12C81.359 51.4 79.823 53.288 78.735 55.784C77.647 58.28 77.103 61.352 77.103 65C77.103 68.584 77.647 71.656 78.735 74.216C79.823 76.712 81.359 78.632 83.343 79.976C85.391 81.256 87.855 81.896 90.735 81.896C93.615 81.896 96.047 81.256 98.031 79.976C100.015 78.632 101.551 76.712 102.639 74.216C103.727 71.656 104.271 68.584 104.271 65C104.271 61.352 103.727 58.28 102.639 55.784C101.551 53.288 100.015 51.4 98.031 50.12C96.047 48.776 93.615 48.104 90.735 48.104ZM124.202 89V41H128.522L128.906 53L128.138 52.328C129.034 49.704 130.378 47.496 132.17 45.704C133.962 43.848 136.106 42.44 138.602 41.48C141.098 40.52 143.786 40.04 146.666 40.04C150.25 40.04 153.418 40.712 156.17 42.056C158.922 43.4 161.066 45.384 162.602 48.008C164.202 50.632 165.002 53.928 165.002 57.896V89H160.202V59.432C160.202 54.184 158.89 50.344 156.266 47.912C153.706 45.48 150.346 44.264 146.186 44.264C143.178 44.264 140.362 44.968 137.738 46.376C135.178 47.72 133.066 49.704 131.402 52.328C129.802 54.952 129.002 58.152 129.002 61.928V89H124.202ZM184.486 27.656V76.328C184.486 79.336 185.19 81.64 186.598 83.24C188.07 84.776 190.182 85.544 192.934 85.544C194.726 85.544 196.294 85.256 197.638 84.68C199.046 84.04 200.294 83.144 201.382 81.992L203.206 85.928C201.99 87.144 200.454 88.136 198.598 88.904C196.742 89.608 194.662 89.96 192.358 89.96C189.862 89.96 187.654 89.512 185.734 88.616C183.814 87.656 182.31 86.216 181.222 84.296C180.198 82.376 179.686 79.944 179.686 77V29L184.486 27.656ZM202.438 41V45.128H170.086V41H202.438ZM228.449 89.96C224.033 89.96 220.097 88.968 216.641 86.984C213.185 85 210.465 82.152 208.481 78.44C206.561 74.664 205.601 70.184 205.601 65C205.601 59.816 206.561 55.368 208.481 51.656C210.465 47.88 213.121 45 216.449 43.016C219.777 41.032 223.585 40.04 227.873 40.04C232.225 40.04 235.937 41 239.009 42.92C242.081 44.84 244.449 47.528 246.113 50.984C247.777 54.376 248.609 58.312 248.609 62.792C248.609 63.368 248.577 63.944 248.513 64.52C248.513 65.032 248.481 65.512 248.417 65.96H208.577V61.64H246.305L243.905 62.312C243.841 56.808 242.369 52.424 239.489 49.16C236.673 45.896 232.769 44.264 227.777 44.264C224.321 44.264 221.281 45.096 218.657 46.76C216.033 48.36 213.985 50.728 212.513 53.864C211.041 56.936 210.305 60.648 210.305 65C210.305 69.288 211.041 73 212.513 76.136C214.049 79.272 216.161 81.672 218.849 83.336C221.601 84.936 224.769 85.736 228.353 85.736C232.065 85.736 235.233 84.936 237.857 83.336C240.545 81.736 242.625 79.528 244.097 76.712L247.937 78.92C246.785 81.224 245.249 83.208 243.329 84.872C241.409 86.472 239.201 87.72 236.705 88.616C234.209 89.512 231.457 89.96 228.449 89.96ZM258.463 89V41H262.783L263.167 53L262.399 52.328C263.295 49.704 264.639 47.496 266.431 45.704C268.223 43.848 270.367 42.44 272.863 41.48C275.359 40.52 278.047 40.04 280.927 40.04C284.511 40.04 287.679 40.712 290.431 42.056C293.183 43.4 295.327 45.384 296.863 48.008C298.463 50.632 299.263 53.928 299.263 57.896V89H294.463V59.432C294.463 54.184 293.151 50.344 290.527 47.912C287.967 45.48 284.607 44.264 280.447 44.264C277.439 44.264 274.623 44.968 271.999 46.376C269.439 47.72 267.327 49.704 265.663 52.328C264.063 54.952 263.263 58.152 263.263 61.928V89H258.463ZM318.747 27.656V76.328C318.747 79.336 319.451 81.64 320.859 83.24C322.331 84.776 324.443 85.544 327.195 85.544C328.987 85.544 330.555 85.256 331.899 84.68C333.307 84.04 334.555 83.144 335.643 81.992L337.467 85.928C336.251 87.144 334.715 88.136 332.859 88.904C331.003 89.608 328.923 89.96 326.619 89.96C324.123 89.96 321.915 89.512 319.995 88.616C318.075 87.656 316.571 86.216 315.483 84.296C314.459 82.376 313.947 79.944 313.947 77V29L318.747 27.656ZM336.699 41V45.128H304.347V41H336.699ZM343.127 89V41H347.447L347.735 50.984C349.143 47.528 351.415 44.84 354.551 42.92C357.751 41 361.303 40.04 365.207 40.04C369.367 40.04 372.951 41.032 375.959 43.016C379.031 45 381.143 47.912 382.295 51.752C383.127 49.32 384.471 47.24 386.327 45.512C388.183 43.72 390.359 42.344 392.855 41.384C395.351 40.424 397.943 39.944 400.631 39.944C403.959 39.944 406.967 40.616 409.655 41.96C412.407 43.24 414.583 45.224 416.183 47.912C417.847 50.536 418.679 53.832 418.679 57.8V88.904H413.879V58.28C413.879 53.544 412.599 50.024 410.039 47.72C407.543 45.352 404.215 44.168 400.055 44.168C397.047 44.168 394.263 44.904 391.703 46.376C389.143 47.784 387.095 49.8 385.559 52.424C384.087 54.984 383.351 57.96 383.351 61.352V89H378.551V58.376C378.551 53.64 377.271 50.12 374.711 47.816C372.151 45.448 368.823 44.264 364.727 44.264C361.847 44.264 359.127 44.968 356.567 46.376C354.007 47.784 351.927 49.8 350.327 52.424C348.727 55.048 347.927 58.184 347.927 61.832V89H343.127ZM451.027 89.96C446.611 89.96 442.675 88.968 439.219 86.984C435.763 85 433.043 82.152 431.059 78.44C429.139 74.664 428.179 70.184 428.179 65C428.179 59.816 429.139 55.368 431.059 51.656C433.043 47.88 435.699 45 439.027 43.016C442.355 41.032 446.163 40.04 450.451 40.04C454.803 40.04 458.515 41 461.587 42.92C464.659 44.84 467.027 47.528 468.691 50.984C470.355 54.376 471.187 58.312 471.187 62.792C471.187 63.368 471.155 63.944 471.091 64.52C471.091 65.032 471.059 65.512 470.995 65.96H431.155V61.64H468.883L466.483 62.312C466.419 56.808 464.947 52.424 462.067 49.16C459.251 45.896 455.347 44.264 450.355 44.264C446.899 44.264 443.859 45.096 441.235 46.76C438.611 48.36 436.563 50.728 435.091 53.864C433.619 56.936 432.883 60.648 432.883 65C432.883 69.288 433.619 73 435.091 76.136C436.627 79.272 438.739 81.672 441.427 83.336C444.179 84.936 447.347 85.736 450.931 85.736C454.643 85.736 457.811 84.936 460.435 83.336C463.123 81.736 465.203 79.528 466.675 76.712L470.515 78.92C469.363 81.224 467.827 83.208 465.907 84.872C463.987 86.472 461.779 87.72 459.283 88.616C456.787 89.512 454.035 89.96 451.027 89.96ZM481.04 89V41H485.36L485.744 53L484.976 52.328C485.872 49.704 487.216 47.496 489.008 45.704C490.8 43.848 492.944 42.44 495.44 41.48C497.936 40.52 500.624 40.04 503.504 40.04C507.088 40.04 510.256 40.712 513.008 42.056C515.76 43.4 517.904 45.384 519.44 48.008C521.04 50.632 521.84 53.928 521.84 57.896V89H517.04V59.432C517.04 54.184 515.728 50.344 513.104 47.912C510.544 45.48 507.184 44.264 503.024 44.264C500.016 44.264 497.2 44.968 494.576 46.376C492.016 47.72 489.904 49.704 488.24 52.328C486.64 54.952 485.84 58.152 485.84 61.928V89H481.04ZM541.325 27.656V76.328C541.325 79.336 542.029 81.64 543.437 83.24C544.909 84.776 547.021 85.544 549.773 85.544C551.565 85.544 553.133 85.256 554.477 84.68C555.885 84.04 557.133 83.144 558.221 81.992L560.045 85.928C558.829 87.144 557.293 88.136 555.437 88.904C553.581 89.608 551.501 89.96 549.197 89.96C546.701 89.96 544.493 89.512 542.573 88.616C540.653 87.656 539.149 86.216 538.061 84.296C537.037 82.376 536.525 79.944 536.525 77V29L541.325 27.656ZM559.277 41V45.128H526.925V41H559.277Z" fill="white"/>
<path d="M610.216 88.056C607.976 88.056 605.928 87.7253 604.072 87.064C602.237 86.4027 600.509 85.3573 598.888 83.928C597.267 82.4987 595.688 80.6427 594.152 78.36C592.637 76.12 591.389 73.944 590.408 71.832C589.427 69.72 588.691 67.64 588.2 65.592C587.731 63.5227 587.496 61.464 587.496 59.416C587.496 57.048 587.955 54.9253 588.872 53.048C589.811 51.1707 591.133 49.6987 592.84 48.632C594.568 47.544 596.605 47 598.952 47C600.701 47 602.227 47.352 603.528 48.056C604.851 48.76 605.875 49.7307 606.6 50.968C607.347 52.2053 607.72 53.624 607.72 55.224C607.72 57.336 607.165 59.1813 606.056 60.76C604.947 62.3173 603.357 63.5653 601.288 64.504C599.219 65.4427 596.733 66.04 593.832 66.296L593.608 65.304C595.357 65.0693 596.872 64.536 598.152 63.704C599.453 62.8507 600.456 61.688 601.16 60.216C601.885 58.744 602.248 56.9413 602.248 54.808C602.248 52.9093 601.917 51.3733 601.256 50.2C600.616 49.0267 599.72 48.44 598.568 48.44C597.053 48.44 595.784 49.208 594.76 50.744C593.757 52.2587 593.256 54.296 593.256 56.856C593.256 58.8827 593.512 60.9093 594.024 62.936C594.536 64.9413 595.283 66.9573 596.264 68.984C597.267 70.9893 598.472 73.0053 599.88 75.032C601.587 77.5067 603.144 79.4907 604.552 80.984C605.96 82.4773 607.325 83.5653 608.648 84.248C609.992 84.9093 611.421 85.24 612.936 85.24C614.963 85.24 616.776 84.7387 618.376 83.736C619.976 82.712 621.224 81.176 622.12 79.128C623.037 77.0587 623.496 74.4453 623.496 71.288C623.496 67.3413 622.824 63.4693 621.48 59.672C620.136 55.8747 618.013 52.4187 615.112 49.304C612.36 46.3173 609.213 43.992 605.672 42.328C602.131 40.664 598.259 39.832 594.056 39.832C590.728 39.832 587.955 40.312 585.736 41.272C583.517 42.2107 581.853 43.4907 580.744 45.112C579.656 46.712 579.112 48.5147 579.112 50.52C579.112 51.3947 579.229 52.1307 579.464 52.728C579.72 53.304 579.997 53.8373 580.296 54.328C580.616 54.7973 580.893 55.2987 581.128 55.832C581.363 56.3653 581.48 57.016 581.48 57.784C581.48 58.6587 581.171 59.3947 580.552 59.992C579.955 60.568 579.187 60.856 578.248 60.856C576.947 60.856 575.912 60.28 575.144 59.128C574.397 57.9547 574.024 56.376 574.024 54.392C574.024 51.1493 574.824 48.3227 576.424 45.912C578.045 43.5013 580.36 41.6347 583.368 40.312C586.397 38.9893 590.003 38.328 594.184 38.328C598.557 38.328 602.621 39.1813 606.376 40.888C610.131 42.5947 613.48 45.0267 616.424 48.184C619.368 51.2987 621.576 54.8293 623.048 58.776C624.52 62.7013 625.256 66.8293 625.256 71.16C625.256 74.7867 624.648 77.8587 623.432 80.376C622.216 82.8933 620.488 84.8027 618.248 86.104C616.008 87.4053 613.331 88.056 610.216 88.056ZM603.496 80.952C604.968 79.8213 606.131 78.7227 606.984 77.656C607.859 76.5893 608.488 75.576 608.872 74.616C609.277 73.6347 609.48 72.728 609.48 71.896C609.48 71.128 609.363 70.488 609.128 69.976C608.915 69.4427 608.701 68.9413 608.488 68.472C608.275 68.0027 608.168 67.4693 608.168 66.872C608.168 65.976 608.467 65.208 609.064 64.568C609.683 63.928 610.461 63.608 611.4 63.608C612.381 63.608 613.181 64.0027 613.8 64.792C614.44 65.56 614.76 66.6587 614.76 68.088C614.76 70.6267 613.885 73.0587 612.136 75.384C610.408 77.688 607.763 79.8213 604.2 81.784L603.496 80.952ZM589.288 66.776C587.411 67.0747 585.843 67.6933 584.584 68.632C583.325 69.5707 582.387 70.712 581.768 72.056C581.149 73.4 580.84 74.8293 580.84 76.344C580.84 79.0747 581.597 81.24 583.112 82.84C584.648 84.4187 586.696 85.208 589.256 85.208C591.091 85.208 592.691 84.92 594.056 84.344C595.443 83.7467 596.744 82.968 597.96 82.008L598.792 83.128C597.704 84.088 596.52 84.9307 595.24 85.656C593.981 86.36 592.563 86.904 590.984 87.288C589.405 87.6933 587.613 87.896 585.608 87.896C581.917 87.896 579.037 87.0213 576.968 85.272C574.92 83.5013 573.896 81.08 573.896 78.008C573.896 75.7893 574.472 73.7947 575.624 72.024C576.776 70.2533 578.493 68.8133 580.776 67.704C583.059 66.5947 585.907 65.9013 589.32 65.624L589.288 66.776Z" fill="white"/>
<path d="M643.408 89V25.64H668.368C675.984 25.64 681.552 27.176 685.072 30.248C688.592 33.32 690.352 37.576 690.352 43.016C690.352 46.344 689.392 49.32 687.472 51.944C685.552 54.504 682.736 56.136 679.024 56.84V56.936C683.12 57.576 686.288 59.272 688.528 62.024C690.832 64.712 691.984 67.848 691.984 71.432C691.984 76.872 690 81.16 686.032 84.296C682.064 87.432 676.304 89 668.752 89H643.408ZM653.488 80.456H669.232C673.264 80.456 676.272 79.624 678.256 77.96C680.304 76.296 681.328 73.96 681.328 70.952C681.328 67.944 680.304 65.608 678.256 63.944C676.272 62.28 673.264 61.448 669.232 61.448H653.488V80.456ZM653.488 52.904H667.6C675.664 52.904 679.696 49.8 679.696 43.592C679.696 37.384 675.664 34.28 667.6 34.28H653.488V52.904ZM722.523 40.04C727.195 40.04 731.323 41.032 734.907 43.016C738.491 45 741.275 47.88 743.259 51.656C745.307 55.368 746.331 59.816 746.331 65C746.331 70.184 745.307 74.664 743.259 78.44C741.275 82.152 738.491 85 734.907 86.984C731.323 88.968 727.195 89.96 722.523 89.96C717.851 89.96 713.723 88.968 710.139 86.984C706.555 85 703.739 82.152 701.691 78.44C699.643 74.664 698.619 70.184 698.619 65C698.619 59.816 699.643 55.368 701.691 51.656C703.739 47.88 706.555 45 710.139 43.016C713.723 41.032 717.851 40.04 722.523 40.04ZM722.523 48.104C719.643 48.104 717.179 48.776 715.131 50.12C713.147 51.4 711.611 53.288 710.523 55.784C709.435 58.28 708.891 61.352 708.891 65C708.891 68.584 709.435 71.656 710.523 74.216C711.611 76.712 713.147 78.632 715.131 79.976C717.179 81.256 719.643 81.896 722.523 81.896C725.403 81.896 727.835 81.256 729.819 79.976C731.803 78.632 733.339 76.712 734.427 74.216C735.515 71.656 736.059 68.584 736.059 65C736.059 61.352 735.515 58.28 734.427 55.784C733.339 53.288 731.803 51.4 729.819 50.12C727.835 48.776 725.403 48.104 722.523 48.104ZM772.885 89.96C769.557 89.96 766.581 89.352 763.957 88.136C761.333 86.92 759.253 85.032 757.717 82.472C756.245 79.848 755.509 76.584 755.509 72.68V41H760.309V71.528C760.309 76.52 761.493 80.136 763.861 82.376C766.293 84.616 769.685 85.736 774.037 85.736C776.597 85.736 778.901 85.288 780.949 84.392C783.061 83.496 784.853 82.248 786.325 80.648C787.797 79.048 788.917 77.224 789.685 75.176C790.517 73.128 790.933 70.92 790.933 68.552V41H795.733V89H791.413L791.221 79.112C789.813 82.504 787.509 85.16 784.309 87.08C781.109 89 777.301 89.96 772.885 89.96ZM808.961 89V41H813.281L813.665 53L812.897 52.328C813.793 49.704 815.137 47.496 816.929 45.704C818.721 43.848 820.865 42.44 823.361 41.48C825.857 40.52 828.545 40.04 831.425 40.04C835.009 40.04 838.177 40.712 840.929 42.056C843.681 43.4 845.825 45.384 847.361 48.008C848.961 50.632 849.761 53.928 849.761 57.896V89H844.961V59.432C844.961 54.184 843.649 50.344 841.025 47.912C838.465 45.48 835.105 44.264 830.945 44.264C827.937 44.264 825.121 44.968 822.497 46.376C819.937 47.72 817.825 49.704 816.161 52.328C814.561 54.952 813.761 58.152 813.761 61.928V89H808.961ZM881.217 89.96C877.057 89.96 873.313 88.968 869.985 86.984C866.656 85 864.032 82.152 862.112 78.44C860.256 74.664 859.328 70.184 859.328 65C859.328 59.688 860.32 55.176 862.304 51.464C864.289 47.752 866.977 44.936 870.368 43.016C873.76 41.032 877.505 40.04 881.601 40.04C886.081 40.04 889.889 41.224 893.024 43.592C896.225 45.96 898.369 49.256 899.457 53.48L898.881 53.864V18.92H903.681V89H899.361L899.073 75.656L899.649 75.464C899.073 78.536 897.889 81.16 896.097 83.336C894.369 85.512 892.193 87.176 889.569 88.328C887.009 89.416 884.225 89.96 881.217 89.96ZM881.793 85.736C885.185 85.736 888.161 84.904 890.721 83.24C893.281 81.512 895.265 79.048 896.673 75.848C898.145 72.648 898.881 68.904 898.881 64.616C898.881 60.392 898.145 56.776 896.673 53.768C895.265 50.696 893.281 48.36 890.721 46.76C888.225 45.096 885.313 44.264 881.985 44.264C876.481 44.264 872.129 46.12 868.928 49.832C865.728 53.544 864.128 58.6 864.128 65C864.128 71.4 865.696 76.456 868.832 80.168C872.033 83.88 876.353 85.736 881.793 85.736ZM921.385 18.92V77.672C921.385 80.616 921.897 82.696 922.921 83.912C923.945 85.128 925.545 85.736 927.721 85.736C929.065 85.736 930.121 85.64 930.889 85.448C931.721 85.256 932.681 84.936 933.769 84.488L933.097 88.712C932.265 89.096 931.305 89.384 930.217 89.576C929.193 89.832 928.041 89.96 926.761 89.96C923.369 89.96 920.809 89 919.081 87.08C917.417 85.096 916.585 82.024 916.585 77.864V18.92H921.385ZM958.682 89.96C954.266 89.96 950.33 88.968 946.874 86.984C943.418 85 940.698 82.152 938.714 78.44C936.794 74.664 935.834 70.184 935.834 65C935.834 59.816 936.794 55.368 938.714 51.656C940.698 47.88 943.354 45 946.682 43.016C950.01 41.032 953.818 40.04 958.106 40.04C962.458 40.04 966.17 41 969.242 42.92C972.314 44.84 974.682 47.528 976.346 50.984C978.01 54.376 978.842 58.312 978.842 62.792C978.842 63.368 978.81 63.944 978.746 64.52C978.746 65.032 978.714 65.512 978.65 65.96H938.81V61.64H976.538L974.138 62.312C974.074 56.808 972.602 52.424 969.722 49.16C966.906 45.896 963.002 44.264 958.01 44.264C954.554 44.264 951.514 45.096 948.89 46.76C946.266 48.36 944.218 50.728 942.746 53.864C941.274 56.936 940.538 60.648 940.538 65C940.538 69.288 941.274 73 942.746 76.136C944.282 79.272 946.394 81.672 949.082 83.336C951.834 84.936 955.002 85.736 958.586 85.736C962.298 85.736 965.466 84.936 968.09 83.336C970.778 81.736 972.858 79.528 974.33 76.712L978.17 78.92C977.018 81.224 975.482 83.208 973.562 84.872C971.642 86.472 969.434 87.72 966.938 88.616C964.442 89.512 961.69 89.96 958.682 89.96ZM1004.92 89.96C1000.06 89.96 995.735 88.968 991.959 86.984C988.247 85 985.623 82.152 984.087 78.44L988.215 75.656C989.367 78.856 991.415 81.352 994.359 83.144C997.367 84.872 1001.02 85.736 1005.3 85.736C1009.53 85.736 1012.82 84.904 1015.19 83.24C1017.62 81.576 1018.84 79.368 1018.84 76.616C1018.84 74.76 1018.23 73.16 1017.02 71.816C1015.86 70.408 1013.66 69.352 1010.39 68.648L999.159 66.248C994.551 65.288 991.255 63.752 989.271 61.64C987.351 59.464 986.391 56.84 986.391 53.768C986.391 51.208 987.159 48.904 988.695 46.856C990.231 44.808 992.343 43.176 995.031 41.96C997.783 40.68 1000.98 40.04 1004.63 40.04C1009.43 40.04 1013.4 41 1016.54 42.92C1019.67 44.776 1021.88 47.592 1023.16 51.368L1019.13 53.96C1018.17 50.568 1016.38 48.104 1013.75 46.568C1011.19 45.032 1008.15 44.264 1004.63 44.264C1001.94 44.264 999.575 44.68 997.527 45.512C995.543 46.28 993.975 47.368 992.823 48.776C991.735 50.12 991.191 51.688 991.191 53.48C991.191 55.336 991.831 57.032 993.111 58.568C994.391 60.04 996.663 61.128 999.927 61.832L1011.45 64.328C1015.99 65.288 1019.16 66.76 1020.95 68.744C1022.74 70.664 1023.64 73.064 1023.64 75.944C1023.64 78.824 1022.87 81.32 1021.34 83.432C1019.8 85.544 1017.62 87.176 1014.81 88.328C1011.99 89.416 1008.7 89.96 1004.92 89.96ZM1049.45 89.96C1044.59 89.96 1040.27 88.968 1036.49 86.984C1032.78 85 1030.16 82.152 1028.62 78.44L1032.75 75.656C1033.9 78.856 1035.95 81.352 1038.89 83.144C1041.9 84.872 1045.55 85.736 1049.84 85.736C1054.06 85.736 1057.36 84.904 1059.73 83.24C1062.16 81.576 1063.37 79.368 1063.37 76.616C1063.37 74.76 1062.77 73.16 1061.55 71.816C1060.4 70.408 1058.19 69.352 1054.93 68.648L1043.69 66.248C1039.09 65.288 1035.79 63.752 1033.81 61.64C1031.89 59.464 1030.93 56.84 1030.93 53.768C1030.93 51.208 1031.69 48.904 1033.23 46.856C1034.77 44.808 1036.88 43.176 1039.57 41.96C1042.32 40.68 1045.52 40.04 1049.17 40.04C1053.97 40.04 1057.93 41 1061.07 42.92C1064.21 44.776 1066.41 47.592 1067.69 51.368L1063.66 53.96C1062.7 50.568 1060.91 48.104 1058.29 46.568C1055.73 45.032 1052.69 44.264 1049.17 44.264C1046.48 44.264 1044.11 44.68 1042.06 45.512C1040.08 46.28 1038.51 47.368 1037.36 48.776C1036.27 50.12 1035.73 51.688 1035.73 53.48C1035.73 55.336 1036.37 57.032 1037.65 58.568C1038.93 60.04 1041.2 61.128 1044.46 61.832L1055.98 64.328C1060.53 65.288 1063.69 66.76 1065.49 68.744C1067.28 70.664 1068.17 73.064 1068.17 75.944C1068.17 78.824 1067.41 81.32 1065.87 83.432C1064.33 85.544 1062.16 87.176 1059.34 88.328C1056.53 89.416 1053.23 89.96 1049.45 89.96Z" fill="white"/>
</svg>
