<svg width="633" height="113" viewBox="0 0 633 113" fill="none" xmlns="http://www.w3.org/2000/svg">
<path d="M62.6475 72.2C61.3675 76.04 59.4475 79.304 56.8875 81.992C54.3275 84.616 51.3195 86.6 47.8635 87.944C44.4075 89.288 40.5995 89.96 36.4395 89.96C30.3595 89.96 25.0795 88.648 20.5995 86.024C16.1195 83.4 12.6635 79.656 10.2315 74.792C7.79951 69.928 6.58351 64.104 6.58351 57.32C6.58351 50.536 7.79951 44.712 10.2315 39.848C12.6635 34.984 16.1195 31.24 20.5995 28.616C25.0795 25.992 30.3275 24.68 36.3435 24.68C40.5035 24.68 44.2475 25.256 47.5755 26.408C50.9675 27.56 53.8475 29.288 56.2155 31.592C58.5835 33.896 60.4075 36.776 61.6875 40.232L51.9915 44.552C50.7115 40.776 48.8555 38.024 46.4235 36.296C43.9915 34.504 40.8235 33.608 36.9195 33.608C33.0155 33.608 29.5915 34.536 26.6475 36.392C23.7035 38.248 21.3995 40.936 19.7355 44.456C18.1355 47.976 17.3355 52.264 17.3355 57.32C17.3355 62.312 18.1035 66.6 19.6395 70.184C21.1755 73.704 23.3835 76.392 26.2635 78.248C29.1435 80.104 32.5995 81.032 36.6315 81.032C40.5355 81.032 43.8955 80.04 46.7115 78.056C49.5915 76.008 51.6395 72.968 52.8555 68.936L62.6475 72.2ZM91.3125 40.04C95.9845 40.04 100.113 41.032 103.697 43.016C107.281 45 110.065 47.88 112.049 51.656C114.097 55.368 115.121 59.816 115.121 65C115.121 70.184 114.097 74.664 112.049 78.44C110.065 82.152 107.281 85 103.697 86.984C100.113 88.968 95.9845 89.96 91.3125 89.96C86.6405 89.96 82.5125 88.968 78.9285 86.984C75.3445 85 72.5285 82.152 70.4805 78.44C68.4325 74.664 67.4085 70.184 67.4085 65C67.4085 59.816 68.4325 55.368 70.4805 51.656C72.5285 47.88 75.3445 45 78.9285 43.016C82.5125 41.032 86.6405 40.04 91.3125 40.04ZM91.3125 48.104C88.4325 48.104 85.9685 48.776 83.9205 50.12C81.9365 51.4 80.4005 53.288 79.3125 55.784C78.2245 58.28 77.6805 61.352 77.6805 65C77.6805 68.584 78.2245 71.656 79.3125 74.216C80.4005 76.712 81.9365 78.632 83.9205 79.976C85.9685 81.256 88.4325 81.896 91.3125 81.896C94.1925 81.896 96.6245 81.256 98.6085 79.976C100.593 78.632 102.129 76.712 103.217 74.216C104.305 71.656 104.849 68.584 104.849 65C104.849 61.352 104.305 58.28 103.217 55.784C102.129 53.288 100.593 51.4 98.6085 50.12C96.6245 48.776 94.1925 48.104 91.3125 48.104ZM124.779 89V41H129.099L129.483 53L128.715 52.328C129.611 49.704 130.955 47.496 132.747 45.704C134.539 43.848 136.683 42.44 139.179 41.48C141.675 40.52 144.363 40.04 147.243 40.04C150.827 40.04 153.995 40.712 156.747 42.056C159.499 43.4 161.643 45.384 163.179 48.008C164.779 50.632 165.579 53.928 165.579 57.896V89H160.779V59.432C160.779 54.184 159.467 50.344 156.843 47.912C154.283 45.48 150.923 44.264 146.763 44.264C143.755 44.264 140.939 44.968 138.315 46.376C135.755 47.72 133.643 49.704 131.979 52.328C130.379 54.952 129.579 58.152 129.579 61.928V89H124.779ZM185.063 27.656V76.328C185.063 79.336 185.767 81.64 187.175 83.24C188.647 84.776 190.759 85.544 193.511 85.544C195.303 85.544 196.871 85.256 198.215 84.68C199.623 84.04 200.871 83.144 201.959 81.992L203.783 85.928C202.567 87.144 201.031 88.136 199.175 88.904C197.319 89.608 195.239 89.96 192.935 89.96C190.439 89.96 188.231 89.512 186.311 88.616C184.391 87.656 182.887 86.216 181.799 84.296C180.775 82.376 180.263 79.944 180.263 77V29L185.063 27.656ZM203.015 41V45.128H170.663V41H203.015ZM229.027 89.96C224.611 89.96 220.675 88.968 217.219 86.984C213.763 85 211.043 82.152 209.059 78.44C207.139 74.664 206.179 70.184 206.179 65C206.179 59.816 207.139 55.368 209.059 51.656C211.043 47.88 213.699 45 217.027 43.016C220.355 41.032 224.163 40.04 228.451 40.04C232.803 40.04 236.515 41 239.587 42.92C242.659 44.84 245.027 47.528 246.691 50.984C248.355 54.376 249.187 58.312 249.187 62.792C249.187 63.368 249.155 63.944 249.091 64.52C249.091 65.032 249.059 65.512 248.995 65.96H209.155V61.64H246.883L244.483 62.312C244.419 56.808 242.947 52.424 240.067 49.16C237.251 45.896 233.347 44.264 228.355 44.264C224.899 44.264 221.859 45.096 219.235 46.76C216.611 48.36 214.563 50.728 213.091 53.864C211.619 56.936 210.883 60.648 210.883 65C210.883 69.288 211.619 73 213.091 76.136C214.627 79.272 216.739 81.672 219.427 83.336C222.179 84.936 225.347 85.736 228.931 85.736C232.643 85.736 235.811 84.936 238.435 83.336C241.123 81.736 243.203 79.528 244.675 76.712L248.515 78.92C247.363 81.224 245.827 83.208 243.907 84.872C241.987 86.472 239.779 87.72 237.283 88.616C234.787 89.512 232.035 89.96 229.027 89.96ZM259.04 89V41H263.36L263.744 53L262.976 52.328C263.872 49.704 265.216 47.496 267.008 45.704C268.8 43.848 270.944 42.44 273.44 41.48C275.936 40.52 278.624 40.04 281.504 40.04C285.088 40.04 288.256 40.712 291.008 42.056C293.76 43.4 295.904 45.384 297.44 48.008C299.04 50.632 299.84 53.928 299.84 57.896V89H295.04V59.432C295.04 54.184 293.728 50.344 291.104 47.912C288.544 45.48 285.184 44.264 281.024 44.264C278.016 44.264 275.2 44.968 272.576 46.376C270.016 47.72 267.904 49.704 266.24 52.328C264.64 54.952 263.84 58.152 263.84 61.928V89H259.04ZM319.325 27.656V76.328C319.325 79.336 320.029 81.64 321.437 83.24C322.909 84.776 325.021 85.544 327.773 85.544C329.565 85.544 331.133 85.256 332.477 84.68C333.885 84.04 335.133 83.144 336.221 81.992L338.045 85.928C336.829 87.144 335.293 88.136 333.437 88.904C331.581 89.608 329.501 89.96 327.197 89.96C324.701 89.96 322.493 89.512 320.573 88.616C318.653 87.656 317.149 86.216 316.061 84.296C315.037 82.376 314.525 79.944 314.525 77V29L319.325 27.656ZM337.277 41V45.128H304.925V41H337.277Z" fill="white"/>
<path d="M388.216 88.056C385.976 88.056 383.928 87.7253 382.072 87.064C380.237 86.4027 378.509 85.3573 376.888 83.928C375.267 82.4987 373.688 80.6427 372.152 78.36C370.637 76.12 369.389 73.944 368.408 71.832C367.427 69.72 366.691 67.64 366.2 65.592C365.731 63.5227 365.496 61.464 365.496 59.416C365.496 57.048 365.955 54.9253 366.872 53.048C367.811 51.1707 369.133 49.6987 370.84 48.632C372.568 47.544 374.605 47 376.952 47C378.701 47 380.227 47.352 381.528 48.056C382.851 48.76 383.875 49.7307 384.6 50.968C385.347 52.2053 385.72 53.624 385.72 55.224C385.72 57.336 385.165 59.1813 384.056 60.76C382.947 62.3173 381.357 63.5653 379.288 64.504C377.219 65.4427 374.733 66.04 371.832 66.296L371.608 65.304C373.357 65.0693 374.872 64.536 376.152 63.704C377.453 62.8507 378.456 61.688 379.16 60.216C379.885 58.744 380.248 56.9413 380.248 54.808C380.248 52.9093 379.917 51.3733 379.256 50.2C378.616 49.0267 377.72 48.44 376.568 48.44C375.053 48.44 373.784 49.208 372.76 50.744C371.757 52.2587 371.256 54.296 371.256 56.856C371.256 58.8827 371.512 60.9093 372.024 62.936C372.536 64.9413 373.283 66.9573 374.264 68.984C375.267 70.9893 376.472 73.0053 377.88 75.032C379.587 77.5067 381.144 79.4907 382.552 80.984C383.96 82.4773 385.325 83.5653 386.648 84.248C387.992 84.9093 389.421 85.24 390.936 85.24C392.963 85.24 394.776 84.7387 396.376 83.736C397.976 82.712 399.224 81.176 400.12 79.128C401.037 77.0587 401.496 74.4453 401.496 71.288C401.496 67.3413 400.824 63.4693 399.48 59.672C398.136 55.8747 396.013 52.4187 393.112 49.304C390.36 46.3173 387.213 43.992 383.672 42.328C380.131 40.664 376.259 39.832 372.056 39.832C368.728 39.832 365.955 40.312 363.736 41.272C361.517 42.2107 359.853 43.4907 358.744 45.112C357.656 46.712 357.112 48.5147 357.112 50.52C357.112 51.3947 357.229 52.1307 357.464 52.728C357.72 53.304 357.997 53.8373 358.296 54.328C358.616 54.7973 358.893 55.2987 359.128 55.832C359.363 56.3653 359.48 57.016 359.48 57.784C359.48 58.6587 359.171 59.3947 358.552 59.992C357.955 60.568 357.187 60.856 356.248 60.856C354.947 60.856 353.912 60.28 353.144 59.128C352.397 57.9547 352.024 56.376 352.024 54.392C352.024 51.1493 352.824 48.3227 354.424 45.912C356.045 43.5013 358.36 41.6347 361.368 40.312C364.397 38.9893 368.003 38.328 372.184 38.328C376.557 38.328 380.621 39.1813 384.376 40.888C388.131 42.5947 391.48 45.0267 394.424 48.184C397.368 51.2987 399.576 54.8293 401.048 58.776C402.52 62.7013 403.256 66.8293 403.256 71.16C403.256 74.7867 402.648 77.8587 401.432 80.376C400.216 82.8933 398.488 84.8027 396.248 86.104C394.008 87.4053 391.331 88.056 388.216 88.056ZM381.496 80.952C382.968 79.8213 384.131 78.7227 384.984 77.656C385.859 76.5893 386.488 75.576 386.872 74.616C387.277 73.6347 387.48 72.728 387.48 71.896C387.48 71.128 387.363 70.488 387.128 69.976C386.915 69.4427 386.701 68.9413 386.488 68.472C386.275 68.0027 386.168 67.4693 386.168 66.872C386.168 65.976 386.467 65.208 387.064 64.568C387.683 63.928 388.461 63.608 389.4 63.608C390.381 63.608 391.181 64.0027 391.8 64.792C392.44 65.56 392.76 66.6587 392.76 68.088C392.76 70.6267 391.885 73.0587 390.136 75.384C388.408 77.688 385.763 79.8213 382.2 81.784L381.496 80.952ZM367.288 66.776C365.411 67.0747 363.843 67.6933 362.584 68.632C361.325 69.5707 360.387 70.712 359.768 72.056C359.149 73.4 358.84 74.8293 358.84 76.344C358.84 79.0747 359.597 81.24 361.112 82.84C362.648 84.4187 364.696 85.208 367.256 85.208C369.091 85.208 370.691 84.92 372.056 84.344C373.443 83.7467 374.744 82.968 375.96 82.008L376.792 83.128C375.704 84.088 374.52 84.9307 373.24 85.656C371.981 86.36 370.563 86.904 368.984 87.288C367.405 87.6933 365.613 87.896 363.608 87.896C359.917 87.896 357.037 87.0213 354.968 85.272C352.92 83.5013 351.896 81.08 351.896 78.008C351.896 75.7893 352.472 73.7947 353.624 72.024C354.776 70.2533 356.493 68.8133 358.776 67.704C361.059 66.5947 363.907 65.9013 367.32 65.624L367.288 66.776Z" fill="white"/>
<path d="M421.408 89V25.64H446.368C453.984 25.64 459.552 27.176 463.072 30.248C466.592 33.32 468.352 37.576 468.352 43.016C468.352 46.344 467.392 49.32 465.472 51.944C463.552 54.504 460.736 56.136 457.024 56.84V56.936C461.12 57.576 464.288 59.272 466.528 62.024C468.832 64.712 469.984 67.848 469.984 71.432C469.984 76.872 468 81.16 464.032 84.296C460.064 87.432 454.304 89 446.752 89H421.408ZM431.488 80.456H447.232C451.264 80.456 454.272 79.624 456.256 77.96C458.304 76.296 459.328 73.96 459.328 70.952C459.328 67.944 458.304 65.608 456.256 63.944C454.272 62.28 451.264 61.448 447.232 61.448H431.488V80.456ZM431.488 52.904H445.6C453.664 52.904 457.696 49.8 457.696 43.592C457.696 37.384 453.664 34.28 445.6 34.28H431.488V52.904ZM500.523 40.04C505.195 40.04 509.323 41.032 512.907 43.016C516.491 45 519.275 47.88 521.259 51.656C523.307 55.368 524.331 59.816 524.331 65C524.331 70.184 523.307 74.664 521.259 78.44C519.275 82.152 516.491 85 512.907 86.984C509.323 88.968 505.195 89.96 500.523 89.96C495.851 89.96 491.723 88.968 488.139 86.984C484.555 85 481.739 82.152 479.691 78.44C477.643 74.664 476.619 70.184 476.619 65C476.619 59.816 477.643 55.368 479.691 51.656C481.739 47.88 484.555 45 488.139 43.016C491.723 41.032 495.851 40.04 500.523 40.04ZM500.523 48.104C497.643 48.104 495.179 48.776 493.131 50.12C491.147 51.4 489.611 53.288 488.523 55.784C487.435 58.28 486.891 61.352 486.891 65C486.891 68.584 487.435 71.656 488.523 74.216C489.611 76.712 491.147 78.632 493.131 79.976C495.179 81.256 497.643 81.896 500.523 81.896C503.403 81.896 505.835 81.256 507.819 79.976C509.803 78.632 511.339 76.712 512.427 74.216C513.515 71.656 514.059 68.584 514.059 65C514.059 61.352 513.515 58.28 512.427 55.784C511.339 53.288 509.803 51.4 507.819 50.12C505.835 48.776 503.403 48.104 500.523 48.104ZM551.845 89.96C547.877 89.96 544.261 88.968 540.997 86.984C537.797 85 535.269 82.152 533.413 78.44C531.557 74.728 530.629 70.28 530.629 65.096C530.629 59.72 531.621 55.176 533.605 51.464C535.589 47.752 538.245 44.936 541.573 43.016C544.901 41.032 548.549 40.04 552.517 40.04C556.613 40.04 560.069 41.16 562.885 43.4C565.701 45.64 567.589 48.552 568.549 52.136L567.397 53.192V19.4H577.669V89H568.549L567.781 75.944L569.125 76.04C568.677 78.92 567.621 81.416 565.957 83.528C564.293 85.576 562.213 87.176 559.717 88.328C557.285 89.416 554.661 89.96 551.845 89.96ZM554.053 81.704C556.805 81.704 559.173 81 561.157 79.592C563.141 78.184 564.677 76.2 565.765 73.64C566.853 71.08 567.397 68.008 567.397 64.424C567.397 61.096 566.853 58.248 565.765 55.88C564.677 53.448 563.141 51.592 561.157 50.312C559.237 49.032 556.997 48.392 554.437 48.392C550.149 48.392 546.821 49.864 544.453 52.808C542.085 55.752 540.901 59.816 540.901 65C540.901 70.184 542.053 74.28 544.357 77.288C546.661 80.232 549.893 81.704 554.053 81.704ZM631.904 41L610.88 94.664C609.472 98.376 607.936 101.32 606.272 103.496C604.672 105.672 602.816 107.24 600.704 108.2C598.592 109.16 596.128 109.64 593.312 109.64C591.008 109.64 588.864 109.32 586.88 108.68C584.96 108.104 583.264 107.304 581.792 106.28L584.288 98.312C585.504 99.336 586.784 100.104 588.128 100.616C589.536 101.128 591.04 101.384 592.64 101.384C594.368 101.384 595.904 100.904 597.248 99.944C598.656 99.048 599.904 97.224 600.992 94.472L603.104 89.288L598.016 77.384L583.04 41H594.56L605.216 71.144L608 80.168L611.168 70.28L621.248 41H631.904Z" fill="white"/>
</svg>
